<svg width="600px" height="2185px"
 viewBox="0.00 0.00 134.00 488.00" xmlns="http://www.w3.org/2000/svg" xmlns:xlink="http://www.w3.org/1999/xlink">
<g id="graph0" class="graph" transform="scale(1.0 1.0) rotate(0) translate(4 484)">
<title>%0</title>
<polygon fill="#ffffff" stroke="transparent" points="-4,4 -4,-484 130,-484 130,4 -4,4"/>
<!-- 3 -->
<g id="node1" class="node">
<title>3</title>
<ellipse fill="none" stroke="#ff0000" cx="77" cy="-462" rx="27" ry="18"/>
<text text-anchor="middle" x="77" y="-457.8" font-family="Times,serif" font-size="14.00" fill="#000000">3</text>
</g>
<!-- 4 -->
<g id="node2" class="node">
<title>4</title>
<ellipse fill="none" stroke="#ff0000" cx="77" cy="-373.2" rx="27" ry="18"/>
<text text-anchor="middle" x="77" y="-369" font-family="Times,serif" font-size="14.00" fill="#000000">4</text>
</g>
<!-- 3&#45;&gt;4 -->
<g id="edge1" class="edge">
<title>3&#45;&gt;4</title>
<path fill="none" stroke="#000000" d="M77,-443.6006C77,-431.4949 77,-415.4076 77,-401.6674"/>
<polygon fill="#000000" stroke="#000000" points="80.5001,-401.272 77,-391.272 73.5001,-401.2721 80.5001,-401.272"/>
<text text-anchor="middle" x="87.5" y="-413.4" font-family="Times,serif" font-size="14.00" fill="#000000">297</text>
</g>
<!-- 5 -->
<g id="node3" class="node">
<title>5</title>
<ellipse fill="none" stroke="#ff0000" cx="77" cy="-284.4" rx="27" ry="18"/>
<text text-anchor="middle" x="77" y="-280.2" font-family="Times,serif" font-size="14.00" fill="#000000">5</text>
</g>
<!-- 4&#45;&gt;5 -->
<g id="edge2" class="edge">
<title>4&#45;&gt;5</title>
<path fill="none" stroke="#000000" d="M77,-354.8006C77,-342.6949 77,-326.6076 77,-312.8674"/>
<polygon fill="#000000" stroke="#000000" points="80.5001,-312.472 77,-302.472 73.5001,-312.4721 80.5001,-312.472"/>
<text text-anchor="middle" x="87.5" y="-324.6" font-family="Times,serif" font-size="14.00" fill="#000000">298</text>
</g>
<!-- 1 -->
<g id="node4" class="node">
<title>1</title>
<ellipse fill="none" stroke="#ff0000" cx="27" cy="-195.6" rx="27" ry="18"/>
<text text-anchor="middle" x="27" y="-191.4" font-family="Times,serif" font-size="14.00" fill="#000000">1</text>
</g>
<!-- 5&#45;&gt;1 -->
<g id="edge3" class="edge">
<title>5&#45;&gt;1</title>
<path fill="none" stroke="#000000" d="M67.3595,-267.2785C60.0966,-254.3795 50.0098,-236.4655 41.7373,-221.7734"/>
<polygon fill="#000000" stroke="#000000" points="44.5671,-219.6654 36.6109,-212.669 38.4675,-223.0999 44.5671,-219.6654"/>
<text text-anchor="middle" x="66.5" y="-235.8" font-family="Times,serif" font-size="14.00" fill="#000000">301</text>
</g>
<!-- 6 -->
<g id="node7" class="node">
<title>6</title>
<ellipse fill="none" stroke="#ff0000" cx="99" cy="-195.6" rx="27" ry="18"/>
<text text-anchor="middle" x="99" y="-191.4" font-family="Times,serif" font-size="14.00" fill="#000000">6</text>
</g>
<!-- 5&#45;&gt;6 -->
<g id="edge4" class="edge">
<title>5&#45;&gt;6</title>
<path fill="none" stroke="#000000" d="M81.452,-266.43C84.4936,-254.153 88.5854,-237.6372 92.0526,-223.6421"/>
<polygon fill="#000000" stroke="#000000" points="95.547,-224.0915 94.5546,-213.5433 88.7525,-222.4081 95.547,-224.0915"/>
<text text-anchor="middle" x="99.5" y="-235.8" font-family="Times,serif" font-size="14.00" fill="#000000">298</text>
</g>
<!-- 35 -->
<g id="node5" class="node">
<title>35</title>
<ellipse fill="none" stroke="#000000" cx="27" cy="-106.8" rx="27" ry="18"/>
<text text-anchor="middle" x="27" y="-102.6" font-family="Times,serif" font-size="14.00" fill="#000000">35</text>
</g>
<!-- 1&#45;&gt;35 -->
<g id="edge5" class="edge">
<title>1&#45;&gt;35</title>
<path fill="none" stroke="#000000" d="M27,-177.2006C27,-165.0949 27,-149.0076 27,-135.2674"/>
<polygon fill="#000000" stroke="#000000" points="30.5001,-134.872 27,-124.872 23.5001,-134.8721 30.5001,-134.872"/>
<text text-anchor="middle" x="37.5" y="-147" font-family="Times,serif" font-size="14.00" fill="#000000">201</text>
</g>
<!-- 2 -->
<g id="node6" class="node">
<title>2</title>
<ellipse fill="none" stroke="#ff0000" cx="27" cy="-18" rx="27" ry="18"/>
<text text-anchor="middle" x="27" y="-13.8" font-family="Times,serif" font-size="14.00" fill="#000000">2</text>
</g>
<!-- 35&#45;&gt;2 -->
<g id="edge6" class="edge">
<title>35&#45;&gt;2</title>
<path fill="none" stroke="#000000" d="M27,-88.4006C27,-76.2949 27,-60.2076 27,-46.4674"/>
<polygon fill="#000000" stroke="#000000" points="30.5001,-46.072 27,-36.072 23.5001,-46.0721 30.5001,-46.072"/>
<text text-anchor="middle" x="37.5" y="-58.2" font-family="Times,serif" font-size="14.00" fill="#000000">190</text>
</g>
</g>
</svg>
