<svg width="600px" height="1315px"
 viewBox="0.00 0.00 181.50 399.20" xmlns="http://www.w3.org/2000/svg" xmlns:xlink="http://www.w3.org/1999/xlink">
<g id="graph0" class="graph" transform="scale(1.0 1.0) rotate(0) translate(4 395.2)">
<title>%0</title>
<polygon fill="#ffffff" stroke="transparent" points="-4,4 -4,-395.2 177.5,-395.2 177.5,4 -4,4"/>
<!-- 2 -->
<g id="node1" class="node">
<title>2</title>
<ellipse fill="none" stroke="#ff0000" cx="99" cy="-373.2" rx="27" ry="18"/>
<text text-anchor="middle" x="99" y="-369" font-family="Times,serif" font-size="14.00" fill="#000000">2</text>
</g>
<!-- 38 -->
<g id="node2" class="node">
<title>38</title>
<ellipse fill="none" stroke="#000000" cx="63" cy="-284.4" rx="27" ry="18"/>
<text text-anchor="middle" x="63" y="-280.2" font-family="Times,serif" font-size="14.00" fill="#000000">38</text>
</g>
<!-- 2&#45;&gt;38 -->
<g id="edge1" class="edge">
<title>2&#45;&gt;38</title>
<path fill="none" stroke="#000000" d="M84.5575,-357.7923C79.6773,-351.7823 74.6681,-344.5701 71.5,-337.2 68.2367,-329.6083 66.215,-320.9135 64.9661,-312.8002"/>
<polygon fill="#000000" stroke="#000000" points="68.409,-312.1168 63.73,-302.6112 61.4599,-312.96 68.409,-312.1168"/>
<text text-anchor="middle" x="91.25" y="-324.6" font-family="Times,serif" font-size="14.00" fill="#000000">195.00</text>
</g>
<!-- 29 -->
<g id="node8" class="node">
<title>29</title>
<ellipse fill="none" stroke="#000000" cx="135" cy="-284.4" rx="27" ry="18"/>
<text text-anchor="middle" x="135" y="-280.2" font-family="Times,serif" font-size="14.00" fill="#000000">29</text>
</g>
<!-- 2&#45;&gt;29 -->
<g id="edge2" class="edge">
<title>2&#45;&gt;29</title>
<path fill="none" stroke="#000000" d="M106.1124,-355.656C111.2404,-343.0071 118.2567,-325.7002 124.0903,-311.3105"/>
<polygon fill="#000000" stroke="#000000" points="127.3888,-312.49 127.9023,-301.9076 120.9016,-309.86 127.3888,-312.49"/>
<text text-anchor="middle" x="140.25" y="-324.6" font-family="Times,serif" font-size="14.00" fill="#000000">205.00</text>
</g>
<!-- 3 -->
<g id="node3" class="node">
<title>3</title>
<ellipse fill="none" stroke="#ff0000" cx="63" cy="-195.6" rx="27" ry="18"/>
<text text-anchor="middle" x="63" y="-191.4" font-family="Times,serif" font-size="14.00" fill="#000000">3</text>
</g>
<!-- 38&#45;&gt;3 -->
<g id="edge3" class="edge">
<title>38&#45;&gt;3</title>
<path fill="none" stroke="#000000" d="M63,-266.0006C63,-253.8949 63,-237.8076 63,-224.0674"/>
<polygon fill="#000000" stroke="#000000" points="66.5001,-223.672 63,-213.672 59.5001,-223.6721 66.5001,-223.672"/>
<text text-anchor="middle" x="82.25" y="-235.8" font-family="Times,serif" font-size="14.00" fill="#000000">195.00</text>
</g>
<!-- 4 -->
<g id="node4" class="node">
<title>4</title>
<ellipse fill="none" stroke="#ff0000" cx="27" cy="-106.8" rx="27" ry="18"/>
<text text-anchor="middle" x="27" y="-102.6" font-family="Times,serif" font-size="14.00" fill="#000000">4</text>
</g>
<!-- 3&#45;&gt;4 -->
<g id="edge4" class="edge">
<title>3&#45;&gt;4</title>
<path fill="none" stroke="#000000" d="M48.5575,-180.1923C43.6773,-174.1823 38.6681,-166.9701 35.5,-159.6 32.2367,-152.0083 30.215,-143.3135 28.9661,-135.2002"/>
<polygon fill="#000000" stroke="#000000" points="32.409,-134.5168 27.73,-125.0112 25.4599,-135.36 32.409,-134.5168"/>
<text text-anchor="middle" x="55.25" y="-147" font-family="Times,serif" font-size="14.00" fill="#000000">307.00</text>
</g>
<!-- 70 -->
<g id="node6" class="node">
<title>70</title>
<ellipse fill="none" stroke="#000000" cx="99" cy="-106.8" rx="27" ry="18"/>
<text text-anchor="middle" x="99" y="-102.6" font-family="Times,serif" font-size="14.00" fill="#000000">70</text>
</g>
<!-- 3&#45;&gt;70 -->
<g id="edge5" class="edge">
<title>3&#45;&gt;70</title>
<path fill="none" stroke="#000000" d="M70.1124,-178.056C75.2404,-165.4071 82.2567,-148.1002 88.0903,-133.7105"/>
<polygon fill="#000000" stroke="#000000" points="91.3888,-134.89 91.9023,-124.3076 84.9016,-132.26 91.3888,-134.89"/>
<text text-anchor="middle" x="104.25" y="-147" font-family="Times,serif" font-size="14.00" fill="#000000">192.00</text>
</g>
<!-- 1 -->
<g id="node5" class="node">
<title>1</title>
<ellipse fill="none" stroke="#ff0000" cx="27" cy="-18" rx="27" ry="18"/>
<text text-anchor="middle" x="27" y="-13.8" font-family="Times,serif" font-size="14.00" fill="#000000">1</text>
</g>
<!-- 4&#45;&gt;1 -->
<g id="edge6" class="edge">
<title>4&#45;&gt;1</title>
<path fill="none" stroke="#000000" d="M27,-88.4006C27,-76.2949 27,-60.2076 27,-46.4674"/>
<polygon fill="#000000" stroke="#000000" points="30.5001,-46.072 27,-36.072 23.5001,-46.0721 30.5001,-46.072"/>
<text text-anchor="middle" x="46.25" y="-58.2" font-family="Times,serif" font-size="14.00" fill="#000000">294.00</text>
</g>
<!-- 5 -->
<g id="node7" class="node">
<title>5</title>
<ellipse fill="none" stroke="#ff0000" cx="99" cy="-18" rx="27" ry="18"/>
<text text-anchor="middle" x="99" y="-13.8" font-family="Times,serif" font-size="14.00" fill="#000000">5</text>
</g>
<!-- 70&#45;&gt;5 -->
<g id="edge7" class="edge">
<title>70&#45;&gt;5</title>
<path fill="none" stroke="#000000" d="M99,-88.4006C99,-76.2949 99,-60.2076 99,-46.4674"/>
<polygon fill="#000000" stroke="#000000" points="102.5001,-46.072 99,-36.072 95.5001,-46.0721 102.5001,-46.072"/>
<text text-anchor="middle" x="118.25" y="-58.2" font-family="Times,serif" font-size="14.00" fill="#000000">210.00</text>
</g>
<!-- 6 -->
<g id="node9" class="node">
<title>6</title>
<ellipse fill="none" stroke="#ff0000" cx="135" cy="-195.6" rx="27" ry="18"/>
<text text-anchor="middle" x="135" y="-191.4" font-family="Times,serif" font-size="14.00" fill="#000000">6</text>
</g>
<!-- 29&#45;&gt;6 -->
<g id="edge8" class="edge">
<title>29&#45;&gt;6</title>
<path fill="none" stroke="#000000" d="M135,-266.0006C135,-253.8949 135,-237.8076 135,-224.0674"/>
<polygon fill="#000000" stroke="#000000" points="138.5001,-223.672 135,-213.672 131.5001,-223.6721 138.5001,-223.672"/>
<text text-anchor="middle" x="154.25" y="-235.8" font-family="Times,serif" font-size="14.00" fill="#000000">190.00</text>
</g>
</g>
</svg>
