<svg width="600px" height="903px"
 viewBox="0.00 0.00 206.00 310.40" xmlns="http://www.w3.org/2000/svg" xmlns:xlink="http://www.w3.org/1999/xlink">
<g id="graph0" class="graph" transform="scale(1.0 1.0) rotate(0) translate(4 306.4)">
<title>%0</title>
<polygon fill="#ffffff" stroke="transparent" points="-4,4 -4,-306.4 202,-306.4 202,4 -4,4"/>
<!-- 1 -->
<g id="node1" class="node">
<title>1</title>
<ellipse fill="none" stroke="#ff0000" cx="27" cy="-106.8" rx="27" ry="18"/>
<text text-anchor="middle" x="27" y="-102.6" font-family="Times,serif" font-size="14.00" fill="#000000">1</text>
</g>
<!-- 2 -->
<g id="node2" class="node">
<title>2</title>
<ellipse fill="none" stroke="#ff0000" cx="99" cy="-195.6" rx="27" ry="18"/>
<text text-anchor="middle" x="99" y="-191.4" font-family="Times,serif" font-size="14.00" fill="#000000">2</text>
</g>
<!-- 2&#45;&gt;1 -->
<g id="edge1" class="edge">
<title>2&#45;&gt;1</title>
<path fill="none" stroke="#000000" d="M80.3202,-182.1792C72.3786,-175.897 63.3834,-167.9612 56.5,-159.6 50.0306,-151.7416 44.2307,-142.2638 39.521,-133.5199"/>
<polygon fill="#000000" stroke="#000000" points="42.537,-131.7309 34.8582,-124.4311 36.3088,-134.9262 42.537,-131.7309"/>
<text text-anchor="middle" x="76.25" y="-147" font-family="Times,serif" font-size="14.00" fill="#000000">386.00</text>
</g>
<!-- 3 -->
<g id="node3" class="node">
<title>3</title>
<ellipse fill="none" stroke="#ff0000" cx="99" cy="-106.8" rx="27" ry="18"/>
<text text-anchor="middle" x="99" y="-102.6" font-family="Times,serif" font-size="14.00" fill="#000000">3</text>
</g>
<!-- 2&#45;&gt;3 -->
<g id="edge2" class="edge">
<title>2&#45;&gt;3</title>
<path fill="none" stroke="#000000" d="M99,-177.2006C99,-165.0949 99,-149.0076 99,-135.2674"/>
<polygon fill="#000000" stroke="#000000" points="102.5001,-134.872 99,-124.872 95.5001,-134.8721 102.5001,-134.872"/>
<text text-anchor="middle" x="118.25" y="-147" font-family="Times,serif" font-size="14.00" fill="#000000">305.00</text>
</g>
<!-- 5 -->
<g id="node5" class="node">
<title>5</title>
<ellipse fill="none" stroke="#ff0000" cx="171" cy="-106.8" rx="27" ry="18"/>
<text text-anchor="middle" x="171" y="-102.6" font-family="Times,serif" font-size="14.00" fill="#000000">5</text>
</g>
<!-- 2&#45;&gt;5 -->
<g id="edge3" class="edge">
<title>2&#45;&gt;5</title>
<path fill="none" stroke="#000000" d="M117.4225,-182.1206C125.2637,-175.8276 134.158,-167.8995 141,-159.6 147.501,-151.7141 153.3802,-142.2296 158.1763,-133.488"/>
<polygon fill="#000000" stroke="#000000" points="161.3945,-134.8871 162.9337,-124.4047 155.1935,-131.6393 161.3945,-134.8871"/>
<text text-anchor="middle" x="172.25" y="-147" font-family="Times,serif" font-size="14.00" fill="#000000">306.00</text>
</g>
<!-- 6 -->
<g id="node4" class="node">
<title>6</title>
<ellipse fill="none" stroke="#ff0000" cx="99" cy="-18" rx="27" ry="18"/>
<text text-anchor="middle" x="99" y="-13.8" font-family="Times,serif" font-size="14.00" fill="#000000">6</text>
</g>
<!-- 3&#45;&gt;6 -->
<g id="edge4" class="edge">
<title>3&#45;&gt;6</title>
<path fill="none" stroke="#000000" d="M99,-88.4006C99,-76.2949 99,-60.2076 99,-46.4674"/>
<polygon fill="#000000" stroke="#000000" points="102.5001,-46.072 99,-36.072 95.5001,-46.0721 102.5001,-46.072"/>
<text text-anchor="middle" x="118.25" y="-58.2" font-family="Times,serif" font-size="14.00" fill="#000000">401.00</text>
</g>
<!-- 36 -->
<g id="node6" class="node">
<title>36</title>
<ellipse fill="none" stroke="#000000" cx="135" cy="-284.4" rx="27" ry="18"/>
<text text-anchor="middle" x="135" y="-280.2" font-family="Times,serif" font-size="14.00" fill="#000000">36</text>
</g>
<!-- 36&#45;&gt;2 -->
<g id="edge5" class="edge">
<title>36&#45;&gt;2</title>
<path fill="none" stroke="#000000" d="M122.1208,-268.3253C117.8773,-262.358 113.4858,-255.3455 110.5,-248.4 107.1653,-240.643 104.754,-231.8142 103.0289,-223.6261"/>
<polygon fill="#000000" stroke="#000000" points="106.4578,-222.92 101.193,-213.7259 99.5751,-224.1964 106.4578,-222.92"/>
<text text-anchor="middle" x="130.25" y="-235.8" font-family="Times,serif" font-size="14.00" fill="#000000">203.00</text>
</g>
<!-- 4 -->
<g id="node7" class="node">
<title>4</title>
<ellipse fill="none" stroke="#ff0000" cx="171" cy="-195.6" rx="27" ry="18"/>
<text text-anchor="middle" x="171" y="-191.4" font-family="Times,serif" font-size="14.00" fill="#000000">4</text>
</g>
<!-- 36&#45;&gt;4 -->
<g id="edge6" class="edge">
<title>36&#45;&gt;4</title>
<path fill="none" stroke="#000000" d="M142.1124,-266.856C147.2404,-254.2071 154.2567,-236.9002 160.0903,-222.5105"/>
<polygon fill="#000000" stroke="#000000" points="163.3888,-223.69 163.9023,-213.1076 156.9016,-221.06 163.3888,-223.69"/>
<text text-anchor="middle" x="176.25" y="-235.8" font-family="Times,serif" font-size="14.00" fill="#000000">207.00</text>
</g>
</g>
</svg>
