<svg width="600px" height="1094px"
 viewBox="0.00 0.00 170.00 310.40" xmlns="http://www.w3.org/2000/svg" xmlns:xlink="http://www.w3.org/1999/xlink">
<g id="graph0" class="graph" transform="scale(1.0 1.0) rotate(0) translate(4 306.4)">
<title>%0</title>
<polygon fill="#ffffff" stroke="transparent" points="-4,4 -4,-306.4 166,-306.4 166,4 -4,4"/>
<!-- 3 -->
<g id="node1" class="node">
<title>3</title>
<ellipse fill="none" stroke="#ff0000" cx="113" cy="-284.4" rx="27" ry="18"/>
<text text-anchor="middle" x="113" y="-280.2" font-family="Times,serif" font-size="14.00" fill="#000000">3</text>
</g>
<!-- 5 -->
<g id="node2" class="node">
<title>5</title>
<ellipse fill="none" stroke="#ff0000" cx="113" cy="-195.6" rx="27" ry="18"/>
<text text-anchor="middle" x="113" y="-191.4" font-family="Times,serif" font-size="14.00" fill="#000000">5</text>
</g>
<!-- 3&#45;&gt;5 -->
<g id="edge1" class="edge">
<title>3&#45;&gt;5</title>
<path fill="none" stroke="#000000" d="M113,-266.0006C113,-253.8949 113,-237.8076 113,-224.0674"/>
<polygon fill="#000000" stroke="#000000" points="116.5001,-223.672 113,-213.672 109.5001,-223.6721 116.5001,-223.672"/>
<text text-anchor="middle" x="123.5" y="-235.8" font-family="Times,serif" font-size="14.00" fill="#000000">293</text>
</g>
<!-- 1 -->
<g id="node3" class="node">
<title>1</title>
<ellipse fill="none" stroke="#ff0000" cx="63" cy="-106.8" rx="27" ry="18"/>
<text text-anchor="middle" x="63" y="-102.6" font-family="Times,serif" font-size="14.00" fill="#000000">1</text>
</g>
<!-- 5&#45;&gt;1 -->
<g id="edge2" class="edge">
<title>5&#45;&gt;1</title>
<path fill="none" stroke="#000000" d="M103.3595,-178.4785C96.0966,-165.5795 86.0098,-147.6655 77.7373,-132.9734"/>
<polygon fill="#000000" stroke="#000000" points="80.5671,-130.8654 72.6109,-123.869 74.4675,-134.2999 80.5671,-130.8654"/>
<text text-anchor="middle" x="102.5" y="-147" font-family="Times,serif" font-size="14.00" fill="#000000">287</text>
</g>
<!-- 6 -->
<g id="node6" class="node">
<title>6</title>
<ellipse fill="none" stroke="#ff0000" cx="135" cy="-106.8" rx="27" ry="18"/>
<text text-anchor="middle" x="135" y="-102.6" font-family="Times,serif" font-size="14.00" fill="#000000">6</text>
</g>
<!-- 5&#45;&gt;6 -->
<g id="edge3" class="edge">
<title>5&#45;&gt;6</title>
<path fill="none" stroke="#000000" d="M117.452,-177.63C120.4936,-165.353 124.5854,-148.8372 128.0526,-134.8421"/>
<polygon fill="#000000" stroke="#000000" points="131.547,-135.2915 130.5546,-124.7433 124.7525,-133.6081 131.547,-135.2915"/>
<text text-anchor="middle" x="135.5" y="-147" font-family="Times,serif" font-size="14.00" fill="#000000">296</text>
</g>
<!-- 2 -->
<g id="node4" class="node">
<title>2</title>
<ellipse fill="none" stroke="#ff0000" cx="27" cy="-18" rx="27" ry="18"/>
<text text-anchor="middle" x="27" y="-13.8" font-family="Times,serif" font-size="14.00" fill="#000000">2</text>
</g>
<!-- 1&#45;&gt;2 -->
<g id="edge4" class="edge">
<title>1&#45;&gt;2</title>
<path fill="none" stroke="#000000" d="M55.8876,-89.256C50.7596,-76.6071 43.7433,-59.3002 37.9097,-44.9105"/>
<polygon fill="#000000" stroke="#000000" points="41.0984,-43.46 34.0977,-35.5076 34.6112,-46.09 41.0984,-43.46"/>
<text text-anchor="middle" x="59.5" y="-58.2" font-family="Times,serif" font-size="14.00" fill="#000000">297</text>
</g>
<!-- 4 -->
<g id="node5" class="node">
<title>4</title>
<ellipse fill="none" stroke="#ff0000" cx="99" cy="-18" rx="27" ry="18"/>
<text text-anchor="middle" x="99" y="-13.8" font-family="Times,serif" font-size="14.00" fill="#000000">4</text>
</g>
<!-- 1&#45;&gt;4 -->
<g id="edge5" class="edge">
<title>1&#45;&gt;4</title>
<path fill="none" stroke="#000000" d="M70.1124,-89.256C75.2404,-76.6071 82.2567,-59.3002 88.0903,-44.9105"/>
<polygon fill="#000000" stroke="#000000" points="91.3888,-46.09 91.9023,-35.5076 84.9016,-43.46 91.3888,-46.09"/>
<text text-anchor="middle" x="95.5" y="-58.2" font-family="Times,serif" font-size="14.00" fill="#000000">298</text>
</g>
</g>
</svg>
