<svg width="600px" height="550px"
 viewBox="0.00 0.00 242.00 221.60" xmlns="http://www.w3.org/2000/svg" xmlns:xlink="http://www.w3.org/1999/xlink">
<g id="graph0" class="graph" transform="scale(1.0 1.0) rotate(0) translate(4 217.6)">
<title>%0</title>
<polygon fill="#ffffff" stroke="transparent" points="-4,4 -4,-217.6 238,-217.6 238,4 -4,4"/>
<!-- 1 -->
<g id="node1" class="node">
<title>1</title>
<ellipse fill="none" stroke="#ff0000" cx="99" cy="-195.6" rx="27" ry="18"/>
<text text-anchor="middle" x="99" y="-191.4" font-family="Times,serif" font-size="14.00" fill="#000000">1</text>
</g>
<!-- 2 -->
<g id="node2" class="node">
<title>2</title>
<ellipse fill="none" stroke="#ff0000" cx="27" cy="-106.8" rx="27" ry="18"/>
<text text-anchor="middle" x="27" y="-102.6" font-family="Times,serif" font-size="14.00" fill="#000000">2</text>
</g>
<!-- 1&#45;&gt;2 -->
<g id="edge1" class="edge">
<title>1&#45;&gt;2</title>
<path fill="none" stroke="#000000" d="M80.3202,-182.1792C72.3786,-175.897 63.3834,-167.9612 56.5,-159.6 50.0306,-151.7416 44.2307,-142.2638 39.521,-133.5199"/>
<polygon fill="#000000" stroke="#000000" points="42.537,-131.7309 34.8582,-124.4311 36.3088,-134.9262 42.537,-131.7309"/>
<text text-anchor="middle" x="76.25" y="-147" font-family="Times,serif" font-size="14.00" fill="#000000">297.00</text>
</g>
<!-- 4 -->
<g id="node3" class="node">
<title>4</title>
<ellipse fill="none" stroke="#ff0000" cx="99" cy="-106.8" rx="27" ry="18"/>
<text text-anchor="middle" x="99" y="-102.6" font-family="Times,serif" font-size="14.00" fill="#000000">4</text>
</g>
<!-- 1&#45;&gt;4 -->
<g id="edge2" class="edge">
<title>1&#45;&gt;4</title>
<path fill="none" stroke="#000000" d="M99,-177.2006C99,-165.0949 99,-149.0076 99,-135.2674"/>
<polygon fill="#000000" stroke="#000000" points="102.5001,-134.872 99,-124.872 95.5001,-134.8721 102.5001,-134.872"/>
<text text-anchor="middle" x="118.25" y="-147" font-family="Times,serif" font-size="14.00" fill="#000000">302.00</text>
</g>
<!-- 5 -->
<g id="node4" class="node">
<title>5</title>
<ellipse fill="none" stroke="#ff0000" cx="171" cy="-106.8" rx="27" ry="18"/>
<text text-anchor="middle" x="171" y="-102.6" font-family="Times,serif" font-size="14.00" fill="#000000">5</text>
</g>
<!-- 1&#45;&gt;5 -->
<g id="edge3" class="edge">
<title>1&#45;&gt;5</title>
<path fill="none" stroke="#000000" d="M117.4225,-182.1206C125.2637,-175.8276 134.158,-167.8995 141,-159.6 147.501,-151.7141 153.3802,-142.2296 158.1763,-133.488"/>
<polygon fill="#000000" stroke="#000000" points="161.3945,-134.8871 162.9337,-124.4047 155.1935,-131.6393 161.3945,-134.8871"/>
<text text-anchor="middle" x="171.25" y="-147" font-family="Times,serif" font-size="14.00" fill="#000000">297.00</text>
</g>
<!-- 3 -->
<g id="node5" class="node">
<title>3</title>
<ellipse fill="none" stroke="#ff0000" cx="135" cy="-18" rx="27" ry="18"/>
<text text-anchor="middle" x="135" y="-13.8" font-family="Times,serif" font-size="14.00" fill="#000000">3</text>
</g>
<!-- 5&#45;&gt;3 -->
<g id="edge4" class="edge">
<title>5&#45;&gt;3</title>
<path fill="none" stroke="#000000" d="M158.1208,-90.7253C153.8773,-84.758 149.4858,-77.7455 146.5,-70.8 143.1653,-63.043 140.754,-54.2142 139.0289,-46.0261"/>
<polygon fill="#000000" stroke="#000000" points="142.4578,-45.32 137.193,-36.1259 135.5751,-46.5964 142.4578,-45.32"/>
<text text-anchor="middle" x="165.25" y="-58.2" font-family="Times,serif" font-size="14.00" fill="#000000">298.00</text>
</g>
<!-- 6 -->
<g id="node6" class="node">
<title>6</title>
<ellipse fill="none" stroke="#ff0000" cx="207" cy="-18" rx="27" ry="18"/>
<text text-anchor="middle" x="207" y="-13.8" font-family="Times,serif" font-size="14.00" fill="#000000">6</text>
</g>
<!-- 5&#45;&gt;6 -->
<g id="edge5" class="edge">
<title>5&#45;&gt;6</title>
<path fill="none" stroke="#000000" d="M178.1124,-89.256C183.2404,-76.6071 190.2567,-59.3002 196.0903,-44.9105"/>
<polygon fill="#000000" stroke="#000000" points="199.3888,-46.09 199.9023,-35.5076 192.9016,-43.46 199.3888,-46.09"/>
<text text-anchor="middle" x="211.25" y="-58.2" font-family="Times,serif" font-size="14.00" fill="#000000">296.00</text>
</g>
</g>
</svg>
