<svg width="600px" height="1787px"
 viewBox="0.00 0.00 134.00 399.20" xmlns="http://www.w3.org/2000/svg" xmlns:xlink="http://www.w3.org/1999/xlink">
<g id="graph0" class="graph" transform="scale(1.0 1.0) rotate(0) translate(4 395.2)">
<title>%0</title>
<polygon fill="#ffffff" stroke="transparent" points="-4,4 -4,-395.2 130,-395.2 130,4 -4,4"/>
<!-- 2 -->
<g id="node1" class="node">
<title>2</title>
<ellipse fill="none" stroke="#ff0000" cx="77" cy="-373.2" rx="27" ry="18"/>
<text text-anchor="middle" x="77" y="-369" font-family="Times,serif" font-size="14.00" fill="#000000">2</text>
</g>
<!-- 5 -->
<g id="node2" class="node">
<title>5</title>
<ellipse fill="none" stroke="#ff0000" cx="27" cy="-284.4" rx="27" ry="18"/>
<text text-anchor="middle" x="27" y="-280.2" font-family="Times,serif" font-size="14.00" fill="#000000">5</text>
</g>
<!-- 2&#45;&gt;5 -->
<g id="edge1" class="edge">
<title>2&#45;&gt;5</title>
<path fill="none" stroke="#000000" d="M67.3595,-356.0785C60.0966,-343.1795 50.0098,-325.2655 41.7373,-310.5734"/>
<polygon fill="#000000" stroke="#000000" points="44.5671,-308.4654 36.6109,-301.469 38.4675,-311.8999 44.5671,-308.4654"/>
<text text-anchor="middle" x="66.5" y="-324.6" font-family="Times,serif" font-size="14.00" fill="#000000">297</text>
</g>
<!-- 6 -->
<g id="node6" class="node">
<title>6</title>
<ellipse fill="none" stroke="#ff0000" cx="99" cy="-284.4" rx="27" ry="18"/>
<text text-anchor="middle" x="99" y="-280.2" font-family="Times,serif" font-size="14.00" fill="#000000">6</text>
</g>
<!-- 2&#45;&gt;6 -->
<g id="edge2" class="edge">
<title>2&#45;&gt;6</title>
<path fill="none" stroke="#000000" d="M81.452,-355.23C84.4936,-342.953 88.5854,-326.4372 92.0526,-312.4421"/>
<polygon fill="#000000" stroke="#000000" points="95.547,-312.8915 94.5546,-302.3433 88.7525,-311.2081 95.547,-312.8915"/>
<text text-anchor="middle" x="99.5" y="-324.6" font-family="Times,serif" font-size="14.00" fill="#000000">290</text>
</g>
<!-- 1 -->
<g id="node3" class="node">
<title>1</title>
<ellipse fill="none" stroke="#ff0000" cx="27" cy="-195.6" rx="27" ry="18"/>
<text text-anchor="middle" x="27" y="-191.4" font-family="Times,serif" font-size="14.00" fill="#000000">1</text>
</g>
<!-- 5&#45;&gt;1 -->
<g id="edge3" class="edge">
<title>5&#45;&gt;1</title>
<path fill="none" stroke="#000000" d="M27,-266.0006C27,-253.8949 27,-237.8076 27,-224.0674"/>
<polygon fill="#000000" stroke="#000000" points="30.5001,-223.672 27,-213.672 23.5001,-223.6721 30.5001,-223.672"/>
<text text-anchor="middle" x="37.5" y="-235.8" font-family="Times,serif" font-size="14.00" fill="#000000">296</text>
</g>
<!-- 4 -->
<g id="node4" class="node">
<title>4</title>
<ellipse fill="none" stroke="#ff0000" cx="27" cy="-106.8" rx="27" ry="18"/>
<text text-anchor="middle" x="27" y="-102.6" font-family="Times,serif" font-size="14.00" fill="#000000">4</text>
</g>
<!-- 1&#45;&gt;4 -->
<g id="edge4" class="edge">
<title>1&#45;&gt;4</title>
<path fill="none" stroke="#000000" d="M27,-177.2006C27,-165.0949 27,-149.0076 27,-135.2674"/>
<polygon fill="#000000" stroke="#000000" points="30.5001,-134.872 27,-124.872 23.5001,-134.8721 30.5001,-134.872"/>
<text text-anchor="middle" x="37.5" y="-147" font-family="Times,serif" font-size="14.00" fill="#000000">297</text>
</g>
<!-- 3 -->
<g id="node5" class="node">
<title>3</title>
<ellipse fill="none" stroke="#ff0000" cx="27" cy="-18" rx="27" ry="18"/>
<text text-anchor="middle" x="27" y="-13.8" font-family="Times,serif" font-size="14.00" fill="#000000">3</text>
</g>
<!-- 4&#45;&gt;3 -->
<g id="edge5" class="edge">
<title>4&#45;&gt;3</title>
<path fill="none" stroke="#000000" d="M27,-88.4006C27,-76.2949 27,-60.2076 27,-46.4674"/>
<polygon fill="#000000" stroke="#000000" points="30.5001,-46.072 27,-36.072 23.5001,-46.0721 30.5001,-46.072"/>
<text text-anchor="middle" x="37.5" y="-58.2" font-family="Times,serif" font-size="14.00" fill="#000000">297</text>
</g>
</g>
</svg>
