<svg width="600px" height="1787px"
 viewBox="0.00 0.00 134.00 399.20" xmlns="http://www.w3.org/2000/svg" xmlns:xlink="http://www.w3.org/1999/xlink">
<g id="graph0" class="graph" transform="scale(1.0 1.0) rotate(0) translate(4 395.2)">
<title>%0</title>
<polygon fill="#ffffff" stroke="transparent" points="-4,4 -4,-395.2 130,-395.2 130,4 -4,4"/>
<!-- 2 -->
<g id="node1" class="node">
<title>2</title>
<ellipse fill="none" stroke="#ff0000" cx="63" cy="-373.2" rx="27" ry="18"/>
<text text-anchor="middle" x="63" y="-369" font-family="Times,serif" font-size="14.00" fill="#000000">2</text>
</g>
<!-- 4 -->
<g id="node2" class="node">
<title>4</title>
<ellipse fill="none" stroke="#ff0000" cx="27" cy="-284.4" rx="27" ry="18"/>
<text text-anchor="middle" x="27" y="-280.2" font-family="Times,serif" font-size="14.00" fill="#000000">4</text>
</g>
<!-- 2&#45;&gt;4 -->
<g id="edge1" class="edge">
<title>2&#45;&gt;4</title>
<path fill="none" stroke="#000000" d="M50.1208,-357.1253C45.8773,-351.158 41.4858,-344.1455 38.5,-337.2 35.1653,-329.443 32.754,-320.6142 31.0289,-312.4261"/>
<polygon fill="#000000" stroke="#000000" points="34.4578,-311.72 29.193,-302.5259 27.5751,-312.9964 34.4578,-311.72"/>
<text text-anchor="middle" x="57.25" y="-324.6" font-family="Times,serif" font-size="14.00" fill="#000000">298.00</text>
</g>
<!-- 6 -->
<g id="node6" class="node">
<title>6</title>
<ellipse fill="none" stroke="#ff0000" cx="99" cy="-284.4" rx="27" ry="18"/>
<text text-anchor="middle" x="99" y="-280.2" font-family="Times,serif" font-size="14.00" fill="#000000">6</text>
</g>
<!-- 2&#45;&gt;6 -->
<g id="edge2" class="edge">
<title>2&#45;&gt;6</title>
<path fill="none" stroke="#000000" d="M70.1124,-355.656C75.2404,-343.0071 82.2567,-325.7002 88.0903,-311.3105"/>
<polygon fill="#000000" stroke="#000000" points="91.3888,-312.49 91.9023,-301.9076 84.9016,-309.86 91.3888,-312.49"/>
<text text-anchor="middle" x="103.25" y="-324.6" font-family="Times,serif" font-size="14.00" fill="#000000">297.00</text>
</g>
<!-- 1 -->
<g id="node3" class="node">
<title>1</title>
<ellipse fill="none" stroke="#ff0000" cx="27" cy="-195.6" rx="27" ry="18"/>
<text text-anchor="middle" x="27" y="-191.4" font-family="Times,serif" font-size="14.00" fill="#000000">1</text>
</g>
<!-- 4&#45;&gt;1 -->
<g id="edge3" class="edge">
<title>4&#45;&gt;1</title>
<path fill="none" stroke="#000000" d="M27,-266.0006C27,-253.8949 27,-237.8076 27,-224.0674"/>
<polygon fill="#000000" stroke="#000000" points="30.5001,-223.672 27,-213.672 23.5001,-223.6721 30.5001,-223.672"/>
<text text-anchor="middle" x="46.25" y="-235.8" font-family="Times,serif" font-size="14.00" fill="#000000">296.00</text>
</g>
<!-- 3 -->
<g id="node4" class="node">
<title>3</title>
<ellipse fill="none" stroke="#ff0000" cx="27" cy="-106.8" rx="27" ry="18"/>
<text text-anchor="middle" x="27" y="-102.6" font-family="Times,serif" font-size="14.00" fill="#000000">3</text>
</g>
<!-- 1&#45;&gt;3 -->
<g id="edge4" class="edge">
<title>1&#45;&gt;3</title>
<path fill="none" stroke="#000000" d="M27,-177.2006C27,-165.0949 27,-149.0076 27,-135.2674"/>
<polygon fill="#000000" stroke="#000000" points="30.5001,-134.872 27,-124.872 23.5001,-134.8721 30.5001,-134.872"/>
<text text-anchor="middle" x="46.25" y="-147" font-family="Times,serif" font-size="14.00" fill="#000000">285.00</text>
</g>
<!-- 5 -->
<g id="node5" class="node">
<title>5</title>
<ellipse fill="none" stroke="#ff0000" cx="27" cy="-18" rx="27" ry="18"/>
<text text-anchor="middle" x="27" y="-13.8" font-family="Times,serif" font-size="14.00" fill="#000000">5</text>
</g>
<!-- 3&#45;&gt;5 -->
<g id="edge5" class="edge">
<title>3&#45;&gt;5</title>
<path fill="none" stroke="#000000" d="M27,-88.4006C27,-76.2949 27,-60.2076 27,-46.4674"/>
<polygon fill="#000000" stroke="#000000" points="30.5001,-46.072 27,-36.072 23.5001,-46.0721 30.5001,-46.072"/>
<text text-anchor="middle" x="46.25" y="-58.2" font-family="Times,serif" font-size="14.00" fill="#000000">297.00</text>
</g>
</g>
</svg>
