<svg width="600px" height="1162px"
 viewBox="0.00 0.00 206.00 399.20" xmlns="http://www.w3.org/2000/svg" xmlns:xlink="http://www.w3.org/1999/xlink">
<g id="graph0" class="graph" transform="scale(1.0 1.0) rotate(0) translate(4 395.2)">
<title>%0</title>
<polygon fill="#ffffff" stroke="transparent" points="-4,4 -4,-395.2 202,-395.2 202,4 -4,4"/>
<!-- 1 -->
<g id="node1" class="node">
<title>1</title>
<ellipse fill="none" stroke="#ff0000" cx="99" cy="-284.4" rx="27" ry="18"/>
<text text-anchor="middle" x="99" y="-280.2" font-family="Times,serif" font-size="14.00" fill="#000000">1</text>
</g>
<!-- 73 -->
<g id="node2" class="node">
<title>73</title>
<ellipse fill="none" stroke="#000000" cx="99" cy="-195.6" rx="27" ry="18"/>
<text text-anchor="middle" x="99" y="-191.4" font-family="Times,serif" font-size="14.00" fill="#000000">73</text>
</g>
<!-- 1&#45;&gt;73 -->
<g id="edge1" class="edge">
<title>1&#45;&gt;73</title>
<path fill="none" stroke="#000000" d="M99,-266.0006C99,-253.8949 99,-237.8076 99,-224.0674"/>
<polygon fill="#000000" stroke="#000000" points="102.5001,-223.672 99,-213.672 95.5001,-223.6721 102.5001,-223.672"/>
<text text-anchor="middle" x="118.25" y="-235.8" font-family="Times,serif" font-size="14.00" fill="#000000">195.00</text>
</g>
<!-- 2 -->
<g id="node3" class="node">
<title>2</title>
<ellipse fill="none" stroke="#ff0000" cx="63" cy="-106.8" rx="27" ry="18"/>
<text text-anchor="middle" x="63" y="-102.6" font-family="Times,serif" font-size="14.00" fill="#000000">2</text>
</g>
<!-- 73&#45;&gt;2 -->
<g id="edge2" class="edge">
<title>73&#45;&gt;2</title>
<path fill="none" stroke="#000000" d="M86.1208,-179.5253C81.8773,-173.558 77.4858,-166.5455 74.5,-159.6 71.1653,-151.843 68.754,-143.0142 67.0289,-134.8261"/>
<polygon fill="#000000" stroke="#000000" points="70.4578,-134.12 65.193,-124.9259 63.5751,-135.3964 70.4578,-134.12"/>
<text text-anchor="middle" x="94.25" y="-147" font-family="Times,serif" font-size="14.00" fill="#000000">199.00</text>
</g>
<!-- 3 -->
<g id="node6" class="node">
<title>3</title>
<ellipse fill="none" stroke="#ff0000" cx="135" cy="-106.8" rx="27" ry="18"/>
<text text-anchor="middle" x="135" y="-102.6" font-family="Times,serif" font-size="14.00" fill="#000000">3</text>
</g>
<!-- 73&#45;&gt;3 -->
<g id="edge3" class="edge">
<title>73&#45;&gt;3</title>
<path fill="none" stroke="#000000" d="M106.1124,-178.056C111.2404,-165.4071 118.2567,-148.1002 124.0903,-133.7105"/>
<polygon fill="#000000" stroke="#000000" points="127.3888,-134.89 127.9023,-124.3076 120.9016,-132.26 127.3888,-134.89"/>
<text text-anchor="middle" x="139.25" y="-147" font-family="Times,serif" font-size="14.00" fill="#000000">206.00</text>
</g>
<!-- 4 -->
<g id="node4" class="node">
<title>4</title>
<ellipse fill="none" stroke="#ff0000" cx="27" cy="-18" rx="27" ry="18"/>
<text text-anchor="middle" x="27" y="-13.8" font-family="Times,serif" font-size="14.00" fill="#000000">4</text>
</g>
<!-- 2&#45;&gt;4 -->
<g id="edge4" class="edge">
<title>2&#45;&gt;4</title>
<path fill="none" stroke="#000000" d="M50.1208,-90.7253C45.8773,-84.758 41.4858,-77.7455 38.5,-70.8 35.1653,-63.043 32.754,-54.2142 31.0289,-46.0261"/>
<polygon fill="#000000" stroke="#000000" points="34.4578,-45.32 29.193,-36.1259 27.5751,-46.5964 34.4578,-45.32"/>
<text text-anchor="middle" x="58.25" y="-58.2" font-family="Times,serif" font-size="14.00" fill="#000000">304.00</text>
</g>
<!-- 5 -->
<g id="node5" class="node">
<title>5</title>
<ellipse fill="none" stroke="#ff0000" cx="99" cy="-18" rx="27" ry="18"/>
<text text-anchor="middle" x="99" y="-13.8" font-family="Times,serif" font-size="14.00" fill="#000000">5</text>
</g>
<!-- 2&#45;&gt;5 -->
<g id="edge5" class="edge">
<title>2&#45;&gt;5</title>
<path fill="none" stroke="#000000" d="M70.1124,-89.256C75.2404,-76.6071 82.2567,-59.3002 88.0903,-44.9105"/>
<polygon fill="#000000" stroke="#000000" points="91.3888,-46.09 91.9023,-35.5076 84.9016,-43.46 91.3888,-46.09"/>
<text text-anchor="middle" x="104.25" y="-58.2" font-family="Times,serif" font-size="14.00" fill="#000000">384.00</text>
</g>
<!-- 69 -->
<g id="node7" class="node">
<title>69</title>
<ellipse fill="none" stroke="#000000" cx="135" cy="-373.2" rx="27" ry="18"/>
<text text-anchor="middle" x="135" y="-369" font-family="Times,serif" font-size="14.00" fill="#000000">69</text>
</g>
<!-- 69&#45;&gt;1 -->
<g id="edge6" class="edge">
<title>69&#45;&gt;1</title>
<path fill="none" stroke="#000000" d="M122.1208,-357.1253C117.8773,-351.158 113.4858,-344.1455 110.5,-337.2 107.1653,-329.443 104.754,-320.6142 103.0289,-312.4261"/>
<polygon fill="#000000" stroke="#000000" points="106.4578,-311.72 101.193,-302.5259 99.5751,-312.9964 106.4578,-311.72"/>
<text text-anchor="middle" x="129.25" y="-324.6" font-family="Times,serif" font-size="14.00" fill="#000000">200.00</text>
</g>
<!-- 6 -->
<g id="node8" class="node">
<title>6</title>
<ellipse fill="none" stroke="#ff0000" cx="171" cy="-284.4" rx="27" ry="18"/>
<text text-anchor="middle" x="171" y="-280.2" font-family="Times,serif" font-size="14.00" fill="#000000">6</text>
</g>
<!-- 69&#45;&gt;6 -->
<g id="edge7" class="edge">
<title>69&#45;&gt;6</title>
<path fill="none" stroke="#000000" d="M142.1124,-355.656C147.2404,-343.0071 154.2567,-325.7002 160.0903,-311.3105"/>
<polygon fill="#000000" stroke="#000000" points="163.3888,-312.49 163.9023,-301.9076 156.9016,-309.86 163.3888,-312.49"/>
<text text-anchor="middle" x="175.25" y="-324.6" font-family="Times,serif" font-size="14.00" fill="#000000">193.00</text>
</g>
</g>
</svg>
