<svg width="600px" height="903px"
 viewBox="0.00 0.00 206.00 310.40" xmlns="http://www.w3.org/2000/svg" xmlns:xlink="http://www.w3.org/1999/xlink">
<g id="graph0" class="graph" transform="scale(1.0 1.0) rotate(0) translate(4 306.4)">
<title>%0</title>
<polygon fill="#ffffff" stroke="transparent" points="-4,4 -4,-306.4 202,-306.4 202,4 -4,4"/>
<!-- 1 -->
<g id="node1" class="node">
<title>1</title>
<ellipse fill="none" stroke="#ff0000" cx="63" cy="-284.4" rx="27" ry="18"/>
<text text-anchor="middle" x="63" y="-280.2" font-family="Times,serif" font-size="14.00" fill="#000000">1</text>
</g>
<!-- 69 -->
<g id="node2" class="node">
<title>69</title>
<ellipse fill="none" stroke="#000000" cx="27" cy="-195.6" rx="27" ry="18"/>
<text text-anchor="middle" x="27" y="-191.4" font-family="Times,serif" font-size="14.00" fill="#000000">69</text>
</g>
<!-- 1&#45;&gt;69 -->
<g id="edge1" class="edge">
<title>1&#45;&gt;69</title>
<path fill="none" stroke="#000000" d="M48.5575,-268.9923C43.6773,-262.9823 38.6681,-255.7701 35.5,-248.4 32.2367,-240.8083 30.215,-232.1135 28.9661,-224.0002"/>
<polygon fill="#000000" stroke="#000000" points="32.409,-223.3168 27.73,-213.8112 25.4599,-224.16 32.409,-223.3168"/>
<text text-anchor="middle" x="55.25" y="-235.8" font-family="Times,serif" font-size="14.00" fill="#000000">199.00</text>
</g>
<!-- 73 -->
<g id="node4" class="node">
<title>73</title>
<ellipse fill="none" stroke="#000000" cx="99" cy="-195.6" rx="27" ry="18"/>
<text text-anchor="middle" x="99" y="-191.4" font-family="Times,serif" font-size="14.00" fill="#000000">73</text>
</g>
<!-- 1&#45;&gt;73 -->
<g id="edge2" class="edge">
<title>1&#45;&gt;73</title>
<path fill="none" stroke="#000000" d="M70.1124,-266.856C75.2404,-254.2071 82.2567,-236.9002 88.0903,-222.5105"/>
<polygon fill="#000000" stroke="#000000" points="91.3888,-223.69 91.9023,-213.1076 84.9016,-221.06 91.3888,-223.69"/>
<text text-anchor="middle" x="104.25" y="-235.8" font-family="Times,serif" font-size="14.00" fill="#000000">193.00</text>
</g>
<!-- 6 -->
<g id="node3" class="node">
<title>6</title>
<ellipse fill="none" stroke="#ff0000" cx="27" cy="-106.8" rx="27" ry="18"/>
<text text-anchor="middle" x="27" y="-102.6" font-family="Times,serif" font-size="14.00" fill="#000000">6</text>
</g>
<!-- 69&#45;&gt;6 -->
<g id="edge3" class="edge">
<title>69&#45;&gt;6</title>
<path fill="none" stroke="#000000" d="M27,-177.2006C27,-165.0949 27,-149.0076 27,-135.2674"/>
<polygon fill="#000000" stroke="#000000" points="30.5001,-134.872 27,-124.872 23.5001,-134.8721 30.5001,-134.872"/>
<text text-anchor="middle" x="46.25" y="-147" font-family="Times,serif" font-size="14.00" fill="#000000">192.00</text>
</g>
<!-- 2 -->
<g id="node5" class="node">
<title>2</title>
<ellipse fill="none" stroke="#ff0000" cx="99" cy="-106.8" rx="27" ry="18"/>
<text text-anchor="middle" x="99" y="-102.6" font-family="Times,serif" font-size="14.00" fill="#000000">2</text>
</g>
<!-- 73&#45;&gt;2 -->
<g id="edge4" class="edge">
<title>73&#45;&gt;2</title>
<path fill="none" stroke="#000000" d="M99,-177.2006C99,-165.0949 99,-149.0076 99,-135.2674"/>
<polygon fill="#000000" stroke="#000000" points="102.5001,-134.872 99,-124.872 95.5001,-134.8721 102.5001,-134.872"/>
<text text-anchor="middle" x="118.25" y="-147" font-family="Times,serif" font-size="14.00" fill="#000000">197.00</text>
</g>
<!-- 3 -->
<g id="node8" class="node">
<title>3</title>
<ellipse fill="none" stroke="#ff0000" cx="171" cy="-106.8" rx="27" ry="18"/>
<text text-anchor="middle" x="171" y="-102.6" font-family="Times,serif" font-size="14.00" fill="#000000">3</text>
</g>
<!-- 73&#45;&gt;3 -->
<g id="edge5" class="edge">
<title>73&#45;&gt;3</title>
<path fill="none" stroke="#000000" d="M117.4225,-182.1206C125.2637,-175.8276 134.158,-167.8995 141,-159.6 147.501,-151.7141 153.3802,-142.2296 158.1763,-133.488"/>
<polygon fill="#000000" stroke="#000000" points="161.3945,-134.8871 162.9337,-124.4047 155.1935,-131.6393 161.3945,-134.8871"/>
<text text-anchor="middle" x="172.25" y="-147" font-family="Times,serif" font-size="14.00" fill="#000000">196.00</text>
</g>
<!-- 4 -->
<g id="node6" class="node">
<title>4</title>
<ellipse fill="none" stroke="#ff0000" cx="63" cy="-18" rx="27" ry="18"/>
<text text-anchor="middle" x="63" y="-13.8" font-family="Times,serif" font-size="14.00" fill="#000000">4</text>
</g>
<!-- 2&#45;&gt;4 -->
<g id="edge6" class="edge">
<title>2&#45;&gt;4</title>
<path fill="none" stroke="#000000" d="M86.1208,-90.7253C81.8773,-84.758 77.4858,-77.7455 74.5,-70.8 71.1653,-63.043 68.754,-54.2142 67.0289,-46.0261"/>
<polygon fill="#000000" stroke="#000000" points="70.4578,-45.32 65.193,-36.1259 63.5751,-46.5964 70.4578,-45.32"/>
<text text-anchor="middle" x="94.25" y="-58.2" font-family="Times,serif" font-size="14.00" fill="#000000">295.00</text>
</g>
<!-- 5 -->
<g id="node7" class="node">
<title>5</title>
<ellipse fill="none" stroke="#ff0000" cx="135" cy="-18" rx="27" ry="18"/>
<text text-anchor="middle" x="135" y="-13.8" font-family="Times,serif" font-size="14.00" fill="#000000">5</text>
</g>
<!-- 2&#45;&gt;5 -->
<g id="edge7" class="edge">
<title>2&#45;&gt;5</title>
<path fill="none" stroke="#000000" d="M106.1124,-89.256C111.2404,-76.6071 118.2567,-59.3002 124.0903,-44.9105"/>
<polygon fill="#000000" stroke="#000000" points="127.3888,-46.09 127.9023,-35.5076 120.9016,-43.46 127.3888,-46.09"/>
<text text-anchor="middle" x="140.25" y="-58.2" font-family="Times,serif" font-size="14.00" fill="#000000">306.00</text>
</g>
</g>
</svg>
