<svg width="600px" height="1442px"
 viewBox="0.00 0.00 166.00 399.20" xmlns="http://www.w3.org/2000/svg" xmlns:xlink="http://www.w3.org/1999/xlink">
<g id="graph0" class="graph" transform="scale(1.0 1.0) rotate(0) translate(4 395.2)">
<title>%0</title>
<polygon fill="#ffffff" stroke="transparent" points="-4,4 -4,-395.2 162,-395.2 162,4 -4,4"/>
<!-- 5 -->
<g id="node1" class="node">
<title>5</title>
<ellipse fill="none" stroke="#ff0000" cx="56" cy="-373.2" rx="27" ry="18"/>
<text text-anchor="middle" x="56" y="-369" font-family="Times,serif" font-size="14.00" fill="#000000">5</text>
</g>
<!-- 1 -->
<g id="node2" class="node">
<title>1</title>
<ellipse fill="none" stroke="#ff0000" cx="27" cy="-284.4" rx="27" ry="18"/>
<text text-anchor="middle" x="27" y="-280.2" font-family="Times,serif" font-size="14.00" fill="#000000">1</text>
</g>
<!-- 5&#45;&gt;1 -->
<g id="edge1" class="edge">
<title>5&#45;&gt;1</title>
<path fill="none" stroke="#000000" d="M48.8304,-355.7427C46.5295,-349.8914 44.0486,-343.3031 42,-337.2 39.3135,-329.1964 36.69,-320.4089 34.4076,-312.3385"/>
<polygon fill="#000000" stroke="#000000" points="37.7571,-311.3191 31.7199,-302.6126 31.01,-313.1837 37.7571,-311.3191"/>
<text text-anchor="middle" x="52.5" y="-324.6" font-family="Times,serif" font-size="14.00" fill="#000000">297</text>
</g>
<!-- 9 -->
<g id="node3" class="node">
<title>9</title>
<ellipse fill="none" stroke="#000000" cx="99" cy="-284.4" rx="27" ry="18"/>
<text text-anchor="middle" x="99" y="-280.2" font-family="Times,serif" font-size="14.00" fill="#000000">9</text>
</g>
<!-- 5&#45;&gt;9 -->
<g id="edge2" class="edge">
<title>5&#45;&gt;9</title>
<path fill="none" stroke="#000000" d="M64.4954,-355.656C70.7195,-342.8025 79.2726,-325.1393 86.3059,-310.6148"/>
<polygon fill="#000000" stroke="#000000" points="89.4603,-312.1311 90.6685,-301.6054 83.1601,-309.0803 89.4603,-312.1311"/>
<text text-anchor="middle" x="91.5" y="-324.6" font-family="Times,serif" font-size="14.00" fill="#000000">199</text>
</g>
<!-- 3 -->
<g id="node4" class="node">
<title>3</title>
<ellipse fill="none" stroke="#ff0000" cx="59" cy="-195.6" rx="27" ry="18"/>
<text text-anchor="middle" x="59" y="-191.4" font-family="Times,serif" font-size="14.00" fill="#000000">3</text>
</g>
<!-- 9&#45;&gt;3 -->
<g id="edge3" class="edge">
<title>9&#45;&gt;3</title>
<path fill="none" stroke="#000000" d="M91.0973,-266.856C85.3996,-254.2071 77.6037,-236.9002 71.1219,-222.5105"/>
<polygon fill="#000000" stroke="#000000" points="74.1846,-220.7878 66.8863,-213.1076 67.8022,-223.6628 74.1846,-220.7878"/>
<text text-anchor="middle" x="92.5" y="-235.8" font-family="Times,serif" font-size="14.00" fill="#000000">201</text>
</g>
<!-- 6 -->
<g id="node7" class="node">
<title>6</title>
<ellipse fill="none" stroke="#ff0000" cx="131" cy="-195.6" rx="27" ry="18"/>
<text text-anchor="middle" x="131" y="-191.4" font-family="Times,serif" font-size="14.00" fill="#000000">6</text>
</g>
<!-- 9&#45;&gt;6 -->
<g id="edge4" class="edge">
<title>9&#45;&gt;6</title>
<path fill="none" stroke="#000000" d="M105.3222,-266.856C109.8365,-254.3287 115.9972,-237.2326 121.1526,-222.9264"/>
<polygon fill="#000000" stroke="#000000" points="124.5934,-223.702 124.691,-213.1076 118.008,-221.3288 124.5934,-223.702"/>
<text text-anchor="middle" x="127.5" y="-235.8" font-family="Times,serif" font-size="14.00" fill="#000000">191</text>
</g>
<!-- 55 -->
<g id="node5" class="node">
<title>55</title>
<ellipse fill="none" stroke="#000000" cx="59" cy="-106.8" rx="27" ry="18"/>
<text text-anchor="middle" x="59" y="-102.6" font-family="Times,serif" font-size="14.00" fill="#000000">55</text>
</g>
<!-- 3&#45;&gt;55 -->
<g id="edge5" class="edge">
<title>3&#45;&gt;55</title>
<path fill="none" stroke="#000000" d="M59,-177.2006C59,-165.0949 59,-149.0076 59,-135.2674"/>
<polygon fill="#000000" stroke="#000000" points="62.5001,-134.872 59,-124.872 55.5001,-134.8721 62.5001,-134.872"/>
<text text-anchor="middle" x="69.5" y="-147" font-family="Times,serif" font-size="14.00" fill="#000000">196</text>
</g>
<!-- 2 -->
<g id="node6" class="node">
<title>2</title>
<ellipse fill="none" stroke="#ff0000" cx="59" cy="-18" rx="27" ry="18"/>
<text text-anchor="middle" x="59" y="-13.8" font-family="Times,serif" font-size="14.00" fill="#000000">2</text>
</g>
<!-- 55&#45;&gt;2 -->
<g id="edge6" class="edge">
<title>55&#45;&gt;2</title>
<path fill="none" stroke="#000000" d="M59,-88.4006C59,-76.2949 59,-60.2076 59,-46.4674"/>
<polygon fill="#000000" stroke="#000000" points="62.5001,-46.072 59,-36.072 55.5001,-46.0721 62.5001,-46.072"/>
<text text-anchor="middle" x="69.5" y="-58.2" font-family="Times,serif" font-size="14.00" fill="#000000">191</text>
</g>
<!-- 16 -->
<g id="node8" class="node">
<title>16</title>
<ellipse fill="none" stroke="#000000" cx="131" cy="-106.8" rx="27" ry="18"/>
<text text-anchor="middle" x="131" y="-102.6" font-family="Times,serif" font-size="14.00" fill="#000000">16</text>
</g>
<!-- 6&#45;&gt;16 -->
<g id="edge7" class="edge">
<title>6&#45;&gt;16</title>
<path fill="none" stroke="#000000" d="M131,-177.2006C131,-165.0949 131,-149.0076 131,-135.2674"/>
<polygon fill="#000000" stroke="#000000" points="134.5001,-134.872 131,-124.872 127.5001,-134.8721 134.5001,-134.872"/>
<text text-anchor="middle" x="141.5" y="-147" font-family="Times,serif" font-size="14.00" fill="#000000">186</text>
</g>
<!-- 4 -->
<g id="node9" class="node">
<title>4</title>
<ellipse fill="none" stroke="#ff0000" cx="131" cy="-18" rx="27" ry="18"/>
<text text-anchor="middle" x="131" y="-13.8" font-family="Times,serif" font-size="14.00" fill="#000000">4</text>
</g>
<!-- 16&#45;&gt;4 -->
<g id="edge8" class="edge">
<title>16&#45;&gt;4</title>
<path fill="none" stroke="#000000" d="M131,-88.4006C131,-76.2949 131,-60.2076 131,-46.4674"/>
<polygon fill="#000000" stroke="#000000" points="134.5001,-46.072 131,-36.072 127.5001,-46.0721 134.5001,-46.072"/>
<text text-anchor="middle" x="141.5" y="-58.2" font-family="Times,serif" font-size="14.00" fill="#000000">197</text>
</g>
</g>
</svg>
