<svg width="600px" height="1323px"
 viewBox="0.00 0.00 180.50 399.20" xmlns="http://www.w3.org/2000/svg" xmlns:xlink="http://www.w3.org/1999/xlink">
<g id="graph0" class="graph" transform="scale(1.0 1.0) rotate(0) translate(4 395.2)">
<title>%0</title>
<polygon fill="#ffffff" stroke="transparent" points="-4,4 -4,-395.2 176.5,-395.2 176.5,4 -4,4"/>
<!-- 5 -->
<g id="node1" class="node">
<title>5</title>
<ellipse fill="none" stroke="#ff0000" cx="58" cy="-373.2" rx="27" ry="18"/>
<text text-anchor="middle" x="58" y="-369" font-family="Times,serif" font-size="14.00" fill="#000000">5</text>
</g>
<!-- 1 -->
<g id="node2" class="node">
<title>1</title>
<ellipse fill="none" stroke="#ff0000" cx="27" cy="-284.4" rx="27" ry="18"/>
<text text-anchor="middle" x="27" y="-280.2" font-family="Times,serif" font-size="14.00" fill="#000000">1</text>
</g>
<!-- 5&#45;&gt;1 -->
<g id="edge1" class="edge">
<title>5&#45;&gt;1</title>
<path fill="none" stroke="#000000" d="M44.7616,-357.27C40.4844,-351.3163 36.1634,-344.2754 33.5,-337.2 30.6042,-329.5071 28.9362,-320.7815 27.9924,-312.671"/>
<polygon fill="#000000" stroke="#000000" points="31.4624,-312.1689 27.1264,-302.502 24.4876,-312.763 31.4624,-312.1689"/>
<text text-anchor="middle" x="53.25" y="-324.6" font-family="Times,serif" font-size="14.00" fill="#000000">297.00</text>
</g>
<!-- 9 -->
<g id="node3" class="node">
<title>9</title>
<ellipse fill="none" stroke="#000000" cx="99" cy="-284.4" rx="27" ry="18"/>
<text text-anchor="middle" x="99" y="-280.2" font-family="Times,serif" font-size="14.00" fill="#000000">9</text>
</g>
<!-- 5&#45;&gt;9 -->
<g id="edge2" class="edge">
<title>5&#45;&gt;9</title>
<path fill="none" stroke="#000000" d="M66.1003,-355.656C71.9783,-342.925 80.0351,-325.4753 86.7043,-311.0306"/>
<polygon fill="#000000" stroke="#000000" points="90.0418,-312.1516 91.0561,-301.6054 83.6865,-309.2172 90.0418,-312.1516"/>
<text text-anchor="middle" x="102.25" y="-324.6" font-family="Times,serif" font-size="14.00" fill="#000000">199.00</text>
</g>
<!-- 3 -->
<g id="node4" class="node">
<title>3</title>
<ellipse fill="none" stroke="#ff0000" cx="62" cy="-195.6" rx="27" ry="18"/>
<text text-anchor="middle" x="62" y="-191.4" font-family="Times,serif" font-size="14.00" fill="#000000">3</text>
</g>
<!-- 9&#45;&gt;3 -->
<g id="edge3" class="edge">
<title>9&#45;&gt;3</title>
<path fill="none" stroke="#000000" d="M84.631,-268.9603C79.7587,-262.9468 74.7358,-255.7407 71.5,-248.4 68.1189,-240.7297 65.941,-231.9266 64.5382,-223.7354"/>
<polygon fill="#000000" stroke="#000000" points="68.0021,-223.2334 63.1435,-213.8183 61.0703,-224.2083 68.0021,-223.2334"/>
<text text-anchor="middle" x="91.25" y="-235.8" font-family="Times,serif" font-size="14.00" fill="#000000">201.00</text>
</g>
<!-- 6 -->
<g id="node7" class="node">
<title>6</title>
<ellipse fill="none" stroke="#ff0000" cx="134" cy="-195.6" rx="27" ry="18"/>
<text text-anchor="middle" x="134" y="-191.4" font-family="Times,serif" font-size="14.00" fill="#000000">6</text>
</g>
<!-- 9&#45;&gt;6 -->
<g id="edge4" class="edge">
<title>9&#45;&gt;6</title>
<path fill="none" stroke="#000000" d="M105.9149,-266.856C110.9004,-254.2071 117.7218,-236.9002 123.3934,-222.5105"/>
<polygon fill="#000000" stroke="#000000" points="126.6887,-223.6945 127.0995,-213.1076 120.1763,-221.1276 126.6887,-223.6945"/>
<text text-anchor="middle" x="139.25" y="-235.8" font-family="Times,serif" font-size="14.00" fill="#000000">191.00</text>
</g>
<!-- 55 -->
<g id="node5" class="node">
<title>55</title>
<ellipse fill="none" stroke="#000000" cx="62" cy="-106.8" rx="27" ry="18"/>
<text text-anchor="middle" x="62" y="-102.6" font-family="Times,serif" font-size="14.00" fill="#000000">55</text>
</g>
<!-- 3&#45;&gt;55 -->
<g id="edge5" class="edge">
<title>3&#45;&gt;55</title>
<path fill="none" stroke="#000000" d="M62,-177.2006C62,-165.0949 62,-149.0076 62,-135.2674"/>
<polygon fill="#000000" stroke="#000000" points="65.5001,-134.872 62,-124.872 58.5001,-134.8721 65.5001,-134.872"/>
<text text-anchor="middle" x="81.25" y="-147" font-family="Times,serif" font-size="14.00" fill="#000000">196.00</text>
</g>
<!-- 2 -->
<g id="node6" class="node">
<title>2</title>
<ellipse fill="none" stroke="#ff0000" cx="62" cy="-18" rx="27" ry="18"/>
<text text-anchor="middle" x="62" y="-13.8" font-family="Times,serif" font-size="14.00" fill="#000000">2</text>
</g>
<!-- 55&#45;&gt;2 -->
<g id="edge6" class="edge">
<title>55&#45;&gt;2</title>
<path fill="none" stroke="#000000" d="M62,-88.4006C62,-76.2949 62,-60.2076 62,-46.4674"/>
<polygon fill="#000000" stroke="#000000" points="65.5001,-46.072 62,-36.072 58.5001,-46.0721 65.5001,-46.072"/>
<text text-anchor="middle" x="81.25" y="-58.2" font-family="Times,serif" font-size="14.00" fill="#000000">191.00</text>
</g>
<!-- 16 -->
<g id="node8" class="node">
<title>16</title>
<ellipse fill="none" stroke="#000000" cx="134" cy="-106.8" rx="27" ry="18"/>
<text text-anchor="middle" x="134" y="-102.6" font-family="Times,serif" font-size="14.00" fill="#000000">16</text>
</g>
<!-- 6&#45;&gt;16 -->
<g id="edge7" class="edge">
<title>6&#45;&gt;16</title>
<path fill="none" stroke="#000000" d="M134,-177.2006C134,-165.0949 134,-149.0076 134,-135.2674"/>
<polygon fill="#000000" stroke="#000000" points="137.5001,-134.872 134,-124.872 130.5001,-134.8721 137.5001,-134.872"/>
<text text-anchor="middle" x="153.25" y="-147" font-family="Times,serif" font-size="14.00" fill="#000000">186.00</text>
</g>
<!-- 4 -->
<g id="node9" class="node">
<title>4</title>
<ellipse fill="none" stroke="#ff0000" cx="134" cy="-18" rx="27" ry="18"/>
<text text-anchor="middle" x="134" y="-13.8" font-family="Times,serif" font-size="14.00" fill="#000000">4</text>
</g>
<!-- 16&#45;&gt;4 -->
<g id="edge8" class="edge">
<title>16&#45;&gt;4</title>
<path fill="none" stroke="#000000" d="M134,-88.4006C134,-76.2949 134,-60.2076 134,-46.4674"/>
<polygon fill="#000000" stroke="#000000" points="137.5001,-46.072 134,-36.072 130.5001,-46.0721 137.5001,-46.072"/>
<text text-anchor="middle" x="153.25" y="-58.2" font-family="Times,serif" font-size="14.00" fill="#000000">197.00</text>
</g>
</g>
</svg>
