<svg width="600px" height="1609px"
 viewBox="0.00 0.00 181.50 488.00" xmlns="http://www.w3.org/2000/svg" xmlns:xlink="http://www.w3.org/1999/xlink">
<g id="graph0" class="graph" transform="scale(1.0 1.0) rotate(0) translate(4 484)">
<title>%0</title>
<polygon fill="#ffffff" stroke="transparent" points="-4,4 -4,-484 177.5,-484 177.5,4 -4,4"/>
<!-- 16 -->
<g id="node1" class="node">
<title>16</title>
<ellipse fill="none" stroke="#000000" cx="58" cy="-462" rx="27" ry="18"/>
<text text-anchor="middle" x="58" y="-457.8" font-family="Times,serif" font-size="14.00" fill="#000000">16</text>
</g>
<!-- 4 -->
<g id="node2" class="node">
<title>4</title>
<ellipse fill="none" stroke="#ff0000" cx="27" cy="-373.2" rx="27" ry="18"/>
<text text-anchor="middle" x="27" y="-369" font-family="Times,serif" font-size="14.00" fill="#000000">4</text>
</g>
<!-- 16&#45;&gt;4 -->
<g id="edge1" class="edge">
<title>16&#45;&gt;4</title>
<path fill="none" stroke="#000000" d="M44.7616,-446.07C40.4844,-440.1163 36.1634,-433.0754 33.5,-426 30.6042,-418.3071 28.9362,-409.5815 27.9924,-401.471"/>
<polygon fill="#000000" stroke="#000000" points="31.4624,-400.9689 27.1264,-391.302 24.4876,-401.563 31.4624,-400.9689"/>
<text text-anchor="middle" x="53.25" y="-413.4" font-family="Times,serif" font-size="14.00" fill="#000000">202.00</text>
</g>
<!-- 6 -->
<g id="node3" class="node">
<title>6</title>
<ellipse fill="none" stroke="#ff0000" cx="99" cy="-373.2" rx="27" ry="18"/>
<text text-anchor="middle" x="99" y="-369" font-family="Times,serif" font-size="14.00" fill="#000000">6</text>
</g>
<!-- 16&#45;&gt;6 -->
<g id="edge2" class="edge">
<title>16&#45;&gt;6</title>
<path fill="none" stroke="#000000" d="M66.1003,-444.456C71.9783,-431.725 80.0351,-414.2753 86.7043,-399.8306"/>
<polygon fill="#000000" stroke="#000000" points="90.0418,-400.9516 91.0561,-390.4054 83.6865,-398.0172 90.0418,-400.9516"/>
<text text-anchor="middle" x="102.25" y="-413.4" font-family="Times,serif" font-size="14.00" fill="#000000">191.00</text>
</g>
<!-- 9 -->
<g id="node4" class="node">
<title>9</title>
<ellipse fill="none" stroke="#000000" cx="99" cy="-284.4" rx="27" ry="18"/>
<text text-anchor="middle" x="99" y="-280.2" font-family="Times,serif" font-size="14.00" fill="#000000">9</text>
</g>
<!-- 6&#45;&gt;9 -->
<g id="edge3" class="edge">
<title>6&#45;&gt;9</title>
<path fill="none" stroke="#000000" d="M99,-354.8006C99,-342.6949 99,-326.6076 99,-312.8674"/>
<polygon fill="#000000" stroke="#000000" points="102.5001,-312.472 99,-302.472 95.5001,-312.4721 102.5001,-312.472"/>
<text text-anchor="middle" x="118.25" y="-324.6" font-family="Times,serif" font-size="14.00" fill="#000000">194.00</text>
</g>
<!-- 3 -->
<g id="node5" class="node">
<title>3</title>
<ellipse fill="none" stroke="#ff0000" cx="63" cy="-195.6" rx="27" ry="18"/>
<text text-anchor="middle" x="63" y="-191.4" font-family="Times,serif" font-size="14.00" fill="#000000">3</text>
</g>
<!-- 9&#45;&gt;3 -->
<g id="edge4" class="edge">
<title>9&#45;&gt;3</title>
<path fill="none" stroke="#000000" d="M84.5575,-268.9923C79.6773,-262.9823 74.6681,-255.7701 71.5,-248.4 68.2367,-240.8083 66.215,-232.1135 64.9661,-224.0002"/>
<polygon fill="#000000" stroke="#000000" points="68.409,-223.3168 63.73,-213.8112 61.4599,-224.16 68.409,-223.3168"/>
<text text-anchor="middle" x="91.25" y="-235.8" font-family="Times,serif" font-size="14.00" fill="#000000">211.00</text>
</g>
<!-- 5 -->
<g id="node8" class="node">
<title>5</title>
<ellipse fill="none" stroke="#ff0000" cx="135" cy="-195.6" rx="27" ry="18"/>
<text text-anchor="middle" x="135" y="-191.4" font-family="Times,serif" font-size="14.00" fill="#000000">5</text>
</g>
<!-- 9&#45;&gt;5 -->
<g id="edge5" class="edge">
<title>9&#45;&gt;5</title>
<path fill="none" stroke="#000000" d="M106.1124,-266.856C111.2404,-254.2071 118.2567,-236.9002 124.0903,-222.5105"/>
<polygon fill="#000000" stroke="#000000" points="127.3888,-223.69 127.9023,-213.1076 120.9016,-221.06 127.3888,-223.69"/>
<text text-anchor="middle" x="140.25" y="-235.8" font-family="Times,serif" font-size="14.00" fill="#000000">202.00</text>
</g>
<!-- 55 -->
<g id="node6" class="node">
<title>55</title>
<ellipse fill="none" stroke="#000000" cx="63" cy="-106.8" rx="27" ry="18"/>
<text text-anchor="middle" x="63" y="-102.6" font-family="Times,serif" font-size="14.00" fill="#000000">55</text>
</g>
<!-- 3&#45;&gt;55 -->
<g id="edge6" class="edge">
<title>3&#45;&gt;55</title>
<path fill="none" stroke="#000000" d="M63,-177.2006C63,-165.0949 63,-149.0076 63,-135.2674"/>
<polygon fill="#000000" stroke="#000000" points="66.5001,-134.872 63,-124.872 59.5001,-134.8721 66.5001,-134.872"/>
<text text-anchor="middle" x="82.25" y="-147" font-family="Times,serif" font-size="14.00" fill="#000000">198.00</text>
</g>
<!-- 2 -->
<g id="node7" class="node">
<title>2</title>
<ellipse fill="none" stroke="#ff0000" cx="63" cy="-18" rx="27" ry="18"/>
<text text-anchor="middle" x="63" y="-13.8" font-family="Times,serif" font-size="14.00" fill="#000000">2</text>
</g>
<!-- 55&#45;&gt;2 -->
<g id="edge7" class="edge">
<title>55&#45;&gt;2</title>
<path fill="none" stroke="#000000" d="M63,-88.4006C63,-76.2949 63,-60.2076 63,-46.4674"/>
<polygon fill="#000000" stroke="#000000" points="66.5001,-46.072 63,-36.072 59.5001,-46.0721 66.5001,-46.072"/>
<text text-anchor="middle" x="82.25" y="-58.2" font-family="Times,serif" font-size="14.00" fill="#000000">193.00</text>
</g>
<!-- 1 -->
<g id="node9" class="node">
<title>1</title>
<ellipse fill="none" stroke="#ff0000" cx="135" cy="-106.8" rx="27" ry="18"/>
<text text-anchor="middle" x="135" y="-102.6" font-family="Times,serif" font-size="14.00" fill="#000000">1</text>
</g>
<!-- 5&#45;&gt;1 -->
<g id="edge8" class="edge">
<title>5&#45;&gt;1</title>
<path fill="none" stroke="#000000" d="M135,-177.2006C135,-165.0949 135,-149.0076 135,-135.2674"/>
<polygon fill="#000000" stroke="#000000" points="138.5001,-134.872 135,-124.872 131.5001,-134.8721 138.5001,-134.872"/>
<text text-anchor="middle" x="154.25" y="-147" font-family="Times,serif" font-size="14.00" fill="#000000">305.00</text>
</g>
</g>
</svg>
