<svg width="600px" height="2005px"
 viewBox="0.00 0.00 145.50 488.00" xmlns="http://www.w3.org/2000/svg" xmlns:xlink="http://www.w3.org/1999/xlink">
<g id="graph0" class="graph" transform="scale(1.0 1.0) rotate(0) translate(4 484)">
<title>%0</title>
<polygon fill="#ffffff" stroke="transparent" points="-4,4 -4,-484 141.5,-484 141.5,4 -4,4"/>
<!-- 5 -->
<g id="node1" class="node">
<title>5</title>
<ellipse fill="none" stroke="#ff0000" cx="63" cy="-462" rx="27" ry="18"/>
<text text-anchor="middle" x="63" y="-457.8" font-family="Times,serif" font-size="14.00" fill="#000000">5</text>
</g>
<!-- 6 -->
<g id="node2" class="node">
<title>6</title>
<ellipse fill="none" stroke="#ff0000" cx="63" cy="-373.2" rx="27" ry="18"/>
<text text-anchor="middle" x="63" y="-369" font-family="Times,serif" font-size="14.00" fill="#000000">6</text>
</g>
<!-- 5&#45;&gt;6 -->
<g id="edge1" class="edge">
<title>5&#45;&gt;6</title>
<path fill="none" stroke="#000000" d="M63,-443.6006C63,-431.4949 63,-415.4076 63,-401.6674"/>
<polygon fill="#000000" stroke="#000000" points="66.5001,-401.272 63,-391.272 59.5001,-401.2721 66.5001,-401.272"/>
<text text-anchor="middle" x="82.25" y="-413.4" font-family="Times,serif" font-size="14.00" fill="#000000">309.00</text>
</g>
<!-- 3 -->
<g id="node3" class="node">
<title>3</title>
<ellipse fill="none" stroke="#ff0000" cx="63" cy="-284.4" rx="27" ry="18"/>
<text text-anchor="middle" x="63" y="-280.2" font-family="Times,serif" font-size="14.00" fill="#000000">3</text>
</g>
<!-- 6&#45;&gt;3 -->
<g id="edge2" class="edge">
<title>6&#45;&gt;3</title>
<path fill="none" stroke="#000000" d="M63,-354.8006C63,-342.6949 63,-326.6076 63,-312.8674"/>
<polygon fill="#000000" stroke="#000000" points="66.5001,-312.472 63,-302.472 59.5001,-312.4721 66.5001,-312.472"/>
<text text-anchor="middle" x="82.25" y="-324.6" font-family="Times,serif" font-size="14.00" fill="#000000">298.00</text>
</g>
<!-- 1 -->
<g id="node4" class="node">
<title>1</title>
<ellipse fill="none" stroke="#ff0000" cx="63" cy="-195.6" rx="27" ry="18"/>
<text text-anchor="middle" x="63" y="-191.4" font-family="Times,serif" font-size="14.00" fill="#000000">1</text>
</g>
<!-- 3&#45;&gt;1 -->
<g id="edge3" class="edge">
<title>3&#45;&gt;1</title>
<path fill="none" stroke="#000000" d="M63,-266.0006C63,-253.8949 63,-237.8076 63,-224.0674"/>
<polygon fill="#000000" stroke="#000000" points="66.5001,-223.672 63,-213.672 59.5001,-223.6721 66.5001,-223.672"/>
<text text-anchor="middle" x="82.25" y="-235.8" font-family="Times,serif" font-size="14.00" fill="#000000">301.00</text>
</g>
<!-- 11 -->
<g id="node5" class="node">
<title>11</title>
<ellipse fill="none" stroke="#000000" cx="27" cy="-106.8" rx="27" ry="18"/>
<text text-anchor="middle" x="27" y="-102.6" font-family="Times,serif" font-size="14.00" fill="#000000">11</text>
</g>
<!-- 1&#45;&gt;11 -->
<g id="edge4" class="edge">
<title>1&#45;&gt;11</title>
<path fill="none" stroke="#000000" d="M48.5575,-180.1923C43.6773,-174.1823 38.6681,-166.9701 35.5,-159.6 32.2367,-152.0083 30.215,-143.3135 28.9661,-135.2002"/>
<polygon fill="#000000" stroke="#000000" points="32.409,-134.5168 27.73,-125.0112 25.4599,-135.36 32.409,-134.5168"/>
<text text-anchor="middle" x="55.25" y="-147" font-family="Times,serif" font-size="14.00" fill="#000000">197.00</text>
</g>
<!-- 64 -->
<g id="node7" class="node">
<title>64</title>
<ellipse fill="none" stroke="#000000" cx="99" cy="-106.8" rx="27" ry="18"/>
<text text-anchor="middle" x="99" y="-102.6" font-family="Times,serif" font-size="14.00" fill="#000000">64</text>
</g>
<!-- 1&#45;&gt;64 -->
<g id="edge5" class="edge">
<title>1&#45;&gt;64</title>
<path fill="none" stroke="#000000" d="M70.1124,-178.056C75.2404,-165.4071 82.2567,-148.1002 88.0903,-133.7105"/>
<polygon fill="#000000" stroke="#000000" points="91.3888,-134.89 91.9023,-124.3076 84.9016,-132.26 91.3888,-134.89"/>
<text text-anchor="middle" x="104.25" y="-147" font-family="Times,serif" font-size="14.00" fill="#000000">189.00</text>
</g>
<!-- 4 -->
<g id="node6" class="node">
<title>4</title>
<ellipse fill="none" stroke="#ff0000" cx="27" cy="-18" rx="27" ry="18"/>
<text text-anchor="middle" x="27" y="-13.8" font-family="Times,serif" font-size="14.00" fill="#000000">4</text>
</g>
<!-- 11&#45;&gt;4 -->
<g id="edge6" class="edge">
<title>11&#45;&gt;4</title>
<path fill="none" stroke="#000000" d="M27,-88.4006C27,-76.2949 27,-60.2076 27,-46.4674"/>
<polygon fill="#000000" stroke="#000000" points="30.5001,-46.072 27,-36.072 23.5001,-46.0721 30.5001,-46.072"/>
<text text-anchor="middle" x="46.25" y="-58.2" font-family="Times,serif" font-size="14.00" fill="#000000">195.00</text>
</g>
<!-- 2 -->
<g id="node8" class="node">
<title>2</title>
<ellipse fill="none" stroke="#ff0000" cx="99" cy="-18" rx="27" ry="18"/>
<text text-anchor="middle" x="99" y="-13.8" font-family="Times,serif" font-size="14.00" fill="#000000">2</text>
</g>
<!-- 64&#45;&gt;2 -->
<g id="edge7" class="edge">
<title>64&#45;&gt;2</title>
<path fill="none" stroke="#000000" d="M99,-88.4006C99,-76.2949 99,-60.2076 99,-46.4674"/>
<polygon fill="#000000" stroke="#000000" points="102.5001,-46.072 99,-36.072 95.5001,-46.0721 102.5001,-46.072"/>
<text text-anchor="middle" x="118.25" y="-58.2" font-family="Times,serif" font-size="14.00" fill="#000000">200.00</text>
</g>
</g>
</svg>
