<svg width="600px" height="2584px"
 viewBox="0.00 0.00 134.00 576.80" xmlns="http://www.w3.org/2000/svg" xmlns:xlink="http://www.w3.org/1999/xlink">
<g id="graph0" class="graph" transform="scale(1.0 1.0) rotate(0) translate(4 572.8)">
<title>%0</title>
<polygon fill="#ffffff" stroke="transparent" points="-4,4 -4,-572.8 130,-572.8 130,4 -4,4"/>
<!-- 4 -->
<g id="node1" class="node">
<title>4</title>
<ellipse fill="none" stroke="#ff0000" cx="56" cy="-550.8" rx="27" ry="18"/>
<text text-anchor="middle" x="56" y="-546.6" font-family="Times,serif" font-size="14.00" fill="#000000">4</text>
</g>
<!-- 9 -->
<g id="node2" class="node">
<title>9</title>
<ellipse fill="none" stroke="#000000" cx="56" cy="-462" rx="27" ry="18"/>
<text text-anchor="middle" x="56" y="-457.8" font-family="Times,serif" font-size="14.00" fill="#000000">9</text>
</g>
<!-- 4&#45;&gt;9 -->
<g id="edge1" class="edge">
<title>4&#45;&gt;9</title>
<path fill="none" stroke="#000000" d="M56,-532.4006C56,-520.2949 56,-504.2076 56,-490.4674"/>
<polygon fill="#000000" stroke="#000000" points="59.5001,-490.072 56,-480.072 52.5001,-490.0721 59.5001,-490.072"/>
<text text-anchor="middle" x="66.5" y="-502.2" font-family="Times,serif" font-size="14.00" fill="#000000">192</text>
</g>
<!-- 6 -->
<g id="node3" class="node">
<title>6</title>
<ellipse fill="none" stroke="#ff0000" cx="56" cy="-373.2" rx="27" ry="18"/>
<text text-anchor="middle" x="56" y="-369" font-family="Times,serif" font-size="14.00" fill="#000000">6</text>
</g>
<!-- 9&#45;&gt;6 -->
<g id="edge2" class="edge">
<title>9&#45;&gt;6</title>
<path fill="none" stroke="#000000" d="M56,-443.6006C56,-431.4949 56,-415.4076 56,-401.6674"/>
<polygon fill="#000000" stroke="#000000" points="59.5001,-401.272 56,-391.272 52.5001,-401.2721 59.5001,-401.272"/>
<text text-anchor="middle" x="66.5" y="-413.4" font-family="Times,serif" font-size="14.00" fill="#000000">196</text>
</g>
<!-- 2 -->
<g id="node4" class="node">
<title>2</title>
<ellipse fill="none" stroke="#ff0000" cx="56" cy="-284.4" rx="27" ry="18"/>
<text text-anchor="middle" x="56" y="-280.2" font-family="Times,serif" font-size="14.00" fill="#000000">2</text>
</g>
<!-- 6&#45;&gt;2 -->
<g id="edge3" class="edge">
<title>6&#45;&gt;2</title>
<path fill="none" stroke="#000000" d="M56,-354.8006C56,-342.6949 56,-326.6076 56,-312.8674"/>
<polygon fill="#000000" stroke="#000000" points="59.5001,-312.472 56,-302.472 52.5001,-312.4721 59.5001,-312.472"/>
<text text-anchor="middle" x="66.5" y="-324.6" font-family="Times,serif" font-size="14.00" fill="#000000">295</text>
</g>
<!-- 1 -->
<g id="node5" class="node">
<title>1</title>
<ellipse fill="none" stroke="#ff0000" cx="27" cy="-195.6" rx="27" ry="18"/>
<text text-anchor="middle" x="27" y="-191.4" font-family="Times,serif" font-size="14.00" fill="#000000">1</text>
</g>
<!-- 2&#45;&gt;1 -->
<g id="edge4" class="edge">
<title>2&#45;&gt;1</title>
<path fill="none" stroke="#000000" d="M48.8304,-266.9427C46.5295,-261.0914 44.0486,-254.5031 42,-248.4 39.3135,-240.3964 36.69,-231.6089 34.4076,-223.5385"/>
<polygon fill="#000000" stroke="#000000" points="37.7571,-222.5191 31.7199,-213.8126 31.01,-224.3837 37.7571,-222.5191"/>
<text text-anchor="middle" x="52.5" y="-235.8" font-family="Times,serif" font-size="14.00" fill="#000000">301</text>
</g>
<!-- 3 -->
<g id="node6" class="node">
<title>3</title>
<ellipse fill="none" stroke="#ff0000" cx="99" cy="-195.6" rx="27" ry="18"/>
<text text-anchor="middle" x="99" y="-191.4" font-family="Times,serif" font-size="14.00" fill="#000000">3</text>
</g>
<!-- 2&#45;&gt;3 -->
<g id="edge5" class="edge">
<title>2&#45;&gt;3</title>
<path fill="none" stroke="#000000" d="M64.4954,-266.856C70.7195,-254.0025 79.2726,-236.3393 86.3059,-221.8148"/>
<polygon fill="#000000" stroke="#000000" points="89.4603,-223.3311 90.6685,-212.8054 83.1601,-220.2803 89.4603,-223.3311"/>
<text text-anchor="middle" x="91.5" y="-235.8" font-family="Times,serif" font-size="14.00" fill="#000000">304</text>
</g>
<!-- 40 -->
<g id="node7" class="node">
<title>40</title>
<ellipse fill="none" stroke="#000000" cx="99" cy="-106.8" rx="27" ry="18"/>
<text text-anchor="middle" x="99" y="-102.6" font-family="Times,serif" font-size="14.00" fill="#000000">40</text>
</g>
<!-- 3&#45;&gt;40 -->
<g id="edge6" class="edge">
<title>3&#45;&gt;40</title>
<path fill="none" stroke="#000000" d="M99,-177.2006C99,-165.0949 99,-149.0076 99,-135.2674"/>
<polygon fill="#000000" stroke="#000000" points="102.5001,-134.872 99,-124.872 95.5001,-134.8721 102.5001,-134.872"/>
<text text-anchor="middle" x="109.5" y="-147" font-family="Times,serif" font-size="14.00" fill="#000000">188</text>
</g>
<!-- 5 -->
<g id="node8" class="node">
<title>5</title>
<ellipse fill="none" stroke="#ff0000" cx="99" cy="-18" rx="27" ry="18"/>
<text text-anchor="middle" x="99" y="-13.8" font-family="Times,serif" font-size="14.00" fill="#000000">5</text>
</g>
<!-- 40&#45;&gt;5 -->
<g id="edge7" class="edge">
<title>40&#45;&gt;5</title>
<path fill="none" stroke="#000000" d="M99,-88.4006C99,-76.2949 99,-60.2076 99,-46.4674"/>
<polygon fill="#000000" stroke="#000000" points="102.5001,-46.072 99,-36.072 95.5001,-46.0721 102.5001,-46.072"/>
<text text-anchor="middle" x="109.5" y="-58.2" font-family="Times,serif" font-size="14.00" fill="#000000">200</text>
</g>
</g>
</svg>
