<svg width="600px" height="1098px"
 viewBox="0.00 0.00 217.50 399.20" xmlns="http://www.w3.org/2000/svg" xmlns:xlink="http://www.w3.org/1999/xlink">
<g id="graph0" class="graph" transform="scale(1.0 1.0) rotate(0) translate(4 395.2)">
<title>%0</title>
<polygon fill="#ffffff" stroke="transparent" points="-4,4 -4,-395.2 213.5,-395.2 213.5,4 -4,4"/>
<!-- 1 -->
<g id="node1" class="node">
<title>1</title>
<ellipse fill="none" stroke="#ff0000" cx="27" cy="-195.6" rx="27" ry="18"/>
<text text-anchor="middle" x="27" y="-191.4" font-family="Times,serif" font-size="14.00" fill="#000000">1</text>
</g>
<!-- 56 -->
<g id="node2" class="node">
<title>56</title>
<ellipse fill="none" stroke="#000000" cx="27" cy="-106.8" rx="27" ry="18"/>
<text text-anchor="middle" x="27" y="-102.6" font-family="Times,serif" font-size="14.00" fill="#000000">56</text>
</g>
<!-- 1&#45;&gt;56 -->
<g id="edge1" class="edge">
<title>1&#45;&gt;56</title>
<path fill="none" stroke="#000000" d="M27,-177.2006C27,-165.0949 27,-149.0076 27,-135.2674"/>
<polygon fill="#000000" stroke="#000000" points="30.5001,-134.872 27,-124.872 23.5001,-134.8721 30.5001,-134.872"/>
<text text-anchor="middle" x="46.25" y="-147" font-family="Times,serif" font-size="14.00" fill="#000000">202.00</text>
</g>
<!-- 6 -->
<g id="node3" class="node">
<title>6</title>
<ellipse fill="none" stroke="#ff0000" cx="27" cy="-18" rx="27" ry="18"/>
<text text-anchor="middle" x="27" y="-13.8" font-family="Times,serif" font-size="14.00" fill="#000000">6</text>
</g>
<!-- 56&#45;&gt;6 -->
<g id="edge2" class="edge">
<title>56&#45;&gt;6</title>
<path fill="none" stroke="#000000" d="M27,-88.4006C27,-76.2949 27,-60.2076 27,-46.4674"/>
<polygon fill="#000000" stroke="#000000" points="30.5001,-46.072 27,-36.072 23.5001,-46.0721 30.5001,-46.072"/>
<text text-anchor="middle" x="46.25" y="-58.2" font-family="Times,serif" font-size="14.00" fill="#000000">198.00</text>
</g>
<!-- 2 -->
<g id="node4" class="node">
<title>2</title>
<ellipse fill="none" stroke="#ff0000" cx="99" cy="-284.4" rx="27" ry="18"/>
<text text-anchor="middle" x="99" y="-280.2" font-family="Times,serif" font-size="14.00" fill="#000000">2</text>
</g>
<!-- 2&#45;&gt;1 -->
<g id="edge3" class="edge">
<title>2&#45;&gt;1</title>
<path fill="none" stroke="#000000" d="M80.3202,-270.9792C72.3786,-264.697 63.3834,-256.7612 56.5,-248.4 50.0306,-240.5416 44.2307,-231.0638 39.521,-222.3199"/>
<polygon fill="#000000" stroke="#000000" points="42.537,-220.5309 34.8582,-213.2311 36.3088,-223.7262 42.537,-220.5309"/>
<text text-anchor="middle" x="76.25" y="-235.8" font-family="Times,serif" font-size="14.00" fill="#000000">382.00</text>
</g>
<!-- 4 -->
<g id="node5" class="node">
<title>4</title>
<ellipse fill="none" stroke="#ff0000" cx="99" cy="-195.6" rx="27" ry="18"/>
<text text-anchor="middle" x="99" y="-191.4" font-family="Times,serif" font-size="14.00" fill="#000000">4</text>
</g>
<!-- 2&#45;&gt;4 -->
<g id="edge4" class="edge">
<title>2&#45;&gt;4</title>
<path fill="none" stroke="#000000" d="M99,-266.0006C99,-253.8949 99,-237.8076 99,-224.0674"/>
<polygon fill="#000000" stroke="#000000" points="102.5001,-223.672 99,-213.672 95.5001,-223.6721 102.5001,-223.672"/>
<text text-anchor="middle" x="118.25" y="-235.8" font-family="Times,serif" font-size="14.00" fill="#000000">390.00</text>
</g>
<!-- 3 -->
<g id="node6" class="node">
<title>3</title>
<ellipse fill="none" stroke="#ff0000" cx="171" cy="-106.8" rx="27" ry="18"/>
<text text-anchor="middle" x="171" y="-102.6" font-family="Times,serif" font-size="14.00" fill="#000000">3</text>
</g>
<!-- 67 -->
<g id="node7" class="node">
<title>67</title>
<ellipse fill="none" stroke="#000000" cx="135" cy="-373.2" rx="27" ry="18"/>
<text text-anchor="middle" x="135" y="-369" font-family="Times,serif" font-size="14.00" fill="#000000">67</text>
</g>
<!-- 67&#45;&gt;2 -->
<g id="edge5" class="edge">
<title>67&#45;&gt;2</title>
<path fill="none" stroke="#000000" d="M120.5575,-357.7923C115.6773,-351.7823 110.6681,-344.5701 107.5,-337.2 104.2367,-329.6083 102.215,-320.9135 100.9661,-312.8002"/>
<polygon fill="#000000" stroke="#000000" points="104.409,-312.1168 99.73,-302.6112 97.4599,-312.96 104.409,-312.1168"/>
<text text-anchor="middle" x="127.25" y="-324.6" font-family="Times,serif" font-size="14.00" fill="#000000">191.00</text>
</g>
<!-- 5 -->
<g id="node8" class="node">
<title>5</title>
<ellipse fill="none" stroke="#ff0000" cx="171" cy="-284.4" rx="27" ry="18"/>
<text text-anchor="middle" x="171" y="-280.2" font-family="Times,serif" font-size="14.00" fill="#000000">5</text>
</g>
<!-- 67&#45;&gt;5 -->
<g id="edge6" class="edge">
<title>67&#45;&gt;5</title>
<path fill="none" stroke="#000000" d="M142.1124,-355.656C147.2404,-343.0071 154.2567,-325.7002 160.0903,-311.3105"/>
<polygon fill="#000000" stroke="#000000" points="163.3888,-312.49 163.9023,-301.9076 156.9016,-309.86 163.3888,-312.49"/>
<text text-anchor="middle" x="176.25" y="-324.6" font-family="Times,serif" font-size="14.00" fill="#000000">196.00</text>
</g>
<!-- 31 -->
<g id="node9" class="node">
<title>31</title>
<ellipse fill="none" stroke="#000000" cx="171" cy="-195.6" rx="27" ry="18"/>
<text text-anchor="middle" x="171" y="-191.4" font-family="Times,serif" font-size="14.00" fill="#000000">31</text>
</g>
<!-- 5&#45;&gt;31 -->
<g id="edge7" class="edge">
<title>5&#45;&gt;31</title>
<path fill="none" stroke="#000000" d="M171,-266.0006C171,-253.8949 171,-237.8076 171,-224.0674"/>
<polygon fill="#000000" stroke="#000000" points="174.5001,-223.672 171,-213.672 167.5001,-223.6721 174.5001,-223.672"/>
<text text-anchor="middle" x="190.25" y="-235.8" font-family="Times,serif" font-size="14.00" fill="#000000">196.00</text>
</g>
<!-- 31&#45;&gt;3 -->
<g id="edge8" class="edge">
<title>31&#45;&gt;3</title>
<path fill="none" stroke="#000000" d="M171,-177.2006C171,-165.0949 171,-149.0076 171,-135.2674"/>
<polygon fill="#000000" stroke="#000000" points="174.5001,-134.872 171,-124.872 167.5001,-134.8721 174.5001,-134.872"/>
<text text-anchor="middle" x="190.25" y="-147" font-family="Times,serif" font-size="14.00" fill="#000000">195.00</text>
</g>
</g>
</svg>
