<svg width="600px" height="4572px"
 viewBox="0.00 0.00 134.00 1020.80" xmlns="http://www.w3.org/2000/svg" xmlns:xlink="http://www.w3.org/1999/xlink">
<g id="graph0" class="graph" transform="scale(1.0 1.0) rotate(0) translate(4 1016.8)">
<title>%0</title>
<polygon fill="#ffffff" stroke="transparent" points="-4,4 -4,-1016.8 130,-1016.8 130,4 -4,4"/>
<!-- 5 -->
<g id="node1" class="node">
<title>5</title>
<ellipse fill="none" stroke="#ff0000" cx="63" cy="-994.8" rx="27" ry="18"/>
<text text-anchor="middle" x="63" y="-990.6" font-family="Times,serif" font-size="14.00" fill="#000000">5</text>
</g>
<!-- 6 -->
<g id="node2" class="node">
<title>6</title>
<ellipse fill="none" stroke="#ff0000" cx="63" cy="-906" rx="27" ry="18"/>
<text text-anchor="middle" x="63" y="-901.8" font-family="Times,serif" font-size="14.00" fill="#000000">6</text>
</g>
<!-- 5&#45;&gt;6 -->
<g id="edge1" class="edge">
<title>5&#45;&gt;6</title>
<path fill="none" stroke="#000000" d="M63,-976.4006C63,-964.2949 63,-948.2076 63,-934.4674"/>
<polygon fill="#000000" stroke="#000000" points="66.5001,-934.072 63,-924.072 59.5001,-934.0721 66.5001,-934.072"/>
<text text-anchor="middle" x="73.5" y="-946.2" font-family="Times,serif" font-size="14.00" fill="#000000">296</text>
</g>
<!-- 4 -->
<g id="node3" class="node">
<title>4</title>
<ellipse fill="none" stroke="#ff0000" cx="27" cy="-817.2" rx="27" ry="18"/>
<text text-anchor="middle" x="27" y="-813" font-family="Times,serif" font-size="14.00" fill="#000000">4</text>
</g>
<!-- 6&#45;&gt;4 -->
<g id="edge2" class="edge">
<title>6&#45;&gt;4</title>
<path fill="none" stroke="#000000" d="M55.8876,-888.456C50.7596,-875.8071 43.7433,-858.5002 37.9097,-844.1105"/>
<polygon fill="#000000" stroke="#000000" points="41.0984,-842.66 34.0977,-834.7076 34.6112,-845.29 41.0984,-842.66"/>
<text text-anchor="middle" x="59.5" y="-857.4" font-family="Times,serif" font-size="14.00" fill="#000000">306</text>
</g>
<!-- 30 -->
<g id="node13" class="node">
<title>30</title>
<ellipse fill="none" stroke="#000000" cx="99" cy="-817.2" rx="27" ry="18"/>
<text text-anchor="middle" x="99" y="-813" font-family="Times,serif" font-size="14.00" fill="#000000">30</text>
</g>
<!-- 6&#45;&gt;30 -->
<g id="edge3" class="edge">
<title>6&#45;&gt;30</title>
<path fill="none" stroke="#000000" d="M70.1124,-888.456C75.2404,-875.8071 82.2567,-858.5002 88.0903,-844.1105"/>
<polygon fill="#000000" stroke="#000000" points="91.3888,-845.29 91.9023,-834.7076 84.9016,-842.66 91.3888,-845.29"/>
<text text-anchor="middle" x="94.5" y="-857.4" font-family="Times,serif" font-size="14.00" fill="#000000">203</text>
</g>
<!-- 19 -->
<g id="node4" class="node">
<title>19</title>
<ellipse fill="none" stroke="#000000" cx="27" cy="-728.4" rx="27" ry="18"/>
<text text-anchor="middle" x="27" y="-724.2" font-family="Times,serif" font-size="14.00" fill="#000000">19</text>
</g>
<!-- 4&#45;&gt;19 -->
<g id="edge4" class="edge">
<title>4&#45;&gt;19</title>
<path fill="none" stroke="#000000" d="M27,-798.8006C27,-786.6949 27,-770.6076 27,-756.8674"/>
<polygon fill="#000000" stroke="#000000" points="30.5001,-756.472 27,-746.472 23.5001,-756.4721 30.5001,-756.472"/>
<text text-anchor="middle" x="37.5" y="-768.6" font-family="Times,serif" font-size="14.00" fill="#000000">188</text>
</g>
<!-- 1 -->
<g id="node5" class="node">
<title>1</title>
<ellipse fill="none" stroke="#ff0000" cx="27" cy="-639.6" rx="27" ry="18"/>
<text text-anchor="middle" x="27" y="-635.4" font-family="Times,serif" font-size="14.00" fill="#000000">1</text>
</g>
<!-- 19&#45;&gt;1 -->
<g id="edge5" class="edge">
<title>19&#45;&gt;1</title>
<path fill="none" stroke="#000000" d="M27,-710.0006C27,-697.8949 27,-681.8076 27,-668.0674"/>
<polygon fill="#000000" stroke="#000000" points="30.5001,-667.672 27,-657.672 23.5001,-667.6721 30.5001,-667.672"/>
<text text-anchor="middle" x="37.5" y="-679.8" font-family="Times,serif" font-size="14.00" fill="#000000">198</text>
</g>
<!-- 54 -->
<g id="node6" class="node">
<title>54</title>
<ellipse fill="none" stroke="#000000" cx="27" cy="-550.8" rx="27" ry="18"/>
<text text-anchor="middle" x="27" y="-546.6" font-family="Times,serif" font-size="14.00" fill="#000000">54</text>
</g>
<!-- 1&#45;&gt;54 -->
<g id="edge6" class="edge">
<title>1&#45;&gt;54</title>
<path fill="none" stroke="#000000" d="M27,-621.2006C27,-609.0949 27,-593.0076 27,-579.2674"/>
<polygon fill="#000000" stroke="#000000" points="30.5001,-578.872 27,-568.872 23.5001,-578.8721 30.5001,-578.872"/>
<text text-anchor="middle" x="37.5" y="-591" font-family="Times,serif" font-size="14.00" fill="#000000">192</text>
</g>
<!-- 8 -->
<g id="node7" class="node">
<title>8</title>
<ellipse fill="none" stroke="#ff0000" cx="27" cy="-462" rx="27" ry="18"/>
<text text-anchor="middle" x="27" y="-457.8" font-family="Times,serif" font-size="14.00" fill="#000000">8</text>
</g>
<!-- 54&#45;&gt;8 -->
<g id="edge7" class="edge">
<title>54&#45;&gt;8</title>
<path fill="none" stroke="#000000" d="M27,-532.4006C27,-520.2949 27,-504.2076 27,-490.4674"/>
<polygon fill="#000000" stroke="#000000" points="30.5001,-490.072 27,-480.072 23.5001,-490.0721 30.5001,-490.072"/>
<text text-anchor="middle" x="37.5" y="-502.2" font-family="Times,serif" font-size="14.00" fill="#000000">196</text>
</g>
<!-- 62 -->
<g id="node8" class="node">
<title>62</title>
<ellipse fill="none" stroke="#000000" cx="27" cy="-373.2" rx="27" ry="18"/>
<text text-anchor="middle" x="27" y="-369" font-family="Times,serif" font-size="14.00" fill="#000000">62</text>
</g>
<!-- 8&#45;&gt;62 -->
<g id="edge8" class="edge">
<title>8&#45;&gt;62</title>
<path fill="none" stroke="#000000" d="M27,-443.6006C27,-431.4949 27,-415.4076 27,-401.6674"/>
<polygon fill="#000000" stroke="#000000" points="30.5001,-401.272 27,-391.272 23.5001,-401.2721 30.5001,-401.272"/>
<text text-anchor="middle" x="37.5" y="-413.4" font-family="Times,serif" font-size="14.00" fill="#000000">203</text>
</g>
<!-- 3 -->
<g id="node9" class="node">
<title>3</title>
<ellipse fill="none" stroke="#ff0000" cx="27" cy="-284.4" rx="27" ry="18"/>
<text text-anchor="middle" x="27" y="-280.2" font-family="Times,serif" font-size="14.00" fill="#000000">3</text>
</g>
<!-- 62&#45;&gt;3 -->
<g id="edge9" class="edge">
<title>62&#45;&gt;3</title>
<path fill="none" stroke="#000000" d="M27,-354.8006C27,-342.6949 27,-326.6076 27,-312.8674"/>
<polygon fill="#000000" stroke="#000000" points="30.5001,-312.472 27,-302.472 23.5001,-312.4721 30.5001,-312.472"/>
<text text-anchor="middle" x="37.5" y="-324.6" font-family="Times,serif" font-size="14.00" fill="#000000">196</text>
</g>
<!-- 52 -->
<g id="node10" class="node">
<title>52</title>
<ellipse fill="none" stroke="#000000" cx="27" cy="-195.6" rx="27" ry="18"/>
<text text-anchor="middle" x="27" y="-191.4" font-family="Times,serif" font-size="14.00" fill="#000000">52</text>
</g>
<!-- 3&#45;&gt;52 -->
<g id="edge10" class="edge">
<title>3&#45;&gt;52</title>
<path fill="none" stroke="#000000" d="M27,-266.0006C27,-253.8949 27,-237.8076 27,-224.0674"/>
<polygon fill="#000000" stroke="#000000" points="30.5001,-223.672 27,-213.672 23.5001,-223.6721 30.5001,-223.672"/>
<text text-anchor="middle" x="37.5" y="-235.8" font-family="Times,serif" font-size="14.00" fill="#000000">188</text>
</g>
<!-- 79 -->
<g id="node11" class="node">
<title>79</title>
<ellipse fill="none" stroke="#000000" cx="27" cy="-106.8" rx="27" ry="18"/>
<text text-anchor="middle" x="27" y="-102.6" font-family="Times,serif" font-size="14.00" fill="#000000">79</text>
</g>
<!-- 52&#45;&gt;79 -->
<g id="edge11" class="edge">
<title>52&#45;&gt;79</title>
<path fill="none" stroke="#000000" d="M27,-177.2006C27,-165.0949 27,-149.0076 27,-135.2674"/>
<polygon fill="#000000" stroke="#000000" points="30.5001,-134.872 27,-124.872 23.5001,-134.8721 30.5001,-134.872"/>
<text text-anchor="middle" x="34" y="-147" font-family="Times,serif" font-size="14.00" fill="#000000">96</text>
</g>
<!-- 2 -->
<g id="node12" class="node">
<title>2</title>
<ellipse fill="none" stroke="#ff0000" cx="27" cy="-18" rx="27" ry="18"/>
<text text-anchor="middle" x="27" y="-13.8" font-family="Times,serif" font-size="14.00" fill="#000000">2</text>
</g>
<!-- 79&#45;&gt;2 -->
<g id="edge12" class="edge">
<title>79&#45;&gt;2</title>
<path fill="none" stroke="#000000" d="M27,-88.4006C27,-76.2949 27,-60.2076 27,-46.4674"/>
<polygon fill="#000000" stroke="#000000" points="30.5001,-46.072 27,-36.072 23.5001,-46.0721 30.5001,-46.072"/>
<text text-anchor="middle" x="37.5" y="-58.2" font-family="Times,serif" font-size="14.00" fill="#000000">197</text>
</g>
<!-- 7 -->
<g id="node14" class="node">
<title>7</title>
<ellipse fill="none" stroke="#ff0000" cx="99" cy="-728.4" rx="27" ry="18"/>
<text text-anchor="middle" x="99" y="-724.2" font-family="Times,serif" font-size="14.00" fill="#000000">7</text>
</g>
<!-- 30&#45;&gt;7 -->
<g id="edge13" class="edge">
<title>30&#45;&gt;7</title>
<path fill="none" stroke="#000000" d="M99,-798.8006C99,-786.6949 99,-770.6076 99,-756.8674"/>
<polygon fill="#000000" stroke="#000000" points="102.5001,-756.472 99,-746.472 95.5001,-756.4721 102.5001,-756.472"/>
<text text-anchor="middle" x="109.5" y="-768.6" font-family="Times,serif" font-size="14.00" fill="#000000">200</text>
</g>
</g>
</svg>
