<svg width="600px" height="1455px"
 viewBox="0.00 0.00 238.00 576.80" xmlns="http://www.w3.org/2000/svg" xmlns:xlink="http://www.w3.org/1999/xlink">
<g id="graph0" class="graph" transform="scale(1.0 1.0) rotate(0) translate(4 572.8)">
<title>%0</title>
<polygon fill="#ffffff" stroke="transparent" points="-4,4 -4,-572.8 234,-572.8 234,4 -4,4"/>
<!-- 1 -->
<g id="node1" class="node">
<title>1</title>
<ellipse fill="none" stroke="#ff0000" cx="99" cy="-550.8" rx="27" ry="18"/>
<text text-anchor="middle" x="99" y="-546.6" font-family="Times,serif" font-size="14.00" fill="#000000">1</text>
</g>
<!-- 37 -->
<g id="node2" class="node">
<title>37</title>
<ellipse fill="none" stroke="#000000" cx="27" cy="-462" rx="27" ry="18"/>
<text text-anchor="middle" x="27" y="-457.8" font-family="Times,serif" font-size="14.00" fill="#000000">37</text>
</g>
<!-- 1&#45;&gt;37 -->
<g id="edge1" class="edge">
<title>1&#45;&gt;37</title>
<path fill="none" stroke="#000000" d="M86.1278,-534.9243C75.1384,-521.3707 59.1627,-501.6674 46.587,-486.1573"/>
<polygon fill="#000000" stroke="#000000" points="49.0202,-483.6009 40.0035,-478.0376 43.5829,-488.0095 49.0202,-483.6009"/>
<text text-anchor="middle" x="79.5" y="-502.2" font-family="Times,serif" font-size="14.00" fill="#000000">195</text>
</g>
<!-- 78 -->
<g id="node4" class="node">
<title>78</title>
<ellipse fill="none" stroke="#000000" cx="99" cy="-462" rx="27" ry="18"/>
<text text-anchor="middle" x="99" y="-457.8" font-family="Times,serif" font-size="14.00" fill="#000000">78</text>
</g>
<!-- 1&#45;&gt;78 -->
<g id="edge2" class="edge">
<title>1&#45;&gt;78</title>
<path fill="none" stroke="#000000" d="M99,-532.4006C99,-520.2949 99,-504.2076 99,-490.4674"/>
<polygon fill="#000000" stroke="#000000" points="102.5001,-490.072 99,-480.072 95.5001,-490.0721 102.5001,-490.072"/>
<text text-anchor="middle" x="109.5" y="-502.2" font-family="Times,serif" font-size="14.00" fill="#000000">199</text>
</g>
<!-- 63 -->
<g id="node6" class="node">
<title>63</title>
<ellipse fill="none" stroke="#000000" cx="171" cy="-462" rx="27" ry="18"/>
<text text-anchor="middle" x="171" y="-457.8" font-family="Times,serif" font-size="14.00" fill="#000000">63</text>
</g>
<!-- 1&#45;&gt;63 -->
<g id="edge3" class="edge">
<title>1&#45;&gt;63</title>
<path fill="none" stroke="#000000" d="M111.8722,-534.9243C122.8616,-521.3707 138.8373,-501.6674 151.413,-486.1573"/>
<polygon fill="#000000" stroke="#000000" points="154.4171,-488.0095 157.9965,-478.0376 148.9798,-483.6009 154.4171,-488.0095"/>
<text text-anchor="middle" x="151.5" y="-502.2" font-family="Times,serif" font-size="14.00" fill="#000000">192</text>
</g>
<!-- 7 -->
<g id="node3" class="node">
<title>7</title>
<ellipse fill="none" stroke="#ff0000" cx="27" cy="-373.2" rx="27" ry="18"/>
<text text-anchor="middle" x="27" y="-369" font-family="Times,serif" font-size="14.00" fill="#000000">7</text>
</g>
<!-- 37&#45;&gt;7 -->
<g id="edge4" class="edge">
<title>37&#45;&gt;7</title>
<path fill="none" stroke="#000000" d="M27,-443.6006C27,-431.4949 27,-415.4076 27,-401.6674"/>
<polygon fill="#000000" stroke="#000000" points="30.5001,-401.272 27,-391.272 23.5001,-401.2721 30.5001,-401.272"/>
<text text-anchor="middle" x="37.5" y="-413.4" font-family="Times,serif" font-size="14.00" fill="#000000">196</text>
</g>
<!-- 8 -->
<g id="node5" class="node">
<title>8</title>
<ellipse fill="none" stroke="#ff0000" cx="99" cy="-373.2" rx="27" ry="18"/>
<text text-anchor="middle" x="99" y="-369" font-family="Times,serif" font-size="14.00" fill="#000000">8</text>
</g>
<!-- 78&#45;&gt;8 -->
<g id="edge5" class="edge">
<title>78&#45;&gt;8</title>
<path fill="none" stroke="#000000" d="M99,-443.6006C99,-431.4949 99,-415.4076 99,-401.6674"/>
<polygon fill="#000000" stroke="#000000" points="102.5001,-401.272 99,-391.272 95.5001,-401.2721 102.5001,-401.272"/>
<text text-anchor="middle" x="109.5" y="-413.4" font-family="Times,serif" font-size="14.00" fill="#000000">197</text>
</g>
<!-- 2 -->
<g id="node7" class="node">
<title>2</title>
<ellipse fill="none" stroke="#ff0000" cx="171" cy="-373.2" rx="27" ry="18"/>
<text text-anchor="middle" x="171" y="-369" font-family="Times,serif" font-size="14.00" fill="#000000">2</text>
</g>
<!-- 63&#45;&gt;2 -->
<g id="edge6" class="edge">
<title>63&#45;&gt;2</title>
<path fill="none" stroke="#000000" d="M171,-443.6006C171,-431.4949 171,-415.4076 171,-401.6674"/>
<polygon fill="#000000" stroke="#000000" points="174.5001,-401.272 171,-391.272 167.5001,-401.2721 174.5001,-401.272"/>
<text text-anchor="middle" x="181.5" y="-413.4" font-family="Times,serif" font-size="14.00" fill="#000000">201</text>
</g>
<!-- 70 -->
<g id="node8" class="node">
<title>70</title>
<ellipse fill="none" stroke="#000000" cx="131" cy="-284.4" rx="27" ry="18"/>
<text text-anchor="middle" x="131" y="-280.2" font-family="Times,serif" font-size="14.00" fill="#000000">70</text>
</g>
<!-- 2&#45;&gt;70 -->
<g id="edge7" class="edge">
<title>2&#45;&gt;70</title>
<path fill="none" stroke="#000000" d="M163.0973,-355.656C157.3996,-343.0071 149.6037,-325.7002 143.1219,-311.3105"/>
<polygon fill="#000000" stroke="#000000" points="146.1846,-309.5878 138.8863,-301.9076 139.8022,-312.4628 146.1846,-309.5878"/>
<text text-anchor="middle" x="164.5" y="-324.6" font-family="Times,serif" font-size="14.00" fill="#000000">194</text>
</g>
<!-- 11 -->
<g id="node14" class="node">
<title>11</title>
<ellipse fill="none" stroke="#000000" cx="203" cy="-284.4" rx="27" ry="18"/>
<text text-anchor="middle" x="203" y="-280.2" font-family="Times,serif" font-size="14.00" fill="#000000">11</text>
</g>
<!-- 2&#45;&gt;11 -->
<g id="edge8" class="edge">
<title>2&#45;&gt;11</title>
<path fill="none" stroke="#000000" d="M177.3222,-355.656C181.8365,-343.1287 187.9972,-326.0326 193.1526,-311.7264"/>
<polygon fill="#000000" stroke="#000000" points="196.5934,-312.502 196.691,-301.9076 190.008,-310.1288 196.5934,-312.502"/>
<text text-anchor="middle" x="199.5" y="-324.6" font-family="Times,serif" font-size="14.00" fill="#000000">194</text>
</g>
<!-- 5 -->
<g id="node9" class="node">
<title>5</title>
<ellipse fill="none" stroke="#ff0000" cx="131" cy="-195.6" rx="27" ry="18"/>
<text text-anchor="middle" x="131" y="-191.4" font-family="Times,serif" font-size="14.00" fill="#000000">5</text>
</g>
<!-- 70&#45;&gt;5 -->
<g id="edge9" class="edge">
<title>70&#45;&gt;5</title>
<path fill="none" stroke="#000000" d="M131,-266.0006C131,-253.8949 131,-237.8076 131,-224.0674"/>
<polygon fill="#000000" stroke="#000000" points="134.5001,-223.672 131,-213.672 127.5001,-223.6721 134.5001,-223.672"/>
<text text-anchor="middle" x="141.5" y="-235.8" font-family="Times,serif" font-size="14.00" fill="#000000">195</text>
</g>
<!-- 18 -->
<g id="node10" class="node">
<title>18</title>
<ellipse fill="none" stroke="#000000" cx="95" cy="-106.8" rx="27" ry="18"/>
<text text-anchor="middle" x="95" y="-102.6" font-family="Times,serif" font-size="14.00" fill="#000000">18</text>
</g>
<!-- 5&#45;&gt;18 -->
<g id="edge10" class="edge">
<title>5&#45;&gt;18</title>
<path fill="none" stroke="#000000" d="M123.8876,-178.056C118.7596,-165.4071 111.7433,-148.1002 105.9097,-133.7105"/>
<polygon fill="#000000" stroke="#000000" points="109.0984,-132.26 102.0977,-124.3076 102.6112,-134.89 109.0984,-132.26"/>
<text text-anchor="middle" x="126.5" y="-147" font-family="Times,serif" font-size="14.00" fill="#000000">197</text>
</g>
<!-- 48 -->
<g id="node12" class="node">
<title>48</title>
<ellipse fill="none" stroke="#000000" cx="167" cy="-106.8" rx="27" ry="18"/>
<text text-anchor="middle" x="167" y="-102.6" font-family="Times,serif" font-size="14.00" fill="#000000">48</text>
</g>
<!-- 5&#45;&gt;48 -->
<g id="edge11" class="edge">
<title>5&#45;&gt;48</title>
<path fill="none" stroke="#000000" d="M138.1124,-178.056C143.2404,-165.4071 150.2567,-148.1002 156.0903,-133.7105"/>
<polygon fill="#000000" stroke="#000000" points="159.3888,-134.89 159.9023,-124.3076 152.9016,-132.26 159.3888,-134.89"/>
<text text-anchor="middle" x="162.5" y="-147" font-family="Times,serif" font-size="14.00" fill="#000000">205</text>
</g>
<!-- 4 -->
<g id="node11" class="node">
<title>4</title>
<ellipse fill="none" stroke="#ff0000" cx="95" cy="-18" rx="27" ry="18"/>
<text text-anchor="middle" x="95" y="-13.8" font-family="Times,serif" font-size="14.00" fill="#000000">4</text>
</g>
<!-- 18&#45;&gt;4 -->
<g id="edge12" class="edge">
<title>18&#45;&gt;4</title>
<path fill="none" stroke="#000000" d="M95,-88.4006C95,-76.2949 95,-60.2076 95,-46.4674"/>
<polygon fill="#000000" stroke="#000000" points="98.5001,-46.072 95,-36.072 91.5001,-46.0721 98.5001,-46.072"/>
<text text-anchor="middle" x="105.5" y="-58.2" font-family="Times,serif" font-size="14.00" fill="#000000">193</text>
</g>
<!-- 3 -->
<g id="node13" class="node">
<title>3</title>
<ellipse fill="none" stroke="#ff0000" cx="167" cy="-18" rx="27" ry="18"/>
<text text-anchor="middle" x="167" y="-13.8" font-family="Times,serif" font-size="14.00" fill="#000000">3</text>
</g>
<!-- 48&#45;&gt;3 -->
<g id="edge13" class="edge">
<title>48&#45;&gt;3</title>
<path fill="none" stroke="#000000" d="M167,-88.4006C167,-76.2949 167,-60.2076 167,-46.4674"/>
<polygon fill="#000000" stroke="#000000" points="170.5001,-46.072 167,-36.072 163.5001,-46.0721 170.5001,-46.072"/>
<text text-anchor="middle" x="177.5" y="-58.2" font-family="Times,serif" font-size="14.00" fill="#000000">192</text>
</g>
<!-- 6 -->
<g id="node15" class="node">
<title>6</title>
<ellipse fill="none" stroke="#ff0000" cx="203" cy="-195.6" rx="27" ry="18"/>
<text text-anchor="middle" x="203" y="-191.4" font-family="Times,serif" font-size="14.00" fill="#000000">6</text>
</g>
<!-- 11&#45;&gt;6 -->
<g id="edge14" class="edge">
<title>11&#45;&gt;6</title>
<path fill="none" stroke="#000000" d="M203,-266.0006C203,-253.8949 203,-237.8076 203,-224.0674"/>
<polygon fill="#000000" stroke="#000000" points="206.5001,-223.672 203,-213.672 199.5001,-223.6721 206.5001,-223.672"/>
<text text-anchor="middle" x="213.5" y="-235.8" font-family="Times,serif" font-size="14.00" fill="#000000">200</text>
</g>
</g>
</svg>
