<svg width="600px" height="1681px"
 viewBox="0.00 0.00 206.00 576.80" xmlns="http://www.w3.org/2000/svg" xmlns:xlink="http://www.w3.org/1999/xlink">
<g id="graph0" class="graph" transform="scale(1.0 1.0) rotate(0) translate(4 572.8)">
<title>%0</title>
<polygon fill="#ffffff" stroke="transparent" points="-4,4 -4,-572.8 202,-572.8 202,4 -4,4"/>
<!-- 7 -->
<g id="node1" class="node">
<title>7</title>
<ellipse fill="none" stroke="#ff0000" cx="149" cy="-550.8" rx="27" ry="18"/>
<text text-anchor="middle" x="149" y="-546.6" font-family="Times,serif" font-size="14.00" fill="#000000">7</text>
</g>
<!-- 19 -->
<g id="node2" class="node">
<title>19</title>
<ellipse fill="none" stroke="#000000" cx="149" cy="-462" rx="27" ry="18"/>
<text text-anchor="middle" x="149" y="-457.8" font-family="Times,serif" font-size="14.00" fill="#000000">19</text>
</g>
<!-- 7&#45;&gt;19 -->
<g id="edge1" class="edge">
<title>7&#45;&gt;19</title>
<path fill="none" stroke="#000000" d="M149,-532.4006C149,-520.2949 149,-504.2076 149,-490.4674"/>
<polygon fill="#000000" stroke="#000000" points="152.5001,-490.072 149,-480.072 145.5001,-490.0721 152.5001,-490.072"/>
<text text-anchor="middle" x="159.5" y="-502.2" font-family="Times,serif" font-size="14.00" fill="#000000">201</text>
</g>
<!-- 8 -->
<g id="node3" class="node">
<title>8</title>
<ellipse fill="none" stroke="#ff0000" cx="149" cy="-373.2" rx="27" ry="18"/>
<text text-anchor="middle" x="149" y="-369" font-family="Times,serif" font-size="14.00" fill="#000000">8</text>
</g>
<!-- 19&#45;&gt;8 -->
<g id="edge2" class="edge">
<title>19&#45;&gt;8</title>
<path fill="none" stroke="#000000" d="M149,-443.6006C149,-431.4949 149,-415.4076 149,-401.6674"/>
<polygon fill="#000000" stroke="#000000" points="152.5001,-401.272 149,-391.272 145.5001,-401.2721 152.5001,-401.272"/>
<text text-anchor="middle" x="159.5" y="-413.4" font-family="Times,serif" font-size="14.00" fill="#000000">197</text>
</g>
<!-- 1 -->
<g id="node4" class="node">
<title>1</title>
<ellipse fill="none" stroke="#ff0000" cx="99" cy="-284.4" rx="27" ry="18"/>
<text text-anchor="middle" x="99" y="-280.2" font-family="Times,serif" font-size="14.00" fill="#000000">1</text>
</g>
<!-- 8&#45;&gt;1 -->
<g id="edge3" class="edge">
<title>8&#45;&gt;1</title>
<path fill="none" stroke="#000000" d="M139.3595,-356.0785C132.0966,-343.1795 122.0098,-325.2655 113.7373,-310.5734"/>
<polygon fill="#000000" stroke="#000000" points="116.5671,-308.4654 108.6109,-301.469 110.4675,-311.8999 116.5671,-308.4654"/>
<text text-anchor="middle" x="138.5" y="-324.6" font-family="Times,serif" font-size="14.00" fill="#000000">294</text>
</g>
<!-- 4 -->
<g id="node11" class="node">
<title>4</title>
<ellipse fill="none" stroke="#ff0000" cx="171" cy="-284.4" rx="27" ry="18"/>
<text text-anchor="middle" x="171" y="-280.2" font-family="Times,serif" font-size="14.00" fill="#000000">4</text>
</g>
<!-- 8&#45;&gt;4 -->
<g id="edge4" class="edge">
<title>8&#45;&gt;4</title>
<path fill="none" stroke="#000000" d="M153.452,-355.23C156.4936,-342.953 160.5854,-326.4372 164.0526,-312.4421"/>
<polygon fill="#000000" stroke="#000000" points="167.547,-312.8915 166.5546,-302.3433 160.7525,-311.2081 167.547,-312.8915"/>
<text text-anchor="middle" x="171.5" y="-324.6" font-family="Times,serif" font-size="14.00" fill="#000000">302</text>
</g>
<!-- 67 -->
<g id="node5" class="node">
<title>67</title>
<ellipse fill="none" stroke="#000000" cx="27" cy="-195.6" rx="27" ry="18"/>
<text text-anchor="middle" x="27" y="-191.4" font-family="Times,serif" font-size="14.00" fill="#000000">67</text>
</g>
<!-- 1&#45;&gt;67 -->
<g id="edge5" class="edge">
<title>1&#45;&gt;67</title>
<path fill="none" stroke="#000000" d="M86.1278,-268.5243C75.1384,-254.9707 59.1627,-235.2674 46.587,-219.7573"/>
<polygon fill="#000000" stroke="#000000" points="49.0202,-217.2009 40.0035,-211.6376 43.5829,-221.6095 49.0202,-217.2009"/>
<text text-anchor="middle" x="80.5" y="-235.8" font-family="Times,serif" font-size="14.00" fill="#000000">196</text>
</g>
<!-- 6 -->
<g id="node8" class="node">
<title>6</title>
<ellipse fill="none" stroke="#ff0000" cx="99" cy="-195.6" rx="27" ry="18"/>
<text text-anchor="middle" x="99" y="-191.4" font-family="Times,serif" font-size="14.00" fill="#000000">6</text>
</g>
<!-- 1&#45;&gt;6 -->
<g id="edge6" class="edge">
<title>1&#45;&gt;6</title>
<path fill="none" stroke="#000000" d="M99,-266.0006C99,-253.8949 99,-237.8076 99,-224.0674"/>
<polygon fill="#000000" stroke="#000000" points="102.5001,-223.672 99,-213.672 95.5001,-223.6721 102.5001,-223.672"/>
<text text-anchor="middle" x="109.5" y="-235.8" font-family="Times,serif" font-size="14.00" fill="#000000">307</text>
</g>
<!-- 45 -->
<g id="node9" class="node">
<title>45</title>
<ellipse fill="none" stroke="#000000" cx="171" cy="-195.6" rx="27" ry="18"/>
<text text-anchor="middle" x="171" y="-191.4" font-family="Times,serif" font-size="14.00" fill="#000000">45</text>
</g>
<!-- 1&#45;&gt;45 -->
<g id="edge7" class="edge">
<title>1&#45;&gt;45</title>
<path fill="none" stroke="#000000" d="M111.8722,-268.5243C122.8616,-254.9707 138.8373,-235.2674 151.413,-219.7573"/>
<polygon fill="#000000" stroke="#000000" points="154.4171,-221.6095 157.9965,-211.6376 148.9798,-217.2009 154.4171,-221.6095"/>
<text text-anchor="middle" x="151.5" y="-235.8" font-family="Times,serif" font-size="14.00" fill="#000000">198</text>
</g>
<!-- 2 -->
<g id="node6" class="node">
<title>2</title>
<ellipse fill="none" stroke="#ff0000" cx="27" cy="-106.8" rx="27" ry="18"/>
<text text-anchor="middle" x="27" y="-102.6" font-family="Times,serif" font-size="14.00" fill="#000000">2</text>
</g>
<!-- 67&#45;&gt;2 -->
<g id="edge8" class="edge">
<title>67&#45;&gt;2</title>
<path fill="none" stroke="#000000" d="M27,-177.2006C27,-165.0949 27,-149.0076 27,-135.2674"/>
<polygon fill="#000000" stroke="#000000" points="30.5001,-134.872 27,-124.872 23.5001,-134.8721 30.5001,-134.872"/>
<text text-anchor="middle" x="37.5" y="-147" font-family="Times,serif" font-size="14.00" fill="#000000">195</text>
</g>
<!-- 3 -->
<g id="node7" class="node">
<title>3</title>
<ellipse fill="none" stroke="#ff0000" cx="27" cy="-18" rx="27" ry="18"/>
<text text-anchor="middle" x="27" y="-13.8" font-family="Times,serif" font-size="14.00" fill="#000000">3</text>
</g>
<!-- 2&#45;&gt;3 -->
<g id="edge9" class="edge">
<title>2&#45;&gt;3</title>
<path fill="none" stroke="#000000" d="M27,-88.4006C27,-76.2949 27,-60.2076 27,-46.4674"/>
<polygon fill="#000000" stroke="#000000" points="30.5001,-46.072 27,-36.072 23.5001,-46.0721 30.5001,-46.072"/>
<text text-anchor="middle" x="37.5" y="-58.2" font-family="Times,serif" font-size="14.00" fill="#000000">305</text>
</g>
<!-- 5 -->
<g id="node10" class="node">
<title>5</title>
<ellipse fill="none" stroke="#ff0000" cx="171" cy="-106.8" rx="27" ry="18"/>
<text text-anchor="middle" x="171" y="-102.6" font-family="Times,serif" font-size="14.00" fill="#000000">5</text>
</g>
<!-- 45&#45;&gt;5 -->
<g id="edge10" class="edge">
<title>45&#45;&gt;5</title>
<path fill="none" stroke="#000000" d="M171,-177.2006C171,-165.0949 171,-149.0076 171,-135.2674"/>
<polygon fill="#000000" stroke="#000000" points="174.5001,-134.872 171,-124.872 167.5001,-134.8721 174.5001,-134.872"/>
<text text-anchor="middle" x="181.5" y="-147" font-family="Times,serif" font-size="14.00" fill="#000000">198</text>
</g>
</g>
</svg>
