<svg width="600px" height="861px"
 viewBox="0.00 0.00 278.00 399.20" xmlns="http://www.w3.org/2000/svg" xmlns:xlink="http://www.w3.org/1999/xlink">
<g id="graph0" class="graph" transform="scale(1.0 1.0) rotate(0) translate(4 395.2)">
<title>%0</title>
<polygon fill="#ffffff" stroke="transparent" points="-4,4 -4,-395.2 274,-395.2 274,4 -4,4"/>
<!-- 1 -->
<g id="node1" class="node">
<title>1</title>
<ellipse fill="none" stroke="#ff0000" cx="99" cy="-373.2" rx="27" ry="18"/>
<text text-anchor="middle" x="99" y="-369" font-family="Times,serif" font-size="14.00" fill="#000000">1</text>
</g>
<!-- 6 -->
<g id="node2" class="node">
<title>6</title>
<ellipse fill="none" stroke="#ff0000" cx="27" cy="-284.4" rx="27" ry="18"/>
<text text-anchor="middle" x="27" y="-280.2" font-family="Times,serif" font-size="14.00" fill="#000000">6</text>
</g>
<!-- 1&#45;&gt;6 -->
<g id="edge1" class="edge">
<title>1&#45;&gt;6</title>
<path fill="none" stroke="#000000" d="M86.1278,-357.3243C75.1384,-343.7707 59.1627,-324.0674 46.587,-308.5573"/>
<polygon fill="#000000" stroke="#000000" points="49.0202,-306.0009 40.0035,-300.4376 43.5829,-310.4095 49.0202,-306.0009"/>
<text text-anchor="middle" x="80.5" y="-324.6" font-family="Times,serif" font-size="14.00" fill="#000000">298</text>
</g>
<!-- 23 -->
<g id="node3" class="node">
<title>23</title>
<ellipse fill="none" stroke="#000000" cx="99" cy="-284.4" rx="27" ry="18"/>
<text text-anchor="middle" x="99" y="-280.2" font-family="Times,serif" font-size="14.00" fill="#000000">23</text>
</g>
<!-- 1&#45;&gt;23 -->
<g id="edge2" class="edge">
<title>1&#45;&gt;23</title>
<path fill="none" stroke="#000000" d="M99,-354.8006C99,-342.6949 99,-326.6076 99,-312.8674"/>
<polygon fill="#000000" stroke="#000000" points="102.5001,-312.472 99,-302.472 95.5001,-312.4721 102.5001,-312.472"/>
<text text-anchor="middle" x="109.5" y="-324.6" font-family="Times,serif" font-size="14.00" fill="#000000">197</text>
</g>
<!-- 74 -->
<g id="node9" class="node">
<title>74</title>
<ellipse fill="none" stroke="#000000" cx="171" cy="-284.4" rx="27" ry="18"/>
<text text-anchor="middle" x="171" y="-280.2" font-family="Times,serif" font-size="14.00" fill="#000000">74</text>
</g>
<!-- 1&#45;&gt;74 -->
<g id="edge3" class="edge">
<title>1&#45;&gt;74</title>
<path fill="none" stroke="#000000" d="M111.8722,-357.3243C122.8616,-343.7707 138.8373,-324.0674 151.413,-308.5573"/>
<polygon fill="#000000" stroke="#000000" points="154.4171,-310.4095 157.9965,-300.4376 148.9798,-306.0009 154.4171,-310.4095"/>
<text text-anchor="middle" x="151.5" y="-324.6" font-family="Times,serif" font-size="14.00" fill="#000000">196</text>
</g>
<!-- 2 -->
<g id="node4" class="node">
<title>2</title>
<ellipse fill="none" stroke="#ff0000" cx="99" cy="-195.6" rx="27" ry="18"/>
<text text-anchor="middle" x="99" y="-191.4" font-family="Times,serif" font-size="14.00" fill="#000000">2</text>
</g>
<!-- 23&#45;&gt;2 -->
<g id="edge4" class="edge">
<title>23&#45;&gt;2</title>
<path fill="none" stroke="#000000" d="M99,-266.0006C99,-253.8949 99,-237.8076 99,-224.0674"/>
<polygon fill="#000000" stroke="#000000" points="102.5001,-223.672 99,-213.672 95.5001,-223.6721 102.5001,-223.672"/>
<text text-anchor="middle" x="109.5" y="-235.8" font-family="Times,serif" font-size="14.00" fill="#000000">192</text>
</g>
<!-- 75 -->
<g id="node5" class="node">
<title>75</title>
<ellipse fill="none" stroke="#000000" cx="27" cy="-106.8" rx="27" ry="18"/>
<text text-anchor="middle" x="27" y="-102.6" font-family="Times,serif" font-size="14.00" fill="#000000">75</text>
</g>
<!-- 2&#45;&gt;75 -->
<g id="edge5" class="edge">
<title>2&#45;&gt;75</title>
<path fill="none" stroke="#000000" d="M86.1278,-179.7243C75.1384,-166.1707 59.1627,-146.4674 46.587,-130.9573"/>
<polygon fill="#000000" stroke="#000000" points="49.0202,-128.4009 40.0035,-122.8376 43.5829,-132.8095 49.0202,-128.4009"/>
<text text-anchor="middle" x="80.5" y="-147" font-family="Times,serif" font-size="14.00" fill="#000000">202</text>
</g>
<!-- 62 -->
<g id="node7" class="node">
<title>62</title>
<ellipse fill="none" stroke="#000000" cx="99" cy="-106.8" rx="27" ry="18"/>
<text text-anchor="middle" x="99" y="-102.6" font-family="Times,serif" font-size="14.00" fill="#000000">62</text>
</g>
<!-- 2&#45;&gt;62 -->
<g id="edge6" class="edge">
<title>2&#45;&gt;62</title>
<path fill="none" stroke="#000000" d="M99,-177.2006C99,-165.0949 99,-149.0076 99,-135.2674"/>
<polygon fill="#000000" stroke="#000000" points="102.5001,-134.872 99,-124.872 95.5001,-134.8721 102.5001,-134.872"/>
<text text-anchor="middle" x="109.5" y="-147" font-family="Times,serif" font-size="14.00" fill="#000000">193</text>
</g>
<!-- 8 -->
<g id="node6" class="node">
<title>8</title>
<ellipse fill="none" stroke="#ff0000" cx="27" cy="-18" rx="27" ry="18"/>
<text text-anchor="middle" x="27" y="-13.8" font-family="Times,serif" font-size="14.00" fill="#000000">8</text>
</g>
<!-- 75&#45;&gt;8 -->
<g id="edge7" class="edge">
<title>75&#45;&gt;8</title>
<path fill="none" stroke="#000000" d="M27,-88.4006C27,-76.2949 27,-60.2076 27,-46.4674"/>
<polygon fill="#000000" stroke="#000000" points="30.5001,-46.072 27,-36.072 23.5001,-46.0721 30.5001,-46.072"/>
<text text-anchor="middle" x="37.5" y="-58.2" font-family="Times,serif" font-size="14.00" fill="#000000">193</text>
</g>
<!-- 5 -->
<g id="node8" class="node">
<title>5</title>
<ellipse fill="none" stroke="#ff0000" cx="99" cy="-18" rx="27" ry="18"/>
<text text-anchor="middle" x="99" y="-13.8" font-family="Times,serif" font-size="14.00" fill="#000000">5</text>
</g>
<!-- 62&#45;&gt;5 -->
<g id="edge8" class="edge">
<title>62&#45;&gt;5</title>
<path fill="none" stroke="#000000" d="M99,-88.4006C99,-76.2949 99,-60.2076 99,-46.4674"/>
<polygon fill="#000000" stroke="#000000" points="102.5001,-46.072 99,-36.072 95.5001,-46.0721 102.5001,-46.072"/>
<text text-anchor="middle" x="109.5" y="-58.2" font-family="Times,serif" font-size="14.00" fill="#000000">195</text>
</g>
<!-- 7 -->
<g id="node10" class="node">
<title>7</title>
<ellipse fill="none" stroke="#ff0000" cx="171" cy="-195.6" rx="27" ry="18"/>
<text text-anchor="middle" x="171" y="-191.4" font-family="Times,serif" font-size="14.00" fill="#000000">7</text>
</g>
<!-- 74&#45;&gt;7 -->
<g id="edge9" class="edge">
<title>74&#45;&gt;7</title>
<path fill="none" stroke="#000000" d="M171,-266.0006C171,-253.8949 171,-237.8076 171,-224.0674"/>
<polygon fill="#000000" stroke="#000000" points="174.5001,-223.672 171,-213.672 167.5001,-223.6721 174.5001,-223.672"/>
<text text-anchor="middle" x="181.5" y="-235.8" font-family="Times,serif" font-size="14.00" fill="#000000">198</text>
</g>
<!-- 3 -->
<g id="node11" class="node">
<title>3</title>
<ellipse fill="none" stroke="#ff0000" cx="171" cy="-106.8" rx="27" ry="18"/>
<text text-anchor="middle" x="171" y="-102.6" font-family="Times,serif" font-size="14.00" fill="#000000">3</text>
</g>
<!-- 7&#45;&gt;3 -->
<g id="edge10" class="edge">
<title>7&#45;&gt;3</title>
<path fill="none" stroke="#000000" d="M171,-177.2006C171,-165.0949 171,-149.0076 171,-135.2674"/>
<polygon fill="#000000" stroke="#000000" points="174.5001,-134.872 171,-124.872 167.5001,-134.8721 174.5001,-134.872"/>
<text text-anchor="middle" x="181.5" y="-147" font-family="Times,serif" font-size="14.00" fill="#000000">302</text>
</g>
<!-- 24 -->
<g id="node12" class="node">
<title>24</title>
<ellipse fill="none" stroke="#000000" cx="243" cy="-106.8" rx="27" ry="18"/>
<text text-anchor="middle" x="243" y="-102.6" font-family="Times,serif" font-size="14.00" fill="#000000">24</text>
</g>
<!-- 7&#45;&gt;24 -->
<g id="edge11" class="edge">
<title>7&#45;&gt;24</title>
<path fill="none" stroke="#000000" d="M183.8722,-179.7243C194.8616,-166.1707 210.8373,-146.4674 223.413,-130.9573"/>
<polygon fill="#000000" stroke="#000000" points="226.4171,-132.8095 229.9965,-122.8376 220.9798,-128.4009 226.4171,-132.8095"/>
<text text-anchor="middle" x="223.5" y="-147" font-family="Times,serif" font-size="14.00" fill="#000000">196</text>
</g>
<!-- 4 -->
<g id="node13" class="node">
<title>4</title>
<ellipse fill="none" stroke="#ff0000" cx="243" cy="-18" rx="27" ry="18"/>
<text text-anchor="middle" x="243" y="-13.8" font-family="Times,serif" font-size="14.00" fill="#000000">4</text>
</g>
<!-- 24&#45;&gt;4 -->
<g id="edge12" class="edge">
<title>24&#45;&gt;4</title>
<path fill="none" stroke="#000000" d="M243,-88.4006C243,-76.2949 243,-60.2076 243,-46.4674"/>
<polygon fill="#000000" stroke="#000000" points="246.5001,-46.072 243,-36.072 239.5001,-46.0721 246.5001,-46.072"/>
<text text-anchor="middle" x="253.5" y="-58.2" font-family="Times,serif" font-size="14.00" fill="#000000">198</text>
</g>
</g>
</svg>
