<svg width="600px" height="1877px"
 viewBox="0.00 0.00 156.00 488.00" xmlns="http://www.w3.org/2000/svg" xmlns:xlink="http://www.w3.org/1999/xlink">
<g id="graph0" class="graph" transform="scale(1.0 1.0) rotate(0) translate(4 484)">
<title>%0</title>
<polygon fill="#ffffff" stroke="transparent" points="-4,4 -4,-484 152,-484 152,4 -4,4"/>
<!-- 1 -->
<g id="node1" class="node">
<title>1</title>
<ellipse fill="none" stroke="#ff0000" cx="56" cy="-462" rx="27" ry="18"/>
<text text-anchor="middle" x="56" y="-457.8" font-family="Times,serif" font-size="14.00" fill="#000000">1</text>
</g>
<!-- 4 -->
<g id="node2" class="node">
<title>4</title>
<ellipse fill="none" stroke="#ff0000" cx="27" cy="-373.2" rx="27" ry="18"/>
<text text-anchor="middle" x="27" y="-369" font-family="Times,serif" font-size="14.00" fill="#000000">4</text>
</g>
<!-- 1&#45;&gt;4 -->
<g id="edge1" class="edge">
<title>1&#45;&gt;4</title>
<path fill="none" stroke="#000000" d="M48.8304,-444.5427C46.5295,-438.6914 44.0486,-432.1031 42,-426 39.3135,-417.9964 36.69,-409.2089 34.4076,-401.1385"/>
<polygon fill="#000000" stroke="#000000" points="37.7571,-400.1191 31.7199,-391.4126 31.01,-401.9837 37.7571,-400.1191"/>
<text text-anchor="middle" x="52.5" y="-413.4" font-family="Times,serif" font-size="14.00" fill="#000000">296</text>
</g>
<!-- 5 -->
<g id="node3" class="node">
<title>5</title>
<ellipse fill="none" stroke="#ff0000" cx="99" cy="-373.2" rx="27" ry="18"/>
<text text-anchor="middle" x="99" y="-369" font-family="Times,serif" font-size="14.00" fill="#000000">5</text>
</g>
<!-- 1&#45;&gt;5 -->
<g id="edge2" class="edge">
<title>1&#45;&gt;5</title>
<path fill="none" stroke="#000000" d="M64.4954,-444.456C70.7195,-431.6025 79.2726,-413.9393 86.3059,-399.4148"/>
<polygon fill="#000000" stroke="#000000" points="89.4603,-400.9311 90.6685,-390.4054 83.1601,-397.8803 89.4603,-400.9311"/>
<text text-anchor="middle" x="91.5" y="-413.4" font-family="Times,serif" font-size="14.00" fill="#000000">293</text>
</g>
<!-- 8 -->
<g id="node4" class="node">
<title>8</title>
<ellipse fill="none" stroke="#ff0000" cx="99" cy="-284.4" rx="27" ry="18"/>
<text text-anchor="middle" x="99" y="-280.2" font-family="Times,serif" font-size="14.00" fill="#000000">8</text>
</g>
<!-- 5&#45;&gt;8 -->
<g id="edge3" class="edge">
<title>5&#45;&gt;8</title>
<path fill="none" stroke="#000000" d="M99,-354.8006C99,-342.6949 99,-326.6076 99,-312.8674"/>
<polygon fill="#000000" stroke="#000000" points="102.5001,-312.472 99,-302.472 95.5001,-312.4721 102.5001,-312.472"/>
<text text-anchor="middle" x="109.5" y="-324.6" font-family="Times,serif" font-size="14.00" fill="#000000">295</text>
</g>
<!-- 2 -->
<g id="node5" class="node">
<title>2</title>
<ellipse fill="none" stroke="#ff0000" cx="49" cy="-195.6" rx="27" ry="18"/>
<text text-anchor="middle" x="49" y="-191.4" font-family="Times,serif" font-size="14.00" fill="#000000">2</text>
</g>
<!-- 8&#45;&gt;2 -->
<g id="edge4" class="edge">
<title>8&#45;&gt;2</title>
<path fill="none" stroke="#000000" d="M89.3595,-267.2785C82.0966,-254.3795 72.0098,-236.4655 63.7373,-221.7734"/>
<polygon fill="#000000" stroke="#000000" points="66.5671,-219.6654 58.6109,-212.669 60.4675,-223.0999 66.5671,-219.6654"/>
<text text-anchor="middle" x="88.5" y="-235.8" font-family="Times,serif" font-size="14.00" fill="#000000">292</text>
</g>
<!-- 6 -->
<g id="node8" class="node">
<title>6</title>
<ellipse fill="none" stroke="#ff0000" cx="121" cy="-195.6" rx="27" ry="18"/>
<text text-anchor="middle" x="121" y="-191.4" font-family="Times,serif" font-size="14.00" fill="#000000">6</text>
</g>
<!-- 8&#45;&gt;6 -->
<g id="edge5" class="edge">
<title>8&#45;&gt;6</title>
<path fill="none" stroke="#000000" d="M103.452,-266.43C106.4936,-254.153 110.5854,-237.6372 114.0526,-223.6421"/>
<polygon fill="#000000" stroke="#000000" points="117.547,-224.0915 116.5546,-213.5433 110.7525,-222.4081 117.547,-224.0915"/>
<text text-anchor="middle" x="121.5" y="-235.8" font-family="Times,serif" font-size="14.00" fill="#000000">293</text>
</g>
<!-- 7 -->
<g id="node6" class="node">
<title>7</title>
<ellipse fill="none" stroke="#ff0000" cx="49" cy="-106.8" rx="27" ry="18"/>
<text text-anchor="middle" x="49" y="-102.6" font-family="Times,serif" font-size="14.00" fill="#000000">7</text>
</g>
<!-- 2&#45;&gt;7 -->
<g id="edge6" class="edge">
<title>2&#45;&gt;7</title>
<path fill="none" stroke="#000000" d="M49,-177.2006C49,-165.0949 49,-149.0076 49,-135.2674"/>
<polygon fill="#000000" stroke="#000000" points="52.5001,-134.872 49,-124.872 45.5001,-134.8721 52.5001,-134.872"/>
<text text-anchor="middle" x="59.5" y="-147" font-family="Times,serif" font-size="14.00" fill="#000000">295</text>
</g>
<!-- 3 -->
<g id="node7" class="node">
<title>3</title>
<ellipse fill="none" stroke="#ff0000" cx="49" cy="-18" rx="27" ry="18"/>
<text text-anchor="middle" x="49" y="-13.8" font-family="Times,serif" font-size="14.00" fill="#000000">3</text>
</g>
<!-- 7&#45;&gt;3 -->
<g id="edge7" class="edge">
<title>7&#45;&gt;3</title>
<path fill="none" stroke="#000000" d="M49,-88.4006C49,-76.2949 49,-60.2076 49,-46.4674"/>
<polygon fill="#000000" stroke="#000000" points="52.5001,-46.072 49,-36.072 45.5001,-46.0721 52.5001,-46.072"/>
<text text-anchor="middle" x="59.5" y="-58.2" font-family="Times,serif" font-size="14.00" fill="#000000">297</text>
</g>
</g>
</svg>
