<svg width="600px" height="1245px"
 viewBox="0.00 0.00 278.00 576.80" xmlns="http://www.w3.org/2000/svg" xmlns:xlink="http://www.w3.org/1999/xlink">
<g id="graph0" class="graph" transform="scale(1.0 1.0) rotate(0) translate(4 572.8)">
<title>%0</title>
<polygon fill="#ffffff" stroke="transparent" points="-4,4 -4,-572.8 274,-572.8 274,4 -4,4"/>
<!-- 1 -->
<g id="node1" class="node">
<title>1</title>
<ellipse fill="none" stroke="#ff0000" cx="99" cy="-550.8" rx="27" ry="18"/>
<text text-anchor="middle" x="99" y="-546.6" font-family="Times,serif" font-size="14.00" fill="#000000">1</text>
</g>
<!-- 70 -->
<g id="node2" class="node">
<title>70</title>
<ellipse fill="none" stroke="#000000" cx="27" cy="-462" rx="27" ry="18"/>
<text text-anchor="middle" x="27" y="-457.8" font-family="Times,serif" font-size="14.00" fill="#000000">70</text>
</g>
<!-- 1&#45;&gt;70 -->
<g id="edge1" class="edge">
<title>1&#45;&gt;70</title>
<path fill="none" stroke="#000000" d="M86.1278,-534.9243C75.1384,-521.3707 59.1627,-501.6674 46.587,-486.1573"/>
<polygon fill="#000000" stroke="#000000" points="49.0202,-483.6009 40.0035,-478.0376 43.5829,-488.0095 49.0202,-483.6009"/>
<text text-anchor="middle" x="80.5" y="-502.2" font-family="Times,serif" font-size="14.00" fill="#000000">195</text>
</g>
<!-- 71 -->
<g id="node4" class="node">
<title>71</title>
<ellipse fill="none" stroke="#000000" cx="99" cy="-462" rx="27" ry="18"/>
<text text-anchor="middle" x="99" y="-457.8" font-family="Times,serif" font-size="14.00" fill="#000000">71</text>
</g>
<!-- 1&#45;&gt;71 -->
<g id="edge2" class="edge">
<title>1&#45;&gt;71</title>
<path fill="none" stroke="#000000" d="M99,-532.4006C99,-520.2949 99,-504.2076 99,-490.4674"/>
<polygon fill="#000000" stroke="#000000" points="102.5001,-490.072 99,-480.072 95.5001,-490.0721 102.5001,-490.072"/>
<text text-anchor="middle" x="109.5" y="-502.2" font-family="Times,serif" font-size="14.00" fill="#000000">185</text>
</g>
<!-- 80 -->
<g id="node10" class="node">
<title>80</title>
<ellipse fill="none" stroke="#000000" cx="171" cy="-462" rx="27" ry="18"/>
<text text-anchor="middle" x="171" y="-457.8" font-family="Times,serif" font-size="14.00" fill="#000000">80</text>
</g>
<!-- 1&#45;&gt;80 -->
<g id="edge3" class="edge">
<title>1&#45;&gt;80</title>
<path fill="none" stroke="#000000" d="M111.8722,-534.9243C122.8616,-521.3707 138.8373,-501.6674 151.413,-486.1573"/>
<polygon fill="#000000" stroke="#000000" points="154.4171,-488.0095 157.9965,-478.0376 148.9798,-483.6009 154.4171,-488.0095"/>
<text text-anchor="middle" x="152.5" y="-502.2" font-family="Times,serif" font-size="14.00" fill="#000000">197</text>
</g>
<!-- 4 -->
<g id="node3" class="node">
<title>4</title>
<ellipse fill="none" stroke="#ff0000" cx="27" cy="-373.2" rx="27" ry="18"/>
<text text-anchor="middle" x="27" y="-369" font-family="Times,serif" font-size="14.00" fill="#000000">4</text>
</g>
<!-- 70&#45;&gt;4 -->
<g id="edge4" class="edge">
<title>70&#45;&gt;4</title>
<path fill="none" stroke="#000000" d="M27,-443.6006C27,-431.4949 27,-415.4076 27,-401.6674"/>
<polygon fill="#000000" stroke="#000000" points="30.5001,-401.272 27,-391.272 23.5001,-401.2721 30.5001,-401.272"/>
<text text-anchor="middle" x="37.5" y="-413.4" font-family="Times,serif" font-size="14.00" fill="#000000">191</text>
</g>
<!-- 6 -->
<g id="node5" class="node">
<title>6</title>
<ellipse fill="none" stroke="#ff0000" cx="99" cy="-373.2" rx="27" ry="18"/>
<text text-anchor="middle" x="99" y="-369" font-family="Times,serif" font-size="14.00" fill="#000000">6</text>
</g>
<!-- 71&#45;&gt;6 -->
<g id="edge5" class="edge">
<title>71&#45;&gt;6</title>
<path fill="none" stroke="#000000" d="M99,-443.6006C99,-431.4949 99,-415.4076 99,-401.6674"/>
<polygon fill="#000000" stroke="#000000" points="102.5001,-401.272 99,-391.272 95.5001,-401.2721 102.5001,-401.272"/>
<text text-anchor="middle" x="109.5" y="-413.4" font-family="Times,serif" font-size="14.00" fill="#000000">195</text>
</g>
<!-- 27 -->
<g id="node6" class="node">
<title>27</title>
<ellipse fill="none" stroke="#000000" cx="99" cy="-284.4" rx="27" ry="18"/>
<text text-anchor="middle" x="99" y="-280.2" font-family="Times,serif" font-size="14.00" fill="#000000">27</text>
</g>
<!-- 6&#45;&gt;27 -->
<g id="edge6" class="edge">
<title>6&#45;&gt;27</title>
<path fill="none" stroke="#000000" d="M99,-354.8006C99,-342.6949 99,-326.6076 99,-312.8674"/>
<polygon fill="#000000" stroke="#000000" points="102.5001,-312.472 99,-302.472 95.5001,-312.4721 102.5001,-312.472"/>
<text text-anchor="middle" x="109.5" y="-324.6" font-family="Times,serif" font-size="14.00" fill="#000000">195</text>
</g>
<!-- 7 -->
<g id="node7" class="node">
<title>7</title>
<ellipse fill="none" stroke="#ff0000" cx="99" cy="-195.6" rx="27" ry="18"/>
<text text-anchor="middle" x="99" y="-191.4" font-family="Times,serif" font-size="14.00" fill="#000000">7</text>
</g>
<!-- 27&#45;&gt;7 -->
<g id="edge7" class="edge">
<title>27&#45;&gt;7</title>
<path fill="none" stroke="#000000" d="M99,-266.0006C99,-253.8949 99,-237.8076 99,-224.0674"/>
<polygon fill="#000000" stroke="#000000" points="102.5001,-223.672 99,-213.672 95.5001,-223.6721 102.5001,-223.672"/>
<text text-anchor="middle" x="109.5" y="-235.8" font-family="Times,serif" font-size="14.00" fill="#000000">188</text>
</g>
<!-- 25 -->
<g id="node8" class="node">
<title>25</title>
<ellipse fill="none" stroke="#000000" cx="99" cy="-106.8" rx="27" ry="18"/>
<text text-anchor="middle" x="99" y="-102.6" font-family="Times,serif" font-size="14.00" fill="#000000">25</text>
</g>
<!-- 7&#45;&gt;25 -->
<g id="edge8" class="edge">
<title>7&#45;&gt;25</title>
<path fill="none" stroke="#000000" d="M99,-177.2006C99,-165.0949 99,-149.0076 99,-135.2674"/>
<polygon fill="#000000" stroke="#000000" points="102.5001,-134.872 99,-124.872 95.5001,-134.8721 102.5001,-134.872"/>
<text text-anchor="middle" x="109.5" y="-147" font-family="Times,serif" font-size="14.00" fill="#000000">190</text>
</g>
<!-- 8 -->
<g id="node9" class="node">
<title>8</title>
<ellipse fill="none" stroke="#ff0000" cx="99" cy="-18" rx="27" ry="18"/>
<text text-anchor="middle" x="99" y="-13.8" font-family="Times,serif" font-size="14.00" fill="#000000">8</text>
</g>
<!-- 25&#45;&gt;8 -->
<g id="edge9" class="edge">
<title>25&#45;&gt;8</title>
<path fill="none" stroke="#000000" d="M99,-88.4006C99,-76.2949 99,-60.2076 99,-46.4674"/>
<polygon fill="#000000" stroke="#000000" points="102.5001,-46.072 99,-36.072 95.5001,-46.0721 102.5001,-46.072"/>
<text text-anchor="middle" x="109.5" y="-58.2" font-family="Times,serif" font-size="14.00" fill="#000000">200</text>
</g>
<!-- 3 -->
<g id="node11" class="node">
<title>3</title>
<ellipse fill="none" stroke="#ff0000" cx="171" cy="-373.2" rx="27" ry="18"/>
<text text-anchor="middle" x="171" y="-369" font-family="Times,serif" font-size="14.00" fill="#000000">3</text>
</g>
<!-- 80&#45;&gt;3 -->
<g id="edge10" class="edge">
<title>80&#45;&gt;3</title>
<path fill="none" stroke="#000000" d="M171,-443.6006C171,-431.4949 171,-415.4076 171,-401.6674"/>
<polygon fill="#000000" stroke="#000000" points="174.5001,-401.272 171,-391.272 167.5001,-401.2721 174.5001,-401.272"/>
<text text-anchor="middle" x="181.5" y="-413.4" font-family="Times,serif" font-size="14.00" fill="#000000">196</text>
</g>
<!-- 5 -->
<g id="node13" class="node">
<title>5</title>
<ellipse fill="none" stroke="#ff0000" cx="243" cy="-373.2" rx="27" ry="18"/>
<text text-anchor="middle" x="243" y="-369" font-family="Times,serif" font-size="14.00" fill="#000000">5</text>
</g>
<!-- 80&#45;&gt;5 -->
<g id="edge11" class="edge">
<title>80&#45;&gt;5</title>
<path fill="none" stroke="#000000" d="M183.8722,-446.1243C194.8616,-432.5707 210.8373,-412.8674 223.413,-397.3573"/>
<polygon fill="#000000" stroke="#000000" points="226.4171,-399.2095 229.9965,-389.2376 220.9798,-394.8009 226.4171,-399.2095"/>
<text text-anchor="middle" x="223.5" y="-413.4" font-family="Times,serif" font-size="14.00" fill="#000000">197</text>
</g>
<!-- 2 -->
<g id="node12" class="node">
<title>2</title>
<ellipse fill="none" stroke="#ff0000" cx="171" cy="-284.4" rx="27" ry="18"/>
<text text-anchor="middle" x="171" y="-280.2" font-family="Times,serif" font-size="14.00" fill="#000000">2</text>
</g>
<!-- 3&#45;&gt;2 -->
<g id="edge12" class="edge">
<title>3&#45;&gt;2</title>
<path fill="none" stroke="#000000" d="M171,-354.8006C171,-342.6949 171,-326.6076 171,-312.8674"/>
<polygon fill="#000000" stroke="#000000" points="174.5001,-312.472 171,-302.472 167.5001,-312.4721 174.5001,-312.472"/>
<text text-anchor="middle" x="181.5" y="-324.6" font-family="Times,serif" font-size="14.00" fill="#000000">300</text>
</g>
</g>
</svg>
