<svg width="600px" height="1681px"
 viewBox="0.00 0.00 206.00 576.80" xmlns="http://www.w3.org/2000/svg" xmlns:xlink="http://www.w3.org/1999/xlink">
<g id="graph0" class="graph" transform="scale(1.0 1.0) rotate(0) translate(4 572.8)">
<title>%0</title>
<polygon fill="#ffffff" stroke="transparent" points="-4,4 -4,-572.8 202,-572.8 202,4 -4,4"/>
<!-- 3 -->
<g id="node1" class="node">
<title>3</title>
<ellipse fill="none" stroke="#ff0000" cx="135" cy="-550.8" rx="27" ry="18"/>
<text text-anchor="middle" x="135" y="-546.6" font-family="Times,serif" font-size="14.00" fill="#000000">3</text>
</g>
<!-- 19 -->
<g id="node2" class="node">
<title>19</title>
<ellipse fill="none" stroke="#000000" cx="99" cy="-462" rx="27" ry="18"/>
<text text-anchor="middle" x="99" y="-457.8" font-family="Times,serif" font-size="14.00" fill="#000000">19</text>
</g>
<!-- 3&#45;&gt;19 -->
<g id="edge1" class="edge">
<title>3&#45;&gt;19</title>
<path fill="none" stroke="#000000" d="M127.8876,-533.256C122.7596,-520.6071 115.7433,-503.3002 109.9097,-488.9105"/>
<polygon fill="#000000" stroke="#000000" points="113.0984,-487.46 106.0977,-479.5076 106.6112,-490.09 113.0984,-487.46"/>
<text text-anchor="middle" x="130.5" y="-502.2" font-family="Times,serif" font-size="14.00" fill="#000000">205</text>
</g>
<!-- 15 -->
<g id="node11" class="node">
<title>15</title>
<ellipse fill="none" stroke="#000000" cx="171" cy="-462" rx="27" ry="18"/>
<text text-anchor="middle" x="171" y="-457.8" font-family="Times,serif" font-size="14.00" fill="#000000">15</text>
</g>
<!-- 3&#45;&gt;15 -->
<g id="edge2" class="edge">
<title>3&#45;&gt;15</title>
<path fill="none" stroke="#000000" d="M142.1124,-533.256C147.2404,-520.6071 154.2567,-503.3002 160.0903,-488.9105"/>
<polygon fill="#000000" stroke="#000000" points="163.3888,-490.09 163.9023,-479.5076 156.9016,-487.46 163.3888,-490.09"/>
<text text-anchor="middle" x="166.5" y="-502.2" font-family="Times,serif" font-size="14.00" fill="#000000">193</text>
</g>
<!-- 1 -->
<g id="node3" class="node">
<title>1</title>
<ellipse fill="none" stroke="#ff0000" cx="27" cy="-373.2" rx="27" ry="18"/>
<text text-anchor="middle" x="27" y="-369" font-family="Times,serif" font-size="14.00" fill="#000000">1</text>
</g>
<!-- 19&#45;&gt;1 -->
<g id="edge3" class="edge">
<title>19&#45;&gt;1</title>
<path fill="none" stroke="#000000" d="M86.1278,-446.1243C75.1384,-432.5707 59.1627,-412.8674 46.587,-397.3573"/>
<polygon fill="#000000" stroke="#000000" points="49.0202,-394.8009 40.0035,-389.2376 43.5829,-399.2095 49.0202,-394.8009"/>
<text text-anchor="middle" x="80.5" y="-413.4" font-family="Times,serif" font-size="14.00" fill="#000000">198</text>
</g>
<!-- 6 -->
<g id="node8" class="node">
<title>6</title>
<ellipse fill="none" stroke="#ff0000" cx="99" cy="-373.2" rx="27" ry="18"/>
<text text-anchor="middle" x="99" y="-369" font-family="Times,serif" font-size="14.00" fill="#000000">6</text>
</g>
<!-- 19&#45;&gt;6 -->
<g id="edge4" class="edge">
<title>19&#45;&gt;6</title>
<path fill="none" stroke="#000000" d="M99,-443.6006C99,-431.4949 99,-415.4076 99,-401.6674"/>
<polygon fill="#000000" stroke="#000000" points="102.5001,-401.272 99,-391.272 95.5001,-401.2721 102.5001,-401.272"/>
<text text-anchor="middle" x="109.5" y="-413.4" font-family="Times,serif" font-size="14.00" fill="#000000">189</text>
</g>
<!-- 52 -->
<g id="node4" class="node">
<title>52</title>
<ellipse fill="none" stroke="#000000" cx="27" cy="-284.4" rx="27" ry="18"/>
<text text-anchor="middle" x="27" y="-280.2" font-family="Times,serif" font-size="14.00" fill="#000000">52</text>
</g>
<!-- 1&#45;&gt;52 -->
<g id="edge5" class="edge">
<title>1&#45;&gt;52</title>
<path fill="none" stroke="#000000" d="M27,-354.8006C27,-342.6949 27,-326.6076 27,-312.8674"/>
<polygon fill="#000000" stroke="#000000" points="30.5001,-312.472 27,-302.472 23.5001,-312.4721 30.5001,-312.472"/>
<text text-anchor="middle" x="37.5" y="-324.6" font-family="Times,serif" font-size="14.00" fill="#000000">197</text>
</g>
<!-- 8 -->
<g id="node5" class="node">
<title>8</title>
<ellipse fill="none" stroke="#ff0000" cx="27" cy="-195.6" rx="27" ry="18"/>
<text text-anchor="middle" x="27" y="-191.4" font-family="Times,serif" font-size="14.00" fill="#000000">8</text>
</g>
<!-- 52&#45;&gt;8 -->
<g id="edge6" class="edge">
<title>52&#45;&gt;8</title>
<path fill="none" stroke="#000000" d="M27,-266.0006C27,-253.8949 27,-237.8076 27,-224.0674"/>
<polygon fill="#000000" stroke="#000000" points="30.5001,-223.672 27,-213.672 23.5001,-223.6721 30.5001,-223.672"/>
<text text-anchor="middle" x="37.5" y="-235.8" font-family="Times,serif" font-size="14.00" fill="#000000">188</text>
</g>
<!-- 7 -->
<g id="node6" class="node">
<title>7</title>
<ellipse fill="none" stroke="#ff0000" cx="27" cy="-106.8" rx="27" ry="18"/>
<text text-anchor="middle" x="27" y="-102.6" font-family="Times,serif" font-size="14.00" fill="#000000">7</text>
</g>
<!-- 8&#45;&gt;7 -->
<g id="edge7" class="edge">
<title>8&#45;&gt;7</title>
<path fill="none" stroke="#000000" d="M27,-177.2006C27,-165.0949 27,-149.0076 27,-135.2674"/>
<polygon fill="#000000" stroke="#000000" points="30.5001,-134.872 27,-124.872 23.5001,-134.8721 30.5001,-134.872"/>
<text text-anchor="middle" x="37.5" y="-147" font-family="Times,serif" font-size="14.00" fill="#000000">292</text>
</g>
<!-- 4 -->
<g id="node7" class="node">
<title>4</title>
<ellipse fill="none" stroke="#ff0000" cx="27" cy="-18" rx="27" ry="18"/>
<text text-anchor="middle" x="27" y="-13.8" font-family="Times,serif" font-size="14.00" fill="#000000">4</text>
</g>
<!-- 7&#45;&gt;4 -->
<g id="edge8" class="edge">
<title>7&#45;&gt;4</title>
<path fill="none" stroke="#000000" d="M27,-88.4006C27,-76.2949 27,-60.2076 27,-46.4674"/>
<polygon fill="#000000" stroke="#000000" points="30.5001,-46.072 27,-36.072 23.5001,-46.0721 30.5001,-46.072"/>
<text text-anchor="middle" x="37.5" y="-58.2" font-family="Times,serif" font-size="14.00" fill="#000000">305</text>
</g>
<!-- 57 -->
<g id="node9" class="node">
<title>57</title>
<ellipse fill="none" stroke="#000000" cx="99" cy="-284.4" rx="27" ry="18"/>
<text text-anchor="middle" x="99" y="-280.2" font-family="Times,serif" font-size="14.00" fill="#000000">57</text>
</g>
<!-- 6&#45;&gt;57 -->
<g id="edge9" class="edge">
<title>6&#45;&gt;57</title>
<path fill="none" stroke="#000000" d="M99,-354.8006C99,-342.6949 99,-326.6076 99,-312.8674"/>
<polygon fill="#000000" stroke="#000000" points="102.5001,-312.472 99,-302.472 95.5001,-312.4721 102.5001,-312.472"/>
<text text-anchor="middle" x="109.5" y="-324.6" font-family="Times,serif" font-size="14.00" fill="#000000">195</text>
</g>
<!-- 5 -->
<g id="node10" class="node">
<title>5</title>
<ellipse fill="none" stroke="#ff0000" cx="99" cy="-195.6" rx="27" ry="18"/>
<text text-anchor="middle" x="99" y="-191.4" font-family="Times,serif" font-size="14.00" fill="#000000">5</text>
</g>
<!-- 57&#45;&gt;5 -->
<g id="edge10" class="edge">
<title>57&#45;&gt;5</title>
<path fill="none" stroke="#000000" d="M99,-266.0006C99,-253.8949 99,-237.8076 99,-224.0674"/>
<polygon fill="#000000" stroke="#000000" points="102.5001,-223.672 99,-213.672 95.5001,-223.6721 102.5001,-223.672"/>
<text text-anchor="middle" x="109.5" y="-235.8" font-family="Times,serif" font-size="14.00" fill="#000000">190</text>
</g>
<!-- 2 -->
<g id="node12" class="node">
<title>2</title>
<ellipse fill="none" stroke="#ff0000" cx="171" cy="-373.2" rx="27" ry="18"/>
<text text-anchor="middle" x="171" y="-369" font-family="Times,serif" font-size="14.00" fill="#000000">2</text>
</g>
<!-- 15&#45;&gt;2 -->
<g id="edge11" class="edge">
<title>15&#45;&gt;2</title>
<path fill="none" stroke="#000000" d="M171,-443.6006C171,-431.4949 171,-415.4076 171,-401.6674"/>
<polygon fill="#000000" stroke="#000000" points="174.5001,-401.272 171,-391.272 167.5001,-401.2721 174.5001,-401.272"/>
<text text-anchor="middle" x="181.5" y="-413.4" font-family="Times,serif" font-size="14.00" fill="#000000">189</text>
</g>
</g>
</svg>
