<svg width="600px" height="1940px"
 viewBox="0.00 0.00 206.00 665.60" xmlns="http://www.w3.org/2000/svg" xmlns:xlink="http://www.w3.org/1999/xlink">
<g id="graph0" class="graph" transform="scale(1.0 1.0) rotate(0) translate(4 661.6)">
<title>%0</title>
<polygon fill="#ffffff" stroke="transparent" points="-4,4 -4,-661.6 202,-661.6 202,4 -4,4"/>
<!-- 1 -->
<g id="node1" class="node">
<title>1</title>
<ellipse fill="none" stroke="#ff0000" cx="63" cy="-639.6" rx="27" ry="18"/>
<text text-anchor="middle" x="63" y="-635.4" font-family="Times,serif" font-size="14.00" fill="#000000">1</text>
</g>
<!-- 3 -->
<g id="node2" class="node">
<title>3</title>
<ellipse fill="none" stroke="#ff0000" cx="63" cy="-550.8" rx="27" ry="18"/>
<text text-anchor="middle" x="63" y="-546.6" font-family="Times,serif" font-size="14.00" fill="#000000">3</text>
</g>
<!-- 1&#45;&gt;3 -->
<g id="edge1" class="edge">
<title>1&#45;&gt;3</title>
<path fill="none" stroke="#000000" d="M63,-621.2006C63,-609.0949 63,-593.0076 63,-579.2674"/>
<polygon fill="#000000" stroke="#000000" points="66.5001,-578.872 63,-568.872 59.5001,-578.8721 66.5001,-578.872"/>
<text text-anchor="middle" x="73.5" y="-591" font-family="Times,serif" font-size="14.00" fill="#000000">301</text>
</g>
<!-- 79 -->
<g id="node3" class="node">
<title>79</title>
<ellipse fill="none" stroke="#000000" cx="63" cy="-462" rx="27" ry="18"/>
<text text-anchor="middle" x="63" y="-457.8" font-family="Times,serif" font-size="14.00" fill="#000000">79</text>
</g>
<!-- 3&#45;&gt;79 -->
<g id="edge2" class="edge">
<title>3&#45;&gt;79</title>
<path fill="none" stroke="#000000" d="M63,-532.4006C63,-520.2949 63,-504.2076 63,-490.4674"/>
<polygon fill="#000000" stroke="#000000" points="66.5001,-490.072 63,-480.072 59.5001,-490.0721 66.5001,-490.072"/>
<text text-anchor="middle" x="73.5" y="-502.2" font-family="Times,serif" font-size="14.00" fill="#000000">196</text>
</g>
<!-- 4 -->
<g id="node4" class="node">
<title>4</title>
<ellipse fill="none" stroke="#ff0000" cx="63" cy="-373.2" rx="27" ry="18"/>
<text text-anchor="middle" x="63" y="-369" font-family="Times,serif" font-size="14.00" fill="#000000">4</text>
</g>
<!-- 79&#45;&gt;4 -->
<g id="edge3" class="edge">
<title>79&#45;&gt;4</title>
<path fill="none" stroke="#000000" d="M63,-443.6006C63,-431.4949 63,-415.4076 63,-401.6674"/>
<polygon fill="#000000" stroke="#000000" points="66.5001,-401.272 63,-391.272 59.5001,-401.2721 66.5001,-401.272"/>
<text text-anchor="middle" x="73.5" y="-413.4" font-family="Times,serif" font-size="14.00" fill="#000000">193</text>
</g>
<!-- 80 -->
<g id="node5" class="node">
<title>80</title>
<ellipse fill="none" stroke="#000000" cx="63" cy="-284.4" rx="27" ry="18"/>
<text text-anchor="middle" x="63" y="-280.2" font-family="Times,serif" font-size="14.00" fill="#000000">80</text>
</g>
<!-- 4&#45;&gt;80 -->
<g id="edge4" class="edge">
<title>4&#45;&gt;80</title>
<path fill="none" stroke="#000000" d="M63,-354.8006C63,-342.6949 63,-326.6076 63,-312.8674"/>
<polygon fill="#000000" stroke="#000000" points="66.5001,-312.472 63,-302.472 59.5001,-312.4721 66.5001,-312.472"/>
<text text-anchor="middle" x="73.5" y="-324.6" font-family="Times,serif" font-size="14.00" fill="#000000">199</text>
</g>
<!-- 5 -->
<g id="node6" class="node">
<title>5</title>
<ellipse fill="none" stroke="#ff0000" cx="27" cy="-195.6" rx="27" ry="18"/>
<text text-anchor="middle" x="27" y="-191.4" font-family="Times,serif" font-size="14.00" fill="#000000">5</text>
</g>
<!-- 80&#45;&gt;5 -->
<g id="edge5" class="edge">
<title>80&#45;&gt;5</title>
<path fill="none" stroke="#000000" d="M55.8876,-266.856C50.7596,-254.2071 43.7433,-236.9002 37.9097,-222.5105"/>
<polygon fill="#000000" stroke="#000000" points="41.0984,-221.06 34.0977,-213.1076 34.6112,-223.69 41.0984,-221.06"/>
<text text-anchor="middle" x="59.5" y="-235.8" font-family="Times,serif" font-size="14.00" fill="#000000">192</text>
</g>
<!-- 6 -->
<g id="node8" class="node">
<title>6</title>
<ellipse fill="none" stroke="#ff0000" cx="99" cy="-195.6" rx="27" ry="18"/>
<text text-anchor="middle" x="99" y="-191.4" font-family="Times,serif" font-size="14.00" fill="#000000">6</text>
</g>
<!-- 80&#45;&gt;6 -->
<g id="edge6" class="edge">
<title>80&#45;&gt;6</title>
<path fill="none" stroke="#000000" d="M70.1124,-266.856C75.2404,-254.2071 82.2567,-236.9002 88.0903,-222.5105"/>
<polygon fill="#000000" stroke="#000000" points="91.3888,-223.69 91.9023,-213.1076 84.9016,-221.06 91.3888,-223.69"/>
<text text-anchor="middle" x="94.5" y="-235.8" font-family="Times,serif" font-size="14.00" fill="#000000">195</text>
</g>
<!-- 8 -->
<g id="node7" class="node">
<title>8</title>
<ellipse fill="none" stroke="#ff0000" cx="27" cy="-106.8" rx="27" ry="18"/>
<text text-anchor="middle" x="27" y="-102.6" font-family="Times,serif" font-size="14.00" fill="#000000">8</text>
</g>
<!-- 5&#45;&gt;8 -->
<g id="edge7" class="edge">
<title>5&#45;&gt;8</title>
<path fill="none" stroke="#000000" d="M27,-177.2006C27,-165.0949 27,-149.0076 27,-135.2674"/>
<polygon fill="#000000" stroke="#000000" points="30.5001,-134.872 27,-124.872 23.5001,-134.8721 30.5001,-134.872"/>
<text text-anchor="middle" x="37.5" y="-147" font-family="Times,serif" font-size="14.00" fill="#000000">300</text>
</g>
<!-- 53 -->
<g id="node9" class="node">
<title>53</title>
<ellipse fill="none" stroke="#000000" cx="99" cy="-106.8" rx="27" ry="18"/>
<text text-anchor="middle" x="99" y="-102.6" font-family="Times,serif" font-size="14.00" fill="#000000">53</text>
</g>
<!-- 6&#45;&gt;53 -->
<g id="edge8" class="edge">
<title>6&#45;&gt;53</title>
<path fill="none" stroke="#000000" d="M99,-177.2006C99,-165.0949 99,-149.0076 99,-135.2674"/>
<polygon fill="#000000" stroke="#000000" points="102.5001,-134.872 99,-124.872 95.5001,-134.8721 102.5001,-134.872"/>
<text text-anchor="middle" x="109.5" y="-147" font-family="Times,serif" font-size="14.00" fill="#000000">195</text>
</g>
<!-- 74 -->
<g id="node11" class="node">
<title>74</title>
<ellipse fill="none" stroke="#000000" cx="171" cy="-106.8" rx="27" ry="18"/>
<text text-anchor="middle" x="171" y="-102.6" font-family="Times,serif" font-size="14.00" fill="#000000">74</text>
</g>
<!-- 6&#45;&gt;74 -->
<g id="edge9" class="edge">
<title>6&#45;&gt;74</title>
<path fill="none" stroke="#000000" d="M111.8722,-179.7243C122.8616,-166.1707 138.8373,-146.4674 151.413,-130.9573"/>
<polygon fill="#000000" stroke="#000000" points="154.4171,-132.8095 157.9965,-122.8376 148.9798,-128.4009 154.4171,-132.8095"/>
<text text-anchor="middle" x="151.5" y="-147" font-family="Times,serif" font-size="14.00" fill="#000000">191</text>
</g>
<!-- 2 -->
<g id="node10" class="node">
<title>2</title>
<ellipse fill="none" stroke="#ff0000" cx="99" cy="-18" rx="27" ry="18"/>
<text text-anchor="middle" x="99" y="-13.8" font-family="Times,serif" font-size="14.00" fill="#000000">2</text>
</g>
<!-- 53&#45;&gt;2 -->
<g id="edge10" class="edge">
<title>53&#45;&gt;2</title>
<path fill="none" stroke="#000000" d="M99,-88.4006C99,-76.2949 99,-60.2076 99,-46.4674"/>
<polygon fill="#000000" stroke="#000000" points="102.5001,-46.072 99,-36.072 95.5001,-46.0721 102.5001,-46.072"/>
<text text-anchor="middle" x="109.5" y="-58.2" font-family="Times,serif" font-size="14.00" fill="#000000">199</text>
</g>
<!-- 7 -->
<g id="node12" class="node">
<title>7</title>
<ellipse fill="none" stroke="#ff0000" cx="171" cy="-18" rx="27" ry="18"/>
<text text-anchor="middle" x="171" y="-13.8" font-family="Times,serif" font-size="14.00" fill="#000000">7</text>
</g>
<!-- 74&#45;&gt;7 -->
<g id="edge11" class="edge">
<title>74&#45;&gt;7</title>
<path fill="none" stroke="#000000" d="M171,-88.4006C171,-76.2949 171,-60.2076 171,-46.4674"/>
<polygon fill="#000000" stroke="#000000" points="174.5001,-46.072 171,-36.072 167.5001,-46.0721 174.5001,-46.072"/>
<text text-anchor="middle" x="181.5" y="-58.2" font-family="Times,serif" font-size="14.00" fill="#000000">192</text>
</g>
</g>
</svg>
