<svg width="600px" height="1243px"
 viewBox="0.00 0.00 364.00 754.40" xmlns="http://www.w3.org/2000/svg" xmlns:xlink="http://www.w3.org/1999/xlink">
<g id="graph0" class="graph" transform="scale(1.0 1.0) rotate(0) translate(4 750.4)">
<title>%0</title>
<polygon fill="#ffffff" stroke="transparent" points="-4,4 -4,-750.4 360,-750.4 360,4 -4,4"/>
<!-- 14 -->
<g id="node1" class="node">
<title>14</title>
<ellipse fill="none" stroke="#ff0000" cx="173" cy="-728.4" rx="27" ry="18"/>
<text text-anchor="middle" x="173" y="-724.2" font-family="Times,serif" font-size="14.00" fill="#000000">14</text>
</g>
<!-- 41 -->
<g id="node2" class="node">
<title>41</title>
<ellipse fill="none" stroke="#000000" cx="173" cy="-639.6" rx="27" ry="18"/>
<text text-anchor="middle" x="173" y="-635.4" font-family="Times,serif" font-size="14.00" fill="#000000">41</text>
</g>
<!-- 14&#45;&gt;41 -->
<g id="edge1" class="edge">
<title>14&#45;&gt;41</title>
<path fill="none" stroke="#000000" d="M173,-710.0006C173,-697.8949 173,-681.8076 173,-668.0674"/>
<polygon fill="#000000" stroke="#000000" points="176.5001,-667.672 173,-657.672 169.5001,-667.6721 176.5001,-667.672"/>
<text text-anchor="middle" x="183.5" y="-679.8" font-family="Times,serif" font-size="14.00" fill="#000000">198</text>
</g>
<!-- 8 -->
<g id="node3" class="node">
<title>8</title>
<ellipse fill="none" stroke="#ff0000" cx="72" cy="-550.8" rx="27" ry="18"/>
<text text-anchor="middle" x="72" y="-546.6" font-family="Times,serif" font-size="14.00" fill="#000000">8</text>
</g>
<!-- 41&#45;&gt;8 -->
<g id="edge2" class="edge">
<title>41&#45;&gt;8</title>
<path fill="none" stroke="#000000" d="M155.7041,-625.3968C147.8023,-618.8373 138.3608,-610.9 130,-603.6 118.5566,-593.6086 106.0721,-582.2981 95.6271,-572.7157"/>
<polygon fill="#000000" stroke="#000000" points="97.8159,-569.9734 88.0883,-565.7752 93.0748,-575.1233 97.8159,-569.9734"/>
<text text-anchor="middle" x="140.5" y="-591" font-family="Times,serif" font-size="14.00" fill="#000000">195</text>
</g>
<!-- 9 -->
<g id="node7" class="node">
<title>9</title>
<ellipse fill="none" stroke="#ff0000" cx="144" cy="-550.8" rx="27" ry="18"/>
<text text-anchor="middle" x="144" y="-546.6" font-family="Times,serif" font-size="14.00" fill="#000000">9</text>
</g>
<!-- 41&#45;&gt;9 -->
<g id="edge3" class="edge">
<title>41&#45;&gt;9</title>
<path fill="none" stroke="#000000" d="M165.8304,-622.1427C163.5295,-616.2914 161.0486,-609.7031 159,-603.6 156.3135,-595.5964 153.69,-586.8089 151.4076,-578.7385"/>
<polygon fill="#000000" stroke="#000000" points="154.7571,-577.7191 148.7199,-569.0126 148.01,-579.5837 154.7571,-577.7191"/>
<text text-anchor="middle" x="169.5" y="-591" font-family="Times,serif" font-size="14.00" fill="#000000">199</text>
</g>
<!-- 12 -->
<g id="node8" class="node">
<title>12</title>
<ellipse fill="none" stroke="#ff0000" cx="216" cy="-550.8" rx="27" ry="18"/>
<text text-anchor="middle" x="216" y="-546.6" font-family="Times,serif" font-size="14.00" fill="#000000">12</text>
</g>
<!-- 41&#45;&gt;12 -->
<g id="edge4" class="edge">
<title>41&#45;&gt;12</title>
<path fill="none" stroke="#000000" d="M181.4954,-622.056C187.7195,-609.2025 196.2726,-591.5393 203.3059,-577.0148"/>
<polygon fill="#000000" stroke="#000000" points="206.4603,-578.5311 207.6685,-568.0054 200.1601,-575.4803 206.4603,-578.5311"/>
<text text-anchor="middle" x="209.5" y="-591" font-family="Times,serif" font-size="14.00" fill="#000000">193</text>
</g>
<!-- 16 -->
<g id="node20" class="node">
<title>16</title>
<ellipse fill="none" stroke="#ff0000" cx="288" cy="-550.8" rx="27" ry="18"/>
<text text-anchor="middle" x="288" y="-546.6" font-family="Times,serif" font-size="14.00" fill="#000000">16</text>
</g>
<!-- 41&#45;&gt;16 -->
<g id="edge5" class="edge">
<title>41&#45;&gt;16</title>
<path fill="none" stroke="#000000" d="M192.1364,-626.5982C201.8122,-619.8973 213.6642,-611.4938 224,-603.6 237.3937,-593.3708 251.9128,-581.463 263.7311,-571.5476"/>
<polygon fill="#000000" stroke="#000000" points="266.0495,-574.1709 271.4345,-565.0465 261.5349,-568.8213 266.0495,-574.1709"/>
<text text-anchor="middle" x="254.5" y="-591" font-family="Times,serif" font-size="14.00" fill="#000000">195</text>
</g>
<!-- 42 -->
<g id="node4" class="node">
<title>42</title>
<ellipse fill="none" stroke="#000000" cx="27" cy="-462" rx="27" ry="18"/>
<text text-anchor="middle" x="27" y="-457.8" font-family="Times,serif" font-size="14.00" fill="#000000">42</text>
</g>
<!-- 8&#45;&gt;42 -->
<g id="edge6" class="edge">
<title>8&#45;&gt;42</title>
<path fill="none" stroke="#000000" d="M63.3235,-533.6785C56.7869,-520.7795 47.7089,-502.8655 40.2635,-488.1734"/>
<polygon fill="#000000" stroke="#000000" points="43.2922,-486.4069 35.6498,-479.069 37.0481,-489.5711 43.2922,-486.4069"/>
<text text-anchor="middle" x="64.5" y="-502.2" font-family="Times,serif" font-size="14.00" fill="#000000">189</text>
</g>
<!-- 11 -->
<g id="node6" class="node">
<title>11</title>
<ellipse fill="none" stroke="#ff0000" cx="99" cy="-462" rx="27" ry="18"/>
<text text-anchor="middle" x="99" y="-457.8" font-family="Times,serif" font-size="14.00" fill="#000000">11</text>
</g>
<!-- 8&#45;&gt;11 -->
<g id="edge7" class="edge">
<title>8&#45;&gt;11</title>
<path fill="none" stroke="#000000" d="M77.4639,-532.83C81.2333,-520.4327 86.317,-503.713 90.5986,-489.6312"/>
<polygon fill="#000000" stroke="#000000" points="93.9838,-490.529 93.5443,-479.9433 87.2865,-488.4926 93.9838,-490.529"/>
<text text-anchor="middle" x="98.5" y="-502.2" font-family="Times,serif" font-size="14.00" fill="#000000">290</text>
</g>
<!-- 7 -->
<g id="node5" class="node">
<title>7</title>
<ellipse fill="none" stroke="#ff0000" cx="27" cy="-373.2" rx="27" ry="18"/>
<text text-anchor="middle" x="27" y="-369" font-family="Times,serif" font-size="14.00" fill="#000000">7</text>
</g>
<!-- 42&#45;&gt;7 -->
<g id="edge8" class="edge">
<title>42&#45;&gt;7</title>
<path fill="none" stroke="#000000" d="M27,-443.6006C27,-431.4949 27,-415.4076 27,-401.6674"/>
<polygon fill="#000000" stroke="#000000" points="30.5001,-401.272 27,-391.272 23.5001,-401.2721 30.5001,-401.272"/>
<text text-anchor="middle" x="37.5" y="-413.4" font-family="Times,serif" font-size="14.00" fill="#000000">206</text>
</g>
<!-- 2 -->
<g id="node9" class="node">
<title>2</title>
<ellipse fill="none" stroke="#ff0000" cx="185" cy="-462" rx="27" ry="18"/>
<text text-anchor="middle" x="185" y="-457.8" font-family="Times,serif" font-size="14.00" fill="#000000">2</text>
</g>
<!-- 12&#45;&gt;2 -->
<g id="edge9" class="edge">
<title>12&#45;&gt;2</title>
<path fill="none" stroke="#000000" d="M205.3413,-534.092C201.9473,-528.1815 198.4437,-521.3668 196,-514.8 193.061,-506.902 190.8289,-498.0314 189.1699,-489.8482"/>
<polygon fill="#000000" stroke="#000000" points="192.6064,-489.183 187.365,-479.9755 185.7205,-490.4419 192.6064,-489.183"/>
<text text-anchor="middle" x="206.5" y="-502.2" font-family="Times,serif" font-size="14.00" fill="#000000">295</text>
</g>
<!-- 5 -->
<g id="node17" class="node">
<title>5</title>
<ellipse fill="none" stroke="#ff0000" cx="257" cy="-462" rx="27" ry="18"/>
<text text-anchor="middle" x="257" y="-457.8" font-family="Times,serif" font-size="14.00" fill="#000000">5</text>
</g>
<!-- 12&#45;&gt;5 -->
<g id="edge10" class="edge">
<title>12&#45;&gt;5</title>
<path fill="none" stroke="#000000" d="M224.1003,-533.256C229.9783,-520.525 238.0351,-503.0753 244.7043,-488.6306"/>
<polygon fill="#000000" stroke="#000000" points="248.0418,-489.7516 249.0561,-479.2054 241.6865,-486.8172 248.0418,-489.7516"/>
<text text-anchor="middle" x="251.5" y="-502.2" font-family="Times,serif" font-size="14.00" fill="#000000">297</text>
</g>
<!-- 37 -->
<g id="node10" class="node">
<title>37</title>
<ellipse fill="none" stroke="#000000" cx="185" cy="-373.2" rx="27" ry="18"/>
<text text-anchor="middle" x="185" y="-369" font-family="Times,serif" font-size="14.00" fill="#000000">37</text>
</g>
<!-- 2&#45;&gt;37 -->
<g id="edge11" class="edge">
<title>2&#45;&gt;37</title>
<path fill="none" stroke="#000000" d="M185,-443.6006C185,-431.4949 185,-415.4076 185,-401.6674"/>
<polygon fill="#000000" stroke="#000000" points="188.5001,-401.272 185,-391.272 181.5001,-401.2721 188.5001,-401.272"/>
<text text-anchor="middle" x="195.5" y="-413.4" font-family="Times,serif" font-size="14.00" fill="#000000">197</text>
</g>
<!-- 4 -->
<g id="node11" class="node">
<title>4</title>
<ellipse fill="none" stroke="#ff0000" cx="156" cy="-284.4" rx="27" ry="18"/>
<text text-anchor="middle" x="156" y="-280.2" font-family="Times,serif" font-size="14.00" fill="#000000">4</text>
</g>
<!-- 37&#45;&gt;4 -->
<g id="edge12" class="edge">
<title>37&#45;&gt;4</title>
<path fill="none" stroke="#000000" d="M177.8304,-355.7427C175.5295,-349.8914 173.0486,-343.3031 171,-337.2 168.3135,-329.1964 165.69,-320.4089 163.4076,-312.3385"/>
<polygon fill="#000000" stroke="#000000" points="166.7571,-311.3191 160.7199,-302.6126 160.01,-313.1837 166.7571,-311.3191"/>
<text text-anchor="middle" x="181.5" y="-324.6" font-family="Times,serif" font-size="14.00" fill="#000000">202</text>
</g>
<!-- 6 -->
<g id="node12" class="node">
<title>6</title>
<ellipse fill="none" stroke="#ff0000" cx="228" cy="-284.4" rx="27" ry="18"/>
<text text-anchor="middle" x="228" y="-280.2" font-family="Times,serif" font-size="14.00" fill="#000000">6</text>
</g>
<!-- 37&#45;&gt;6 -->
<g id="edge13" class="edge">
<title>37&#45;&gt;6</title>
<path fill="none" stroke="#000000" d="M193.4954,-355.656C199.7195,-342.8025 208.2726,-325.1393 215.3059,-310.6148"/>
<polygon fill="#000000" stroke="#000000" points="218.4603,-312.1311 219.6685,-301.6054 212.1601,-309.0803 218.4603,-312.1311"/>
<text text-anchor="middle" x="221.5" y="-324.6" font-family="Times,serif" font-size="14.00" fill="#000000">199</text>
</g>
<!-- 57 -->
<g id="node13" class="node">
<title>57</title>
<ellipse fill="none" stroke="#000000" cx="228" cy="-195.6" rx="27" ry="18"/>
<text text-anchor="middle" x="228" y="-191.4" font-family="Times,serif" font-size="14.00" fill="#000000">57</text>
</g>
<!-- 6&#45;&gt;57 -->
<g id="edge14" class="edge">
<title>6&#45;&gt;57</title>
<path fill="none" stroke="#000000" d="M228,-266.0006C228,-253.8949 228,-237.8076 228,-224.0674"/>
<polygon fill="#000000" stroke="#000000" points="231.5001,-223.672 228,-213.672 224.5001,-223.6721 231.5001,-223.672"/>
<text text-anchor="middle" x="238.5" y="-235.8" font-family="Times,serif" font-size="14.00" fill="#000000">195</text>
</g>
<!-- 1 -->
<g id="node14" class="node">
<title>1</title>
<ellipse fill="none" stroke="#ff0000" cx="178" cy="-106.8" rx="27" ry="18"/>
<text text-anchor="middle" x="178" y="-102.6" font-family="Times,serif" font-size="14.00" fill="#000000">1</text>
</g>
<!-- 57&#45;&gt;1 -->
<g id="edge15" class="edge">
<title>57&#45;&gt;1</title>
<path fill="none" stroke="#000000" d="M218.3595,-178.4785C211.0966,-165.5795 201.0098,-147.6655 192.7373,-132.9734"/>
<polygon fill="#000000" stroke="#000000" points="195.5671,-130.8654 187.6109,-123.869 189.4675,-134.2999 195.5671,-130.8654"/>
<text text-anchor="middle" x="218.5" y="-147" font-family="Times,serif" font-size="14.00" fill="#000000">200</text>
</g>
<!-- 13 -->
<g id="node16" class="node">
<title>13</title>
<ellipse fill="none" stroke="#ff0000" cx="250" cy="-106.8" rx="27" ry="18"/>
<text text-anchor="middle" x="250" y="-102.6" font-family="Times,serif" font-size="14.00" fill="#000000">13</text>
</g>
<!-- 57&#45;&gt;13 -->
<g id="edge16" class="edge">
<title>57&#45;&gt;13</title>
<path fill="none" stroke="#000000" d="M232.452,-177.63C235.4936,-165.353 239.5854,-148.8372 243.0526,-134.8421"/>
<polygon fill="#000000" stroke="#000000" points="246.547,-135.2915 245.5546,-124.7433 239.7525,-133.6081 246.547,-135.2915"/>
<text text-anchor="middle" x="251.5" y="-147" font-family="Times,serif" font-size="14.00" fill="#000000">183</text>
</g>
<!-- 15 -->
<g id="node15" class="node">
<title>15</title>
<ellipse fill="none" stroke="#ff0000" cx="178" cy="-18" rx="27" ry="18"/>
<text text-anchor="middle" x="178" y="-13.8" font-family="Times,serif" font-size="14.00" fill="#000000">15</text>
</g>
<!-- 1&#45;&gt;15 -->
<g id="edge17" class="edge">
<title>1&#45;&gt;15</title>
<path fill="none" stroke="#000000" d="M178,-88.4006C178,-76.2949 178,-60.2076 178,-46.4674"/>
<polygon fill="#000000" stroke="#000000" points="181.5001,-46.072 178,-36.072 174.5001,-46.0721 181.5001,-46.072"/>
<text text-anchor="middle" x="188.5" y="-58.2" font-family="Times,serif" font-size="14.00" fill="#000000">297</text>
</g>
<!-- 3 -->
<g id="node18" class="node">
<title>3</title>
<ellipse fill="none" stroke="#ff0000" cx="257" cy="-373.2" rx="27" ry="18"/>
<text text-anchor="middle" x="257" y="-369" font-family="Times,serif" font-size="14.00" fill="#000000">3</text>
</g>
<!-- 5&#45;&gt;3 -->
<g id="edge18" class="edge">
<title>5&#45;&gt;3</title>
<path fill="none" stroke="#000000" d="M257,-443.6006C257,-431.4949 257,-415.4076 257,-401.6674"/>
<polygon fill="#000000" stroke="#000000" points="260.5001,-401.272 257,-391.272 253.5001,-401.2721 260.5001,-401.272"/>
<text text-anchor="middle" x="267.5" y="-413.4" font-family="Times,serif" font-size="14.00" fill="#000000">305</text>
</g>
<!-- 10 -->
<g id="node19" class="node">
<title>10</title>
<ellipse fill="none" stroke="#ff0000" cx="329" cy="-373.2" rx="27" ry="18"/>
<text text-anchor="middle" x="329" y="-369" font-family="Times,serif" font-size="14.00" fill="#000000">10</text>
</g>
<!-- 5&#45;&gt;10 -->
<g id="edge19" class="edge">
<title>5&#45;&gt;10</title>
<path fill="none" stroke="#000000" d="M269.8722,-446.1243C280.8616,-432.5707 296.8373,-412.8674 309.413,-397.3573"/>
<polygon fill="#000000" stroke="#000000" points="312.4171,-399.2095 315.9965,-389.2376 306.9798,-394.8009 312.4171,-399.2095"/>
<text text-anchor="middle" x="309.5" y="-413.4" font-family="Times,serif" font-size="14.00" fill="#000000">292</text>
</g>
</g>
</svg>
