<svg width="600px" height="2037px"
 viewBox="0.00 0.00 327.00 1109.60" xmlns="http://www.w3.org/2000/svg" xmlns:xlink="http://www.w3.org/1999/xlink">
<g id="graph0" class="graph" transform="scale(1.0 1.0) rotate(0) translate(4 1105.6)">
<title>%0</title>
<polygon fill="#ffffff" stroke="transparent" points="-4,4 -4,-1105.6 323,-1105.6 323,4 -4,4"/>
<!-- 12 -->
<g id="node1" class="node">
<title>12</title>
<ellipse fill="none" stroke="#ff0000" cx="56" cy="-1083.6" rx="27" ry="18"/>
<text text-anchor="middle" x="56" y="-1079.4" font-family="Times,serif" font-size="14.00" fill="#000000">12</text>
</g>
<!-- 80 -->
<g id="node2" class="node">
<title>80</title>
<ellipse fill="none" stroke="#000000" cx="56" cy="-994.8" rx="27" ry="18"/>
<text text-anchor="middle" x="56" y="-990.6" font-family="Times,serif" font-size="14.00" fill="#000000">80</text>
</g>
<!-- 12&#45;&gt;80 -->
<g id="edge1" class="edge">
<title>12&#45;&gt;80</title>
<path fill="none" stroke="#000000" d="M56,-1065.2006C56,-1053.0949 56,-1037.0076 56,-1023.2674"/>
<polygon fill="#000000" stroke="#000000" points="59.5001,-1022.872 56,-1012.872 52.5001,-1022.8721 59.5001,-1022.872"/>
<text text-anchor="middle" x="66.5" y="-1035" font-family="Times,serif" font-size="14.00" fill="#000000">198</text>
</g>
<!-- 2 -->
<g id="node3" class="node">
<title>2</title>
<ellipse fill="none" stroke="#ff0000" cx="27" cy="-906" rx="27" ry="18"/>
<text text-anchor="middle" x="27" y="-901.8" font-family="Times,serif" font-size="14.00" fill="#000000">2</text>
</g>
<!-- 80&#45;&gt;2 -->
<g id="edge2" class="edge">
<title>80&#45;&gt;2</title>
<path fill="none" stroke="#000000" d="M48.8304,-977.3427C46.5295,-971.4914 44.0486,-964.9031 42,-958.8 39.3135,-950.7964 36.69,-942.0089 34.4076,-933.9385"/>
<polygon fill="#000000" stroke="#000000" points="37.7571,-932.9191 31.7199,-924.2126 31.01,-934.7837 37.7571,-932.9191"/>
<text text-anchor="middle" x="52.5" y="-946.2" font-family="Times,serif" font-size="14.00" fill="#000000">198</text>
</g>
<!-- 7 -->
<g id="node4" class="node">
<title>7</title>
<ellipse fill="none" stroke="#ff0000" cx="99" cy="-906" rx="27" ry="18"/>
<text text-anchor="middle" x="99" y="-901.8" font-family="Times,serif" font-size="14.00" fill="#000000">7</text>
</g>
<!-- 80&#45;&gt;7 -->
<g id="edge3" class="edge">
<title>80&#45;&gt;7</title>
<path fill="none" stroke="#000000" d="M64.4954,-977.256C70.7195,-964.4025 79.2726,-946.7393 86.3059,-932.2148"/>
<polygon fill="#000000" stroke="#000000" points="89.4603,-933.7311 90.6685,-923.2054 83.1601,-930.6803 89.4603,-933.7311"/>
<text text-anchor="middle" x="92.5" y="-946.2" font-family="Times,serif" font-size="14.00" fill="#000000">200</text>
</g>
<!-- 3 -->
<g id="node5" class="node">
<title>3</title>
<ellipse fill="none" stroke="#ff0000" cx="70" cy="-817.2" rx="27" ry="18"/>
<text text-anchor="middle" x="70" y="-813" font-family="Times,serif" font-size="14.00" fill="#000000">3</text>
</g>
<!-- 7&#45;&gt;3 -->
<g id="edge4" class="edge">
<title>7&#45;&gt;3</title>
<path fill="none" stroke="#000000" d="M91.8304,-888.5427C89.5295,-882.6914 87.0486,-876.1031 85,-870 82.3135,-861.9964 79.69,-853.2089 77.4076,-845.1385"/>
<polygon fill="#000000" stroke="#000000" points="80.7571,-844.1191 74.7199,-835.4126 74.01,-845.9837 80.7571,-844.1191"/>
<text text-anchor="middle" x="95.5" y="-857.4" font-family="Times,serif" font-size="14.00" fill="#000000">295</text>
</g>
<!-- 70 -->
<g id="node6" class="node">
<title>70</title>
<ellipse fill="none" stroke="#000000" cx="142" cy="-817.2" rx="27" ry="18"/>
<text text-anchor="middle" x="142" y="-813" font-family="Times,serif" font-size="14.00" fill="#000000">70</text>
</g>
<!-- 7&#45;&gt;70 -->
<g id="edge5" class="edge">
<title>7&#45;&gt;70</title>
<path fill="none" stroke="#000000" d="M107.4954,-888.456C113.7195,-875.6025 122.2726,-857.9393 129.3059,-843.4148"/>
<polygon fill="#000000" stroke="#000000" points="132.4603,-844.9311 133.6685,-834.4054 126.1601,-841.8803 132.4603,-844.9311"/>
<text text-anchor="middle" x="135.5" y="-857.4" font-family="Times,serif" font-size="14.00" fill="#000000">194</text>
</g>
<!-- 6 -->
<g id="node7" class="node">
<title>6</title>
<ellipse fill="none" stroke="#ff0000" cx="142" cy="-728.4" rx="27" ry="18"/>
<text text-anchor="middle" x="142" y="-724.2" font-family="Times,serif" font-size="14.00" fill="#000000">6</text>
</g>
<!-- 70&#45;&gt;6 -->
<g id="edge6" class="edge">
<title>70&#45;&gt;6</title>
<path fill="none" stroke="#000000" d="M142,-798.8006C142,-786.6949 142,-770.6076 142,-756.8674"/>
<polygon fill="#000000" stroke="#000000" points="145.5001,-756.472 142,-746.472 138.5001,-756.4721 145.5001,-756.472"/>
<text text-anchor="middle" x="152.5" y="-768.6" font-family="Times,serif" font-size="14.00" fill="#000000">193</text>
</g>
<!-- 25 -->
<g id="node8" class="node">
<title>25</title>
<ellipse fill="none" stroke="#000000" cx="142" cy="-639.6" rx="27" ry="18"/>
<text text-anchor="middle" x="142" y="-635.4" font-family="Times,serif" font-size="14.00" fill="#000000">25</text>
</g>
<!-- 6&#45;&gt;25 -->
<g id="edge7" class="edge">
<title>6&#45;&gt;25</title>
<path fill="none" stroke="#000000" d="M142,-710.0006C142,-697.8949 142,-681.8076 142,-668.0674"/>
<polygon fill="#000000" stroke="#000000" points="145.5001,-667.672 142,-657.672 138.5001,-667.6721 145.5001,-667.672"/>
<text text-anchor="middle" x="152.5" y="-679.8" font-family="Times,serif" font-size="14.00" fill="#000000">198</text>
</g>
<!-- 9 -->
<g id="node9" class="node">
<title>9</title>
<ellipse fill="none" stroke="#ff0000" cx="113" cy="-550.8" rx="27" ry="18"/>
<text text-anchor="middle" x="113" y="-546.6" font-family="Times,serif" font-size="14.00" fill="#000000">9</text>
</g>
<!-- 25&#45;&gt;9 -->
<g id="edge8" class="edge">
<title>25&#45;&gt;9</title>
<path fill="none" stroke="#000000" d="M134.8304,-622.1427C132.5295,-616.2914 130.0486,-609.7031 128,-603.6 125.3135,-595.5964 122.69,-586.8089 120.4076,-578.7385"/>
<polygon fill="#000000" stroke="#000000" points="123.7571,-577.7191 117.7199,-569.0126 117.01,-579.5837 123.7571,-577.7191"/>
<text text-anchor="middle" x="138.5" y="-591" font-family="Times,serif" font-size="14.00" fill="#000000">202</text>
</g>
<!-- 14 -->
<g id="node10" class="node">
<title>14</title>
<ellipse fill="none" stroke="#ff0000" cx="185" cy="-550.8" rx="27" ry="18"/>
<text text-anchor="middle" x="185" y="-546.6" font-family="Times,serif" font-size="14.00" fill="#000000">14</text>
</g>
<!-- 25&#45;&gt;14 -->
<g id="edge9" class="edge">
<title>25&#45;&gt;14</title>
<path fill="none" stroke="#000000" d="M150.4954,-622.056C156.7195,-609.2025 165.2726,-591.5393 172.3059,-577.0148"/>
<polygon fill="#000000" stroke="#000000" points="175.4603,-578.5311 176.6685,-568.0054 169.1601,-575.4803 175.4603,-578.5311"/>
<text text-anchor="middle" x="178.5" y="-591" font-family="Times,serif" font-size="14.00" fill="#000000">190</text>
</g>
<!-- 1 -->
<g id="node11" class="node">
<title>1</title>
<ellipse fill="none" stroke="#ff0000" cx="145" cy="-462" rx="27" ry="18"/>
<text text-anchor="middle" x="145" y="-457.8" font-family="Times,serif" font-size="14.00" fill="#000000">1</text>
</g>
<!-- 14&#45;&gt;1 -->
<g id="edge10" class="edge">
<title>14&#45;&gt;1</title>
<path fill="none" stroke="#000000" d="M177.0973,-533.256C171.3996,-520.6071 163.6037,-503.3002 157.1219,-488.9105"/>
<polygon fill="#000000" stroke="#000000" points="160.1846,-487.1878 152.8863,-479.5076 153.8022,-490.0628 160.1846,-487.1878"/>
<text text-anchor="middle" x="179.5" y="-502.2" font-family="Times,serif" font-size="14.00" fill="#000000">291</text>
</g>
<!-- 16 -->
<g id="node13" class="node">
<title>16</title>
<ellipse fill="none" stroke="#ff0000" cx="217" cy="-462" rx="27" ry="18"/>
<text text-anchor="middle" x="217" y="-457.8" font-family="Times,serif" font-size="14.00" fill="#000000">16</text>
</g>
<!-- 14&#45;&gt;16 -->
<g id="edge11" class="edge">
<title>14&#45;&gt;16</title>
<path fill="none" stroke="#000000" d="M191.3222,-533.256C195.8365,-520.7287 201.9972,-503.6326 207.1526,-489.3264"/>
<polygon fill="#000000" stroke="#000000" points="210.5934,-490.102 210.691,-479.5076 204.008,-487.7288 210.5934,-490.102"/>
<text text-anchor="middle" x="214.5" y="-502.2" font-family="Times,serif" font-size="14.00" fill="#000000">292</text>
</g>
<!-- 13 -->
<g id="node12" class="node">
<title>13</title>
<ellipse fill="none" stroke="#ff0000" cx="145" cy="-373.2" rx="27" ry="18"/>
<text text-anchor="middle" x="145" y="-369" font-family="Times,serif" font-size="14.00" fill="#000000">13</text>
</g>
<!-- 1&#45;&gt;13 -->
<g id="edge12" class="edge">
<title>1&#45;&gt;13</title>
<path fill="none" stroke="#000000" d="M145,-443.6006C145,-431.4949 145,-415.4076 145,-401.6674"/>
<polygon fill="#000000" stroke="#000000" points="148.5001,-401.272 145,-391.272 141.5001,-401.2721 148.5001,-401.272"/>
<text text-anchor="middle" x="155.5" y="-413.4" font-family="Times,serif" font-size="14.00" fill="#000000">291</text>
</g>
<!-- 76 -->
<g id="node14" class="node">
<title>76</title>
<ellipse fill="none" stroke="#000000" cx="217" cy="-373.2" rx="27" ry="18"/>
<text text-anchor="middle" x="217" y="-369" font-family="Times,serif" font-size="14.00" fill="#000000">76</text>
</g>
<!-- 16&#45;&gt;76 -->
<g id="edge13" class="edge">
<title>16&#45;&gt;76</title>
<path fill="none" stroke="#000000" d="M217,-443.6006C217,-431.4949 217,-415.4076 217,-401.6674"/>
<polygon fill="#000000" stroke="#000000" points="220.5001,-401.272 217,-391.272 213.5001,-401.2721 220.5001,-401.272"/>
<text text-anchor="middle" x="227.5" y="-413.4" font-family="Times,serif" font-size="14.00" fill="#000000">196</text>
</g>
<!-- 10 -->
<g id="node15" class="node">
<title>10</title>
<ellipse fill="none" stroke="#ff0000" cx="188" cy="-284.4" rx="27" ry="18"/>
<text text-anchor="middle" x="188" y="-280.2" font-family="Times,serif" font-size="14.00" fill="#000000">10</text>
</g>
<!-- 76&#45;&gt;10 -->
<g id="edge14" class="edge">
<title>76&#45;&gt;10</title>
<path fill="none" stroke="#000000" d="M209.8304,-355.7427C207.5295,-349.8914 205.0486,-343.3031 203,-337.2 200.3135,-329.1964 197.69,-320.4089 195.4076,-312.3385"/>
<polygon fill="#000000" stroke="#000000" points="198.7571,-311.3191 192.7199,-302.6126 192.01,-313.1837 198.7571,-311.3191"/>
<text text-anchor="middle" x="213.5" y="-324.6" font-family="Times,serif" font-size="14.00" fill="#000000">197</text>
</g>
<!-- 15 -->
<g id="node16" class="node">
<title>15</title>
<ellipse fill="none" stroke="#ff0000" cx="260" cy="-284.4" rx="27" ry="18"/>
<text text-anchor="middle" x="260" y="-280.2" font-family="Times,serif" font-size="14.00" fill="#000000">15</text>
</g>
<!-- 76&#45;&gt;15 -->
<g id="edge15" class="edge">
<title>76&#45;&gt;15</title>
<path fill="none" stroke="#000000" d="M225.4954,-355.656C231.7195,-342.8025 240.2726,-325.1393 247.3059,-310.6148"/>
<polygon fill="#000000" stroke="#000000" points="250.4603,-312.1311 251.6685,-301.6054 244.1601,-309.0803 250.4603,-312.1311"/>
<text text-anchor="middle" x="252.5" y="-324.6" font-family="Times,serif" font-size="14.00" fill="#000000">192</text>
</g>
<!-- 21 -->
<g id="node17" class="node">
<title>21</title>
<ellipse fill="none" stroke="#000000" cx="220" cy="-195.6" rx="27" ry="18"/>
<text text-anchor="middle" x="220" y="-191.4" font-family="Times,serif" font-size="14.00" fill="#000000">21</text>
</g>
<!-- 15&#45;&gt;21 -->
<g id="edge16" class="edge">
<title>15&#45;&gt;21</title>
<path fill="none" stroke="#000000" d="M252.0973,-266.856C246.3996,-254.2071 238.6037,-236.9002 232.1219,-222.5105"/>
<polygon fill="#000000" stroke="#000000" points="235.1846,-220.7878 227.8863,-213.1076 228.8022,-223.6628 235.1846,-220.7878"/>
<text text-anchor="middle" x="253.5" y="-235.8" font-family="Times,serif" font-size="14.00" fill="#000000">191</text>
</g>
<!-- 8 -->
<g id="node19" class="node">
<title>8</title>
<ellipse fill="none" stroke="#ff0000" cx="292" cy="-195.6" rx="27" ry="18"/>
<text text-anchor="middle" x="292" y="-191.4" font-family="Times,serif" font-size="14.00" fill="#000000">8</text>
</g>
<!-- 15&#45;&gt;8 -->
<g id="edge17" class="edge">
<title>15&#45;&gt;8</title>
<path fill="none" stroke="#000000" d="M266.3222,-266.856C270.8365,-254.3287 276.9972,-237.2326 282.1526,-222.9264"/>
<polygon fill="#000000" stroke="#000000" points="285.5934,-223.702 285.691,-213.1076 279.008,-221.3288 285.5934,-223.702"/>
<text text-anchor="middle" x="288.5" y="-235.8" font-family="Times,serif" font-size="14.00" fill="#000000">294</text>
</g>
<!-- 11 -->
<g id="node18" class="node">
<title>11</title>
<ellipse fill="none" stroke="#ff0000" cx="220" cy="-106.8" rx="27" ry="18"/>
<text text-anchor="middle" x="220" y="-102.6" font-family="Times,serif" font-size="14.00" fill="#000000">11</text>
</g>
<!-- 21&#45;&gt;11 -->
<g id="edge18" class="edge">
<title>21&#45;&gt;11</title>
<path fill="none" stroke="#000000" d="M220,-177.2006C220,-165.0949 220,-149.0076 220,-135.2674"/>
<polygon fill="#000000" stroke="#000000" points="223.5001,-134.872 220,-124.872 216.5001,-134.8721 223.5001,-134.872"/>
<text text-anchor="middle" x="230.5" y="-147" font-family="Times,serif" font-size="14.00" fill="#000000">196</text>
</g>
<!-- 4 -->
<g id="node20" class="node">
<title>4</title>
<ellipse fill="none" stroke="#ff0000" cx="292" cy="-106.8" rx="27" ry="18"/>
<text text-anchor="middle" x="292" y="-102.6" font-family="Times,serif" font-size="14.00" fill="#000000">4</text>
</g>
<!-- 8&#45;&gt;4 -->
<g id="edge19" class="edge">
<title>8&#45;&gt;4</title>
<path fill="none" stroke="#000000" d="M292,-177.2006C292,-165.0949 292,-149.0076 292,-135.2674"/>
<polygon fill="#000000" stroke="#000000" points="295.5001,-134.872 292,-124.872 288.5001,-134.8721 295.5001,-134.872"/>
<text text-anchor="middle" x="302.5" y="-147" font-family="Times,serif" font-size="14.00" fill="#000000">296</text>
</g>
<!-- 5 -->
<g id="node21" class="node">
<title>5</title>
<ellipse fill="none" stroke="#ff0000" cx="292" cy="-18" rx="27" ry="18"/>
<text text-anchor="middle" x="292" y="-13.8" font-family="Times,serif" font-size="14.00" fill="#000000">5</text>
</g>
<!-- 4&#45;&gt;5 -->
<g id="edge20" class="edge">
<title>4&#45;&gt;5</title>
<path fill="none" stroke="#000000" d="M292,-88.4006C292,-76.2949 292,-60.2076 292,-46.4674"/>
<polygon fill="#000000" stroke="#000000" points="295.5001,-46.072 292,-36.072 288.5001,-46.0721 295.5001,-46.072"/>
<text text-anchor="middle" x="302.5" y="-58.2" font-family="Times,serif" font-size="14.00" fill="#000000">296</text>
</g>
</g>
</svg>
