<svg width="600px" height="1819px"
 viewBox="0.00 0.00 278.00 843.20" xmlns="http://www.w3.org/2000/svg" xmlns:xlink="http://www.w3.org/1999/xlink">
<g id="graph0" class="graph" transform="scale(1.0 1.0) rotate(0) translate(4 839.2)">
<title>%0</title>
<polygon fill="#ffffff" stroke="transparent" points="-4,4 -4,-839.2 274,-839.2 274,4 -4,4"/>
<!-- 5 -->
<g id="node1" class="node">
<title>5</title>
<ellipse fill="none" stroke="#ff0000" cx="99" cy="-817.2" rx="27" ry="18"/>
<text text-anchor="middle" x="99" y="-813" font-family="Times,serif" font-size="14.00" fill="#000000">5</text>
</g>
<!-- 30 -->
<g id="node2" class="node">
<title>30</title>
<ellipse fill="none" stroke="#000000" cx="99" cy="-728.4" rx="27" ry="18"/>
<text text-anchor="middle" x="99" y="-724.2" font-family="Times,serif" font-size="14.00" fill="#000000">30</text>
</g>
<!-- 5&#45;&gt;30 -->
<g id="edge1" class="edge">
<title>5&#45;&gt;30</title>
<path fill="none" stroke="#000000" d="M99,-798.8006C99,-786.6949 99,-770.6076 99,-756.8674"/>
<polygon fill="#000000" stroke="#000000" points="102.5001,-756.472 99,-746.472 95.5001,-756.4721 102.5001,-756.472"/>
<text text-anchor="middle" x="109.5" y="-768.6" font-family="Times,serif" font-size="14.00" fill="#000000">199</text>
</g>
<!-- 6 -->
<g id="node3" class="node">
<title>6</title>
<ellipse fill="none" stroke="#ff0000" cx="63" cy="-639.6" rx="27" ry="18"/>
<text text-anchor="middle" x="63" y="-635.4" font-family="Times,serif" font-size="14.00" fill="#000000">6</text>
</g>
<!-- 30&#45;&gt;6 -->
<g id="edge2" class="edge">
<title>30&#45;&gt;6</title>
<path fill="none" stroke="#000000" d="M91.8876,-710.856C86.7596,-698.2071 79.7433,-680.9002 73.9097,-666.5105"/>
<polygon fill="#000000" stroke="#000000" points="77.0984,-665.06 70.0977,-657.1076 70.6112,-667.69 77.0984,-665.06"/>
<text text-anchor="middle" x="95.5" y="-679.8" font-family="Times,serif" font-size="14.00" fill="#000000">200</text>
</g>
<!-- 8 -->
<g id="node9" class="node">
<title>8</title>
<ellipse fill="none" stroke="#ff0000" cx="135" cy="-639.6" rx="27" ry="18"/>
<text text-anchor="middle" x="135" y="-635.4" font-family="Times,serif" font-size="14.00" fill="#000000">8</text>
</g>
<!-- 30&#45;&gt;8 -->
<g id="edge3" class="edge">
<title>30&#45;&gt;8</title>
<path fill="none" stroke="#000000" d="M106.1124,-710.856C111.2404,-698.2071 118.2567,-680.9002 124.0903,-666.5105"/>
<polygon fill="#000000" stroke="#000000" points="127.3888,-667.69 127.9023,-657.1076 120.9016,-665.06 127.3888,-667.69"/>
<text text-anchor="middle" x="131.5" y="-679.8" font-family="Times,serif" font-size="14.00" fill="#000000">206</text>
</g>
<!-- 12 -->
<g id="node4" class="node">
<title>12</title>
<ellipse fill="none" stroke="#ff0000" cx="63" cy="-550.8" rx="27" ry="18"/>
<text text-anchor="middle" x="63" y="-546.6" font-family="Times,serif" font-size="14.00" fill="#000000">12</text>
</g>
<!-- 6&#45;&gt;12 -->
<g id="edge4" class="edge">
<title>6&#45;&gt;12</title>
<path fill="none" stroke="#000000" d="M63,-621.2006C63,-609.0949 63,-593.0076 63,-579.2674"/>
<polygon fill="#000000" stroke="#000000" points="66.5001,-578.872 63,-568.872 59.5001,-578.8721 66.5001,-578.872"/>
<text text-anchor="middle" x="73.5" y="-591" font-family="Times,serif" font-size="14.00" fill="#000000">295</text>
</g>
<!-- 48 -->
<g id="node5" class="node">
<title>48</title>
<ellipse fill="none" stroke="#000000" cx="27" cy="-462" rx="27" ry="18"/>
<text text-anchor="middle" x="27" y="-457.8" font-family="Times,serif" font-size="14.00" fill="#000000">48</text>
</g>
<!-- 12&#45;&gt;48 -->
<g id="edge5" class="edge">
<title>12&#45;&gt;48</title>
<path fill="none" stroke="#000000" d="M55.8876,-533.256C50.7596,-520.6071 43.7433,-503.3002 37.9097,-488.9105"/>
<polygon fill="#000000" stroke="#000000" points="41.0984,-487.46 34.0977,-479.5076 34.6112,-490.09 41.0984,-487.46"/>
<text text-anchor="middle" x="59.5" y="-502.2" font-family="Times,serif" font-size="14.00" fill="#000000">198</text>
</g>
<!-- 3 -->
<g id="node6" class="node">
<title>3</title>
<ellipse fill="none" stroke="#ff0000" cx="27" cy="-373.2" rx="27" ry="18"/>
<text text-anchor="middle" x="27" y="-369" font-family="Times,serif" font-size="14.00" fill="#000000">3</text>
</g>
<!-- 48&#45;&gt;3 -->
<g id="edge6" class="edge">
<title>48&#45;&gt;3</title>
<path fill="none" stroke="#000000" d="M27,-443.6006C27,-431.4949 27,-415.4076 27,-401.6674"/>
<polygon fill="#000000" stroke="#000000" points="30.5001,-401.272 27,-391.272 23.5001,-401.2721 30.5001,-401.272"/>
<text text-anchor="middle" x="37.5" y="-413.4" font-family="Times,serif" font-size="14.00" fill="#000000">191</text>
</g>
<!-- 49 -->
<g id="node7" class="node">
<title>49</title>
<ellipse fill="none" stroke="#000000" cx="27" cy="-284.4" rx="27" ry="18"/>
<text text-anchor="middle" x="27" y="-280.2" font-family="Times,serif" font-size="14.00" fill="#000000">49</text>
</g>
<!-- 3&#45;&gt;49 -->
<g id="edge7" class="edge">
<title>3&#45;&gt;49</title>
<path fill="none" stroke="#000000" d="M27,-354.8006C27,-342.6949 27,-326.6076 27,-312.8674"/>
<polygon fill="#000000" stroke="#000000" points="30.5001,-312.472 27,-302.472 23.5001,-312.4721 30.5001,-312.472"/>
<text text-anchor="middle" x="37.5" y="-324.6" font-family="Times,serif" font-size="14.00" fill="#000000">199</text>
</g>
<!-- 4 -->
<g id="node8" class="node">
<title>4</title>
<ellipse fill="none" stroke="#ff0000" cx="27" cy="-195.6" rx="27" ry="18"/>
<text text-anchor="middle" x="27" y="-191.4" font-family="Times,serif" font-size="14.00" fill="#000000">4</text>
</g>
<!-- 49&#45;&gt;4 -->
<g id="edge8" class="edge">
<title>49&#45;&gt;4</title>
<path fill="none" stroke="#000000" d="M27,-266.0006C27,-253.8949 27,-237.8076 27,-224.0674"/>
<polygon fill="#000000" stroke="#000000" points="30.5001,-223.672 27,-213.672 23.5001,-223.6721 30.5001,-223.672"/>
<text text-anchor="middle" x="37.5" y="-235.8" font-family="Times,serif" font-size="14.00" fill="#000000">191</text>
</g>
<!-- 47 -->
<g id="node10" class="node">
<title>47</title>
<ellipse fill="none" stroke="#000000" cx="139" cy="-550.8" rx="27" ry="18"/>
<text text-anchor="middle" x="139" y="-546.6" font-family="Times,serif" font-size="14.00" fill="#000000">47</text>
</g>
<!-- 8&#45;&gt;47 -->
<g id="edge9" class="edge">
<title>8&#45;&gt;47</title>
<path fill="none" stroke="#000000" d="M135.8288,-621.2006C136.3741,-609.0949 137.0988,-593.0076 137.7177,-579.2674"/>
<polygon fill="#000000" stroke="#000000" points="141.2323,-579.0194 138.1859,-568.872 134.2394,-578.7044 141.2323,-579.0194"/>
<text text-anchor="middle" x="148.5" y="-591" font-family="Times,serif" font-size="14.00" fill="#000000">198</text>
</g>
<!-- 2 -->
<g id="node11" class="node">
<title>2</title>
<ellipse fill="none" stroke="#ff0000" cx="99" cy="-462" rx="27" ry="18"/>
<text text-anchor="middle" x="99" y="-457.8" font-family="Times,serif" font-size="14.00" fill="#000000">2</text>
</g>
<!-- 47&#45;&gt;2 -->
<g id="edge10" class="edge">
<title>47&#45;&gt;2</title>
<path fill="none" stroke="#000000" d="M131.0973,-533.256C125.3996,-520.6071 117.6037,-503.3002 111.1219,-488.9105"/>
<polygon fill="#000000" stroke="#000000" points="114.1846,-487.1878 106.8863,-479.5076 107.8022,-490.0628 114.1846,-487.1878"/>
<text text-anchor="middle" x="133.5" y="-502.2" font-family="Times,serif" font-size="14.00" fill="#000000">192</text>
</g>
<!-- 9 -->
<g id="node13" class="node">
<title>9</title>
<ellipse fill="none" stroke="#ff0000" cx="171" cy="-462" rx="27" ry="18"/>
<text text-anchor="middle" x="171" y="-457.8" font-family="Times,serif" font-size="14.00" fill="#000000">9</text>
</g>
<!-- 47&#45;&gt;9 -->
<g id="edge11" class="edge">
<title>47&#45;&gt;9</title>
<path fill="none" stroke="#000000" d="M145.3222,-533.256C149.8365,-520.7287 155.9972,-503.6326 161.1526,-489.3264"/>
<polygon fill="#000000" stroke="#000000" points="164.5934,-490.102 164.691,-479.5076 158.008,-487.7288 164.5934,-490.102"/>
<text text-anchor="middle" x="168.5" y="-502.2" font-family="Times,serif" font-size="14.00" fill="#000000">189</text>
</g>
<!-- 13 -->
<g id="node21" class="node">
<title>13</title>
<ellipse fill="none" stroke="#ff0000" cx="243" cy="-462" rx="27" ry="18"/>
<text text-anchor="middle" x="243" y="-457.8" font-family="Times,serif" font-size="14.00" fill="#000000">13</text>
</g>
<!-- 47&#45;&gt;13 -->
<g id="edge12" class="edge">
<title>47&#45;&gt;13</title>
<path fill="none" stroke="#000000" d="M156.2525,-536.9227C164.418,-530.2941 174.2705,-522.208 183,-514.8 195.0889,-504.5411 208.3397,-492.9211 219.3068,-483.1989"/>
<polygon fill="#000000" stroke="#000000" points="221.6918,-485.7617 226.8396,-476.5016 217.0406,-480.5304 221.6918,-485.7617"/>
<text text-anchor="middle" x="211.5" y="-502.2" font-family="Times,serif" font-size="14.00" fill="#000000">198</text>
</g>
<!-- 7 -->
<g id="node12" class="node">
<title>7</title>
<ellipse fill="none" stroke="#ff0000" cx="99" cy="-373.2" rx="27" ry="18"/>
<text text-anchor="middle" x="99" y="-369" font-family="Times,serif" font-size="14.00" fill="#000000">7</text>
</g>
<!-- 2&#45;&gt;7 -->
<g id="edge13" class="edge">
<title>2&#45;&gt;7</title>
<path fill="none" stroke="#000000" d="M99,-443.6006C99,-431.4949 99,-415.4076 99,-401.6674"/>
<polygon fill="#000000" stroke="#000000" points="102.5001,-401.272 99,-391.272 95.5001,-401.2721 102.5001,-401.272"/>
<text text-anchor="middle" x="109.5" y="-413.4" font-family="Times,serif" font-size="14.00" fill="#000000">297</text>
</g>
<!-- 72 -->
<g id="node14" class="node">
<title>72</title>
<ellipse fill="none" stroke="#000000" cx="171" cy="-373.2" rx="27" ry="18"/>
<text text-anchor="middle" x="171" y="-369" font-family="Times,serif" font-size="14.00" fill="#000000">72</text>
</g>
<!-- 9&#45;&gt;72 -->
<g id="edge14" class="edge">
<title>9&#45;&gt;72</title>
<path fill="none" stroke="#000000" d="M171,-443.6006C171,-431.4949 171,-415.4076 171,-401.6674"/>
<polygon fill="#000000" stroke="#000000" points="174.5001,-401.272 171,-391.272 167.5001,-401.2721 174.5001,-401.272"/>
<text text-anchor="middle" x="181.5" y="-413.4" font-family="Times,serif" font-size="14.00" fill="#000000">194</text>
</g>
<!-- 10 -->
<g id="node15" class="node">
<title>10</title>
<ellipse fill="none" stroke="#ff0000" cx="121" cy="-284.4" rx="27" ry="18"/>
<text text-anchor="middle" x="121" y="-280.2" font-family="Times,serif" font-size="14.00" fill="#000000">10</text>
</g>
<!-- 72&#45;&gt;10 -->
<g id="edge15" class="edge">
<title>72&#45;&gt;10</title>
<path fill="none" stroke="#000000" d="M161.3595,-356.0785C154.0966,-343.1795 144.0098,-325.2655 135.7373,-310.5734"/>
<polygon fill="#000000" stroke="#000000" points="138.5671,-308.4654 130.6109,-301.469 132.4675,-311.8999 138.5671,-308.4654"/>
<text text-anchor="middle" x="161.5" y="-324.6" font-family="Times,serif" font-size="14.00" fill="#000000">205</text>
</g>
<!-- 15 -->
<g id="node20" class="node">
<title>15</title>
<ellipse fill="none" stroke="#ff0000" cx="193" cy="-284.4" rx="27" ry="18"/>
<text text-anchor="middle" x="193" y="-280.2" font-family="Times,serif" font-size="14.00" fill="#000000">15</text>
</g>
<!-- 72&#45;&gt;15 -->
<g id="edge16" class="edge">
<title>72&#45;&gt;15</title>
<path fill="none" stroke="#000000" d="M175.452,-355.23C178.4936,-342.953 182.5854,-326.4372 186.0526,-312.4421"/>
<polygon fill="#000000" stroke="#000000" points="189.547,-312.8915 188.5546,-302.3433 182.7525,-311.2081 189.547,-312.8915"/>
<text text-anchor="middle" x="193.5" y="-324.6" font-family="Times,serif" font-size="14.00" fill="#000000">194</text>
</g>
<!-- 14 -->
<g id="node16" class="node">
<title>14</title>
<ellipse fill="none" stroke="#ff0000" cx="121" cy="-195.6" rx="27" ry="18"/>
<text text-anchor="middle" x="121" y="-191.4" font-family="Times,serif" font-size="14.00" fill="#000000">14</text>
</g>
<!-- 10&#45;&gt;14 -->
<g id="edge17" class="edge">
<title>10&#45;&gt;14</title>
<path fill="none" stroke="#000000" d="M121,-266.0006C121,-253.8949 121,-237.8076 121,-224.0674"/>
<polygon fill="#000000" stroke="#000000" points="124.5001,-223.672 121,-213.672 117.5001,-223.6721 124.5001,-223.672"/>
<text text-anchor="middle" x="131.5" y="-235.8" font-family="Times,serif" font-size="14.00" fill="#000000">296</text>
</g>
<!-- 58 -->
<g id="node17" class="node">
<title>58</title>
<ellipse fill="none" stroke="#000000" cx="121" cy="-106.8" rx="27" ry="18"/>
<text text-anchor="middle" x="121" y="-102.6" font-family="Times,serif" font-size="14.00" fill="#000000">58</text>
</g>
<!-- 14&#45;&gt;58 -->
<g id="edge18" class="edge">
<title>14&#45;&gt;58</title>
<path fill="none" stroke="#000000" d="M121,-177.2006C121,-165.0949 121,-149.0076 121,-135.2674"/>
<polygon fill="#000000" stroke="#000000" points="124.5001,-134.872 121,-124.872 117.5001,-134.8721 124.5001,-134.872"/>
<text text-anchor="middle" x="131.5" y="-147" font-family="Times,serif" font-size="14.00" fill="#000000">206</text>
</g>
<!-- 11 -->
<g id="node18" class="node">
<title>11</title>
<ellipse fill="none" stroke="#ff0000" cx="85" cy="-18" rx="27" ry="18"/>
<text text-anchor="middle" x="85" y="-13.8" font-family="Times,serif" font-size="14.00" fill="#000000">11</text>
</g>
<!-- 58&#45;&gt;11 -->
<g id="edge19" class="edge">
<title>58&#45;&gt;11</title>
<path fill="none" stroke="#000000" d="M113.8876,-89.256C108.7596,-76.6071 101.7433,-59.3002 95.9097,-44.9105"/>
<polygon fill="#000000" stroke="#000000" points="99.0984,-43.46 92.0977,-35.5076 92.6112,-46.09 99.0984,-43.46"/>
<text text-anchor="middle" x="117.5" y="-58.2" font-family="Times,serif" font-size="14.00" fill="#000000">194</text>
</g>
<!-- 16 -->
<g id="node19" class="node">
<title>16</title>
<ellipse fill="none" stroke="#ff0000" cx="157" cy="-18" rx="27" ry="18"/>
<text text-anchor="middle" x="157" y="-13.8" font-family="Times,serif" font-size="14.00" fill="#000000">16</text>
</g>
<!-- 58&#45;&gt;16 -->
<g id="edge20" class="edge">
<title>58&#45;&gt;16</title>
<path fill="none" stroke="#000000" d="M128.1124,-89.256C133.2404,-76.6071 140.2567,-59.3002 146.0903,-44.9105"/>
<polygon fill="#000000" stroke="#000000" points="149.3888,-46.09 149.9023,-35.5076 142.9016,-43.46 149.3888,-46.09"/>
<text text-anchor="middle" x="153.5" y="-58.2" font-family="Times,serif" font-size="14.00" fill="#000000">196</text>
</g>
<!-- 1 -->
<g id="node22" class="node">
<title>1</title>
<ellipse fill="none" stroke="#ff0000" cx="243" cy="-373.2" rx="27" ry="18"/>
<text text-anchor="middle" x="243" y="-369" font-family="Times,serif" font-size="14.00" fill="#000000">1</text>
</g>
<!-- 13&#45;&gt;1 -->
<g id="edge21" class="edge">
<title>13&#45;&gt;1</title>
<path fill="none" stroke="#000000" d="M243,-443.6006C243,-431.4949 243,-415.4076 243,-401.6674"/>
<polygon fill="#000000" stroke="#000000" points="246.5001,-401.272 243,-391.272 239.5001,-401.2721 246.5001,-401.272"/>
<text text-anchor="middle" x="253.5" y="-413.4" font-family="Times,serif" font-size="14.00" fill="#000000">292</text>
</g>
</g>
</svg>
