<svg width="600px" height="1148px"
 viewBox="0.00 0.00 394.00 754.40" xmlns="http://www.w3.org/2000/svg" xmlns:xlink="http://www.w3.org/1999/xlink">
<g id="graph0" class="graph" transform="scale(1.0 1.0) rotate(0) translate(4 750.4)">
<title>%0</title>
<polygon fill="#ffffff" stroke="transparent" points="-4,4 -4,-750.4 390,-750.4 390,4 -4,4"/>
<!-- 10 -->
<g id="node1" class="node">
<title>10</title>
<ellipse fill="none" stroke="#ff0000" cx="251" cy="-728.4" rx="27" ry="18"/>
<text text-anchor="middle" x="251" y="-724.2" font-family="Times,serif" font-size="14.00" fill="#000000">10</text>
</g>
<!-- 72 -->
<g id="node2" class="node">
<title>72</title>
<ellipse fill="none" stroke="#000000" cx="251" cy="-639.6" rx="27" ry="18"/>
<text text-anchor="middle" x="251" y="-635.4" font-family="Times,serif" font-size="14.00" fill="#000000">72</text>
</g>
<!-- 10&#45;&gt;72 -->
<g id="edge1" class="edge">
<title>10&#45;&gt;72</title>
<path fill="none" stroke="#000000" d="M251,-710.0006C251,-697.8949 251,-681.8076 251,-668.0674"/>
<polygon fill="#000000" stroke="#000000" points="254.5001,-667.672 251,-657.672 247.5001,-667.6721 254.5001,-667.672"/>
<text text-anchor="middle" x="261.5" y="-679.8" font-family="Times,serif" font-size="14.00" fill="#000000">191</text>
</g>
<!-- 5 -->
<g id="node3" class="node">
<title>5</title>
<ellipse fill="none" stroke="#ff0000" cx="215" cy="-550.8" rx="27" ry="18"/>
<text text-anchor="middle" x="215" y="-546.6" font-family="Times,serif" font-size="14.00" fill="#000000">5</text>
</g>
<!-- 72&#45;&gt;5 -->
<g id="edge2" class="edge">
<title>72&#45;&gt;5</title>
<path fill="none" stroke="#000000" d="M243.8876,-622.056C238.7596,-609.4071 231.7433,-592.1002 225.9097,-577.7105"/>
<polygon fill="#000000" stroke="#000000" points="229.0984,-576.26 222.0977,-568.3076 222.6112,-578.89 229.0984,-576.26"/>
<text text-anchor="middle" x="246.5" y="-591" font-family="Times,serif" font-size="14.00" fill="#000000">192</text>
</g>
<!-- 16 -->
<g id="node20" class="node">
<title>16</title>
<ellipse fill="none" stroke="#ff0000" cx="287" cy="-550.8" rx="27" ry="18"/>
<text text-anchor="middle" x="287" y="-546.6" font-family="Times,serif" font-size="14.00" fill="#000000">16</text>
</g>
<!-- 72&#45;&gt;16 -->
<g id="edge3" class="edge">
<title>72&#45;&gt;16</title>
<path fill="none" stroke="#000000" d="M258.1124,-622.056C263.2404,-609.4071 270.2567,-592.1002 276.0903,-577.7105"/>
<polygon fill="#000000" stroke="#000000" points="279.3888,-578.89 279.9023,-568.3076 272.9016,-576.26 279.3888,-578.89"/>
<text text-anchor="middle" x="282.5" y="-591" font-family="Times,serif" font-size="14.00" fill="#000000">194</text>
</g>
<!-- 2 -->
<g id="node4" class="node">
<title>2</title>
<ellipse fill="none" stroke="#ff0000" cx="143" cy="-462" rx="27" ry="18"/>
<text text-anchor="middle" x="143" y="-457.8" font-family="Times,serif" font-size="14.00" fill="#000000">2</text>
</g>
<!-- 5&#45;&gt;2 -->
<g id="edge4" class="edge">
<title>5&#45;&gt;2</title>
<path fill="none" stroke="#000000" d="M202.1278,-534.9243C191.1384,-521.3707 175.1627,-501.6674 162.587,-486.1573"/>
<polygon fill="#000000" stroke="#000000" points="165.0202,-483.6009 156.0035,-478.0376 159.5829,-488.0095 165.0202,-483.6009"/>
<text text-anchor="middle" x="195.5" y="-502.2" font-family="Times,serif" font-size="14.00" fill="#000000">282</text>
</g>
<!-- 59 -->
<g id="node5" class="node">
<title>59</title>
<ellipse fill="none" stroke="#000000" cx="215" cy="-462" rx="27" ry="18"/>
<text text-anchor="middle" x="215" y="-457.8" font-family="Times,serif" font-size="14.00" fill="#000000">59</text>
</g>
<!-- 5&#45;&gt;59 -->
<g id="edge5" class="edge">
<title>5&#45;&gt;59</title>
<path fill="none" stroke="#000000" d="M215,-532.4006C215,-520.2949 215,-504.2076 215,-490.4674"/>
<polygon fill="#000000" stroke="#000000" points="218.5001,-490.072 215,-480.072 211.5001,-490.0721 218.5001,-490.072"/>
<text text-anchor="middle" x="225.5" y="-502.2" font-family="Times,serif" font-size="14.00" fill="#000000">202</text>
</g>
<!-- 1 -->
<g id="node6" class="node">
<title>1</title>
<ellipse fill="none" stroke="#ff0000" cx="71" cy="-373.2" rx="27" ry="18"/>
<text text-anchor="middle" x="71" y="-369" font-family="Times,serif" font-size="14.00" fill="#000000">1</text>
</g>
<!-- 59&#45;&gt;1 -->
<g id="edge6" class="edge">
<title>59&#45;&gt;1</title>
<path fill="none" stroke="#000000" d="M193.2444,-451.0687C179.9717,-444.2141 162.7736,-434.9982 148,-426 130.9185,-415.5962 112.4148,-402.9551 97.8283,-392.6504"/>
<polygon fill="#000000" stroke="#000000" points="99.476,-389.527 89.3001,-386.5772 95.4154,-395.229 99.476,-389.527"/>
<text text-anchor="middle" x="158.5" y="-413.4" font-family="Times,serif" font-size="14.00" fill="#000000">201</text>
</g>
<!-- 4 -->
<g id="node14" class="node">
<title>4</title>
<ellipse fill="none" stroke="#ff0000" cx="143" cy="-373.2" rx="27" ry="18"/>
<text text-anchor="middle" x="143" y="-369" font-family="Times,serif" font-size="14.00" fill="#000000">4</text>
</g>
<!-- 59&#45;&gt;4 -->
<g id="edge7" class="edge">
<title>59&#45;&gt;4</title>
<path fill="none" stroke="#000000" d="M202.1278,-446.1243C191.1384,-432.5707 175.1627,-412.8674 162.587,-397.3573"/>
<polygon fill="#000000" stroke="#000000" points="165.0202,-394.8009 156.0035,-389.2376 159.5829,-399.2095 165.0202,-394.8009"/>
<text text-anchor="middle" x="195.5" y="-413.4" font-family="Times,serif" font-size="14.00" fill="#000000">199</text>
</g>
<!-- 73 -->
<g id="node15" class="node">
<title>73</title>
<ellipse fill="none" stroke="#000000" cx="215" cy="-373.2" rx="27" ry="18"/>
<text text-anchor="middle" x="215" y="-369" font-family="Times,serif" font-size="14.00" fill="#000000">73</text>
</g>
<!-- 59&#45;&gt;73 -->
<g id="edge8" class="edge">
<title>59&#45;&gt;73</title>
<path fill="none" stroke="#000000" d="M215,-443.6006C215,-431.4949 215,-415.4076 215,-401.6674"/>
<polygon fill="#000000" stroke="#000000" points="218.5001,-401.272 215,-391.272 211.5001,-401.2721 218.5001,-401.272"/>
<text text-anchor="middle" x="222" y="-413.4" font-family="Times,serif" font-size="14.00" fill="#000000">87</text>
</g>
<!-- 14 -->
<g id="node18" class="node">
<title>14</title>
<ellipse fill="none" stroke="#ff0000" cx="287" cy="-373.2" rx="27" ry="18"/>
<text text-anchor="middle" x="287" y="-369" font-family="Times,serif" font-size="14.00" fill="#000000">14</text>
</g>
<!-- 59&#45;&gt;14 -->
<g id="edge9" class="edge">
<title>59&#45;&gt;14</title>
<path fill="none" stroke="#000000" d="M227.8722,-446.1243C238.8616,-432.5707 254.8373,-412.8674 267.413,-397.3573"/>
<polygon fill="#000000" stroke="#000000" points="270.4171,-399.2095 273.9965,-389.2376 264.9798,-394.8009 270.4171,-399.2095"/>
<text text-anchor="middle" x="267.5" y="-413.4" font-family="Times,serif" font-size="14.00" fill="#000000">195</text>
</g>
<!-- 15 -->
<g id="node19" class="node">
<title>15</title>
<ellipse fill="none" stroke="#ff0000" cx="359" cy="-373.2" rx="27" ry="18"/>
<text text-anchor="middle" x="359" y="-369" font-family="Times,serif" font-size="14.00" fill="#000000">15</text>
</g>
<!-- 59&#45;&gt;15 -->
<g id="edge10" class="edge">
<title>59&#45;&gt;15</title>
<path fill="none" stroke="#000000" d="M236.7556,-451.0687C250.0283,-444.2141 267.2264,-434.9982 282,-426 299.0815,-415.5962 317.5852,-402.9551 332.1717,-392.6504"/>
<polygon fill="#000000" stroke="#000000" points="334.5846,-395.229 340.6999,-386.5772 330.524,-389.527 334.5846,-395.229"/>
<text text-anchor="middle" x="317.5" y="-413.4" font-family="Times,serif" font-size="14.00" fill="#000000">203</text>
</g>
<!-- 36 -->
<g id="node7" class="node">
<title>36</title>
<ellipse fill="none" stroke="#000000" cx="27" cy="-284.4" rx="27" ry="18"/>
<text text-anchor="middle" x="27" y="-280.2" font-family="Times,serif" font-size="14.00" fill="#000000">36</text>
</g>
<!-- 1&#45;&gt;36 -->
<g id="edge11" class="edge">
<title>1&#45;&gt;36</title>
<path fill="none" stroke="#000000" d="M62.5164,-356.0785C56.1659,-343.2622 47.3624,-325.4949 40.109,-310.8563"/>
<polygon fill="#000000" stroke="#000000" points="43.1837,-309.1784 35.6077,-301.772 36.9115,-312.2863 43.1837,-309.1784"/>
<text text-anchor="middle" x="63.5" y="-324.6" font-family="Times,serif" font-size="14.00" fill="#000000">202</text>
</g>
<!-- 8 -->
<g id="node9" class="node">
<title>8</title>
<ellipse fill="none" stroke="#ff0000" cx="99" cy="-284.4" rx="27" ry="18"/>
<text text-anchor="middle" x="99" y="-280.2" font-family="Times,serif" font-size="14.00" fill="#000000">8</text>
</g>
<!-- 1&#45;&gt;8 -->
<g id="edge12" class="edge">
<title>1&#45;&gt;8</title>
<path fill="none" stroke="#000000" d="M76.6662,-355.23C80.601,-342.7511 85.9167,-325.8928 90.375,-311.7536"/>
<polygon fill="#000000" stroke="#000000" points="93.7685,-312.6299 93.4378,-302.0402 87.0925,-310.5248 93.7685,-312.6299"/>
<text text-anchor="middle" x="98.5" y="-324.6" font-family="Times,serif" font-size="14.00" fill="#000000">297</text>
</g>
<!-- 9 -->
<g id="node8" class="node">
<title>9</title>
<ellipse fill="none" stroke="#ff0000" cx="27" cy="-195.6" rx="27" ry="18"/>
<text text-anchor="middle" x="27" y="-191.4" font-family="Times,serif" font-size="14.00" fill="#000000">9</text>
</g>
<!-- 36&#45;&gt;9 -->
<g id="edge13" class="edge">
<title>36&#45;&gt;9</title>
<path fill="none" stroke="#000000" d="M27,-266.0006C27,-253.8949 27,-237.8076 27,-224.0674"/>
<polygon fill="#000000" stroke="#000000" points="30.5001,-223.672 27,-213.672 23.5001,-223.6721 30.5001,-223.672"/>
<text text-anchor="middle" x="37.5" y="-235.8" font-family="Times,serif" font-size="14.00" fill="#000000">199</text>
</g>
<!-- 64 -->
<g id="node10" class="node">
<title>64</title>
<ellipse fill="none" stroke="#000000" cx="99" cy="-195.6" rx="27" ry="18"/>
<text text-anchor="middle" x="99" y="-191.4" font-family="Times,serif" font-size="14.00" fill="#000000">64</text>
</g>
<!-- 8&#45;&gt;64 -->
<g id="edge14" class="edge">
<title>8&#45;&gt;64</title>
<path fill="none" stroke="#000000" d="M99,-266.0006C99,-253.8949 99,-237.8076 99,-224.0674"/>
<polygon fill="#000000" stroke="#000000" points="102.5001,-223.672 99,-213.672 95.5001,-223.6721 102.5001,-223.672"/>
<text text-anchor="middle" x="109.5" y="-235.8" font-family="Times,serif" font-size="14.00" fill="#000000">191</text>
</g>
<!-- 11 -->
<g id="node11" class="node">
<title>11</title>
<ellipse fill="none" stroke="#ff0000" cx="70" cy="-106.8" rx="27" ry="18"/>
<text text-anchor="middle" x="70" y="-102.6" font-family="Times,serif" font-size="14.00" fill="#000000">11</text>
</g>
<!-- 64&#45;&gt;11 -->
<g id="edge15" class="edge">
<title>64&#45;&gt;11</title>
<path fill="none" stroke="#000000" d="M91.8304,-178.1427C89.5295,-172.2914 87.0486,-165.7031 85,-159.6 82.3135,-151.5964 79.69,-142.8089 77.4076,-134.7385"/>
<polygon fill="#000000" stroke="#000000" points="80.7571,-133.7191 74.7199,-125.0126 74.01,-135.5837 80.7571,-133.7191"/>
<text text-anchor="middle" x="95.5" y="-147" font-family="Times,serif" font-size="14.00" fill="#000000">206</text>
</g>
<!-- 13 -->
<g id="node12" class="node">
<title>13</title>
<ellipse fill="none" stroke="#ff0000" cx="142" cy="-106.8" rx="27" ry="18"/>
<text text-anchor="middle" x="142" y="-102.6" font-family="Times,serif" font-size="14.00" fill="#000000">13</text>
</g>
<!-- 64&#45;&gt;13 -->
<g id="edge16" class="edge">
<title>64&#45;&gt;13</title>
<path fill="none" stroke="#000000" d="M107.4954,-178.056C113.7195,-165.2025 122.2726,-147.5393 129.3059,-133.0148"/>
<polygon fill="#000000" stroke="#000000" points="132.4603,-134.5311 133.6685,-124.0054 126.1601,-131.4803 132.4603,-134.5311"/>
<text text-anchor="middle" x="135.5" y="-147" font-family="Times,serif" font-size="14.00" fill="#000000">197</text>
</g>
<!-- 3 -->
<g id="node13" class="node">
<title>3</title>
<ellipse fill="none" stroke="#ff0000" cx="142" cy="-18" rx="27" ry="18"/>
<text text-anchor="middle" x="142" y="-13.8" font-family="Times,serif" font-size="14.00" fill="#000000">3</text>
</g>
<!-- 13&#45;&gt;3 -->
<g id="edge17" class="edge">
<title>13&#45;&gt;3</title>
<path fill="none" stroke="#000000" d="M142,-88.4006C142,-76.2949 142,-60.2076 142,-46.4674"/>
<polygon fill="#000000" stroke="#000000" points="145.5001,-46.072 142,-36.072 138.5001,-46.0721 145.5001,-46.072"/>
<text text-anchor="middle" x="152.5" y="-58.2" font-family="Times,serif" font-size="14.00" fill="#000000">302</text>
</g>
<!-- 6 -->
<g id="node16" class="node">
<title>6</title>
<ellipse fill="none" stroke="#ff0000" cx="200" cy="-284.4" rx="27" ry="18"/>
<text text-anchor="middle" x="200" y="-280.2" font-family="Times,serif" font-size="14.00" fill="#000000">6</text>
</g>
<!-- 73&#45;&gt;6 -->
<g id="edge18" class="edge">
<title>73&#45;&gt;6</title>
<path fill="none" stroke="#000000" d="M211.9645,-355.23C209.8907,-342.953 207.1009,-326.4372 204.7368,-312.4421"/>
<polygon fill="#000000" stroke="#000000" points="208.1477,-311.6206 203.031,-302.3433 201.2455,-312.7866 208.1477,-311.6206"/>
<text text-anchor="middle" x="218.5" y="-324.6" font-family="Times,serif" font-size="14.00" fill="#000000">199</text>
</g>
<!-- 7 -->
<g id="node17" class="node">
<title>7</title>
<ellipse fill="none" stroke="#ff0000" cx="272" cy="-284.4" rx="27" ry="18"/>
<text text-anchor="middle" x="272" y="-280.2" font-family="Times,serif" font-size="14.00" fill="#000000">7</text>
</g>
<!-- 73&#45;&gt;7 -->
<g id="edge19" class="edge">
<title>73&#45;&gt;7</title>
<path fill="none" stroke="#000000" d="M225.7213,-356.4974C234.1604,-343.3501 246.0624,-324.808 255.6829,-309.8203"/>
<polygon fill="#000000" stroke="#000000" points="258.8704,-311.3339 261.3268,-301.0277 252.9795,-307.5525 258.8704,-311.3339"/>
<text text-anchor="middle" x="258.5" y="-324.6" font-family="Times,serif" font-size="14.00" fill="#000000">191</text>
</g>
<!-- 12 -->
<g id="node21" class="node">
<title>12</title>
<ellipse fill="none" stroke="#ff0000" cx="287" cy="-462" rx="27" ry="18"/>
<text text-anchor="middle" x="287" y="-457.8" font-family="Times,serif" font-size="14.00" fill="#000000">12</text>
</g>
<!-- 16&#45;&gt;12 -->
<g id="edge20" class="edge">
<title>16&#45;&gt;12</title>
<path fill="none" stroke="#000000" d="M287,-532.4006C287,-520.2949 287,-504.2076 287,-490.4674"/>
<polygon fill="#000000" stroke="#000000" points="290.5001,-490.072 287,-480.072 283.5001,-490.0721 290.5001,-490.072"/>
<text text-anchor="middle" x="297.5" y="-502.2" font-family="Times,serif" font-size="14.00" fill="#000000">287</text>
</g>
</g>
</svg>
