<svg width="600px" height="1085px"
 viewBox="0.00 0.00 417.00 754.40" xmlns="http://www.w3.org/2000/svg" xmlns:xlink="http://www.w3.org/1999/xlink">
<g id="graph0" class="graph" transform="scale(1.0 1.0) rotate(0) translate(4 750.4)">
<title>%0</title>
<polygon fill="#ffffff" stroke="transparent" points="-4,4 -4,-750.4 413,-750.4 413,4 -4,4"/>
<!-- 12 -->
<g id="node1" class="node">
<title>12</title>
<ellipse fill="none" stroke="#ff0000" cx="166" cy="-728.4" rx="27" ry="18"/>
<text text-anchor="middle" x="166" y="-724.2" font-family="Times,serif" font-size="14.00" fill="#000000">12</text>
</g>
<!-- 41 -->
<g id="node2" class="node">
<title>41</title>
<ellipse fill="none" stroke="#000000" cx="166" cy="-639.6" rx="27" ry="18"/>
<text text-anchor="middle" x="166" y="-635.4" font-family="Times,serif" font-size="14.00" fill="#000000">41</text>
</g>
<!-- 12&#45;&gt;41 -->
<g id="edge1" class="edge">
<title>12&#45;&gt;41</title>
<path fill="none" stroke="#000000" d="M166,-710.0006C166,-697.8949 166,-681.8076 166,-668.0674"/>
<polygon fill="#000000" stroke="#000000" points="169.5001,-667.672 166,-657.672 162.5001,-667.6721 169.5001,-667.672"/>
<text text-anchor="middle" x="176.5" y="-679.8" font-family="Times,serif" font-size="14.00" fill="#000000">190</text>
</g>
<!-- 2 -->
<g id="node3" class="node">
<title>2</title>
<ellipse fill="none" stroke="#ff0000" cx="94" cy="-550.8" rx="27" ry="18"/>
<text text-anchor="middle" x="94" y="-546.6" font-family="Times,serif" font-size="14.00" fill="#000000">2</text>
</g>
<!-- 41&#45;&gt;2 -->
<g id="edge2" class="edge">
<title>41&#45;&gt;2</title>
<path fill="none" stroke="#000000" d="M153.1278,-623.7243C142.1384,-610.1707 126.1627,-590.4674 113.587,-574.9573"/>
<polygon fill="#000000" stroke="#000000" points="116.0202,-572.4009 107.0035,-566.8376 110.5829,-576.8095 116.0202,-572.4009"/>
<text text-anchor="middle" x="147.5" y="-591" font-family="Times,serif" font-size="14.00" fill="#000000">199</text>
</g>
<!-- 7 -->
<g id="node5" class="node">
<title>7</title>
<ellipse fill="none" stroke="#ff0000" cx="166" cy="-550.8" rx="27" ry="18"/>
<text text-anchor="middle" x="166" y="-546.6" font-family="Times,serif" font-size="14.00" fill="#000000">7</text>
</g>
<!-- 41&#45;&gt;7 -->
<g id="edge3" class="edge">
<title>41&#45;&gt;7</title>
<path fill="none" stroke="#000000" d="M166,-621.2006C166,-609.0949 166,-593.0076 166,-579.2674"/>
<polygon fill="#000000" stroke="#000000" points="169.5001,-578.872 166,-568.872 162.5001,-578.8721 169.5001,-578.872"/>
<text text-anchor="middle" x="176.5" y="-591" font-family="Times,serif" font-size="14.00" fill="#000000">196</text>
</g>
<!-- 9 -->
<g id="node6" class="node">
<title>9</title>
<ellipse fill="none" stroke="#ff0000" cx="238" cy="-550.8" rx="27" ry="18"/>
<text text-anchor="middle" x="238" y="-546.6" font-family="Times,serif" font-size="14.00" fill="#000000">9</text>
</g>
<!-- 41&#45;&gt;9 -->
<g id="edge4" class="edge">
<title>41&#45;&gt;9</title>
<path fill="none" stroke="#000000" d="M178.8722,-623.7243C189.8616,-610.1707 205.8373,-590.4674 218.413,-574.9573"/>
<polygon fill="#000000" stroke="#000000" points="221.4171,-576.8095 224.9965,-566.8376 215.9798,-572.4009 221.4171,-576.8095"/>
<text text-anchor="middle" x="219.5" y="-591" font-family="Times,serif" font-size="14.00" fill="#000000">200</text>
</g>
<!-- 5 -->
<g id="node4" class="node">
<title>5</title>
<ellipse fill="none" stroke="#ff0000" cx="94" cy="-462" rx="27" ry="18"/>
<text text-anchor="middle" x="94" y="-457.8" font-family="Times,serif" font-size="14.00" fill="#000000">5</text>
</g>
<!-- 2&#45;&gt;5 -->
<g id="edge5" class="edge">
<title>2&#45;&gt;5</title>
<path fill="none" stroke="#000000" d="M94,-532.4006C94,-520.2949 94,-504.2076 94,-490.4674"/>
<polygon fill="#000000" stroke="#000000" points="97.5001,-490.072 94,-480.072 90.5001,-490.0721 97.5001,-490.072"/>
<text text-anchor="middle" x="104.5" y="-502.2" font-family="Times,serif" font-size="14.00" fill="#000000">297</text>
</g>
<!-- 69 -->
<g id="node7" class="node">
<title>69</title>
<ellipse fill="none" stroke="#000000" cx="238" cy="-462" rx="27" ry="18"/>
<text text-anchor="middle" x="238" y="-457.8" font-family="Times,serif" font-size="14.00" fill="#000000">69</text>
</g>
<!-- 9&#45;&gt;69 -->
<g id="edge6" class="edge">
<title>9&#45;&gt;69</title>
<path fill="none" stroke="#000000" d="M238,-532.4006C238,-520.2949 238,-504.2076 238,-490.4674"/>
<polygon fill="#000000" stroke="#000000" points="241.5001,-490.072 238,-480.072 234.5001,-490.0721 241.5001,-490.072"/>
<text text-anchor="middle" x="248.5" y="-502.2" font-family="Times,serif" font-size="14.00" fill="#000000">205</text>
</g>
<!-- 1 -->
<g id="node8" class="node">
<title>1</title>
<ellipse fill="none" stroke="#ff0000" cx="148" cy="-373.2" rx="27" ry="18"/>
<text text-anchor="middle" x="148" y="-369" font-family="Times,serif" font-size="14.00" fill="#000000">1</text>
</g>
<!-- 69&#45;&gt;1 -->
<g id="edge7" class="edge">
<title>69&#45;&gt;1</title>
<path fill="none" stroke="#000000" d="M222.7327,-446.9363C208.5102,-432.9034 187.1153,-411.7938 170.857,-395.7522"/>
<polygon fill="#000000" stroke="#000000" points="172.9188,-392.8696 163.3422,-388.3376 168.0023,-397.8525 172.9188,-392.8696"/>
<text text-anchor="middle" x="212.5" y="-413.4" font-family="Times,serif" font-size="14.00" fill="#000000">204</text>
</g>
<!-- 3 -->
<g id="node15" class="node">
<title>3</title>
<ellipse fill="none" stroke="#ff0000" cx="238" cy="-373.2" rx="27" ry="18"/>
<text text-anchor="middle" x="238" y="-369" font-family="Times,serif" font-size="14.00" fill="#000000">3</text>
</g>
<!-- 69&#45;&gt;3 -->
<g id="edge8" class="edge">
<title>69&#45;&gt;3</title>
<path fill="none" stroke="#000000" d="M238,-443.6006C238,-431.4949 238,-415.4076 238,-401.6674"/>
<polygon fill="#000000" stroke="#000000" points="241.5001,-401.272 238,-391.272 234.5001,-401.2721 241.5001,-401.272"/>
<text text-anchor="middle" x="248.5" y="-413.4" font-family="Times,serif" font-size="14.00" fill="#000000">195</text>
</g>
<!-- 13 -->
<g id="node18" class="node">
<title>13</title>
<ellipse fill="none" stroke="#ff0000" cx="310" cy="-373.2" rx="27" ry="18"/>
<text text-anchor="middle" x="310" y="-369" font-family="Times,serif" font-size="14.00" fill="#000000">13</text>
</g>
<!-- 69&#45;&gt;13 -->
<g id="edge9" class="edge">
<title>69&#45;&gt;13</title>
<path fill="none" stroke="#000000" d="M250.8722,-446.1243C261.8616,-432.5707 277.8373,-412.8674 290.413,-397.3573"/>
<polygon fill="#000000" stroke="#000000" points="293.4171,-399.2095 296.9965,-389.2376 287.9798,-394.8009 293.4171,-399.2095"/>
<text text-anchor="middle" x="290.5" y="-413.4" font-family="Times,serif" font-size="14.00" fill="#000000">198</text>
</g>
<!-- 34 -->
<g id="node9" class="node">
<title>34</title>
<ellipse fill="none" stroke="#000000" cx="103" cy="-284.4" rx="27" ry="18"/>
<text text-anchor="middle" x="103" y="-280.2" font-family="Times,serif" font-size="14.00" fill="#000000">34</text>
</g>
<!-- 1&#45;&gt;34 -->
<g id="edge10" class="edge">
<title>1&#45;&gt;34</title>
<path fill="none" stroke="#000000" d="M139.3235,-356.0785C132.7869,-343.1795 123.7089,-325.2655 116.2635,-310.5734"/>
<polygon fill="#000000" stroke="#000000" points="119.2922,-308.8069 111.6498,-301.469 113.0481,-311.9711 119.2922,-308.8069"/>
<text text-anchor="middle" x="140.5" y="-324.6" font-family="Times,serif" font-size="14.00" fill="#000000">202</text>
</g>
<!-- 4 -->
<g id="node10" class="node">
<title>4</title>
<ellipse fill="none" stroke="#ff0000" cx="27" cy="-195.6" rx="27" ry="18"/>
<text text-anchor="middle" x="27" y="-191.4" font-family="Times,serif" font-size="14.00" fill="#000000">4</text>
</g>
<!-- 34&#45;&gt;4 -->
<g id="edge11" class="edge">
<title>34&#45;&gt;4</title>
<path fill="none" stroke="#000000" d="M89.4127,-268.5243C77.6327,-254.7603 60.4246,-234.654 47.0594,-219.0378"/>
<polygon fill="#000000" stroke="#000000" points="49.6311,-216.6598 40.4696,-211.3382 44.3129,-221.2114 49.6311,-216.6598"/>
<text text-anchor="middle" x="82.5" y="-235.8" font-family="Times,serif" font-size="14.00" fill="#000000">204</text>
</g>
<!-- 6 -->
<g id="node13" class="node">
<title>6</title>
<ellipse fill="none" stroke="#ff0000" cx="99" cy="-195.6" rx="27" ry="18"/>
<text text-anchor="middle" x="99" y="-191.4" font-family="Times,serif" font-size="14.00" fill="#000000">6</text>
</g>
<!-- 34&#45;&gt;6 -->
<g id="edge12" class="edge">
<title>34&#45;&gt;6</title>
<path fill="none" stroke="#000000" d="M102.1712,-266.0006C101.6259,-253.8949 100.9012,-237.8076 100.2823,-224.0674"/>
<polygon fill="#000000" stroke="#000000" points="103.7606,-223.5044 99.8141,-213.672 96.7677,-223.8194 103.7606,-223.5044"/>
<text text-anchor="middle" x="112.5" y="-235.8" font-family="Times,serif" font-size="14.00" fill="#000000">197</text>
</g>
<!-- 10 -->
<g id="node14" class="node">
<title>10</title>
<ellipse fill="none" stroke="#ff0000" cx="171" cy="-195.6" rx="27" ry="18"/>
<text text-anchor="middle" x="171" y="-191.4" font-family="Times,serif" font-size="14.00" fill="#000000">10</text>
</g>
<!-- 34&#45;&gt;10 -->
<g id="edge13" class="edge">
<title>34&#45;&gt;10</title>
<path fill="none" stroke="#000000" d="M115.4722,-268.1127C125.8245,-254.5938 140.7002,-235.168 152.4496,-219.8247"/>
<polygon fill="#000000" stroke="#000000" points="155.3058,-221.8515 158.6068,-211.784 149.7481,-217.5956 155.3058,-221.8515"/>
<text text-anchor="middle" x="154.5" y="-235.8" font-family="Times,serif" font-size="14.00" fill="#000000">204</text>
</g>
<!-- 25 -->
<g id="node11" class="node">
<title>25</title>
<ellipse fill="none" stroke="#000000" cx="27" cy="-106.8" rx="27" ry="18"/>
<text text-anchor="middle" x="27" y="-102.6" font-family="Times,serif" font-size="14.00" fill="#000000">25</text>
</g>
<!-- 4&#45;&gt;25 -->
<g id="edge14" class="edge">
<title>4&#45;&gt;25</title>
<path fill="none" stroke="#000000" d="M27,-177.2006C27,-165.0949 27,-149.0076 27,-135.2674"/>
<polygon fill="#000000" stroke="#000000" points="30.5001,-134.872 27,-124.872 23.5001,-134.8721 30.5001,-134.872"/>
<text text-anchor="middle" x="37.5" y="-147" font-family="Times,serif" font-size="14.00" fill="#000000">195</text>
</g>
<!-- 8 -->
<g id="node12" class="node">
<title>8</title>
<ellipse fill="none" stroke="#ff0000" cx="27" cy="-18" rx="27" ry="18"/>
<text text-anchor="middle" x="27" y="-13.8" font-family="Times,serif" font-size="14.00" fill="#000000">8</text>
</g>
<!-- 25&#45;&gt;8 -->
<g id="edge15" class="edge">
<title>25&#45;&gt;8</title>
<path fill="none" stroke="#000000" d="M27,-88.4006C27,-76.2949 27,-60.2076 27,-46.4674"/>
<polygon fill="#000000" stroke="#000000" points="30.5001,-46.072 27,-36.072 23.5001,-46.0721 30.5001,-46.072"/>
<text text-anchor="middle" x="37.5" y="-58.2" font-family="Times,serif" font-size="14.00" fill="#000000">189</text>
</g>
<!-- 15 -->
<g id="node16" class="node">
<title>15</title>
<ellipse fill="none" stroke="#ff0000" cx="238" cy="-284.4" rx="27" ry="18"/>
<text text-anchor="middle" x="238" y="-280.2" font-family="Times,serif" font-size="14.00" fill="#000000">15</text>
</g>
<!-- 3&#45;&gt;15 -->
<g id="edge16" class="edge">
<title>3&#45;&gt;15</title>
<path fill="none" stroke="#000000" d="M238,-354.8006C238,-342.6949 238,-326.6076 238,-312.8674"/>
<polygon fill="#000000" stroke="#000000" points="241.5001,-312.472 238,-302.472 234.5001,-312.4721 241.5001,-312.472"/>
<text text-anchor="middle" x="248.5" y="-324.6" font-family="Times,serif" font-size="14.00" fill="#000000">293</text>
</g>
<!-- 14 -->
<g id="node17" class="node">
<title>14</title>
<ellipse fill="none" stroke="#ff0000" cx="243" cy="-195.6" rx="27" ry="18"/>
<text text-anchor="middle" x="243" y="-191.4" font-family="Times,serif" font-size="14.00" fill="#000000">14</text>
</g>
<!-- 15&#45;&gt;14 -->
<g id="edge17" class="edge">
<title>15&#45;&gt;14</title>
<path fill="none" stroke="#000000" d="M239.036,-266.0006C239.7244,-253.775 240.6414,-237.4887 241.42,-223.6599"/>
<polygon fill="#000000" stroke="#000000" points="244.9146,-223.853 241.9824,-213.672 237.9257,-223.4594 244.9146,-223.853"/>
<text text-anchor="middle" x="251.5" y="-235.8" font-family="Times,serif" font-size="14.00" fill="#000000">301</text>
</g>
<!-- 11 -->
<g id="node19" class="node">
<title>11</title>
<ellipse fill="none" stroke="#ff0000" cx="310" cy="-284.4" rx="27" ry="18"/>
<text text-anchor="middle" x="310" y="-280.2" font-family="Times,serif" font-size="14.00" fill="#000000">11</text>
</g>
<!-- 13&#45;&gt;11 -->
<g id="edge18" class="edge">
<title>13&#45;&gt;11</title>
<path fill="none" stroke="#000000" d="M310,-354.8006C310,-342.6949 310,-326.6076 310,-312.8674"/>
<polygon fill="#000000" stroke="#000000" points="313.5001,-312.472 310,-302.472 306.5001,-312.4721 313.5001,-312.472"/>
<text text-anchor="middle" x="320.5" y="-324.6" font-family="Times,serif" font-size="14.00" fill="#000000">293</text>
</g>
<!-- 16 -->
<g id="node20" class="node">
<title>16</title>
<ellipse fill="none" stroke="#ff0000" cx="382" cy="-284.4" rx="27" ry="18"/>
<text text-anchor="middle" x="382" y="-280.2" font-family="Times,serif" font-size="14.00" fill="#000000">16</text>
</g>
<!-- 13&#45;&gt;16 -->
<g id="edge19" class="edge">
<title>13&#45;&gt;16</title>
<path fill="none" stroke="#000000" d="M322.8722,-357.3243C333.8616,-343.7707 349.8373,-324.0674 362.413,-308.5573"/>
<polygon fill="#000000" stroke="#000000" points="365.4171,-310.4095 368.9965,-300.4376 359.9798,-306.0009 365.4171,-310.4095"/>
<text text-anchor="middle" x="362.5" y="-324.6" font-family="Times,serif" font-size="14.00" fill="#000000">303</text>
</g>
</g>
</svg>
