<svg width="600px" height="1817px"
 viewBox="0.00 0.00 249.00 754.40" xmlns="http://www.w3.org/2000/svg" xmlns:xlink="http://www.w3.org/1999/xlink">
<g id="graph0" class="graph" transform="scale(1.0 1.0) rotate(0) translate(4 750.4)">
<title>%0</title>
<polygon fill="#ffffff" stroke="transparent" points="-4,4 -4,-750.4 245,-750.4 245,4 -4,4"/>
<!-- 12 -->
<g id="node1" class="node">
<title>12</title>
<ellipse fill="none" stroke="#ff0000" cx="103" cy="-728.4" rx="27" ry="18"/>
<text text-anchor="middle" x="103" y="-724.2" font-family="Times,serif" font-size="14.00" fill="#000000">12</text>
</g>
<!-- 13 -->
<g id="node2" class="node">
<title>13</title>
<ellipse fill="none" stroke="#ff0000" cx="103" cy="-639.6" rx="27" ry="18"/>
<text text-anchor="middle" x="103" y="-635.4" font-family="Times,serif" font-size="14.00" fill="#000000">13</text>
</g>
<!-- 12&#45;&gt;13 -->
<g id="edge1" class="edge">
<title>12&#45;&gt;13</title>
<path fill="none" stroke="#000000" d="M103,-710.0006C103,-697.8949 103,-681.8076 103,-668.0674"/>
<polygon fill="#000000" stroke="#000000" points="106.5001,-667.672 103,-657.672 99.5001,-667.6721 106.5001,-667.672"/>
<text text-anchor="middle" x="113.5" y="-679.8" font-family="Times,serif" font-size="14.00" fill="#000000">293</text>
</g>
<!-- 14 -->
<g id="node3" class="node">
<title>14</title>
<ellipse fill="none" stroke="#ff0000" cx="103" cy="-550.8" rx="27" ry="18"/>
<text text-anchor="middle" x="103" y="-546.6" font-family="Times,serif" font-size="14.00" fill="#000000">14</text>
</g>
<!-- 13&#45;&gt;14 -->
<g id="edge2" class="edge">
<title>13&#45;&gt;14</title>
<path fill="none" stroke="#000000" d="M103,-621.2006C103,-609.0949 103,-593.0076 103,-579.2674"/>
<polygon fill="#000000" stroke="#000000" points="106.5001,-578.872 103,-568.872 99.5001,-578.8721 106.5001,-578.872"/>
<text text-anchor="middle" x="113.5" y="-591" font-family="Times,serif" font-size="14.00" fill="#000000">293</text>
</g>
<!-- 4 -->
<g id="node4" class="node">
<title>4</title>
<ellipse fill="none" stroke="#ff0000" cx="67" cy="-462" rx="27" ry="18"/>
<text text-anchor="middle" x="67" y="-457.8" font-family="Times,serif" font-size="14.00" fill="#000000">4</text>
</g>
<!-- 14&#45;&gt;4 -->
<g id="edge3" class="edge">
<title>14&#45;&gt;4</title>
<path fill="none" stroke="#000000" d="M95.8876,-533.256C90.7596,-520.6071 83.7433,-503.3002 77.9097,-488.9105"/>
<polygon fill="#000000" stroke="#000000" points="81.0984,-487.46 74.0977,-479.5076 74.6112,-490.09 81.0984,-487.46"/>
<text text-anchor="middle" x="99.5" y="-502.2" font-family="Times,serif" font-size="14.00" fill="#000000">294</text>
</g>
<!-- 7 -->
<g id="node6" class="node">
<title>7</title>
<ellipse fill="none" stroke="#ff0000" cx="139" cy="-462" rx="27" ry="18"/>
<text text-anchor="middle" x="139" y="-457.8" font-family="Times,serif" font-size="14.00" fill="#000000">7</text>
</g>
<!-- 14&#45;&gt;7 -->
<g id="edge4" class="edge">
<title>14&#45;&gt;7</title>
<path fill="none" stroke="#000000" d="M110.1124,-533.256C115.2404,-520.6071 122.2567,-503.3002 128.0903,-488.9105"/>
<polygon fill="#000000" stroke="#000000" points="131.3888,-490.09 131.9023,-479.5076 124.9016,-487.46 131.3888,-490.09"/>
<text text-anchor="middle" x="135.5" y="-502.2" font-family="Times,serif" font-size="14.00" fill="#000000">291</text>
</g>
<!-- 6 -->
<g id="node5" class="node">
<title>6</title>
<ellipse fill="none" stroke="#ff0000" cx="67" cy="-373.2" rx="27" ry="18"/>
<text text-anchor="middle" x="67" y="-369" font-family="Times,serif" font-size="14.00" fill="#000000">6</text>
</g>
<!-- 4&#45;&gt;6 -->
<g id="edge5" class="edge">
<title>4&#45;&gt;6</title>
<path fill="none" stroke="#000000" d="M67,-443.6006C67,-431.4949 67,-415.4076 67,-401.6674"/>
<polygon fill="#000000" stroke="#000000" points="70.5001,-401.272 67,-391.272 63.5001,-401.2721 70.5001,-401.272"/>
<text text-anchor="middle" x="77.5" y="-413.4" font-family="Times,serif" font-size="14.00" fill="#000000">290</text>
</g>
<!-- 1 -->
<g id="node7" class="node">
<title>1</title>
<ellipse fill="none" stroke="#ff0000" cx="139" cy="-373.2" rx="27" ry="18"/>
<text text-anchor="middle" x="139" y="-369" font-family="Times,serif" font-size="14.00" fill="#000000">1</text>
</g>
<!-- 7&#45;&gt;1 -->
<g id="edge6" class="edge">
<title>7&#45;&gt;1</title>
<path fill="none" stroke="#000000" d="M139,-443.6006C139,-431.4949 139,-415.4076 139,-401.6674"/>
<polygon fill="#000000" stroke="#000000" points="142.5001,-401.272 139,-391.272 135.5001,-401.2721 142.5001,-401.272"/>
<text text-anchor="middle" x="149.5" y="-413.4" font-family="Times,serif" font-size="14.00" fill="#000000">289</text>
</g>
<!-- 10 -->
<g id="node16" class="node">
<title>10</title>
<ellipse fill="none" stroke="#ff0000" cx="211" cy="-373.2" rx="27" ry="18"/>
<text text-anchor="middle" x="211" y="-369" font-family="Times,serif" font-size="14.00" fill="#000000">10</text>
</g>
<!-- 7&#45;&gt;10 -->
<g id="edge7" class="edge">
<title>7&#45;&gt;10</title>
<path fill="none" stroke="#000000" d="M151.8722,-446.1243C162.8616,-432.5707 178.8373,-412.8674 191.413,-397.3573"/>
<polygon fill="#000000" stroke="#000000" points="194.4171,-399.2095 197.9965,-389.2376 188.9798,-394.8009 194.4171,-399.2095"/>
<text text-anchor="middle" x="192.5" y="-413.4" font-family="Times,serif" font-size="14.00" fill="#000000">291</text>
</g>
<!-- 3 -->
<g id="node8" class="node">
<title>3</title>
<ellipse fill="none" stroke="#ff0000" cx="99" cy="-284.4" rx="27" ry="18"/>
<text text-anchor="middle" x="99" y="-280.2" font-family="Times,serif" font-size="14.00" fill="#000000">3</text>
</g>
<!-- 1&#45;&gt;3 -->
<g id="edge8" class="edge">
<title>1&#45;&gt;3</title>
<path fill="none" stroke="#000000" d="M131.0973,-355.656C125.3996,-343.0071 117.6037,-325.7002 111.1219,-311.3105"/>
<polygon fill="#000000" stroke="#000000" points="114.1846,-309.5878 106.8863,-301.9076 107.8022,-312.4628 114.1846,-309.5878"/>
<text text-anchor="middle" x="133.5" y="-324.6" font-family="Times,serif" font-size="14.00" fill="#000000">294</text>
</g>
<!-- 15 -->
<g id="node11" class="node">
<title>15</title>
<ellipse fill="none" stroke="#ff0000" cx="171" cy="-284.4" rx="27" ry="18"/>
<text text-anchor="middle" x="171" y="-280.2" font-family="Times,serif" font-size="14.00" fill="#000000">15</text>
</g>
<!-- 1&#45;&gt;15 -->
<g id="edge9" class="edge">
<title>1&#45;&gt;15</title>
<path fill="none" stroke="#000000" d="M145.3222,-355.656C149.8365,-343.1287 155.9972,-326.0326 161.1526,-311.7264"/>
<polygon fill="#000000" stroke="#000000" points="164.5934,-312.502 164.691,-301.9076 158.008,-310.1288 164.5934,-312.502"/>
<text text-anchor="middle" x="168.5" y="-324.6" font-family="Times,serif" font-size="14.00" fill="#000000">293</text>
</g>
<!-- 2 -->
<g id="node9" class="node">
<title>2</title>
<ellipse fill="none" stroke="#ff0000" cx="27" cy="-195.6" rx="27" ry="18"/>
<text text-anchor="middle" x="27" y="-191.4" font-family="Times,serif" font-size="14.00" fill="#000000">2</text>
</g>
<!-- 3&#45;&gt;2 -->
<g id="edge10" class="edge">
<title>3&#45;&gt;2</title>
<path fill="none" stroke="#000000" d="M86.1278,-268.5243C75.1384,-254.9707 59.1627,-235.2674 46.587,-219.7573"/>
<polygon fill="#000000" stroke="#000000" points="49.0202,-217.2009 40.0035,-211.6376 43.5829,-221.6095 49.0202,-217.2009"/>
<text text-anchor="middle" x="80.5" y="-235.8" font-family="Times,serif" font-size="14.00" fill="#000000">294</text>
</g>
<!-- 8 -->
<g id="node10" class="node">
<title>8</title>
<ellipse fill="none" stroke="#ff0000" cx="99" cy="-195.6" rx="27" ry="18"/>
<text text-anchor="middle" x="99" y="-191.4" font-family="Times,serif" font-size="14.00" fill="#000000">8</text>
</g>
<!-- 3&#45;&gt;8 -->
<g id="edge11" class="edge">
<title>3&#45;&gt;8</title>
<path fill="none" stroke="#000000" d="M99,-266.0006C99,-253.8949 99,-237.8076 99,-224.0674"/>
<polygon fill="#000000" stroke="#000000" points="102.5001,-223.672 99,-213.672 95.5001,-223.6721 102.5001,-223.672"/>
<text text-anchor="middle" x="109.5" y="-235.8" font-family="Times,serif" font-size="14.00" fill="#000000">293</text>
</g>
<!-- 16 -->
<g id="node12" class="node">
<title>16</title>
<ellipse fill="none" stroke="#ff0000" cx="171" cy="-195.6" rx="27" ry="18"/>
<text text-anchor="middle" x="171" y="-191.4" font-family="Times,serif" font-size="14.00" fill="#000000">16</text>
</g>
<!-- 15&#45;&gt;16 -->
<g id="edge12" class="edge">
<title>15&#45;&gt;16</title>
<path fill="none" stroke="#000000" d="M171,-266.0006C171,-253.8949 171,-237.8076 171,-224.0674"/>
<polygon fill="#000000" stroke="#000000" points="174.5001,-223.672 171,-213.672 167.5001,-223.6721 174.5001,-223.672"/>
<text text-anchor="middle" x="181.5" y="-235.8" font-family="Times,serif" font-size="14.00" fill="#000000">288</text>
</g>
<!-- 5 -->
<g id="node13" class="node">
<title>5</title>
<ellipse fill="none" stroke="#ff0000" cx="142" cy="-106.8" rx="27" ry="18"/>
<text text-anchor="middle" x="142" y="-102.6" font-family="Times,serif" font-size="14.00" fill="#000000">5</text>
</g>
<!-- 16&#45;&gt;5 -->
<g id="edge13" class="edge">
<title>16&#45;&gt;5</title>
<path fill="none" stroke="#000000" d="M163.8304,-178.1427C161.5295,-172.2914 159.0486,-165.7031 157,-159.6 154.3135,-151.5964 151.69,-142.8089 149.4076,-134.7385"/>
<polygon fill="#000000" stroke="#000000" points="152.7571,-133.7191 146.7199,-125.0126 146.01,-135.5837 152.7571,-133.7191"/>
<text text-anchor="middle" x="167.5" y="-147" font-family="Times,serif" font-size="14.00" fill="#000000">294</text>
</g>
<!-- 11 -->
<g id="node14" class="node">
<title>11</title>
<ellipse fill="none" stroke="#ff0000" cx="214" cy="-106.8" rx="27" ry="18"/>
<text text-anchor="middle" x="214" y="-102.6" font-family="Times,serif" font-size="14.00" fill="#000000">11</text>
</g>
<!-- 16&#45;&gt;11 -->
<g id="edge14" class="edge">
<title>16&#45;&gt;11</title>
<path fill="none" stroke="#000000" d="M179.4954,-178.056C185.7195,-165.2025 194.2726,-147.5393 201.3059,-133.0148"/>
<polygon fill="#000000" stroke="#000000" points="204.4603,-134.5311 205.6685,-124.0054 198.1601,-131.4803 204.4603,-134.5311"/>
<text text-anchor="middle" x="207.5" y="-147" font-family="Times,serif" font-size="14.00" fill="#000000">292</text>
</g>
<!-- 9 -->
<g id="node15" class="node">
<title>9</title>
<ellipse fill="none" stroke="#ff0000" cx="214" cy="-18" rx="27" ry="18"/>
<text text-anchor="middle" x="214" y="-13.8" font-family="Times,serif" font-size="14.00" fill="#000000">9</text>
</g>
<!-- 11&#45;&gt;9 -->
<g id="edge15" class="edge">
<title>11&#45;&gt;9</title>
<path fill="none" stroke="#000000" d="M214,-88.4006C214,-76.2949 214,-60.2076 214,-46.4674"/>
<polygon fill="#000000" stroke="#000000" points="217.5001,-46.072 214,-36.072 210.5001,-46.0721 217.5001,-46.072"/>
<text text-anchor="middle" x="224.5" y="-58.2" font-family="Times,serif" font-size="14.00" fill="#000000">297</text>
</g>
</g>
</svg>
