<svg width="600px" height="989px"
 viewBox="0.00 0.00 350.00 576.80" xmlns="http://www.w3.org/2000/svg" xmlns:xlink="http://www.w3.org/1999/xlink">
<g id="graph0" class="graph" transform="scale(1.0 1.0) rotate(0) translate(4 572.8)">
<title>%0</title>
<polygon fill="#ffffff" stroke="transparent" points="-4,4 -4,-572.8 346,-572.8 346,4 -4,4"/>
<!-- 10 -->
<g id="node1" class="node">
<title>10</title>
<ellipse fill="none" stroke="#ff0000" cx="124" cy="-550.8" rx="27" ry="18"/>
<text text-anchor="middle" x="124" y="-546.6" font-family="Times,serif" font-size="14.00" fill="#000000">10</text>
</g>
<!-- 11 -->
<g id="node2" class="node">
<title>11</title>
<ellipse fill="none" stroke="#ff0000" cx="74" cy="-462" rx="27" ry="18"/>
<text text-anchor="middle" x="74" y="-457.8" font-family="Times,serif" font-size="14.00" fill="#000000">11</text>
</g>
<!-- 10&#45;&gt;11 -->
<g id="edge1" class="edge">
<title>10&#45;&gt;11</title>
<path fill="none" stroke="#000000" d="M114.3595,-533.6785C107.0966,-520.7795 97.0098,-502.8655 88.7373,-488.1734"/>
<polygon fill="#000000" stroke="#000000" points="91.5671,-486.0654 83.6109,-479.069 85.4675,-489.4999 91.5671,-486.0654"/>
<text text-anchor="middle" x="114.5" y="-502.2" font-family="Times,serif" font-size="14.00" fill="#000000">293</text>
</g>
<!-- 13 -->
<g id="node16" class="node">
<title>13</title>
<ellipse fill="none" stroke="#ff0000" cx="146" cy="-462" rx="27" ry="18"/>
<text text-anchor="middle" x="146" y="-457.8" font-family="Times,serif" font-size="14.00" fill="#000000">13</text>
</g>
<!-- 10&#45;&gt;13 -->
<g id="edge2" class="edge">
<title>10&#45;&gt;13</title>
<path fill="none" stroke="#000000" d="M128.452,-532.83C131.4936,-520.553 135.5854,-504.0372 139.0526,-490.0421"/>
<polygon fill="#000000" stroke="#000000" points="142.547,-490.4915 141.5546,-479.9433 135.7525,-488.8081 142.547,-490.4915"/>
<text text-anchor="middle" x="147.5" y="-502.2" font-family="Times,serif" font-size="14.00" fill="#000000">295</text>
</g>
<!-- 4 -->
<g id="node3" class="node">
<title>4</title>
<ellipse fill="none" stroke="#ff0000" cx="38" cy="-373.2" rx="27" ry="18"/>
<text text-anchor="middle" x="38" y="-369" font-family="Times,serif" font-size="14.00" fill="#000000">4</text>
</g>
<!-- 11&#45;&gt;4 -->
<g id="edge3" class="edge">
<title>11&#45;&gt;4</title>
<path fill="none" stroke="#000000" d="M66.8876,-444.456C61.7596,-431.8071 54.7433,-414.5002 48.9097,-400.1105"/>
<polygon fill="#000000" stroke="#000000" points="52.0984,-398.66 45.0977,-390.7076 45.6112,-401.29 52.0984,-398.66"/>
<text text-anchor="middle" x="70.5" y="-413.4" font-family="Times,serif" font-size="14.00" fill="#000000">285</text>
</g>
<!-- 14 -->
<g id="node5" class="node">
<title>14</title>
<ellipse fill="none" stroke="#ff0000" cx="121" cy="-373.2" rx="27" ry="18"/>
<text text-anchor="middle" x="121" y="-369" font-family="Times,serif" font-size="14.00" fill="#000000">14</text>
</g>
<!-- 11&#45;&gt;14 -->
<g id="edge4" class="edge">
<title>11&#45;&gt;14</title>
<path fill="none" stroke="#000000" d="M83.0621,-444.8785C89.8892,-431.9795 99.3708,-414.0655 107.147,-399.3734"/>
<polygon fill="#000000" stroke="#000000" points="110.3812,-400.7447 111.9657,-390.269 104.1943,-397.47 110.3812,-400.7447"/>
<text text-anchor="middle" x="112.5" y="-413.4" font-family="Times,serif" font-size="14.00" fill="#000000">288</text>
</g>
<!-- 1 -->
<g id="node4" class="node">
<title>1</title>
<ellipse fill="none" stroke="#ff0000" cx="27" cy="-284.4" rx="27" ry="18"/>
<text text-anchor="middle" x="27" y="-280.2" font-family="Times,serif" font-size="14.00" fill="#000000">1</text>
</g>
<!-- 4&#45;&gt;1 -->
<g id="edge5" class="edge">
<title>4&#45;&gt;1</title>
<path fill="none" stroke="#000000" d="M35.774,-355.23C34.2532,-342.953 32.2073,-326.4372 30.4737,-312.4421"/>
<polygon fill="#000000" stroke="#000000" points="33.9256,-311.8371 29.2227,-302.3433 26.9787,-312.6977 33.9256,-311.8371"/>
<text text-anchor="middle" x="44.5" y="-324.6" font-family="Times,serif" font-size="14.00" fill="#000000">293</text>
</g>
<!-- 5 -->
<g id="node6" class="node">
<title>5</title>
<ellipse fill="none" stroke="#ff0000" cx="99" cy="-284.4" rx="27" ry="18"/>
<text text-anchor="middle" x="99" y="-280.2" font-family="Times,serif" font-size="14.00" fill="#000000">5</text>
</g>
<!-- 14&#45;&gt;5 -->
<g id="edge6" class="edge">
<title>14&#45;&gt;5</title>
<path fill="none" stroke="#000000" d="M116.548,-355.23C113.5064,-342.953 109.4146,-326.4372 105.9474,-312.4421"/>
<polygon fill="#000000" stroke="#000000" points="109.2475,-311.2081 103.4454,-302.3433 102.453,-312.8915 109.2475,-311.2081"/>
<text text-anchor="middle" x="122.5" y="-324.6" font-family="Times,serif" font-size="14.00" fill="#000000">287</text>
</g>
<!-- 12 -->
<g id="node7" class="node">
<title>12</title>
<ellipse fill="none" stroke="#ff0000" cx="171" cy="-284.4" rx="27" ry="18"/>
<text text-anchor="middle" x="171" y="-280.2" font-family="Times,serif" font-size="14.00" fill="#000000">12</text>
</g>
<!-- 14&#45;&gt;12 -->
<g id="edge7" class="edge">
<title>14&#45;&gt;12</title>
<path fill="none" stroke="#000000" d="M130.6405,-356.0785C137.9034,-343.1795 147.9902,-325.2655 156.2627,-310.5734"/>
<polygon fill="#000000" stroke="#000000" points="159.5325,-311.8999 161.3891,-301.469 153.4329,-308.4654 159.5325,-311.8999"/>
<text text-anchor="middle" x="161.5" y="-324.6" font-family="Times,serif" font-size="14.00" fill="#000000">287</text>
</g>
<!-- 16 -->
<g id="node11" class="node">
<title>16</title>
<ellipse fill="none" stroke="#ff0000" cx="243" cy="-284.4" rx="27" ry="18"/>
<text text-anchor="middle" x="243" y="-280.2" font-family="Times,serif" font-size="14.00" fill="#000000">16</text>
</g>
<!-- 14&#45;&gt;16 -->
<g id="edge8" class="edge">
<title>14&#45;&gt;16</title>
<path fill="none" stroke="#000000" d="M140.8828,-360.7823C151.4622,-354.0266 164.6041,-345.3958 176,-337.2 190.1649,-327.0127 205.4821,-315.0195 217.8911,-305.04"/>
<polygon fill="#000000" stroke="#000000" points="220.3986,-307.5132 225.9674,-298.4999 215.9933,-302.0732 220.3986,-307.5132"/>
<text text-anchor="middle" x="206.5" y="-324.6" font-family="Times,serif" font-size="14.00" fill="#000000">289</text>
</g>
<!-- 3 -->
<g id="node8" class="node">
<title>3</title>
<ellipse fill="none" stroke="#ff0000" cx="99" cy="-195.6" rx="27" ry="18"/>
<text text-anchor="middle" x="99" y="-191.4" font-family="Times,serif" font-size="14.00" fill="#000000">3</text>
</g>
<!-- 12&#45;&gt;3 -->
<g id="edge9" class="edge">
<title>12&#45;&gt;3</title>
<path fill="none" stroke="#000000" d="M158.1278,-268.5243C147.1384,-254.9707 131.1627,-235.2674 118.587,-219.7573"/>
<polygon fill="#000000" stroke="#000000" points="121.0202,-217.2009 112.0035,-211.6376 115.5829,-221.6095 121.0202,-217.2009"/>
<text text-anchor="middle" x="152.5" y="-235.8" font-family="Times,serif" font-size="14.00" fill="#000000">292</text>
</g>
<!-- 15 -->
<g id="node10" class="node">
<title>15</title>
<ellipse fill="none" stroke="#ff0000" cx="171" cy="-195.6" rx="27" ry="18"/>
<text text-anchor="middle" x="171" y="-191.4" font-family="Times,serif" font-size="14.00" fill="#000000">15</text>
</g>
<!-- 12&#45;&gt;15 -->
<g id="edge10" class="edge">
<title>12&#45;&gt;15</title>
<path fill="none" stroke="#000000" d="M171,-266.0006C171,-253.8949 171,-237.8076 171,-224.0674"/>
<polygon fill="#000000" stroke="#000000" points="174.5001,-223.672 171,-213.672 167.5001,-223.6721 174.5001,-223.672"/>
<text text-anchor="middle" x="181.5" y="-235.8" font-family="Times,serif" font-size="14.00" fill="#000000">294</text>
</g>
<!-- 8 -->
<g id="node9" class="node">
<title>8</title>
<ellipse fill="none" stroke="#ff0000" cx="99" cy="-106.8" rx="27" ry="18"/>
<text text-anchor="middle" x="99" y="-102.6" font-family="Times,serif" font-size="14.00" fill="#000000">8</text>
</g>
<!-- 3&#45;&gt;8 -->
<g id="edge11" class="edge">
<title>3&#45;&gt;8</title>
<path fill="none" stroke="#000000" d="M99,-177.2006C99,-165.0949 99,-149.0076 99,-135.2674"/>
<polygon fill="#000000" stroke="#000000" points="102.5001,-134.872 99,-124.872 95.5001,-134.8721 102.5001,-134.872"/>
<text text-anchor="middle" x="109.5" y="-147" font-family="Times,serif" font-size="14.00" fill="#000000">295</text>
</g>
<!-- 6 -->
<g id="node12" class="node">
<title>6</title>
<ellipse fill="none" stroke="#ff0000" cx="243" cy="-195.6" rx="27" ry="18"/>
<text text-anchor="middle" x="243" y="-191.4" font-family="Times,serif" font-size="14.00" fill="#000000">6</text>
</g>
<!-- 16&#45;&gt;6 -->
<g id="edge12" class="edge">
<title>16&#45;&gt;6</title>
<path fill="none" stroke="#000000" d="M243,-266.0006C243,-253.8949 243,-237.8076 243,-224.0674"/>
<polygon fill="#000000" stroke="#000000" points="246.5001,-223.672 243,-213.672 239.5001,-223.6721 246.5001,-223.672"/>
<text text-anchor="middle" x="253.5" y="-235.8" font-family="Times,serif" font-size="14.00" fill="#000000">286</text>
</g>
<!-- 7 -->
<g id="node15" class="node">
<title>7</title>
<ellipse fill="none" stroke="#ff0000" cx="315" cy="-195.6" rx="27" ry="18"/>
<text text-anchor="middle" x="315" y="-191.4" font-family="Times,serif" font-size="14.00" fill="#000000">7</text>
</g>
<!-- 16&#45;&gt;7 -->
<g id="edge13" class="edge">
<title>16&#45;&gt;7</title>
<path fill="none" stroke="#000000" d="M255.8722,-268.5243C266.8616,-254.9707 282.8373,-235.2674 295.413,-219.7573"/>
<polygon fill="#000000" stroke="#000000" points="298.4171,-221.6095 301.9965,-211.6376 292.9798,-217.2009 298.4171,-221.6095"/>
<text text-anchor="middle" x="295.5" y="-235.8" font-family="Times,serif" font-size="14.00" fill="#000000">292</text>
</g>
<!-- 9 -->
<g id="node13" class="node">
<title>9</title>
<ellipse fill="none" stroke="#ff0000" cx="243" cy="-106.8" rx="27" ry="18"/>
<text text-anchor="middle" x="243" y="-102.6" font-family="Times,serif" font-size="14.00" fill="#000000">9</text>
</g>
<!-- 6&#45;&gt;9 -->
<g id="edge14" class="edge">
<title>6&#45;&gt;9</title>
<path fill="none" stroke="#000000" d="M243,-177.2006C243,-165.0949 243,-149.0076 243,-135.2674"/>
<polygon fill="#000000" stroke="#000000" points="246.5001,-134.872 243,-124.872 239.5001,-134.8721 246.5001,-134.872"/>
<text text-anchor="middle" x="253.5" y="-147" font-family="Times,serif" font-size="14.00" fill="#000000">291</text>
</g>
<!-- 2 -->
<g id="node14" class="node">
<title>2</title>
<ellipse fill="none" stroke="#ff0000" cx="243" cy="-18" rx="27" ry="18"/>
<text text-anchor="middle" x="243" y="-13.8" font-family="Times,serif" font-size="14.00" fill="#000000">2</text>
</g>
<!-- 9&#45;&gt;2 -->
<g id="edge15" class="edge">
<title>9&#45;&gt;2</title>
<path fill="none" stroke="#000000" d="M243,-88.4006C243,-76.2949 243,-60.2076 243,-46.4674"/>
<polygon fill="#000000" stroke="#000000" points="246.5001,-46.072 243,-36.072 239.5001,-46.0721 246.5001,-46.072"/>
<text text-anchor="middle" x="253.5" y="-58.2" font-family="Times,serif" font-size="14.00" fill="#000000">293</text>
</g>
</g>
</svg>
