<svg width="600px" height="951px"
 viewBox="0.00 0.00 364.00 576.80" xmlns="http://www.w3.org/2000/svg" xmlns:xlink="http://www.w3.org/1999/xlink">
<g id="graph0" class="graph" transform="scale(1.0 1.0) rotate(0) translate(4 572.8)">
<title>%0</title>
<polygon fill="#ffffff" stroke="transparent" points="-4,4 -4,-572.8 360,-572.8 360,4 -4,4"/>
<!-- 5 -->
<g id="node1" class="node">
<title>5</title>
<ellipse fill="none" stroke="#ff0000" cx="149" cy="-550.8" rx="27" ry="18"/>
<text text-anchor="middle" x="149" y="-546.6" font-family="Times,serif" font-size="14.00" fill="#000000">5</text>
</g>
<!-- 8 -->
<g id="node2" class="node">
<title>8</title>
<ellipse fill="none" stroke="#ff0000" cx="99" cy="-462" rx="27" ry="18"/>
<text text-anchor="middle" x="99" y="-457.8" font-family="Times,serif" font-size="14.00" fill="#000000">8</text>
</g>
<!-- 5&#45;&gt;8 -->
<g id="edge1" class="edge">
<title>5&#45;&gt;8</title>
<path fill="none" stroke="#000000" d="M139.3595,-533.6785C132.0966,-520.7795 122.0098,-502.8655 113.7373,-488.1734"/>
<polygon fill="#000000" stroke="#000000" points="116.5671,-486.0654 108.6109,-479.069 110.4675,-489.4999 116.5671,-486.0654"/>
<text text-anchor="middle" x="139.5" y="-502.2" font-family="Times,serif" font-size="14.00" fill="#000000">294</text>
</g>
<!-- 9 -->
<g id="node16" class="node">
<title>9</title>
<ellipse fill="none" stroke="#ff0000" cx="171" cy="-462" rx="27" ry="18"/>
<text text-anchor="middle" x="171" y="-457.8" font-family="Times,serif" font-size="14.00" fill="#000000">9</text>
</g>
<!-- 5&#45;&gt;9 -->
<g id="edge2" class="edge">
<title>5&#45;&gt;9</title>
<path fill="none" stroke="#000000" d="M153.452,-532.83C156.4936,-520.553 160.5854,-504.0372 164.0526,-490.0421"/>
<polygon fill="#000000" stroke="#000000" points="167.547,-490.4915 166.5546,-479.9433 160.7525,-488.8081 167.547,-490.4915"/>
<text text-anchor="middle" x="172.5" y="-502.2" font-family="Times,serif" font-size="14.00" fill="#000000">295</text>
</g>
<!-- 11 -->
<g id="node3" class="node">
<title>11</title>
<ellipse fill="none" stroke="#ff0000" cx="99" cy="-373.2" rx="27" ry="18"/>
<text text-anchor="middle" x="99" y="-369" font-family="Times,serif" font-size="14.00" fill="#000000">11</text>
</g>
<!-- 8&#45;&gt;11 -->
<g id="edge3" class="edge">
<title>8&#45;&gt;11</title>
<path fill="none" stroke="#000000" d="M99,-443.6006C99,-431.4949 99,-415.4076 99,-401.6674"/>
<polygon fill="#000000" stroke="#000000" points="102.5001,-401.272 99,-391.272 95.5001,-401.2721 102.5001,-401.272"/>
<text text-anchor="middle" x="109.5" y="-413.4" font-family="Times,serif" font-size="14.00" fill="#000000">289</text>
</g>
<!-- 3 -->
<g id="node4" class="node">
<title>3</title>
<ellipse fill="none" stroke="#ff0000" cx="27" cy="-284.4" rx="27" ry="18"/>
<text text-anchor="middle" x="27" y="-280.2" font-family="Times,serif" font-size="14.00" fill="#000000">3</text>
</g>
<!-- 11&#45;&gt;3 -->
<g id="edge4" class="edge">
<title>11&#45;&gt;3</title>
<path fill="none" stroke="#000000" d="M86.1278,-357.3243C75.1384,-343.7707 59.1627,-324.0674 46.587,-308.5573"/>
<polygon fill="#000000" stroke="#000000" points="49.0202,-306.0009 40.0035,-300.4376 43.5829,-310.4095 49.0202,-306.0009"/>
<text text-anchor="middle" x="80.5" y="-324.6" font-family="Times,serif" font-size="14.00" fill="#000000">294</text>
</g>
<!-- 4 -->
<g id="node7" class="node">
<title>4</title>
<ellipse fill="none" stroke="#ff0000" cx="99" cy="-284.4" rx="27" ry="18"/>
<text text-anchor="middle" x="99" y="-280.2" font-family="Times,serif" font-size="14.00" fill="#000000">4</text>
</g>
<!-- 11&#45;&gt;4 -->
<g id="edge5" class="edge">
<title>11&#45;&gt;4</title>
<path fill="none" stroke="#000000" d="M99,-354.8006C99,-342.6949 99,-326.6076 99,-312.8674"/>
<polygon fill="#000000" stroke="#000000" points="102.5001,-312.472 99,-302.472 95.5001,-312.4721 102.5001,-312.472"/>
<text text-anchor="middle" x="109.5" y="-324.6" font-family="Times,serif" font-size="14.00" fill="#000000">295</text>
</g>
<!-- 16 -->
<g id="node8" class="node">
<title>16</title>
<ellipse fill="none" stroke="#ff0000" cx="171" cy="-284.4" rx="27" ry="18"/>
<text text-anchor="middle" x="171" y="-280.2" font-family="Times,serif" font-size="14.00" fill="#000000">16</text>
</g>
<!-- 11&#45;&gt;16 -->
<g id="edge6" class="edge">
<title>11&#45;&gt;16</title>
<path fill="none" stroke="#000000" d="M111.8722,-357.3243C122.8616,-343.7707 138.8373,-324.0674 151.413,-308.5573"/>
<polygon fill="#000000" stroke="#000000" points="154.4171,-310.4095 157.9965,-300.4376 148.9798,-306.0009 154.4171,-310.4095"/>
<text text-anchor="middle" x="152.5" y="-324.6" font-family="Times,serif" font-size="14.00" fill="#000000">293</text>
</g>
<!-- 2 -->
<g id="node5" class="node">
<title>2</title>
<ellipse fill="none" stroke="#ff0000" cx="27" cy="-195.6" rx="27" ry="18"/>
<text text-anchor="middle" x="27" y="-191.4" font-family="Times,serif" font-size="14.00" fill="#000000">2</text>
</g>
<!-- 3&#45;&gt;2 -->
<g id="edge7" class="edge">
<title>3&#45;&gt;2</title>
<path fill="none" stroke="#000000" d="M27,-266.0006C27,-253.8949 27,-237.8076 27,-224.0674"/>
<polygon fill="#000000" stroke="#000000" points="30.5001,-223.672 27,-213.672 23.5001,-223.6721 30.5001,-223.672"/>
<text text-anchor="middle" x="37.5" y="-235.8" font-family="Times,serif" font-size="14.00" fill="#000000">290</text>
</g>
<!-- 13 -->
<g id="node6" class="node">
<title>13</title>
<ellipse fill="none" stroke="#ff0000" cx="27" cy="-106.8" rx="27" ry="18"/>
<text text-anchor="middle" x="27" y="-102.6" font-family="Times,serif" font-size="14.00" fill="#000000">13</text>
</g>
<!-- 2&#45;&gt;13 -->
<g id="edge8" class="edge">
<title>2&#45;&gt;13</title>
<path fill="none" stroke="#000000" d="M27,-177.2006C27,-165.0949 27,-149.0076 27,-135.2674"/>
<polygon fill="#000000" stroke="#000000" points="30.5001,-134.872 27,-124.872 23.5001,-134.8721 30.5001,-134.872"/>
<text text-anchor="middle" x="37.5" y="-147" font-family="Times,serif" font-size="14.00" fill="#000000">297</text>
</g>
<!-- 1 -->
<g id="node9" class="node">
<title>1</title>
<ellipse fill="none" stroke="#ff0000" cx="142" cy="-195.6" rx="27" ry="18"/>
<text text-anchor="middle" x="142" y="-191.4" font-family="Times,serif" font-size="14.00" fill="#000000">1</text>
</g>
<!-- 16&#45;&gt;1 -->
<g id="edge9" class="edge">
<title>16&#45;&gt;1</title>
<path fill="none" stroke="#000000" d="M163.8304,-266.9427C161.5295,-261.0914 159.0486,-254.5031 157,-248.4 154.3135,-240.3964 151.69,-231.6089 149.4076,-223.5385"/>
<polygon fill="#000000" stroke="#000000" points="152.7571,-222.5191 146.7199,-213.8126 146.01,-224.3837 152.7571,-222.5191"/>
<text text-anchor="middle" x="167.5" y="-235.8" font-family="Times,serif" font-size="14.00" fill="#000000">293</text>
</g>
<!-- 10 -->
<g id="node10" class="node">
<title>10</title>
<ellipse fill="none" stroke="#ff0000" cx="214" cy="-195.6" rx="27" ry="18"/>
<text text-anchor="middle" x="214" y="-191.4" font-family="Times,serif" font-size="14.00" fill="#000000">10</text>
</g>
<!-- 16&#45;&gt;10 -->
<g id="edge10" class="edge">
<title>16&#45;&gt;10</title>
<path fill="none" stroke="#000000" d="M179.4954,-266.856C185.7195,-254.0025 194.2726,-236.3393 201.3059,-221.8148"/>
<polygon fill="#000000" stroke="#000000" points="204.4603,-223.3311 205.6685,-212.8054 198.1601,-220.2803 204.4603,-223.3311"/>
<text text-anchor="middle" x="206.5" y="-235.8" font-family="Times,serif" font-size="14.00" fill="#000000">282</text>
</g>
<!-- 6 -->
<g id="node11" class="node">
<title>6</title>
<ellipse fill="none" stroke="#ff0000" cx="185" cy="-106.8" rx="27" ry="18"/>
<text text-anchor="middle" x="185" y="-102.6" font-family="Times,serif" font-size="14.00" fill="#000000">6</text>
</g>
<!-- 10&#45;&gt;6 -->
<g id="edge11" class="edge">
<title>10&#45;&gt;6</title>
<path fill="none" stroke="#000000" d="M206.8304,-178.1427C204.5295,-172.2914 202.0486,-165.7031 200,-159.6 197.3135,-151.5964 194.69,-142.8089 192.4076,-134.7385"/>
<polygon fill="#000000" stroke="#000000" points="195.7571,-133.7191 189.7199,-125.0126 189.01,-135.5837 195.7571,-133.7191"/>
<text text-anchor="middle" x="210.5" y="-147" font-family="Times,serif" font-size="14.00" fill="#000000">296</text>
</g>
<!-- 12 -->
<g id="node12" class="node">
<title>12</title>
<ellipse fill="none" stroke="#ff0000" cx="257" cy="-106.8" rx="27" ry="18"/>
<text text-anchor="middle" x="257" y="-102.6" font-family="Times,serif" font-size="14.00" fill="#000000">12</text>
</g>
<!-- 10&#45;&gt;12 -->
<g id="edge12" class="edge">
<title>10&#45;&gt;12</title>
<path fill="none" stroke="#000000" d="M222.4954,-178.056C228.7195,-165.2025 237.2726,-147.5393 244.3059,-133.0148"/>
<polygon fill="#000000" stroke="#000000" points="247.4603,-134.5311 248.6685,-124.0054 241.1601,-131.4803 247.4603,-134.5311"/>
<text text-anchor="middle" x="249.5" y="-147" font-family="Times,serif" font-size="14.00" fill="#000000">291</text>
</g>
<!-- 7 -->
<g id="node13" class="node">
<title>7</title>
<ellipse fill="none" stroke="#ff0000" cx="185" cy="-18" rx="27" ry="18"/>
<text text-anchor="middle" x="185" y="-13.8" font-family="Times,serif" font-size="14.00" fill="#000000">7</text>
</g>
<!-- 12&#45;&gt;7 -->
<g id="edge13" class="edge">
<title>12&#45;&gt;7</title>
<path fill="none" stroke="#000000" d="M244.1278,-90.9243C233.1384,-77.3707 217.1627,-57.6674 204.587,-42.1573"/>
<polygon fill="#000000" stroke="#000000" points="207.0202,-39.6009 198.0035,-34.0376 201.5829,-44.0095 207.0202,-39.6009"/>
<text text-anchor="middle" x="237.5" y="-58.2" font-family="Times,serif" font-size="14.00" fill="#000000">289</text>
</g>
<!-- 14 -->
<g id="node14" class="node">
<title>14</title>
<ellipse fill="none" stroke="#ff0000" cx="257" cy="-18" rx="27" ry="18"/>
<text text-anchor="middle" x="257" y="-13.8" font-family="Times,serif" font-size="14.00" fill="#000000">14</text>
</g>
<!-- 12&#45;&gt;14 -->
<g id="edge14" class="edge">
<title>12&#45;&gt;14</title>
<path fill="none" stroke="#000000" d="M257,-88.4006C257,-76.2949 257,-60.2076 257,-46.4674"/>
<polygon fill="#000000" stroke="#000000" points="260.5001,-46.072 257,-36.072 253.5001,-46.0721 260.5001,-46.072"/>
<text text-anchor="middle" x="267.5" y="-58.2" font-family="Times,serif" font-size="14.00" fill="#000000">296</text>
</g>
<!-- 15 -->
<g id="node15" class="node">
<title>15</title>
<ellipse fill="none" stroke="#ff0000" cx="329" cy="-18" rx="27" ry="18"/>
<text text-anchor="middle" x="329" y="-13.8" font-family="Times,serif" font-size="14.00" fill="#000000">15</text>
</g>
<!-- 12&#45;&gt;15 -->
<g id="edge15" class="edge">
<title>12&#45;&gt;15</title>
<path fill="none" stroke="#000000" d="M269.8722,-90.9243C280.8616,-77.3707 296.8373,-57.6674 309.413,-42.1573"/>
<polygon fill="#000000" stroke="#000000" points="312.4171,-44.0095 315.9965,-34.0376 306.9798,-39.6009 312.4171,-44.0095"/>
<text text-anchor="middle" x="309.5" y="-58.2" font-family="Times,serif" font-size="14.00" fill="#000000">293</text>
</g>
</g>
</svg>
