<svg width="600px" height="1508px"
 viewBox="0.00 0.00 300.00 754.40" xmlns="http://www.w3.org/2000/svg" xmlns:xlink="http://www.w3.org/1999/xlink">
<g id="graph0" class="graph" transform="scale(1.0 1.0) rotate(0) translate(4 750.4)">
<title>%0</title>
<polygon fill="#ffffff" stroke="transparent" points="-4,4 -4,-750.4 296,-750.4 296,4 -4,4"/>
<!-- 10 -->
<g id="node1" class="node">
<title>10</title>
<ellipse fill="none" stroke="#ff0000" cx="157" cy="-728.4" rx="27" ry="18"/>
<text text-anchor="middle" x="157" y="-724.2" font-family="Times,serif" font-size="14.00" fill="#000000">10</text>
</g>
<!-- 11 -->
<g id="node2" class="node">
<title>11</title>
<ellipse fill="none" stroke="#ff0000" cx="157" cy="-639.6" rx="27" ry="18"/>
<text text-anchor="middle" x="157" y="-635.4" font-family="Times,serif" font-size="14.00" fill="#000000">11</text>
</g>
<!-- 10&#45;&gt;11 -->
<g id="edge1" class="edge">
<title>10&#45;&gt;11</title>
<path fill="none" stroke="#000000" d="M157,-710.0006C157,-697.8949 157,-681.8076 157,-668.0674"/>
<polygon fill="#000000" stroke="#000000" points="160.5001,-667.672 157,-657.672 153.5001,-667.6721 160.5001,-667.672"/>
<text text-anchor="middle" x="167.5" y="-679.8" font-family="Times,serif" font-size="14.00" fill="#000000">289</text>
</g>
<!-- 9 -->
<g id="node3" class="node">
<title>9</title>
<ellipse fill="none" stroke="#ff0000" cx="157" cy="-550.8" rx="27" ry="18"/>
<text text-anchor="middle" x="157" y="-546.6" font-family="Times,serif" font-size="14.00" fill="#000000">9</text>
</g>
<!-- 11&#45;&gt;9 -->
<g id="edge2" class="edge">
<title>11&#45;&gt;9</title>
<path fill="none" stroke="#000000" d="M157,-621.2006C157,-609.0949 157,-593.0076 157,-579.2674"/>
<polygon fill="#000000" stroke="#000000" points="160.5001,-578.872 157,-568.872 153.5001,-578.8721 160.5001,-578.872"/>
<text text-anchor="middle" x="167.5" y="-591" font-family="Times,serif" font-size="14.00" fill="#000000">291</text>
</g>
<!-- 2 -->
<g id="node4" class="node">
<title>2</title>
<ellipse fill="none" stroke="#ff0000" cx="85" cy="-462" rx="27" ry="18"/>
<text text-anchor="middle" x="85" y="-457.8" font-family="Times,serif" font-size="14.00" fill="#000000">2</text>
</g>
<!-- 9&#45;&gt;2 -->
<g id="edge3" class="edge">
<title>9&#45;&gt;2</title>
<path fill="none" stroke="#000000" d="M144.1278,-534.9243C133.1384,-521.3707 117.1627,-501.6674 104.587,-486.1573"/>
<polygon fill="#000000" stroke="#000000" points="107.0202,-483.6009 98.0035,-478.0376 101.5829,-488.0095 107.0202,-483.6009"/>
<text text-anchor="middle" x="137.5" y="-502.2" font-family="Times,serif" font-size="14.00" fill="#000000">291</text>
</g>
<!-- 4 -->
<g id="node5" class="node">
<title>4</title>
<ellipse fill="none" stroke="#ff0000" cx="157" cy="-462" rx="27" ry="18"/>
<text text-anchor="middle" x="157" y="-457.8" font-family="Times,serif" font-size="14.00" fill="#000000">4</text>
</g>
<!-- 9&#45;&gt;4 -->
<g id="edge4" class="edge">
<title>9&#45;&gt;4</title>
<path fill="none" stroke="#000000" d="M157,-532.4006C157,-520.2949 157,-504.2076 157,-490.4674"/>
<polygon fill="#000000" stroke="#000000" points="160.5001,-490.072 157,-480.072 153.5001,-490.0721 160.5001,-490.072"/>
<text text-anchor="middle" x="167.5" y="-502.2" font-family="Times,serif" font-size="14.00" fill="#000000">292</text>
</g>
<!-- 5 -->
<g id="node15" class="node">
<title>5</title>
<ellipse fill="none" stroke="#ff0000" cx="247" cy="-462" rx="27" ry="18"/>
<text text-anchor="middle" x="247" y="-457.8" font-family="Times,serif" font-size="14.00" fill="#000000">5</text>
</g>
<!-- 9&#45;&gt;5 -->
<g id="edge5" class="edge">
<title>9&#45;&gt;5</title>
<path fill="none" stroke="#000000" d="M172.2673,-535.7363C186.4898,-521.7034 207.8847,-500.5938 224.143,-484.5522"/>
<polygon fill="#000000" stroke="#000000" points="226.9977,-486.6525 231.6578,-477.1376 222.0812,-481.6696 226.9977,-486.6525"/>
<text text-anchor="middle" x="220.5" y="-502.2" font-family="Times,serif" font-size="14.00" fill="#000000">288</text>
</g>
<!-- 3 -->
<g id="node6" class="node">
<title>3</title>
<ellipse fill="none" stroke="#ff0000" cx="49" cy="-373.2" rx="27" ry="18"/>
<text text-anchor="middle" x="49" y="-369" font-family="Times,serif" font-size="14.00" fill="#000000">3</text>
</g>
<!-- 4&#45;&gt;3 -->
<g id="edge6" class="edge">
<title>4&#45;&gt;3</title>
<path fill="none" stroke="#000000" d="M138.9494,-448.5724C130.124,-441.9068 119.4036,-433.6597 110,-426 97.5911,-415.8923 84.1067,-404.2885 72.9791,-394.5379"/>
<polygon fill="#000000" stroke="#000000" points="75.1603,-391.795 65.3421,-387.8133 70.5343,-397.0487 75.1603,-391.795"/>
<text text-anchor="middle" x="120.5" y="-413.4" font-family="Times,serif" font-size="14.00" fill="#000000">287</text>
</g>
<!-- 12 -->
<g id="node13" class="node">
<title>12</title>
<ellipse fill="none" stroke="#ff0000" cx="121" cy="-373.2" rx="27" ry="18"/>
<text text-anchor="middle" x="121" y="-369" font-family="Times,serif" font-size="14.00" fill="#000000">12</text>
</g>
<!-- 4&#45;&gt;12 -->
<g id="edge7" class="edge">
<title>4&#45;&gt;12</title>
<path fill="none" stroke="#000000" d="M149.8876,-444.456C144.7596,-431.8071 137.7433,-414.5002 131.9097,-400.1105"/>
<polygon fill="#000000" stroke="#000000" points="135.0984,-398.66 128.0977,-390.7076 128.6112,-401.29 135.0984,-398.66"/>
<text text-anchor="middle" x="152.5" y="-413.4" font-family="Times,serif" font-size="14.00" fill="#000000">291</text>
</g>
<!-- 13 -->
<g id="node14" class="node">
<title>13</title>
<ellipse fill="none" stroke="#ff0000" cx="193" cy="-373.2" rx="27" ry="18"/>
<text text-anchor="middle" x="193" y="-369" font-family="Times,serif" font-size="14.00" fill="#000000">13</text>
</g>
<!-- 4&#45;&gt;13 -->
<g id="edge8" class="edge">
<title>4&#45;&gt;13</title>
<path fill="none" stroke="#000000" d="M164.1124,-444.456C169.2404,-431.8071 176.2567,-414.5002 182.0903,-400.1105"/>
<polygon fill="#000000" stroke="#000000" points="185.3888,-401.29 185.9023,-390.7076 178.9016,-398.66 185.3888,-401.29"/>
<text text-anchor="middle" x="188.5" y="-413.4" font-family="Times,serif" font-size="14.00" fill="#000000">293</text>
</g>
<!-- 1 -->
<g id="node7" class="node">
<title>1</title>
<ellipse fill="none" stroke="#ff0000" cx="27" cy="-284.4" rx="27" ry="18"/>
<text text-anchor="middle" x="27" y="-280.2" font-family="Times,serif" font-size="14.00" fill="#000000">1</text>
</g>
<!-- 3&#45;&gt;1 -->
<g id="edge9" class="edge">
<title>3&#45;&gt;1</title>
<path fill="none" stroke="#000000" d="M44.548,-355.23C41.5064,-342.953 37.4146,-326.4372 33.9474,-312.4421"/>
<polygon fill="#000000" stroke="#000000" points="37.2475,-311.2081 31.4454,-302.3433 30.453,-312.8915 37.2475,-311.2081"/>
<text text-anchor="middle" x="50.5" y="-324.6" font-family="Times,serif" font-size="14.00" fill="#000000">292</text>
</g>
<!-- 8 -->
<g id="node8" class="node">
<title>8</title>
<ellipse fill="none" stroke="#ff0000" cx="99" cy="-284.4" rx="27" ry="18"/>
<text text-anchor="middle" x="99" y="-280.2" font-family="Times,serif" font-size="14.00" fill="#000000">8</text>
</g>
<!-- 3&#45;&gt;8 -->
<g id="edge10" class="edge">
<title>3&#45;&gt;8</title>
<path fill="none" stroke="#000000" d="M58.6405,-356.0785C65.9034,-343.1795 75.9902,-325.2655 84.2627,-310.5734"/>
<polygon fill="#000000" stroke="#000000" points="87.5325,-311.8999 89.3891,-301.469 81.4329,-308.4654 87.5325,-311.8999"/>
<text text-anchor="middle" x="89.5" y="-324.6" font-family="Times,serif" font-size="14.00" fill="#000000">294</text>
</g>
<!-- 6 -->
<g id="node9" class="node">
<title>6</title>
<ellipse fill="none" stroke="#ff0000" cx="70" cy="-195.6" rx="27" ry="18"/>
<text text-anchor="middle" x="70" y="-191.4" font-family="Times,serif" font-size="14.00" fill="#000000">6</text>
</g>
<!-- 8&#45;&gt;6 -->
<g id="edge11" class="edge">
<title>8&#45;&gt;6</title>
<path fill="none" stroke="#000000" d="M91.8304,-266.9427C89.5295,-261.0914 87.0486,-254.5031 85,-248.4 82.3135,-240.3964 79.69,-231.6089 77.4076,-223.5385"/>
<polygon fill="#000000" stroke="#000000" points="80.7571,-222.5191 74.7199,-213.8126 74.01,-224.3837 80.7571,-222.5191"/>
<text text-anchor="middle" x="95.5" y="-235.8" font-family="Times,serif" font-size="14.00" fill="#000000">293</text>
</g>
<!-- 15 -->
<g id="node10" class="node">
<title>15</title>
<ellipse fill="none" stroke="#ff0000" cx="142" cy="-195.6" rx="27" ry="18"/>
<text text-anchor="middle" x="142" y="-191.4" font-family="Times,serif" font-size="14.00" fill="#000000">15</text>
</g>
<!-- 8&#45;&gt;15 -->
<g id="edge12" class="edge">
<title>8&#45;&gt;15</title>
<path fill="none" stroke="#000000" d="M107.4954,-266.856C113.7195,-254.0025 122.2726,-236.3393 129.3059,-221.8148"/>
<polygon fill="#000000" stroke="#000000" points="132.4603,-223.3311 133.6685,-212.8054 126.1601,-220.2803 132.4603,-223.3311"/>
<text text-anchor="middle" x="134.5" y="-235.8" font-family="Times,serif" font-size="14.00" fill="#000000">293</text>
</g>
<!-- 14 -->
<g id="node11" class="node">
<title>14</title>
<ellipse fill="none" stroke="#ff0000" cx="142" cy="-106.8" rx="27" ry="18"/>
<text text-anchor="middle" x="142" y="-102.6" font-family="Times,serif" font-size="14.00" fill="#000000">14</text>
</g>
<!-- 15&#45;&gt;14 -->
<g id="edge13" class="edge">
<title>15&#45;&gt;14</title>
<path fill="none" stroke="#000000" d="M142,-177.2006C142,-165.0949 142,-149.0076 142,-135.2674"/>
<polygon fill="#000000" stroke="#000000" points="145.5001,-134.872 142,-124.872 138.5001,-134.8721 145.5001,-134.872"/>
<text text-anchor="middle" x="152.5" y="-147" font-family="Times,serif" font-size="14.00" fill="#000000">292</text>
</g>
<!-- 16 -->
<g id="node12" class="node">
<title>16</title>
<ellipse fill="none" stroke="#ff0000" cx="142" cy="-18" rx="27" ry="18"/>
<text text-anchor="middle" x="142" y="-13.8" font-family="Times,serif" font-size="14.00" fill="#000000">16</text>
</g>
<!-- 14&#45;&gt;16 -->
<g id="edge14" class="edge">
<title>14&#45;&gt;16</title>
<path fill="none" stroke="#000000" d="M142,-88.4006C142,-76.2949 142,-60.2076 142,-46.4674"/>
<polygon fill="#000000" stroke="#000000" points="145.5001,-46.072 142,-36.072 138.5001,-46.0721 145.5001,-46.072"/>
<text text-anchor="middle" x="152.5" y="-58.2" font-family="Times,serif" font-size="14.00" fill="#000000">294</text>
</g>
<!-- 7 -->
<g id="node16" class="node">
<title>7</title>
<ellipse fill="none" stroke="#ff0000" cx="265" cy="-373.2" rx="27" ry="18"/>
<text text-anchor="middle" x="265" y="-369" font-family="Times,serif" font-size="14.00" fill="#000000">7</text>
</g>
<!-- 5&#45;&gt;7 -->
<g id="edge15" class="edge">
<title>5&#45;&gt;7</title>
<path fill="none" stroke="#000000" d="M250.6426,-444.03C253.1311,-431.753 256.4789,-415.2372 259.3158,-401.2421"/>
<polygon fill="#000000" stroke="#000000" points="262.8064,-401.6393 261.3628,-391.1433 255.9459,-400.2486 262.8064,-401.6393"/>
<text text-anchor="middle" x="267.5" y="-413.4" font-family="Times,serif" font-size="14.00" fill="#000000">294</text>
</g>
</g>
</svg>
