<svg width="600px" height="1245px"
 viewBox="0.00 0.00 278.00 576.80" xmlns="http://www.w3.org/2000/svg" xmlns:xlink="http://www.w3.org/1999/xlink">
<g id="graph0" class="graph" transform="scale(1.0 1.0) rotate(0) translate(4 572.8)">
<title>%0</title>
<polygon fill="#ffffff" stroke="transparent" points="-4,4 -4,-572.8 274,-572.8 274,4 -4,4"/>
<!-- 11 -->
<g id="node1" class="node">
<title>11</title>
<ellipse fill="none" stroke="#ff0000" cx="185" cy="-550.8" rx="27" ry="18"/>
<text text-anchor="middle" x="185" y="-546.6" font-family="Times,serif" font-size="14.00" fill="#000000">11</text>
</g>
<!-- 5 -->
<g id="node2" class="node">
<title>5</title>
<ellipse fill="none" stroke="#ff0000" cx="135" cy="-462" rx="27" ry="18"/>
<text text-anchor="middle" x="135" y="-457.8" font-family="Times,serif" font-size="14.00" fill="#000000">5</text>
</g>
<!-- 11&#45;&gt;5 -->
<g id="edge1" class="edge">
<title>11&#45;&gt;5</title>
<path fill="none" stroke="#000000" d="M175.3595,-533.6785C168.0966,-520.7795 158.0098,-502.8655 149.7373,-488.1734"/>
<polygon fill="#000000" stroke="#000000" points="152.5671,-486.0654 144.6109,-479.069 146.4675,-489.4999 152.5671,-486.0654"/>
<text text-anchor="middle" x="174.5" y="-502.2" font-family="Times,serif" font-size="14.00" fill="#000000">292</text>
</g>
<!-- 16 -->
<g id="node16" class="node">
<title>16</title>
<ellipse fill="none" stroke="#ff0000" cx="207" cy="-462" rx="27" ry="18"/>
<text text-anchor="middle" x="207" y="-457.8" font-family="Times,serif" font-size="14.00" fill="#000000">16</text>
</g>
<!-- 11&#45;&gt;16 -->
<g id="edge2" class="edge">
<title>11&#45;&gt;16</title>
<path fill="none" stroke="#000000" d="M189.452,-532.83C192.4936,-520.553 196.5854,-504.0372 200.0526,-490.0421"/>
<polygon fill="#000000" stroke="#000000" points="203.547,-490.4915 202.5546,-479.9433 196.7525,-488.8081 203.547,-490.4915"/>
<text text-anchor="middle" x="207.5" y="-502.2" font-family="Times,serif" font-size="14.00" fill="#000000">289</text>
</g>
<!-- 10 -->
<g id="node3" class="node">
<title>10</title>
<ellipse fill="none" stroke="#ff0000" cx="135" cy="-373.2" rx="27" ry="18"/>
<text text-anchor="middle" x="135" y="-369" font-family="Times,serif" font-size="14.00" fill="#000000">10</text>
</g>
<!-- 5&#45;&gt;10 -->
<g id="edge3" class="edge">
<title>5&#45;&gt;10</title>
<path fill="none" stroke="#000000" d="M135,-443.6006C135,-431.4949 135,-415.4076 135,-401.6674"/>
<polygon fill="#000000" stroke="#000000" points="138.5001,-401.272 135,-391.272 131.5001,-401.2721 138.5001,-401.272"/>
<text text-anchor="middle" x="145.5" y="-413.4" font-family="Times,serif" font-size="14.00" fill="#000000">290</text>
</g>
<!-- 8 -->
<g id="node4" class="node">
<title>8</title>
<ellipse fill="none" stroke="#ff0000" cx="99" cy="-284.4" rx="27" ry="18"/>
<text text-anchor="middle" x="99" y="-280.2" font-family="Times,serif" font-size="14.00" fill="#000000">8</text>
</g>
<!-- 10&#45;&gt;8 -->
<g id="edge4" class="edge">
<title>10&#45;&gt;8</title>
<path fill="none" stroke="#000000" d="M127.8876,-355.656C122.7596,-343.0071 115.7433,-325.7002 109.9097,-311.3105"/>
<polygon fill="#000000" stroke="#000000" points="113.0984,-309.86 106.0977,-301.9076 106.6112,-312.49 113.0984,-309.86"/>
<text text-anchor="middle" x="131.5" y="-324.6" font-family="Times,serif" font-size="14.00" fill="#000000">291</text>
</g>
<!-- 15 -->
<g id="node9" class="node">
<title>15</title>
<ellipse fill="none" stroke="#ff0000" cx="171" cy="-284.4" rx="27" ry="18"/>
<text text-anchor="middle" x="171" y="-280.2" font-family="Times,serif" font-size="14.00" fill="#000000">15</text>
</g>
<!-- 10&#45;&gt;15 -->
<g id="edge5" class="edge">
<title>10&#45;&gt;15</title>
<path fill="none" stroke="#000000" d="M142.1124,-355.656C147.2404,-343.0071 154.2567,-325.7002 160.0903,-311.3105"/>
<polygon fill="#000000" stroke="#000000" points="163.3888,-312.49 163.9023,-301.9076 156.9016,-309.86 163.3888,-312.49"/>
<text text-anchor="middle" x="167.5" y="-324.6" font-family="Times,serif" font-size="14.00" fill="#000000">289</text>
</g>
<!-- 3 -->
<g id="node5" class="node">
<title>3</title>
<ellipse fill="none" stroke="#ff0000" cx="99" cy="-195.6" rx="27" ry="18"/>
<text text-anchor="middle" x="99" y="-191.4" font-family="Times,serif" font-size="14.00" fill="#000000">3</text>
</g>
<!-- 8&#45;&gt;3 -->
<g id="edge6" class="edge">
<title>8&#45;&gt;3</title>
<path fill="none" stroke="#000000" d="M99,-266.0006C99,-253.8949 99,-237.8076 99,-224.0674"/>
<polygon fill="#000000" stroke="#000000" points="102.5001,-223.672 99,-213.672 95.5001,-223.6721 102.5001,-223.672"/>
<text text-anchor="middle" x="109.5" y="-235.8" font-family="Times,serif" font-size="14.00" fill="#000000">288</text>
</g>
<!-- 6 -->
<g id="node6" class="node">
<title>6</title>
<ellipse fill="none" stroke="#ff0000" cx="99" cy="-106.8" rx="27" ry="18"/>
<text text-anchor="middle" x="99" y="-102.6" font-family="Times,serif" font-size="14.00" fill="#000000">6</text>
</g>
<!-- 3&#45;&gt;6 -->
<g id="edge7" class="edge">
<title>3&#45;&gt;6</title>
<path fill="none" stroke="#000000" d="M99,-177.2006C99,-165.0949 99,-149.0076 99,-135.2674"/>
<polygon fill="#000000" stroke="#000000" points="102.5001,-134.872 99,-124.872 95.5001,-134.8721 102.5001,-134.872"/>
<text text-anchor="middle" x="109.5" y="-147" font-family="Times,serif" font-size="14.00" fill="#000000">292</text>
</g>
<!-- 7 -->
<g id="node7" class="node">
<title>7</title>
<ellipse fill="none" stroke="#ff0000" cx="27" cy="-18" rx="27" ry="18"/>
<text text-anchor="middle" x="27" y="-13.8" font-family="Times,serif" font-size="14.00" fill="#000000">7</text>
</g>
<!-- 6&#45;&gt;7 -->
<g id="edge8" class="edge">
<title>6&#45;&gt;7</title>
<path fill="none" stroke="#000000" d="M86.1278,-90.9243C75.1384,-77.3707 59.1627,-57.6674 46.587,-42.1573"/>
<polygon fill="#000000" stroke="#000000" points="49.0202,-39.6009 40.0035,-34.0376 43.5829,-44.0095 49.0202,-39.6009"/>
<text text-anchor="middle" x="80.5" y="-58.2" font-family="Times,serif" font-size="14.00" fill="#000000">289</text>
</g>
<!-- 13 -->
<g id="node8" class="node">
<title>13</title>
<ellipse fill="none" stroke="#ff0000" cx="99" cy="-18" rx="27" ry="18"/>
<text text-anchor="middle" x="99" y="-13.8" font-family="Times,serif" font-size="14.00" fill="#000000">13</text>
</g>
<!-- 6&#45;&gt;13 -->
<g id="edge9" class="edge">
<title>6&#45;&gt;13</title>
<path fill="none" stroke="#000000" d="M99,-88.4006C99,-76.2949 99,-60.2076 99,-46.4674"/>
<polygon fill="#000000" stroke="#000000" points="102.5001,-46.072 99,-36.072 95.5001,-46.0721 102.5001,-46.072"/>
<text text-anchor="middle" x="109.5" y="-58.2" font-family="Times,serif" font-size="14.00" fill="#000000">294</text>
</g>
<!-- 1 -->
<g id="node10" class="node">
<title>1</title>
<ellipse fill="none" stroke="#ff0000" cx="171" cy="-195.6" rx="27" ry="18"/>
<text text-anchor="middle" x="171" y="-191.4" font-family="Times,serif" font-size="14.00" fill="#000000">1</text>
</g>
<!-- 15&#45;&gt;1 -->
<g id="edge10" class="edge">
<title>15&#45;&gt;1</title>
<path fill="none" stroke="#000000" d="M171,-266.0006C171,-253.8949 171,-237.8076 171,-224.0674"/>
<polygon fill="#000000" stroke="#000000" points="174.5001,-223.672 171,-213.672 167.5001,-223.6721 174.5001,-223.672"/>
<text text-anchor="middle" x="181.5" y="-235.8" font-family="Times,serif" font-size="14.00" fill="#000000">291</text>
</g>
<!-- 14 -->
<g id="node15" class="node">
<title>14</title>
<ellipse fill="none" stroke="#ff0000" cx="243" cy="-195.6" rx="27" ry="18"/>
<text text-anchor="middle" x="243" y="-191.4" font-family="Times,serif" font-size="14.00" fill="#000000">14</text>
</g>
<!-- 15&#45;&gt;14 -->
<g id="edge11" class="edge">
<title>15&#45;&gt;14</title>
<path fill="none" stroke="#000000" d="M183.8722,-268.5243C194.8616,-254.9707 210.8373,-235.2674 223.413,-219.7573"/>
<polygon fill="#000000" stroke="#000000" points="226.4171,-221.6095 229.9965,-211.6376 220.9798,-217.2009 226.4171,-221.6095"/>
<text text-anchor="middle" x="223.5" y="-235.8" font-family="Times,serif" font-size="14.00" fill="#000000">291</text>
</g>
<!-- 4 -->
<g id="node11" class="node">
<title>4</title>
<ellipse fill="none" stroke="#ff0000" cx="171" cy="-106.8" rx="27" ry="18"/>
<text text-anchor="middle" x="171" y="-102.6" font-family="Times,serif" font-size="14.00" fill="#000000">4</text>
</g>
<!-- 1&#45;&gt;4 -->
<g id="edge12" class="edge">
<title>1&#45;&gt;4</title>
<path fill="none" stroke="#000000" d="M171,-177.2006C171,-165.0949 171,-149.0076 171,-135.2674"/>
<polygon fill="#000000" stroke="#000000" points="174.5001,-134.872 171,-124.872 167.5001,-134.8721 174.5001,-134.872"/>
<text text-anchor="middle" x="181.5" y="-147" font-family="Times,serif" font-size="14.00" fill="#000000">291</text>
</g>
<!-- 9 -->
<g id="node13" class="node">
<title>9</title>
<ellipse fill="none" stroke="#ff0000" cx="243" cy="-106.8" rx="27" ry="18"/>
<text text-anchor="middle" x="243" y="-102.6" font-family="Times,serif" font-size="14.00" fill="#000000">9</text>
</g>
<!-- 1&#45;&gt;9 -->
<g id="edge13" class="edge">
<title>1&#45;&gt;9</title>
<path fill="none" stroke="#000000" d="M183.8722,-179.7243C194.8616,-166.1707 210.8373,-146.4674 223.413,-130.9573"/>
<polygon fill="#000000" stroke="#000000" points="226.4171,-132.8095 229.9965,-122.8376 220.9798,-128.4009 226.4171,-132.8095"/>
<text text-anchor="middle" x="223.5" y="-147" font-family="Times,serif" font-size="14.00" fill="#000000">292</text>
</g>
<!-- 12 -->
<g id="node12" class="node">
<title>12</title>
<ellipse fill="none" stroke="#ff0000" cx="171" cy="-18" rx="27" ry="18"/>
<text text-anchor="middle" x="171" y="-13.8" font-family="Times,serif" font-size="14.00" fill="#000000">12</text>
</g>
<!-- 4&#45;&gt;12 -->
<g id="edge14" class="edge">
<title>4&#45;&gt;12</title>
<path fill="none" stroke="#000000" d="M171,-88.4006C171,-76.2949 171,-60.2076 171,-46.4674"/>
<polygon fill="#000000" stroke="#000000" points="174.5001,-46.072 171,-36.072 167.5001,-46.0721 174.5001,-46.072"/>
<text text-anchor="middle" x="181.5" y="-58.2" font-family="Times,serif" font-size="14.00" fill="#000000">294</text>
</g>
<!-- 2 -->
<g id="node14" class="node">
<title>2</title>
<ellipse fill="none" stroke="#ff0000" cx="243" cy="-18" rx="27" ry="18"/>
<text text-anchor="middle" x="243" y="-13.8" font-family="Times,serif" font-size="14.00" fill="#000000">2</text>
</g>
<!-- 9&#45;&gt;2 -->
<g id="edge15" class="edge">
<title>9&#45;&gt;2</title>
<path fill="none" stroke="#000000" d="M243,-88.4006C243,-76.2949 243,-60.2076 243,-46.4674"/>
<polygon fill="#000000" stroke="#000000" points="246.5001,-46.072 243,-36.072 239.5001,-46.0721 246.5001,-46.072"/>
<text text-anchor="middle" x="253.5" y="-58.2" font-family="Times,serif" font-size="14.00" fill="#000000">288</text>
</g>
</g>
</svg>
