<svg width="600px" height="1775px"
 viewBox="0.00 0.00 285.00 843.20" xmlns="http://www.w3.org/2000/svg" xmlns:xlink="http://www.w3.org/1999/xlink">
<g id="graph0" class="graph" transform="scale(1.0 1.0) rotate(0) translate(4 839.2)">
<title>%0</title>
<polygon fill="#ffffff" stroke="transparent" points="-4,4 -4,-839.2 281,-839.2 281,4 -4,4"/>
<!-- 14 -->
<g id="node1" class="node">
<title>14</title>
<ellipse fill="none" stroke="#ff0000" cx="185" cy="-817.2" rx="27" ry="18"/>
<text text-anchor="middle" x="185" y="-813" font-family="Times,serif" font-size="14.00" fill="#000000">14</text>
</g>
<!-- 76 -->
<g id="node2" class="node">
<title>76</title>
<ellipse fill="none" stroke="#000000" cx="185" cy="-728.4" rx="27" ry="18"/>
<text text-anchor="middle" x="185" y="-724.2" font-family="Times,serif" font-size="14.00" fill="#000000">76</text>
</g>
<!-- 14&#45;&gt;76 -->
<g id="edge1" class="edge">
<title>14&#45;&gt;76</title>
<path fill="none" stroke="#000000" d="M185,-798.8006C185,-786.6949 185,-770.6076 185,-756.8674"/>
<polygon fill="#000000" stroke="#000000" points="188.5001,-756.472 185,-746.472 181.5001,-756.4721 188.5001,-756.472"/>
<text text-anchor="middle" x="195.5" y="-768.6" font-family="Times,serif" font-size="14.00" fill="#000000">199</text>
</g>
<!-- 12 -->
<g id="node3" class="node">
<title>12</title>
<ellipse fill="none" stroke="#ff0000" cx="149" cy="-639.6" rx="27" ry="18"/>
<text text-anchor="middle" x="149" y="-635.4" font-family="Times,serif" font-size="14.00" fill="#000000">12</text>
</g>
<!-- 76&#45;&gt;12 -->
<g id="edge2" class="edge">
<title>76&#45;&gt;12</title>
<path fill="none" stroke="#000000" d="M177.8876,-710.856C172.7596,-698.2071 165.7433,-680.9002 159.9097,-666.5105"/>
<polygon fill="#000000" stroke="#000000" points="163.0984,-665.06 156.0977,-657.1076 156.6112,-667.69 163.0984,-665.06"/>
<text text-anchor="middle" x="181.5" y="-679.8" font-family="Times,serif" font-size="14.00" fill="#000000">196</text>
</g>
<!-- 15 -->
<g id="node5" class="node">
<title>15</title>
<ellipse fill="none" stroke="#ff0000" cx="221" cy="-639.6" rx="27" ry="18"/>
<text text-anchor="middle" x="221" y="-635.4" font-family="Times,serif" font-size="14.00" fill="#000000">15</text>
</g>
<!-- 76&#45;&gt;15 -->
<g id="edge3" class="edge">
<title>76&#45;&gt;15</title>
<path fill="none" stroke="#000000" d="M192.1124,-710.856C197.2404,-698.2071 204.2567,-680.9002 210.0903,-666.5105"/>
<polygon fill="#000000" stroke="#000000" points="213.3888,-667.69 213.9023,-657.1076 206.9016,-665.06 213.3888,-667.69"/>
<text text-anchor="middle" x="217.5" y="-679.8" font-family="Times,serif" font-size="14.00" fill="#000000">193</text>
</g>
<!-- 16 -->
<g id="node4" class="node">
<title>16</title>
<ellipse fill="none" stroke="#ff0000" cx="149" cy="-550.8" rx="27" ry="18"/>
<text text-anchor="middle" x="149" y="-546.6" font-family="Times,serif" font-size="14.00" fill="#000000">16</text>
</g>
<!-- 12&#45;&gt;16 -->
<g id="edge4" class="edge">
<title>12&#45;&gt;16</title>
<path fill="none" stroke="#000000" d="M149,-621.2006C149,-609.0949 149,-593.0076 149,-579.2674"/>
<polygon fill="#000000" stroke="#000000" points="152.5001,-578.872 149,-568.872 145.5001,-578.8721 152.5001,-578.872"/>
<text text-anchor="middle" x="159.5" y="-591" font-family="Times,serif" font-size="14.00" fill="#000000">299</text>
</g>
<!-- 67 -->
<g id="node6" class="node">
<title>67</title>
<ellipse fill="none" stroke="#000000" cx="221" cy="-550.8" rx="27" ry="18"/>
<text text-anchor="middle" x="221" y="-546.6" font-family="Times,serif" font-size="14.00" fill="#000000">67</text>
</g>
<!-- 15&#45;&gt;67 -->
<g id="edge5" class="edge">
<title>15&#45;&gt;67</title>
<path fill="none" stroke="#000000" d="M221,-621.2006C221,-609.0949 221,-593.0076 221,-579.2674"/>
<polygon fill="#000000" stroke="#000000" points="224.5001,-578.872 221,-568.872 217.5001,-578.8721 224.5001,-578.872"/>
<text text-anchor="middle" x="231.5" y="-591" font-family="Times,serif" font-size="14.00" fill="#000000">203</text>
</g>
<!-- 3 -->
<g id="node7" class="node">
<title>3</title>
<ellipse fill="none" stroke="#ff0000" cx="178" cy="-462" rx="27" ry="18"/>
<text text-anchor="middle" x="178" y="-457.8" font-family="Times,serif" font-size="14.00" fill="#000000">3</text>
</g>
<!-- 67&#45;&gt;3 -->
<g id="edge6" class="edge">
<title>67&#45;&gt;3</title>
<path fill="none" stroke="#000000" d="M212.5046,-533.256C206.2805,-520.4025 197.7274,-502.7393 190.6941,-488.2148"/>
<polygon fill="#000000" stroke="#000000" points="193.8399,-486.6803 186.3315,-479.2054 187.5397,-489.7311 193.8399,-486.6803"/>
<text text-anchor="middle" x="214.5" y="-502.2" font-family="Times,serif" font-size="14.00" fill="#000000">195</text>
</g>
<!-- 7 -->
<g id="node20" class="node">
<title>7</title>
<ellipse fill="none" stroke="#ff0000" cx="250" cy="-462" rx="27" ry="18"/>
<text text-anchor="middle" x="250" y="-457.8" font-family="Times,serif" font-size="14.00" fill="#000000">7</text>
</g>
<!-- 67&#45;&gt;7 -->
<g id="edge7" class="edge">
<title>67&#45;&gt;7</title>
<path fill="none" stroke="#000000" d="M226.8686,-532.83C230.9439,-520.3511 236.4494,-503.4928 241.0669,-489.3536"/>
<polygon fill="#000000" stroke="#000000" points="244.4617,-490.2327 244.2391,-479.6402 237.8076,-488.0596 244.4617,-490.2327"/>
<text text-anchor="middle" x="248.5" y="-502.2" font-family="Times,serif" font-size="14.00" fill="#000000">185</text>
</g>
<!-- 1 -->
<g id="node8" class="node">
<title>1</title>
<ellipse fill="none" stroke="#ff0000" cx="106" cy="-373.2" rx="27" ry="18"/>
<text text-anchor="middle" x="106" y="-369" font-family="Times,serif" font-size="14.00" fill="#000000">1</text>
</g>
<!-- 3&#45;&gt;1 -->
<g id="edge8" class="edge">
<title>3&#45;&gt;1</title>
<path fill="none" stroke="#000000" d="M165.1278,-446.1243C154.1384,-432.5707 138.1627,-412.8674 125.587,-397.3573"/>
<polygon fill="#000000" stroke="#000000" points="128.0202,-394.8009 119.0035,-389.2376 122.5829,-399.2095 128.0202,-394.8009"/>
<text text-anchor="middle" x="159.5" y="-413.4" font-family="Times,serif" font-size="14.00" fill="#000000">292</text>
</g>
<!-- 23 -->
<g id="node9" class="node">
<title>23</title>
<ellipse fill="none" stroke="#000000" cx="178" cy="-373.2" rx="27" ry="18"/>
<text text-anchor="middle" x="178" y="-369" font-family="Times,serif" font-size="14.00" fill="#000000">23</text>
</g>
<!-- 3&#45;&gt;23 -->
<g id="edge9" class="edge">
<title>3&#45;&gt;23</title>
<path fill="none" stroke="#000000" d="M178,-443.6006C178,-431.4949 178,-415.4076 178,-401.6674"/>
<polygon fill="#000000" stroke="#000000" points="181.5001,-401.272 178,-391.272 174.5001,-401.2721 181.5001,-401.272"/>
<text text-anchor="middle" x="188.5" y="-413.4" font-family="Times,serif" font-size="14.00" fill="#000000">193</text>
</g>
<!-- 11 -->
<g id="node19" class="node">
<title>11</title>
<ellipse fill="none" stroke="#ff0000" cx="250" cy="-373.2" rx="27" ry="18"/>
<text text-anchor="middle" x="250" y="-369" font-family="Times,serif" font-size="14.00" fill="#000000">11</text>
</g>
<!-- 3&#45;&gt;11 -->
<g id="edge10" class="edge">
<title>3&#45;&gt;11</title>
<path fill="none" stroke="#000000" d="M190.8722,-446.1243C201.8616,-432.5707 217.8373,-412.8674 230.413,-397.3573"/>
<polygon fill="#000000" stroke="#000000" points="233.4171,-399.2095 236.9965,-389.2376 227.9798,-394.8009 233.4171,-399.2095"/>
<text text-anchor="middle" x="231.5" y="-413.4" font-family="Times,serif" font-size="14.00" fill="#000000">292</text>
</g>
<!-- 4 -->
<g id="node10" class="node">
<title>4</title>
<ellipse fill="none" stroke="#ff0000" cx="135" cy="-284.4" rx="27" ry="18"/>
<text text-anchor="middle" x="135" y="-280.2" font-family="Times,serif" font-size="14.00" fill="#000000">4</text>
</g>
<!-- 23&#45;&gt;4 -->
<g id="edge11" class="edge">
<title>23&#45;&gt;4</title>
<path fill="none" stroke="#000000" d="M169.5046,-355.656C163.2805,-342.8025 154.7274,-325.1393 147.6941,-310.6148"/>
<polygon fill="#000000" stroke="#000000" points="150.8399,-309.0803 143.3315,-301.6054 144.5397,-312.1311 150.8399,-309.0803"/>
<text text-anchor="middle" x="171.5" y="-324.6" font-family="Times,serif" font-size="14.00" fill="#000000">199</text>
</g>
<!-- 6 -->
<g id="node18" class="node">
<title>6</title>
<ellipse fill="none" stroke="#ff0000" cx="207" cy="-284.4" rx="27" ry="18"/>
<text text-anchor="middle" x="207" y="-280.2" font-family="Times,serif" font-size="14.00" fill="#000000">6</text>
</g>
<!-- 23&#45;&gt;6 -->
<g id="edge12" class="edge">
<title>23&#45;&gt;6</title>
<path fill="none" stroke="#000000" d="M183.8686,-355.23C187.9439,-342.7511 193.4494,-325.8928 198.0669,-311.7536"/>
<polygon fill="#000000" stroke="#000000" points="201.4617,-312.6327 201.2391,-302.0402 194.8076,-310.4596 201.4617,-312.6327"/>
<text text-anchor="middle" x="206.5" y="-324.6" font-family="Times,serif" font-size="14.00" fill="#000000">203</text>
</g>
<!-- 49 -->
<g id="node11" class="node">
<title>49</title>
<ellipse fill="none" stroke="#000000" cx="99" cy="-195.6" rx="27" ry="18"/>
<text text-anchor="middle" x="99" y="-191.4" font-family="Times,serif" font-size="14.00" fill="#000000">49</text>
</g>
<!-- 4&#45;&gt;49 -->
<g id="edge13" class="edge">
<title>4&#45;&gt;49</title>
<path fill="none" stroke="#000000" d="M127.8876,-266.856C122.7596,-254.2071 115.7433,-236.9002 109.9097,-222.5105"/>
<polygon fill="#000000" stroke="#000000" points="113.0984,-221.06 106.0977,-213.1076 106.6112,-223.69 113.0984,-221.06"/>
<text text-anchor="middle" x="131.5" y="-235.8" font-family="Times,serif" font-size="14.00" fill="#000000">204</text>
</g>
<!-- 2 -->
<g id="node17" class="node">
<title>2</title>
<ellipse fill="none" stroke="#ff0000" cx="171" cy="-195.6" rx="27" ry="18"/>
<text text-anchor="middle" x="171" y="-191.4" font-family="Times,serif" font-size="14.00" fill="#000000">2</text>
</g>
<!-- 4&#45;&gt;2 -->
<g id="edge14" class="edge">
<title>4&#45;&gt;2</title>
<path fill="none" stroke="#000000" d="M142.1124,-266.856C147.2404,-254.2071 154.2567,-236.9002 160.0903,-222.5105"/>
<polygon fill="#000000" stroke="#000000" points="163.3888,-223.69 163.9023,-213.1076 156.9016,-221.06 163.3888,-223.69"/>
<text text-anchor="middle" x="167.5" y="-235.8" font-family="Times,serif" font-size="14.00" fill="#000000">301</text>
</g>
<!-- 8 -->
<g id="node12" class="node">
<title>8</title>
<ellipse fill="none" stroke="#ff0000" cx="27" cy="-106.8" rx="27" ry="18"/>
<text text-anchor="middle" x="27" y="-102.6" font-family="Times,serif" font-size="14.00" fill="#000000">8</text>
</g>
<!-- 49&#45;&gt;8 -->
<g id="edge15" class="edge">
<title>49&#45;&gt;8</title>
<path fill="none" stroke="#000000" d="M86.1278,-179.7243C75.1384,-166.1707 59.1627,-146.4674 46.587,-130.9573"/>
<polygon fill="#000000" stroke="#000000" points="49.0202,-128.4009 40.0035,-122.8376 43.5829,-132.8095 49.0202,-128.4009"/>
<text text-anchor="middle" x="80.5" y="-147" font-family="Times,serif" font-size="14.00" fill="#000000">194</text>
</g>
<!-- 9 -->
<g id="node13" class="node">
<title>9</title>
<ellipse fill="none" stroke="#ff0000" cx="99" cy="-106.8" rx="27" ry="18"/>
<text text-anchor="middle" x="99" y="-102.6" font-family="Times,serif" font-size="14.00" fill="#000000">9</text>
</g>
<!-- 49&#45;&gt;9 -->
<g id="edge16" class="edge">
<title>49&#45;&gt;9</title>
<path fill="none" stroke="#000000" d="M99,-177.2006C99,-165.0949 99,-149.0076 99,-135.2674"/>
<polygon fill="#000000" stroke="#000000" points="102.5001,-134.872 99,-124.872 95.5001,-134.8721 102.5001,-134.872"/>
<text text-anchor="middle" x="109.5" y="-147" font-family="Times,serif" font-size="14.00" fill="#000000">192</text>
</g>
<!-- 10 -->
<g id="node15" class="node">
<title>10</title>
<ellipse fill="none" stroke="#ff0000" cx="171" cy="-106.8" rx="27" ry="18"/>
<text text-anchor="middle" x="171" y="-102.6" font-family="Times,serif" font-size="14.00" fill="#000000">10</text>
</g>
<!-- 49&#45;&gt;10 -->
<g id="edge17" class="edge">
<title>49&#45;&gt;10</title>
<path fill="none" stroke="#000000" d="M111.8722,-179.7243C122.8616,-166.1707 138.8373,-146.4674 151.413,-130.9573"/>
<polygon fill="#000000" stroke="#000000" points="154.4171,-132.8095 157.9965,-122.8376 148.9798,-128.4009 154.4171,-132.8095"/>
<text text-anchor="middle" x="152.5" y="-147" font-family="Times,serif" font-size="14.00" fill="#000000">203</text>
</g>
<!-- 13 -->
<g id="node14" class="node">
<title>13</title>
<ellipse fill="none" stroke="#ff0000" cx="99" cy="-18" rx="27" ry="18"/>
<text text-anchor="middle" x="99" y="-13.8" font-family="Times,serif" font-size="14.00" fill="#000000">13</text>
</g>
<!-- 9&#45;&gt;13 -->
<g id="edge18" class="edge">
<title>9&#45;&gt;13</title>
<path fill="none" stroke="#000000" d="M99,-88.4006C99,-76.2949 99,-60.2076 99,-46.4674"/>
<polygon fill="#000000" stroke="#000000" points="102.5001,-46.072 99,-36.072 95.5001,-46.0721 102.5001,-46.072"/>
<text text-anchor="middle" x="109.5" y="-58.2" font-family="Times,serif" font-size="14.00" fill="#000000">290</text>
</g>
<!-- 5 -->
<g id="node16" class="node">
<title>5</title>
<ellipse fill="none" stroke="#ff0000" cx="171" cy="-18" rx="27" ry="18"/>
<text text-anchor="middle" x="171" y="-13.8" font-family="Times,serif" font-size="14.00" fill="#000000">5</text>
</g>
<!-- 10&#45;&gt;5 -->
<g id="edge19" class="edge">
<title>10&#45;&gt;5</title>
<path fill="none" stroke="#000000" d="M171,-88.4006C171,-76.2949 171,-60.2076 171,-46.4674"/>
<polygon fill="#000000" stroke="#000000" points="174.5001,-46.072 171,-36.072 167.5001,-46.0721 174.5001,-46.072"/>
<text text-anchor="middle" x="181.5" y="-58.2" font-family="Times,serif" font-size="14.00" fill="#000000">291</text>
</g>
</g>
</svg>
