<svg width="600px" height="916px"
 viewBox="0.00 0.00 494.00 754.40" xmlns="http://www.w3.org/2000/svg" xmlns:xlink="http://www.w3.org/1999/xlink">
<g id="graph0" class="graph" transform="scale(1.0 1.0) rotate(0) translate(4 750.4)">
<title>%0</title>
<polygon fill="#ffffff" stroke="transparent" points="-4,4 -4,-750.4 490,-750.4 490,4 -4,4"/>
<!-- 8 -->
<g id="node1" class="node">
<title>8</title>
<ellipse fill="none" stroke="#ff0000" cx="171" cy="-728.4" rx="27" ry="18"/>
<text text-anchor="middle" x="171" y="-724.2" font-family="Times,serif" font-size="14.00" fill="#000000">8</text>
</g>
<!-- 5 -->
<g id="node2" class="node">
<title>5</title>
<ellipse fill="none" stroke="#ff0000" cx="171" cy="-639.6" rx="27" ry="18"/>
<text text-anchor="middle" x="171" y="-635.4" font-family="Times,serif" font-size="14.00" fill="#000000">5</text>
</g>
<!-- 8&#45;&gt;5 -->
<g id="edge1" class="edge">
<title>8&#45;&gt;5</title>
<path fill="none" stroke="#000000" d="M171,-710.0006C171,-697.8949 171,-681.8076 171,-668.0674"/>
<polygon fill="#000000" stroke="#000000" points="174.5001,-667.672 171,-657.672 167.5001,-667.6721 174.5001,-667.672"/>
<text text-anchor="middle" x="181.5" y="-679.8" font-family="Times,serif" font-size="14.00" fill="#000000">301</text>
</g>
<!-- 72 -->
<g id="node3" class="node">
<title>72</title>
<ellipse fill="none" stroke="#000000" cx="171" cy="-550.8" rx="27" ry="18"/>
<text text-anchor="middle" x="171" y="-546.6" font-family="Times,serif" font-size="14.00" fill="#000000">72</text>
</g>
<!-- 5&#45;&gt;72 -->
<g id="edge2" class="edge">
<title>5&#45;&gt;72</title>
<path fill="none" stroke="#000000" d="M171,-621.2006C171,-609.0949 171,-593.0076 171,-579.2674"/>
<polygon fill="#000000" stroke="#000000" points="174.5001,-578.872 171,-568.872 167.5001,-578.8721 174.5001,-578.872"/>
<text text-anchor="middle" x="181.5" y="-591" font-family="Times,serif" font-size="14.00" fill="#000000">198</text>
</g>
<!-- 1 -->
<g id="node4" class="node">
<title>1</title>
<ellipse fill="none" stroke="#ff0000" cx="142" cy="-462" rx="27" ry="18"/>
<text text-anchor="middle" x="142" y="-457.8" font-family="Times,serif" font-size="14.00" fill="#000000">1</text>
</g>
<!-- 72&#45;&gt;1 -->
<g id="edge3" class="edge">
<title>72&#45;&gt;1</title>
<path fill="none" stroke="#000000" d="M163.8304,-533.3427C161.5295,-527.4914 159.0486,-520.9031 157,-514.8 154.3135,-506.7964 151.69,-498.0089 149.4076,-489.9385"/>
<polygon fill="#000000" stroke="#000000" points="152.7571,-488.9191 146.7199,-480.2126 146.01,-490.7837 152.7571,-488.9191"/>
<text text-anchor="middle" x="167.5" y="-502.2" font-family="Times,serif" font-size="14.00" fill="#000000">205</text>
</g>
<!-- 14 -->
<g id="node5" class="node">
<title>14</title>
<ellipse fill="none" stroke="#ff0000" cx="214" cy="-462" rx="27" ry="18"/>
<text text-anchor="middle" x="214" y="-457.8" font-family="Times,serif" font-size="14.00" fill="#000000">14</text>
</g>
<!-- 72&#45;&gt;14 -->
<g id="edge4" class="edge">
<title>72&#45;&gt;14</title>
<path fill="none" stroke="#000000" d="M179.4954,-533.256C185.7195,-520.4025 194.2726,-502.7393 201.3059,-488.2148"/>
<polygon fill="#000000" stroke="#000000" points="204.4603,-489.7311 205.6685,-479.2054 198.1601,-486.6803 204.4603,-489.7311"/>
<text text-anchor="middle" x="206.5" y="-502.2" font-family="Times,serif" font-size="14.00" fill="#000000">197</text>
</g>
<!-- 9 -->
<g id="node6" class="node">
<title>9</title>
<ellipse fill="none" stroke="#ff0000" cx="214" cy="-373.2" rx="27" ry="18"/>
<text text-anchor="middle" x="214" y="-369" font-family="Times,serif" font-size="14.00" fill="#000000">9</text>
</g>
<!-- 14&#45;&gt;9 -->
<g id="edge5" class="edge">
<title>14&#45;&gt;9</title>
<path fill="none" stroke="#000000" d="M214,-443.6006C214,-431.4949 214,-415.4076 214,-401.6674"/>
<polygon fill="#000000" stroke="#000000" points="217.5001,-401.272 214,-391.272 210.5001,-401.2721 217.5001,-401.272"/>
<text text-anchor="middle" x="224.5" y="-413.4" font-family="Times,serif" font-size="14.00" fill="#000000">291</text>
</g>
<!-- 16 -->
<g id="node7" class="node">
<title>16</title>
<ellipse fill="none" stroke="#ff0000" cx="214" cy="-284.4" rx="27" ry="18"/>
<text text-anchor="middle" x="214" y="-280.2" font-family="Times,serif" font-size="14.00" fill="#000000">16</text>
</g>
<!-- 9&#45;&gt;16 -->
<g id="edge6" class="edge">
<title>9&#45;&gt;16</title>
<path fill="none" stroke="#000000" d="M214,-354.8006C214,-342.6949 214,-326.6076 214,-312.8674"/>
<polygon fill="#000000" stroke="#000000" points="217.5001,-312.472 214,-302.472 210.5001,-312.4721 217.5001,-312.472"/>
<text text-anchor="middle" x="224.5" y="-324.6" font-family="Times,serif" font-size="14.00" fill="#000000">299</text>
</g>
<!-- 18 -->
<g id="node8" class="node">
<title>18</title>
<ellipse fill="none" stroke="#000000" cx="142" cy="-195.6" rx="27" ry="18"/>
<text text-anchor="middle" x="142" y="-191.4" font-family="Times,serif" font-size="14.00" fill="#000000">18</text>
</g>
<!-- 16&#45;&gt;18 -->
<g id="edge7" class="edge">
<title>16&#45;&gt;18</title>
<path fill="none" stroke="#000000" d="M201.1278,-268.5243C190.1384,-254.9707 174.1627,-235.2674 161.587,-219.7573"/>
<polygon fill="#000000" stroke="#000000" points="164.0202,-217.2009 155.0035,-211.6376 158.5829,-221.6095 164.0202,-217.2009"/>
<text text-anchor="middle" x="194.5" y="-235.8" font-family="Times,serif" font-size="14.00" fill="#000000">199</text>
</g>
<!-- 42 -->
<g id="node14" class="node">
<title>42</title>
<ellipse fill="none" stroke="#000000" cx="315" cy="-195.6" rx="27" ry="18"/>
<text text-anchor="middle" x="315" y="-191.4" font-family="Times,serif" font-size="14.00" fill="#000000">42</text>
</g>
<!-- 16&#45;&gt;42 -->
<g id="edge8" class="edge">
<title>16&#45;&gt;42</title>
<path fill="none" stroke="#000000" d="M230.6781,-269.7365C247.1506,-255.2537 272.5087,-232.9587 291.1164,-216.5987"/>
<polygon fill="#000000" stroke="#000000" points="293.4332,-219.2222 298.6322,-209.9907 288.8111,-213.9651 293.4332,-219.2222"/>
<text text-anchor="middle" x="283.5" y="-235.8" font-family="Times,serif" font-size="14.00" fill="#000000">194</text>
</g>
<!-- 4 -->
<g id="node9" class="node">
<title>4</title>
<ellipse fill="none" stroke="#ff0000" cx="27" cy="-106.8" rx="27" ry="18"/>
<text text-anchor="middle" x="27" y="-102.6" font-family="Times,serif" font-size="14.00" fill="#000000">4</text>
</g>
<!-- 18&#45;&gt;4 -->
<g id="edge9" class="edge">
<title>18&#45;&gt;4</title>
<path fill="none" stroke="#000000" d="M123.2905,-182.5186C113.8176,-175.7974 102.1941,-167.3998 92,-159.6 78.4905,-149.2635 63.7525,-137.3465 51.7308,-127.4527"/>
<polygon fill="#000000" stroke="#000000" points="53.8277,-124.6451 43.8904,-120.9707 49.3674,-130.0401 53.8277,-124.6451"/>
<text text-anchor="middle" x="102.5" y="-147" font-family="Times,serif" font-size="14.00" fill="#000000">197</text>
</g>
<!-- 7 -->
<g id="node11" class="node">
<title>7</title>
<ellipse fill="none" stroke="#ff0000" cx="99" cy="-106.8" rx="27" ry="18"/>
<text text-anchor="middle" x="99" y="-102.6" font-family="Times,serif" font-size="14.00" fill="#000000">7</text>
</g>
<!-- 18&#45;&gt;7 -->
<g id="edge10" class="edge">
<title>18&#45;&gt;7</title>
<path fill="none" stroke="#000000" d="M133.5046,-178.056C127.2805,-165.2025 118.7274,-147.5393 111.6941,-133.0148"/>
<polygon fill="#000000" stroke="#000000" points="114.8399,-131.4803 107.3315,-124.0054 108.5397,-134.5311 114.8399,-131.4803"/>
<text text-anchor="middle" x="134.5" y="-147" font-family="Times,serif" font-size="14.00" fill="#000000">197</text>
</g>
<!-- 13 -->
<g id="node13" class="node">
<title>13</title>
<ellipse fill="none" stroke="#ff0000" cx="171" cy="-106.8" rx="27" ry="18"/>
<text text-anchor="middle" x="171" y="-102.6" font-family="Times,serif" font-size="14.00" fill="#000000">13</text>
</g>
<!-- 18&#45;&gt;13 -->
<g id="edge11" class="edge">
<title>18&#45;&gt;13</title>
<path fill="none" stroke="#000000" d="M147.8686,-177.63C151.9439,-165.1511 157.4494,-148.2928 162.0669,-134.1536"/>
<polygon fill="#000000" stroke="#000000" points="165.4617,-135.0327 165.2391,-124.4402 158.8076,-132.8596 165.4617,-135.0327"/>
<text text-anchor="middle" x="169.5" y="-147" font-family="Times,serif" font-size="14.00" fill="#000000">194</text>
</g>
<!-- 10 -->
<g id="node10" class="node">
<title>10</title>
<ellipse fill="none" stroke="#ff0000" cx="27" cy="-18" rx="27" ry="18"/>
<text text-anchor="middle" x="27" y="-13.8" font-family="Times,serif" font-size="14.00" fill="#000000">10</text>
</g>
<!-- 4&#45;&gt;10 -->
<g id="edge12" class="edge">
<title>4&#45;&gt;10</title>
<path fill="none" stroke="#000000" d="M27,-88.4006C27,-76.2949 27,-60.2076 27,-46.4674"/>
<polygon fill="#000000" stroke="#000000" points="30.5001,-46.072 27,-36.072 23.5001,-46.0721 30.5001,-46.072"/>
<text text-anchor="middle" x="37.5" y="-58.2" font-family="Times,serif" font-size="14.00" fill="#000000">295</text>
</g>
<!-- 15 -->
<g id="node12" class="node">
<title>15</title>
<ellipse fill="none" stroke="#ff0000" cx="99" cy="-18" rx="27" ry="18"/>
<text text-anchor="middle" x="99" y="-13.8" font-family="Times,serif" font-size="14.00" fill="#000000">15</text>
</g>
<!-- 7&#45;&gt;15 -->
<g id="edge13" class="edge">
<title>7&#45;&gt;15</title>
<path fill="none" stroke="#000000" d="M99,-88.4006C99,-76.2949 99,-60.2076 99,-46.4674"/>
<polygon fill="#000000" stroke="#000000" points="102.5001,-46.072 99,-36.072 95.5001,-46.0721 102.5001,-46.072"/>
<text text-anchor="middle" x="109.5" y="-58.2" font-family="Times,serif" font-size="14.00" fill="#000000">292</text>
</g>
<!-- 3 -->
<g id="node15" class="node">
<title>3</title>
<ellipse fill="none" stroke="#ff0000" cx="243" cy="-106.8" rx="27" ry="18"/>
<text text-anchor="middle" x="243" y="-102.6" font-family="Times,serif" font-size="14.00" fill="#000000">3</text>
</g>
<!-- 42&#45;&gt;3 -->
<g id="edge14" class="edge">
<title>42&#45;&gt;3</title>
<path fill="none" stroke="#000000" d="M302.1278,-179.7243C291.1384,-166.1707 275.1627,-146.4674 262.587,-130.9573"/>
<polygon fill="#000000" stroke="#000000" points="265.0202,-128.4009 256.0035,-122.8376 259.5829,-132.8095 265.0202,-128.4009"/>
<text text-anchor="middle" x="295.5" y="-147" font-family="Times,serif" font-size="14.00" fill="#000000">195</text>
</g>
<!-- 6 -->
<g id="node16" class="node">
<title>6</title>
<ellipse fill="none" stroke="#ff0000" cx="315" cy="-106.8" rx="27" ry="18"/>
<text text-anchor="middle" x="315" y="-102.6" font-family="Times,serif" font-size="14.00" fill="#000000">6</text>
</g>
<!-- 42&#45;&gt;6 -->
<g id="edge15" class="edge">
<title>42&#45;&gt;6</title>
<path fill="none" stroke="#000000" d="M315,-177.2006C315,-165.0949 315,-149.0076 315,-135.2674"/>
<polygon fill="#000000" stroke="#000000" points="318.5001,-134.872 315,-124.872 311.5001,-134.8721 318.5001,-134.872"/>
<text text-anchor="middle" x="325.5" y="-147" font-family="Times,serif" font-size="14.00" fill="#000000">195</text>
</g>
<!-- 11 -->
<g id="node17" class="node">
<title>11</title>
<ellipse fill="none" stroke="#ff0000" cx="387" cy="-106.8" rx="27" ry="18"/>
<text text-anchor="middle" x="387" y="-102.6" font-family="Times,serif" font-size="14.00" fill="#000000">11</text>
</g>
<!-- 42&#45;&gt;11 -->
<g id="edge16" class="edge">
<title>42&#45;&gt;11</title>
<path fill="none" stroke="#000000" d="M327.8722,-179.7243C338.8616,-166.1707 354.8373,-146.4674 367.413,-130.9573"/>
<polygon fill="#000000" stroke="#000000" points="370.4171,-132.8095 373.9965,-122.8376 364.9798,-128.4009 370.4171,-132.8095"/>
<text text-anchor="middle" x="367.5" y="-147" font-family="Times,serif" font-size="14.00" fill="#000000">191</text>
</g>
<!-- 12 -->
<g id="node19" class="node">
<title>12</title>
<ellipse fill="none" stroke="#ff0000" cx="459" cy="-106.8" rx="27" ry="18"/>
<text text-anchor="middle" x="459" y="-102.6" font-family="Times,serif" font-size="14.00" fill="#000000">12</text>
</g>
<!-- 42&#45;&gt;12 -->
<g id="edge17" class="edge">
<title>42&#45;&gt;12</title>
<path fill="none" stroke="#000000" d="M336.7556,-184.6687C350.0283,-177.8141 367.2264,-168.5982 382,-159.6 399.0815,-149.1962 417.5852,-136.5551 432.1717,-126.2504"/>
<polygon fill="#000000" stroke="#000000" points="434.5846,-128.829 440.6999,-120.1772 430.524,-123.127 434.5846,-128.829"/>
<text text-anchor="middle" x="417.5" y="-147" font-family="Times,serif" font-size="14.00" fill="#000000">195</text>
</g>
<!-- 2 -->
<g id="node18" class="node">
<title>2</title>
<ellipse fill="none" stroke="#ff0000" cx="387" cy="-18" rx="27" ry="18"/>
<text text-anchor="middle" x="387" y="-13.8" font-family="Times,serif" font-size="14.00" fill="#000000">2</text>
</g>
<!-- 11&#45;&gt;2 -->
<g id="edge18" class="edge">
<title>11&#45;&gt;2</title>
<path fill="none" stroke="#000000" d="M387,-88.4006C387,-76.2949 387,-60.2076 387,-46.4674"/>
<polygon fill="#000000" stroke="#000000" points="390.5001,-46.072 387,-36.072 383.5001,-46.0721 390.5001,-46.072"/>
<text text-anchor="middle" x="397.5" y="-58.2" font-family="Times,serif" font-size="14.00" fill="#000000">204</text>
</g>
</g>
</svg>
