<svg width="600px" height="1293px"
 viewBox="0.00 0.00 350.00 754.40" xmlns="http://www.w3.org/2000/svg" xmlns:xlink="http://www.w3.org/1999/xlink">
<g id="graph0" class="graph" transform="scale(1.0 1.0) rotate(0) translate(4 750.4)">
<title>%0</title>
<polygon fill="#ffffff" stroke="transparent" points="-4,4 -4,-750.4 346,-750.4 346,4 -4,4"/>
<!-- 10 -->
<g id="node1" class="node">
<title>10</title>
<ellipse fill="none" stroke="#ff0000" cx="85" cy="-728.4" rx="27" ry="18"/>
<text text-anchor="middle" x="85" y="-724.2" font-family="Times,serif" font-size="14.00" fill="#000000">10</text>
</g>
<!-- 59 -->
<g id="node2" class="node">
<title>59</title>
<ellipse fill="none" stroke="#000000" cx="85" cy="-639.6" rx="27" ry="18"/>
<text text-anchor="middle" x="85" y="-635.4" font-family="Times,serif" font-size="14.00" fill="#000000">59</text>
</g>
<!-- 10&#45;&gt;59 -->
<g id="edge1" class="edge">
<title>10&#45;&gt;59</title>
<path fill="none" stroke="#000000" d="M85,-710.0006C85,-697.8949 85,-681.8076 85,-668.0674"/>
<polygon fill="#000000" stroke="#000000" points="88.5001,-667.672 85,-657.672 81.5001,-667.6721 88.5001,-667.672"/>
<text text-anchor="middle" x="95.5" y="-679.8" font-family="Times,serif" font-size="14.00" fill="#000000">207</text>
</g>
<!-- 4 -->
<g id="node3" class="node">
<title>4</title>
<ellipse fill="none" stroke="#ff0000" cx="56" cy="-550.8" rx="27" ry="18"/>
<text text-anchor="middle" x="56" y="-546.6" font-family="Times,serif" font-size="14.00" fill="#000000">4</text>
</g>
<!-- 59&#45;&gt;4 -->
<g id="edge2" class="edge">
<title>59&#45;&gt;4</title>
<path fill="none" stroke="#000000" d="M77.8304,-622.1427C75.5295,-616.2914 73.0486,-609.7031 71,-603.6 68.3135,-595.5964 65.69,-586.8089 63.4076,-578.7385"/>
<polygon fill="#000000" stroke="#000000" points="66.7571,-577.7191 60.7199,-569.0126 60.01,-579.5837 66.7571,-577.7191"/>
<text text-anchor="middle" x="81.5" y="-591" font-family="Times,serif" font-size="14.00" fill="#000000">193</text>
</g>
<!-- 11 -->
<g id="node4" class="node">
<title>11</title>
<ellipse fill="none" stroke="#ff0000" cx="128" cy="-550.8" rx="27" ry="18"/>
<text text-anchor="middle" x="128" y="-546.6" font-family="Times,serif" font-size="14.00" fill="#000000">11</text>
</g>
<!-- 59&#45;&gt;11 -->
<g id="edge3" class="edge">
<title>59&#45;&gt;11</title>
<path fill="none" stroke="#000000" d="M93.4954,-622.056C99.7195,-609.2025 108.2726,-591.5393 115.3059,-577.0148"/>
<polygon fill="#000000" stroke="#000000" points="118.4603,-578.5311 119.6685,-568.0054 112.1601,-575.4803 118.4603,-578.5311"/>
<text text-anchor="middle" x="121.5" y="-591" font-family="Times,serif" font-size="14.00" fill="#000000">183</text>
</g>
<!-- 9 -->
<g id="node5" class="node">
<title>9</title>
<ellipse fill="none" stroke="#ff0000" cx="128" cy="-462" rx="27" ry="18"/>
<text text-anchor="middle" x="128" y="-457.8" font-family="Times,serif" font-size="14.00" fill="#000000">9</text>
</g>
<!-- 11&#45;&gt;9 -->
<g id="edge4" class="edge">
<title>11&#45;&gt;9</title>
<path fill="none" stroke="#000000" d="M128,-532.4006C128,-520.2949 128,-504.2076 128,-490.4674"/>
<polygon fill="#000000" stroke="#000000" points="131.5001,-490.072 128,-480.072 124.5001,-490.0721 131.5001,-490.072"/>
<text text-anchor="middle" x="138.5" y="-502.2" font-family="Times,serif" font-size="14.00" fill="#000000">293</text>
</g>
<!-- 3 -->
<g id="node6" class="node">
<title>3</title>
<ellipse fill="none" stroke="#ff0000" cx="56" cy="-373.2" rx="27" ry="18"/>
<text text-anchor="middle" x="56" y="-369" font-family="Times,serif" font-size="14.00" fill="#000000">3</text>
</g>
<!-- 9&#45;&gt;3 -->
<g id="edge5" class="edge">
<title>9&#45;&gt;3</title>
<path fill="none" stroke="#000000" d="M115.1278,-446.1243C104.1384,-432.5707 88.1627,-412.8674 75.587,-397.3573"/>
<polygon fill="#000000" stroke="#000000" points="78.0202,-394.8009 69.0035,-389.2376 72.5829,-399.2095 78.0202,-394.8009"/>
<text text-anchor="middle" x="109.5" y="-413.4" font-family="Times,serif" font-size="14.00" fill="#000000">294</text>
</g>
<!-- 51 -->
<g id="node7" class="node">
<title>51</title>
<ellipse fill="none" stroke="#000000" cx="128" cy="-373.2" rx="27" ry="18"/>
<text text-anchor="middle" x="128" y="-369" font-family="Times,serif" font-size="14.00" fill="#000000">51</text>
</g>
<!-- 9&#45;&gt;51 -->
<g id="edge6" class="edge">
<title>9&#45;&gt;51</title>
<path fill="none" stroke="#000000" d="M128,-443.6006C128,-431.4949 128,-415.4076 128,-401.6674"/>
<polygon fill="#000000" stroke="#000000" points="131.5001,-401.272 128,-391.272 124.5001,-401.2721 131.5001,-401.272"/>
<text text-anchor="middle" x="138.5" y="-413.4" font-family="Times,serif" font-size="14.00" fill="#000000">188</text>
</g>
<!-- 29 -->
<g id="node14" class="node">
<title>29</title>
<ellipse fill="none" stroke="#000000" cx="214" cy="-373.2" rx="27" ry="18"/>
<text text-anchor="middle" x="214" y="-369" font-family="Times,serif" font-size="14.00" fill="#000000">29</text>
</g>
<!-- 9&#45;&gt;29 -->
<g id="edge7" class="edge">
<title>9&#45;&gt;29</title>
<path fill="none" stroke="#000000" d="M142.9801,-446.5322C156.5451,-432.5256 176.6995,-411.7149 192.0765,-395.8373"/>
<polygon fill="#000000" stroke="#000000" points="194.7489,-398.1089 199.1916,-388.4905 189.7205,-393.239 194.7489,-398.1089"/>
<text text-anchor="middle" x="188.5" y="-413.4" font-family="Times,serif" font-size="14.00" fill="#000000">196</text>
</g>
<!-- 8 -->
<g id="node8" class="node">
<title>8</title>
<ellipse fill="none" stroke="#ff0000" cx="99" cy="-284.4" rx="27" ry="18"/>
<text text-anchor="middle" x="99" y="-280.2" font-family="Times,serif" font-size="14.00" fill="#000000">8</text>
</g>
<!-- 51&#45;&gt;8 -->
<g id="edge8" class="edge">
<title>51&#45;&gt;8</title>
<path fill="none" stroke="#000000" d="M122.1314,-355.23C118.0561,-342.7511 112.5506,-325.8928 107.9331,-311.7536"/>
<polygon fill="#000000" stroke="#000000" points="111.1924,-310.4596 104.7609,-302.0402 104.5383,-312.6327 111.1924,-310.4596"/>
<text text-anchor="middle" x="127.5" y="-324.6" font-family="Times,serif" font-size="14.00" fill="#000000">191</text>
</g>
<!-- 74 -->
<g id="node9" class="node">
<title>74</title>
<ellipse fill="none" stroke="#000000" cx="99" cy="-195.6" rx="27" ry="18"/>
<text text-anchor="middle" x="99" y="-191.4" font-family="Times,serif" font-size="14.00" fill="#000000">74</text>
</g>
<!-- 8&#45;&gt;74 -->
<g id="edge9" class="edge">
<title>8&#45;&gt;74</title>
<path fill="none" stroke="#000000" d="M99,-266.0006C99,-253.8949 99,-237.8076 99,-224.0674"/>
<polygon fill="#000000" stroke="#000000" points="102.5001,-223.672 99,-213.672 95.5001,-223.6721 102.5001,-223.672"/>
<text text-anchor="middle" x="109.5" y="-235.8" font-family="Times,serif" font-size="14.00" fill="#000000">188</text>
</g>
<!-- 7 -->
<g id="node10" class="node">
<title>7</title>
<ellipse fill="none" stroke="#ff0000" cx="27" cy="-106.8" rx="27" ry="18"/>
<text text-anchor="middle" x="27" y="-102.6" font-family="Times,serif" font-size="14.00" fill="#000000">7</text>
</g>
<!-- 74&#45;&gt;7 -->
<g id="edge10" class="edge">
<title>74&#45;&gt;7</title>
<path fill="none" stroke="#000000" d="M86.1278,-179.7243C75.1384,-166.1707 59.1627,-146.4674 46.587,-130.9573"/>
<polygon fill="#000000" stroke="#000000" points="49.0202,-128.4009 40.0035,-122.8376 43.5829,-132.8095 49.0202,-128.4009"/>
<text text-anchor="middle" x="80.5" y="-147" font-family="Times,serif" font-size="14.00" fill="#000000">198</text>
</g>
<!-- 14 -->
<g id="node11" class="node">
<title>14</title>
<ellipse fill="none" stroke="#ff0000" cx="99" cy="-106.8" rx="27" ry="18"/>
<text text-anchor="middle" x="99" y="-102.6" font-family="Times,serif" font-size="14.00" fill="#000000">14</text>
</g>
<!-- 74&#45;&gt;14 -->
<g id="edge11" class="edge">
<title>74&#45;&gt;14</title>
<path fill="none" stroke="#000000" d="M99,-177.2006C99,-165.0949 99,-149.0076 99,-135.2674"/>
<polygon fill="#000000" stroke="#000000" points="102.5001,-134.872 99,-124.872 95.5001,-134.8721 102.5001,-134.872"/>
<text text-anchor="middle" x="109.5" y="-147" font-family="Times,serif" font-size="14.00" fill="#000000">200</text>
</g>
<!-- 15 -->
<g id="node12" class="node">
<title>15</title>
<ellipse fill="none" stroke="#ff0000" cx="171" cy="-106.8" rx="27" ry="18"/>
<text text-anchor="middle" x="171" y="-102.6" font-family="Times,serif" font-size="14.00" fill="#000000">15</text>
</g>
<!-- 74&#45;&gt;15 -->
<g id="edge12" class="edge">
<title>74&#45;&gt;15</title>
<path fill="none" stroke="#000000" d="M111.8722,-179.7243C122.8616,-166.1707 138.8373,-146.4674 151.413,-130.9573"/>
<polygon fill="#000000" stroke="#000000" points="154.4171,-132.8095 157.9965,-122.8376 148.9798,-128.4009 154.4171,-132.8095"/>
<text text-anchor="middle" x="152.5" y="-147" font-family="Times,serif" font-size="14.00" fill="#000000">197</text>
</g>
<!-- 6 -->
<g id="node13" class="node">
<title>6</title>
<ellipse fill="none" stroke="#ff0000" cx="171" cy="-18" rx="27" ry="18"/>
<text text-anchor="middle" x="171" y="-13.8" font-family="Times,serif" font-size="14.00" fill="#000000">6</text>
</g>
<!-- 15&#45;&gt;6 -->
<g id="edge13" class="edge">
<title>15&#45;&gt;6</title>
<path fill="none" stroke="#000000" d="M171,-88.4006C171,-76.2949 171,-60.2076 171,-46.4674"/>
<polygon fill="#000000" stroke="#000000" points="174.5001,-46.072 171,-36.072 167.5001,-46.0721 174.5001,-46.072"/>
<text text-anchor="middle" x="181.5" y="-58.2" font-family="Times,serif" font-size="14.00" fill="#000000">290</text>
</g>
<!-- 2 -->
<g id="node15" class="node">
<title>2</title>
<ellipse fill="none" stroke="#ff0000" cx="171" cy="-284.4" rx="27" ry="18"/>
<text text-anchor="middle" x="171" y="-280.2" font-family="Times,serif" font-size="14.00" fill="#000000">2</text>
</g>
<!-- 29&#45;&gt;2 -->
<g id="edge14" class="edge">
<title>29&#45;&gt;2</title>
<path fill="none" stroke="#000000" d="M205.5046,-355.656C199.2805,-342.8025 190.7274,-325.1393 183.6941,-310.6148"/>
<polygon fill="#000000" stroke="#000000" points="186.8399,-309.0803 179.3315,-301.6054 180.5397,-312.1311 186.8399,-309.0803"/>
<text text-anchor="middle" x="206.5" y="-324.6" font-family="Times,serif" font-size="14.00" fill="#000000">190</text>
</g>
<!-- 5 -->
<g id="node20" class="node">
<title>5</title>
<ellipse fill="none" stroke="#ff0000" cx="243" cy="-284.4" rx="27" ry="18"/>
<text text-anchor="middle" x="243" y="-280.2" font-family="Times,serif" font-size="14.00" fill="#000000">5</text>
</g>
<!-- 29&#45;&gt;5 -->
<g id="edge15" class="edge">
<title>29&#45;&gt;5</title>
<path fill="none" stroke="#000000" d="M219.8686,-355.23C223.9439,-342.7511 229.4494,-325.8928 234.0669,-311.7536"/>
<polygon fill="#000000" stroke="#000000" points="237.4617,-312.6327 237.2391,-302.0402 230.8076,-310.4596 237.4617,-312.6327"/>
<text text-anchor="middle" x="241.5" y="-324.6" font-family="Times,serif" font-size="14.00" fill="#000000">191</text>
</g>
<!-- 16 -->
<g id="node21" class="node">
<title>16</title>
<ellipse fill="none" stroke="#ff0000" cx="315" cy="-284.4" rx="27" ry="18"/>
<text text-anchor="middle" x="315" y="-280.2" font-family="Times,serif" font-size="14.00" fill="#000000">16</text>
</g>
<!-- 29&#45;&gt;16 -->
<g id="edge16" class="edge">
<title>29&#45;&gt;16</title>
<path fill="none" stroke="#000000" d="M230.8296,-358.9169C238.5346,-352.3413 247.7641,-344.4134 256,-337.2 267.6184,-327.024 280.4037,-315.6093 291.0934,-306.0036"/>
<polygon fill="#000000" stroke="#000000" points="293.7149,-308.353 298.8053,-299.0611 289.0315,-303.1505 293.7149,-308.353"/>
<text text-anchor="middle" x="283.5" y="-324.6" font-family="Times,serif" font-size="14.00" fill="#000000">202</text>
</g>
<!-- 1 -->
<g id="node16" class="node">
<title>1</title>
<ellipse fill="none" stroke="#ff0000" cx="171" cy="-195.6" rx="27" ry="18"/>
<text text-anchor="middle" x="171" y="-191.4" font-family="Times,serif" font-size="14.00" fill="#000000">1</text>
</g>
<!-- 2&#45;&gt;1 -->
<g id="edge17" class="edge">
<title>2&#45;&gt;1</title>
<path fill="none" stroke="#000000" d="M171,-266.0006C171,-253.8949 171,-237.8076 171,-224.0674"/>
<polygon fill="#000000" stroke="#000000" points="174.5001,-223.672 171,-213.672 167.5001,-223.6721 174.5001,-223.672"/>
<text text-anchor="middle" x="181.5" y="-235.8" font-family="Times,serif" font-size="14.00" fill="#000000">285</text>
</g>
<!-- 80 -->
<g id="node17" class="node">
<title>80</title>
<ellipse fill="none" stroke="#000000" cx="243" cy="-195.6" rx="27" ry="18"/>
<text text-anchor="middle" x="243" y="-191.4" font-family="Times,serif" font-size="14.00" fill="#000000">80</text>
</g>
<!-- 2&#45;&gt;80 -->
<g id="edge18" class="edge">
<title>2&#45;&gt;80</title>
<path fill="none" stroke="#000000" d="M183.8722,-268.5243C194.8616,-254.9707 210.8373,-235.2674 223.413,-219.7573"/>
<polygon fill="#000000" stroke="#000000" points="226.4171,-221.6095 229.9965,-211.6376 220.9798,-217.2009 226.4171,-221.6095"/>
<text text-anchor="middle" x="223.5" y="-235.8" font-family="Times,serif" font-size="14.00" fill="#000000">190</text>
</g>
<!-- 12 -->
<g id="node18" class="node">
<title>12</title>
<ellipse fill="none" stroke="#ff0000" cx="243" cy="-106.8" rx="27" ry="18"/>
<text text-anchor="middle" x="243" y="-102.6" font-family="Times,serif" font-size="14.00" fill="#000000">12</text>
</g>
<!-- 80&#45;&gt;12 -->
<g id="edge19" class="edge">
<title>80&#45;&gt;12</title>
<path fill="none" stroke="#000000" d="M243,-177.2006C243,-165.0949 243,-149.0076 243,-135.2674"/>
<polygon fill="#000000" stroke="#000000" points="246.5001,-134.872 243,-124.872 239.5001,-134.8721 246.5001,-134.872"/>
<text text-anchor="middle" x="253.5" y="-147" font-family="Times,serif" font-size="14.00" fill="#000000">197</text>
</g>
<!-- 13 -->
<g id="node19" class="node">
<title>13</title>
<ellipse fill="none" stroke="#ff0000" cx="315" cy="-106.8" rx="27" ry="18"/>
<text text-anchor="middle" x="315" y="-102.6" font-family="Times,serif" font-size="14.00" fill="#000000">13</text>
</g>
<!-- 80&#45;&gt;13 -->
<g id="edge20" class="edge">
<title>80&#45;&gt;13</title>
<path fill="none" stroke="#000000" d="M255.8722,-179.7243C266.8616,-166.1707 282.8373,-146.4674 295.413,-130.9573"/>
<polygon fill="#000000" stroke="#000000" points="298.4171,-132.8095 301.9965,-122.8376 292.9798,-128.4009 298.4171,-132.8095"/>
<text text-anchor="middle" x="295.5" y="-147" font-family="Times,serif" font-size="14.00" fill="#000000">190</text>
</g>
</g>
</svg>
