<svg width="600px" height="1098px"
 viewBox="0.00 0.00 364.00 665.60" xmlns="http://www.w3.org/2000/svg" xmlns:xlink="http://www.w3.org/1999/xlink">
<g id="graph0" class="graph" transform="scale(1.0 1.0) rotate(0) translate(4 661.6)">
<title>%0</title>
<polygon fill="#ffffff" stroke="transparent" points="-4,4 -4,-661.6 360,-661.6 360,4 -4,4"/>
<!-- 16 -->
<g id="node1" class="node">
<title>16</title>
<ellipse fill="none" stroke="#ff0000" cx="92" cy="-639.6" rx="27" ry="18"/>
<text text-anchor="middle" x="92" y="-635.4" font-family="Times,serif" font-size="14.00" fill="#000000">16</text>
</g>
<!-- 38 -->
<g id="node2" class="node">
<title>38</title>
<ellipse fill="none" stroke="#000000" cx="92" cy="-550.8" rx="27" ry="18"/>
<text text-anchor="middle" x="92" y="-546.6" font-family="Times,serif" font-size="14.00" fill="#000000">38</text>
</g>
<!-- 16&#45;&gt;38 -->
<g id="edge1" class="edge">
<title>16&#45;&gt;38</title>
<path fill="none" stroke="#000000" d="M92,-621.2006C92,-609.0949 92,-593.0076 92,-579.2674"/>
<polygon fill="#000000" stroke="#000000" points="95.5001,-578.872 92,-568.872 88.5001,-578.8721 95.5001,-578.872"/>
<text text-anchor="middle" x="102.5" y="-591" font-family="Times,serif" font-size="14.00" fill="#000000">195</text>
</g>
<!-- 4 -->
<g id="node3" class="node">
<title>4</title>
<ellipse fill="none" stroke="#ff0000" cx="63" cy="-462" rx="27" ry="18"/>
<text text-anchor="middle" x="63" y="-457.8" font-family="Times,serif" font-size="14.00" fill="#000000">4</text>
</g>
<!-- 38&#45;&gt;4 -->
<g id="edge2" class="edge">
<title>38&#45;&gt;4</title>
<path fill="none" stroke="#000000" d="M84.8304,-533.3427C82.5295,-527.4914 80.0486,-520.9031 78,-514.8 75.3135,-506.7964 72.69,-498.0089 70.4076,-489.9385"/>
<polygon fill="#000000" stroke="#000000" points="73.7571,-488.9191 67.7199,-480.2126 67.01,-490.7837 73.7571,-488.9191"/>
<text text-anchor="middle" x="88.5" y="-502.2" font-family="Times,serif" font-size="14.00" fill="#000000">191</text>
</g>
<!-- 14 -->
<g id="node4" class="node">
<title>14</title>
<ellipse fill="none" stroke="#ff0000" cx="135" cy="-462" rx="27" ry="18"/>
<text text-anchor="middle" x="135" y="-457.8" font-family="Times,serif" font-size="14.00" fill="#000000">14</text>
</g>
<!-- 38&#45;&gt;14 -->
<g id="edge3" class="edge">
<title>38&#45;&gt;14</title>
<path fill="none" stroke="#000000" d="M100.4954,-533.256C106.7195,-520.4025 115.2726,-502.7393 122.3059,-488.2148"/>
<polygon fill="#000000" stroke="#000000" points="125.4603,-489.7311 126.6685,-479.2054 119.1601,-486.6803 125.4603,-489.7311"/>
<text text-anchor="middle" x="127.5" y="-502.2" font-family="Times,serif" font-size="14.00" fill="#000000">197</text>
</g>
<!-- 70 -->
<g id="node5" class="node">
<title>70</title>
<ellipse fill="none" stroke="#000000" cx="135" cy="-373.2" rx="27" ry="18"/>
<text text-anchor="middle" x="135" y="-369" font-family="Times,serif" font-size="14.00" fill="#000000">70</text>
</g>
<!-- 14&#45;&gt;70 -->
<g id="edge4" class="edge">
<title>14&#45;&gt;70</title>
<path fill="none" stroke="#000000" d="M135,-443.6006C135,-431.4949 135,-415.4076 135,-401.6674"/>
<polygon fill="#000000" stroke="#000000" points="138.5001,-401.272 135,-391.272 131.5001,-401.2721 138.5001,-401.272"/>
<text text-anchor="middle" x="145.5" y="-413.4" font-family="Times,serif" font-size="14.00" fill="#000000">208</text>
</g>
<!-- 2 -->
<g id="node6" class="node">
<title>2</title>
<ellipse fill="none" stroke="#ff0000" cx="41" cy="-284.4" rx="27" ry="18"/>
<text text-anchor="middle" x="41" y="-280.2" font-family="Times,serif" font-size="14.00" fill="#000000">2</text>
</g>
<!-- 70&#45;&gt;2 -->
<g id="edge5" class="edge">
<title>70&#45;&gt;2</title>
<path fill="none" stroke="#000000" d="M119.0542,-358.1363C103.9736,-343.89 81.1724,-322.3501 64.1019,-306.224"/>
<polygon fill="#000000" stroke="#000000" points="66.3831,-303.5642 56.7103,-299.2412 61.5761,-308.6527 66.3831,-303.5642"/>
<text text-anchor="middle" x="106.5" y="-324.6" font-family="Times,serif" font-size="14.00" fill="#000000">198</text>
</g>
<!-- 7 -->
<g id="node10" class="node">
<title>7</title>
<ellipse fill="none" stroke="#ff0000" cx="113" cy="-284.4" rx="27" ry="18"/>
<text text-anchor="middle" x="113" y="-280.2" font-family="Times,serif" font-size="14.00" fill="#000000">7</text>
</g>
<!-- 70&#45;&gt;7 -->
<g id="edge6" class="edge">
<title>70&#45;&gt;7</title>
<path fill="none" stroke="#000000" d="M130.548,-355.23C127.5064,-342.953 123.4146,-326.4372 119.9474,-312.4421"/>
<polygon fill="#000000" stroke="#000000" points="123.2475,-311.2081 117.4454,-302.3433 116.453,-312.8915 123.2475,-311.2081"/>
<text text-anchor="middle" x="135.5" y="-324.6" font-family="Times,serif" font-size="14.00" fill="#000000">186</text>
</g>
<!-- 9 -->
<g id="node11" class="node">
<title>9</title>
<ellipse fill="none" stroke="#ff0000" cx="185" cy="-284.4" rx="27" ry="18"/>
<text text-anchor="middle" x="185" y="-280.2" font-family="Times,serif" font-size="14.00" fill="#000000">9</text>
</g>
<!-- 70&#45;&gt;9 -->
<g id="edge7" class="edge">
<title>70&#45;&gt;9</title>
<path fill="none" stroke="#000000" d="M144.6405,-356.0785C151.9034,-343.1795 161.9902,-325.2655 170.2627,-310.5734"/>
<polygon fill="#000000" stroke="#000000" points="173.5325,-311.8999 175.3891,-301.469 167.4329,-308.4654 173.5325,-311.8999"/>
<text text-anchor="middle" x="174.5" y="-324.6" font-family="Times,serif" font-size="14.00" fill="#000000">191</text>
</g>
<!-- 10 -->
<g id="node15" class="node">
<title>10</title>
<ellipse fill="none" stroke="#ff0000" cx="257" cy="-284.4" rx="27" ry="18"/>
<text text-anchor="middle" x="257" y="-280.2" font-family="Times,serif" font-size="14.00" fill="#000000">10</text>
</g>
<!-- 70&#45;&gt;10 -->
<g id="edge8" class="edge">
<title>70&#45;&gt;10</title>
<path fill="none" stroke="#000000" d="M154.4748,-360.7038C164.8486,-353.9258 177.7538,-345.2988 189,-337.2 203.4267,-326.8108 219.1271,-314.6773 231.8032,-304.6633"/>
<polygon fill="#000000" stroke="#000000" points="233.9993,-307.3888 239.6527,-298.4284 229.6454,-301.9075 233.9993,-307.3888"/>
<text text-anchor="middle" x="219.5" y="-324.6" font-family="Times,serif" font-size="14.00" fill="#000000">208</text>
</g>
<!-- 11 -->
<g id="node7" class="node">
<title>11</title>
<ellipse fill="none" stroke="#ff0000" cx="27" cy="-195.6" rx="27" ry="18"/>
<text text-anchor="middle" x="27" y="-191.4" font-family="Times,serif" font-size="14.00" fill="#000000">11</text>
</g>
<!-- 2&#45;&gt;11 -->
<g id="edge9" class="edge">
<title>2&#45;&gt;11</title>
<path fill="none" stroke="#000000" d="M38.1669,-266.43C36.2313,-254.153 33.6275,-237.6372 31.4211,-223.6421"/>
<polygon fill="#000000" stroke="#000000" points="34.8436,-222.8762 29.8289,-213.5433 27.929,-223.9664 34.8436,-222.8762"/>
<text text-anchor="middle" x="46.5" y="-235.8" font-family="Times,serif" font-size="14.00" fill="#000000">288</text>
</g>
<!-- 12 -->
<g id="node9" class="node">
<title>12</title>
<ellipse fill="none" stroke="#ff0000" cx="99" cy="-195.6" rx="27" ry="18"/>
<text text-anchor="middle" x="99" y="-191.4" font-family="Times,serif" font-size="14.00" fill="#000000">12</text>
</g>
<!-- 2&#45;&gt;12 -->
<g id="edge10" class="edge">
<title>2&#45;&gt;12</title>
<path fill="none" stroke="#000000" d="M51.9094,-267.6974C60.4966,-254.5501 72.6074,-236.008 82.3966,-221.0203"/>
<polygon fill="#000000" stroke="#000000" points="85.6014,-222.514 88.1396,-212.2277 79.7408,-218.6861 85.6014,-222.514"/>
<text text-anchor="middle" x="85.5" y="-235.8" font-family="Times,serif" font-size="14.00" fill="#000000">291</text>
</g>
<!-- 1 -->
<g id="node8" class="node">
<title>1</title>
<ellipse fill="none" stroke="#ff0000" cx="27" cy="-106.8" rx="27" ry="18"/>
<text text-anchor="middle" x="27" y="-102.6" font-family="Times,serif" font-size="14.00" fill="#000000">1</text>
</g>
<!-- 11&#45;&gt;1 -->
<g id="edge11" class="edge">
<title>11&#45;&gt;1</title>
<path fill="none" stroke="#000000" d="M27,-177.2006C27,-165.0949 27,-149.0076 27,-135.2674"/>
<polygon fill="#000000" stroke="#000000" points="30.5001,-134.872 27,-124.872 23.5001,-134.8721 30.5001,-134.872"/>
<text text-anchor="middle" x="37.5" y="-147" font-family="Times,serif" font-size="14.00" fill="#000000">290</text>
</g>
<!-- 8 -->
<g id="node12" class="node">
<title>8</title>
<ellipse fill="none" stroke="#ff0000" cx="185" cy="-195.6" rx="27" ry="18"/>
<text text-anchor="middle" x="185" y="-191.4" font-family="Times,serif" font-size="14.00" fill="#000000">8</text>
</g>
<!-- 9&#45;&gt;8 -->
<g id="edge12" class="edge">
<title>9&#45;&gt;8</title>
<path fill="none" stroke="#000000" d="M185,-266.0006C185,-253.8949 185,-237.8076 185,-224.0674"/>
<polygon fill="#000000" stroke="#000000" points="188.5001,-223.672 185,-213.672 181.5001,-223.6721 188.5001,-223.672"/>
<text text-anchor="middle" x="195.5" y="-235.8" font-family="Times,serif" font-size="14.00" fill="#000000">296</text>
</g>
<!-- 3 -->
<g id="node13" class="node">
<title>3</title>
<ellipse fill="none" stroke="#ff0000" cx="113" cy="-106.8" rx="27" ry="18"/>
<text text-anchor="middle" x="113" y="-102.6" font-family="Times,serif" font-size="14.00" fill="#000000">3</text>
</g>
<!-- 8&#45;&gt;3 -->
<g id="edge13" class="edge">
<title>8&#45;&gt;3</title>
<path fill="none" stroke="#000000" d="M172.1278,-179.7243C161.1384,-166.1707 145.1627,-146.4674 132.587,-130.9573"/>
<polygon fill="#000000" stroke="#000000" points="135.0202,-128.4009 126.0035,-122.8376 129.5829,-132.8095 135.0202,-128.4009"/>
<text text-anchor="middle" x="165.5" y="-147" font-family="Times,serif" font-size="14.00" fill="#000000">301</text>
</g>
<!-- 15 -->
<g id="node14" class="node">
<title>15</title>
<ellipse fill="none" stroke="#ff0000" cx="185" cy="-106.8" rx="27" ry="18"/>
<text text-anchor="middle" x="185" y="-102.6" font-family="Times,serif" font-size="14.00" fill="#000000">15</text>
</g>
<!-- 8&#45;&gt;15 -->
<g id="edge14" class="edge">
<title>8&#45;&gt;15</title>
<path fill="none" stroke="#000000" d="M185,-177.2006C185,-165.0949 185,-149.0076 185,-135.2674"/>
<polygon fill="#000000" stroke="#000000" points="188.5001,-134.872 185,-124.872 181.5001,-134.8721 188.5001,-134.872"/>
<text text-anchor="middle" x="195.5" y="-147" font-family="Times,serif" font-size="14.00" fill="#000000">296</text>
</g>
<!-- 27 -->
<g id="node16" class="node">
<title>27</title>
<ellipse fill="none" stroke="#000000" cx="257" cy="-195.6" rx="27" ry="18"/>
<text text-anchor="middle" x="257" y="-191.4" font-family="Times,serif" font-size="14.00" fill="#000000">27</text>
</g>
<!-- 10&#45;&gt;27 -->
<g id="edge15" class="edge">
<title>10&#45;&gt;27</title>
<path fill="none" stroke="#000000" d="M257,-266.0006C257,-253.8949 257,-237.8076 257,-224.0674"/>
<polygon fill="#000000" stroke="#000000" points="260.5001,-223.672 257,-213.672 253.5001,-223.6721 260.5001,-223.672"/>
<text text-anchor="middle" x="267.5" y="-235.8" font-family="Times,serif" font-size="14.00" fill="#000000">196</text>
</g>
<!-- 5 -->
<g id="node17" class="node">
<title>5</title>
<ellipse fill="none" stroke="#ff0000" cx="257" cy="-106.8" rx="27" ry="18"/>
<text text-anchor="middle" x="257" y="-102.6" font-family="Times,serif" font-size="14.00" fill="#000000">5</text>
</g>
<!-- 27&#45;&gt;5 -->
<g id="edge16" class="edge">
<title>27&#45;&gt;5</title>
<path fill="none" stroke="#000000" d="M257,-177.2006C257,-165.0949 257,-149.0076 257,-135.2674"/>
<polygon fill="#000000" stroke="#000000" points="260.5001,-134.872 257,-124.872 253.5001,-134.8721 260.5001,-134.872"/>
<text text-anchor="middle" x="267.5" y="-147" font-family="Times,serif" font-size="14.00" fill="#000000">187</text>
</g>
<!-- 13 -->
<g id="node18" class="node">
<title>13</title>
<ellipse fill="none" stroke="#ff0000" cx="329" cy="-106.8" rx="27" ry="18"/>
<text text-anchor="middle" x="329" y="-102.6" font-family="Times,serif" font-size="14.00" fill="#000000">13</text>
</g>
<!-- 27&#45;&gt;13 -->
<g id="edge17" class="edge">
<title>27&#45;&gt;13</title>
<path fill="none" stroke="#000000" d="M269.8722,-179.7243C280.8616,-166.1707 296.8373,-146.4674 309.413,-130.9573"/>
<polygon fill="#000000" stroke="#000000" points="312.4171,-132.8095 315.9965,-122.8376 306.9798,-128.4009 312.4171,-132.8095"/>
<text text-anchor="middle" x="309.5" y="-147" font-family="Times,serif" font-size="14.00" fill="#000000">198</text>
</g>
<!-- 6 -->
<g id="node19" class="node">
<title>6</title>
<ellipse fill="none" stroke="#ff0000" cx="329" cy="-18" rx="27" ry="18"/>
<text text-anchor="middle" x="329" y="-13.8" font-family="Times,serif" font-size="14.00" fill="#000000">6</text>
</g>
<!-- 13&#45;&gt;6 -->
<g id="edge18" class="edge">
<title>13&#45;&gt;6</title>
<path fill="none" stroke="#000000" d="M329,-88.4006C329,-76.2949 329,-60.2076 329,-46.4674"/>
<polygon fill="#000000" stroke="#000000" points="332.5001,-46.072 329,-36.072 325.5001,-46.0721 332.5001,-46.072"/>
<text text-anchor="middle" x="339.5" y="-58.2" font-family="Times,serif" font-size="14.00" fill="#000000">292</text>
</g>
</g>
</svg>
