<svg width="600px" height="1598px"
 viewBox="0.00 0.00 350.00 932.00" xmlns="http://www.w3.org/2000/svg" xmlns:xlink="http://www.w3.org/1999/xlink">
<g id="graph0" class="graph" transform="scale(1.0 1.0) rotate(0) translate(4 928)">
<title>%0</title>
<polygon fill="#ffffff" stroke="transparent" points="-4,4 -4,-928 346,-928 346,4 -4,4"/>
<!-- 10 -->
<g id="node1" class="node">
<title>10</title>
<ellipse fill="none" stroke="#ff0000" cx="113" cy="-906" rx="27" ry="18"/>
<text text-anchor="middle" x="113" y="-901.8" font-family="Times,serif" font-size="14.00" fill="#000000">10</text>
</g>
<!-- 77 -->
<g id="node2" class="node">
<title>77</title>
<ellipse fill="none" stroke="#000000" cx="113" cy="-817.2" rx="27" ry="18"/>
<text text-anchor="middle" x="113" y="-813" font-family="Times,serif" font-size="14.00" fill="#000000">77</text>
</g>
<!-- 10&#45;&gt;77 -->
<g id="edge1" class="edge">
<title>10&#45;&gt;77</title>
<path fill="none" stroke="#000000" d="M113,-887.6006C113,-875.4949 113,-859.4076 113,-845.6674"/>
<polygon fill="#000000" stroke="#000000" points="116.5001,-845.272 113,-835.272 109.5001,-845.2721 116.5001,-845.272"/>
<text text-anchor="middle" x="123.5" y="-857.4" font-family="Times,serif" font-size="14.00" fill="#000000">188</text>
</g>
<!-- 3 -->
<g id="node3" class="node">
<title>3</title>
<ellipse fill="none" stroke="#ff0000" cx="77" cy="-728.4" rx="27" ry="18"/>
<text text-anchor="middle" x="77" y="-724.2" font-family="Times,serif" font-size="14.00" fill="#000000">3</text>
</g>
<!-- 77&#45;&gt;3 -->
<g id="edge2" class="edge">
<title>77&#45;&gt;3</title>
<path fill="none" stroke="#000000" d="M105.8876,-799.656C100.7596,-787.0071 93.7433,-769.7002 87.9097,-755.3105"/>
<polygon fill="#000000" stroke="#000000" points="91.0984,-753.86 84.0977,-745.9076 84.6112,-756.49 91.0984,-753.86"/>
<text text-anchor="middle" x="109.5" y="-768.6" font-family="Times,serif" font-size="14.00" fill="#000000">199</text>
</g>
<!-- 4 -->
<g id="node5" class="node">
<title>4</title>
<ellipse fill="none" stroke="#ff0000" cx="149" cy="-728.4" rx="27" ry="18"/>
<text text-anchor="middle" x="149" y="-724.2" font-family="Times,serif" font-size="14.00" fill="#000000">4</text>
</g>
<!-- 77&#45;&gt;4 -->
<g id="edge3" class="edge">
<title>77&#45;&gt;4</title>
<path fill="none" stroke="#000000" d="M120.1124,-799.656C125.2404,-787.0071 132.2567,-769.7002 138.0903,-755.3105"/>
<polygon fill="#000000" stroke="#000000" points="141.3888,-756.49 141.9023,-745.9076 134.9016,-753.86 141.3888,-756.49"/>
<text text-anchor="middle" x="145.5" y="-768.6" font-family="Times,serif" font-size="14.00" fill="#000000">192</text>
</g>
<!-- 9 -->
<g id="node4" class="node">
<title>9</title>
<ellipse fill="none" stroke="#ff0000" cx="77" cy="-639.6" rx="27" ry="18"/>
<text text-anchor="middle" x="77" y="-635.4" font-family="Times,serif" font-size="14.00" fill="#000000">9</text>
</g>
<!-- 3&#45;&gt;9 -->
<g id="edge4" class="edge">
<title>3&#45;&gt;9</title>
<path fill="none" stroke="#000000" d="M77,-710.0006C77,-697.8949 77,-681.8076 77,-668.0674"/>
<polygon fill="#000000" stroke="#000000" points="80.5001,-667.672 77,-657.672 73.5001,-667.6721 80.5001,-667.672"/>
<text text-anchor="middle" x="87.5" y="-679.8" font-family="Times,serif" font-size="14.00" fill="#000000">301</text>
</g>
<!-- 15 -->
<g id="node6" class="node">
<title>15</title>
<ellipse fill="none" stroke="#ff0000" cx="149" cy="-639.6" rx="27" ry="18"/>
<text text-anchor="middle" x="149" y="-635.4" font-family="Times,serif" font-size="14.00" fill="#000000">15</text>
</g>
<!-- 4&#45;&gt;15 -->
<g id="edge5" class="edge">
<title>4&#45;&gt;15</title>
<path fill="none" stroke="#000000" d="M149,-710.0006C149,-697.8949 149,-681.8076 149,-668.0674"/>
<polygon fill="#000000" stroke="#000000" points="152.5001,-667.672 149,-657.672 145.5001,-667.6721 152.5001,-667.672"/>
<text text-anchor="middle" x="159.5" y="-679.8" font-family="Times,serif" font-size="14.00" fill="#000000">294</text>
</g>
<!-- 49 -->
<g id="node7" class="node">
<title>49</title>
<ellipse fill="none" stroke="#000000" cx="149" cy="-550.8" rx="27" ry="18"/>
<text text-anchor="middle" x="149" y="-546.6" font-family="Times,serif" font-size="14.00" fill="#000000">49</text>
</g>
<!-- 15&#45;&gt;49 -->
<g id="edge6" class="edge">
<title>15&#45;&gt;49</title>
<path fill="none" stroke="#000000" d="M149,-621.2006C149,-609.0949 149,-593.0076 149,-579.2674"/>
<polygon fill="#000000" stroke="#000000" points="152.5001,-578.872 149,-568.872 145.5001,-578.8721 152.5001,-578.872"/>
<text text-anchor="middle" x="159.5" y="-591" font-family="Times,serif" font-size="14.00" fill="#000000">192</text>
</g>
<!-- 5 -->
<g id="node8" class="node">
<title>5</title>
<ellipse fill="none" stroke="#ff0000" cx="99" cy="-462" rx="27" ry="18"/>
<text text-anchor="middle" x="99" y="-457.8" font-family="Times,serif" font-size="14.00" fill="#000000">5</text>
</g>
<!-- 49&#45;&gt;5 -->
<g id="edge7" class="edge">
<title>49&#45;&gt;5</title>
<path fill="none" stroke="#000000" d="M139.3595,-533.6785C132.0966,-520.7795 122.0098,-502.8655 113.7373,-488.1734"/>
<polygon fill="#000000" stroke="#000000" points="116.5671,-486.0654 108.6109,-479.069 110.4675,-489.4999 116.5671,-486.0654"/>
<text text-anchor="middle" x="139.5" y="-502.2" font-family="Times,serif" font-size="14.00" fill="#000000">190</text>
</g>
<!-- 6 -->
<g id="node21" class="node">
<title>6</title>
<ellipse fill="none" stroke="#ff0000" cx="171" cy="-462" rx="27" ry="18"/>
<text text-anchor="middle" x="171" y="-457.8" font-family="Times,serif" font-size="14.00" fill="#000000">6</text>
</g>
<!-- 49&#45;&gt;6 -->
<g id="edge8" class="edge">
<title>49&#45;&gt;6</title>
<path fill="none" stroke="#000000" d="M153.452,-532.83C156.4936,-520.553 160.5854,-504.0372 164.0526,-490.0421"/>
<polygon fill="#000000" stroke="#000000" points="167.547,-490.4915 166.5546,-479.9433 160.7525,-488.8081 167.547,-490.4915"/>
<text text-anchor="middle" x="172.5" y="-502.2" font-family="Times,serif" font-size="14.00" fill="#000000">201</text>
</g>
<!-- 43 -->
<g id="node9" class="node">
<title>43</title>
<ellipse fill="none" stroke="#000000" cx="99" cy="-373.2" rx="27" ry="18"/>
<text text-anchor="middle" x="99" y="-369" font-family="Times,serif" font-size="14.00" fill="#000000">43</text>
</g>
<!-- 5&#45;&gt;43 -->
<g id="edge9" class="edge">
<title>5&#45;&gt;43</title>
<path fill="none" stroke="#000000" d="M99,-443.6006C99,-431.4949 99,-415.4076 99,-401.6674"/>
<polygon fill="#000000" stroke="#000000" points="102.5001,-401.272 99,-391.272 95.5001,-401.2721 102.5001,-401.272"/>
<text text-anchor="middle" x="109.5" y="-413.4" font-family="Times,serif" font-size="14.00" fill="#000000">200</text>
</g>
<!-- 8 -->
<g id="node10" class="node">
<title>8</title>
<ellipse fill="none" stroke="#ff0000" cx="27" cy="-284.4" rx="27" ry="18"/>
<text text-anchor="middle" x="27" y="-280.2" font-family="Times,serif" font-size="14.00" fill="#000000">8</text>
</g>
<!-- 43&#45;&gt;8 -->
<g id="edge10" class="edge">
<title>43&#45;&gt;8</title>
<path fill="none" stroke="#000000" d="M86.1278,-357.3243C75.1384,-343.7707 59.1627,-324.0674 46.587,-308.5573"/>
<polygon fill="#000000" stroke="#000000" points="49.0202,-306.0009 40.0035,-300.4376 43.5829,-310.4095 49.0202,-306.0009"/>
<text text-anchor="middle" x="80.5" y="-324.6" font-family="Times,serif" font-size="14.00" fill="#000000">197</text>
</g>
<!-- 11 -->
<g id="node11" class="node">
<title>11</title>
<ellipse fill="none" stroke="#ff0000" cx="99" cy="-284.4" rx="27" ry="18"/>
<text text-anchor="middle" x="99" y="-280.2" font-family="Times,serif" font-size="14.00" fill="#000000">11</text>
</g>
<!-- 43&#45;&gt;11 -->
<g id="edge11" class="edge">
<title>43&#45;&gt;11</title>
<path fill="none" stroke="#000000" d="M99,-354.8006C99,-342.6949 99,-326.6076 99,-312.8674"/>
<polygon fill="#000000" stroke="#000000" points="102.5001,-312.472 99,-302.472 95.5001,-312.4721 102.5001,-312.472"/>
<text text-anchor="middle" x="109.5" y="-324.6" font-family="Times,serif" font-size="14.00" fill="#000000">185</text>
</g>
<!-- 16 -->
<g id="node13" class="node">
<title>16</title>
<ellipse fill="none" stroke="#ff0000" cx="171" cy="-284.4" rx="27" ry="18"/>
<text text-anchor="middle" x="171" y="-280.2" font-family="Times,serif" font-size="14.00" fill="#000000">16</text>
</g>
<!-- 43&#45;&gt;16 -->
<g id="edge12" class="edge">
<title>43&#45;&gt;16</title>
<path fill="none" stroke="#000000" d="M111.8722,-357.3243C122.8616,-343.7707 138.8373,-324.0674 151.413,-308.5573"/>
<polygon fill="#000000" stroke="#000000" points="154.4171,-310.4095 157.9965,-300.4376 148.9798,-306.0009 154.4171,-310.4095"/>
<text text-anchor="middle" x="152.5" y="-324.6" font-family="Times,serif" font-size="14.00" fill="#000000">192</text>
</g>
<!-- 12 -->
<g id="node12" class="node">
<title>12</title>
<ellipse fill="none" stroke="#ff0000" cx="99" cy="-195.6" rx="27" ry="18"/>
<text text-anchor="middle" x="99" y="-191.4" font-family="Times,serif" font-size="14.00" fill="#000000">12</text>
</g>
<!-- 11&#45;&gt;12 -->
<g id="edge13" class="edge">
<title>11&#45;&gt;12</title>
<path fill="none" stroke="#000000" d="M99,-266.0006C99,-253.8949 99,-237.8076 99,-224.0674"/>
<polygon fill="#000000" stroke="#000000" points="102.5001,-223.672 99,-213.672 95.5001,-223.6721 102.5001,-223.672"/>
<text text-anchor="middle" x="109.5" y="-235.8" font-family="Times,serif" font-size="14.00" fill="#000000">296</text>
</g>
<!-- 21 -->
<g id="node14" class="node">
<title>21</title>
<ellipse fill="none" stroke="#000000" cx="171" cy="-195.6" rx="27" ry="18"/>
<text text-anchor="middle" x="171" y="-191.4" font-family="Times,serif" font-size="14.00" fill="#000000">21</text>
</g>
<!-- 16&#45;&gt;21 -->
<g id="edge14" class="edge">
<title>16&#45;&gt;21</title>
<path fill="none" stroke="#000000" d="M171,-266.0006C171,-253.8949 171,-237.8076 171,-224.0674"/>
<polygon fill="#000000" stroke="#000000" points="174.5001,-223.672 171,-213.672 167.5001,-223.6721 174.5001,-223.672"/>
<text text-anchor="middle" x="181.5" y="-235.8" font-family="Times,serif" font-size="14.00" fill="#000000">194</text>
</g>
<!-- 57 -->
<g id="node18" class="node">
<title>57</title>
<ellipse fill="none" stroke="#000000" cx="243" cy="-195.6" rx="27" ry="18"/>
<text text-anchor="middle" x="243" y="-191.4" font-family="Times,serif" font-size="14.00" fill="#000000">57</text>
</g>
<!-- 16&#45;&gt;57 -->
<g id="edge15" class="edge">
<title>16&#45;&gt;57</title>
<path fill="none" stroke="#000000" d="M183.8722,-268.5243C194.8616,-254.9707 210.8373,-235.2674 223.413,-219.7573"/>
<polygon fill="#000000" stroke="#000000" points="226.4171,-221.6095 229.9965,-211.6376 220.9798,-217.2009 226.4171,-221.6095"/>
<text text-anchor="middle" x="223.5" y="-235.8" font-family="Times,serif" font-size="14.00" fill="#000000">195</text>
</g>
<!-- 1 -->
<g id="node15" class="node">
<title>1</title>
<ellipse fill="none" stroke="#ff0000" cx="99" cy="-106.8" rx="27" ry="18"/>
<text text-anchor="middle" x="99" y="-102.6" font-family="Times,serif" font-size="14.00" fill="#000000">1</text>
</g>
<!-- 21&#45;&gt;1 -->
<g id="edge16" class="edge">
<title>21&#45;&gt;1</title>
<path fill="none" stroke="#000000" d="M158.1278,-179.7243C147.1384,-166.1707 131.1627,-146.4674 118.587,-130.9573"/>
<polygon fill="#000000" stroke="#000000" points="121.0202,-128.4009 112.0035,-122.8376 115.5829,-132.8095 121.0202,-128.4009"/>
<text text-anchor="middle" x="152.5" y="-147" font-family="Times,serif" font-size="14.00" fill="#000000">196</text>
</g>
<!-- 7 -->
<g id="node16" class="node">
<title>7</title>
<ellipse fill="none" stroke="#ff0000" cx="171" cy="-106.8" rx="27" ry="18"/>
<text text-anchor="middle" x="171" y="-102.6" font-family="Times,serif" font-size="14.00" fill="#000000">7</text>
</g>
<!-- 21&#45;&gt;7 -->
<g id="edge17" class="edge">
<title>21&#45;&gt;7</title>
<path fill="none" stroke="#000000" d="M171,-177.2006C171,-165.0949 171,-149.0076 171,-135.2674"/>
<polygon fill="#000000" stroke="#000000" points="174.5001,-134.872 171,-124.872 167.5001,-134.8721 174.5001,-134.872"/>
<text text-anchor="middle" x="181.5" y="-147" font-family="Times,serif" font-size="14.00" fill="#000000">195</text>
</g>
<!-- 13 -->
<g id="node17" class="node">
<title>13</title>
<ellipse fill="none" stroke="#ff0000" cx="171" cy="-18" rx="27" ry="18"/>
<text text-anchor="middle" x="171" y="-13.8" font-family="Times,serif" font-size="14.00" fill="#000000">13</text>
</g>
<!-- 7&#45;&gt;13 -->
<g id="edge18" class="edge">
<title>7&#45;&gt;13</title>
<path fill="none" stroke="#000000" d="M171,-88.4006C171,-76.2949 171,-60.2076 171,-46.4674"/>
<polygon fill="#000000" stroke="#000000" points="174.5001,-46.072 171,-36.072 167.5001,-46.0721 174.5001,-46.072"/>
<text text-anchor="middle" x="181.5" y="-58.2" font-family="Times,serif" font-size="14.00" fill="#000000">296</text>
</g>
<!-- 2 -->
<g id="node19" class="node">
<title>2</title>
<ellipse fill="none" stroke="#ff0000" cx="243" cy="-106.8" rx="27" ry="18"/>
<text text-anchor="middle" x="243" y="-102.6" font-family="Times,serif" font-size="14.00" fill="#000000">2</text>
</g>
<!-- 57&#45;&gt;2 -->
<g id="edge19" class="edge">
<title>57&#45;&gt;2</title>
<path fill="none" stroke="#000000" d="M243,-177.2006C243,-165.0949 243,-149.0076 243,-135.2674"/>
<polygon fill="#000000" stroke="#000000" points="246.5001,-134.872 243,-124.872 239.5001,-134.8721 246.5001,-134.872"/>
<text text-anchor="middle" x="253.5" y="-147" font-family="Times,serif" font-size="14.00" fill="#000000">196</text>
</g>
<!-- 14 -->
<g id="node20" class="node">
<title>14</title>
<ellipse fill="none" stroke="#ff0000" cx="315" cy="-106.8" rx="27" ry="18"/>
<text text-anchor="middle" x="315" y="-102.6" font-family="Times,serif" font-size="14.00" fill="#000000">14</text>
</g>
<!-- 57&#45;&gt;14 -->
<g id="edge20" class="edge">
<title>57&#45;&gt;14</title>
<path fill="none" stroke="#000000" d="M255.8722,-179.7243C266.8616,-166.1707 282.8373,-146.4674 295.413,-130.9573"/>
<polygon fill="#000000" stroke="#000000" points="298.4171,-132.8095 301.9965,-122.8376 292.9798,-128.4009 298.4171,-132.8095"/>
<text text-anchor="middle" x="295.5" y="-147" font-family="Times,serif" font-size="14.00" fill="#000000">192</text>
</g>
</g>
</svg>
