<svg width="600px" height="1452px"
 viewBox="0.00 0.00 422.00 1020.80" xmlns="http://www.w3.org/2000/svg" xmlns:xlink="http://www.w3.org/1999/xlink">
<g id="graph0" class="graph" transform="scale(1.0 1.0) rotate(0) translate(4 1016.8)">
<title>%0</title>
<polygon fill="#ffffff" stroke="transparent" points="-4,4 -4,-1016.8 418,-1016.8 418,4 -4,4"/>
<!-- 12 -->
<g id="node1" class="node">
<title>12</title>
<ellipse fill="none" stroke="#ff0000" cx="92" cy="-994.8" rx="27" ry="18"/>
<text text-anchor="middle" x="92" y="-990.6" font-family="Times,serif" font-size="14.00" fill="#000000">12</text>
</g>
<!-- 30 -->
<g id="node2" class="node">
<title>30</title>
<ellipse fill="none" stroke="#000000" cx="92" cy="-906" rx="27" ry="18"/>
<text text-anchor="middle" x="92" y="-901.8" font-family="Times,serif" font-size="14.00" fill="#000000">30</text>
</g>
<!-- 12&#45;&gt;30 -->
<g id="edge1" class="edge">
<title>12&#45;&gt;30</title>
<path fill="none" stroke="#000000" d="M92,-976.4006C92,-964.2949 92,-948.2076 92,-934.4674"/>
<polygon fill="#000000" stroke="#000000" points="95.5001,-934.072 92,-924.072 88.5001,-934.0721 95.5001,-934.072"/>
<text text-anchor="middle" x="102.5" y="-946.2" font-family="Times,serif" font-size="14.00" fill="#000000">196</text>
</g>
<!-- 2 -->
<g id="node3" class="node">
<title>2</title>
<ellipse fill="none" stroke="#ff0000" cx="63" cy="-817.2" rx="27" ry="18"/>
<text text-anchor="middle" x="63" y="-813" font-family="Times,serif" font-size="14.00" fill="#000000">2</text>
</g>
<!-- 30&#45;&gt;2 -->
<g id="edge2" class="edge">
<title>30&#45;&gt;2</title>
<path fill="none" stroke="#000000" d="M84.8304,-888.5427C82.5295,-882.6914 80.0486,-876.1031 78,-870 75.3135,-861.9964 72.69,-853.2089 70.4076,-845.1385"/>
<polygon fill="#000000" stroke="#000000" points="73.7571,-844.1191 67.7199,-835.4126 67.01,-845.9837 73.7571,-844.1191"/>
<text text-anchor="middle" x="88.5" y="-857.4" font-family="Times,serif" font-size="14.00" fill="#000000">198</text>
</g>
<!-- 14 -->
<g id="node4" class="node">
<title>14</title>
<ellipse fill="none" stroke="#ff0000" cx="135" cy="-817.2" rx="27" ry="18"/>
<text text-anchor="middle" x="135" y="-813" font-family="Times,serif" font-size="14.00" fill="#000000">14</text>
</g>
<!-- 30&#45;&gt;14 -->
<g id="edge3" class="edge">
<title>30&#45;&gt;14</title>
<path fill="none" stroke="#000000" d="M100.4954,-888.456C106.7195,-875.6025 115.2726,-857.9393 122.3059,-843.4148"/>
<polygon fill="#000000" stroke="#000000" points="125.4603,-844.9311 126.6685,-834.4054 119.1601,-841.8803 125.4603,-844.9311"/>
<text text-anchor="middle" x="128.5" y="-857.4" font-family="Times,serif" font-size="14.00" fill="#000000">197</text>
</g>
<!-- 37 -->
<g id="node5" class="node">
<title>37</title>
<ellipse fill="none" stroke="#000000" cx="135" cy="-728.4" rx="27" ry="18"/>
<text text-anchor="middle" x="135" y="-724.2" font-family="Times,serif" font-size="14.00" fill="#000000">37</text>
</g>
<!-- 14&#45;&gt;37 -->
<g id="edge4" class="edge">
<title>14&#45;&gt;37</title>
<path fill="none" stroke="#000000" d="M135,-798.8006C135,-786.6949 135,-770.6076 135,-756.8674"/>
<polygon fill="#000000" stroke="#000000" points="138.5001,-756.472 135,-746.472 131.5001,-756.4721 138.5001,-756.472"/>
<text text-anchor="middle" x="145.5" y="-768.6" font-family="Times,serif" font-size="14.00" fill="#000000">189</text>
</g>
<!-- 13 -->
<g id="node6" class="node">
<title>13</title>
<ellipse fill="none" stroke="#ff0000" cx="135" cy="-639.6" rx="27" ry="18"/>
<text text-anchor="middle" x="135" y="-635.4" font-family="Times,serif" font-size="14.00" fill="#000000">13</text>
</g>
<!-- 37&#45;&gt;13 -->
<g id="edge5" class="edge">
<title>37&#45;&gt;13</title>
<path fill="none" stroke="#000000" d="M135,-710.0006C135,-697.8949 135,-681.8076 135,-668.0674"/>
<polygon fill="#000000" stroke="#000000" points="138.5001,-667.672 135,-657.672 131.5001,-667.6721 138.5001,-667.672"/>
<text text-anchor="middle" x="145.5" y="-679.8" font-family="Times,serif" font-size="14.00" fill="#000000">193</text>
</g>
<!-- 4 -->
<g id="node7" class="node">
<title>4</title>
<ellipse fill="none" stroke="#ff0000" cx="99" cy="-550.8" rx="27" ry="18"/>
<text text-anchor="middle" x="99" y="-546.6" font-family="Times,serif" font-size="14.00" fill="#000000">4</text>
</g>
<!-- 13&#45;&gt;4 -->
<g id="edge6" class="edge">
<title>13&#45;&gt;4</title>
<path fill="none" stroke="#000000" d="M127.8876,-622.056C122.7596,-609.4071 115.7433,-592.1002 109.9097,-577.7105"/>
<polygon fill="#000000" stroke="#000000" points="113.0984,-576.26 106.0977,-568.3076 106.6112,-578.89 113.0984,-576.26"/>
<text text-anchor="middle" x="131.5" y="-591" font-family="Times,serif" font-size="14.00" fill="#000000">299</text>
</g>
<!-- 6 -->
<g id="node9" class="node">
<title>6</title>
<ellipse fill="none" stroke="#ff0000" cx="171" cy="-550.8" rx="27" ry="18"/>
<text text-anchor="middle" x="171" y="-546.6" font-family="Times,serif" font-size="14.00" fill="#000000">6</text>
</g>
<!-- 13&#45;&gt;6 -->
<g id="edge7" class="edge">
<title>13&#45;&gt;6</title>
<path fill="none" stroke="#000000" d="M142.1124,-622.056C147.2404,-609.4071 154.2567,-592.1002 160.0903,-577.7105"/>
<polygon fill="#000000" stroke="#000000" points="163.3888,-578.89 163.9023,-568.3076 156.9016,-576.26 163.3888,-578.89"/>
<text text-anchor="middle" x="166.5" y="-591" font-family="Times,serif" font-size="14.00" fill="#000000">290</text>
</g>
<!-- 19 -->
<g id="node8" class="node">
<title>19</title>
<ellipse fill="none" stroke="#ff0000" cx="99" cy="-462" rx="27" ry="18"/>
<text text-anchor="middle" x="99" y="-457.8" font-family="Times,serif" font-size="14.00" fill="#000000">19</text>
</g>
<!-- 4&#45;&gt;19 -->
<g id="edge8" class="edge">
<title>4&#45;&gt;19</title>
<path fill="none" stroke="#000000" d="M99,-532.4006C99,-520.2949 99,-504.2076 99,-490.4674"/>
<polygon fill="#000000" stroke="#000000" points="102.5001,-490.072 99,-480.072 95.5001,-490.0721 102.5001,-490.072"/>
<text text-anchor="middle" x="109.5" y="-502.2" font-family="Times,serif" font-size="14.00" fill="#000000">296</text>
</g>
<!-- 1 -->
<g id="node10" class="node">
<title>1</title>
<ellipse fill="none" stroke="#ff0000" cx="171" cy="-462" rx="27" ry="18"/>
<text text-anchor="middle" x="171" y="-457.8" font-family="Times,serif" font-size="14.00" fill="#000000">1</text>
</g>
<!-- 6&#45;&gt;1 -->
<g id="edge9" class="edge">
<title>6&#45;&gt;1</title>
<path fill="none" stroke="#000000" d="M171,-532.4006C171,-520.2949 171,-504.2076 171,-490.4674"/>
<polygon fill="#000000" stroke="#000000" points="174.5001,-490.072 171,-480.072 167.5001,-490.0721 174.5001,-490.072"/>
<text text-anchor="middle" x="181.5" y="-502.2" font-family="Times,serif" font-size="14.00" fill="#000000">291</text>
</g>
<!-- 15 -->
<g id="node21" class="node">
<title>15</title>
<ellipse fill="none" stroke="#ff0000" cx="252" cy="-462" rx="27" ry="18"/>
<text text-anchor="middle" x="252" y="-457.8" font-family="Times,serif" font-size="14.00" fill="#000000">15</text>
</g>
<!-- 6&#45;&gt;15 -->
<g id="edge10" class="edge">
<title>6&#45;&gt;15</title>
<path fill="none" stroke="#000000" d="M185.1091,-535.3322C197.6921,-521.5375 216.295,-501.1432 230.6905,-485.3615"/>
<polygon fill="#000000" stroke="#000000" points="233.6275,-487.3353 237.7808,-477.5885 228.4558,-482.6179 233.6275,-487.3353"/>
<text text-anchor="middle" x="228.5" y="-502.2" font-family="Times,serif" font-size="14.00" fill="#000000">297</text>
</g>
<!-- 67 -->
<g id="node11" class="node">
<title>67</title>
<ellipse fill="none" stroke="#000000" cx="99" cy="-373.2" rx="27" ry="18"/>
<text text-anchor="middle" x="99" y="-369" font-family="Times,serif" font-size="14.00" fill="#000000">67</text>
</g>
<!-- 1&#45;&gt;67 -->
<g id="edge11" class="edge">
<title>1&#45;&gt;67</title>
<path fill="none" stroke="#000000" d="M158.1278,-446.1243C147.1384,-432.5707 131.1627,-412.8674 118.587,-397.3573"/>
<polygon fill="#000000" stroke="#000000" points="121.0202,-394.8009 112.0035,-389.2376 115.5829,-399.2095 121.0202,-394.8009"/>
<text text-anchor="middle" x="151.5" y="-413.4" font-family="Times,serif" font-size="14.00" fill="#000000">196</text>
</g>
<!-- 10 -->
<g id="node15" class="node">
<title>10</title>
<ellipse fill="none" stroke="#ff0000" cx="171" cy="-373.2" rx="27" ry="18"/>
<text text-anchor="middle" x="171" y="-369" font-family="Times,serif" font-size="14.00" fill="#000000">10</text>
</g>
<!-- 1&#45;&gt;10 -->
<g id="edge12" class="edge">
<title>1&#45;&gt;10</title>
<path fill="none" stroke="#000000" d="M171,-443.6006C171,-431.4949 171,-415.4076 171,-401.6674"/>
<polygon fill="#000000" stroke="#000000" points="174.5001,-401.272 171,-391.272 167.5001,-401.2721 174.5001,-401.272"/>
<text text-anchor="middle" x="181.5" y="-413.4" font-family="Times,serif" font-size="14.00" fill="#000000">292</text>
</g>
<!-- 5 -->
<g id="node12" class="node">
<title>5</title>
<ellipse fill="none" stroke="#ff0000" cx="27" cy="-284.4" rx="27" ry="18"/>
<text text-anchor="middle" x="27" y="-280.2" font-family="Times,serif" font-size="14.00" fill="#000000">5</text>
</g>
<!-- 67&#45;&gt;5 -->
<g id="edge13" class="edge">
<title>67&#45;&gt;5</title>
<path fill="none" stroke="#000000" d="M86.1278,-357.3243C75.1384,-343.7707 59.1627,-324.0674 46.587,-308.5573"/>
<polygon fill="#000000" stroke="#000000" points="49.0202,-306.0009 40.0035,-300.4376 43.5829,-310.4095 49.0202,-306.0009"/>
<text text-anchor="middle" x="80.5" y="-324.6" font-family="Times,serif" font-size="14.00" fill="#000000">195</text>
</g>
<!-- 8 -->
<g id="node13" class="node">
<title>8</title>
<ellipse fill="none" stroke="#ff0000" cx="99" cy="-284.4" rx="27" ry="18"/>
<text text-anchor="middle" x="99" y="-280.2" font-family="Times,serif" font-size="14.00" fill="#000000">8</text>
</g>
<!-- 67&#45;&gt;8 -->
<g id="edge14" class="edge">
<title>67&#45;&gt;8</title>
<path fill="none" stroke="#000000" d="M99,-354.8006C99,-342.6949 99,-326.6076 99,-312.8674"/>
<polygon fill="#000000" stroke="#000000" points="102.5001,-312.472 99,-302.472 95.5001,-312.4721 102.5001,-312.472"/>
<text text-anchor="middle" x="109.5" y="-324.6" font-family="Times,serif" font-size="14.00" fill="#000000">197</text>
</g>
<!-- 9 -->
<g id="node14" class="node">
<title>9</title>
<ellipse fill="none" stroke="#ff0000" cx="99" cy="-195.6" rx="27" ry="18"/>
<text text-anchor="middle" x="99" y="-191.4" font-family="Times,serif" font-size="14.00" fill="#000000">9</text>
</g>
<!-- 8&#45;&gt;9 -->
<g id="edge15" class="edge">
<title>8&#45;&gt;9</title>
<path fill="none" stroke="#000000" d="M99,-266.0006C99,-253.8949 99,-237.8076 99,-224.0674"/>
<polygon fill="#000000" stroke="#000000" points="102.5001,-223.672 99,-213.672 95.5001,-223.6721 102.5001,-223.672"/>
<text text-anchor="middle" x="109.5" y="-235.8" font-family="Times,serif" font-size="14.00" fill="#000000">301</text>
</g>
<!-- 36 -->
<g id="node16" class="node">
<title>36</title>
<ellipse fill="none" stroke="#000000" cx="171" cy="-284.4" rx="27" ry="18"/>
<text text-anchor="middle" x="171" y="-280.2" font-family="Times,serif" font-size="14.00" fill="#000000">36</text>
</g>
<!-- 10&#45;&gt;36 -->
<g id="edge16" class="edge">
<title>10&#45;&gt;36</title>
<path fill="none" stroke="#000000" d="M171,-354.8006C171,-342.6949 171,-326.6076 171,-312.8674"/>
<polygon fill="#000000" stroke="#000000" points="174.5001,-312.472 171,-302.472 167.5001,-312.4721 174.5001,-312.472"/>
<text text-anchor="middle" x="181.5" y="-324.6" font-family="Times,serif" font-size="14.00" fill="#000000">195</text>
</g>
<!-- 3 -->
<g id="node17" class="node">
<title>3</title>
<ellipse fill="none" stroke="#ff0000" cx="171" cy="-195.6" rx="27" ry="18"/>
<text text-anchor="middle" x="171" y="-191.4" font-family="Times,serif" font-size="14.00" fill="#000000">3</text>
</g>
<!-- 36&#45;&gt;3 -->
<g id="edge17" class="edge">
<title>36&#45;&gt;3</title>
<path fill="none" stroke="#000000" d="M171,-266.0006C171,-253.8949 171,-237.8076 171,-224.0674"/>
<polygon fill="#000000" stroke="#000000" points="174.5001,-223.672 171,-213.672 167.5001,-223.6721 174.5001,-223.672"/>
<text text-anchor="middle" x="181.5" y="-235.8" font-family="Times,serif" font-size="14.00" fill="#000000">192</text>
</g>
<!-- 16 -->
<g id="node18" class="node">
<title>16</title>
<ellipse fill="none" stroke="#ff0000" cx="243" cy="-195.6" rx="27" ry="18"/>
<text text-anchor="middle" x="243" y="-191.4" font-family="Times,serif" font-size="14.00" fill="#000000">16</text>
</g>
<!-- 36&#45;&gt;16 -->
<g id="edge18" class="edge">
<title>36&#45;&gt;16</title>
<path fill="none" stroke="#000000" d="M183.8722,-268.5243C194.8616,-254.9707 210.8373,-235.2674 223.413,-219.7573"/>
<polygon fill="#000000" stroke="#000000" points="226.4171,-221.6095 229.9965,-211.6376 220.9798,-217.2009 226.4171,-221.6095"/>
<text text-anchor="middle" x="223.5" y="-235.8" font-family="Times,serif" font-size="14.00" fill="#000000">197</text>
</g>
<!-- 18 -->
<g id="node19" class="node">
<title>18</title>
<ellipse fill="none" stroke="#ff0000" cx="243" cy="-106.8" rx="27" ry="18"/>
<text text-anchor="middle" x="243" y="-102.6" font-family="Times,serif" font-size="14.00" fill="#000000">18</text>
</g>
<!-- 16&#45;&gt;18 -->
<g id="edge19" class="edge">
<title>16&#45;&gt;18</title>
<path fill="none" stroke="#000000" d="M243,-177.2006C243,-165.0949 243,-149.0076 243,-135.2674"/>
<polygon fill="#000000" stroke="#000000" points="246.5001,-134.872 243,-124.872 239.5001,-134.8721 246.5001,-134.872"/>
<text text-anchor="middle" x="253.5" y="-147" font-family="Times,serif" font-size="14.00" fill="#000000">295</text>
</g>
<!-- 7 -->
<g id="node20" class="node">
<title>7</title>
<ellipse fill="none" stroke="#ff0000" cx="243" cy="-18" rx="27" ry="18"/>
<text text-anchor="middle" x="243" y="-13.8" font-family="Times,serif" font-size="14.00" fill="#000000">7</text>
</g>
<!-- 18&#45;&gt;7 -->
<g id="edge20" class="edge">
<title>18&#45;&gt;7</title>
<path fill="none" stroke="#000000" d="M243,-88.4006C243,-76.2949 243,-60.2076 243,-46.4674"/>
<polygon fill="#000000" stroke="#000000" points="246.5001,-46.072 243,-36.072 239.5001,-46.0721 246.5001,-46.072"/>
<text text-anchor="middle" x="253.5" y="-58.2" font-family="Times,serif" font-size="14.00" fill="#000000">294</text>
</g>
<!-- 80 -->
<g id="node22" class="node">
<title>80</title>
<ellipse fill="none" stroke="#000000" cx="306" cy="-373.2" rx="27" ry="18"/>
<text text-anchor="middle" x="306" y="-369" font-family="Times,serif" font-size="14.00" fill="#000000">80</text>
</g>
<!-- 15&#45;&gt;80 -->
<g id="edge21" class="edge">
<title>15&#45;&gt;80</title>
<path fill="none" stroke="#000000" d="M262.157,-445.2974C270.1014,-432.2333 281.285,-413.8425 290.3684,-398.9053"/>
<polygon fill="#000000" stroke="#000000" points="293.4996,-400.4924 295.705,-390.1296 287.5186,-396.8553 293.4996,-400.4924"/>
<text text-anchor="middle" x="293.5" y="-413.4" font-family="Times,serif" font-size="14.00" fill="#000000">194</text>
</g>
<!-- 17 -->
<g id="node23" class="node">
<title>17</title>
<ellipse fill="none" stroke="#ff0000" cx="243" cy="-284.4" rx="27" ry="18"/>
<text text-anchor="middle" x="243" y="-280.2" font-family="Times,serif" font-size="14.00" fill="#000000">17</text>
</g>
<!-- 80&#45;&gt;17 -->
<g id="edge22" class="edge">
<title>80&#45;&gt;17</title>
<path fill="none" stroke="#000000" d="M294.4448,-356.9127C285.0019,-343.6027 271.4968,-324.5669 260.693,-309.3388"/>
<polygon fill="#000000" stroke="#000000" points="263.3362,-307.0155 254.6953,-300.8848 257.627,-311.0659 263.3362,-307.0155"/>
<text text-anchor="middle" x="290.5" y="-324.6" font-family="Times,serif" font-size="14.00" fill="#000000">194</text>
</g>
<!-- 20 -->
<g id="node24" class="node">
<title>20</title>
<ellipse fill="none" stroke="#ff0000" cx="315" cy="-284.4" rx="27" ry="18"/>
<text text-anchor="middle" x="315" y="-280.2" font-family="Times,serif" font-size="14.00" fill="#000000">20</text>
</g>
<!-- 80&#45;&gt;20 -->
<g id="edge23" class="edge">
<title>80&#45;&gt;20</title>
<path fill="none" stroke="#000000" d="M307.8213,-355.23C309.0574,-343.0338 310.7175,-326.6543 312.1299,-312.7187"/>
<polygon fill="#000000" stroke="#000000" points="315.6243,-312.9501 313.1505,-302.6481 308.6599,-312.2441 315.6243,-312.9501"/>
<text text-anchor="middle" x="321.5" y="-324.6" font-family="Times,serif" font-size="14.00" fill="#000000">195</text>
</g>
<!-- 11 -->
<g id="node25" class="node">
<title>11</title>
<ellipse fill="none" stroke="#ff0000" cx="387" cy="-284.4" rx="27" ry="18"/>
<text text-anchor="middle" x="387" y="-280.2" font-family="Times,serif" font-size="14.00" fill="#000000">11</text>
</g>
<!-- 80&#45;&gt;11 -->
<g id="edge24" class="edge">
<title>80&#45;&gt;11</title>
<path fill="none" stroke="#000000" d="M320.1091,-357.7322C332.6921,-343.9375 351.295,-323.5432 365.6905,-307.7615"/>
<polygon fill="#000000" stroke="#000000" points="368.6275,-309.7353 372.7808,-299.9885 363.4558,-305.0179 368.6275,-309.7353"/>
<text text-anchor="middle" x="363.5" y="-324.6" font-family="Times,serif" font-size="14.00" fill="#000000">197</text>
</g>
</g>
</svg>
