<svg width="600px" height="360px"
 viewBox="0.00 0.00 962.00 576.80" xmlns="http://www.w3.org/2000/svg" xmlns:xlink="http://www.w3.org/1999/xlink">
<g id="graph0" class="graph" transform="scale(1.0 1.0) rotate(0) translate(4 572.8)">
<title>%0</title>
<polygon fill="#ffffff" stroke="transparent" points="-4,4 -4,-572.8 958,-572.8 958,4 -4,4"/>
<!-- 15 -->
<g id="node1" class="node">
<title>15</title>
<ellipse fill="none" stroke="#ff0000" cx="315" cy="-550.8" rx="27" ry="18"/>
<text text-anchor="middle" x="315" y="-546.6" font-family="Times,serif" font-size="14.00" fill="#000000">15</text>
</g>
<!-- 34 -->
<g id="node2" class="node">
<title>34</title>
<ellipse fill="none" stroke="#000000" cx="135" cy="-462" rx="27" ry="18"/>
<text text-anchor="middle" x="135" y="-457.8" font-family="Times,serif" font-size="14.00" fill="#000000">34</text>
</g>
<!-- 15&#45;&gt;34 -->
<g id="edge1" class="edge">
<title>15&#45;&gt;34</title>
<path fill="none" stroke="#000000" d="M293.2878,-540.0886C261.529,-524.421 202.2489,-495.1761 165.9375,-477.2625"/>
<polygon fill="#000000" stroke="#000000" points="167.3058,-474.0348 156.7892,-472.7493 164.2088,-480.3125 167.3058,-474.0348"/>
<text text-anchor="middle" x="252.5" y="-502.2" font-family="Times,serif" font-size="14.00" fill="#000000">202</text>
</g>
<!-- 47 -->
<g id="node6" class="node">
<title>47</title>
<ellipse fill="none" stroke="#000000" cx="315" cy="-462" rx="27" ry="18"/>
<text text-anchor="middle" x="315" y="-457.8" font-family="Times,serif" font-size="14.00" fill="#000000">47</text>
</g>
<!-- 15&#45;&gt;47 -->
<g id="edge2" class="edge">
<title>15&#45;&gt;47</title>
<path fill="none" stroke="#000000" d="M315,-532.4006C315,-520.2949 315,-504.2076 315,-490.4674"/>
<polygon fill="#000000" stroke="#000000" points="318.5001,-490.072 315,-480.072 311.5001,-490.0721 318.5001,-490.072"/>
<text text-anchor="middle" x="325.5" y="-502.2" font-family="Times,serif" font-size="14.00" fill="#000000">202</text>
</g>
<!-- 32 -->
<g id="node12" class="node">
<title>32</title>
<ellipse fill="none" stroke="#000000" cx="603" cy="-462" rx="27" ry="18"/>
<text text-anchor="middle" x="603" y="-457.8" font-family="Times,serif" font-size="14.00" fill="#000000">32</text>
</g>
<!-- 15&#45;&gt;32 -->
<g id="edge3" class="edge">
<title>15&#45;&gt;32</title>
<path fill="none" stroke="#000000" d="M339.5547,-543.229C390.8618,-527.4093 509.5459,-490.815 568.4924,-472.6399"/>
<polygon fill="#000000" stroke="#000000" points="569.5736,-475.9692 578.0984,-469.678 567.511,-469.2799 569.5736,-475.9692"/>
<text text-anchor="middle" x="495.5" y="-502.2" font-family="Times,serif" font-size="14.00" fill="#000000">200</text>
</g>
<!-- 17 -->
<g id="node3" class="node">
<title>17</title>
<ellipse fill="none" stroke="#ff0000" cx="27" cy="-373.2" rx="27" ry="18"/>
<text text-anchor="middle" x="27" y="-369" font-family="Times,serif" font-size="14.00" fill="#000000">17</text>
</g>
<!-- 34&#45;&gt;17 -->
<g id="edge4" class="edge">
<title>34&#45;&gt;17</title>
<path fill="none" stroke="#000000" d="M116.9505,-448.1516C108.411,-441.5292 98.1119,-433.4401 89,-426 76.3984,-415.7104 62.5987,-404.0031 51.2241,-394.2315"/>
<polygon fill="#000000" stroke="#000000" points="53.2816,-391.3843 43.422,-387.5063 48.7113,-396.6864 53.2816,-391.3843"/>
<text text-anchor="middle" x="99.5" y="-413.4" font-family="Times,serif" font-size="14.00" fill="#000000">203</text>
</g>
<!-- 3 -->
<g id="node4" class="node">
<title>3</title>
<ellipse fill="none" stroke="#ff0000" cx="99" cy="-373.2" rx="27" ry="18"/>
<text text-anchor="middle" x="99" y="-369" font-family="Times,serif" font-size="14.00" fill="#000000">3</text>
</g>
<!-- 34&#45;&gt;3 -->
<g id="edge5" class="edge">
<title>34&#45;&gt;3</title>
<path fill="none" stroke="#000000" d="M127.8876,-444.456C122.7596,-431.8071 115.7433,-414.5002 109.9097,-400.1105"/>
<polygon fill="#000000" stroke="#000000" points="113.0984,-398.66 106.0977,-390.7076 106.6112,-401.29 113.0984,-398.66"/>
<text text-anchor="middle" x="131.5" y="-413.4" font-family="Times,serif" font-size="14.00" fill="#000000">199</text>
</g>
<!-- 19 -->
<g id="node5" class="node">
<title>19</title>
<ellipse fill="none" stroke="#ff0000" cx="171" cy="-373.2" rx="27" ry="18"/>
<text text-anchor="middle" x="171" y="-369" font-family="Times,serif" font-size="14.00" fill="#000000">19</text>
</g>
<!-- 34&#45;&gt;19 -->
<g id="edge6" class="edge">
<title>34&#45;&gt;19</title>
<path fill="none" stroke="#000000" d="M142.1124,-444.456C147.2404,-431.8071 154.2567,-414.5002 160.0903,-400.1105"/>
<polygon fill="#000000" stroke="#000000" points="163.3888,-401.29 163.9023,-390.7076 156.9016,-398.66 163.3888,-401.29"/>
<text text-anchor="middle" x="167.5" y="-413.4" font-family="Times,serif" font-size="14.00" fill="#000000">203</text>
</g>
<!-- 2 -->
<g id="node7" class="node">
<title>2</title>
<ellipse fill="none" stroke="#ff0000" cx="243" cy="-373.2" rx="27" ry="18"/>
<text text-anchor="middle" x="243" y="-369" font-family="Times,serif" font-size="14.00" fill="#000000">2</text>
</g>
<!-- 47&#45;&gt;2 -->
<g id="edge7" class="edge">
<title>47&#45;&gt;2</title>
<path fill="none" stroke="#000000" d="M302.1278,-446.1243C291.1384,-432.5707 275.1627,-412.8674 262.587,-397.3573"/>
<polygon fill="#000000" stroke="#000000" points="265.0202,-394.8009 256.0035,-389.2376 259.5829,-399.2095 265.0202,-394.8009"/>
<text text-anchor="middle" x="296.5" y="-413.4" font-family="Times,serif" font-size="14.00" fill="#000000">200</text>
</g>
<!-- 8 -->
<g id="node8" class="node">
<title>8</title>
<ellipse fill="none" stroke="#ff0000" cx="315" cy="-373.2" rx="27" ry="18"/>
<text text-anchor="middle" x="315" y="-369" font-family="Times,serif" font-size="14.00" fill="#000000">8</text>
</g>
<!-- 47&#45;&gt;8 -->
<g id="edge8" class="edge">
<title>47&#45;&gt;8</title>
<path fill="none" stroke="#000000" d="M315,-443.6006C315,-431.4949 315,-415.4076 315,-401.6674"/>
<polygon fill="#000000" stroke="#000000" points="318.5001,-401.272 315,-391.272 311.5001,-401.2721 318.5001,-401.272"/>
<text text-anchor="middle" x="325.5" y="-413.4" font-family="Times,serif" font-size="14.00" fill="#000000">189</text>
</g>
<!-- 12 -->
<g id="node9" class="node">
<title>12</title>
<ellipse fill="none" stroke="#ff0000" cx="387" cy="-373.2" rx="27" ry="18"/>
<text text-anchor="middle" x="387" y="-369" font-family="Times,serif" font-size="14.00" fill="#000000">12</text>
</g>
<!-- 47&#45;&gt;12 -->
<g id="edge9" class="edge">
<title>47&#45;&gt;12</title>
<path fill="none" stroke="#000000" d="M327.8722,-446.1243C338.8616,-432.5707 354.8373,-412.8674 367.413,-397.3573"/>
<polygon fill="#000000" stroke="#000000" points="370.4171,-399.2095 373.9965,-389.2376 364.9798,-394.8009 370.4171,-399.2095"/>
<text text-anchor="middle" x="368.5" y="-413.4" font-family="Times,serif" font-size="14.00" fill="#000000">201</text>
</g>
<!-- 4 -->
<g id="node10" class="node">
<title>4</title>
<ellipse fill="none" stroke="#ff0000" cx="387" cy="-284.4" rx="27" ry="18"/>
<text text-anchor="middle" x="387" y="-280.2" font-family="Times,serif" font-size="14.00" fill="#000000">4</text>
</g>
<!-- 12&#45;&gt;4 -->
<g id="edge10" class="edge">
<title>12&#45;&gt;4</title>
<path fill="none" stroke="#000000" d="M387,-354.8006C387,-342.6949 387,-326.6076 387,-312.8674"/>
<polygon fill="#000000" stroke="#000000" points="390.5001,-312.472 387,-302.472 383.5001,-312.4721 390.5001,-312.472"/>
<text text-anchor="middle" x="397.5" y="-324.6" font-family="Times,serif" font-size="14.00" fill="#000000">293</text>
</g>
<!-- 16 -->
<g id="node11" class="node">
<title>16</title>
<ellipse fill="none" stroke="#ff0000" cx="387" cy="-195.6" rx="27" ry="18"/>
<text text-anchor="middle" x="387" y="-191.4" font-family="Times,serif" font-size="14.00" fill="#000000">16</text>
</g>
<!-- 4&#45;&gt;16 -->
<g id="edge11" class="edge">
<title>4&#45;&gt;16</title>
<path fill="none" stroke="#000000" d="M387,-266.0006C387,-253.8949 387,-237.8076 387,-224.0674"/>
<polygon fill="#000000" stroke="#000000" points="390.5001,-223.672 387,-213.672 383.5001,-223.6721 390.5001,-223.672"/>
<text text-anchor="middle" x="397.5" y="-235.8" font-family="Times,serif" font-size="14.00" fill="#000000">297</text>
</g>
<!-- 18 -->
<g id="node13" class="node">
<title>18</title>
<ellipse fill="none" stroke="#ff0000" cx="459" cy="-373.2" rx="27" ry="18"/>
<text text-anchor="middle" x="459" y="-369" font-family="Times,serif" font-size="14.00" fill="#000000">18</text>
</g>
<!-- 32&#45;&gt;18 -->
<g id="edge12" class="edge">
<title>32&#45;&gt;18</title>
<path fill="none" stroke="#000000" d="M581.2444,-451.0687C567.9717,-444.2141 550.7736,-434.9982 536,-426 518.9185,-415.5962 500.4148,-402.9551 485.8283,-392.6504"/>
<polygon fill="#000000" stroke="#000000" points="487.476,-389.527 477.3001,-386.5772 483.4154,-395.229 487.476,-389.527"/>
<text text-anchor="middle" x="546.5" y="-413.4" font-family="Times,serif" font-size="14.00" fill="#000000">196</text>
</g>
<!-- 20 -->
<g id="node14" class="node">
<title>20</title>
<ellipse fill="none" stroke="#ff0000" cx="531" cy="-373.2" rx="27" ry="18"/>
<text text-anchor="middle" x="531" y="-369" font-family="Times,serif" font-size="14.00" fill="#000000">20</text>
</g>
<!-- 32&#45;&gt;20 -->
<g id="edge13" class="edge">
<title>32&#45;&gt;20</title>
<path fill="none" stroke="#000000" d="M590.1278,-446.1243C579.1384,-432.5707 563.1627,-412.8674 550.587,-397.3573"/>
<polygon fill="#000000" stroke="#000000" points="553.0202,-394.8009 544.0035,-389.2376 547.5829,-399.2095 553.0202,-394.8009"/>
<text text-anchor="middle" x="584.5" y="-413.4" font-family="Times,serif" font-size="14.00" fill="#000000">200</text>
</g>
<!-- 7 -->
<g id="node15" class="node">
<title>7</title>
<ellipse fill="none" stroke="#ff0000" cx="603" cy="-373.2" rx="27" ry="18"/>
<text text-anchor="middle" x="603" y="-369" font-family="Times,serif" font-size="14.00" fill="#000000">7</text>
</g>
<!-- 32&#45;&gt;7 -->
<g id="edge14" class="edge">
<title>32&#45;&gt;7</title>
<path fill="none" stroke="#000000" d="M603,-443.6006C603,-431.4949 603,-415.4076 603,-401.6674"/>
<polygon fill="#000000" stroke="#000000" points="606.5001,-401.272 603,-391.272 599.5001,-401.2721 606.5001,-401.272"/>
<text text-anchor="middle" x="613.5" y="-413.4" font-family="Times,serif" font-size="14.00" fill="#000000">200</text>
</g>
<!-- 9 -->
<g id="node16" class="node">
<title>9</title>
<ellipse fill="none" stroke="#ff0000" cx="675" cy="-373.2" rx="27" ry="18"/>
<text text-anchor="middle" x="675" y="-369" font-family="Times,serif" font-size="14.00" fill="#000000">9</text>
</g>
<!-- 32&#45;&gt;9 -->
<g id="edge15" class="edge">
<title>32&#45;&gt;9</title>
<path fill="none" stroke="#000000" d="M615.8722,-446.1243C626.8616,-432.5707 642.8373,-412.8674 655.413,-397.3573"/>
<polygon fill="#000000" stroke="#000000" points="658.4171,-399.2095 661.9965,-389.2376 652.9798,-394.8009 658.4171,-399.2095"/>
<text text-anchor="middle" x="656.5" y="-413.4" font-family="Times,serif" font-size="14.00" fill="#000000">199</text>
</g>
<!-- 10 -->
<g id="node17" class="node">
<title>10</title>
<ellipse fill="none" stroke="#ff0000" cx="747" cy="-373.2" rx="27" ry="18"/>
<text text-anchor="middle" x="747" y="-369" font-family="Times,serif" font-size="14.00" fill="#000000">10</text>
</g>
<!-- 32&#45;&gt;10 -->
<g id="edge16" class="edge">
<title>32&#45;&gt;10</title>
<path fill="none" stroke="#000000" d="M624.8072,-451.2991C638.3322,-444.4564 655.9407,-435.1717 671,-426 687.9311,-415.6882 706.1971,-403.0505 720.5776,-392.7245"/>
<polygon fill="#000000" stroke="#000000" points="722.938,-395.3366 728.9828,-386.6354 718.8312,-389.6678 722.938,-395.3366"/>
<text text-anchor="middle" x="707.5" y="-413.4" font-family="Times,serif" font-size="14.00" fill="#000000">189</text>
</g>
<!-- 14 -->
<g id="node18" class="node">
<title>14</title>
<ellipse fill="none" stroke="#ff0000" cx="819" cy="-373.2" rx="27" ry="18"/>
<text text-anchor="middle" x="819" y="-369" font-family="Times,serif" font-size="14.00" fill="#000000">14</text>
</g>
<!-- 32&#45;&gt;14 -->
<g id="edge17" class="edge">
<title>32&#45;&gt;14</title>
<path fill="none" stroke="#000000" d="M628.5988,-455.8788C653.0622,-449.6531 690.7366,-439.0753 722,-426 745.866,-416.0185 771.5191,-401.892 790.4462,-390.7623"/>
<polygon fill="#000000" stroke="#000000" points="792.3607,-393.6958 799.1601,-385.5706 788.7778,-387.6822 792.3607,-393.6958"/>
<text text-anchor="middle" x="765.5" y="-413.4" font-family="Times,serif" font-size="14.00" fill="#000000">204</text>
</g>
<!-- 21 -->
<g id="node19" class="node">
<title>21</title>
<ellipse fill="none" stroke="#000000" cx="819" cy="-284.4" rx="27" ry="18"/>
<text text-anchor="middle" x="819" y="-280.2" font-family="Times,serif" font-size="14.00" fill="#000000">21</text>
</g>
<!-- 14&#45;&gt;21 -->
<g id="edge18" class="edge">
<title>14&#45;&gt;21</title>
<path fill="none" stroke="#000000" d="M819,-354.8006C819,-342.6949 819,-326.6076 819,-312.8674"/>
<polygon fill="#000000" stroke="#000000" points="822.5001,-312.472 819,-302.472 815.5001,-312.4721 822.5001,-312.472"/>
<text text-anchor="middle" x="829.5" y="-324.6" font-family="Times,serif" font-size="14.00" fill="#000000">185</text>
</g>
<!-- 1 -->
<g id="node20" class="node">
<title>1</title>
<ellipse fill="none" stroke="#ff0000" cx="819" cy="-195.6" rx="27" ry="18"/>
<text text-anchor="middle" x="819" y="-191.4" font-family="Times,serif" font-size="14.00" fill="#000000">1</text>
</g>
<!-- 21&#45;&gt;1 -->
<g id="edge19" class="edge">
<title>21&#45;&gt;1</title>
<path fill="none" stroke="#000000" d="M819,-266.0006C819,-253.8949 819,-237.8076 819,-224.0674"/>
<polygon fill="#000000" stroke="#000000" points="822.5001,-223.672 819,-213.672 815.5001,-223.6721 822.5001,-223.672"/>
<text text-anchor="middle" x="829.5" y="-235.8" font-family="Times,serif" font-size="14.00" fill="#000000">191</text>
</g>
<!-- 67 -->
<g id="node21" class="node">
<title>67</title>
<ellipse fill="none" stroke="#000000" cx="711" cy="-106.8" rx="27" ry="18"/>
<text text-anchor="middle" x="711" y="-102.6" font-family="Times,serif" font-size="14.00" fill="#000000">67</text>
</g>
<!-- 1&#45;&gt;67 -->
<g id="edge20" class="edge">
<title>1&#45;&gt;67</title>
<path fill="none" stroke="#000000" d="M800.9505,-181.7516C792.411,-175.1292 782.1119,-167.0401 773,-159.6 760.3984,-149.3104 746.5987,-137.6031 735.2241,-127.8315"/>
<polygon fill="#000000" stroke="#000000" points="737.2816,-124.9843 727.422,-121.1063 732.7113,-130.2864 737.2816,-124.9843"/>
<text text-anchor="middle" x="783.5" y="-147" font-family="Times,serif" font-size="14.00" fill="#000000">190</text>
</g>
<!-- 5 -->
<g id="node23" class="node">
<title>5</title>
<ellipse fill="none" stroke="#ff0000" cx="783" cy="-106.8" rx="27" ry="18"/>
<text text-anchor="middle" x="783" y="-102.6" font-family="Times,serif" font-size="14.00" fill="#000000">5</text>
</g>
<!-- 1&#45;&gt;5 -->
<g id="edge21" class="edge">
<title>1&#45;&gt;5</title>
<path fill="none" stroke="#000000" d="M811.8876,-178.056C806.7596,-165.4071 799.7433,-148.1002 793.9097,-133.7105"/>
<polygon fill="#000000" stroke="#000000" points="797.0984,-132.26 790.0977,-124.3076 790.6112,-134.89 797.0984,-132.26"/>
<text text-anchor="middle" x="815.5" y="-147" font-family="Times,serif" font-size="14.00" fill="#000000">297</text>
</g>
<!-- 6 -->
<g id="node24" class="node">
<title>6</title>
<ellipse fill="none" stroke="#ff0000" cx="855" cy="-106.8" rx="27" ry="18"/>
<text text-anchor="middle" x="855" y="-102.6" font-family="Times,serif" font-size="14.00" fill="#000000">6</text>
</g>
<!-- 1&#45;&gt;6 -->
<g id="edge22" class="edge">
<title>1&#45;&gt;6</title>
<path fill="none" stroke="#000000" d="M826.1124,-178.056C831.2404,-165.4071 838.2567,-148.1002 844.0903,-133.7105"/>
<polygon fill="#000000" stroke="#000000" points="847.3888,-134.89 847.9023,-124.3076 840.9016,-132.26 847.3888,-134.89"/>
<text text-anchor="middle" x="850.5" y="-147" font-family="Times,serif" font-size="14.00" fill="#000000">305</text>
</g>
<!-- 11 -->
<g id="node25" class="node">
<title>11</title>
<ellipse fill="none" stroke="#ff0000" cx="927" cy="-106.8" rx="27" ry="18"/>
<text text-anchor="middle" x="927" y="-102.6" font-family="Times,serif" font-size="14.00" fill="#000000">11</text>
</g>
<!-- 1&#45;&gt;11 -->
<g id="edge23" class="edge">
<title>1&#45;&gt;11</title>
<path fill="none" stroke="#000000" d="M837.0495,-181.7516C845.589,-175.1292 855.8881,-167.0401 865,-159.6 877.6016,-149.3104 891.4013,-137.6031 902.7759,-127.8315"/>
<polygon fill="#000000" stroke="#000000" points="905.2887,-130.2864 910.578,-121.1063 900.7184,-124.9843 905.2887,-130.2864"/>
<text text-anchor="middle" x="893.5" y="-147" font-family="Times,serif" font-size="14.00" fill="#000000">296</text>
</g>
<!-- 13 -->
<g id="node22" class="node">
<title>13</title>
<ellipse fill="none" stroke="#ff0000" cx="711" cy="-18" rx="27" ry="18"/>
<text text-anchor="middle" x="711" y="-13.8" font-family="Times,serif" font-size="14.00" fill="#000000">13</text>
</g>
<!-- 67&#45;&gt;13 -->
<g id="edge24" class="edge">
<title>67&#45;&gt;13</title>
<path fill="none" stroke="#000000" d="M711,-88.4006C711,-76.2949 711,-60.2076 711,-46.4674"/>
<polygon fill="#000000" stroke="#000000" points="714.5001,-46.072 711,-36.072 707.5001,-46.0721 714.5001,-46.072"/>
<text text-anchor="middle" x="721.5" y="-58.2" font-family="Times,serif" font-size="14.00" fill="#000000">187</text>
</g>
</g>
</svg>
