<svg width="600px" height="1951px"
 viewBox="0.00 0.00 314.00 1020.80" xmlns="http://www.w3.org/2000/svg" xmlns:xlink="http://www.w3.org/1999/xlink">
<g id="graph0" class="graph" transform="scale(1.0 1.0) rotate(0) translate(4 1016.8)">
<title>%0</title>
<polygon fill="#ffffff" stroke="transparent" points="-4,4 -4,-1016.8 310,-1016.8 310,4 -4,4"/>
<!-- 3 -->
<g id="node1" class="node">
<title>3</title>
<ellipse fill="none" stroke="#ff0000" cx="206" cy="-994.8" rx="27" ry="18"/>
<text text-anchor="middle" x="206" y="-990.6" font-family="Times,serif" font-size="14.00" fill="#000000">3</text>
</g>
<!-- 1 -->
<g id="node2" class="node">
<title>1</title>
<ellipse fill="none" stroke="#ff0000" cx="156" cy="-906" rx="27" ry="18"/>
<text text-anchor="middle" x="156" y="-901.8" font-family="Times,serif" font-size="14.00" fill="#000000">1</text>
</g>
<!-- 3&#45;&gt;1 -->
<g id="edge1" class="edge">
<title>3&#45;&gt;1</title>
<path fill="none" stroke="#000000" d="M196.3595,-977.6785C189.0966,-964.7795 179.0098,-946.8655 170.7373,-932.1734"/>
<polygon fill="#000000" stroke="#000000" points="173.5671,-930.0654 165.6109,-923.069 167.4675,-933.4999 173.5671,-930.0654"/>
<text text-anchor="middle" x="196.5" y="-946.2" font-family="Times,serif" font-size="14.00" fill="#000000">301</text>
</g>
<!-- 14 -->
<g id="node25" class="node">
<title>14</title>
<ellipse fill="none" stroke="#ff0000" cx="228" cy="-906" rx="27" ry="18"/>
<text text-anchor="middle" x="228" y="-901.8" font-family="Times,serif" font-size="14.00" fill="#000000">14</text>
</g>
<!-- 3&#45;&gt;14 -->
<g id="edge2" class="edge">
<title>3&#45;&gt;14</title>
<path fill="none" stroke="#000000" d="M210.452,-976.83C213.4936,-964.553 217.5854,-948.0372 221.0526,-934.0421"/>
<polygon fill="#000000" stroke="#000000" points="224.547,-934.4915 223.5546,-923.9433 217.7525,-932.8081 224.547,-934.4915"/>
<text text-anchor="middle" x="228.5" y="-946.2" font-family="Times,serif" font-size="14.00" fill="#000000">296</text>
</g>
<!-- 26 -->
<g id="node3" class="node">
<title>26</title>
<ellipse fill="none" stroke="#000000" cx="156" cy="-817.2" rx="27" ry="18"/>
<text text-anchor="middle" x="156" y="-813" font-family="Times,serif" font-size="14.00" fill="#000000">26</text>
</g>
<!-- 1&#45;&gt;26 -->
<g id="edge3" class="edge">
<title>1&#45;&gt;26</title>
<path fill="none" stroke="#000000" d="M156,-887.6006C156,-875.4949 156,-859.4076 156,-845.6674"/>
<polygon fill="#000000" stroke="#000000" points="159.5001,-845.272 156,-835.272 152.5001,-845.2721 159.5001,-845.272"/>
<text text-anchor="middle" x="166.5" y="-857.4" font-family="Times,serif" font-size="14.00" fill="#000000">192</text>
</g>
<!-- 17 -->
<g id="node4" class="node">
<title>17</title>
<ellipse fill="none" stroke="#ff0000" cx="84" cy="-728.4" rx="27" ry="18"/>
<text text-anchor="middle" x="84" y="-724.2" font-family="Times,serif" font-size="14.00" fill="#000000">17</text>
</g>
<!-- 26&#45;&gt;17 -->
<g id="edge4" class="edge">
<title>26&#45;&gt;17</title>
<path fill="none" stroke="#000000" d="M143.1278,-801.3243C132.1384,-787.7707 116.1627,-768.0674 103.587,-752.5573"/>
<polygon fill="#000000" stroke="#000000" points="106.0202,-750.0009 97.0035,-744.4376 100.5829,-754.4095 106.0202,-750.0009"/>
<text text-anchor="middle" x="137.5" y="-768.6" font-family="Times,serif" font-size="14.00" fill="#000000">195</text>
</g>
<!-- 20 -->
<g id="node6" class="node">
<title>20</title>
<ellipse fill="none" stroke="#ff0000" cx="156" cy="-728.4" rx="27" ry="18"/>
<text text-anchor="middle" x="156" y="-724.2" font-family="Times,serif" font-size="14.00" fill="#000000">20</text>
</g>
<!-- 26&#45;&gt;20 -->
<g id="edge5" class="edge">
<title>26&#45;&gt;20</title>
<path fill="none" stroke="#000000" d="M156,-798.8006C156,-786.6949 156,-770.6076 156,-756.8674"/>
<polygon fill="#000000" stroke="#000000" points="159.5001,-756.472 156,-746.472 152.5001,-756.4721 159.5001,-756.472"/>
<text text-anchor="middle" x="166.5" y="-768.6" font-family="Times,serif" font-size="14.00" fill="#000000">196</text>
</g>
<!-- 9 -->
<g id="node7" class="node">
<title>9</title>
<ellipse fill="none" stroke="#ff0000" cx="228" cy="-728.4" rx="27" ry="18"/>
<text text-anchor="middle" x="228" y="-724.2" font-family="Times,serif" font-size="14.00" fill="#000000">9</text>
</g>
<!-- 26&#45;&gt;9 -->
<g id="edge6" class="edge">
<title>26&#45;&gt;9</title>
<path fill="none" stroke="#000000" d="M168.8722,-801.3243C179.8616,-787.7707 195.8373,-768.0674 208.413,-752.5573"/>
<polygon fill="#000000" stroke="#000000" points="211.4171,-754.4095 214.9965,-744.4376 205.9798,-750.0009 211.4171,-754.4095"/>
<text text-anchor="middle" x="209.5" y="-768.6" font-family="Times,serif" font-size="14.00" fill="#000000">196</text>
</g>
<!-- 15 -->
<g id="node5" class="node">
<title>15</title>
<ellipse fill="none" stroke="#ff0000" cx="84" cy="-639.6" rx="27" ry="18"/>
<text text-anchor="middle" x="84" y="-635.4" font-family="Times,serif" font-size="14.00" fill="#000000">15</text>
</g>
<!-- 17&#45;&gt;15 -->
<g id="edge7" class="edge">
<title>17&#45;&gt;15</title>
<path fill="none" stroke="#000000" d="M84,-710.0006C84,-697.8949 84,-681.8076 84,-668.0674"/>
<polygon fill="#000000" stroke="#000000" points="87.5001,-667.672 84,-657.672 80.5001,-667.6721 87.5001,-667.672"/>
<text text-anchor="middle" x="94.5" y="-679.8" font-family="Times,serif" font-size="14.00" fill="#000000">299</text>
</g>
<!-- 38 -->
<g id="node8" class="node">
<title>38</title>
<ellipse fill="none" stroke="#000000" cx="178" cy="-639.6" rx="27" ry="18"/>
<text text-anchor="middle" x="178" y="-635.4" font-family="Times,serif" font-size="14.00" fill="#000000">38</text>
</g>
<!-- 9&#45;&gt;38 -->
<g id="edge8" class="edge">
<title>9&#45;&gt;38</title>
<path fill="none" stroke="#000000" d="M218.3595,-711.2785C211.0966,-698.3795 201.0098,-680.4655 192.7373,-665.7734"/>
<polygon fill="#000000" stroke="#000000" points="195.5671,-663.6654 187.6109,-656.669 189.4675,-667.0999 195.5671,-663.6654"/>
<text text-anchor="middle" x="218.5" y="-679.8" font-family="Times,serif" font-size="14.00" fill="#000000">191</text>
</g>
<!-- 7 -->
<g id="node24" class="node">
<title>7</title>
<ellipse fill="none" stroke="#ff0000" cx="250" cy="-639.6" rx="27" ry="18"/>
<text text-anchor="middle" x="250" y="-635.4" font-family="Times,serif" font-size="14.00" fill="#000000">7</text>
</g>
<!-- 9&#45;&gt;7 -->
<g id="edge9" class="edge">
<title>9&#45;&gt;7</title>
<path fill="none" stroke="#000000" d="M232.452,-710.43C235.4936,-698.153 239.5854,-681.6372 243.0526,-667.6421"/>
<polygon fill="#000000" stroke="#000000" points="246.547,-668.0915 245.5546,-657.5433 239.7525,-666.4081 246.547,-668.0915"/>
<text text-anchor="middle" x="250.5" y="-679.8" font-family="Times,serif" font-size="14.00" fill="#000000">297</text>
</g>
<!-- 6 -->
<g id="node9" class="node">
<title>6</title>
<ellipse fill="none" stroke="#ff0000" cx="135" cy="-550.8" rx="27" ry="18"/>
<text text-anchor="middle" x="135" y="-546.6" font-family="Times,serif" font-size="14.00" fill="#000000">6</text>
</g>
<!-- 38&#45;&gt;6 -->
<g id="edge10" class="edge">
<title>38&#45;&gt;6</title>
<path fill="none" stroke="#000000" d="M169.5046,-622.056C163.2805,-609.2025 154.7274,-591.5393 147.6941,-577.0148"/>
<polygon fill="#000000" stroke="#000000" points="150.8399,-575.4803 143.3315,-568.0054 144.5397,-578.5311 150.8399,-575.4803"/>
<text text-anchor="middle" x="171.5" y="-591" font-family="Times,serif" font-size="14.00" fill="#000000">193</text>
</g>
<!-- 13 -->
<g id="node23" class="node">
<title>13</title>
<ellipse fill="none" stroke="#ff0000" cx="207" cy="-550.8" rx="27" ry="18"/>
<text text-anchor="middle" x="207" y="-546.6" font-family="Times,serif" font-size="14.00" fill="#000000">13</text>
</g>
<!-- 38&#45;&gt;13 -->
<g id="edge11" class="edge">
<title>38&#45;&gt;13</title>
<path fill="none" stroke="#000000" d="M183.8686,-621.63C187.9439,-609.1511 193.4494,-592.2928 198.0669,-578.1536"/>
<polygon fill="#000000" stroke="#000000" points="201.4617,-579.0327 201.2391,-568.4402 194.8076,-576.8596 201.4617,-579.0327"/>
<text text-anchor="middle" x="206.5" y="-591" font-family="Times,serif" font-size="14.00" fill="#000000">198</text>
</g>
<!-- 73 -->
<g id="node10" class="node">
<title>73</title>
<ellipse fill="none" stroke="#000000" cx="135" cy="-462" rx="27" ry="18"/>
<text text-anchor="middle" x="135" y="-457.8" font-family="Times,serif" font-size="14.00" fill="#000000">73</text>
</g>
<!-- 6&#45;&gt;73 -->
<g id="edge12" class="edge">
<title>6&#45;&gt;73</title>
<path fill="none" stroke="#000000" d="M135,-532.4006C135,-520.2949 135,-504.2076 135,-490.4674"/>
<polygon fill="#000000" stroke="#000000" points="138.5001,-490.072 135,-480.072 131.5001,-490.0721 138.5001,-490.072"/>
<text text-anchor="middle" x="145.5" y="-502.2" font-family="Times,serif" font-size="14.00" fill="#000000">191</text>
</g>
<!-- 18 -->
<g id="node11" class="node">
<title>18</title>
<ellipse fill="none" stroke="#ff0000" cx="63" cy="-373.2" rx="27" ry="18"/>
<text text-anchor="middle" x="63" y="-369" font-family="Times,serif" font-size="14.00" fill="#000000">18</text>
</g>
<!-- 73&#45;&gt;18 -->
<g id="edge13" class="edge">
<title>73&#45;&gt;18</title>
<path fill="none" stroke="#000000" d="M122.1278,-446.1243C111.1384,-432.5707 95.1627,-412.8674 82.587,-397.3573"/>
<polygon fill="#000000" stroke="#000000" points="85.0202,-394.8009 76.0035,-389.2376 79.5829,-399.2095 85.0202,-394.8009"/>
<text text-anchor="middle" x="116.5" y="-413.4" font-family="Times,serif" font-size="14.00" fill="#000000">191</text>
</g>
<!-- 10 -->
<g id="node12" class="node">
<title>10</title>
<ellipse fill="none" stroke="#ff0000" cx="135" cy="-373.2" rx="27" ry="18"/>
<text text-anchor="middle" x="135" y="-369" font-family="Times,serif" font-size="14.00" fill="#000000">10</text>
</g>
<!-- 73&#45;&gt;10 -->
<g id="edge14" class="edge">
<title>73&#45;&gt;10</title>
<path fill="none" stroke="#000000" d="M135,-443.6006C135,-431.4949 135,-415.4076 135,-401.6674"/>
<polygon fill="#000000" stroke="#000000" points="138.5001,-401.272 135,-391.272 131.5001,-401.2721 138.5001,-401.272"/>
<text text-anchor="middle" x="145.5" y="-413.4" font-family="Times,serif" font-size="14.00" fill="#000000">193</text>
</g>
<!-- 16 -->
<g id="node20" class="node">
<title>16</title>
<ellipse fill="none" stroke="#ff0000" cx="207" cy="-373.2" rx="27" ry="18"/>
<text text-anchor="middle" x="207" y="-369" font-family="Times,serif" font-size="14.00" fill="#000000">16</text>
</g>
<!-- 73&#45;&gt;16 -->
<g id="edge15" class="edge">
<title>73&#45;&gt;16</title>
<path fill="none" stroke="#000000" d="M147.8722,-446.1243C158.8616,-432.5707 174.8373,-412.8674 187.413,-397.3573"/>
<polygon fill="#000000" stroke="#000000" points="190.4171,-399.2095 193.9965,-389.2376 184.9798,-394.8009 190.4171,-399.2095"/>
<text text-anchor="middle" x="188.5" y="-413.4" font-family="Times,serif" font-size="14.00" fill="#000000">197</text>
</g>
<!-- 58 -->
<g id="node13" class="node">
<title>58</title>
<ellipse fill="none" stroke="#000000" cx="135" cy="-284.4" rx="27" ry="18"/>
<text text-anchor="middle" x="135" y="-280.2" font-family="Times,serif" font-size="14.00" fill="#000000">58</text>
</g>
<!-- 10&#45;&gt;58 -->
<g id="edge16" class="edge">
<title>10&#45;&gt;58</title>
<path fill="none" stroke="#000000" d="M135,-354.8006C135,-342.6949 135,-326.6076 135,-312.8674"/>
<polygon fill="#000000" stroke="#000000" points="138.5001,-312.472 135,-302.472 131.5001,-312.4721 138.5001,-312.472"/>
<text text-anchor="middle" x="145.5" y="-324.6" font-family="Times,serif" font-size="14.00" fill="#000000">205</text>
</g>
<!-- 2 -->
<g id="node14" class="node">
<title>2</title>
<ellipse fill="none" stroke="#ff0000" cx="27" cy="-195.6" rx="27" ry="18"/>
<text text-anchor="middle" x="27" y="-191.4" font-family="Times,serif" font-size="14.00" fill="#000000">2</text>
</g>
<!-- 58&#45;&gt;2 -->
<g id="edge17" class="edge">
<title>58&#45;&gt;2</title>
<path fill="none" stroke="#000000" d="M116.9505,-270.5516C108.411,-263.9292 98.1119,-255.8401 89,-248.4 76.3984,-238.1104 62.5987,-226.4031 51.2241,-216.6315"/>
<polygon fill="#000000" stroke="#000000" points="53.2816,-213.7843 43.422,-209.9063 48.7113,-219.0864 53.2816,-213.7843"/>
<text text-anchor="middle" x="99.5" y="-235.8" font-family="Times,serif" font-size="14.00" fill="#000000">193</text>
</g>
<!-- 5 -->
<g id="node17" class="node">
<title>5</title>
<ellipse fill="none" stroke="#ff0000" cx="99" cy="-195.6" rx="27" ry="18"/>
<text text-anchor="middle" x="99" y="-191.4" font-family="Times,serif" font-size="14.00" fill="#000000">5</text>
</g>
<!-- 58&#45;&gt;5 -->
<g id="edge18" class="edge">
<title>58&#45;&gt;5</title>
<path fill="none" stroke="#000000" d="M127.8876,-266.856C122.7596,-254.2071 115.7433,-236.9002 109.9097,-222.5105"/>
<polygon fill="#000000" stroke="#000000" points="113.0984,-221.06 106.0977,-213.1076 106.6112,-223.69 113.0984,-221.06"/>
<text text-anchor="middle" x="131.5" y="-235.8" font-family="Times,serif" font-size="14.00" fill="#000000">202</text>
</g>
<!-- 8 -->
<g id="node18" class="node">
<title>8</title>
<ellipse fill="none" stroke="#ff0000" cx="171" cy="-195.6" rx="27" ry="18"/>
<text text-anchor="middle" x="171" y="-191.4" font-family="Times,serif" font-size="14.00" fill="#000000">8</text>
</g>
<!-- 58&#45;&gt;8 -->
<g id="edge19" class="edge">
<title>58&#45;&gt;8</title>
<path fill="none" stroke="#000000" d="M142.1124,-266.856C147.2404,-254.2071 154.2567,-236.9002 160.0903,-222.5105"/>
<polygon fill="#000000" stroke="#000000" points="163.3888,-223.69 163.9023,-213.1076 156.9016,-221.06 163.3888,-223.69"/>
<text text-anchor="middle" x="167.5" y="-235.8" font-family="Times,serif" font-size="14.00" fill="#000000">204</text>
</g>
<!-- 11 -->
<g id="node19" class="node">
<title>11</title>
<ellipse fill="none" stroke="#ff0000" cx="243" cy="-195.6" rx="27" ry="18"/>
<text text-anchor="middle" x="243" y="-191.4" font-family="Times,serif" font-size="14.00" fill="#000000">11</text>
</g>
<!-- 58&#45;&gt;11 -->
<g id="edge20" class="edge">
<title>58&#45;&gt;11</title>
<path fill="none" stroke="#000000" d="M153.0506,-270.9724C161.876,-264.3068 172.5964,-256.0597 182,-248.4 194.4089,-238.2923 207.8933,-226.6885 219.0209,-216.9379"/>
<polygon fill="#000000" stroke="#000000" points="221.4657,-219.4487 226.6579,-210.2133 216.8397,-214.195 221.4657,-219.4487"/>
<text text-anchor="middle" x="211.5" y="-235.8" font-family="Times,serif" font-size="14.00" fill="#000000">194</text>
</g>
<!-- 52 -->
<g id="node15" class="node">
<title>52</title>
<ellipse fill="none" stroke="#000000" cx="27" cy="-106.8" rx="27" ry="18"/>
<text text-anchor="middle" x="27" y="-102.6" font-family="Times,serif" font-size="14.00" fill="#000000">52</text>
</g>
<!-- 2&#45;&gt;52 -->
<g id="edge21" class="edge">
<title>2&#45;&gt;52</title>
<path fill="none" stroke="#000000" d="M27,-177.2006C27,-165.0949 27,-149.0076 27,-135.2674"/>
<polygon fill="#000000" stroke="#000000" points="30.5001,-134.872 27,-124.872 23.5001,-134.8721 30.5001,-134.872"/>
<text text-anchor="middle" x="37.5" y="-147" font-family="Times,serif" font-size="14.00" fill="#000000">198</text>
</g>
<!-- 19 -->
<g id="node16" class="node">
<title>19</title>
<ellipse fill="none" stroke="#ff0000" cx="27" cy="-18" rx="27" ry="18"/>
<text text-anchor="middle" x="27" y="-13.8" font-family="Times,serif" font-size="14.00" fill="#000000">19</text>
</g>
<!-- 52&#45;&gt;19 -->
<g id="edge22" class="edge">
<title>52&#45;&gt;19</title>
<path fill="none" stroke="#000000" d="M27,-88.4006C27,-76.2949 27,-60.2076 27,-46.4674"/>
<polygon fill="#000000" stroke="#000000" points="30.5001,-46.072 27,-36.072 23.5001,-46.0721 30.5001,-46.072"/>
<text text-anchor="middle" x="37.5" y="-58.2" font-family="Times,serif" font-size="14.00" fill="#000000">205</text>
</g>
<!-- 4 -->
<g id="node21" class="node">
<title>4</title>
<ellipse fill="none" stroke="#ff0000" cx="207" cy="-284.4" rx="27" ry="18"/>
<text text-anchor="middle" x="207" y="-280.2" font-family="Times,serif" font-size="14.00" fill="#000000">4</text>
</g>
<!-- 16&#45;&gt;4 -->
<g id="edge23" class="edge">
<title>16&#45;&gt;4</title>
<path fill="none" stroke="#000000" d="M207,-354.8006C207,-342.6949 207,-326.6076 207,-312.8674"/>
<polygon fill="#000000" stroke="#000000" points="210.5001,-312.472 207,-302.472 203.5001,-312.4721 210.5001,-312.472"/>
<text text-anchor="middle" x="217.5" y="-324.6" font-family="Times,serif" font-size="14.00" fill="#000000">302</text>
</g>
<!-- 12 -->
<g id="node22" class="node">
<title>12</title>
<ellipse fill="none" stroke="#ff0000" cx="279" cy="-284.4" rx="27" ry="18"/>
<text text-anchor="middle" x="279" y="-280.2" font-family="Times,serif" font-size="14.00" fill="#000000">12</text>
</g>
<!-- 16&#45;&gt;12 -->
<g id="edge24" class="edge">
<title>16&#45;&gt;12</title>
<path fill="none" stroke="#000000" d="M219.8722,-357.3243C230.8616,-343.7707 246.8373,-324.0674 259.413,-308.5573"/>
<polygon fill="#000000" stroke="#000000" points="262.4171,-310.4095 265.9965,-300.4376 256.9798,-306.0009 262.4171,-310.4095"/>
<text text-anchor="middle" x="259.5" y="-324.6" font-family="Times,serif" font-size="14.00" fill="#000000">300</text>
</g>
</g>
</svg>
