<svg width="600px" height="1317px"
 viewBox="0.00 0.00 465.00 1020.80" xmlns="http://www.w3.org/2000/svg" xmlns:xlink="http://www.w3.org/1999/xlink">
<g id="graph0" class="graph" transform="scale(1.0 1.0) rotate(0) translate(4 1016.8)">
<title>%0</title>
<polygon fill="#ffffff" stroke="transparent" points="-4,4 -4,-1016.8 461,-1016.8 461,4 -4,4"/>
<!-- 1 -->
<g id="node1" class="node">
<title>1</title>
<ellipse fill="none" stroke="#ff0000" cx="135" cy="-994.8" rx="27" ry="18"/>
<text text-anchor="middle" x="135" y="-990.6" font-family="Times,serif" font-size="14.00" fill="#000000">1</text>
</g>
<!-- 40 -->
<g id="node2" class="node">
<title>40</title>
<ellipse fill="none" stroke="#000000" cx="135" cy="-906" rx="27" ry="18"/>
<text text-anchor="middle" x="135" y="-901.8" font-family="Times,serif" font-size="14.00" fill="#000000">40</text>
</g>
<!-- 1&#45;&gt;40 -->
<g id="edge1" class="edge">
<title>1&#45;&gt;40</title>
<path fill="none" stroke="#000000" d="M135,-976.4006C135,-964.2949 135,-948.2076 135,-934.4674"/>
<polygon fill="#000000" stroke="#000000" points="138.5001,-934.072 135,-924.072 131.5001,-934.0721 138.5001,-934.072"/>
<text text-anchor="middle" x="145.5" y="-946.2" font-family="Times,serif" font-size="14.00" fill="#000000">201</text>
</g>
<!-- 19 -->
<g id="node3" class="node">
<title>19</title>
<ellipse fill="none" stroke="#ff0000" cx="27" cy="-817.2" rx="27" ry="18"/>
<text text-anchor="middle" x="27" y="-813" font-family="Times,serif" font-size="14.00" fill="#000000">19</text>
</g>
<!-- 40&#45;&gt;19 -->
<g id="edge2" class="edge">
<title>40&#45;&gt;19</title>
<path fill="none" stroke="#000000" d="M116.9505,-892.1516C108.411,-885.5292 98.1119,-877.4401 89,-870 76.3984,-859.7104 62.5987,-848.0031 51.2241,-838.2315"/>
<polygon fill="#000000" stroke="#000000" points="53.2816,-835.3843 43.422,-831.5063 48.7113,-840.6864 53.2816,-835.3843"/>
<text text-anchor="middle" x="99.5" y="-857.4" font-family="Times,serif" font-size="14.00" fill="#000000">193</text>
</g>
<!-- 3 -->
<g id="node4" class="node">
<title>3</title>
<ellipse fill="none" stroke="#ff0000" cx="99" cy="-817.2" rx="27" ry="18"/>
<text text-anchor="middle" x="99" y="-813" font-family="Times,serif" font-size="14.00" fill="#000000">3</text>
</g>
<!-- 40&#45;&gt;3 -->
<g id="edge3" class="edge">
<title>40&#45;&gt;3</title>
<path fill="none" stroke="#000000" d="M127.8876,-888.456C122.7596,-875.8071 115.7433,-858.5002 109.9097,-844.1105"/>
<polygon fill="#000000" stroke="#000000" points="113.0984,-842.66 106.0977,-834.7076 106.6112,-845.29 113.0984,-842.66"/>
<text text-anchor="middle" x="131.5" y="-857.4" font-family="Times,serif" font-size="14.00" fill="#000000">188</text>
</g>
<!-- 5 -->
<g id="node5" class="node">
<title>5</title>
<ellipse fill="none" stroke="#ff0000" cx="171" cy="-817.2" rx="27" ry="18"/>
<text text-anchor="middle" x="171" y="-813" font-family="Times,serif" font-size="14.00" fill="#000000">5</text>
</g>
<!-- 40&#45;&gt;5 -->
<g id="edge4" class="edge">
<title>40&#45;&gt;5</title>
<path fill="none" stroke="#000000" d="M142.1124,-888.456C147.2404,-875.8071 154.2567,-858.5002 160.0903,-844.1105"/>
<polygon fill="#000000" stroke="#000000" points="163.3888,-845.29 163.9023,-834.7076 156.9016,-842.66 163.3888,-845.29"/>
<text text-anchor="middle" x="167.5" y="-857.4" font-family="Times,serif" font-size="14.00" fill="#000000">200</text>
</g>
<!-- 16 -->
<g id="node6" class="node">
<title>16</title>
<ellipse fill="none" stroke="#ff0000" cx="243" cy="-817.2" rx="27" ry="18"/>
<text text-anchor="middle" x="243" y="-813" font-family="Times,serif" font-size="14.00" fill="#000000">16</text>
</g>
<!-- 40&#45;&gt;16 -->
<g id="edge5" class="edge">
<title>40&#45;&gt;16</title>
<path fill="none" stroke="#000000" d="M153.0506,-892.5724C161.876,-885.9068 172.5964,-877.6597 182,-870 194.4089,-859.8923 207.8933,-848.2885 219.0209,-838.5379"/>
<polygon fill="#000000" stroke="#000000" points="221.4657,-841.0487 226.6579,-831.8133 216.8397,-835.795 221.4657,-841.0487"/>
<text text-anchor="middle" x="211.5" y="-857.4" font-family="Times,serif" font-size="14.00" fill="#000000">199</text>
</g>
<!-- 9 -->
<g id="node7" class="node">
<title>9</title>
<ellipse fill="none" stroke="#ff0000" cx="214" cy="-728.4" rx="27" ry="18"/>
<text text-anchor="middle" x="214" y="-724.2" font-family="Times,serif" font-size="14.00" fill="#000000">9</text>
</g>
<!-- 16&#45;&gt;9 -->
<g id="edge6" class="edge">
<title>16&#45;&gt;9</title>
<path fill="none" stroke="#000000" d="M235.8304,-799.7427C233.5295,-793.8914 231.0486,-787.3031 229,-781.2 226.3135,-773.1964 223.69,-764.4089 221.4076,-756.3385"/>
<polygon fill="#000000" stroke="#000000" points="224.7571,-755.3191 218.7199,-746.6126 218.01,-757.1837 224.7571,-755.3191"/>
<text text-anchor="middle" x="239.5" y="-768.6" font-family="Times,serif" font-size="14.00" fill="#000000">304</text>
</g>
<!-- 75 -->
<g id="node8" class="node">
<title>75</title>
<ellipse fill="none" stroke="#000000" cx="286" cy="-728.4" rx="27" ry="18"/>
<text text-anchor="middle" x="286" y="-724.2" font-family="Times,serif" font-size="14.00" fill="#000000">75</text>
</g>
<!-- 16&#45;&gt;75 -->
<g id="edge7" class="edge">
<title>16&#45;&gt;75</title>
<path fill="none" stroke="#000000" d="M251.4954,-799.656C257.7195,-786.8025 266.2726,-769.1393 273.3059,-754.6148"/>
<polygon fill="#000000" stroke="#000000" points="276.4603,-756.1311 277.6685,-745.6054 270.1601,-753.0803 276.4603,-756.1311"/>
<text text-anchor="middle" x="279.5" y="-768.6" font-family="Times,serif" font-size="14.00" fill="#000000">195</text>
</g>
<!-- 7 -->
<g id="node9" class="node">
<title>7</title>
<ellipse fill="none" stroke="#ff0000" cx="286" cy="-639.6" rx="27" ry="18"/>
<text text-anchor="middle" x="286" y="-635.4" font-family="Times,serif" font-size="14.00" fill="#000000">7</text>
</g>
<!-- 75&#45;&gt;7 -->
<g id="edge8" class="edge">
<title>75&#45;&gt;7</title>
<path fill="none" stroke="#000000" d="M286,-710.0006C286,-697.8949 286,-681.8076 286,-668.0674"/>
<polygon fill="#000000" stroke="#000000" points="289.5001,-667.672 286,-657.672 282.5001,-667.6721 289.5001,-667.672"/>
<text text-anchor="middle" x="296.5" y="-679.8" font-family="Times,serif" font-size="14.00" fill="#000000">198</text>
</g>
<!-- 74 -->
<g id="node10" class="node">
<title>74</title>
<ellipse fill="none" stroke="#000000" cx="286" cy="-550.8" rx="27" ry="18"/>
<text text-anchor="middle" x="286" y="-546.6" font-family="Times,serif" font-size="14.00" fill="#000000">74</text>
</g>
<!-- 7&#45;&gt;74 -->
<g id="edge9" class="edge">
<title>7&#45;&gt;74</title>
<path fill="none" stroke="#000000" d="M286,-621.2006C286,-609.0949 286,-593.0076 286,-579.2674"/>
<polygon fill="#000000" stroke="#000000" points="289.5001,-578.872 286,-568.872 282.5001,-578.8721 289.5001,-578.872"/>
<text text-anchor="middle" x="296.5" y="-591" font-family="Times,serif" font-size="14.00" fill="#000000">207</text>
</g>
<!-- 4 -->
<g id="node11" class="node">
<title>4</title>
<ellipse fill="none" stroke="#ff0000" cx="142" cy="-462" rx="27" ry="18"/>
<text text-anchor="middle" x="142" y="-457.8" font-family="Times,serif" font-size="14.00" fill="#000000">4</text>
</g>
<!-- 74&#45;&gt;4 -->
<g id="edge10" class="edge">
<title>74&#45;&gt;4</title>
<path fill="none" stroke="#000000" d="M264.2444,-539.8687C250.9717,-533.0141 233.7736,-523.7982 219,-514.8 201.9185,-504.3962 183.4148,-491.7551 168.8283,-481.4504"/>
<polygon fill="#000000" stroke="#000000" points="170.476,-478.327 160.3001,-475.3772 166.4154,-484.029 170.476,-478.327"/>
<text text-anchor="middle" x="229.5" y="-502.2" font-family="Times,serif" font-size="14.00" fill="#000000">192</text>
</g>
<!-- 10 -->
<g id="node13" class="node">
<title>10</title>
<ellipse fill="none" stroke="#ff0000" cx="214" cy="-462" rx="27" ry="18"/>
<text text-anchor="middle" x="214" y="-457.8" font-family="Times,serif" font-size="14.00" fill="#000000">10</text>
</g>
<!-- 74&#45;&gt;10 -->
<g id="edge11" class="edge">
<title>74&#45;&gt;10</title>
<path fill="none" stroke="#000000" d="M273.1278,-534.9243C262.1384,-521.3707 246.1627,-501.6674 233.587,-486.1573"/>
<polygon fill="#000000" stroke="#000000" points="236.0202,-483.6009 227.0035,-478.0376 230.5829,-488.0095 236.0202,-483.6009"/>
<text text-anchor="middle" x="267.5" y="-502.2" font-family="Times,serif" font-size="14.00" fill="#000000">191</text>
</g>
<!-- 11 -->
<g id="node14" class="node">
<title>11</title>
<ellipse fill="none" stroke="#ff0000" cx="286" cy="-462" rx="27" ry="18"/>
<text text-anchor="middle" x="286" y="-457.8" font-family="Times,serif" font-size="14.00" fill="#000000">11</text>
</g>
<!-- 74&#45;&gt;11 -->
<g id="edge12" class="edge">
<title>74&#45;&gt;11</title>
<path fill="none" stroke="#000000" d="M286,-532.4006C286,-520.2949 286,-504.2076 286,-490.4674"/>
<polygon fill="#000000" stroke="#000000" points="289.5001,-490.072 286,-480.072 282.5001,-490.0721 289.5001,-490.072"/>
<text text-anchor="middle" x="296.5" y="-502.2" font-family="Times,serif" font-size="14.00" fill="#000000">192</text>
</g>
<!-- 12 -->
<g id="node15" class="node">
<title>12</title>
<ellipse fill="none" stroke="#ff0000" cx="358" cy="-462" rx="27" ry="18"/>
<text text-anchor="middle" x="358" y="-457.8" font-family="Times,serif" font-size="14.00" fill="#000000">12</text>
</g>
<!-- 74&#45;&gt;12 -->
<g id="edge13" class="edge">
<title>74&#45;&gt;12</title>
<path fill="none" stroke="#000000" d="M298.8722,-534.9243C309.8616,-521.3707 325.8373,-501.6674 338.413,-486.1573"/>
<polygon fill="#000000" stroke="#000000" points="341.4171,-488.0095 344.9965,-478.0376 335.9798,-483.6009 341.4171,-488.0095"/>
<text text-anchor="middle" x="339.5" y="-502.2" font-family="Times,serif" font-size="14.00" fill="#000000">201</text>
</g>
<!-- 63 -->
<g id="node25" class="node">
<title>63</title>
<ellipse fill="none" stroke="#000000" cx="430" cy="-462" rx="27" ry="18"/>
<text text-anchor="middle" x="430" y="-457.8" font-family="Times,serif" font-size="14.00" fill="#000000">63</text>
</g>
<!-- 74&#45;&gt;63 -->
<g id="edge14" class="edge">
<title>74&#45;&gt;63</title>
<path fill="none" stroke="#000000" d="M307.8072,-540.0991C321.3322,-533.2564 338.9407,-523.9717 354,-514.8 370.9311,-504.4882 389.1971,-491.8505 403.5776,-481.5245"/>
<polygon fill="#000000" stroke="#000000" points="405.938,-484.1366 411.9828,-475.4354 401.8312,-478.4678 405.938,-484.1366"/>
<text text-anchor="middle" x="387" y="-502.2" font-family="Times,serif" font-size="14.00" fill="#000000">94</text>
</g>
<!-- 20 -->
<g id="node12" class="node">
<title>20</title>
<ellipse fill="none" stroke="#ff0000" cx="142" cy="-373.2" rx="27" ry="18"/>
<text text-anchor="middle" x="142" y="-369" font-family="Times,serif" font-size="14.00" fill="#000000">20</text>
</g>
<!-- 4&#45;&gt;20 -->
<g id="edge15" class="edge">
<title>4&#45;&gt;20</title>
<path fill="none" stroke="#000000" d="M142,-443.6006C142,-431.4949 142,-415.4076 142,-401.6674"/>
<polygon fill="#000000" stroke="#000000" points="145.5001,-401.272 142,-391.272 138.5001,-401.2721 145.5001,-401.272"/>
<text text-anchor="middle" x="152.5" y="-413.4" font-family="Times,serif" font-size="14.00" fill="#000000">299</text>
</g>
<!-- 77 -->
<g id="node16" class="node">
<title>77</title>
<ellipse fill="none" stroke="#000000" cx="358" cy="-373.2" rx="27" ry="18"/>
<text text-anchor="middle" x="358" y="-369" font-family="Times,serif" font-size="14.00" fill="#000000">77</text>
</g>
<!-- 12&#45;&gt;77 -->
<g id="edge16" class="edge">
<title>12&#45;&gt;77</title>
<path fill="none" stroke="#000000" d="M358,-443.6006C358,-431.4949 358,-415.4076 358,-401.6674"/>
<polygon fill="#000000" stroke="#000000" points="361.5001,-401.272 358,-391.272 354.5001,-401.2721 361.5001,-401.272"/>
<text text-anchor="middle" x="368.5" y="-413.4" font-family="Times,serif" font-size="14.00" fill="#000000">204</text>
</g>
<!-- 6 -->
<g id="node17" class="node">
<title>6</title>
<ellipse fill="none" stroke="#ff0000" cx="286" cy="-284.4" rx="27" ry="18"/>
<text text-anchor="middle" x="286" y="-280.2" font-family="Times,serif" font-size="14.00" fill="#000000">6</text>
</g>
<!-- 77&#45;&gt;6 -->
<g id="edge17" class="edge">
<title>77&#45;&gt;6</title>
<path fill="none" stroke="#000000" d="M345.1278,-357.3243C334.1384,-343.7707 318.1627,-324.0674 305.587,-308.5573"/>
<polygon fill="#000000" stroke="#000000" points="308.0202,-306.0009 299.0035,-300.4376 302.5829,-310.4095 308.0202,-306.0009"/>
<text text-anchor="middle" x="339.5" y="-324.6" font-family="Times,serif" font-size="14.00" fill="#000000">195</text>
</g>
<!-- 8 -->
<g id="node18" class="node">
<title>8</title>
<ellipse fill="none" stroke="#ff0000" cx="358" cy="-284.4" rx="27" ry="18"/>
<text text-anchor="middle" x="358" y="-280.2" font-family="Times,serif" font-size="14.00" fill="#000000">8</text>
</g>
<!-- 77&#45;&gt;8 -->
<g id="edge18" class="edge">
<title>77&#45;&gt;8</title>
<path fill="none" stroke="#000000" d="M358,-354.8006C358,-342.6949 358,-326.6076 358,-312.8674"/>
<polygon fill="#000000" stroke="#000000" points="361.5001,-312.472 358,-302.472 354.5001,-312.4721 361.5001,-312.472"/>
<text text-anchor="middle" x="368.5" y="-324.6" font-family="Times,serif" font-size="14.00" fill="#000000">197</text>
</g>
<!-- 13 -->
<g id="node22" class="node">
<title>13</title>
<ellipse fill="none" stroke="#ff0000" cx="430" cy="-284.4" rx="27" ry="18"/>
<text text-anchor="middle" x="430" y="-280.2" font-family="Times,serif" font-size="14.00" fill="#000000">13</text>
</g>
<!-- 77&#45;&gt;13 -->
<g id="edge19" class="edge">
<title>77&#45;&gt;13</title>
<path fill="none" stroke="#000000" d="M370.8722,-357.3243C381.8616,-343.7707 397.8373,-324.0674 410.413,-308.5573"/>
<polygon fill="#000000" stroke="#000000" points="413.4171,-310.4095 416.9965,-300.4376 407.9798,-306.0009 413.4171,-310.4095"/>
<text text-anchor="middle" x="410.5" y="-324.6" font-family="Times,serif" font-size="14.00" fill="#000000">196</text>
</g>
<!-- 61 -->
<g id="node19" class="node">
<title>61</title>
<ellipse fill="none" stroke="#000000" cx="358" cy="-195.6" rx="27" ry="18"/>
<text text-anchor="middle" x="358" y="-191.4" font-family="Times,serif" font-size="14.00" fill="#000000">61</text>
</g>
<!-- 8&#45;&gt;61 -->
<g id="edge20" class="edge">
<title>8&#45;&gt;61</title>
<path fill="none" stroke="#000000" d="M358,-266.0006C358,-253.8949 358,-237.8076 358,-224.0674"/>
<polygon fill="#000000" stroke="#000000" points="361.5001,-223.672 358,-213.672 354.5001,-223.6721 361.5001,-223.672"/>
<text text-anchor="middle" x="368.5" y="-235.8" font-family="Times,serif" font-size="14.00" fill="#000000">194</text>
</g>
<!-- 17 -->
<g id="node20" class="node">
<title>17</title>
<ellipse fill="none" stroke="#ff0000" cx="358" cy="-106.8" rx="27" ry="18"/>
<text text-anchor="middle" x="358" y="-102.6" font-family="Times,serif" font-size="14.00" fill="#000000">17</text>
</g>
<!-- 61&#45;&gt;17 -->
<g id="edge21" class="edge">
<title>61&#45;&gt;17</title>
<path fill="none" stroke="#000000" d="M358,-177.2006C358,-165.0949 358,-149.0076 358,-135.2674"/>
<polygon fill="#000000" stroke="#000000" points="361.5001,-134.872 358,-124.872 354.5001,-134.8721 361.5001,-134.872"/>
<text text-anchor="middle" x="368.5" y="-147" font-family="Times,serif" font-size="14.00" fill="#000000">195</text>
</g>
<!-- 18 -->
<g id="node21" class="node">
<title>18</title>
<ellipse fill="none" stroke="#ff0000" cx="358" cy="-18" rx="27" ry="18"/>
<text text-anchor="middle" x="358" y="-13.8" font-family="Times,serif" font-size="14.00" fill="#000000">18</text>
</g>
<!-- 17&#45;&gt;18 -->
<g id="edge22" class="edge">
<title>17&#45;&gt;18</title>
<path fill="none" stroke="#000000" d="M358,-88.4006C358,-76.2949 358,-60.2076 358,-46.4674"/>
<polygon fill="#000000" stroke="#000000" points="361.5001,-46.072 358,-36.072 354.5001,-46.0721 361.5001,-46.072"/>
<text text-anchor="middle" x="368.5" y="-58.2" font-family="Times,serif" font-size="14.00" fill="#000000">300</text>
</g>
<!-- 14 -->
<g id="node23" class="node">
<title>14</title>
<ellipse fill="none" stroke="#ff0000" cx="430" cy="-195.6" rx="27" ry="18"/>
<text text-anchor="middle" x="430" y="-191.4" font-family="Times,serif" font-size="14.00" fill="#000000">14</text>
</g>
<!-- 13&#45;&gt;14 -->
<g id="edge23" class="edge">
<title>13&#45;&gt;14</title>
<path fill="none" stroke="#000000" d="M430,-266.0006C430,-253.8949 430,-237.8076 430,-224.0674"/>
<polygon fill="#000000" stroke="#000000" points="433.5001,-223.672 430,-213.672 426.5001,-223.6721 433.5001,-223.672"/>
<text text-anchor="middle" x="440.5" y="-235.8" font-family="Times,serif" font-size="14.00" fill="#000000">296</text>
</g>
<!-- 15 -->
<g id="node24" class="node">
<title>15</title>
<ellipse fill="none" stroke="#ff0000" cx="430" cy="-106.8" rx="27" ry="18"/>
<text text-anchor="middle" x="430" y="-102.6" font-family="Times,serif" font-size="14.00" fill="#000000">15</text>
</g>
<!-- 14&#45;&gt;15 -->
<g id="edge24" class="edge">
<title>14&#45;&gt;15</title>
<path fill="none" stroke="#000000" d="M430,-177.2006C430,-165.0949 430,-149.0076 430,-135.2674"/>
<polygon fill="#000000" stroke="#000000" points="433.5001,-134.872 430,-124.872 426.5001,-134.8721 433.5001,-134.872"/>
<text text-anchor="middle" x="440.5" y="-147" font-family="Times,serif" font-size="14.00" fill="#000000">292</text>
</g>
<!-- 2 -->
<g id="node26" class="node">
<title>2</title>
<ellipse fill="none" stroke="#ff0000" cx="430" cy="-373.2" rx="27" ry="18"/>
<text text-anchor="middle" x="430" y="-369" font-family="Times,serif" font-size="14.00" fill="#000000">2</text>
</g>
<!-- 63&#45;&gt;2 -->
<g id="edge25" class="edge">
<title>63&#45;&gt;2</title>
<path fill="none" stroke="#000000" d="M430,-443.6006C430,-431.4949 430,-415.4076 430,-401.6674"/>
<polygon fill="#000000" stroke="#000000" points="433.5001,-401.272 430,-391.272 426.5001,-401.2721 433.5001,-401.272"/>
<text text-anchor="middle" x="440.5" y="-413.4" font-family="Times,serif" font-size="14.00" fill="#000000">195</text>
</g>
</g>
</svg>
