<svg width="600px" height="687px"
 viewBox="0.00 0.00 504.00 576.80" xmlns="http://www.w3.org/2000/svg" xmlns:xlink="http://www.w3.org/1999/xlink">
<g id="graph0" class="graph" transform="scale(1.0 1.0) rotate(0) translate(4 572.8)">
<title>%0</title>
<polygon fill="#ffffff" stroke="transparent" points="-4,4 -4,-572.8 500,-572.8 500,4 -4,4"/>
<!-- 11 -->
<g id="node1" class="node">
<title>11</title>
<ellipse fill="none" stroke="#ff0000" cx="171" cy="-550.8" rx="27" ry="18"/>
<text text-anchor="middle" x="171" y="-546.6" font-family="Times,serif" font-size="14.00" fill="#000000">11</text>
</g>
<!-- 1 -->
<g id="node2" class="node">
<title>1</title>
<ellipse fill="none" stroke="#ff0000" cx="74" cy="-462" rx="27" ry="18"/>
<text text-anchor="middle" x="74" y="-457.8" font-family="Times,serif" font-size="14.00" fill="#000000">1</text>
</g>
<!-- 11&#45;&gt;1 -->
<g id="edge1" class="edge">
<title>11&#45;&gt;1</title>
<path fill="none" stroke="#000000" d="M154.9824,-536.1365C139.3969,-521.8685 115.5288,-500.0181 97.7369,-483.7303"/>
<polygon fill="#000000" stroke="#000000" points="99.7807,-480.8562 90.0414,-476.6853 95.054,-486.0193 99.7807,-480.8562"/>
<text text-anchor="middle" x="142.5" y="-502.2" font-family="Times,serif" font-size="14.00" fill="#000000">279</text>
</g>
<!-- 59 -->
<g id="node5" class="node">
<title>59</title>
<ellipse fill="none" stroke="#000000" cx="171" cy="-462" rx="27" ry="18"/>
<text text-anchor="middle" x="171" y="-457.8" font-family="Times,serif" font-size="14.00" fill="#000000">59</text>
</g>
<!-- 11&#45;&gt;59 -->
<g id="edge2" class="edge">
<title>11&#45;&gt;59</title>
<path fill="none" stroke="#000000" d="M171,-532.4006C171,-520.2949 171,-504.2076 171,-490.4674"/>
<polygon fill="#000000" stroke="#000000" points="174.5001,-490.072 171,-480.072 167.5001,-490.0721 174.5001,-490.072"/>
<text text-anchor="middle" x="181.5" y="-502.2" font-family="Times,serif" font-size="14.00" fill="#000000">212</text>
</g>
<!-- 47 -->
<g id="node14" class="node">
<title>47</title>
<ellipse fill="none" stroke="#000000" cx="344" cy="-462" rx="27" ry="18"/>
<text text-anchor="middle" x="344" y="-457.8" font-family="Times,serif" font-size="14.00" fill="#000000">47</text>
</g>
<!-- 11&#45;&gt;47 -->
<g id="edge3" class="edge">
<title>11&#45;&gt;47</title>
<path fill="none" stroke="#000000" d="M192.5608,-539.733C222.946,-524.1364 278.5249,-495.608 313.24,-477.7889"/>
<polygon fill="#000000" stroke="#000000" points="315.1417,-480.747 322.4399,-473.0667 311.9451,-474.5195 315.1417,-480.747"/>
<text text-anchor="middle" x="282.5" y="-502.2" font-family="Times,serif" font-size="14.00" fill="#000000">205</text>
</g>
<!-- 15 -->
<g id="node3" class="node">
<title>15</title>
<ellipse fill="none" stroke="#ff0000" cx="27" cy="-373.2" rx="27" ry="18"/>
<text text-anchor="middle" x="27" y="-369" font-family="Times,serif" font-size="14.00" fill="#000000">15</text>
</g>
<!-- 1&#45;&gt;15 -->
<g id="edge4" class="edge">
<title>1&#45;&gt;15</title>
<path fill="none" stroke="#000000" d="M64.9379,-444.8785C58.1108,-431.9795 48.6292,-414.0655 40.853,-399.3734"/>
<polygon fill="#000000" stroke="#000000" points="43.8057,-397.47 36.0343,-390.269 37.6188,-400.7447 43.8057,-397.47"/>
<text text-anchor="middle" x="65.5" y="-413.4" font-family="Times,serif" font-size="14.00" fill="#000000">291</text>
</g>
<!-- 17 -->
<g id="node4" class="node">
<title>17</title>
<ellipse fill="none" stroke="#ff0000" cx="27" cy="-284.4" rx="27" ry="18"/>
<text text-anchor="middle" x="27" y="-280.2" font-family="Times,serif" font-size="14.00" fill="#000000">17</text>
</g>
<!-- 15&#45;&gt;17 -->
<g id="edge5" class="edge">
<title>15&#45;&gt;17</title>
<path fill="none" stroke="#000000" d="M27,-354.8006C27,-342.6949 27,-326.6076 27,-312.8674"/>
<polygon fill="#000000" stroke="#000000" points="30.5001,-312.472 27,-302.472 23.5001,-312.4721 30.5001,-312.472"/>
<text text-anchor="middle" x="37.5" y="-324.6" font-family="Times,serif" font-size="14.00" fill="#000000">305</text>
</g>
<!-- 2 -->
<g id="node6" class="node">
<title>2</title>
<ellipse fill="none" stroke="#ff0000" cx="99" cy="-373.2" rx="27" ry="18"/>
<text text-anchor="middle" x="99" y="-369" font-family="Times,serif" font-size="14.00" fill="#000000">2</text>
</g>
<!-- 59&#45;&gt;2 -->
<g id="edge6" class="edge">
<title>59&#45;&gt;2</title>
<path fill="none" stroke="#000000" d="M158.1278,-446.1243C147.1384,-432.5707 131.1627,-412.8674 118.587,-397.3573"/>
<polygon fill="#000000" stroke="#000000" points="121.0202,-394.8009 112.0035,-389.2376 115.5829,-399.2095 121.0202,-394.8009"/>
<text text-anchor="middle" x="152.5" y="-413.4" font-family="Times,serif" font-size="14.00" fill="#000000">199</text>
</g>
<!-- 7 -->
<g id="node11" class="node">
<title>7</title>
<ellipse fill="none" stroke="#ff0000" cx="171" cy="-373.2" rx="27" ry="18"/>
<text text-anchor="middle" x="171" y="-369" font-family="Times,serif" font-size="14.00" fill="#000000">7</text>
</g>
<!-- 59&#45;&gt;7 -->
<g id="edge7" class="edge">
<title>59&#45;&gt;7</title>
<path fill="none" stroke="#000000" d="M171,-443.6006C171,-431.4949 171,-415.4076 171,-401.6674"/>
<polygon fill="#000000" stroke="#000000" points="174.5001,-401.272 171,-391.272 167.5001,-401.2721 174.5001,-401.272"/>
<text text-anchor="middle" x="181.5" y="-413.4" font-family="Times,serif" font-size="14.00" fill="#000000">195</text>
</g>
<!-- 12 -->
<g id="node13" class="node">
<title>12</title>
<ellipse fill="none" stroke="#ff0000" cx="243" cy="-373.2" rx="27" ry="18"/>
<text text-anchor="middle" x="243" y="-369" font-family="Times,serif" font-size="14.00" fill="#000000">12</text>
</g>
<!-- 59&#45;&gt;12 -->
<g id="edge8" class="edge">
<title>59&#45;&gt;12</title>
<path fill="none" stroke="#000000" d="M183.8722,-446.1243C194.8616,-432.5707 210.8373,-412.8674 223.413,-397.3573"/>
<polygon fill="#000000" stroke="#000000" points="226.4171,-399.2095 229.9965,-389.2376 220.9798,-394.8009 226.4171,-399.2095"/>
<text text-anchor="middle" x="224.5" y="-413.4" font-family="Times,serif" font-size="14.00" fill="#000000">194</text>
</g>
<!-- 13 -->
<g id="node7" class="node">
<title>13</title>
<ellipse fill="none" stroke="#ff0000" cx="99" cy="-284.4" rx="27" ry="18"/>
<text text-anchor="middle" x="99" y="-280.2" font-family="Times,serif" font-size="14.00" fill="#000000">13</text>
</g>
<!-- 2&#45;&gt;13 -->
<g id="edge9" class="edge">
<title>2&#45;&gt;13</title>
<path fill="none" stroke="#000000" d="M99,-354.8006C99,-342.6949 99,-326.6076 99,-312.8674"/>
<polygon fill="#000000" stroke="#000000" points="102.5001,-312.472 99,-302.472 95.5001,-312.4721 102.5001,-312.472"/>
<text text-anchor="middle" x="109.5" y="-324.6" font-family="Times,serif" font-size="14.00" fill="#000000">296</text>
</g>
<!-- 5 -->
<g id="node8" class="node">
<title>5</title>
<ellipse fill="none" stroke="#ff0000" cx="99" cy="-195.6" rx="27" ry="18"/>
<text text-anchor="middle" x="99" y="-191.4" font-family="Times,serif" font-size="14.00" fill="#000000">5</text>
</g>
<!-- 13&#45;&gt;5 -->
<g id="edge10" class="edge">
<title>13&#45;&gt;5</title>
<path fill="none" stroke="#000000" d="M99,-266.0006C99,-253.8949 99,-237.8076 99,-224.0674"/>
<polygon fill="#000000" stroke="#000000" points="102.5001,-223.672 99,-213.672 95.5001,-223.6721 102.5001,-223.672"/>
<text text-anchor="middle" x="109.5" y="-235.8" font-family="Times,serif" font-size="14.00" fill="#000000">296</text>
</g>
<!-- 46 -->
<g id="node9" class="node">
<title>46</title>
<ellipse fill="none" stroke="#000000" cx="99" cy="-106.8" rx="27" ry="18"/>
<text text-anchor="middle" x="99" y="-102.6" font-family="Times,serif" font-size="14.00" fill="#000000">46</text>
</g>
<!-- 5&#45;&gt;46 -->
<g id="edge11" class="edge">
<title>5&#45;&gt;46</title>
<path fill="none" stroke="#000000" d="M99,-177.2006C99,-165.0949 99,-149.0076 99,-135.2674"/>
<polygon fill="#000000" stroke="#000000" points="102.5001,-134.872 99,-124.872 95.5001,-134.8721 102.5001,-134.872"/>
<text text-anchor="middle" x="109.5" y="-147" font-family="Times,serif" font-size="14.00" fill="#000000">189</text>
</g>
<!-- 3 -->
<g id="node10" class="node">
<title>3</title>
<ellipse fill="none" stroke="#ff0000" cx="99" cy="-18" rx="27" ry="18"/>
<text text-anchor="middle" x="99" y="-13.8" font-family="Times,serif" font-size="14.00" fill="#000000">3</text>
</g>
<!-- 46&#45;&gt;3 -->
<g id="edge12" class="edge">
<title>46&#45;&gt;3</title>
<path fill="none" stroke="#000000" d="M99,-88.4006C99,-76.2949 99,-60.2076 99,-46.4674"/>
<polygon fill="#000000" stroke="#000000" points="102.5001,-46.072 99,-36.072 95.5001,-46.0721 102.5001,-46.072"/>
<text text-anchor="middle" x="109.5" y="-58.2" font-family="Times,serif" font-size="14.00" fill="#000000">203</text>
</g>
<!-- 6 -->
<g id="node12" class="node">
<title>6</title>
<ellipse fill="none" stroke="#ff0000" cx="171" cy="-284.4" rx="27" ry="18"/>
<text text-anchor="middle" x="171" y="-280.2" font-family="Times,serif" font-size="14.00" fill="#000000">6</text>
</g>
<!-- 7&#45;&gt;6 -->
<g id="edge13" class="edge">
<title>7&#45;&gt;6</title>
<path fill="none" stroke="#000000" d="M171,-354.8006C171,-342.6949 171,-326.6076 171,-312.8674"/>
<polygon fill="#000000" stroke="#000000" points="174.5001,-312.472 171,-302.472 167.5001,-312.4721 174.5001,-312.472"/>
<text text-anchor="middle" x="181.5" y="-324.6" font-family="Times,serif" font-size="14.00" fill="#000000">289</text>
</g>
<!-- 18 -->
<g id="node15" class="node">
<title>18</title>
<ellipse fill="none" stroke="#ff0000" cx="315" cy="-373.2" rx="27" ry="18"/>
<text text-anchor="middle" x="315" y="-369" font-family="Times,serif" font-size="14.00" fill="#000000">18</text>
</g>
<!-- 47&#45;&gt;18 -->
<g id="edge14" class="edge">
<title>47&#45;&gt;18</title>
<path fill="none" stroke="#000000" d="M336.8304,-444.5427C334.5295,-438.6914 332.0486,-432.1031 330,-426 327.3135,-417.9964 324.69,-409.2089 322.4076,-401.1385"/>
<polygon fill="#000000" stroke="#000000" points="325.7571,-400.1191 319.7199,-391.4126 319.01,-401.9837 325.7571,-400.1191"/>
<text text-anchor="middle" x="340.5" y="-413.4" font-family="Times,serif" font-size="14.00" fill="#000000">198</text>
</g>
<!-- 8 -->
<g id="node16" class="node">
<title>8</title>
<ellipse fill="none" stroke="#ff0000" cx="387" cy="-373.2" rx="27" ry="18"/>
<text text-anchor="middle" x="387" y="-369" font-family="Times,serif" font-size="14.00" fill="#000000">8</text>
</g>
<!-- 47&#45;&gt;8 -->
<g id="edge15" class="edge">
<title>47&#45;&gt;8</title>
<path fill="none" stroke="#000000" d="M352.4954,-444.456C358.7195,-431.6025 367.2726,-413.9393 374.3059,-399.4148"/>
<polygon fill="#000000" stroke="#000000" points="377.4603,-400.9311 378.6685,-390.4054 371.1601,-397.8803 377.4603,-400.9311"/>
<text text-anchor="middle" x="379.5" y="-413.4" font-family="Times,serif" font-size="14.00" fill="#000000">186</text>
</g>
<!-- 9 -->
<g id="node26" class="node">
<title>9</title>
<ellipse fill="none" stroke="#ff0000" cx="459" cy="-373.2" rx="27" ry="18"/>
<text text-anchor="middle" x="459" y="-369" font-family="Times,serif" font-size="14.00" fill="#000000">9</text>
</g>
<!-- 47&#45;&gt;9 -->
<g id="edge16" class="edge">
<title>47&#45;&gt;9</title>
<path fill="none" stroke="#000000" d="M362.7095,-448.9186C372.1824,-442.1974 383.8059,-433.7998 394,-426 407.5095,-415.6635 422.2475,-403.7465 434.2692,-393.8527"/>
<polygon fill="#000000" stroke="#000000" points="436.6326,-396.4401 442.1096,-387.3707 432.1723,-391.0451 436.6326,-396.4401"/>
<text text-anchor="middle" x="423.5" y="-413.4" font-family="Times,serif" font-size="14.00" fill="#000000">195</text>
</g>
<!-- 51 -->
<g id="node17" class="node">
<title>51</title>
<ellipse fill="none" stroke="#000000" cx="311" cy="-284.4" rx="27" ry="18"/>
<text text-anchor="middle" x="311" y="-280.2" font-family="Times,serif" font-size="14.00" fill="#000000">51</text>
</g>
<!-- 8&#45;&gt;51 -->
<g id="edge17" class="edge">
<title>8&#45;&gt;51</title>
<path fill="none" stroke="#000000" d="M373.4127,-357.3243C361.6327,-343.5603 344.4246,-323.454 331.0594,-307.8378"/>
<polygon fill="#000000" stroke="#000000" points="333.6311,-305.4598 324.4696,-300.1382 328.3129,-310.0114 333.6311,-305.4598"/>
<text text-anchor="middle" x="365.5" y="-324.6" font-family="Times,serif" font-size="14.00" fill="#000000">189</text>
</g>
<!-- 22 -->
<g id="node23" class="node">
<title>22</title>
<ellipse fill="none" stroke="#000000" cx="397" cy="-284.4" rx="27" ry="18"/>
<text text-anchor="middle" x="397" y="-280.2" font-family="Times,serif" font-size="14.00" fill="#000000">22</text>
</g>
<!-- 8&#45;&gt;22 -->
<g id="edge18" class="edge">
<title>8&#45;&gt;22</title>
<path fill="none" stroke="#000000" d="M389.0236,-355.23C390.3971,-343.0338 392.2416,-326.6543 393.811,-312.7187"/>
<polygon fill="#000000" stroke="#000000" points="397.3039,-312.977 394.945,-302.6481 390.3479,-312.1936 397.3039,-312.977"/>
<text text-anchor="middle" x="402.5" y="-324.6" font-family="Times,serif" font-size="14.00" fill="#000000">190</text>
</g>
<!-- 4 -->
<g id="node18" class="node">
<title>4</title>
<ellipse fill="none" stroke="#ff0000" cx="181" cy="-195.6" rx="27" ry="18"/>
<text text-anchor="middle" x="181" y="-191.4" font-family="Times,serif" font-size="14.00" fill="#000000">4</text>
</g>
<!-- 51&#45;&gt;4 -->
<g id="edge19" class="edge">
<title>51&#45;&gt;4</title>
<path fill="none" stroke="#000000" d="M290.3921,-272.7601C278.6574,-265.9533 263.7909,-257.026 251,-248.4 235.8849,-238.2066 219.5917,-225.9945 206.5309,-215.8837"/>
<polygon fill="#000000" stroke="#000000" points="208.4967,-212.9781 198.4598,-209.5851 204.1901,-218.4966 208.4967,-212.9781"/>
<text text-anchor="middle" x="261.5" y="-235.8" font-family="Times,serif" font-size="14.00" fill="#000000">205</text>
</g>
<!-- 10 -->
<g id="node19" class="node">
<title>10</title>
<ellipse fill="none" stroke="#ff0000" cx="253" cy="-195.6" rx="27" ry="18"/>
<text text-anchor="middle" x="253" y="-191.4" font-family="Times,serif" font-size="14.00" fill="#000000">10</text>
</g>
<!-- 51&#45;&gt;10 -->
<g id="edge20" class="edge">
<title>51&#45;&gt;10</title>
<path fill="none" stroke="#000000" d="M300.0906,-267.6974C291.5034,-254.5501 279.3926,-236.008 269.6034,-221.0203"/>
<polygon fill="#000000" stroke="#000000" points="272.2592,-218.6861 263.8604,-212.2277 266.3986,-222.514 272.2592,-218.6861"/>
<text text-anchor="middle" x="297.5" y="-235.8" font-family="Times,serif" font-size="14.00" fill="#000000">201</text>
</g>
<!-- 16 -->
<g id="node20" class="node">
<title>16</title>
<ellipse fill="none" stroke="#ff0000" cx="325" cy="-195.6" rx="27" ry="18"/>
<text text-anchor="middle" x="325" y="-191.4" font-family="Times,serif" font-size="14.00" fill="#000000">16</text>
</g>
<!-- 51&#45;&gt;16 -->
<g id="edge21" class="edge">
<title>51&#45;&gt;16</title>
<path fill="none" stroke="#000000" d="M313.8331,-266.43C315.7687,-254.153 318.3725,-237.6372 320.5789,-223.6421"/>
<polygon fill="#000000" stroke="#000000" points="324.071,-223.9664 322.1711,-213.5433 317.1564,-222.8762 324.071,-223.9664"/>
<text text-anchor="middle" x="329.5" y="-235.8" font-family="Times,serif" font-size="14.00" fill="#000000">199</text>
</g>
<!-- 77 -->
<g id="node21" class="node">
<title>77</title>
<ellipse fill="none" stroke="#000000" cx="325" cy="-106.8" rx="27" ry="18"/>
<text text-anchor="middle" x="325" y="-102.6" font-family="Times,serif" font-size="14.00" fill="#000000">77</text>
</g>
<!-- 16&#45;&gt;77 -->
<g id="edge22" class="edge">
<title>16&#45;&gt;77</title>
<path fill="none" stroke="#000000" d="M325,-177.2006C325,-165.0949 325,-149.0076 325,-135.2674"/>
<polygon fill="#000000" stroke="#000000" points="328.5001,-134.872 325,-124.872 321.5001,-134.8721 328.5001,-134.872"/>
<text text-anchor="middle" x="335.5" y="-147" font-family="Times,serif" font-size="14.00" fill="#000000">191</text>
</g>
<!-- 20 -->
<g id="node22" class="node">
<title>20</title>
<ellipse fill="none" stroke="#ff0000" cx="325" cy="-18" rx="27" ry="18"/>
<text text-anchor="middle" x="325" y="-13.8" font-family="Times,serif" font-size="14.00" fill="#000000">20</text>
</g>
<!-- 77&#45;&gt;20 -->
<g id="edge23" class="edge">
<title>77&#45;&gt;20</title>
<path fill="none" stroke="#000000" d="M325,-88.4006C325,-76.2949 325,-60.2076 325,-46.4674"/>
<polygon fill="#000000" stroke="#000000" points="328.5001,-46.072 325,-36.072 321.5001,-46.0721 328.5001,-46.072"/>
<text text-anchor="middle" x="335.5" y="-58.2" font-family="Times,serif" font-size="14.00" fill="#000000">196</text>
</g>
<!-- 19 -->
<g id="node24" class="node">
<title>19</title>
<ellipse fill="none" stroke="#ff0000" cx="397" cy="-195.6" rx="27" ry="18"/>
<text text-anchor="middle" x="397" y="-191.4" font-family="Times,serif" font-size="14.00" fill="#000000">19</text>
</g>
<!-- 22&#45;&gt;19 -->
<g id="edge24" class="edge">
<title>22&#45;&gt;19</title>
<path fill="none" stroke="#000000" d="M397,-266.0006C397,-253.8949 397,-237.8076 397,-224.0674"/>
<polygon fill="#000000" stroke="#000000" points="400.5001,-223.672 397,-213.672 393.5001,-223.6721 400.5001,-223.672"/>
<text text-anchor="middle" x="407.5" y="-235.8" font-family="Times,serif" font-size="14.00" fill="#000000">193</text>
</g>
<!-- 14 -->
<g id="node25" class="node">
<title>14</title>
<ellipse fill="none" stroke="#ff0000" cx="469" cy="-195.6" rx="27" ry="18"/>
<text text-anchor="middle" x="469" y="-191.4" font-family="Times,serif" font-size="14.00" fill="#000000">14</text>
</g>
<!-- 22&#45;&gt;14 -->
<g id="edge25" class="edge">
<title>22&#45;&gt;14</title>
<path fill="none" stroke="#000000" d="M409.8722,-268.5243C420.8616,-254.9707 436.8373,-235.2674 449.413,-219.7573"/>
<polygon fill="#000000" stroke="#000000" points="452.4171,-221.6095 455.9965,-211.6376 446.9798,-217.2009 452.4171,-221.6095"/>
<text text-anchor="middle" x="449.5" y="-235.8" font-family="Times,serif" font-size="14.00" fill="#000000">197</text>
</g>
</g>
</svg>
