<svg width="600px" height="701px"
 viewBox="0.00 0.00 494.00 576.80" xmlns="http://www.w3.org/2000/svg" xmlns:xlink="http://www.w3.org/1999/xlink">
<g id="graph0" class="graph" transform="scale(1.0 1.0) rotate(0) translate(4 572.8)">
<title>%0</title>
<polygon fill="#ffffff" stroke="transparent" points="-4,4 -4,-572.8 490,-572.8 490,4 -4,4"/>
<!-- 10 -->
<g id="node1" class="node">
<title>10</title>
<ellipse fill="none" stroke="#ff0000" cx="294" cy="-550.8" rx="27" ry="18"/>
<text text-anchor="middle" x="294" y="-546.6" font-family="Times,serif" font-size="14.00" fill="#000000">10</text>
</g>
<!-- 3 -->
<g id="node2" class="node">
<title>3</title>
<ellipse fill="none" stroke="#ff0000" cx="272" cy="-462" rx="27" ry="18"/>
<text text-anchor="middle" x="272" y="-457.8" font-family="Times,serif" font-size="14.00" fill="#000000">3</text>
</g>
<!-- 10&#45;&gt;3 -->
<g id="edge1" class="edge">
<title>10&#45;&gt;3</title>
<path fill="none" stroke="#000000" d="M289.548,-532.83C286.5064,-520.553 282.4146,-504.0372 278.9474,-490.0421"/>
<polygon fill="#000000" stroke="#000000" points="282.2475,-488.8081 276.4454,-479.9433 275.453,-490.4915 282.2475,-488.8081"/>
<text text-anchor="middle" x="295.5" y="-502.2" font-family="Times,serif" font-size="14.00" fill="#000000">290</text>
</g>
<!-- 15 -->
<g id="node3" class="node">
<title>15</title>
<ellipse fill="none" stroke="#ff0000" cx="344" cy="-462" rx="27" ry="18"/>
<text text-anchor="middle" x="344" y="-457.8" font-family="Times,serif" font-size="14.00" fill="#000000">15</text>
</g>
<!-- 10&#45;&gt;15 -->
<g id="edge2" class="edge">
<title>10&#45;&gt;15</title>
<path fill="none" stroke="#000000" d="M303.6405,-533.6785C310.9034,-520.7795 320.9902,-502.8655 329.2627,-488.1734"/>
<polygon fill="#000000" stroke="#000000" points="332.5325,-489.4999 334.3891,-479.069 326.4329,-486.0654 332.5325,-489.4999"/>
<text text-anchor="middle" x="334.5" y="-502.2" font-family="Times,serif" font-size="14.00" fill="#000000">293</text>
</g>
<!-- 20 -->
<g id="node4" class="node">
<title>20</title>
<ellipse fill="none" stroke="#ff0000" cx="171" cy="-373.2" rx="27" ry="18"/>
<text text-anchor="middle" x="171" y="-369" font-family="Times,serif" font-size="14.00" fill="#000000">20</text>
</g>
<!-- 15&#45;&gt;20 -->
<g id="edge3" class="edge">
<title>15&#45;&gt;20</title>
<path fill="none" stroke="#000000" d="M322.4392,-450.933C292.054,-435.3364 236.4751,-406.808 201.76,-388.9889"/>
<polygon fill="#000000" stroke="#000000" points="203.0549,-385.7195 192.5601,-384.2667 199.8583,-391.947 203.0549,-385.7195"/>
<text text-anchor="middle" x="283.5" y="-413.4" font-family="Times,serif" font-size="14.00" fill="#000000">288</text>
</g>
<!-- 5 -->
<g id="node15" class="node">
<title>5</title>
<ellipse fill="none" stroke="#ff0000" cx="344" cy="-373.2" rx="27" ry="18"/>
<text text-anchor="middle" x="344" y="-369" font-family="Times,serif" font-size="14.00" fill="#000000">5</text>
</g>
<!-- 15&#45;&gt;5 -->
<g id="edge4" class="edge">
<title>15&#45;&gt;5</title>
<path fill="none" stroke="#000000" d="M344,-443.6006C344,-431.4949 344,-415.4076 344,-401.6674"/>
<polygon fill="#000000" stroke="#000000" points="347.5001,-401.272 344,-391.272 340.5001,-401.2721 347.5001,-401.272"/>
<text text-anchor="middle" x="354.5" y="-413.4" font-family="Times,serif" font-size="14.00" fill="#000000">292</text>
</g>
<!-- 16 -->
<g id="node20" class="node">
<title>16</title>
<ellipse fill="none" stroke="#ff0000" cx="416" cy="-373.2" rx="27" ry="18"/>
<text text-anchor="middle" x="416" y="-369" font-family="Times,serif" font-size="14.00" fill="#000000">16</text>
</g>
<!-- 15&#45;&gt;16 -->
<g id="edge5" class="edge">
<title>15&#45;&gt;16</title>
<path fill="none" stroke="#000000" d="M356.8722,-446.1243C367.8616,-432.5707 383.8373,-412.8674 396.413,-397.3573"/>
<polygon fill="#000000" stroke="#000000" points="399.4171,-399.2095 402.9965,-389.2376 393.9798,-394.8009 399.4171,-399.2095"/>
<text text-anchor="middle" x="397.5" y="-413.4" font-family="Times,serif" font-size="14.00" fill="#000000">291</text>
</g>
<!-- 1 -->
<g id="node5" class="node">
<title>1</title>
<ellipse fill="none" stroke="#ff0000" cx="27" cy="-284.4" rx="27" ry="18"/>
<text text-anchor="middle" x="27" y="-280.2" font-family="Times,serif" font-size="14.00" fill="#000000">1</text>
</g>
<!-- 20&#45;&gt;1 -->
<g id="edge6" class="edge">
<title>20&#45;&gt;1</title>
<path fill="none" stroke="#000000" d="M149.2444,-362.2687C135.9717,-355.4141 118.7736,-346.1982 104,-337.2 86.9185,-326.7962 68.4148,-314.1551 53.8283,-303.8504"/>
<polygon fill="#000000" stroke="#000000" points="55.476,-300.727 45.3001,-297.7772 51.4154,-306.429 55.476,-300.727"/>
<text text-anchor="middle" x="114.5" y="-324.6" font-family="Times,serif" font-size="14.00" fill="#000000">295</text>
</g>
<!-- 18 -->
<g id="node6" class="node">
<title>18</title>
<ellipse fill="none" stroke="#ff0000" cx="99" cy="-284.4" rx="27" ry="18"/>
<text text-anchor="middle" x="99" y="-280.2" font-family="Times,serif" font-size="14.00" fill="#000000">18</text>
</g>
<!-- 20&#45;&gt;18 -->
<g id="edge7" class="edge">
<title>20&#45;&gt;18</title>
<path fill="none" stroke="#000000" d="M158.1278,-357.3243C147.1384,-343.7707 131.1627,-324.0674 118.587,-308.5573"/>
<polygon fill="#000000" stroke="#000000" points="121.0202,-306.0009 112.0035,-300.4376 115.5829,-310.4095 121.0202,-306.0009"/>
<text text-anchor="middle" x="152.5" y="-324.6" font-family="Times,serif" font-size="14.00" fill="#000000">293</text>
</g>
<!-- 6 -->
<g id="node7" class="node">
<title>6</title>
<ellipse fill="none" stroke="#ff0000" cx="171" cy="-284.4" rx="27" ry="18"/>
<text text-anchor="middle" x="171" y="-280.2" font-family="Times,serif" font-size="14.00" fill="#000000">6</text>
</g>
<!-- 20&#45;&gt;6 -->
<g id="edge8" class="edge">
<title>20&#45;&gt;6</title>
<path fill="none" stroke="#000000" d="M171,-354.8006C171,-342.6949 171,-326.6076 171,-312.8674"/>
<polygon fill="#000000" stroke="#000000" points="174.5001,-312.472 171,-302.472 167.5001,-312.4721 174.5001,-312.472"/>
<text text-anchor="middle" x="181.5" y="-324.6" font-family="Times,serif" font-size="14.00" fill="#000000">279</text>
</g>
<!-- 14 -->
<g id="node14" class="node">
<title>14</title>
<ellipse fill="none" stroke="#ff0000" cx="243" cy="-284.4" rx="27" ry="18"/>
<text text-anchor="middle" x="243" y="-280.2" font-family="Times,serif" font-size="14.00" fill="#000000">14</text>
</g>
<!-- 20&#45;&gt;14 -->
<g id="edge9" class="edge">
<title>20&#45;&gt;14</title>
<path fill="none" stroke="#000000" d="M183.8722,-357.3243C194.8616,-343.7707 210.8373,-324.0674 223.413,-308.5573"/>
<polygon fill="#000000" stroke="#000000" points="226.4171,-310.4095 229.9965,-300.4376 220.9798,-306.0009 226.4171,-310.4095"/>
<text text-anchor="middle" x="224.5" y="-324.6" font-family="Times,serif" font-size="14.00" fill="#000000">295</text>
</g>
<!-- 17 -->
<g id="node8" class="node">
<title>17</title>
<ellipse fill="none" stroke="#ff0000" cx="128" cy="-195.6" rx="27" ry="18"/>
<text text-anchor="middle" x="128" y="-191.4" font-family="Times,serif" font-size="14.00" fill="#000000">17</text>
</g>
<!-- 6&#45;&gt;17 -->
<g id="edge10" class="edge">
<title>6&#45;&gt;17</title>
<path fill="none" stroke="#000000" d="M162.5046,-266.856C156.2805,-254.0025 147.7274,-236.3393 140.6941,-221.8148"/>
<polygon fill="#000000" stroke="#000000" points="143.8399,-220.2803 136.3315,-212.8054 137.5397,-223.3311 143.8399,-220.2803"/>
<text text-anchor="middle" x="164.5" y="-235.8" font-family="Times,serif" font-size="14.00" fill="#000000">289</text>
</g>
<!-- 4 -->
<g id="node13" class="node">
<title>4</title>
<ellipse fill="none" stroke="#ff0000" cx="200" cy="-195.6" rx="27" ry="18"/>
<text text-anchor="middle" x="200" y="-191.4" font-family="Times,serif" font-size="14.00" fill="#000000">4</text>
</g>
<!-- 6&#45;&gt;4 -->
<g id="edge11" class="edge">
<title>6&#45;&gt;4</title>
<path fill="none" stroke="#000000" d="M176.8686,-266.43C180.9439,-253.9511 186.4494,-237.0928 191.0669,-222.9536"/>
<polygon fill="#000000" stroke="#000000" points="194.4617,-223.8327 194.2391,-213.2402 187.8076,-221.6596 194.4617,-223.8327"/>
<text text-anchor="middle" x="199.5" y="-235.8" font-family="Times,serif" font-size="14.00" fill="#000000">292</text>
</g>
<!-- 9 -->
<g id="node9" class="node">
<title>9</title>
<ellipse fill="none" stroke="#ff0000" cx="92" cy="-106.8" rx="27" ry="18"/>
<text text-anchor="middle" x="92" y="-102.6" font-family="Times,serif" font-size="14.00" fill="#000000">9</text>
</g>
<!-- 17&#45;&gt;9 -->
<g id="edge12" class="edge">
<title>17&#45;&gt;9</title>
<path fill="none" stroke="#000000" d="M120.8876,-178.056C115.7596,-165.4071 108.7433,-148.1002 102.9097,-133.7105"/>
<polygon fill="#000000" stroke="#000000" points="106.0984,-132.26 99.0977,-124.3076 99.6112,-134.89 106.0984,-132.26"/>
<text text-anchor="middle" x="124.5" y="-147" font-family="Times,serif" font-size="14.00" fill="#000000">291</text>
</g>
<!-- 11 -->
<g id="node12" class="node">
<title>11</title>
<ellipse fill="none" stroke="#ff0000" cx="164" cy="-106.8" rx="27" ry="18"/>
<text text-anchor="middle" x="164" y="-102.6" font-family="Times,serif" font-size="14.00" fill="#000000">11</text>
</g>
<!-- 17&#45;&gt;11 -->
<g id="edge13" class="edge">
<title>17&#45;&gt;11</title>
<path fill="none" stroke="#000000" d="M135.1124,-178.056C140.2404,-165.4071 147.2567,-148.1002 153.0903,-133.7105"/>
<polygon fill="#000000" stroke="#000000" points="156.3888,-134.89 156.9023,-124.3076 149.9016,-132.26 156.3888,-134.89"/>
<text text-anchor="middle" x="160.5" y="-147" font-family="Times,serif" font-size="14.00" fill="#000000">291</text>
</g>
<!-- 2 -->
<g id="node10" class="node">
<title>2</title>
<ellipse fill="none" stroke="#ff0000" cx="56" cy="-18" rx="27" ry="18"/>
<text text-anchor="middle" x="56" y="-13.8" font-family="Times,serif" font-size="14.00" fill="#000000">2</text>
</g>
<!-- 9&#45;&gt;2 -->
<g id="edge14" class="edge">
<title>9&#45;&gt;2</title>
<path fill="none" stroke="#000000" d="M84.8876,-89.256C79.7596,-76.6071 72.7433,-59.3002 66.9097,-44.9105"/>
<polygon fill="#000000" stroke="#000000" points="70.0984,-43.46 63.0977,-35.5076 63.6112,-46.09 70.0984,-43.46"/>
<text text-anchor="middle" x="88.5" y="-58.2" font-family="Times,serif" font-size="14.00" fill="#000000">293</text>
</g>
<!-- 12 -->
<g id="node11" class="node">
<title>12</title>
<ellipse fill="none" stroke="#ff0000" cx="128" cy="-18" rx="27" ry="18"/>
<text text-anchor="middle" x="128" y="-13.8" font-family="Times,serif" font-size="14.00" fill="#000000">12</text>
</g>
<!-- 9&#45;&gt;12 -->
<g id="edge15" class="edge">
<title>9&#45;&gt;12</title>
<path fill="none" stroke="#000000" d="M99.1124,-89.256C104.2404,-76.6071 111.2567,-59.3002 117.0903,-44.9105"/>
<polygon fill="#000000" stroke="#000000" points="120.3888,-46.09 120.9023,-35.5076 113.9016,-43.46 120.3888,-46.09"/>
<text text-anchor="middle" x="124.5" y="-58.2" font-family="Times,serif" font-size="14.00" fill="#000000">292</text>
</g>
<!-- 7 -->
<g id="node16" class="node">
<title>7</title>
<ellipse fill="none" stroke="#ff0000" cx="315" cy="-284.4" rx="27" ry="18"/>
<text text-anchor="middle" x="315" y="-280.2" font-family="Times,serif" font-size="14.00" fill="#000000">7</text>
</g>
<!-- 5&#45;&gt;7 -->
<g id="edge16" class="edge">
<title>5&#45;&gt;7</title>
<path fill="none" stroke="#000000" d="M336.8304,-355.7427C334.5295,-349.8914 332.0486,-343.3031 330,-337.2 327.3135,-329.1964 324.69,-320.4089 322.4076,-312.3385"/>
<polygon fill="#000000" stroke="#000000" points="325.7571,-311.3191 319.7199,-302.6126 319.01,-313.1837 325.7571,-311.3191"/>
<text text-anchor="middle" x="340.5" y="-324.6" font-family="Times,serif" font-size="14.00" fill="#000000">292</text>
</g>
<!-- 8 -->
<g id="node17" class="node">
<title>8</title>
<ellipse fill="none" stroke="#ff0000" cx="387" cy="-284.4" rx="27" ry="18"/>
<text text-anchor="middle" x="387" y="-280.2" font-family="Times,serif" font-size="14.00" fill="#000000">8</text>
</g>
<!-- 5&#45;&gt;8 -->
<g id="edge17" class="edge">
<title>5&#45;&gt;8</title>
<path fill="none" stroke="#000000" d="M352.4954,-355.656C358.7195,-342.8025 367.2726,-325.1393 374.3059,-310.6148"/>
<polygon fill="#000000" stroke="#000000" points="377.4603,-312.1311 378.6685,-301.6054 371.1601,-309.0803 377.4603,-312.1311"/>
<text text-anchor="middle" x="380.5" y="-324.6" font-family="Times,serif" font-size="14.00" fill="#000000">287</text>
</g>
<!-- 13 -->
<g id="node19" class="node">
<title>13</title>
<ellipse fill="none" stroke="#ff0000" cx="459" cy="-284.4" rx="27" ry="18"/>
<text text-anchor="middle" x="459" y="-280.2" font-family="Times,serif" font-size="14.00" fill="#000000">13</text>
</g>
<!-- 5&#45;&gt;13 -->
<g id="edge18" class="edge">
<title>5&#45;&gt;13</title>
<path fill="none" stroke="#000000" d="M363.1364,-360.1982C372.8122,-353.4973 384.6642,-345.0938 395,-337.2 408.3937,-326.9708 422.9128,-315.063 434.7311,-305.1476"/>
<polygon fill="#000000" stroke="#000000" points="437.0495,-307.7709 442.4345,-298.6465 432.5349,-302.4213 437.0495,-307.7709"/>
<text text-anchor="middle" x="425.5" y="-324.6" font-family="Times,serif" font-size="14.00" fill="#000000">292</text>
</g>
<!-- 19 -->
<g id="node18" class="node">
<title>19</title>
<ellipse fill="none" stroke="#ff0000" cx="387" cy="-195.6" rx="27" ry="18"/>
<text text-anchor="middle" x="387" y="-191.4" font-family="Times,serif" font-size="14.00" fill="#000000">19</text>
</g>
<!-- 8&#45;&gt;19 -->
<g id="edge19" class="edge">
<title>8&#45;&gt;19</title>
<path fill="none" stroke="#000000" d="M387,-266.0006C387,-253.8949 387,-237.8076 387,-224.0674"/>
<polygon fill="#000000" stroke="#000000" points="390.5001,-223.672 387,-213.672 383.5001,-223.6721 390.5001,-223.672"/>
<text text-anchor="middle" x="397.5" y="-235.8" font-family="Times,serif" font-size="14.00" fill="#000000">292</text>
</g>
</g>
</svg>
