<svg width="600px" height="1035px"
 viewBox="0.00 0.00 386.00 665.60" xmlns="http://www.w3.org/2000/svg" xmlns:xlink="http://www.w3.org/1999/xlink">
<g id="graph0" class="graph" transform="scale(1.0 1.0) rotate(0) translate(4 661.6)">
<title>%0</title>
<polygon fill="#ffffff" stroke="transparent" points="-4,4 -4,-661.6 382,-661.6 382,4 -4,4"/>
<!-- 1 -->
<g id="node1" class="node">
<title>1</title>
<ellipse fill="none" stroke="#ff0000" cx="185" cy="-639.6" rx="27" ry="18"/>
<text text-anchor="middle" x="185" y="-635.4" font-family="Times,serif" font-size="14.00" fill="#000000">1</text>
</g>
<!-- 10 -->
<g id="node2" class="node">
<title>10</title>
<ellipse fill="none" stroke="#ff0000" cx="149" cy="-550.8" rx="27" ry="18"/>
<text text-anchor="middle" x="149" y="-546.6" font-family="Times,serif" font-size="14.00" fill="#000000">10</text>
</g>
<!-- 1&#45;&gt;10 -->
<g id="edge1" class="edge">
<title>1&#45;&gt;10</title>
<path fill="none" stroke="#000000" d="M177.8876,-622.056C172.7596,-609.4071 165.7433,-592.1002 159.9097,-577.7105"/>
<polygon fill="#000000" stroke="#000000" points="163.0984,-576.26 156.0977,-568.3076 156.6112,-578.89 163.0984,-576.26"/>
<text text-anchor="middle" x="181.5" y="-591" font-family="Times,serif" font-size="14.00" fill="#000000">283</text>
</g>
<!-- 13 -->
<g id="node15" class="node">
<title>13</title>
<ellipse fill="none" stroke="#ff0000" cx="221" cy="-550.8" rx="27" ry="18"/>
<text text-anchor="middle" x="221" y="-546.6" font-family="Times,serif" font-size="14.00" fill="#000000">13</text>
</g>
<!-- 1&#45;&gt;13 -->
<g id="edge2" class="edge">
<title>1&#45;&gt;13</title>
<path fill="none" stroke="#000000" d="M192.1124,-622.056C197.2404,-609.4071 204.2567,-592.1002 210.0903,-577.7105"/>
<polygon fill="#000000" stroke="#000000" points="213.3888,-578.89 213.9023,-568.3076 206.9016,-576.26 213.3888,-578.89"/>
<text text-anchor="middle" x="217.5" y="-591" font-family="Times,serif" font-size="14.00" fill="#000000">289</text>
</g>
<!-- 20 -->
<g id="node3" class="node">
<title>20</title>
<ellipse fill="none" stroke="#ff0000" cx="149" cy="-462" rx="27" ry="18"/>
<text text-anchor="middle" x="149" y="-457.8" font-family="Times,serif" font-size="14.00" fill="#000000">20</text>
</g>
<!-- 10&#45;&gt;20 -->
<g id="edge3" class="edge">
<title>10&#45;&gt;20</title>
<path fill="none" stroke="#000000" d="M149,-532.4006C149,-520.2949 149,-504.2076 149,-490.4674"/>
<polygon fill="#000000" stroke="#000000" points="152.5001,-490.072 149,-480.072 145.5001,-490.0721 152.5001,-490.072"/>
<text text-anchor="middle" x="159.5" y="-502.2" font-family="Times,serif" font-size="14.00" fill="#000000">291</text>
</g>
<!-- 18 -->
<g id="node4" class="node">
<title>18</title>
<ellipse fill="none" stroke="#ff0000" cx="27" cy="-373.2" rx="27" ry="18"/>
<text text-anchor="middle" x="27" y="-369" font-family="Times,serif" font-size="14.00" fill="#000000">18</text>
</g>
<!-- 20&#45;&gt;18 -->
<g id="edge4" class="edge">
<title>20&#45;&gt;18</title>
<path fill="none" stroke="#000000" d="M129.5252,-449.5038C119.1514,-442.7258 106.2462,-434.0988 95,-426 80.5733,-415.6108 64.8729,-403.4773 52.1968,-393.4633"/>
<polygon fill="#000000" stroke="#000000" points="54.3546,-390.7075 44.3473,-387.2284 50.0007,-396.1888 54.3546,-390.7075"/>
<text text-anchor="middle" x="105.5" y="-413.4" font-family="Times,serif" font-size="14.00" fill="#000000">290</text>
</g>
<!-- 14 -->
<g id="node8" class="node">
<title>14</title>
<ellipse fill="none" stroke="#ff0000" cx="99" cy="-373.2" rx="27" ry="18"/>
<text text-anchor="middle" x="99" y="-369" font-family="Times,serif" font-size="14.00" fill="#000000">14</text>
</g>
<!-- 20&#45;&gt;14 -->
<g id="edge5" class="edge">
<title>20&#45;&gt;14</title>
<path fill="none" stroke="#000000" d="M139.3595,-444.8785C132.0966,-431.9795 122.0098,-414.0655 113.7373,-399.3734"/>
<polygon fill="#000000" stroke="#000000" points="116.5671,-397.2654 108.6109,-390.269 110.4675,-400.6999 116.5671,-397.2654"/>
<text text-anchor="middle" x="139.5" y="-413.4" font-family="Times,serif" font-size="14.00" fill="#000000">292</text>
</g>
<!-- 15 -->
<g id="node14" class="node">
<title>15</title>
<ellipse fill="none" stroke="#ff0000" cx="171" cy="-373.2" rx="27" ry="18"/>
<text text-anchor="middle" x="171" y="-369" font-family="Times,serif" font-size="14.00" fill="#000000">15</text>
</g>
<!-- 20&#45;&gt;15 -->
<g id="edge6" class="edge">
<title>20&#45;&gt;15</title>
<path fill="none" stroke="#000000" d="M153.452,-444.03C156.4936,-431.753 160.5854,-415.2372 164.0526,-401.2421"/>
<polygon fill="#000000" stroke="#000000" points="167.547,-401.6915 166.5546,-391.1433 160.7525,-400.0081 167.547,-401.6915"/>
<text text-anchor="middle" x="172.5" y="-413.4" font-family="Times,serif" font-size="14.00" fill="#000000">293</text>
</g>
<!-- 12 -->
<g id="node5" class="node">
<title>12</title>
<ellipse fill="none" stroke="#ff0000" cx="27" cy="-284.4" rx="27" ry="18"/>
<text text-anchor="middle" x="27" y="-280.2" font-family="Times,serif" font-size="14.00" fill="#000000">12</text>
</g>
<!-- 18&#45;&gt;12 -->
<g id="edge7" class="edge">
<title>18&#45;&gt;12</title>
<path fill="none" stroke="#000000" d="M27,-354.8006C27,-342.6949 27,-326.6076 27,-312.8674"/>
<polygon fill="#000000" stroke="#000000" points="30.5001,-312.472 27,-302.472 23.5001,-312.4721 30.5001,-312.472"/>
<text text-anchor="middle" x="37.5" y="-324.6" font-family="Times,serif" font-size="14.00" fill="#000000">289</text>
</g>
<!-- 19 -->
<g id="node6" class="node">
<title>19</title>
<ellipse fill="none" stroke="#ff0000" cx="27" cy="-195.6" rx="27" ry="18"/>
<text text-anchor="middle" x="27" y="-191.4" font-family="Times,serif" font-size="14.00" fill="#000000">19</text>
</g>
<!-- 12&#45;&gt;19 -->
<g id="edge8" class="edge">
<title>12&#45;&gt;19</title>
<path fill="none" stroke="#000000" d="M27,-266.0006C27,-253.8949 27,-237.8076 27,-224.0674"/>
<polygon fill="#000000" stroke="#000000" points="30.5001,-223.672 27,-213.672 23.5001,-223.6721 30.5001,-223.672"/>
<text text-anchor="middle" x="37.5" y="-235.8" font-family="Times,serif" font-size="14.00" fill="#000000">290</text>
</g>
<!-- 5 -->
<g id="node7" class="node">
<title>5</title>
<ellipse fill="none" stroke="#ff0000" cx="27" cy="-106.8" rx="27" ry="18"/>
<text text-anchor="middle" x="27" y="-102.6" font-family="Times,serif" font-size="14.00" fill="#000000">5</text>
</g>
<!-- 19&#45;&gt;5 -->
<g id="edge9" class="edge">
<title>19&#45;&gt;5</title>
<path fill="none" stroke="#000000" d="M27,-177.2006C27,-165.0949 27,-149.0076 27,-135.2674"/>
<polygon fill="#000000" stroke="#000000" points="30.5001,-134.872 27,-124.872 23.5001,-134.8721 30.5001,-134.872"/>
<text text-anchor="middle" x="37.5" y="-147" font-family="Times,serif" font-size="14.00" fill="#000000">286</text>
</g>
<!-- 17 -->
<g id="node9" class="node">
<title>17</title>
<ellipse fill="none" stroke="#ff0000" cx="99" cy="-284.4" rx="27" ry="18"/>
<text text-anchor="middle" x="99" y="-280.2" font-family="Times,serif" font-size="14.00" fill="#000000">17</text>
</g>
<!-- 14&#45;&gt;17 -->
<g id="edge10" class="edge">
<title>14&#45;&gt;17</title>
<path fill="none" stroke="#000000" d="M99,-354.8006C99,-342.6949 99,-326.6076 99,-312.8674"/>
<polygon fill="#000000" stroke="#000000" points="102.5001,-312.472 99,-302.472 95.5001,-312.4721 102.5001,-312.472"/>
<text text-anchor="middle" x="109.5" y="-324.6" font-family="Times,serif" font-size="14.00" fill="#000000">290</text>
</g>
<!-- 8 -->
<g id="node10" class="node">
<title>8</title>
<ellipse fill="none" stroke="#ff0000" cx="99" cy="-195.6" rx="27" ry="18"/>
<text text-anchor="middle" x="99" y="-191.4" font-family="Times,serif" font-size="14.00" fill="#000000">8</text>
</g>
<!-- 17&#45;&gt;8 -->
<g id="edge11" class="edge">
<title>17&#45;&gt;8</title>
<path fill="none" stroke="#000000" d="M99,-266.0006C99,-253.8949 99,-237.8076 99,-224.0674"/>
<polygon fill="#000000" stroke="#000000" points="102.5001,-223.672 99,-213.672 95.5001,-223.6721 102.5001,-223.672"/>
<text text-anchor="middle" x="109.5" y="-235.8" font-family="Times,serif" font-size="14.00" fill="#000000">289</text>
</g>
<!-- 4 -->
<g id="node11" class="node">
<title>4</title>
<ellipse fill="none" stroke="#ff0000" cx="99" cy="-106.8" rx="27" ry="18"/>
<text text-anchor="middle" x="99" y="-102.6" font-family="Times,serif" font-size="14.00" fill="#000000">4</text>
</g>
<!-- 8&#45;&gt;4 -->
<g id="edge12" class="edge">
<title>8&#45;&gt;4</title>
<path fill="none" stroke="#000000" d="M99,-177.2006C99,-165.0949 99,-149.0076 99,-135.2674"/>
<polygon fill="#000000" stroke="#000000" points="102.5001,-134.872 99,-124.872 95.5001,-134.8721 102.5001,-134.872"/>
<text text-anchor="middle" x="109.5" y="-147" font-family="Times,serif" font-size="14.00" fill="#000000">291</text>
</g>
<!-- 9 -->
<g id="node12" class="node">
<title>9</title>
<ellipse fill="none" stroke="#ff0000" cx="171" cy="-106.8" rx="27" ry="18"/>
<text text-anchor="middle" x="171" y="-102.6" font-family="Times,serif" font-size="14.00" fill="#000000">9</text>
</g>
<!-- 8&#45;&gt;9 -->
<g id="edge13" class="edge">
<title>8&#45;&gt;9</title>
<path fill="none" stroke="#000000" d="M111.8722,-179.7243C122.8616,-166.1707 138.8373,-146.4674 151.413,-130.9573"/>
<polygon fill="#000000" stroke="#000000" points="154.4171,-132.8095 157.9965,-122.8376 148.9798,-128.4009 154.4171,-132.8095"/>
<text text-anchor="middle" x="152.5" y="-147" font-family="Times,serif" font-size="14.00" fill="#000000">290</text>
</g>
<!-- 11 -->
<g id="node13" class="node">
<title>11</title>
<ellipse fill="none" stroke="#ff0000" cx="171" cy="-18" rx="27" ry="18"/>
<text text-anchor="middle" x="171" y="-13.8" font-family="Times,serif" font-size="14.00" fill="#000000">11</text>
</g>
<!-- 9&#45;&gt;11 -->
<g id="edge14" class="edge">
<title>9&#45;&gt;11</title>
<path fill="none" stroke="#000000" d="M171,-88.4006C171,-76.2949 171,-60.2076 171,-46.4674"/>
<polygon fill="#000000" stroke="#000000" points="174.5001,-46.072 171,-36.072 167.5001,-46.0721 174.5001,-46.072"/>
<text text-anchor="middle" x="181.5" y="-58.2" font-family="Times,serif" font-size="14.00" fill="#000000">292</text>
</g>
<!-- 7 -->
<g id="node16" class="node">
<title>7</title>
<ellipse fill="none" stroke="#ff0000" cx="243" cy="-462" rx="27" ry="18"/>
<text text-anchor="middle" x="243" y="-457.8" font-family="Times,serif" font-size="14.00" fill="#000000">7</text>
</g>
<!-- 13&#45;&gt;7 -->
<g id="edge15" class="edge">
<title>13&#45;&gt;7</title>
<path fill="none" stroke="#000000" d="M225.452,-532.83C228.4936,-520.553 232.5854,-504.0372 236.0526,-490.0421"/>
<polygon fill="#000000" stroke="#000000" points="239.547,-490.4915 238.5546,-479.9433 232.7525,-488.8081 239.547,-490.4915"/>
<text text-anchor="middle" x="244.5" y="-502.2" font-family="Times,serif" font-size="14.00" fill="#000000">290</text>
</g>
<!-- 3 -->
<g id="node17" class="node">
<title>3</title>
<ellipse fill="none" stroke="#ff0000" cx="243" cy="-373.2" rx="27" ry="18"/>
<text text-anchor="middle" x="243" y="-369" font-family="Times,serif" font-size="14.00" fill="#000000">3</text>
</g>
<!-- 7&#45;&gt;3 -->
<g id="edge16" class="edge">
<title>7&#45;&gt;3</title>
<path fill="none" stroke="#000000" d="M243,-443.6006C243,-431.4949 243,-415.4076 243,-401.6674"/>
<polygon fill="#000000" stroke="#000000" points="246.5001,-401.272 243,-391.272 239.5001,-401.2721 246.5001,-401.272"/>
<text text-anchor="middle" x="253.5" y="-413.4" font-family="Times,serif" font-size="14.00" fill="#000000">288</text>
</g>
<!-- 6 -->
<g id="node18" class="node">
<title>6</title>
<ellipse fill="none" stroke="#ff0000" cx="315" cy="-373.2" rx="27" ry="18"/>
<text text-anchor="middle" x="315" y="-369" font-family="Times,serif" font-size="14.00" fill="#000000">6</text>
</g>
<!-- 7&#45;&gt;6 -->
<g id="edge17" class="edge">
<title>7&#45;&gt;6</title>
<path fill="none" stroke="#000000" d="M255.8722,-446.1243C266.8616,-432.5707 282.8373,-412.8674 295.413,-397.3573"/>
<polygon fill="#000000" stroke="#000000" points="298.4171,-399.2095 301.9965,-389.2376 292.9798,-394.8009 298.4171,-399.2095"/>
<text text-anchor="middle" x="296.5" y="-413.4" font-family="Times,serif" font-size="14.00" fill="#000000">290</text>
</g>
<!-- 2 -->
<g id="node19" class="node">
<title>2</title>
<ellipse fill="none" stroke="#ff0000" cx="279" cy="-284.4" rx="27" ry="18"/>
<text text-anchor="middle" x="279" y="-280.2" font-family="Times,serif" font-size="14.00" fill="#000000">2</text>
</g>
<!-- 6&#45;&gt;2 -->
<g id="edge18" class="edge">
<title>6&#45;&gt;2</title>
<path fill="none" stroke="#000000" d="M307.8876,-355.656C302.7596,-343.0071 295.7433,-325.7002 289.9097,-311.3105"/>
<polygon fill="#000000" stroke="#000000" points="293.0984,-309.86 286.0977,-301.9076 286.6112,-312.49 293.0984,-309.86"/>
<text text-anchor="middle" x="311.5" y="-324.6" font-family="Times,serif" font-size="14.00" fill="#000000">291</text>
</g>
<!-- 16 -->
<g id="node20" class="node">
<title>16</title>
<ellipse fill="none" stroke="#ff0000" cx="351" cy="-284.4" rx="27" ry="18"/>
<text text-anchor="middle" x="351" y="-280.2" font-family="Times,serif" font-size="14.00" fill="#000000">16</text>
</g>
<!-- 6&#45;&gt;16 -->
<g id="edge19" class="edge">
<title>6&#45;&gt;16</title>
<path fill="none" stroke="#000000" d="M322.1124,-355.656C327.2404,-343.0071 334.2567,-325.7002 340.0903,-311.3105"/>
<polygon fill="#000000" stroke="#000000" points="343.3888,-312.49 343.9023,-301.9076 336.9016,-309.86 343.3888,-312.49"/>
<text text-anchor="middle" x="347.5" y="-324.6" font-family="Times,serif" font-size="14.00" fill="#000000">292</text>
</g>
</g>
</svg>
