<svg width="600px" height="1219px"
 viewBox="0.00 0.00 371.00 754.40" xmlns="http://www.w3.org/2000/svg" xmlns:xlink="http://www.w3.org/1999/xlink">
<g id="graph0" class="graph" transform="scale(1.0 1.0) rotate(0) translate(4 750.4)">
<title>%0</title>
<polygon fill="#ffffff" stroke="transparent" points="-4,4 -4,-750.4 367,-750.4 367,4 -4,4"/>
<!-- 10 -->
<g id="node1" class="node">
<title>10</title>
<ellipse fill="none" stroke="#ff0000" cx="106" cy="-728.4" rx="27" ry="18"/>
<text text-anchor="middle" x="106" y="-724.2" font-family="Times,serif" font-size="14.00" fill="#000000">10</text>
</g>
<!-- 11 -->
<g id="node2" class="node">
<title>11</title>
<ellipse fill="none" stroke="#ff0000" cx="77" cy="-639.6" rx="27" ry="18"/>
<text text-anchor="middle" x="77" y="-635.4" font-family="Times,serif" font-size="14.00" fill="#000000">11</text>
</g>
<!-- 10&#45;&gt;11 -->
<g id="edge1" class="edge">
<title>10&#45;&gt;11</title>
<path fill="none" stroke="#000000" d="M98.8304,-710.9427C96.5295,-705.0914 94.0486,-698.5031 92,-692.4 89.3135,-684.3964 86.69,-675.6089 84.4076,-667.5385"/>
<polygon fill="#000000" stroke="#000000" points="87.7571,-666.5191 81.7199,-657.8126 81.01,-668.3837 87.7571,-666.5191"/>
<text text-anchor="middle" x="102.5" y="-679.8" font-family="Times,serif" font-size="14.00" fill="#000000">291</text>
</g>
<!-- 13 -->
<g id="node3" class="node">
<title>13</title>
<ellipse fill="none" stroke="#ff0000" cx="149" cy="-639.6" rx="27" ry="18"/>
<text text-anchor="middle" x="149" y="-635.4" font-family="Times,serif" font-size="14.00" fill="#000000">13</text>
</g>
<!-- 10&#45;&gt;13 -->
<g id="edge2" class="edge">
<title>10&#45;&gt;13</title>
<path fill="none" stroke="#000000" d="M114.4954,-710.856C120.7195,-698.0025 129.2726,-680.3393 136.3059,-665.8148"/>
<polygon fill="#000000" stroke="#000000" points="139.4603,-667.3311 140.6685,-656.8054 133.1601,-664.2803 139.4603,-667.3311"/>
<text text-anchor="middle" x="142.5" y="-679.8" font-family="Times,serif" font-size="14.00" fill="#000000">294</text>
</g>
<!-- 6 -->
<g id="node4" class="node">
<title>6</title>
<ellipse fill="none" stroke="#ff0000" cx="149" cy="-550.8" rx="27" ry="18"/>
<text text-anchor="middle" x="149" y="-546.6" font-family="Times,serif" font-size="14.00" fill="#000000">6</text>
</g>
<!-- 13&#45;&gt;6 -->
<g id="edge3" class="edge">
<title>13&#45;&gt;6</title>
<path fill="none" stroke="#000000" d="M149,-621.2006C149,-609.0949 149,-593.0076 149,-579.2674"/>
<polygon fill="#000000" stroke="#000000" points="152.5001,-578.872 149,-568.872 145.5001,-578.8721 152.5001,-578.872"/>
<text text-anchor="middle" x="159.5" y="-591" font-family="Times,serif" font-size="14.00" fill="#000000">293</text>
</g>
<!-- 19 -->
<g id="node5" class="node">
<title>19</title>
<ellipse fill="none" stroke="#ff0000" cx="77" cy="-462" rx="27" ry="18"/>
<text text-anchor="middle" x="77" y="-457.8" font-family="Times,serif" font-size="14.00" fill="#000000">19</text>
</g>
<!-- 6&#45;&gt;19 -->
<g id="edge4" class="edge">
<title>6&#45;&gt;19</title>
<path fill="none" stroke="#000000" d="M136.1278,-534.9243C125.1384,-521.3707 109.1627,-501.6674 96.587,-486.1573"/>
<polygon fill="#000000" stroke="#000000" points="99.0202,-483.6009 90.0035,-478.0376 93.5829,-488.0095 99.0202,-483.6009"/>
<text text-anchor="middle" x="130.5" y="-502.2" font-family="Times,serif" font-size="14.00" fill="#000000">289</text>
</g>
<!-- 20 -->
<g id="node11" class="node">
<title>20</title>
<ellipse fill="none" stroke="#ff0000" cx="149" cy="-462" rx="27" ry="18"/>
<text text-anchor="middle" x="149" y="-457.8" font-family="Times,serif" font-size="14.00" fill="#000000">20</text>
</g>
<!-- 6&#45;&gt;20 -->
<g id="edge5" class="edge">
<title>6&#45;&gt;20</title>
<path fill="none" stroke="#000000" d="M149,-532.4006C149,-520.2949 149,-504.2076 149,-490.4674"/>
<polygon fill="#000000" stroke="#000000" points="152.5001,-490.072 149,-480.072 145.5001,-490.0721 152.5001,-490.072"/>
<text text-anchor="middle" x="159.5" y="-502.2" font-family="Times,serif" font-size="14.00" fill="#000000">290</text>
</g>
<!-- 16 -->
<g id="node13" class="node">
<title>16</title>
<ellipse fill="none" stroke="#ff0000" cx="221" cy="-462" rx="27" ry="18"/>
<text text-anchor="middle" x="221" y="-457.8" font-family="Times,serif" font-size="14.00" fill="#000000">16</text>
</g>
<!-- 6&#45;&gt;16 -->
<g id="edge6" class="edge">
<title>6&#45;&gt;16</title>
<path fill="none" stroke="#000000" d="M161.8722,-534.9243C172.8616,-521.3707 188.8373,-501.6674 201.413,-486.1573"/>
<polygon fill="#000000" stroke="#000000" points="204.4171,-488.0095 207.9965,-478.0376 198.9798,-483.6009 204.4171,-488.0095"/>
<text text-anchor="middle" x="202.5" y="-502.2" font-family="Times,serif" font-size="14.00" fill="#000000">289</text>
</g>
<!-- 15 -->
<g id="node6" class="node">
<title>15</title>
<ellipse fill="none" stroke="#ff0000" cx="77" cy="-373.2" rx="27" ry="18"/>
<text text-anchor="middle" x="77" y="-369" font-family="Times,serif" font-size="14.00" fill="#000000">15</text>
</g>
<!-- 19&#45;&gt;15 -->
<g id="edge7" class="edge">
<title>19&#45;&gt;15</title>
<path fill="none" stroke="#000000" d="M77,-443.6006C77,-431.4949 77,-415.4076 77,-401.6674"/>
<polygon fill="#000000" stroke="#000000" points="80.5001,-401.272 77,-391.272 73.5001,-401.2721 80.5001,-401.272"/>
<text text-anchor="middle" x="87.5" y="-413.4" font-family="Times,serif" font-size="14.00" fill="#000000">288</text>
</g>
<!-- 2 -->
<g id="node7" class="node">
<title>2</title>
<ellipse fill="none" stroke="#ff0000" cx="77" cy="-284.4" rx="27" ry="18"/>
<text text-anchor="middle" x="77" y="-280.2" font-family="Times,serif" font-size="14.00" fill="#000000">2</text>
</g>
<!-- 15&#45;&gt;2 -->
<g id="edge8" class="edge">
<title>15&#45;&gt;2</title>
<path fill="none" stroke="#000000" d="M77,-354.8006C77,-342.6949 77,-326.6076 77,-312.8674"/>
<polygon fill="#000000" stroke="#000000" points="80.5001,-312.472 77,-302.472 73.5001,-312.4721 80.5001,-312.472"/>
<text text-anchor="middle" x="87.5" y="-324.6" font-family="Times,serif" font-size="14.00" fill="#000000">289</text>
</g>
<!-- 4 -->
<g id="node8" class="node">
<title>4</title>
<ellipse fill="none" stroke="#ff0000" cx="27" cy="-195.6" rx="27" ry="18"/>
<text text-anchor="middle" x="27" y="-191.4" font-family="Times,serif" font-size="14.00" fill="#000000">4</text>
</g>
<!-- 2&#45;&gt;4 -->
<g id="edge9" class="edge">
<title>2&#45;&gt;4</title>
<path fill="none" stroke="#000000" d="M67.3595,-267.2785C60.0966,-254.3795 50.0098,-236.4655 41.7373,-221.7734"/>
<polygon fill="#000000" stroke="#000000" points="44.5671,-219.6654 36.6109,-212.669 38.4675,-223.0999 44.5671,-219.6654"/>
<text text-anchor="middle" x="67.5" y="-235.8" font-family="Times,serif" font-size="14.00" fill="#000000">295</text>
</g>
<!-- 5 -->
<g id="node10" class="node">
<title>5</title>
<ellipse fill="none" stroke="#ff0000" cx="99" cy="-195.6" rx="27" ry="18"/>
<text text-anchor="middle" x="99" y="-191.4" font-family="Times,serif" font-size="14.00" fill="#000000">5</text>
</g>
<!-- 2&#45;&gt;5 -->
<g id="edge10" class="edge">
<title>2&#45;&gt;5</title>
<path fill="none" stroke="#000000" d="M81.452,-266.43C84.4936,-254.153 88.5854,-237.6372 92.0526,-223.6421"/>
<polygon fill="#000000" stroke="#000000" points="95.547,-224.0915 94.5546,-213.5433 88.7525,-222.4081 95.547,-224.0915"/>
<text text-anchor="middle" x="100.5" y="-235.8" font-family="Times,serif" font-size="14.00" fill="#000000">291</text>
</g>
<!-- 1 -->
<g id="node9" class="node">
<title>1</title>
<ellipse fill="none" stroke="#ff0000" cx="27" cy="-106.8" rx="27" ry="18"/>
<text text-anchor="middle" x="27" y="-102.6" font-family="Times,serif" font-size="14.00" fill="#000000">1</text>
</g>
<!-- 4&#45;&gt;1 -->
<g id="edge11" class="edge">
<title>4&#45;&gt;1</title>
<path fill="none" stroke="#000000" d="M27,-177.2006C27,-165.0949 27,-149.0076 27,-135.2674"/>
<polygon fill="#000000" stroke="#000000" points="30.5001,-134.872 27,-124.872 23.5001,-134.8721 30.5001,-134.872"/>
<text text-anchor="middle" x="37.5" y="-147" font-family="Times,serif" font-size="14.00" fill="#000000">294</text>
</g>
<!-- 9 -->
<g id="node12" class="node">
<title>9</title>
<ellipse fill="none" stroke="#ff0000" cx="149" cy="-373.2" rx="27" ry="18"/>
<text text-anchor="middle" x="149" y="-369" font-family="Times,serif" font-size="14.00" fill="#000000">9</text>
</g>
<!-- 20&#45;&gt;9 -->
<g id="edge12" class="edge">
<title>20&#45;&gt;9</title>
<path fill="none" stroke="#000000" d="M149,-443.6006C149,-431.4949 149,-415.4076 149,-401.6674"/>
<polygon fill="#000000" stroke="#000000" points="152.5001,-401.272 149,-391.272 145.5001,-401.2721 152.5001,-401.272"/>
<text text-anchor="middle" x="159.5" y="-413.4" font-family="Times,serif" font-size="14.00" fill="#000000">290</text>
</g>
<!-- 12 -->
<g id="node14" class="node">
<title>12</title>
<ellipse fill="none" stroke="#ff0000" cx="221" cy="-373.2" rx="27" ry="18"/>
<text text-anchor="middle" x="221" y="-369" font-family="Times,serif" font-size="14.00" fill="#000000">12</text>
</g>
<!-- 16&#45;&gt;12 -->
<g id="edge13" class="edge">
<title>16&#45;&gt;12</title>
<path fill="none" stroke="#000000" d="M221,-443.6006C221,-431.4949 221,-415.4076 221,-401.6674"/>
<polygon fill="#000000" stroke="#000000" points="224.5001,-401.272 221,-391.272 217.5001,-401.2721 224.5001,-401.272"/>
<text text-anchor="middle" x="231.5" y="-413.4" font-family="Times,serif" font-size="14.00" fill="#000000">292</text>
</g>
<!-- 14 -->
<g id="node15" class="node">
<title>14</title>
<ellipse fill="none" stroke="#ff0000" cx="293" cy="-373.2" rx="27" ry="18"/>
<text text-anchor="middle" x="293" y="-369" font-family="Times,serif" font-size="14.00" fill="#000000">14</text>
</g>
<!-- 16&#45;&gt;14 -->
<g id="edge14" class="edge">
<title>16&#45;&gt;14</title>
<path fill="none" stroke="#000000" d="M233.8722,-446.1243C244.8616,-432.5707 260.8373,-412.8674 273.413,-397.3573"/>
<polygon fill="#000000" stroke="#000000" points="276.4171,-399.2095 279.9965,-389.2376 270.9798,-394.8009 276.4171,-399.2095"/>
<text text-anchor="middle" x="273.5" y="-413.4" font-family="Times,serif" font-size="14.00" fill="#000000">288</text>
</g>
<!-- 18 -->
<g id="node16" class="node">
<title>18</title>
<ellipse fill="none" stroke="#ff0000" cx="293" cy="-284.4" rx="27" ry="18"/>
<text text-anchor="middle" x="293" y="-280.2" font-family="Times,serif" font-size="14.00" fill="#000000">18</text>
</g>
<!-- 14&#45;&gt;18 -->
<g id="edge15" class="edge">
<title>14&#45;&gt;18</title>
<path fill="none" stroke="#000000" d="M293,-354.8006C293,-342.6949 293,-326.6076 293,-312.8674"/>
<polygon fill="#000000" stroke="#000000" points="296.5001,-312.472 293,-302.472 289.5001,-312.4721 296.5001,-312.472"/>
<text text-anchor="middle" x="303.5" y="-324.6" font-family="Times,serif" font-size="14.00" fill="#000000">290</text>
</g>
<!-- 8 -->
<g id="node17" class="node">
<title>8</title>
<ellipse fill="none" stroke="#ff0000" cx="293" cy="-195.6" rx="27" ry="18"/>
<text text-anchor="middle" x="293" y="-191.4" font-family="Times,serif" font-size="14.00" fill="#000000">8</text>
</g>
<!-- 18&#45;&gt;8 -->
<g id="edge16" class="edge">
<title>18&#45;&gt;8</title>
<path fill="none" stroke="#000000" d="M293,-266.0006C293,-253.8949 293,-237.8076 293,-224.0674"/>
<polygon fill="#000000" stroke="#000000" points="296.5001,-223.672 293,-213.672 289.5001,-223.6721 296.5001,-223.672"/>
<text text-anchor="middle" x="303.5" y="-235.8" font-family="Times,serif" font-size="14.00" fill="#000000">289</text>
</g>
<!-- 3 -->
<g id="node18" class="node">
<title>3</title>
<ellipse fill="none" stroke="#ff0000" cx="264" cy="-106.8" rx="27" ry="18"/>
<text text-anchor="middle" x="264" y="-102.6" font-family="Times,serif" font-size="14.00" fill="#000000">3</text>
</g>
<!-- 8&#45;&gt;3 -->
<g id="edge17" class="edge">
<title>8&#45;&gt;3</title>
<path fill="none" stroke="#000000" d="M285.8304,-178.1427C283.5295,-172.2914 281.0486,-165.7031 279,-159.6 276.3135,-151.5964 273.69,-142.8089 271.4076,-134.7385"/>
<polygon fill="#000000" stroke="#000000" points="274.7571,-133.7191 268.7199,-125.0126 268.01,-135.5837 274.7571,-133.7191"/>
<text text-anchor="middle" x="289.5" y="-147" font-family="Times,serif" font-size="14.00" fill="#000000">291</text>
</g>
<!-- 7 -->
<g id="node19" class="node">
<title>7</title>
<ellipse fill="none" stroke="#ff0000" cx="336" cy="-106.8" rx="27" ry="18"/>
<text text-anchor="middle" x="336" y="-102.6" font-family="Times,serif" font-size="14.00" fill="#000000">7</text>
</g>
<!-- 8&#45;&gt;7 -->
<g id="edge18" class="edge">
<title>8&#45;&gt;7</title>
<path fill="none" stroke="#000000" d="M301.4954,-178.056C307.7195,-165.2025 316.2726,-147.5393 323.3059,-133.0148"/>
<polygon fill="#000000" stroke="#000000" points="326.4603,-134.5311 327.6685,-124.0054 320.1601,-131.4803 326.4603,-134.5311"/>
<text text-anchor="middle" x="328.5" y="-147" font-family="Times,serif" font-size="14.00" fill="#000000">292</text>
</g>
<!-- 17 -->
<g id="node20" class="node">
<title>17</title>
<ellipse fill="none" stroke="#ff0000" cx="336" cy="-18" rx="27" ry="18"/>
<text text-anchor="middle" x="336" y="-13.8" font-family="Times,serif" font-size="14.00" fill="#000000">17</text>
</g>
<!-- 7&#45;&gt;17 -->
<g id="edge19" class="edge">
<title>7&#45;&gt;17</title>
<path fill="none" stroke="#000000" d="M336,-88.4006C336,-76.2949 336,-60.2076 336,-46.4674"/>
<polygon fill="#000000" stroke="#000000" points="339.5001,-46.072 336,-36.072 332.5001,-46.0721 339.5001,-46.072"/>
<text text-anchor="middle" x="346.5" y="-58.2" font-family="Times,serif" font-size="14.00" fill="#000000">290</text>
</g>
</g>
</svg>
