<svg width="600px" height="517px"
 viewBox="0.00 0.00 566.00 488.00" xmlns="http://www.w3.org/2000/svg" xmlns:xlink="http://www.w3.org/1999/xlink">
<g id="graph0" class="graph" transform="scale(1.0 1.0) rotate(0) translate(4 484)">
<title>%0</title>
<polygon fill="#ffffff" stroke="transparent" points="-4,4 -4,-484 562,-484 562,4 -4,4"/>
<!-- 1 -->
<g id="node1" class="node">
<title>1</title>
<ellipse fill="none" stroke="#ff0000" cx="161" cy="-462" rx="27" ry="18"/>
<text text-anchor="middle" x="161" y="-457.8" font-family="Times,serif" font-size="14.00" fill="#000000">1</text>
</g>
<!-- 19 -->
<g id="node2" class="node">
<title>19</title>
<ellipse fill="none" stroke="#ff0000" cx="78" cy="-373.2" rx="27" ry="18"/>
<text text-anchor="middle" x="78" y="-369" font-family="Times,serif" font-size="14.00" fill="#000000">19</text>
</g>
<!-- 1&#45;&gt;19 -->
<g id="edge1" class="edge">
<title>1&#45;&gt;19</title>
<path fill="none" stroke="#000000" d="M146.5425,-446.5322C133.4507,-432.5256 113.9993,-411.7149 99.1587,-395.8373"/>
<polygon fill="#000000" stroke="#000000" points="101.6773,-393.4062 92.2918,-388.4905 96.5633,-398.1862 101.6773,-393.4062"/>
<text text-anchor="middle" x="137.5" y="-413.4" font-family="Times,serif" font-size="14.00" fill="#000000">293</text>
</g>
<!-- 13 -->
<g id="node4" class="node">
<title>13</title>
<ellipse fill="none" stroke="#ff0000" cx="161" cy="-373.2" rx="27" ry="18"/>
<text text-anchor="middle" x="161" y="-369" font-family="Times,serif" font-size="14.00" fill="#000000">13</text>
</g>
<!-- 1&#45;&gt;13 -->
<g id="edge2" class="edge">
<title>1&#45;&gt;13</title>
<path fill="none" stroke="#000000" d="M161,-443.6006C161,-431.4949 161,-415.4076 161,-401.6674"/>
<polygon fill="#000000" stroke="#000000" points="164.5001,-401.272 161,-391.272 157.5001,-401.2721 164.5001,-401.272"/>
<text text-anchor="middle" x="171.5" y="-413.4" font-family="Times,serif" font-size="14.00" fill="#000000">288</text>
</g>
<!-- 15 -->
<g id="node19" class="node">
<title>15</title>
<ellipse fill="none" stroke="#ff0000" cx="264" cy="-373.2" rx="27" ry="18"/>
<text text-anchor="middle" x="264" y="-369" font-family="Times,serif" font-size="14.00" fill="#000000">15</text>
</g>
<!-- 1&#45;&gt;15 -->
<g id="edge3" class="edge">
<title>1&#45;&gt;15</title>
<path fill="none" stroke="#000000" d="M177.5487,-447.7327C194.2675,-433.3189 220.2912,-410.883 239.421,-394.3905"/>
<polygon fill="#000000" stroke="#000000" points="241.8617,-396.9074 247.1502,-387.7269 237.2909,-391.6057 241.8617,-396.9074"/>
<text text-anchor="middle" x="231.5" y="-413.4" font-family="Times,serif" font-size="14.00" fill="#000000">291</text>
</g>
<!-- 18 -->
<g id="node3" class="node">
<title>18</title>
<ellipse fill="none" stroke="#ff0000" cx="67" cy="-284.4" rx="27" ry="18"/>
<text text-anchor="middle" x="67" y="-280.2" font-family="Times,serif" font-size="14.00" fill="#000000">18</text>
</g>
<!-- 19&#45;&gt;18 -->
<g id="edge4" class="edge">
<title>19&#45;&gt;18</title>
<path fill="none" stroke="#000000" d="M75.774,-355.23C74.2532,-342.953 72.2073,-326.4372 70.4737,-312.4421"/>
<polygon fill="#000000" stroke="#000000" points="73.9256,-311.8371 69.2227,-302.3433 66.9787,-312.6977 73.9256,-311.8371"/>
<text text-anchor="middle" x="84.5" y="-324.6" font-family="Times,serif" font-size="14.00" fill="#000000">295</text>
</g>
<!-- 20 -->
<g id="node5" class="node">
<title>20</title>
<ellipse fill="none" stroke="#ff0000" cx="139" cy="-284.4" rx="27" ry="18"/>
<text text-anchor="middle" x="139" y="-280.2" font-family="Times,serif" font-size="14.00" fill="#000000">20</text>
</g>
<!-- 13&#45;&gt;20 -->
<g id="edge5" class="edge">
<title>13&#45;&gt;20</title>
<path fill="none" stroke="#000000" d="M156.548,-355.23C153.5064,-342.953 149.4146,-326.4372 145.9474,-312.4421"/>
<polygon fill="#000000" stroke="#000000" points="149.2475,-311.2081 143.4454,-302.3433 142.453,-312.8915 149.2475,-311.2081"/>
<text text-anchor="middle" x="162.5" y="-324.6" font-family="Times,serif" font-size="14.00" fill="#000000">291</text>
</g>
<!-- 14 -->
<g id="node9" class="node">
<title>14</title>
<ellipse fill="none" stroke="#ff0000" cx="211" cy="-284.4" rx="27" ry="18"/>
<text text-anchor="middle" x="211" y="-280.2" font-family="Times,serif" font-size="14.00" fill="#000000">14</text>
</g>
<!-- 13&#45;&gt;14 -->
<g id="edge6" class="edge">
<title>13&#45;&gt;14</title>
<path fill="none" stroke="#000000" d="M170.6405,-356.0785C177.9034,-343.1795 187.9902,-325.2655 196.2627,-310.5734"/>
<polygon fill="#000000" stroke="#000000" points="199.5325,-311.8999 201.3891,-301.469 193.4329,-308.4654 199.5325,-311.8999"/>
<text text-anchor="middle" x="201.5" y="-324.6" font-family="Times,serif" font-size="14.00" fill="#000000">292</text>
</g>
<!-- 9 -->
<g id="node6" class="node">
<title>9</title>
<ellipse fill="none" stroke="#ff0000" cx="74" cy="-195.6" rx="27" ry="18"/>
<text text-anchor="middle" x="74" y="-191.4" font-family="Times,serif" font-size="14.00" fill="#000000">9</text>
</g>
<!-- 20&#45;&gt;9 -->
<g id="edge7" class="edge">
<title>20&#45;&gt;9</title>
<path fill="none" stroke="#000000" d="M127.078,-268.1127C117.274,-254.719 103.226,-235.5272 92.0447,-220.2519"/>
<polygon fill="#000000" stroke="#000000" points="94.5772,-217.786 85.8464,-211.784 88.9288,-221.9206 94.5772,-217.786"/>
<text text-anchor="middle" x="123.5" y="-235.8" font-family="Times,serif" font-size="14.00" fill="#000000">289</text>
</g>
<!-- 6 -->
<g id="node7" class="node">
<title>6</title>
<ellipse fill="none" stroke="#ff0000" cx="27" cy="-106.8" rx="27" ry="18"/>
<text text-anchor="middle" x="27" y="-102.6" font-family="Times,serif" font-size="14.00" fill="#000000">6</text>
</g>
<!-- 9&#45;&gt;6 -->
<g id="edge8" class="edge">
<title>9&#45;&gt;6</title>
<path fill="none" stroke="#000000" d="M64.9379,-178.4785C58.1108,-165.5795 48.6292,-147.6655 40.853,-132.9734"/>
<polygon fill="#000000" stroke="#000000" points="43.8057,-131.07 36.0343,-123.869 37.6188,-134.3447 43.8057,-131.07"/>
<text text-anchor="middle" x="65.5" y="-147" font-family="Times,serif" font-size="14.00" fill="#000000">284</text>
</g>
<!-- 12 -->
<g id="node8" class="node">
<title>12</title>
<ellipse fill="none" stroke="#ff0000" cx="27" cy="-18" rx="27" ry="18"/>
<text text-anchor="middle" x="27" y="-13.8" font-family="Times,serif" font-size="14.00" fill="#000000">12</text>
</g>
<!-- 6&#45;&gt;12 -->
<g id="edge9" class="edge">
<title>6&#45;&gt;12</title>
<path fill="none" stroke="#000000" d="M27,-88.4006C27,-76.2949 27,-60.2076 27,-46.4674"/>
<polygon fill="#000000" stroke="#000000" points="30.5001,-46.072 27,-36.072 23.5001,-46.0721 30.5001,-46.072"/>
<text text-anchor="middle" x="37.5" y="-58.2" font-family="Times,serif" font-size="14.00" fill="#000000">291</text>
</g>
<!-- 17 -->
<g id="node10" class="node">
<title>17</title>
<ellipse fill="none" stroke="#ff0000" cx="211" cy="-195.6" rx="27" ry="18"/>
<text text-anchor="middle" x="211" y="-191.4" font-family="Times,serif" font-size="14.00" fill="#000000">17</text>
</g>
<!-- 14&#45;&gt;17 -->
<g id="edge10" class="edge">
<title>14&#45;&gt;17</title>
<path fill="none" stroke="#000000" d="M211,-266.0006C211,-253.8949 211,-237.8076 211,-224.0674"/>
<polygon fill="#000000" stroke="#000000" points="214.5001,-223.672 211,-213.672 207.5001,-223.6721 214.5001,-223.672"/>
<text text-anchor="middle" x="221.5" y="-235.8" font-family="Times,serif" font-size="14.00" fill="#000000">287</text>
</g>
<!-- 2 -->
<g id="node15" class="node">
<title>2</title>
<ellipse fill="none" stroke="#ff0000" cx="423" cy="-195.6" rx="27" ry="18"/>
<text text-anchor="middle" x="423" y="-191.4" font-family="Times,serif" font-size="14.00" fill="#000000">2</text>
</g>
<!-- 14&#45;&gt;2 -->
<g id="edge11" class="edge">
<title>14&#45;&gt;2</title>
<path fill="none" stroke="#000000" d="M232.5655,-273.2615C237.2878,-270.9225 242.285,-268.5229 247,-266.4 296.1368,-244.2765 354.3577,-221.5117 389.9791,-207.9625"/>
<polygon fill="#000000" stroke="#000000" points="391.289,-211.2091 399.4006,-204.3935 388.8092,-204.6631 391.289,-211.2091"/>
<text text-anchor="middle" x="338.5" y="-235.8" font-family="Times,serif" font-size="14.00" fill="#000000">286</text>
</g>
<!-- 3 -->
<g id="node11" class="node">
<title>3</title>
<ellipse fill="none" stroke="#ff0000" cx="99" cy="-106.8" rx="27" ry="18"/>
<text text-anchor="middle" x="99" y="-102.6" font-family="Times,serif" font-size="14.00" fill="#000000">3</text>
</g>
<!-- 17&#45;&gt;3 -->
<g id="edge12" class="edge">
<title>17&#45;&gt;3</title>
<path fill="none" stroke="#000000" d="M192.6145,-182.1209C183.6129,-175.4431 172.66,-167.2006 163,-159.6 149.8472,-149.2512 135.4503,-137.42 123.6478,-127.5838"/>
<polygon fill="#000000" stroke="#000000" points="125.8546,-124.8668 115.9385,-121.1356 121.3635,-130.2362 125.8546,-124.8668"/>
<text text-anchor="middle" x="173.5" y="-147" font-family="Times,serif" font-size="14.00" fill="#000000">292</text>
</g>
<!-- 4 -->
<g id="node12" class="node">
<title>4</title>
<ellipse fill="none" stroke="#ff0000" cx="171" cy="-106.8" rx="27" ry="18"/>
<text text-anchor="middle" x="171" y="-102.6" font-family="Times,serif" font-size="14.00" fill="#000000">4</text>
</g>
<!-- 17&#45;&gt;4 -->
<g id="edge13" class="edge">
<title>17&#45;&gt;4</title>
<path fill="none" stroke="#000000" d="M203.0973,-178.056C197.3996,-165.4071 189.6037,-148.1002 183.1219,-133.7105"/>
<polygon fill="#000000" stroke="#000000" points="186.1846,-131.9878 178.8863,-124.3076 179.8022,-134.8628 186.1846,-131.9878"/>
<text text-anchor="middle" x="205.5" y="-147" font-family="Times,serif" font-size="14.00" fill="#000000">289</text>
</g>
<!-- 7 -->
<g id="node13" class="node">
<title>7</title>
<ellipse fill="none" stroke="#ff0000" cx="243" cy="-106.8" rx="27" ry="18"/>
<text text-anchor="middle" x="243" y="-102.6" font-family="Times,serif" font-size="14.00" fill="#000000">7</text>
</g>
<!-- 17&#45;&gt;7 -->
<g id="edge14" class="edge">
<title>17&#45;&gt;7</title>
<path fill="none" stroke="#000000" d="M217.3222,-178.056C221.8365,-165.5287 227.9972,-148.4326 233.1526,-134.1264"/>
<polygon fill="#000000" stroke="#000000" points="236.5934,-134.902 236.691,-124.3076 230.008,-132.5288 236.5934,-134.902"/>
<text text-anchor="middle" x="239.5" y="-147" font-family="Times,serif" font-size="14.00" fill="#000000">294</text>
</g>
<!-- 10 -->
<g id="node14" class="node">
<title>10</title>
<ellipse fill="none" stroke="#ff0000" cx="315" cy="-106.8" rx="27" ry="18"/>
<text text-anchor="middle" x="315" y="-102.6" font-family="Times,serif" font-size="14.00" fill="#000000">10</text>
</g>
<!-- 17&#45;&gt;10 -->
<g id="edge15" class="edge">
<title>17&#45;&gt;10</title>
<path fill="none" stroke="#000000" d="M228.2122,-181.2996C236.097,-174.7206 245.5485,-166.7947 254,-159.6 266.1868,-149.2255 279.6473,-137.5931 290.8166,-127.8925"/>
<polygon fill="#000000" stroke="#000000" points="293.2447,-130.4193 298.4937,-121.2161 288.6512,-125.1373 293.2447,-130.4193"/>
<text text-anchor="middle" x="282.5" y="-147" font-family="Times,serif" font-size="14.00" fill="#000000">291</text>
</g>
<!-- 5 -->
<g id="node16" class="node">
<title>5</title>
<ellipse fill="none" stroke="#ff0000" cx="387" cy="-106.8" rx="27" ry="18"/>
<text text-anchor="middle" x="387" y="-102.6" font-family="Times,serif" font-size="14.00" fill="#000000">5</text>
</g>
<!-- 2&#45;&gt;5 -->
<g id="edge16" class="edge">
<title>2&#45;&gt;5</title>
<path fill="none" stroke="#000000" d="M415.8876,-178.056C410.7596,-165.4071 403.7433,-148.1002 397.9097,-133.7105"/>
<polygon fill="#000000" stroke="#000000" points="401.0984,-132.26 394.0977,-124.3076 394.6112,-134.89 401.0984,-132.26"/>
<text text-anchor="middle" x="418.5" y="-147" font-family="Times,serif" font-size="14.00" fill="#000000">287</text>
</g>
<!-- 8 -->
<g id="node17" class="node">
<title>8</title>
<ellipse fill="none" stroke="#ff0000" cx="459" cy="-106.8" rx="27" ry="18"/>
<text text-anchor="middle" x="459" y="-102.6" font-family="Times,serif" font-size="14.00" fill="#000000">8</text>
</g>
<!-- 2&#45;&gt;8 -->
<g id="edge17" class="edge">
<title>2&#45;&gt;8</title>
<path fill="none" stroke="#000000" d="M430.1124,-178.056C435.2404,-165.4071 442.2567,-148.1002 448.0903,-133.7105"/>
<polygon fill="#000000" stroke="#000000" points="451.3888,-134.89 451.9023,-124.3076 444.9016,-132.26 451.3888,-134.89"/>
<text text-anchor="middle" x="454.5" y="-147" font-family="Times,serif" font-size="14.00" fill="#000000">294</text>
</g>
<!-- 11 -->
<g id="node18" class="node">
<title>11</title>
<ellipse fill="none" stroke="#ff0000" cx="531" cy="-106.8" rx="27" ry="18"/>
<text text-anchor="middle" x="531" y="-102.6" font-family="Times,serif" font-size="14.00" fill="#000000">11</text>
</g>
<!-- 2&#45;&gt;11 -->
<g id="edge18" class="edge">
<title>2&#45;&gt;11</title>
<path fill="none" stroke="#000000" d="M441.0495,-181.7516C449.589,-175.1292 459.8881,-167.0401 469,-159.6 481.6016,-149.3104 495.4013,-137.6031 506.7759,-127.8315"/>
<polygon fill="#000000" stroke="#000000" points="509.2887,-130.2864 514.578,-121.1063 504.7184,-124.9843 509.2887,-130.2864"/>
<text text-anchor="middle" x="497.5" y="-147" font-family="Times,serif" font-size="14.00" fill="#000000">291</text>
</g>
<!-- 16 -->
<g id="node20" class="node">
<title>16</title>
<ellipse fill="none" stroke="#ff0000" cx="283" cy="-284.4" rx="27" ry="18"/>
<text text-anchor="middle" x="283" y="-280.2" font-family="Times,serif" font-size="14.00" fill="#000000">16</text>
</g>
<!-- 15&#45;&gt;16 -->
<g id="edge19" class="edge">
<title>15&#45;&gt;16</title>
<path fill="none" stroke="#000000" d="M267.8449,-355.23C270.4718,-342.953 274.0056,-326.4372 277,-312.4421"/>
<polygon fill="#000000" stroke="#000000" points="280.491,-312.8543 279.1608,-302.3433 273.6459,-311.3896 280.491,-312.8543"/>
<text text-anchor="middle" x="285.5" y="-324.6" font-family="Times,serif" font-size="14.00" fill="#000000">292</text>
</g>
</g>
</svg>
