<svg width="600px" height="517px"
 viewBox="0.00 0.00 566.00 488.00" xmlns="http://www.w3.org/2000/svg" xmlns:xlink="http://www.w3.org/1999/xlink">
<g id="graph0" class="graph" transform="scale(1.0 1.0) rotate(0) translate(4 484)">
<title>%0</title>
<polygon fill="#ffffff" stroke="transparent" points="-4,4 -4,-484 562,-484 562,4 -4,4"/>
<!-- 14 -->
<g id="node1" class="node">
<title>14</title>
<ellipse fill="none" stroke="#ff0000" cx="243" cy="-462" rx="27" ry="18"/>
<text text-anchor="middle" x="243" y="-457.8" font-family="Times,serif" font-size="14.00" fill="#000000">14</text>
</g>
<!-- 20 -->
<g id="node2" class="node">
<title>20</title>
<ellipse fill="none" stroke="#ff0000" cx="171" cy="-373.2" rx="27" ry="18"/>
<text text-anchor="middle" x="171" y="-369" font-family="Times,serif" font-size="14.00" fill="#000000">20</text>
</g>
<!-- 14&#45;&gt;20 -->
<g id="edge1" class="edge">
<title>14&#45;&gt;20</title>
<path fill="none" stroke="#000000" d="M230.1278,-446.1243C219.1384,-432.5707 203.1627,-412.8674 190.587,-397.3573"/>
<polygon fill="#000000" stroke="#000000" points="193.0202,-394.8009 184.0035,-389.2376 187.5829,-399.2095 193.0202,-394.8009"/>
<text text-anchor="middle" x="224.5" y="-413.4" font-family="Times,serif" font-size="14.00" fill="#000000">290</text>
</g>
<!-- 16 -->
<g id="node13" class="node">
<title>16</title>
<ellipse fill="none" stroke="#ff0000" cx="315" cy="-373.2" rx="27" ry="18"/>
<text text-anchor="middle" x="315" y="-369" font-family="Times,serif" font-size="14.00" fill="#000000">16</text>
</g>
<!-- 14&#45;&gt;16 -->
<g id="edge2" class="edge">
<title>14&#45;&gt;16</title>
<path fill="none" stroke="#000000" d="M255.8722,-446.1243C266.8616,-432.5707 282.8373,-412.8674 295.413,-397.3573"/>
<polygon fill="#000000" stroke="#000000" points="298.4171,-399.2095 301.9965,-389.2376 292.9798,-394.8009 298.4171,-399.2095"/>
<text text-anchor="middle" x="295.5" y="-413.4" font-family="Times,serif" font-size="14.00" fill="#000000">293</text>
</g>
<!-- 8 -->
<g id="node3" class="node">
<title>8</title>
<ellipse fill="none" stroke="#ff0000" cx="70" cy="-284.4" rx="27" ry="18"/>
<text text-anchor="middle" x="70" y="-280.2" font-family="Times,serif" font-size="14.00" fill="#000000">8</text>
</g>
<!-- 20&#45;&gt;8 -->
<g id="edge3" class="edge">
<title>20&#45;&gt;8</title>
<path fill="none" stroke="#000000" d="M154.3219,-358.5365C137.8494,-344.0537 112.4913,-321.7587 93.8836,-305.3987"/>
<polygon fill="#000000" stroke="#000000" points="96.1889,-302.7651 86.3678,-298.7907 91.5668,-308.0222 96.1889,-302.7651"/>
<text text-anchor="middle" x="140.5" y="-324.6" font-family="Times,serif" font-size="14.00" fill="#000000">288</text>
</g>
<!-- 13 -->
<g id="node6" class="node">
<title>13</title>
<ellipse fill="none" stroke="#ff0000" cx="171" cy="-284.4" rx="27" ry="18"/>
<text text-anchor="middle" x="171" y="-280.2" font-family="Times,serif" font-size="14.00" fill="#000000">13</text>
</g>
<!-- 20&#45;&gt;13 -->
<g id="edge4" class="edge">
<title>20&#45;&gt;13</title>
<path fill="none" stroke="#000000" d="M171,-354.8006C171,-342.6949 171,-326.6076 171,-312.8674"/>
<polygon fill="#000000" stroke="#000000" points="174.5001,-312.472 171,-302.472 167.5001,-312.4721 174.5001,-312.472"/>
<text text-anchor="middle" x="181.5" y="-324.6" font-family="Times,serif" font-size="14.00" fill="#000000">286</text>
</g>
<!-- 12 -->
<g id="node4" class="node">
<title>12</title>
<ellipse fill="none" stroke="#ff0000" cx="27" cy="-195.6" rx="27" ry="18"/>
<text text-anchor="middle" x="27" y="-191.4" font-family="Times,serif" font-size="14.00" fill="#000000">12</text>
</g>
<!-- 8&#45;&gt;12 -->
<g id="edge5" class="edge">
<title>8&#45;&gt;12</title>
<path fill="none" stroke="#000000" d="M61.5046,-266.856C55.2805,-254.0025 46.7274,-236.3393 39.6941,-221.8148"/>
<polygon fill="#000000" stroke="#000000" points="42.8399,-220.2803 35.3315,-212.8054 36.5397,-223.3311 42.8399,-220.2803"/>
<text text-anchor="middle" x="63.5" y="-235.8" font-family="Times,serif" font-size="14.00" fill="#000000">291</text>
</g>
<!-- 11 -->
<g id="node5" class="node">
<title>11</title>
<ellipse fill="none" stroke="#ff0000" cx="27" cy="-106.8" rx="27" ry="18"/>
<text text-anchor="middle" x="27" y="-102.6" font-family="Times,serif" font-size="14.00" fill="#000000">11</text>
</g>
<!-- 12&#45;&gt;11 -->
<g id="edge6" class="edge">
<title>12&#45;&gt;11</title>
<path fill="none" stroke="#000000" d="M27,-177.2006C27,-165.0949 27,-149.0076 27,-135.2674"/>
<polygon fill="#000000" stroke="#000000" points="30.5001,-134.872 27,-124.872 23.5001,-134.8721 30.5001,-134.872"/>
<text text-anchor="middle" x="37.5" y="-147" font-family="Times,serif" font-size="14.00" fill="#000000">292</text>
</g>
<!-- 17 -->
<g id="node7" class="node">
<title>17</title>
<ellipse fill="none" stroke="#ff0000" cx="99" cy="-195.6" rx="27" ry="18"/>
<text text-anchor="middle" x="99" y="-191.4" font-family="Times,serif" font-size="14.00" fill="#000000">17</text>
</g>
<!-- 13&#45;&gt;17 -->
<g id="edge7" class="edge">
<title>13&#45;&gt;17</title>
<path fill="none" stroke="#000000" d="M158.1278,-268.5243C147.1384,-254.9707 131.1627,-235.2674 118.587,-219.7573"/>
<polygon fill="#000000" stroke="#000000" points="121.0202,-217.2009 112.0035,-211.6376 115.5829,-221.6095 121.0202,-217.2009"/>
<text text-anchor="middle" x="152.5" y="-235.8" font-family="Times,serif" font-size="14.00" fill="#000000">291</text>
</g>
<!-- 7 -->
<g id="node8" class="node">
<title>7</title>
<ellipse fill="none" stroke="#ff0000" cx="171" cy="-195.6" rx="27" ry="18"/>
<text text-anchor="middle" x="171" y="-191.4" font-family="Times,serif" font-size="14.00" fill="#000000">7</text>
</g>
<!-- 13&#45;&gt;7 -->
<g id="edge8" class="edge">
<title>13&#45;&gt;7</title>
<path fill="none" stroke="#000000" d="M171,-266.0006C171,-253.8949 171,-237.8076 171,-224.0674"/>
<polygon fill="#000000" stroke="#000000" points="174.5001,-223.672 171,-213.672 167.5001,-223.6721 174.5001,-223.672"/>
<text text-anchor="middle" x="181.5" y="-235.8" font-family="Times,serif" font-size="14.00" fill="#000000">289</text>
</g>
<!-- 9 -->
<g id="node9" class="node">
<title>9</title>
<ellipse fill="none" stroke="#ff0000" cx="243" cy="-195.6" rx="27" ry="18"/>
<text text-anchor="middle" x="243" y="-191.4" font-family="Times,serif" font-size="14.00" fill="#000000">9</text>
</g>
<!-- 13&#45;&gt;9 -->
<g id="edge9" class="edge">
<title>13&#45;&gt;9</title>
<path fill="none" stroke="#000000" d="M183.8722,-268.5243C194.8616,-254.9707 210.8373,-235.2674 223.413,-219.7573"/>
<polygon fill="#000000" stroke="#000000" points="226.4171,-221.6095 229.9965,-211.6376 220.9798,-217.2009 226.4171,-221.6095"/>
<text text-anchor="middle" x="224.5" y="-235.8" font-family="Times,serif" font-size="14.00" fill="#000000">291</text>
</g>
<!-- 18 -->
<g id="node10" class="node">
<title>18</title>
<ellipse fill="none" stroke="#ff0000" cx="243" cy="-106.8" rx="27" ry="18"/>
<text text-anchor="middle" x="243" y="-102.6" font-family="Times,serif" font-size="14.00" fill="#000000">18</text>
</g>
<!-- 9&#45;&gt;18 -->
<g id="edge10" class="edge">
<title>9&#45;&gt;18</title>
<path fill="none" stroke="#000000" d="M243,-177.2006C243,-165.0949 243,-149.0076 243,-135.2674"/>
<polygon fill="#000000" stroke="#000000" points="246.5001,-134.872 243,-124.872 239.5001,-134.8721 246.5001,-134.872"/>
<text text-anchor="middle" x="253.5" y="-147" font-family="Times,serif" font-size="14.00" fill="#000000">291</text>
</g>
<!-- 4 -->
<g id="node11" class="node">
<title>4</title>
<ellipse fill="none" stroke="#ff0000" cx="207" cy="-18" rx="27" ry="18"/>
<text text-anchor="middle" x="207" y="-13.8" font-family="Times,serif" font-size="14.00" fill="#000000">4</text>
</g>
<!-- 18&#45;&gt;4 -->
<g id="edge11" class="edge">
<title>18&#45;&gt;4</title>
<path fill="none" stroke="#000000" d="M235.8876,-89.256C230.7596,-76.6071 223.7433,-59.3002 217.9097,-44.9105"/>
<polygon fill="#000000" stroke="#000000" points="221.0984,-43.46 214.0977,-35.5076 214.6112,-46.09 221.0984,-43.46"/>
<text text-anchor="middle" x="239.5" y="-58.2" font-family="Times,serif" font-size="14.00" fill="#000000">295</text>
</g>
<!-- 10 -->
<g id="node12" class="node">
<title>10</title>
<ellipse fill="none" stroke="#ff0000" cx="279" cy="-18" rx="27" ry="18"/>
<text text-anchor="middle" x="279" y="-13.8" font-family="Times,serif" font-size="14.00" fill="#000000">10</text>
</g>
<!-- 18&#45;&gt;10 -->
<g id="edge12" class="edge">
<title>18&#45;&gt;10</title>
<path fill="none" stroke="#000000" d="M250.1124,-89.256C255.2404,-76.6071 262.2567,-59.3002 268.0903,-44.9105"/>
<polygon fill="#000000" stroke="#000000" points="271.3888,-46.09 271.9023,-35.5076 264.9016,-43.46 271.3888,-46.09"/>
<text text-anchor="middle" x="274.5" y="-58.2" font-family="Times,serif" font-size="14.00" fill="#000000">295</text>
</g>
<!-- 19 -->
<g id="node14" class="node">
<title>19</title>
<ellipse fill="none" stroke="#ff0000" cx="315" cy="-284.4" rx="27" ry="18"/>
<text text-anchor="middle" x="315" y="-280.2" font-family="Times,serif" font-size="14.00" fill="#000000">19</text>
</g>
<!-- 16&#45;&gt;19 -->
<g id="edge13" class="edge">
<title>16&#45;&gt;19</title>
<path fill="none" stroke="#000000" d="M315,-354.8006C315,-342.6949 315,-326.6076 315,-312.8674"/>
<polygon fill="#000000" stroke="#000000" points="318.5001,-312.472 315,-302.472 311.5001,-312.4721 318.5001,-312.472"/>
<text text-anchor="middle" x="325.5" y="-324.6" font-family="Times,serif" font-size="14.00" fill="#000000">288</text>
</g>
<!-- 5 -->
<g id="node17" class="node">
<title>5</title>
<ellipse fill="none" stroke="#ff0000" cx="423" cy="-284.4" rx="27" ry="18"/>
<text text-anchor="middle" x="423" y="-280.2" font-family="Times,serif" font-size="14.00" fill="#000000">5</text>
</g>
<!-- 16&#45;&gt;5 -->
<g id="edge14" class="edge">
<title>16&#45;&gt;5</title>
<path fill="none" stroke="#000000" d="M332.3521,-358.9327C350.0655,-344.3683 377.7404,-321.6135 397.8539,-305.0757"/>
<polygon fill="#000000" stroke="#000000" points="400.1896,-307.6864 405.691,-298.6318 395.7438,-302.2794 400.1896,-307.6864"/>
<text text-anchor="middle" x="388.5" y="-324.6" font-family="Times,serif" font-size="14.00" fill="#000000">294</text>
</g>
<!-- 2 -->
<g id="node15" class="node">
<title>2</title>
<ellipse fill="none" stroke="#ff0000" cx="315" cy="-195.6" rx="27" ry="18"/>
<text text-anchor="middle" x="315" y="-191.4" font-family="Times,serif" font-size="14.00" fill="#000000">2</text>
</g>
<!-- 19&#45;&gt;2 -->
<g id="edge15" class="edge">
<title>19&#45;&gt;2</title>
<path fill="none" stroke="#000000" d="M315,-266.0006C315,-253.8949 315,-237.8076 315,-224.0674"/>
<polygon fill="#000000" stroke="#000000" points="318.5001,-223.672 315,-213.672 311.5001,-223.6721 318.5001,-223.672"/>
<text text-anchor="middle" x="325.5" y="-235.8" font-family="Times,serif" font-size="14.00" fill="#000000">288</text>
</g>
<!-- 15 -->
<g id="node16" class="node">
<title>15</title>
<ellipse fill="none" stroke="#ff0000" cx="315" cy="-106.8" rx="27" ry="18"/>
<text text-anchor="middle" x="315" y="-102.6" font-family="Times,serif" font-size="14.00" fill="#000000">15</text>
</g>
<!-- 2&#45;&gt;15 -->
<g id="edge16" class="edge">
<title>2&#45;&gt;15</title>
<path fill="none" stroke="#000000" d="M315,-177.2006C315,-165.0949 315,-149.0076 315,-135.2674"/>
<polygon fill="#000000" stroke="#000000" points="318.5001,-134.872 315,-124.872 311.5001,-134.8721 318.5001,-134.872"/>
<text text-anchor="middle" x="325.5" y="-147" font-family="Times,serif" font-size="14.00" fill="#000000">293</text>
</g>
<!-- 1 -->
<g id="node18" class="node">
<title>1</title>
<ellipse fill="none" stroke="#ff0000" cx="387" cy="-195.6" rx="27" ry="18"/>
<text text-anchor="middle" x="387" y="-191.4" font-family="Times,serif" font-size="14.00" fill="#000000">1</text>
</g>
<!-- 5&#45;&gt;1 -->
<g id="edge17" class="edge">
<title>5&#45;&gt;1</title>
<path fill="none" stroke="#000000" d="M415.8876,-266.856C410.7596,-254.2071 403.7433,-236.9002 397.9097,-222.5105"/>
<polygon fill="#000000" stroke="#000000" points="401.0984,-221.06 394.0977,-213.1076 394.6112,-223.69 401.0984,-221.06"/>
<text text-anchor="middle" x="418.5" y="-235.8" font-family="Times,serif" font-size="14.00" fill="#000000">292</text>
</g>
<!-- 3 -->
<g id="node19" class="node">
<title>3</title>
<ellipse fill="none" stroke="#ff0000" cx="459" cy="-195.6" rx="27" ry="18"/>
<text text-anchor="middle" x="459" y="-191.4" font-family="Times,serif" font-size="14.00" fill="#000000">3</text>
</g>
<!-- 5&#45;&gt;3 -->
<g id="edge18" class="edge">
<title>5&#45;&gt;3</title>
<path fill="none" stroke="#000000" d="M430.1124,-266.856C435.2404,-254.2071 442.2567,-236.9002 448.0903,-222.5105"/>
<polygon fill="#000000" stroke="#000000" points="451.3888,-223.69 451.9023,-213.1076 444.9016,-221.06 451.3888,-223.69"/>
<text text-anchor="middle" x="454.5" y="-235.8" font-family="Times,serif" font-size="14.00" fill="#000000">296</text>
</g>
<!-- 6 -->
<g id="node20" class="node">
<title>6</title>
<ellipse fill="none" stroke="#ff0000" cx="531" cy="-195.6" rx="27" ry="18"/>
<text text-anchor="middle" x="531" y="-191.4" font-family="Times,serif" font-size="14.00" fill="#000000">6</text>
</g>
<!-- 5&#45;&gt;6 -->
<g id="edge19" class="edge">
<title>5&#45;&gt;6</title>
<path fill="none" stroke="#000000" d="M441.0495,-270.5516C449.589,-263.9292 459.8881,-255.8401 469,-248.4 481.6016,-238.1104 495.4013,-226.4031 506.7759,-216.6315"/>
<polygon fill="#000000" stroke="#000000" points="509.2887,-219.0864 514.578,-209.9063 504.7184,-213.7843 509.2887,-219.0864"/>
<text text-anchor="middle" x="497.5" y="-235.8" font-family="Times,serif" font-size="14.00" fill="#000000">291</text>
</g>
</g>
</svg>
