<svg width="600px" height="1594px"
 viewBox="0.00 0.00 451.00 1198.40" xmlns="http://www.w3.org/2000/svg" xmlns:xlink="http://www.w3.org/1999/xlink">
<g id="graph0" class="graph" transform="scale(1.0 1.0) rotate(0) translate(4 1194.4)">
<title>%0</title>
<polygon fill="#ffffff" stroke="transparent" points="-4,4 -4,-1194.4 447,-1194.4 447,4 -4,4"/>
<!-- 20 -->
<g id="node1" class="node">
<title>20</title>
<ellipse fill="none" stroke="#ff0000" cx="301" cy="-1172.4" rx="27" ry="18"/>
<text text-anchor="middle" x="301" y="-1168.2" font-family="Times,serif" font-size="14.00" fill="#000000">20</text>
</g>
<!-- 17 -->
<g id="node2" class="node">
<title>17</title>
<ellipse fill="none" stroke="#ff0000" cx="272" cy="-1083.6" rx="27" ry="18"/>
<text text-anchor="middle" x="272" y="-1079.4" font-family="Times,serif" font-size="14.00" fill="#000000">17</text>
</g>
<!-- 20&#45;&gt;17 -->
<g id="edge1" class="edge">
<title>20&#45;&gt;17</title>
<path fill="none" stroke="#000000" d="M293.8304,-1154.9427C291.5295,-1149.0914 289.0486,-1142.5031 287,-1136.4 284.3135,-1128.3964 281.69,-1119.6089 279.4076,-1111.5385"/>
<polygon fill="#000000" stroke="#000000" points="282.7571,-1110.5191 276.7199,-1101.8126 276.01,-1112.3837 282.7571,-1110.5191"/>
<text text-anchor="middle" x="297.5" y="-1123.8" font-family="Times,serif" font-size="14.00" fill="#000000">294</text>
</g>
<!-- 18 -->
<g id="node3" class="node">
<title>18</title>
<ellipse fill="none" stroke="#ff0000" cx="344" cy="-1083.6" rx="27" ry="18"/>
<text text-anchor="middle" x="344" y="-1079.4" font-family="Times,serif" font-size="14.00" fill="#000000">18</text>
</g>
<!-- 20&#45;&gt;18 -->
<g id="edge2" class="edge">
<title>20&#45;&gt;18</title>
<path fill="none" stroke="#000000" d="M309.4954,-1154.856C315.7195,-1142.0025 324.2726,-1124.3393 331.3059,-1109.8148"/>
<polygon fill="#000000" stroke="#000000" points="334.4603,-1111.3311 335.6685,-1100.8054 328.1601,-1108.2803 334.4603,-1111.3311"/>
<text text-anchor="middle" x="337.5" y="-1123.8" font-family="Times,serif" font-size="14.00" fill="#000000">290</text>
</g>
<!-- 35 -->
<g id="node4" class="node">
<title>35</title>
<ellipse fill="none" stroke="#000000" cx="344" cy="-994.8" rx="27" ry="18"/>
<text text-anchor="middle" x="344" y="-990.6" font-family="Times,serif" font-size="14.00" fill="#000000">35</text>
</g>
<!-- 18&#45;&gt;35 -->
<g id="edge3" class="edge">
<title>18&#45;&gt;35</title>
<path fill="none" stroke="#000000" d="M344,-1065.2006C344,-1053.0949 344,-1037.0076 344,-1023.2674"/>
<polygon fill="#000000" stroke="#000000" points="347.5001,-1022.872 344,-1012.872 340.5001,-1022.8721 347.5001,-1022.872"/>
<text text-anchor="middle" x="354.5" y="-1035" font-family="Times,serif" font-size="14.00" fill="#000000">202</text>
</g>
<!-- 1 -->
<g id="node5" class="node">
<title>1</title>
<ellipse fill="none" stroke="#ff0000" cx="272" cy="-906" rx="27" ry="18"/>
<text text-anchor="middle" x="272" y="-901.8" font-family="Times,serif" font-size="14.00" fill="#000000">1</text>
</g>
<!-- 35&#45;&gt;1 -->
<g id="edge4" class="edge">
<title>35&#45;&gt;1</title>
<path fill="none" stroke="#000000" d="M331.1278,-978.9243C320.1384,-965.3707 304.1627,-945.6674 291.587,-930.1573"/>
<polygon fill="#000000" stroke="#000000" points="294.0202,-927.6009 285.0035,-922.0376 288.5829,-932.0095 294.0202,-927.6009"/>
<text text-anchor="middle" x="325.5" y="-946.2" font-family="Times,serif" font-size="14.00" fill="#000000">195</text>
</g>
<!-- 3 -->
<g id="node26" class="node">
<title>3</title>
<ellipse fill="none" stroke="#ff0000" cx="344" cy="-906" rx="27" ry="18"/>
<text text-anchor="middle" x="344" y="-901.8" font-family="Times,serif" font-size="14.00" fill="#000000">3</text>
</g>
<!-- 35&#45;&gt;3 -->
<g id="edge5" class="edge">
<title>35&#45;&gt;3</title>
<path fill="none" stroke="#000000" d="M344,-976.4006C344,-964.2949 344,-948.2076 344,-934.4674"/>
<polygon fill="#000000" stroke="#000000" points="347.5001,-934.072 344,-924.072 340.5001,-934.0721 347.5001,-934.072"/>
<text text-anchor="middle" x="354.5" y="-946.2" font-family="Times,serif" font-size="14.00" fill="#000000">194</text>
</g>
<!-- 9 -->
<g id="node27" class="node">
<title>9</title>
<ellipse fill="none" stroke="#ff0000" cx="416" cy="-906" rx="27" ry="18"/>
<text text-anchor="middle" x="416" y="-901.8" font-family="Times,serif" font-size="14.00" fill="#000000">9</text>
</g>
<!-- 35&#45;&gt;9 -->
<g id="edge6" class="edge">
<title>35&#45;&gt;9</title>
<path fill="none" stroke="#000000" d="M356.8722,-978.9243C367.8616,-965.3707 383.8373,-945.6674 396.413,-930.1573"/>
<polygon fill="#000000" stroke="#000000" points="399.4171,-932.0095 402.9965,-922.0376 393.9798,-927.6009 399.4171,-932.0095"/>
<text text-anchor="middle" x="396.5" y="-946.2" font-family="Times,serif" font-size="14.00" fill="#000000">194</text>
</g>
<!-- 54 -->
<g id="node6" class="node">
<title>54</title>
<ellipse fill="none" stroke="#000000" cx="272" cy="-817.2" rx="27" ry="18"/>
<text text-anchor="middle" x="272" y="-813" font-family="Times,serif" font-size="14.00" fill="#000000">54</text>
</g>
<!-- 1&#45;&gt;54 -->
<g id="edge7" class="edge">
<title>1&#45;&gt;54</title>
<path fill="none" stroke="#000000" d="M272,-887.6006C272,-875.4949 272,-859.4076 272,-845.6674"/>
<polygon fill="#000000" stroke="#000000" points="275.5001,-845.272 272,-835.272 268.5001,-845.2721 275.5001,-845.272"/>
<text text-anchor="middle" x="282.5" y="-857.4" font-family="Times,serif" font-size="14.00" fill="#000000">197</text>
</g>
<!-- 5 -->
<g id="node7" class="node">
<title>5</title>
<ellipse fill="none" stroke="#ff0000" cx="236" cy="-728.4" rx="27" ry="18"/>
<text text-anchor="middle" x="236" y="-724.2" font-family="Times,serif" font-size="14.00" fill="#000000">5</text>
</g>
<!-- 54&#45;&gt;5 -->
<g id="edge8" class="edge">
<title>54&#45;&gt;5</title>
<path fill="none" stroke="#000000" d="M264.8876,-799.656C259.7596,-787.0071 252.7433,-769.7002 246.9097,-755.3105"/>
<polygon fill="#000000" stroke="#000000" points="250.0984,-753.86 243.0977,-745.9076 243.6112,-756.49 250.0984,-753.86"/>
<text text-anchor="middle" x="268.5" y="-768.6" font-family="Times,serif" font-size="14.00" fill="#000000">200</text>
</g>
<!-- 16 -->
<g id="node25" class="node">
<title>16</title>
<ellipse fill="none" stroke="#ff0000" cx="308" cy="-728.4" rx="27" ry="18"/>
<text text-anchor="middle" x="308" y="-724.2" font-family="Times,serif" font-size="14.00" fill="#000000">16</text>
</g>
<!-- 54&#45;&gt;16 -->
<g id="edge9" class="edge">
<title>54&#45;&gt;16</title>
<path fill="none" stroke="#000000" d="M279.1124,-799.656C284.2404,-787.0071 291.2567,-769.7002 297.0903,-755.3105"/>
<polygon fill="#000000" stroke="#000000" points="300.3888,-756.49 300.9023,-745.9076 293.9016,-753.86 300.3888,-756.49"/>
<text text-anchor="middle" x="304.5" y="-768.6" font-family="Times,serif" font-size="14.00" fill="#000000">193</text>
</g>
<!-- 79 -->
<g id="node8" class="node">
<title>79</title>
<ellipse fill="none" stroke="#000000" cx="236" cy="-639.6" rx="27" ry="18"/>
<text text-anchor="middle" x="236" y="-635.4" font-family="Times,serif" font-size="14.00" fill="#000000">79</text>
</g>
<!-- 5&#45;&gt;79 -->
<g id="edge10" class="edge">
<title>5&#45;&gt;79</title>
<path fill="none" stroke="#000000" d="M236,-710.0006C236,-697.8949 236,-681.8076 236,-668.0674"/>
<polygon fill="#000000" stroke="#000000" points="239.5001,-667.672 236,-657.672 232.5001,-667.6721 239.5001,-667.672"/>
<text text-anchor="middle" x="246.5" y="-679.8" font-family="Times,serif" font-size="14.00" fill="#000000">200</text>
</g>
<!-- 2 -->
<g id="node9" class="node">
<title>2</title>
<ellipse fill="none" stroke="#ff0000" cx="164" cy="-550.8" rx="27" ry="18"/>
<text text-anchor="middle" x="164" y="-546.6" font-family="Times,serif" font-size="14.00" fill="#000000">2</text>
</g>
<!-- 79&#45;&gt;2 -->
<g id="edge11" class="edge">
<title>79&#45;&gt;2</title>
<path fill="none" stroke="#000000" d="M223.1278,-623.7243C212.1384,-610.1707 196.1627,-590.4674 183.587,-574.9573"/>
<polygon fill="#000000" stroke="#000000" points="186.0202,-572.4009 177.0035,-566.8376 180.5829,-576.8095 186.0202,-572.4009"/>
<text text-anchor="middle" x="217.5" y="-591" font-family="Times,serif" font-size="14.00" fill="#000000">206</text>
</g>
<!-- 10 -->
<g id="node23" class="node">
<title>10</title>
<ellipse fill="none" stroke="#ff0000" cx="236" cy="-550.8" rx="27" ry="18"/>
<text text-anchor="middle" x="236" y="-546.6" font-family="Times,serif" font-size="14.00" fill="#000000">10</text>
</g>
<!-- 79&#45;&gt;10 -->
<g id="edge12" class="edge">
<title>79&#45;&gt;10</title>
<path fill="none" stroke="#000000" d="M236,-621.2006C236,-609.0949 236,-593.0076 236,-579.2674"/>
<polygon fill="#000000" stroke="#000000" points="239.5001,-578.872 236,-568.872 232.5001,-578.8721 239.5001,-578.872"/>
<text text-anchor="middle" x="246.5" y="-591" font-family="Times,serif" font-size="14.00" fill="#000000">189</text>
</g>
<!-- 14 -->
<g id="node24" class="node">
<title>14</title>
<ellipse fill="none" stroke="#ff0000" cx="308" cy="-550.8" rx="27" ry="18"/>
<text text-anchor="middle" x="308" y="-546.6" font-family="Times,serif" font-size="14.00" fill="#000000">14</text>
</g>
<!-- 79&#45;&gt;14 -->
<g id="edge13" class="edge">
<title>79&#45;&gt;14</title>
<path fill="none" stroke="#000000" d="M248.8722,-623.7243C259.8616,-610.1707 275.8373,-590.4674 288.413,-574.9573"/>
<polygon fill="#000000" stroke="#000000" points="291.4171,-576.8095 294.9965,-566.8376 285.9798,-572.4009 291.4171,-576.8095"/>
<text text-anchor="middle" x="289.5" y="-591" font-family="Times,serif" font-size="14.00" fill="#000000">200</text>
</g>
<!-- 52 -->
<g id="node10" class="node">
<title>52</title>
<ellipse fill="none" stroke="#000000" cx="128" cy="-462" rx="27" ry="18"/>
<text text-anchor="middle" x="128" y="-457.8" font-family="Times,serif" font-size="14.00" fill="#000000">52</text>
</g>
<!-- 2&#45;&gt;52 -->
<g id="edge14" class="edge">
<title>2&#45;&gt;52</title>
<path fill="none" stroke="#000000" d="M156.8876,-533.256C151.7596,-520.6071 144.7433,-503.3002 138.9097,-488.9105"/>
<polygon fill="#000000" stroke="#000000" points="142.0984,-487.46 135.0977,-479.5076 135.6112,-490.09 142.0984,-487.46"/>
<text text-anchor="middle" x="160.5" y="-502.2" font-family="Times,serif" font-size="14.00" fill="#000000">200</text>
</g>
<!-- 63 -->
<g id="node15" class="node">
<title>63</title>
<ellipse fill="none" stroke="#000000" cx="214" cy="-462" rx="27" ry="18"/>
<text text-anchor="middle" x="214" y="-457.8" font-family="Times,serif" font-size="14.00" fill="#000000">63</text>
</g>
<!-- 2&#45;&gt;63 -->
<g id="edge15" class="edge">
<title>2&#45;&gt;63</title>
<path fill="none" stroke="#000000" d="M173.6405,-533.6785C180.9034,-520.7795 190.9902,-502.8655 199.2627,-488.1734"/>
<polygon fill="#000000" stroke="#000000" points="202.5325,-489.4999 204.3891,-479.069 196.4329,-486.0654 202.5325,-489.4999"/>
<text text-anchor="middle" x="204.5" y="-502.2" font-family="Times,serif" font-size="14.00" fill="#000000">202</text>
</g>
<!-- 4 -->
<g id="node11" class="node">
<title>4</title>
<ellipse fill="none" stroke="#ff0000" cx="27" cy="-373.2" rx="27" ry="18"/>
<text text-anchor="middle" x="27" y="-369" font-family="Times,serif" font-size="14.00" fill="#000000">4</text>
</g>
<!-- 52&#45;&gt;4 -->
<g id="edge16" class="edge">
<title>52&#45;&gt;4</title>
<path fill="none" stroke="#000000" d="M111.1704,-447.7169C103.4654,-441.1413 94.2359,-433.2134 86,-426 74.3816,-415.824 61.5963,-404.4093 50.9066,-394.8036"/>
<polygon fill="#000000" stroke="#000000" points="52.9685,-391.9505 43.1947,-387.8611 48.2851,-397.153 52.9685,-391.9505"/>
<text text-anchor="middle" x="96.5" y="-413.4" font-family="Times,serif" font-size="14.00" fill="#000000">194</text>
</g>
<!-- 8 -->
<g id="node13" class="node">
<title>8</title>
<ellipse fill="none" stroke="#ff0000" cx="99" cy="-373.2" rx="27" ry="18"/>
<text text-anchor="middle" x="99" y="-369" font-family="Times,serif" font-size="14.00" fill="#000000">8</text>
</g>
<!-- 52&#45;&gt;8 -->
<g id="edge17" class="edge">
<title>52&#45;&gt;8</title>
<path fill="none" stroke="#000000" d="M122.1314,-444.03C118.0561,-431.5511 112.5506,-414.6928 107.9331,-400.5536"/>
<polygon fill="#000000" stroke="#000000" points="111.1924,-399.2596 104.7609,-390.8402 104.5383,-401.4327 111.1924,-399.2596"/>
<text text-anchor="middle" x="127.5" y="-413.4" font-family="Times,serif" font-size="14.00" fill="#000000">199</text>
</g>
<!-- 11 -->
<g id="node14" class="node">
<title>11</title>
<ellipse fill="none" stroke="#ff0000" cx="171" cy="-373.2" rx="27" ry="18"/>
<text text-anchor="middle" x="171" y="-369" font-family="Times,serif" font-size="14.00" fill="#000000">11</text>
</g>
<!-- 52&#45;&gt;11 -->
<g id="edge18" class="edge">
<title>52&#45;&gt;11</title>
<path fill="none" stroke="#000000" d="M136.4954,-444.456C142.7195,-431.6025 151.2726,-413.9393 158.3059,-399.4148"/>
<polygon fill="#000000" stroke="#000000" points="161.4603,-400.9311 162.6685,-390.4054 155.1601,-397.8803 161.4603,-400.9311"/>
<text text-anchor="middle" x="164.5" y="-413.4" font-family="Times,serif" font-size="14.00" fill="#000000">196</text>
</g>
<!-- 12 -->
<g id="node12" class="node">
<title>12</title>
<ellipse fill="none" stroke="#ff0000" cx="27" cy="-284.4" rx="27" ry="18"/>
<text text-anchor="middle" x="27" y="-280.2" font-family="Times,serif" font-size="14.00" fill="#000000">12</text>
</g>
<!-- 4&#45;&gt;12 -->
<g id="edge19" class="edge">
<title>4&#45;&gt;12</title>
<path fill="none" stroke="#000000" d="M27,-354.8006C27,-342.6949 27,-326.6076 27,-312.8674"/>
<polygon fill="#000000" stroke="#000000" points="30.5001,-312.472 27,-302.472 23.5001,-312.4721 30.5001,-312.472"/>
<text text-anchor="middle" x="37.5" y="-324.6" font-family="Times,serif" font-size="14.00" fill="#000000">289</text>
</g>
<!-- 19 -->
<g id="node16" class="node">
<title>19</title>
<ellipse fill="none" stroke="#ff0000" cx="243" cy="-373.2" rx="27" ry="18"/>
<text text-anchor="middle" x="243" y="-369" font-family="Times,serif" font-size="14.00" fill="#000000">19</text>
</g>
<!-- 63&#45;&gt;19 -->
<g id="edge20" class="edge">
<title>63&#45;&gt;19</title>
<path fill="none" stroke="#000000" d="M219.8686,-444.03C223.9439,-431.5511 229.4494,-414.6928 234.0669,-400.5536"/>
<polygon fill="#000000" stroke="#000000" points="237.4617,-401.4327 237.2391,-390.8402 230.8076,-399.2596 237.4617,-401.4327"/>
<text text-anchor="middle" x="242.5" y="-413.4" font-family="Times,serif" font-size="14.00" fill="#000000">189</text>
</g>
<!-- 49 -->
<g id="node17" class="node">
<title>49</title>
<ellipse fill="none" stroke="#000000" cx="243" cy="-284.4" rx="27" ry="18"/>
<text text-anchor="middle" x="243" y="-280.2" font-family="Times,serif" font-size="14.00" fill="#000000">49</text>
</g>
<!-- 19&#45;&gt;49 -->
<g id="edge21" class="edge">
<title>19&#45;&gt;49</title>
<path fill="none" stroke="#000000" d="M243,-354.8006C243,-342.6949 243,-326.6076 243,-312.8674"/>
<polygon fill="#000000" stroke="#000000" points="246.5001,-312.472 243,-302.472 239.5001,-312.4721 246.5001,-312.472"/>
<text text-anchor="middle" x="253.5" y="-324.6" font-family="Times,serif" font-size="14.00" fill="#000000">189</text>
</g>
<!-- 13 -->
<g id="node18" class="node">
<title>13</title>
<ellipse fill="none" stroke="#ff0000" cx="200" cy="-195.6" rx="27" ry="18"/>
<text text-anchor="middle" x="200" y="-191.4" font-family="Times,serif" font-size="14.00" fill="#000000">13</text>
</g>
<!-- 49&#45;&gt;13 -->
<g id="edge22" class="edge">
<title>49&#45;&gt;13</title>
<path fill="none" stroke="#000000" d="M234.5046,-266.856C228.2805,-254.0025 219.7274,-236.3393 212.6941,-221.8148"/>
<polygon fill="#000000" stroke="#000000" points="215.8399,-220.2803 208.3315,-212.8054 209.5397,-223.3311 215.8399,-220.2803"/>
<text text-anchor="middle" x="236.5" y="-235.8" font-family="Times,serif" font-size="14.00" fill="#000000">197</text>
</g>
<!-- 15 -->
<g id="node22" class="node">
<title>15</title>
<ellipse fill="none" stroke="#ff0000" cx="272" cy="-195.6" rx="27" ry="18"/>
<text text-anchor="middle" x="272" y="-191.4" font-family="Times,serif" font-size="14.00" fill="#000000">15</text>
</g>
<!-- 49&#45;&gt;15 -->
<g id="edge23" class="edge">
<title>49&#45;&gt;15</title>
<path fill="none" stroke="#000000" d="M248.8686,-266.43C252.9439,-253.9511 258.4494,-237.0928 263.0669,-222.9536"/>
<polygon fill="#000000" stroke="#000000" points="266.4617,-223.8327 266.2391,-213.2402 259.8076,-221.6596 266.4617,-223.8327"/>
<text text-anchor="middle" x="271.5" y="-235.8" font-family="Times,serif" font-size="14.00" fill="#000000">194</text>
</g>
<!-- 80 -->
<g id="node19" class="node">
<title>80</title>
<ellipse fill="none" stroke="#000000" cx="200" cy="-106.8" rx="27" ry="18"/>
<text text-anchor="middle" x="200" y="-102.6" font-family="Times,serif" font-size="14.00" fill="#000000">80</text>
</g>
<!-- 13&#45;&gt;80 -->
<g id="edge24" class="edge">
<title>13&#45;&gt;80</title>
<path fill="none" stroke="#000000" d="M200,-177.2006C200,-165.0949 200,-149.0076 200,-135.2674"/>
<polygon fill="#000000" stroke="#000000" points="203.5001,-134.872 200,-124.872 196.5001,-134.8721 203.5001,-134.872"/>
<text text-anchor="middle" x="210.5" y="-147" font-family="Times,serif" font-size="14.00" fill="#000000">195</text>
</g>
<!-- 6 -->
<g id="node20" class="node">
<title>6</title>
<ellipse fill="none" stroke="#ff0000" cx="164" cy="-18" rx="27" ry="18"/>
<text text-anchor="middle" x="164" y="-13.8" font-family="Times,serif" font-size="14.00" fill="#000000">6</text>
</g>
<!-- 80&#45;&gt;6 -->
<g id="edge25" class="edge">
<title>80&#45;&gt;6</title>
<path fill="none" stroke="#000000" d="M192.8876,-89.256C187.7596,-76.6071 180.7433,-59.3002 174.9097,-44.9105"/>
<polygon fill="#000000" stroke="#000000" points="178.0984,-43.46 171.0977,-35.5076 171.6112,-46.09 178.0984,-43.46"/>
<text text-anchor="middle" x="196.5" y="-58.2" font-family="Times,serif" font-size="14.00" fill="#000000">191</text>
</g>
<!-- 7 -->
<g id="node21" class="node">
<title>7</title>
<ellipse fill="none" stroke="#ff0000" cx="236" cy="-18" rx="27" ry="18"/>
<text text-anchor="middle" x="236" y="-13.8" font-family="Times,serif" font-size="14.00" fill="#000000">7</text>
</g>
<!-- 80&#45;&gt;7 -->
<g id="edge26" class="edge">
<title>80&#45;&gt;7</title>
<path fill="none" stroke="#000000" d="M207.1124,-89.256C212.2404,-76.6071 219.2567,-59.3002 225.0903,-44.9105"/>
<polygon fill="#000000" stroke="#000000" points="228.3888,-46.09 228.9023,-35.5076 221.9016,-43.46 228.3888,-46.09"/>
<text text-anchor="middle" x="232.5" y="-58.2" font-family="Times,serif" font-size="14.00" fill="#000000">200</text>
</g>
</g>
</svg>
