<svg width="600px" height="1669px"
 viewBox="0.00 0.00 335.00 932.00" xmlns="http://www.w3.org/2000/svg" xmlns:xlink="http://www.w3.org/1999/xlink">
<g id="graph0" class="graph" transform="scale(1.0 1.0) rotate(0) translate(4 928)">
<title>%0</title>
<polygon fill="#ffffff" stroke="transparent" points="-4,4 -4,-928 331,-928 331,4 -4,4"/>
<!-- 14 -->
<g id="node1" class="node">
<title>14</title>
<ellipse fill="none" stroke="#ff0000" cx="99" cy="-906" rx="27" ry="18"/>
<text text-anchor="middle" x="99" y="-901.8" font-family="Times,serif" font-size="14.00" fill="#000000">14</text>
</g>
<!-- 71 -->
<g id="node2" class="node">
<title>71</title>
<ellipse fill="none" stroke="#000000" cx="49" cy="-817.2" rx="27" ry="18"/>
<text text-anchor="middle" x="49" y="-813" font-family="Times,serif" font-size="14.00" fill="#000000">71</text>
</g>
<!-- 14&#45;&gt;71 -->
<g id="edge1" class="edge">
<title>14&#45;&gt;71</title>
<path fill="none" stroke="#000000" d="M89.3595,-888.8785C82.0966,-875.9795 72.0098,-858.0655 63.7373,-843.3734"/>
<polygon fill="#000000" stroke="#000000" points="66.5671,-841.2654 58.6109,-834.269 60.4675,-844.6999 66.5671,-841.2654"/>
<text text-anchor="middle" x="89.5" y="-857.4" font-family="Times,serif" font-size="14.00" fill="#000000">196</text>
</g>
<!-- 11 -->
<g id="node24" class="node">
<title>11</title>
<ellipse fill="none" stroke="#ff0000" cx="121" cy="-817.2" rx="27" ry="18"/>
<text text-anchor="middle" x="121" y="-813" font-family="Times,serif" font-size="14.00" fill="#000000">11</text>
</g>
<!-- 14&#45;&gt;11 -->
<g id="edge2" class="edge">
<title>14&#45;&gt;11</title>
<path fill="none" stroke="#000000" d="M103.452,-888.03C106.4936,-875.753 110.5854,-859.2372 114.0526,-845.2421"/>
<polygon fill="#000000" stroke="#000000" points="117.547,-845.6915 116.5546,-835.1433 110.7525,-844.0081 117.547,-845.6915"/>
<text text-anchor="middle" x="122.5" y="-857.4" font-family="Times,serif" font-size="14.00" fill="#000000">295</text>
</g>
<!-- 9 -->
<g id="node3" class="node">
<title>9</title>
<ellipse fill="none" stroke="#ff0000" cx="27" cy="-728.4" rx="27" ry="18"/>
<text text-anchor="middle" x="27" y="-724.2" font-family="Times,serif" font-size="14.00" fill="#000000">9</text>
</g>
<!-- 71&#45;&gt;9 -->
<g id="edge3" class="edge">
<title>71&#45;&gt;9</title>
<path fill="none" stroke="#000000" d="M44.548,-799.23C41.5064,-786.953 37.4146,-770.4372 33.9474,-756.4421"/>
<polygon fill="#000000" stroke="#000000" points="37.2475,-755.2081 31.4454,-746.3433 30.453,-756.8915 37.2475,-755.2081"/>
<text text-anchor="middle" x="50.5" y="-768.6" font-family="Times,serif" font-size="14.00" fill="#000000">196</text>
</g>
<!-- 15 -->
<g id="node4" class="node">
<title>15</title>
<ellipse fill="none" stroke="#ff0000" cx="99" cy="-728.4" rx="27" ry="18"/>
<text text-anchor="middle" x="99" y="-724.2" font-family="Times,serif" font-size="14.00" fill="#000000">15</text>
</g>
<!-- 71&#45;&gt;15 -->
<g id="edge4" class="edge">
<title>71&#45;&gt;15</title>
<path fill="none" stroke="#000000" d="M58.6405,-800.0785C65.9034,-787.1795 75.9902,-769.2655 84.2627,-754.5734"/>
<polygon fill="#000000" stroke="#000000" points="87.5325,-755.8999 89.3891,-745.469 81.4329,-752.4654 87.5325,-755.8999"/>
<text text-anchor="middle" x="89.5" y="-768.6" font-family="Times,serif" font-size="14.00" fill="#000000">191</text>
</g>
<!-- 42 -->
<g id="node5" class="node">
<title>42</title>
<ellipse fill="none" stroke="#000000" cx="99" cy="-639.6" rx="27" ry="18"/>
<text text-anchor="middle" x="99" y="-635.4" font-family="Times,serif" font-size="14.00" fill="#000000">42</text>
</g>
<!-- 15&#45;&gt;42 -->
<g id="edge5" class="edge">
<title>15&#45;&gt;42</title>
<path fill="none" stroke="#000000" d="M99,-710.0006C99,-697.8949 99,-681.8076 99,-668.0674"/>
<polygon fill="#000000" stroke="#000000" points="102.5001,-667.672 99,-657.672 95.5001,-667.6721 102.5001,-667.672"/>
<text text-anchor="middle" x="109.5" y="-679.8" font-family="Times,serif" font-size="14.00" fill="#000000">212</text>
</g>
<!-- 18 -->
<g id="node6" class="node">
<title>18</title>
<ellipse fill="none" stroke="#ff0000" cx="27" cy="-550.8" rx="27" ry="18"/>
<text text-anchor="middle" x="27" y="-546.6" font-family="Times,serif" font-size="14.00" fill="#000000">18</text>
</g>
<!-- 42&#45;&gt;18 -->
<g id="edge6" class="edge">
<title>42&#45;&gt;18</title>
<path fill="none" stroke="#000000" d="M86.1278,-623.7243C75.1384,-610.1707 59.1627,-590.4674 46.587,-574.9573"/>
<polygon fill="#000000" stroke="#000000" points="49.0202,-572.4009 40.0035,-566.8376 43.5829,-576.8095 49.0202,-572.4009"/>
<text text-anchor="middle" x="80.5" y="-591" font-family="Times,serif" font-size="14.00" fill="#000000">194</text>
</g>
<!-- 19 -->
<g id="node7" class="node">
<title>19</title>
<ellipse fill="none" stroke="#ff0000" cx="99" cy="-550.8" rx="27" ry="18"/>
<text text-anchor="middle" x="99" y="-546.6" font-family="Times,serif" font-size="14.00" fill="#000000">19</text>
</g>
<!-- 42&#45;&gt;19 -->
<g id="edge7" class="edge">
<title>42&#45;&gt;19</title>
<path fill="none" stroke="#000000" d="M99,-621.2006C99,-609.0949 99,-593.0076 99,-579.2674"/>
<polygon fill="#000000" stroke="#000000" points="102.5001,-578.872 99,-568.872 95.5001,-578.8721 102.5001,-578.872"/>
<text text-anchor="middle" x="109.5" y="-591" font-family="Times,serif" font-size="14.00" fill="#000000">191</text>
</g>
<!-- 8 -->
<g id="node8" class="node">
<title>8</title>
<ellipse fill="none" stroke="#ff0000" cx="171" cy="-550.8" rx="27" ry="18"/>
<text text-anchor="middle" x="171" y="-546.6" font-family="Times,serif" font-size="14.00" fill="#000000">8</text>
</g>
<!-- 42&#45;&gt;8 -->
<g id="edge8" class="edge">
<title>42&#45;&gt;8</title>
<path fill="none" stroke="#000000" d="M111.8722,-623.7243C122.8616,-610.1707 138.8373,-590.4674 151.413,-574.9573"/>
<polygon fill="#000000" stroke="#000000" points="154.4171,-576.8095 157.9965,-566.8376 148.9798,-572.4009 154.4171,-576.8095"/>
<text text-anchor="middle" x="152.5" y="-591" font-family="Times,serif" font-size="14.00" fill="#000000">198</text>
</g>
<!-- 74 -->
<g id="node9" class="node">
<title>74</title>
<ellipse fill="none" stroke="#000000" cx="171" cy="-462" rx="27" ry="18"/>
<text text-anchor="middle" x="171" y="-457.8" font-family="Times,serif" font-size="14.00" fill="#000000">74</text>
</g>
<!-- 8&#45;&gt;74 -->
<g id="edge9" class="edge">
<title>8&#45;&gt;74</title>
<path fill="none" stroke="#000000" d="M171,-532.4006C171,-520.2949 171,-504.2076 171,-490.4674"/>
<polygon fill="#000000" stroke="#000000" points="174.5001,-490.072 171,-480.072 167.5001,-490.0721 174.5001,-490.072"/>
<text text-anchor="middle" x="181.5" y="-502.2" font-family="Times,serif" font-size="14.00" fill="#000000">190</text>
</g>
<!-- 1 -->
<g id="node10" class="node">
<title>1</title>
<ellipse fill="none" stroke="#ff0000" cx="99" cy="-373.2" rx="27" ry="18"/>
<text text-anchor="middle" x="99" y="-369" font-family="Times,serif" font-size="14.00" fill="#000000">1</text>
</g>
<!-- 74&#45;&gt;1 -->
<g id="edge10" class="edge">
<title>74&#45;&gt;1</title>
<path fill="none" stroke="#000000" d="M158.1278,-446.1243C147.1384,-432.5707 131.1627,-412.8674 118.587,-397.3573"/>
<polygon fill="#000000" stroke="#000000" points="121.0202,-394.8009 112.0035,-389.2376 115.5829,-399.2095 121.0202,-394.8009"/>
<text text-anchor="middle" x="152.5" y="-413.4" font-family="Times,serif" font-size="14.00" fill="#000000">195</text>
</g>
<!-- 4 -->
<g id="node12" class="node">
<title>4</title>
<ellipse fill="none" stroke="#ff0000" cx="171" cy="-373.2" rx="27" ry="18"/>
<text text-anchor="middle" x="171" y="-369" font-family="Times,serif" font-size="14.00" fill="#000000">4</text>
</g>
<!-- 74&#45;&gt;4 -->
<g id="edge11" class="edge">
<title>74&#45;&gt;4</title>
<path fill="none" stroke="#000000" d="M171,-443.6006C171,-431.4949 171,-415.4076 171,-401.6674"/>
<polygon fill="#000000" stroke="#000000" points="174.5001,-401.272 171,-391.272 167.5001,-401.2721 174.5001,-401.272"/>
<text text-anchor="middle" x="181.5" y="-413.4" font-family="Times,serif" font-size="14.00" fill="#000000">194</text>
</g>
<!-- 10 -->
<g id="node23" class="node">
<title>10</title>
<ellipse fill="none" stroke="#ff0000" cx="243" cy="-373.2" rx="27" ry="18"/>
<text text-anchor="middle" x="243" y="-369" font-family="Times,serif" font-size="14.00" fill="#000000">10</text>
</g>
<!-- 74&#45;&gt;10 -->
<g id="edge12" class="edge">
<title>74&#45;&gt;10</title>
<path fill="none" stroke="#000000" d="M183.8722,-446.1243C194.8616,-432.5707 210.8373,-412.8674 223.413,-397.3573"/>
<polygon fill="#000000" stroke="#000000" points="226.4171,-399.2095 229.9965,-389.2376 220.9798,-394.8009 226.4171,-399.2095"/>
<text text-anchor="middle" x="224.5" y="-413.4" font-family="Times,serif" font-size="14.00" fill="#000000">200</text>
</g>
<!-- 7 -->
<g id="node11" class="node">
<title>7</title>
<ellipse fill="none" stroke="#ff0000" cx="99" cy="-284.4" rx="27" ry="18"/>
<text text-anchor="middle" x="99" y="-280.2" font-family="Times,serif" font-size="14.00" fill="#000000">7</text>
</g>
<!-- 1&#45;&gt;7 -->
<g id="edge13" class="edge">
<title>1&#45;&gt;7</title>
<path fill="none" stroke="#000000" d="M99,-354.8006C99,-342.6949 99,-326.6076 99,-312.8674"/>
<polygon fill="#000000" stroke="#000000" points="102.5001,-312.472 99,-302.472 95.5001,-312.4721 102.5001,-312.472"/>
<text text-anchor="middle" x="109.5" y="-324.6" font-family="Times,serif" font-size="14.00" fill="#000000">298</text>
</g>
<!-- 76 -->
<g id="node13" class="node">
<title>76</title>
<ellipse fill="none" stroke="#000000" cx="171" cy="-284.4" rx="27" ry="18"/>
<text text-anchor="middle" x="171" y="-280.2" font-family="Times,serif" font-size="14.00" fill="#000000">76</text>
</g>
<!-- 4&#45;&gt;76 -->
<g id="edge14" class="edge">
<title>4&#45;&gt;76</title>
<path fill="none" stroke="#000000" d="M171,-354.8006C171,-342.6949 171,-326.6076 171,-312.8674"/>
<polygon fill="#000000" stroke="#000000" points="174.5001,-312.472 171,-302.472 167.5001,-312.4721 174.5001,-312.472"/>
<text text-anchor="middle" x="181.5" y="-324.6" font-family="Times,serif" font-size="14.00" fill="#000000">197</text>
</g>
<!-- 17 -->
<g id="node14" class="node">
<title>17</title>
<ellipse fill="none" stroke="#ff0000" cx="99" cy="-195.6" rx="27" ry="18"/>
<text text-anchor="middle" x="99" y="-191.4" font-family="Times,serif" font-size="14.00" fill="#000000">17</text>
</g>
<!-- 76&#45;&gt;17 -->
<g id="edge15" class="edge">
<title>76&#45;&gt;17</title>
<path fill="none" stroke="#000000" d="M158.1278,-268.5243C147.1384,-254.9707 131.1627,-235.2674 118.587,-219.7573"/>
<polygon fill="#000000" stroke="#000000" points="121.0202,-217.2009 112.0035,-211.6376 115.5829,-221.6095 121.0202,-217.2009"/>
<text text-anchor="middle" x="152.5" y="-235.8" font-family="Times,serif" font-size="14.00" fill="#000000">202</text>
</g>
<!-- 13 -->
<g id="node15" class="node">
<title>13</title>
<ellipse fill="none" stroke="#ff0000" cx="171" cy="-195.6" rx="27" ry="18"/>
<text text-anchor="middle" x="171" y="-191.4" font-family="Times,serif" font-size="14.00" fill="#000000">13</text>
</g>
<!-- 76&#45;&gt;13 -->
<g id="edge16" class="edge">
<title>76&#45;&gt;13</title>
<path fill="none" stroke="#000000" d="M171,-266.0006C171,-253.8949 171,-237.8076 171,-224.0674"/>
<polygon fill="#000000" stroke="#000000" points="174.5001,-223.672 171,-213.672 167.5001,-223.6721 174.5001,-223.672"/>
<text text-anchor="middle" x="181.5" y="-235.8" font-family="Times,serif" font-size="14.00" fill="#000000">196</text>
</g>
<!-- 16 -->
<g id="node20" class="node">
<title>16</title>
<ellipse fill="none" stroke="#ff0000" cx="257" cy="-195.6" rx="27" ry="18"/>
<text text-anchor="middle" x="257" y="-191.4" font-family="Times,serif" font-size="14.00" fill="#000000">16</text>
</g>
<!-- 76&#45;&gt;16 -->
<g id="edge17" class="edge">
<title>76&#45;&gt;16</title>
<path fill="none" stroke="#000000" d="M185.9801,-268.9322C199.5451,-254.9256 219.6995,-234.1149 235.0765,-218.2373"/>
<polygon fill="#000000" stroke="#000000" points="237.7489,-220.5089 242.1916,-210.8905 232.7205,-215.639 237.7489,-220.5089"/>
<text text-anchor="middle" x="232.5" y="-235.8" font-family="Times,serif" font-size="14.00" fill="#000000">192</text>
</g>
<!-- 3 -->
<g id="node16" class="node">
<title>3</title>
<ellipse fill="none" stroke="#ff0000" cx="84" cy="-106.8" rx="27" ry="18"/>
<text text-anchor="middle" x="84" y="-102.6" font-family="Times,serif" font-size="14.00" fill="#000000">3</text>
</g>
<!-- 13&#45;&gt;3 -->
<g id="edge18" class="edge">
<title>13&#45;&gt;3</title>
<path fill="none" stroke="#000000" d="M155.8458,-180.1322C142.123,-166.1256 121.7342,-145.3149 106.1784,-129.4373"/>
<polygon fill="#000000" stroke="#000000" points="108.479,-126.7842 98.9806,-122.0905 103.4788,-131.6831 108.479,-126.7842"/>
<text text-anchor="middle" x="146.5" y="-147" font-family="Times,serif" font-size="14.00" fill="#000000">206</text>
</g>
<!-- 6 -->
<g id="node18" class="node">
<title>6</title>
<ellipse fill="none" stroke="#ff0000" cx="156" cy="-106.8" rx="27" ry="18"/>
<text text-anchor="middle" x="156" y="-102.6" font-family="Times,serif" font-size="14.00" fill="#000000">6</text>
</g>
<!-- 13&#45;&gt;6 -->
<g id="edge19" class="edge">
<title>13&#45;&gt;6</title>
<path fill="none" stroke="#000000" d="M167.9645,-177.63C165.8907,-165.353 163.1009,-148.8372 160.7368,-134.8421"/>
<polygon fill="#000000" stroke="#000000" points="164.1477,-134.0206 159.031,-124.7433 157.2455,-135.1866 164.1477,-134.0206"/>
<text text-anchor="middle" x="175.5" y="-147" font-family="Times,serif" font-size="14.00" fill="#000000">294</text>
</g>
<!-- 12 -->
<g id="node19" class="node">
<title>12</title>
<ellipse fill="none" stroke="#ff0000" cx="228" cy="-106.8" rx="27" ry="18"/>
<text text-anchor="middle" x="228" y="-102.6" font-family="Times,serif" font-size="14.00" fill="#000000">12</text>
</g>
<!-- 13&#45;&gt;12 -->
<g id="edge20" class="edge">
<title>13&#45;&gt;12</title>
<path fill="none" stroke="#000000" d="M181.7213,-178.8974C190.1604,-165.7501 202.0624,-147.208 211.6829,-132.2203"/>
<polygon fill="#000000" stroke="#000000" points="214.8704,-133.7339 217.3268,-123.4277 208.9795,-129.9525 214.8704,-133.7339"/>
<text text-anchor="middle" x="215.5" y="-147" font-family="Times,serif" font-size="14.00" fill="#000000">298</text>
</g>
<!-- 2 -->
<g id="node17" class="node">
<title>2</title>
<ellipse fill="none" stroke="#ff0000" cx="84" cy="-18" rx="27" ry="18"/>
<text text-anchor="middle" x="84" y="-13.8" font-family="Times,serif" font-size="14.00" fill="#000000">2</text>
</g>
<!-- 3&#45;&gt;2 -->
<g id="edge21" class="edge">
<title>3&#45;&gt;2</title>
<path fill="none" stroke="#000000" d="M84,-88.4006C84,-76.2949 84,-60.2076 84,-46.4674"/>
<polygon fill="#000000" stroke="#000000" points="87.5001,-46.072 84,-36.072 80.5001,-46.0721 87.5001,-46.072"/>
<text text-anchor="middle" x="94.5" y="-58.2" font-family="Times,serif" font-size="14.00" fill="#000000">293</text>
</g>
<!-- 5 -->
<g id="node21" class="node">
<title>5</title>
<ellipse fill="none" stroke="#ff0000" cx="300" cy="-106.8" rx="27" ry="18"/>
<text text-anchor="middle" x="300" y="-102.6" font-family="Times,serif" font-size="14.00" fill="#000000">5</text>
</g>
<!-- 16&#45;&gt;5 -->
<g id="edge22" class="edge">
<title>16&#45;&gt;5</title>
<path fill="none" stroke="#000000" d="M265.4954,-178.056C271.7195,-165.2025 280.2726,-147.5393 287.3059,-133.0148"/>
<polygon fill="#000000" stroke="#000000" points="290.4603,-134.5311 291.6685,-124.0054 284.1601,-131.4803 290.4603,-134.5311"/>
<text text-anchor="middle" x="293.5" y="-147" font-family="Times,serif" font-size="14.00" fill="#000000">288</text>
</g>
<!-- 20 -->
<g id="node22" class="node">
<title>20</title>
<ellipse fill="none" stroke="#ff0000" cx="300" cy="-18" rx="27" ry="18"/>
<text text-anchor="middle" x="300" y="-13.8" font-family="Times,serif" font-size="14.00" fill="#000000">20</text>
</g>
<!-- 5&#45;&gt;20 -->
<g id="edge23" class="edge">
<title>5&#45;&gt;20</title>
<path fill="none" stroke="#000000" d="M300,-88.4006C300,-76.2949 300,-60.2076 300,-46.4674"/>
<polygon fill="#000000" stroke="#000000" points="303.5001,-46.072 300,-36.072 296.5001,-46.0721 303.5001,-46.072"/>
<text text-anchor="middle" x="310.5" y="-58.2" font-family="Times,serif" font-size="14.00" fill="#000000">294</text>
</g>
</g>
</svg>
