<svg width="600px" height="1055px"
 viewBox="0.00 0.00 530.00 932.00" xmlns="http://www.w3.org/2000/svg" xmlns:xlink="http://www.w3.org/1999/xlink">
<g id="graph0" class="graph" transform="scale(1.0 1.0) rotate(0) translate(4 928)">
<title>%0</title>
<polygon fill="#ffffff" stroke="transparent" points="-4,4 -4,-928 526,-928 526,4 -4,4"/>
<!-- 5 -->
<g id="node1" class="node">
<title>5</title>
<ellipse fill="none" stroke="#ff0000" cx="293" cy="-906" rx="27" ry="18"/>
<text text-anchor="middle" x="293" y="-901.8" font-family="Times,serif" font-size="14.00" fill="#000000">5</text>
</g>
<!-- 74 -->
<g id="node2" class="node">
<title>74</title>
<ellipse fill="none" stroke="#000000" cx="293" cy="-817.2" rx="27" ry="18"/>
<text text-anchor="middle" x="293" y="-813" font-family="Times,serif" font-size="14.00" fill="#000000">74</text>
</g>
<!-- 5&#45;&gt;74 -->
<g id="edge1" class="edge">
<title>5&#45;&gt;74</title>
<path fill="none" stroke="#000000" d="M293,-887.6006C293,-875.4949 293,-859.4076 293,-845.6674"/>
<polygon fill="#000000" stroke="#000000" points="296.5001,-845.272 293,-835.272 289.5001,-845.2721 296.5001,-845.272"/>
<text text-anchor="middle" x="303.5" y="-857.4" font-family="Times,serif" font-size="14.00" fill="#000000">191</text>
</g>
<!-- 4 -->
<g id="node3" class="node">
<title>4</title>
<ellipse fill="none" stroke="#ff0000" cx="243" cy="-728.4" rx="27" ry="18"/>
<text text-anchor="middle" x="243" y="-724.2" font-family="Times,serif" font-size="14.00" fill="#000000">4</text>
</g>
<!-- 74&#45;&gt;4 -->
<g id="edge2" class="edge">
<title>74&#45;&gt;4</title>
<path fill="none" stroke="#000000" d="M283.3595,-800.0785C276.0966,-787.1795 266.0098,-769.2655 257.7373,-754.5734"/>
<polygon fill="#000000" stroke="#000000" points="260.5671,-752.4654 252.6109,-745.469 254.4675,-755.8999 260.5671,-752.4654"/>
<text text-anchor="middle" x="283.5" y="-768.6" font-family="Times,serif" font-size="14.00" fill="#000000">195</text>
</g>
<!-- 8 -->
<g id="node24" class="node">
<title>8</title>
<ellipse fill="none" stroke="#ff0000" cx="315" cy="-728.4" rx="27" ry="18"/>
<text text-anchor="middle" x="315" y="-724.2" font-family="Times,serif" font-size="14.00" fill="#000000">8</text>
</g>
<!-- 74&#45;&gt;8 -->
<g id="edge3" class="edge">
<title>74&#45;&gt;8</title>
<path fill="none" stroke="#000000" d="M297.452,-799.23C300.4936,-786.953 304.5854,-770.4372 308.0526,-756.4421"/>
<polygon fill="#000000" stroke="#000000" points="311.547,-756.8915 310.5546,-746.3433 304.7525,-755.2081 311.547,-756.8915"/>
<text text-anchor="middle" x="316.5" y="-768.6" font-family="Times,serif" font-size="14.00" fill="#000000">189</text>
</g>
<!-- 60 -->
<g id="node4" class="node">
<title>60</title>
<ellipse fill="none" stroke="#000000" cx="243" cy="-639.6" rx="27" ry="18"/>
<text text-anchor="middle" x="243" y="-635.4" font-family="Times,serif" font-size="14.00" fill="#000000">60</text>
</g>
<!-- 4&#45;&gt;60 -->
<g id="edge4" class="edge">
<title>4&#45;&gt;60</title>
<path fill="none" stroke="#000000" d="M243,-710.0006C243,-697.8949 243,-681.8076 243,-668.0674"/>
<polygon fill="#000000" stroke="#000000" points="246.5001,-667.672 243,-657.672 239.5001,-667.6721 246.5001,-667.672"/>
<text text-anchor="middle" x="253.5" y="-679.8" font-family="Times,serif" font-size="14.00" fill="#000000">202</text>
</g>
<!-- 2 -->
<g id="node5" class="node">
<title>2</title>
<ellipse fill="none" stroke="#ff0000" cx="171" cy="-550.8" rx="27" ry="18"/>
<text text-anchor="middle" x="171" y="-546.6" font-family="Times,serif" font-size="14.00" fill="#000000">2</text>
</g>
<!-- 60&#45;&gt;2 -->
<g id="edge5" class="edge">
<title>60&#45;&gt;2</title>
<path fill="none" stroke="#000000" d="M230.1278,-623.7243C219.1384,-610.1707 203.1627,-590.4674 190.587,-574.9573"/>
<polygon fill="#000000" stroke="#000000" points="193.0202,-572.4009 184.0035,-566.8376 187.5829,-576.8095 193.0202,-572.4009"/>
<text text-anchor="middle" x="224.5" y="-591" font-family="Times,serif" font-size="14.00" fill="#000000">192</text>
</g>
<!-- 7 -->
<g id="node6" class="node">
<title>7</title>
<ellipse fill="none" stroke="#ff0000" cx="243" cy="-550.8" rx="27" ry="18"/>
<text text-anchor="middle" x="243" y="-546.6" font-family="Times,serif" font-size="14.00" fill="#000000">7</text>
</g>
<!-- 60&#45;&gt;7 -->
<g id="edge6" class="edge">
<title>60&#45;&gt;7</title>
<path fill="none" stroke="#000000" d="M243,-621.2006C243,-609.0949 243,-593.0076 243,-579.2674"/>
<polygon fill="#000000" stroke="#000000" points="246.5001,-578.872 243,-568.872 239.5001,-578.8721 246.5001,-578.872"/>
<text text-anchor="middle" x="253.5" y="-591" font-family="Times,serif" font-size="14.00" fill="#000000">199</text>
</g>
<!-- 12 -->
<g id="node7" class="node">
<title>12</title>
<ellipse fill="none" stroke="#ff0000" cx="315" cy="-550.8" rx="27" ry="18"/>
<text text-anchor="middle" x="315" y="-546.6" font-family="Times,serif" font-size="14.00" fill="#000000">12</text>
</g>
<!-- 60&#45;&gt;12 -->
<g id="edge7" class="edge">
<title>60&#45;&gt;12</title>
<path fill="none" stroke="#000000" d="M255.8722,-623.7243C266.8616,-610.1707 282.8373,-590.4674 295.413,-574.9573"/>
<polygon fill="#000000" stroke="#000000" points="298.4171,-576.8095 301.9965,-566.8376 292.9798,-572.4009 298.4171,-576.8095"/>
<text text-anchor="middle" x="296.5" y="-591" font-family="Times,serif" font-size="14.00" fill="#000000">189</text>
</g>
<!-- 77 -->
<g id="node8" class="node">
<title>77</title>
<ellipse fill="none" stroke="#000000" cx="315" cy="-462" rx="27" ry="18"/>
<text text-anchor="middle" x="315" y="-457.8" font-family="Times,serif" font-size="14.00" fill="#000000">77</text>
</g>
<!-- 12&#45;&gt;77 -->
<g id="edge8" class="edge">
<title>12&#45;&gt;77</title>
<path fill="none" stroke="#000000" d="M315,-532.4006C315,-520.2949 315,-504.2076 315,-490.4674"/>
<polygon fill="#000000" stroke="#000000" points="318.5001,-490.072 315,-480.072 311.5001,-490.0721 318.5001,-490.072"/>
<text text-anchor="middle" x="325.5" y="-502.2" font-family="Times,serif" font-size="14.00" fill="#000000">201</text>
</g>
<!-- 17 -->
<g id="node9" class="node">
<title>17</title>
<ellipse fill="none" stroke="#ff0000" cx="135" cy="-373.2" rx="27" ry="18"/>
<text text-anchor="middle" x="135" y="-369" font-family="Times,serif" font-size="14.00" fill="#000000">17</text>
</g>
<!-- 77&#45;&gt;17 -->
<g id="edge9" class="edge">
<title>77&#45;&gt;17</title>
<path fill="none" stroke="#000000" d="M291.1798,-453.4149C273.0241,-446.621 247.5588,-436.549 226,-426 204.4843,-415.4721 181.1321,-401.8747 163.4711,-391.1154"/>
<polygon fill="#000000" stroke="#000000" points="165.1458,-388.0363 154.7942,-385.7789 161.4786,-393.9989 165.1458,-388.0363"/>
<text text-anchor="middle" x="236.5" y="-413.4" font-family="Times,serif" font-size="14.00" fill="#000000">193</text>
</g>
<!-- 1 -->
<g id="node10" class="node">
<title>1</title>
<ellipse fill="none" stroke="#ff0000" cx="207" cy="-373.2" rx="27" ry="18"/>
<text text-anchor="middle" x="207" y="-369" font-family="Times,serif" font-size="14.00" fill="#000000">1</text>
</g>
<!-- 77&#45;&gt;1 -->
<g id="edge10" class="edge">
<title>77&#45;&gt;1</title>
<path fill="none" stroke="#000000" d="M296.9505,-448.1516C288.411,-441.5292 278.1119,-433.4401 269,-426 256.3984,-415.7104 242.5987,-404.0031 231.2241,-394.2315"/>
<polygon fill="#000000" stroke="#000000" points="233.2816,-391.3843 223.422,-387.5063 228.7113,-396.6864 233.2816,-391.3843"/>
<text text-anchor="middle" x="279.5" y="-413.4" font-family="Times,serif" font-size="14.00" fill="#000000">199</text>
</g>
<!-- 18 -->
<g id="node20" class="node">
<title>18</title>
<ellipse fill="none" stroke="#ff0000" cx="279" cy="-373.2" rx="27" ry="18"/>
<text text-anchor="middle" x="279" y="-369" font-family="Times,serif" font-size="14.00" fill="#000000">18</text>
</g>
<!-- 77&#45;&gt;18 -->
<g id="edge11" class="edge">
<title>77&#45;&gt;18</title>
<path fill="none" stroke="#000000" d="M307.8876,-444.456C302.7596,-431.8071 295.7433,-414.5002 289.9097,-400.1105"/>
<polygon fill="#000000" stroke="#000000" points="293.0984,-398.66 286.0977,-390.7076 286.6112,-401.29 293.0984,-398.66"/>
<text text-anchor="middle" x="311.5" y="-413.4" font-family="Times,serif" font-size="14.00" fill="#000000">196</text>
</g>
<!-- 19 -->
<g id="node21" class="node">
<title>19</title>
<ellipse fill="none" stroke="#ff0000" cx="351" cy="-373.2" rx="27" ry="18"/>
<text text-anchor="middle" x="351" y="-369" font-family="Times,serif" font-size="14.00" fill="#000000">19</text>
</g>
<!-- 77&#45;&gt;19 -->
<g id="edge12" class="edge">
<title>77&#45;&gt;19</title>
<path fill="none" stroke="#000000" d="M322.1124,-444.456C327.2404,-431.8071 334.2567,-414.5002 340.0903,-400.1105"/>
<polygon fill="#000000" stroke="#000000" points="343.3888,-401.29 343.9023,-390.7076 336.9016,-398.66 343.3888,-401.29"/>
<text text-anchor="middle" x="347.5" y="-413.4" font-family="Times,serif" font-size="14.00" fill="#000000">187</text>
</g>
<!-- 6 -->
<g id="node22" class="node">
<title>6</title>
<ellipse fill="none" stroke="#ff0000" cx="423" cy="-373.2" rx="27" ry="18"/>
<text text-anchor="middle" x="423" y="-369" font-family="Times,serif" font-size="14.00" fill="#000000">6</text>
</g>
<!-- 77&#45;&gt;6 -->
<g id="edge13" class="edge">
<title>77&#45;&gt;6</title>
<path fill="none" stroke="#000000" d="M333.0506,-448.5724C341.876,-441.9068 352.5964,-433.6597 362,-426 374.4089,-415.8923 387.8933,-404.2885 399.0209,-394.5379"/>
<polygon fill="#000000" stroke="#000000" points="401.4657,-397.0487 406.6579,-387.8133 396.8397,-391.795 401.4657,-397.0487"/>
<text text-anchor="middle" x="391.5" y="-413.4" font-family="Times,serif" font-size="14.00" fill="#000000">198</text>
</g>
<!-- 16 -->
<g id="node23" class="node">
<title>16</title>
<ellipse fill="none" stroke="#ff0000" cx="495" cy="-373.2" rx="27" ry="18"/>
<text text-anchor="middle" x="495" y="-369" font-family="Times,serif" font-size="14.00" fill="#000000">16</text>
</g>
<!-- 77&#45;&gt;16 -->
<g id="edge14" class="edge">
<title>77&#45;&gt;16</title>
<path fill="none" stroke="#000000" d="M339.0144,-453.6845C357.6258,-446.9586 383.8826,-436.8502 406,-426 427.1524,-415.6232 449.9886,-402.0221 467.2328,-391.2232"/>
<polygon fill="#000000" stroke="#000000" points="469.1237,-394.1685 475.7021,-385.8634 465.3804,-388.2535 469.1237,-394.1685"/>
<text text-anchor="middle" x="446.5" y="-413.4" font-family="Times,serif" font-size="14.00" fill="#000000">193</text>
</g>
<!-- 3 -->
<g id="node11" class="node">
<title>3</title>
<ellipse fill="none" stroke="#ff0000" cx="135" cy="-284.4" rx="27" ry="18"/>
<text text-anchor="middle" x="135" y="-280.2" font-family="Times,serif" font-size="14.00" fill="#000000">3</text>
</g>
<!-- 1&#45;&gt;3 -->
<g id="edge15" class="edge">
<title>1&#45;&gt;3</title>
<path fill="none" stroke="#000000" d="M194.1278,-357.3243C183.1384,-343.7707 167.1627,-324.0674 154.587,-308.5573"/>
<polygon fill="#000000" stroke="#000000" points="157.0202,-306.0009 148.0035,-300.4376 151.5829,-310.4095 157.0202,-306.0009"/>
<text text-anchor="middle" x="188.5" y="-324.6" font-family="Times,serif" font-size="14.00" fill="#000000">281</text>
</g>
<!-- 10 -->
<g id="node18" class="node">
<title>10</title>
<ellipse fill="none" stroke="#ff0000" cx="207" cy="-284.4" rx="27" ry="18"/>
<text text-anchor="middle" x="207" y="-280.2" font-family="Times,serif" font-size="14.00" fill="#000000">10</text>
</g>
<!-- 1&#45;&gt;10 -->
<g id="edge16" class="edge">
<title>1&#45;&gt;10</title>
<path fill="none" stroke="#000000" d="M207,-354.8006C207,-342.6949 207,-326.6076 207,-312.8674"/>
<polygon fill="#000000" stroke="#000000" points="210.5001,-312.472 207,-302.472 203.5001,-312.4721 210.5001,-312.472"/>
<text text-anchor="middle" x="217.5" y="-324.6" font-family="Times,serif" font-size="14.00" fill="#000000">291</text>
</g>
<!-- 14 -->
<g id="node19" class="node">
<title>14</title>
<ellipse fill="none" stroke="#ff0000" cx="279" cy="-284.4" rx="27" ry="18"/>
<text text-anchor="middle" x="279" y="-280.2" font-family="Times,serif" font-size="14.00" fill="#000000">14</text>
</g>
<!-- 1&#45;&gt;14 -->
<g id="edge17" class="edge">
<title>1&#45;&gt;14</title>
<path fill="none" stroke="#000000" d="M219.8722,-357.3243C230.8616,-343.7707 246.8373,-324.0674 259.413,-308.5573"/>
<polygon fill="#000000" stroke="#000000" points="262.4171,-310.4095 265.9965,-300.4376 256.9798,-306.0009 262.4171,-310.4095"/>
<text text-anchor="middle" x="260.5" y="-324.6" font-family="Times,serif" font-size="14.00" fill="#000000">292</text>
</g>
<!-- 41 -->
<g id="node12" class="node">
<title>41</title>
<ellipse fill="none" stroke="#000000" cx="135" cy="-195.6" rx="27" ry="18"/>
<text text-anchor="middle" x="135" y="-191.4" font-family="Times,serif" font-size="14.00" fill="#000000">41</text>
</g>
<!-- 3&#45;&gt;41 -->
<g id="edge18" class="edge">
<title>3&#45;&gt;41</title>
<path fill="none" stroke="#000000" d="M135,-266.0006C135,-253.8949 135,-237.8076 135,-224.0674"/>
<polygon fill="#000000" stroke="#000000" points="138.5001,-223.672 135,-213.672 131.5001,-223.6721 138.5001,-223.672"/>
<text text-anchor="middle" x="145.5" y="-235.8" font-family="Times,serif" font-size="14.00" fill="#000000">198</text>
</g>
<!-- 9 -->
<g id="node13" class="node">
<title>9</title>
<ellipse fill="none" stroke="#ff0000" cx="63" cy="-106.8" rx="27" ry="18"/>
<text text-anchor="middle" x="63" y="-102.6" font-family="Times,serif" font-size="14.00" fill="#000000">9</text>
</g>
<!-- 41&#45;&gt;9 -->
<g id="edge19" class="edge">
<title>41&#45;&gt;9</title>
<path fill="none" stroke="#000000" d="M122.1278,-179.7243C111.1384,-166.1707 95.1627,-146.4674 82.587,-130.9573"/>
<polygon fill="#000000" stroke="#000000" points="85.0202,-128.4009 76.0035,-122.8376 79.5829,-132.8095 85.0202,-128.4009"/>
<text text-anchor="middle" x="116.5" y="-147" font-family="Times,serif" font-size="14.00" fill="#000000">192</text>
</g>
<!-- 11 -->
<g id="node16" class="node">
<title>11</title>
<ellipse fill="none" stroke="#ff0000" cx="135" cy="-106.8" rx="27" ry="18"/>
<text text-anchor="middle" x="135" y="-102.6" font-family="Times,serif" font-size="14.00" fill="#000000">11</text>
</g>
<!-- 41&#45;&gt;11 -->
<g id="edge20" class="edge">
<title>41&#45;&gt;11</title>
<path fill="none" stroke="#000000" d="M135,-177.2006C135,-165.0949 135,-149.0076 135,-135.2674"/>
<polygon fill="#000000" stroke="#000000" points="138.5001,-134.872 135,-124.872 131.5001,-134.8721 138.5001,-134.872"/>
<text text-anchor="middle" x="145.5" y="-147" font-family="Times,serif" font-size="14.00" fill="#000000">197</text>
</g>
<!-- 15 -->
<g id="node17" class="node">
<title>15</title>
<ellipse fill="none" stroke="#ff0000" cx="207" cy="-106.8" rx="27" ry="18"/>
<text text-anchor="middle" x="207" y="-102.6" font-family="Times,serif" font-size="14.00" fill="#000000">15</text>
</g>
<!-- 41&#45;&gt;15 -->
<g id="edge21" class="edge">
<title>41&#45;&gt;15</title>
<path fill="none" stroke="#000000" d="M147.8722,-179.7243C158.8616,-166.1707 174.8373,-146.4674 187.413,-130.9573"/>
<polygon fill="#000000" stroke="#000000" points="190.4171,-132.8095 193.9965,-122.8376 184.9798,-128.4009 190.4171,-132.8095"/>
<text text-anchor="middle" x="188.5" y="-147" font-family="Times,serif" font-size="14.00" fill="#000000">196</text>
</g>
<!-- 20 -->
<g id="node14" class="node">
<title>20</title>
<ellipse fill="none" stroke="#ff0000" cx="27" cy="-18" rx="27" ry="18"/>
<text text-anchor="middle" x="27" y="-13.8" font-family="Times,serif" font-size="14.00" fill="#000000">20</text>
</g>
<!-- 9&#45;&gt;20 -->
<g id="edge22" class="edge">
<title>9&#45;&gt;20</title>
<path fill="none" stroke="#000000" d="M55.8876,-89.256C50.7596,-76.6071 43.7433,-59.3002 37.9097,-44.9105"/>
<polygon fill="#000000" stroke="#000000" points="41.0984,-43.46 34.0977,-35.5076 34.6112,-46.09 41.0984,-43.46"/>
<text text-anchor="middle" x="59.5" y="-58.2" font-family="Times,serif" font-size="14.00" fill="#000000">291</text>
</g>
<!-- 13 -->
<g id="node15" class="node">
<title>13</title>
<ellipse fill="none" stroke="#ff0000" cx="99" cy="-18" rx="27" ry="18"/>
<text text-anchor="middle" x="99" y="-13.8" font-family="Times,serif" font-size="14.00" fill="#000000">13</text>
</g>
<!-- 9&#45;&gt;13 -->
<g id="edge23" class="edge">
<title>9&#45;&gt;13</title>
<path fill="none" stroke="#000000" d="M70.1124,-89.256C75.2404,-76.6071 82.2567,-59.3002 88.0903,-44.9105"/>
<polygon fill="#000000" stroke="#000000" points="91.3888,-46.09 91.9023,-35.5076 84.9016,-43.46 91.3888,-46.09"/>
<text text-anchor="middle" x="95.5" y="-58.2" font-family="Times,serif" font-size="14.00" fill="#000000">297</text>
</g>
</g>
</svg>
