<svg width="600px" height="664px"
 viewBox="0.00 0.00 602.00 665.60" xmlns="http://www.w3.org/2000/svg" xmlns:xlink="http://www.w3.org/1999/xlink">
<g id="graph0" class="graph" transform="scale(1.0 1.0) rotate(0) translate(4 661.6)">
<title>%0</title>
<polygon fill="#ffffff" stroke="transparent" points="-4,4 -4,-661.6 598,-661.6 598,4 -4,4"/>
<!-- 12 -->
<g id="node1" class="node">
<title>12</title>
<ellipse fill="none" stroke="#ff0000" cx="293" cy="-639.6" rx="27" ry="18"/>
<text text-anchor="middle" x="293" y="-635.4" font-family="Times,serif" font-size="14.00" fill="#000000">12</text>
</g>
<!-- 45 -->
<g id="node2" class="node">
<title>45</title>
<ellipse fill="none" stroke="#000000" cx="257" cy="-550.8" rx="27" ry="18"/>
<text text-anchor="middle" x="257" y="-546.6" font-family="Times,serif" font-size="14.00" fill="#000000">45</text>
</g>
<!-- 12&#45;&gt;45 -->
<g id="edge1" class="edge">
<title>12&#45;&gt;45</title>
<path fill="none" stroke="#000000" d="M285.8876,-622.056C280.7596,-609.4071 273.7433,-592.1002 267.9097,-577.7105"/>
<polygon fill="#000000" stroke="#000000" points="271.0984,-576.26 264.0977,-568.3076 264.6112,-578.89 271.0984,-576.26"/>
<text text-anchor="middle" x="289.5" y="-591" font-family="Times,serif" font-size="14.00" fill="#000000">195</text>
</g>
<!-- 80 -->
<g id="node15" class="node">
<title>80</title>
<ellipse fill="none" stroke="#000000" cx="387" cy="-550.8" rx="27" ry="18"/>
<text text-anchor="middle" x="387" y="-546.6" font-family="Times,serif" font-size="14.00" fill="#000000">80</text>
</g>
<!-- 12&#45;&gt;80 -->
<g id="edge2" class="edge">
<title>12&#45;&gt;80</title>
<path fill="none" stroke="#000000" d="M308.9458,-624.5363C324.0264,-610.29 346.8276,-588.7501 363.8981,-572.624"/>
<polygon fill="#000000" stroke="#000000" points="366.4239,-575.0527 371.2897,-565.6412 361.6169,-569.9642 366.4239,-575.0527"/>
<text text-anchor="middle" x="359.5" y="-591" font-family="Times,serif" font-size="14.00" fill="#000000">195</text>
</g>
<!-- 1 -->
<g id="node3" class="node">
<title>1</title>
<ellipse fill="none" stroke="#ff0000" cx="185" cy="-462" rx="27" ry="18"/>
<text text-anchor="middle" x="185" y="-457.8" font-family="Times,serif" font-size="14.00" fill="#000000">1</text>
</g>
<!-- 45&#45;&gt;1 -->
<g id="edge3" class="edge">
<title>45&#45;&gt;1</title>
<path fill="none" stroke="#000000" d="M244.1278,-534.9243C233.1384,-521.3707 217.1627,-501.6674 204.587,-486.1573"/>
<polygon fill="#000000" stroke="#000000" points="207.0202,-483.6009 198.0035,-478.0376 201.5829,-488.0095 207.0202,-483.6009"/>
<text text-anchor="middle" x="238.5" y="-502.2" font-family="Times,serif" font-size="14.00" fill="#000000">195</text>
</g>
<!-- 6 -->
<g id="node4" class="node">
<title>6</title>
<ellipse fill="none" stroke="#ff0000" cx="257" cy="-462" rx="27" ry="18"/>
<text text-anchor="middle" x="257" y="-457.8" font-family="Times,serif" font-size="14.00" fill="#000000">6</text>
</g>
<!-- 45&#45;&gt;6 -->
<g id="edge4" class="edge">
<title>45&#45;&gt;6</title>
<path fill="none" stroke="#000000" d="M257,-532.4006C257,-520.2949 257,-504.2076 257,-490.4674"/>
<polygon fill="#000000" stroke="#000000" points="260.5001,-490.072 257,-480.072 253.5001,-490.0721 260.5001,-490.072"/>
<text text-anchor="middle" x="267.5" y="-502.2" font-family="Times,serif" font-size="14.00" fill="#000000">192</text>
</g>
<!-- 9 -->
<g id="node5" class="node">
<title>9</title>
<ellipse fill="none" stroke="#ff0000" cx="207" cy="-373.2" rx="27" ry="18"/>
<text text-anchor="middle" x="207" y="-369" font-family="Times,serif" font-size="14.00" fill="#000000">9</text>
</g>
<!-- 6&#45;&gt;9 -->
<g id="edge5" class="edge">
<title>6&#45;&gt;9</title>
<path fill="none" stroke="#000000" d="M247.081,-445.2024C243.549,-439.1671 239.5649,-432.2965 236,-426 231.0809,-417.3115 225.7976,-407.7602 221.1058,-399.1981"/>
<polygon fill="#000000" stroke="#000000" points="224.1568,-397.4822 216.2922,-390.383 218.0131,-400.8372 224.1568,-397.4822"/>
<text text-anchor="middle" x="246.5" y="-413.4" font-family="Times,serif" font-size="14.00" fill="#000000">287</text>
</g>
<!-- 66 -->
<g id="node6" class="node">
<title>66</title>
<ellipse fill="none" stroke="#000000" cx="135" cy="-284.4" rx="27" ry="18"/>
<text text-anchor="middle" x="135" y="-280.2" font-family="Times,serif" font-size="14.00" fill="#000000">66</text>
</g>
<!-- 9&#45;&gt;66 -->
<g id="edge6" class="edge">
<title>9&#45;&gt;66</title>
<path fill="none" stroke="#000000" d="M194.1278,-357.3243C183.1384,-343.7707 167.1627,-324.0674 154.587,-308.5573"/>
<polygon fill="#000000" stroke="#000000" points="157.0202,-306.0009 148.0035,-300.4376 151.5829,-310.4095 157.0202,-306.0009"/>
<text text-anchor="middle" x="188.5" y="-324.6" font-family="Times,serif" font-size="14.00" fill="#000000">186</text>
</g>
<!-- 73 -->
<g id="node12" class="node">
<title>73</title>
<ellipse fill="none" stroke="#000000" cx="207" cy="-284.4" rx="27" ry="18"/>
<text text-anchor="middle" x="207" y="-280.2" font-family="Times,serif" font-size="14.00" fill="#000000">73</text>
</g>
<!-- 9&#45;&gt;73 -->
<g id="edge7" class="edge">
<title>9&#45;&gt;73</title>
<path fill="none" stroke="#000000" d="M207,-354.8006C207,-342.6949 207,-326.6076 207,-312.8674"/>
<polygon fill="#000000" stroke="#000000" points="210.5001,-312.472 207,-302.472 203.5001,-312.4721 210.5001,-312.472"/>
<text text-anchor="middle" x="217.5" y="-324.6" font-family="Times,serif" font-size="14.00" fill="#000000">198</text>
</g>
<!-- 18 -->
<g id="node7" class="node">
<title>18</title>
<ellipse fill="none" stroke="#ff0000" cx="63" cy="-195.6" rx="27" ry="18"/>
<text text-anchor="middle" x="63" y="-191.4" font-family="Times,serif" font-size="14.00" fill="#000000">18</text>
</g>
<!-- 66&#45;&gt;18 -->
<g id="edge8" class="edge">
<title>66&#45;&gt;18</title>
<path fill="none" stroke="#000000" d="M122.1278,-268.5243C111.1384,-254.9707 95.1627,-235.2674 82.587,-219.7573"/>
<polygon fill="#000000" stroke="#000000" points="85.0202,-217.2009 76.0035,-211.6376 79.5829,-221.6095 85.0202,-217.2009"/>
<text text-anchor="middle" x="116.5" y="-235.8" font-family="Times,serif" font-size="14.00" fill="#000000">204</text>
</g>
<!-- 8 -->
<g id="node11" class="node">
<title>8</title>
<ellipse fill="none" stroke="#ff0000" cx="135" cy="-195.6" rx="27" ry="18"/>
<text text-anchor="middle" x="135" y="-191.4" font-family="Times,serif" font-size="14.00" fill="#000000">8</text>
</g>
<!-- 66&#45;&gt;8 -->
<g id="edge9" class="edge">
<title>66&#45;&gt;8</title>
<path fill="none" stroke="#000000" d="M135,-266.0006C135,-253.8949 135,-237.8076 135,-224.0674"/>
<polygon fill="#000000" stroke="#000000" points="138.5001,-223.672 135,-213.672 131.5001,-223.6721 138.5001,-223.672"/>
<text text-anchor="middle" x="145.5" y="-235.8" font-family="Times,serif" font-size="14.00" fill="#000000">201</text>
</g>
<!-- 64 -->
<g id="node8" class="node">
<title>64</title>
<ellipse fill="none" stroke="#000000" cx="63" cy="-106.8" rx="27" ry="18"/>
<text text-anchor="middle" x="63" y="-102.6" font-family="Times,serif" font-size="14.00" fill="#000000">64</text>
</g>
<!-- 18&#45;&gt;64 -->
<g id="edge10" class="edge">
<title>18&#45;&gt;64</title>
<path fill="none" stroke="#000000" d="M63,-177.2006C63,-165.0949 63,-149.0076 63,-135.2674"/>
<polygon fill="#000000" stroke="#000000" points="66.5001,-134.872 63,-124.872 59.5001,-134.8721 66.5001,-134.872"/>
<text text-anchor="middle" x="73.5" y="-147" font-family="Times,serif" font-size="14.00" fill="#000000">197</text>
</g>
<!-- 3 -->
<g id="node9" class="node">
<title>3</title>
<ellipse fill="none" stroke="#ff0000" cx="27" cy="-18" rx="27" ry="18"/>
<text text-anchor="middle" x="27" y="-13.8" font-family="Times,serif" font-size="14.00" fill="#000000">3</text>
</g>
<!-- 64&#45;&gt;3 -->
<g id="edge11" class="edge">
<title>64&#45;&gt;3</title>
<path fill="none" stroke="#000000" d="M55.8876,-89.256C50.7596,-76.6071 43.7433,-59.3002 37.9097,-44.9105"/>
<polygon fill="#000000" stroke="#000000" points="41.0984,-43.46 34.0977,-35.5076 34.6112,-46.09 41.0984,-43.46"/>
<text text-anchor="middle" x="59.5" y="-58.2" font-family="Times,serif" font-size="14.00" fill="#000000">194</text>
</g>
<!-- 20 -->
<g id="node10" class="node">
<title>20</title>
<ellipse fill="none" stroke="#ff0000" cx="99" cy="-18" rx="27" ry="18"/>
<text text-anchor="middle" x="99" y="-13.8" font-family="Times,serif" font-size="14.00" fill="#000000">20</text>
</g>
<!-- 64&#45;&gt;20 -->
<g id="edge12" class="edge">
<title>64&#45;&gt;20</title>
<path fill="none" stroke="#000000" d="M70.1124,-89.256C75.2404,-76.6071 82.2567,-59.3002 88.0903,-44.9105"/>
<polygon fill="#000000" stroke="#000000" points="91.3888,-46.09 91.9023,-35.5076 84.9016,-43.46 91.3888,-46.09"/>
<text text-anchor="middle" x="95.5" y="-58.2" font-family="Times,serif" font-size="14.00" fill="#000000">195</text>
</g>
<!-- 19 -->
<g id="node13" class="node">
<title>19</title>
<ellipse fill="none" stroke="#ff0000" cx="207" cy="-195.6" rx="27" ry="18"/>
<text text-anchor="middle" x="207" y="-191.4" font-family="Times,serif" font-size="14.00" fill="#000000">19</text>
</g>
<!-- 73&#45;&gt;19 -->
<g id="edge13" class="edge">
<title>73&#45;&gt;19</title>
<path fill="none" stroke="#000000" d="M207,-266.0006C207,-253.8949 207,-237.8076 207,-224.0674"/>
<polygon fill="#000000" stroke="#000000" points="210.5001,-223.672 207,-213.672 203.5001,-223.6721 210.5001,-223.672"/>
<text text-anchor="middle" x="217.5" y="-235.8" font-family="Times,serif" font-size="14.00" fill="#000000">192</text>
</g>
<!-- 7 -->
<g id="node14" class="node">
<title>7</title>
<ellipse fill="none" stroke="#ff0000" cx="279" cy="-195.6" rx="27" ry="18"/>
<text text-anchor="middle" x="279" y="-191.4" font-family="Times,serif" font-size="14.00" fill="#000000">7</text>
</g>
<!-- 73&#45;&gt;7 -->
<g id="edge14" class="edge">
<title>73&#45;&gt;7</title>
<path fill="none" stroke="#000000" d="M219.8722,-268.5243C230.8616,-254.9707 246.8373,-235.2674 259.413,-219.7573"/>
<polygon fill="#000000" stroke="#000000" points="262.4171,-221.6095 265.9965,-211.6376 256.9798,-217.2009 262.4171,-221.6095"/>
<text text-anchor="middle" x="260.5" y="-235.8" font-family="Times,serif" font-size="14.00" fill="#000000">197</text>
</g>
<!-- 11 -->
<g id="node16" class="node">
<title>11</title>
<ellipse fill="none" stroke="#ff0000" cx="351" cy="-462" rx="27" ry="18"/>
<text text-anchor="middle" x="351" y="-457.8" font-family="Times,serif" font-size="14.00" fill="#000000">11</text>
</g>
<!-- 80&#45;&gt;11 -->
<g id="edge15" class="edge">
<title>80&#45;&gt;11</title>
<path fill="none" stroke="#000000" d="M379.8876,-533.256C374.7596,-520.6071 367.7433,-503.3002 361.9097,-488.9105"/>
<polygon fill="#000000" stroke="#000000" points="365.0984,-487.46 358.0977,-479.5076 358.6112,-490.09 365.0984,-487.46"/>
<text text-anchor="middle" x="382.5" y="-502.2" font-family="Times,serif" font-size="14.00" fill="#000000">191</text>
</g>
<!-- 14 -->
<g id="node21" class="node">
<title>14</title>
<ellipse fill="none" stroke="#ff0000" cx="423" cy="-462" rx="27" ry="18"/>
<text text-anchor="middle" x="423" y="-457.8" font-family="Times,serif" font-size="14.00" fill="#000000">14</text>
</g>
<!-- 80&#45;&gt;14 -->
<g id="edge16" class="edge">
<title>80&#45;&gt;14</title>
<path fill="none" stroke="#000000" d="M394.1124,-533.256C399.2404,-520.6071 406.2567,-503.3002 412.0903,-488.9105"/>
<polygon fill="#000000" stroke="#000000" points="415.3888,-490.09 415.9023,-479.5076 408.9016,-487.46 415.3888,-490.09"/>
<text text-anchor="middle" x="418.5" y="-502.2" font-family="Times,serif" font-size="14.00" fill="#000000">199</text>
</g>
<!-- 15 -->
<g id="node27" class="node">
<title>15</title>
<ellipse fill="none" stroke="#ff0000" cx="495" cy="-462" rx="27" ry="18"/>
<text text-anchor="middle" x="495" y="-457.8" font-family="Times,serif" font-size="14.00" fill="#000000">15</text>
</g>
<!-- 80&#45;&gt;15 -->
<g id="edge17" class="edge">
<title>80&#45;&gt;15</title>
<path fill="none" stroke="#000000" d="M405.0495,-536.9516C413.589,-530.3292 423.8881,-522.2401 433,-514.8 445.6016,-504.5104 459.4013,-492.8031 470.7759,-483.0315"/>
<polygon fill="#000000" stroke="#000000" points="473.2887,-485.4864 478.578,-476.3063 468.7184,-480.1843 473.2887,-485.4864"/>
<text text-anchor="middle" x="461.5" y="-502.2" font-family="Times,serif" font-size="14.00" fill="#000000">193</text>
</g>
<!-- 2 -->
<g id="node17" class="node">
<title>2</title>
<ellipse fill="none" stroke="#ff0000" cx="279" cy="-373.2" rx="27" ry="18"/>
<text text-anchor="middle" x="279" y="-369" font-family="Times,serif" font-size="14.00" fill="#000000">2</text>
</g>
<!-- 11&#45;&gt;2 -->
<g id="edge18" class="edge">
<title>11&#45;&gt;2</title>
<path fill="none" stroke="#000000" d="M338.1278,-446.1243C327.1384,-432.5707 311.1627,-412.8674 298.587,-397.3573"/>
<polygon fill="#000000" stroke="#000000" points="301.0202,-394.8009 292.0035,-389.2376 295.5829,-399.2095 301.0202,-394.8009"/>
<text text-anchor="middle" x="332.5" y="-413.4" font-family="Times,serif" font-size="14.00" fill="#000000">278</text>
</g>
<!-- 78 -->
<g id="node18" class="node">
<title>78</title>
<ellipse fill="none" stroke="#000000" cx="351" cy="-373.2" rx="27" ry="18"/>
<text text-anchor="middle" x="351" y="-369" font-family="Times,serif" font-size="14.00" fill="#000000">78</text>
</g>
<!-- 11&#45;&gt;78 -->
<g id="edge19" class="edge">
<title>11&#45;&gt;78</title>
<path fill="none" stroke="#000000" d="M351,-443.6006C351,-431.4949 351,-415.4076 351,-401.6674"/>
<polygon fill="#000000" stroke="#000000" points="354.5001,-401.272 351,-391.272 347.5001,-401.2721 354.5001,-401.272"/>
<text text-anchor="middle" x="361.5" y="-413.4" font-family="Times,serif" font-size="14.00" fill="#000000">193</text>
</g>
<!-- 10 -->
<g id="node19" class="node">
<title>10</title>
<ellipse fill="none" stroke="#ff0000" cx="279" cy="-284.4" rx="27" ry="18"/>
<text text-anchor="middle" x="279" y="-280.2" font-family="Times,serif" font-size="14.00" fill="#000000">10</text>
</g>
<!-- 78&#45;&gt;10 -->
<g id="edge20" class="edge">
<title>78&#45;&gt;10</title>
<path fill="none" stroke="#000000" d="M338.1278,-357.3243C327.1384,-343.7707 311.1627,-324.0674 298.587,-308.5573"/>
<polygon fill="#000000" stroke="#000000" points="301.0202,-306.0009 292.0035,-300.4376 295.5829,-310.4095 301.0202,-306.0009"/>
<text text-anchor="middle" x="332.5" y="-324.6" font-family="Times,serif" font-size="14.00" fill="#000000">195</text>
</g>
<!-- 16 -->
<g id="node20" class="node">
<title>16</title>
<ellipse fill="none" stroke="#ff0000" cx="351" cy="-284.4" rx="27" ry="18"/>
<text text-anchor="middle" x="351" y="-280.2" font-family="Times,serif" font-size="14.00" fill="#000000">16</text>
</g>
<!-- 78&#45;&gt;16 -->
<g id="edge21" class="edge">
<title>78&#45;&gt;16</title>
<path fill="none" stroke="#000000" d="M351,-354.8006C351,-342.6949 351,-326.6076 351,-312.8674"/>
<polygon fill="#000000" stroke="#000000" points="354.5001,-312.472 351,-302.472 347.5001,-312.4721 354.5001,-312.472"/>
<text text-anchor="middle" x="361.5" y="-324.6" font-family="Times,serif" font-size="14.00" fill="#000000">201</text>
</g>
<!-- 17 -->
<g id="node22" class="node">
<title>17</title>
<ellipse fill="none" stroke="#ff0000" cx="423" cy="-373.2" rx="27" ry="18"/>
<text text-anchor="middle" x="423" y="-369" font-family="Times,serif" font-size="14.00" fill="#000000">17</text>
</g>
<!-- 14&#45;&gt;17 -->
<g id="edge22" class="edge">
<title>14&#45;&gt;17</title>
<path fill="none" stroke="#000000" d="M423,-443.6006C423,-431.4949 423,-415.4076 423,-401.6674"/>
<polygon fill="#000000" stroke="#000000" points="426.5001,-401.272 423,-391.272 419.5001,-401.2721 426.5001,-401.272"/>
<text text-anchor="middle" x="433.5" y="-413.4" font-family="Times,serif" font-size="14.00" fill="#000000">292</text>
</g>
<!-- 46 -->
<g id="node24" class="node">
<title>46</title>
<ellipse fill="none" stroke="#000000" cx="495" cy="-373.2" rx="27" ry="18"/>
<text text-anchor="middle" x="495" y="-369" font-family="Times,serif" font-size="14.00" fill="#000000">46</text>
</g>
<!-- 14&#45;&gt;46 -->
<g id="edge23" class="edge">
<title>14&#45;&gt;46</title>
<path fill="none" stroke="#000000" d="M435.8722,-446.1243C446.8616,-432.5707 462.8373,-412.8674 475.413,-397.3573"/>
<polygon fill="#000000" stroke="#000000" points="478.4171,-399.2095 481.9965,-389.2376 472.9798,-394.8009 478.4171,-399.2095"/>
<text text-anchor="middle" x="475.5" y="-413.4" font-family="Times,serif" font-size="14.00" fill="#000000">195</text>
</g>
<!-- 13 -->
<g id="node23" class="node">
<title>13</title>
<ellipse fill="none" stroke="#ff0000" cx="423" cy="-284.4" rx="27" ry="18"/>
<text text-anchor="middle" x="423" y="-280.2" font-family="Times,serif" font-size="14.00" fill="#000000">13</text>
</g>
<!-- 17&#45;&gt;13 -->
<g id="edge24" class="edge">
<title>17&#45;&gt;13</title>
<path fill="none" stroke="#000000" d="M423,-354.8006C423,-342.6949 423,-326.6076 423,-312.8674"/>
<polygon fill="#000000" stroke="#000000" points="426.5001,-312.472 423,-302.472 419.5001,-312.4721 426.5001,-312.472"/>
<text text-anchor="middle" x="433.5" y="-324.6" font-family="Times,serif" font-size="14.00" fill="#000000">303</text>
</g>
<!-- 4 -->
<g id="node25" class="node">
<title>4</title>
<ellipse fill="none" stroke="#ff0000" cx="495" cy="-284.4" rx="27" ry="18"/>
<text text-anchor="middle" x="495" y="-280.2" font-family="Times,serif" font-size="14.00" fill="#000000">4</text>
</g>
<!-- 46&#45;&gt;4 -->
<g id="edge25" class="edge">
<title>46&#45;&gt;4</title>
<path fill="none" stroke="#000000" d="M495,-354.8006C495,-342.6949 495,-326.6076 495,-312.8674"/>
<polygon fill="#000000" stroke="#000000" points="498.5001,-312.472 495,-302.472 491.5001,-312.4721 498.5001,-312.472"/>
<text text-anchor="middle" x="505.5" y="-324.6" font-family="Times,serif" font-size="14.00" fill="#000000">193</text>
</g>
<!-- 5 -->
<g id="node26" class="node">
<title>5</title>
<ellipse fill="none" stroke="#ff0000" cx="567" cy="-284.4" rx="27" ry="18"/>
<text text-anchor="middle" x="567" y="-280.2" font-family="Times,serif" font-size="14.00" fill="#000000">5</text>
</g>
<!-- 46&#45;&gt;5 -->
<g id="edge26" class="edge">
<title>46&#45;&gt;5</title>
<path fill="none" stroke="#000000" d="M507.8722,-357.3243C518.8616,-343.7707 534.8373,-324.0674 547.413,-308.5573"/>
<polygon fill="#000000" stroke="#000000" points="550.4171,-310.4095 553.9965,-300.4376 544.9798,-306.0009 550.4171,-310.4095"/>
<text text-anchor="middle" x="547.5" y="-324.6" font-family="Times,serif" font-size="14.00" fill="#000000">197</text>
</g>
</g>
</svg>
