<svg width="600px" height="988px"
 viewBox="0.00 0.00 458.00 754.40" xmlns="http://www.w3.org/2000/svg" xmlns:xlink="http://www.w3.org/1999/xlink">
<g id="graph0" class="graph" transform="scale(1.0 1.0) rotate(0) translate(4 750.4)">
<title>%0</title>
<polygon fill="#ffffff" stroke="transparent" points="-4,4 -4,-750.4 454,-750.4 454,4 -4,4"/>
<!-- 10 -->
<g id="node1" class="node">
<title>10</title>
<ellipse fill="none" stroke="#ff0000" cx="171" cy="-728.4" rx="27" ry="18"/>
<text text-anchor="middle" x="171" y="-724.2" font-family="Times,serif" font-size="14.00" fill="#000000">10</text>
</g>
<!-- 34 -->
<g id="node2" class="node">
<title>34</title>
<ellipse fill="none" stroke="#000000" cx="171" cy="-639.6" rx="27" ry="18"/>
<text text-anchor="middle" x="171" y="-635.4" font-family="Times,serif" font-size="14.00" fill="#000000">34</text>
</g>
<!-- 10&#45;&gt;34 -->
<g id="edge1" class="edge">
<title>10&#45;&gt;34</title>
<path fill="none" stroke="#000000" d="M171,-710.0006C171,-697.8949 171,-681.8076 171,-668.0674"/>
<polygon fill="#000000" stroke="#000000" points="174.5001,-667.672 171,-657.672 167.5001,-667.6721 174.5001,-667.672"/>
<text text-anchor="middle" x="181.5" y="-679.8" font-family="Times,serif" font-size="14.00" fill="#000000">196</text>
</g>
<!-- 18 -->
<g id="node3" class="node">
<title>18</title>
<ellipse fill="none" stroke="#ff0000" cx="27" cy="-550.8" rx="27" ry="18"/>
<text text-anchor="middle" x="27" y="-546.6" font-family="Times,serif" font-size="14.00" fill="#000000">18</text>
</g>
<!-- 34&#45;&gt;18 -->
<g id="edge2" class="edge">
<title>34&#45;&gt;18</title>
<path fill="none" stroke="#000000" d="M149.2444,-628.6687C135.9717,-621.8141 118.7736,-612.5982 104,-603.6 86.9185,-593.1962 68.4148,-580.5551 53.8283,-570.2504"/>
<polygon fill="#000000" stroke="#000000" points="55.476,-567.127 45.3001,-564.1772 51.4154,-572.829 55.476,-567.127"/>
<text text-anchor="middle" x="114.5" y="-591" font-family="Times,serif" font-size="14.00" fill="#000000">204</text>
</g>
<!-- 3 -->
<g id="node4" class="node">
<title>3</title>
<ellipse fill="none" stroke="#ff0000" cx="99" cy="-550.8" rx="27" ry="18"/>
<text text-anchor="middle" x="99" y="-546.6" font-family="Times,serif" font-size="14.00" fill="#000000">3</text>
</g>
<!-- 34&#45;&gt;3 -->
<g id="edge3" class="edge">
<title>34&#45;&gt;3</title>
<path fill="none" stroke="#000000" d="M158.1278,-623.7243C147.1384,-610.1707 131.1627,-590.4674 118.587,-574.9573"/>
<polygon fill="#000000" stroke="#000000" points="121.0202,-572.4009 112.0035,-566.8376 115.5829,-576.8095 121.0202,-572.4009"/>
<text text-anchor="middle" x="152.5" y="-591" font-family="Times,serif" font-size="14.00" fill="#000000">188</text>
</g>
<!-- 4 -->
<g id="node5" class="node">
<title>4</title>
<ellipse fill="none" stroke="#ff0000" cx="171" cy="-550.8" rx="27" ry="18"/>
<text text-anchor="middle" x="171" y="-546.6" font-family="Times,serif" font-size="14.00" fill="#000000">4</text>
</g>
<!-- 34&#45;&gt;4 -->
<g id="edge4" class="edge">
<title>34&#45;&gt;4</title>
<path fill="none" stroke="#000000" d="M171,-621.2006C171,-609.0949 171,-593.0076 171,-579.2674"/>
<polygon fill="#000000" stroke="#000000" points="174.5001,-578.872 171,-568.872 167.5001,-578.8721 174.5001,-578.872"/>
<text text-anchor="middle" x="181.5" y="-591" font-family="Times,serif" font-size="14.00" fill="#000000">209</text>
</g>
<!-- 7 -->
<g id="node22" class="node">
<title>7</title>
<ellipse fill="none" stroke="#ff0000" cx="243" cy="-550.8" rx="27" ry="18"/>
<text text-anchor="middle" x="243" y="-546.6" font-family="Times,serif" font-size="14.00" fill="#000000">7</text>
</g>
<!-- 34&#45;&gt;7 -->
<g id="edge5" class="edge">
<title>34&#45;&gt;7</title>
<path fill="none" stroke="#000000" d="M183.8722,-623.7243C194.8616,-610.1707 210.8373,-590.4674 223.413,-574.9573"/>
<polygon fill="#000000" stroke="#000000" points="226.4171,-576.8095 229.9965,-566.8376 220.9798,-572.4009 226.4171,-576.8095"/>
<text text-anchor="middle" x="224.5" y="-591" font-family="Times,serif" font-size="14.00" fill="#000000">193</text>
</g>
<!-- 11 -->
<g id="node23" class="node">
<title>11</title>
<ellipse fill="none" stroke="#ff0000" cx="315" cy="-550.8" rx="27" ry="18"/>
<text text-anchor="middle" x="315" y="-546.6" font-family="Times,serif" font-size="14.00" fill="#000000">11</text>
</g>
<!-- 34&#45;&gt;11 -->
<g id="edge6" class="edge">
<title>34&#45;&gt;11</title>
<path fill="none" stroke="#000000" d="M192.8072,-628.8991C206.3322,-622.0564 223.9407,-612.7717 239,-603.6 255.9311,-593.2882 274.1971,-580.6505 288.5776,-570.3245"/>
<polygon fill="#000000" stroke="#000000" points="290.938,-572.9366 296.9828,-564.2354 286.8312,-567.2678 290.938,-572.9366"/>
<text text-anchor="middle" x="275.5" y="-591" font-family="Times,serif" font-size="14.00" fill="#000000">199</text>
</g>
<!-- 54 -->
<g id="node6" class="node">
<title>54</title>
<ellipse fill="none" stroke="#000000" cx="171" cy="-462" rx="27" ry="18"/>
<text text-anchor="middle" x="171" y="-457.8" font-family="Times,serif" font-size="14.00" fill="#000000">54</text>
</g>
<!-- 4&#45;&gt;54 -->
<g id="edge7" class="edge">
<title>4&#45;&gt;54</title>
<path fill="none" stroke="#000000" d="M171,-532.4006C171,-520.2949 171,-504.2076 171,-490.4674"/>
<polygon fill="#000000" stroke="#000000" points="174.5001,-490.072 171,-480.072 167.5001,-490.0721 174.5001,-490.072"/>
<text text-anchor="middle" x="181.5" y="-502.2" font-family="Times,serif" font-size="14.00" fill="#000000">197</text>
</g>
<!-- 19 -->
<g id="node7" class="node">
<title>19</title>
<ellipse fill="none" stroke="#ff0000" cx="63" cy="-373.2" rx="27" ry="18"/>
<text text-anchor="middle" x="63" y="-369" font-family="Times,serif" font-size="14.00" fill="#000000">19</text>
</g>
<!-- 54&#45;&gt;19 -->
<g id="edge8" class="edge">
<title>54&#45;&gt;19</title>
<path fill="none" stroke="#000000" d="M152.9505,-448.1516C144.411,-441.5292 134.1119,-433.4401 125,-426 112.3984,-415.7104 98.5987,-404.0031 87.2241,-394.2315"/>
<polygon fill="#000000" stroke="#000000" points="89.2816,-391.3843 79.422,-387.5063 84.7113,-396.6864 89.2816,-391.3843"/>
<text text-anchor="middle" x="135.5" y="-413.4" font-family="Times,serif" font-size="14.00" fill="#000000">191</text>
</g>
<!-- 6 -->
<g id="node8" class="node">
<title>6</title>
<ellipse fill="none" stroke="#ff0000" cx="135" cy="-373.2" rx="27" ry="18"/>
<text text-anchor="middle" x="135" y="-369" font-family="Times,serif" font-size="14.00" fill="#000000">6</text>
</g>
<!-- 54&#45;&gt;6 -->
<g id="edge9" class="edge">
<title>54&#45;&gt;6</title>
<path fill="none" stroke="#000000" d="M163.8876,-444.456C158.7596,-431.8071 151.7433,-414.5002 145.9097,-400.1105"/>
<polygon fill="#000000" stroke="#000000" points="149.0984,-398.66 142.0977,-390.7076 142.6112,-401.29 149.0984,-398.66"/>
<text text-anchor="middle" x="167.5" y="-413.4" font-family="Times,serif" font-size="14.00" fill="#000000">197</text>
</g>
<!-- 9 -->
<g id="node11" class="node">
<title>9</title>
<ellipse fill="none" stroke="#ff0000" cx="207" cy="-373.2" rx="27" ry="18"/>
<text text-anchor="middle" x="207" y="-369" font-family="Times,serif" font-size="14.00" fill="#000000">9</text>
</g>
<!-- 54&#45;&gt;9 -->
<g id="edge10" class="edge">
<title>54&#45;&gt;9</title>
<path fill="none" stroke="#000000" d="M178.1124,-444.456C183.2404,-431.8071 190.2567,-414.5002 196.0903,-400.1105"/>
<polygon fill="#000000" stroke="#000000" points="199.3888,-401.29 199.9023,-390.7076 192.9016,-398.66 199.3888,-401.29"/>
<text text-anchor="middle" x="203.5" y="-413.4" font-family="Times,serif" font-size="14.00" fill="#000000">190</text>
</g>
<!-- 14 -->
<g id="node21" class="node">
<title>14</title>
<ellipse fill="none" stroke="#ff0000" cx="279" cy="-373.2" rx="27" ry="18"/>
<text text-anchor="middle" x="279" y="-369" font-family="Times,serif" font-size="14.00" fill="#000000">14</text>
</g>
<!-- 54&#45;&gt;14 -->
<g id="edge11" class="edge">
<title>54&#45;&gt;14</title>
<path fill="none" stroke="#000000" d="M189.0506,-448.5724C197.876,-441.9068 208.5964,-433.6597 218,-426 230.4089,-415.8923 243.8933,-404.2885 255.0209,-394.5379"/>
<polygon fill="#000000" stroke="#000000" points="257.4657,-397.0487 262.6579,-387.8133 252.8397,-391.795 257.4657,-397.0487"/>
<text text-anchor="middle" x="247.5" y="-413.4" font-family="Times,serif" font-size="14.00" fill="#000000">195</text>
</g>
<!-- 20 -->
<g id="node9" class="node">
<title>20</title>
<ellipse fill="none" stroke="#ff0000" cx="135" cy="-284.4" rx="27" ry="18"/>
<text text-anchor="middle" x="135" y="-280.2" font-family="Times,serif" font-size="14.00" fill="#000000">20</text>
</g>
<!-- 6&#45;&gt;20 -->
<g id="edge12" class="edge">
<title>6&#45;&gt;20</title>
<path fill="none" stroke="#000000" d="M135,-354.8006C135,-342.6949 135,-326.6076 135,-312.8674"/>
<polygon fill="#000000" stroke="#000000" points="138.5001,-312.472 135,-302.472 131.5001,-312.4721 138.5001,-312.472"/>
<text text-anchor="middle" x="145.5" y="-324.6" font-family="Times,serif" font-size="14.00" fill="#000000">292</text>
</g>
<!-- 12 -->
<g id="node10" class="node">
<title>12</title>
<ellipse fill="none" stroke="#ff0000" cx="135" cy="-195.6" rx="27" ry="18"/>
<text text-anchor="middle" x="135" y="-191.4" font-family="Times,serif" font-size="14.00" fill="#000000">12</text>
</g>
<!-- 20&#45;&gt;12 -->
<g id="edge13" class="edge">
<title>20&#45;&gt;12</title>
<path fill="none" stroke="#000000" d="M135,-266.0006C135,-253.8949 135,-237.8076 135,-224.0674"/>
<polygon fill="#000000" stroke="#000000" points="138.5001,-223.672 135,-213.672 131.5001,-223.6721 138.5001,-223.672"/>
<text text-anchor="middle" x="145.5" y="-235.8" font-family="Times,serif" font-size="14.00" fill="#000000">292</text>
</g>
<!-- 2 -->
<g id="node12" class="node">
<title>2</title>
<ellipse fill="none" stroke="#ff0000" cx="207" cy="-284.4" rx="27" ry="18"/>
<text text-anchor="middle" x="207" y="-280.2" font-family="Times,serif" font-size="14.00" fill="#000000">2</text>
</g>
<!-- 9&#45;&gt;2 -->
<g id="edge14" class="edge">
<title>9&#45;&gt;2</title>
<path fill="none" stroke="#000000" d="M207,-354.8006C207,-342.6949 207,-326.6076 207,-312.8674"/>
<polygon fill="#000000" stroke="#000000" points="210.5001,-312.472 207,-302.472 203.5001,-312.4721 210.5001,-312.472"/>
<text text-anchor="middle" x="217.5" y="-324.6" font-family="Times,serif" font-size="14.00" fill="#000000">290</text>
</g>
<!-- 21 -->
<g id="node15" class="node">
<title>21</title>
<ellipse fill="none" stroke="#000000" cx="326" cy="-284.4" rx="27" ry="18"/>
<text text-anchor="middle" x="326" y="-280.2" font-family="Times,serif" font-size="14.00" fill="#000000">21</text>
</g>
<!-- 9&#45;&gt;21 -->
<g id="edge15" class="edge">
<title>9&#45;&gt;21</title>
<path fill="none" stroke="#000000" d="M225.0735,-359.7132C244.9065,-344.9135 276.9302,-321.0168 299.5797,-304.1153"/>
<polygon fill="#000000" stroke="#000000" points="301.835,-306.7994 307.7564,-298.0137 297.6486,-301.1893 301.835,-306.7994"/>
<text text-anchor="middle" x="288.5" y="-324.6" font-family="Times,serif" font-size="14.00" fill="#000000">202</text>
</g>
<!-- 15 -->
<g id="node13" class="node">
<title>15</title>
<ellipse fill="none" stroke="#ff0000" cx="207" cy="-195.6" rx="27" ry="18"/>
<text text-anchor="middle" x="207" y="-191.4" font-family="Times,serif" font-size="14.00" fill="#000000">15</text>
</g>
<!-- 2&#45;&gt;15 -->
<g id="edge16" class="edge">
<title>2&#45;&gt;15</title>
<path fill="none" stroke="#000000" d="M207,-266.0006C207,-253.8949 207,-237.8076 207,-224.0674"/>
<polygon fill="#000000" stroke="#000000" points="210.5001,-223.672 207,-213.672 203.5001,-223.6721 210.5001,-223.672"/>
<text text-anchor="middle" x="217.5" y="-235.8" font-family="Times,serif" font-size="14.00" fill="#000000">295</text>
</g>
<!-- 17 -->
<g id="node14" class="node">
<title>17</title>
<ellipse fill="none" stroke="#ff0000" cx="207" cy="-106.8" rx="27" ry="18"/>
<text text-anchor="middle" x="207" y="-102.6" font-family="Times,serif" font-size="14.00" fill="#000000">17</text>
</g>
<!-- 15&#45;&gt;17 -->
<g id="edge17" class="edge">
<title>15&#45;&gt;17</title>
<path fill="none" stroke="#000000" d="M207,-177.2006C207,-165.0949 207,-149.0076 207,-135.2674"/>
<polygon fill="#000000" stroke="#000000" points="210.5001,-134.872 207,-124.872 203.5001,-134.8721 210.5001,-134.872"/>
<text text-anchor="middle" x="217.5" y="-147" font-family="Times,serif" font-size="14.00" fill="#000000">293</text>
</g>
<!-- 1 -->
<g id="node16" class="node">
<title>1</title>
<ellipse fill="none" stroke="#ff0000" cx="279" cy="-195.6" rx="27" ry="18"/>
<text text-anchor="middle" x="279" y="-191.4" font-family="Times,serif" font-size="14.00" fill="#000000">1</text>
</g>
<!-- 21&#45;&gt;1 -->
<g id="edge18" class="edge">
<title>21&#45;&gt;1</title>
<path fill="none" stroke="#000000" d="M316.9379,-267.2785C310.1108,-254.3795 300.6292,-236.4655 292.853,-221.7734"/>
<polygon fill="#000000" stroke="#000000" points="295.8057,-219.87 288.0343,-212.669 289.6188,-223.1447 295.8057,-219.87"/>
<text text-anchor="middle" x="316.5" y="-235.8" font-family="Times,serif" font-size="14.00" fill="#000000">187</text>
</g>
<!-- 8 -->
<g id="node17" class="node">
<title>8</title>
<ellipse fill="none" stroke="#ff0000" cx="351" cy="-195.6" rx="27" ry="18"/>
<text text-anchor="middle" x="351" y="-191.4" font-family="Times,serif" font-size="14.00" fill="#000000">8</text>
</g>
<!-- 21&#45;&gt;8 -->
<g id="edge19" class="edge">
<title>21&#45;&gt;8</title>
<path fill="none" stroke="#000000" d="M331.0591,-266.43C334.5494,-254.0327 339.2565,-237.313 343.2209,-223.2312"/>
<polygon fill="#000000" stroke="#000000" points="346.6074,-224.1176 345.9484,-213.5433 339.8693,-222.2206 346.6074,-224.1176"/>
<text text-anchor="middle" x="350.5" y="-235.8" font-family="Times,serif" font-size="14.00" fill="#000000">197</text>
</g>
<!-- 16 -->
<g id="node18" class="node">
<title>16</title>
<ellipse fill="none" stroke="#ff0000" cx="423" cy="-195.6" rx="27" ry="18"/>
<text text-anchor="middle" x="423" y="-191.4" font-family="Times,serif" font-size="14.00" fill="#000000">16</text>
</g>
<!-- 21&#45;&gt;16 -->
<g id="edge20" class="edge">
<title>21&#45;&gt;16</title>
<path fill="none" stroke="#000000" d="M342.0176,-269.7365C357.6031,-255.4685 381.4712,-233.6181 399.2631,-217.3303"/>
<polygon fill="#000000" stroke="#000000" points="401.946,-219.6193 406.9586,-210.2853 397.2193,-214.4562 401.946,-219.6193"/>
<text text-anchor="middle" x="393.5" y="-235.8" font-family="Times,serif" font-size="14.00" fill="#000000">201</text>
</g>
<!-- 5 -->
<g id="node19" class="node">
<title>5</title>
<ellipse fill="none" stroke="#ff0000" cx="423" cy="-106.8" rx="27" ry="18"/>
<text text-anchor="middle" x="423" y="-102.6" font-family="Times,serif" font-size="14.00" fill="#000000">5</text>
</g>
<!-- 16&#45;&gt;5 -->
<g id="edge21" class="edge">
<title>16&#45;&gt;5</title>
<path fill="none" stroke="#000000" d="M423,-177.2006C423,-165.0949 423,-149.0076 423,-135.2674"/>
<polygon fill="#000000" stroke="#000000" points="426.5001,-134.872 423,-124.872 419.5001,-134.8721 426.5001,-134.872"/>
<text text-anchor="middle" x="433.5" y="-147" font-family="Times,serif" font-size="14.00" fill="#000000">291</text>
</g>
<!-- 13 -->
<g id="node20" class="node">
<title>13</title>
<ellipse fill="none" stroke="#ff0000" cx="423" cy="-18" rx="27" ry="18"/>
<text text-anchor="middle" x="423" y="-13.8" font-family="Times,serif" font-size="14.00" fill="#000000">13</text>
</g>
<!-- 5&#45;&gt;13 -->
<g id="edge22" class="edge">
<title>5&#45;&gt;13</title>
<path fill="none" stroke="#000000" d="M423,-88.4006C423,-76.2949 423,-60.2076 423,-46.4674"/>
<polygon fill="#000000" stroke="#000000" points="426.5001,-46.072 423,-36.072 419.5001,-46.0721 426.5001,-46.072"/>
<text text-anchor="middle" x="433.5" y="-58.2" font-family="Times,serif" font-size="14.00" fill="#000000">287</text>
</g>
</g>
</svg>
