<svg width="1920px" height="780px"
 viewBox="0.00 0.00 982.00 399.20" xmlns="http://www.w3.org/2000/svg" xmlns:xlink="http://www.w3.org/1999/xlink">
<g id="graph0" class="graph" transform="scale(1.0 1.0) rotate(0) translate(4 395.2)">
<title>%0</title>
<polygon fill="#ffffff" stroke="transparent" points="-4,4 -4,-395.2 978,-395.2 978,4 -4,4"/>
<!-- 22 -->
<g id="node1" class="node">
<title>22</title>
<ellipse fill="none" stroke="#0000ff" cx="730" cy="-195.6" rx="27" ry="18"/>
<text text-anchor="middle" x="730" y="-191.4" font-family="Times,serif" font-size="14.00" fill="#000000">22</text>
</g>
<!-- 13 -->
<g id="node2" class="node">
<title>13</title>
<ellipse fill="none" stroke="#ff0000" cx="730" cy="-106.8" rx="27" ry="18"/>
<text text-anchor="middle" x="730" y="-102.6" font-family="Times,serif" font-size="14.00" fill="#000000">13</text>
</g>
<!-- 22&#45;&#45;13 -->
<g id="edge1" class="edge">
<title>22&#45;&#45;13</title>
<path fill="none" stroke="#000000" d="M730,-177.2006C730,-161.8587 730,-140.122 730,-124.872"/>
<text text-anchor="middle" x="745.75" y="-147" font-family="Times,serif" font-size="14.00" fill="#000000">15.82</text>
</g>
<!-- 23 -->
<g id="node3" class="node">
<title>23</title>
<ellipse fill="none" stroke="#ff0000" cx="300" cy="-284.4" rx="27" ry="18"/>
<text text-anchor="middle" x="300" y="-280.2" font-family="Times,serif" font-size="14.00" fill="#000000">23</text>
</g>
<!-- 16 -->
<g id="node4" class="node">
<title>16</title>
<ellipse fill="none" stroke="#ff0000" cx="233" cy="-195.6" rx="27" ry="18"/>
<text text-anchor="middle" x="233" y="-191.4" font-family="Times,serif" font-size="14.00" fill="#000000">16</text>
</g>
<!-- 23&#45;&#45;16 -->
<g id="edge2" class="edge">
<title>23&#45;&#45;16</title>
<path fill="none" stroke="#000000" d="M281.5411,-271.0959C273.7458,-264.8353 264.9911,-256.8842 258.5,-248.4 250.335,-237.728 243.8105,-224.0236 239.4056,-213.2513"/>
<text text-anchor="middle" x="274.75" y="-235.8" font-family="Times,serif" font-size="14.00" fill="#000000">11.30</text>
</g>
<!-- 14 -->
<g id="node6" class="node">
<title>14</title>
<ellipse fill="none" stroke="#0000ff" cx="453" cy="-195.6" rx="27" ry="18"/>
<text text-anchor="middle" x="453" y="-191.4" font-family="Times,serif" font-size="14.00" fill="#000000">14</text>
</g>
<!-- 23&#45;&#45;14 -->
<g id="edge3" class="edge">
<title>23&#45;&#45;14</title>
<path fill="none" stroke="#000000" d="M298.6072,-266.3208C298.743,-254.9679 300.9154,-240.7871 309.5,-231.6 325.2389,-214.7565 389.4571,-203.8343 426.432,-198.8106"/>
<text text-anchor="middle" x="325.75" y="-235.8" font-family="Times,serif" font-size="14.00" fill="#000000">15.62</text>
</g>
<!-- 1 -->
<g id="node5" class="node">
<title>1</title>
<ellipse fill="none" stroke="#0000ff" cx="233" cy="-106.8" rx="27" ry="18"/>
<text text-anchor="middle" x="233" y="-102.6" font-family="Times,serif" font-size="14.00" fill="#000000">1</text>
</g>
<!-- 16&#45;&#45;1 -->
<g id="edge4" class="edge">
<title>16&#45;&#45;1</title>
<path fill="none" stroke="#000000" d="M233,-177.2006C233,-161.8587 233,-140.122 233,-124.872"/>
<text text-anchor="middle" x="245.25" y="-147" font-family="Times,serif" font-size="14.00" fill="#000000">2.56</text>
</g>
<!-- 5 -->
<g id="node7" class="node">
<title>5</title>
<ellipse fill="none" stroke="#ff0000" cx="489" cy="-106.8" rx="27" ry="18"/>
<text text-anchor="middle" x="489" y="-102.6" font-family="Times,serif" font-size="14.00" fill="#000000">5</text>
</g>
<!-- 14&#45;&#45;5 -->
<g id="edge5" class="edge">
<title>14&#45;&#45;5</title>
<path fill="none" stroke="#000000" d="M460.1124,-178.056C466.4237,-162.4881 475.5955,-139.8644 481.9023,-124.3076"/>
<text text-anchor="middle" x="490.75" y="-147" font-family="Times,serif" font-size="14.00" fill="#000000">20.19</text>
</g>
<!-- 12 -->
<g id="node8" class="node">
<title>12</title>
<ellipse fill="none" stroke="#ff0000" cx="489" cy="-18" rx="27" ry="18"/>
<text text-anchor="middle" x="489" y="-13.8" font-family="Times,serif" font-size="14.00" fill="#000000">12</text>
</g>
<!-- 5&#45;&#45;12 -->
<g id="edge6" class="edge">
<title>5&#45;&#45;12</title>
<path fill="none" stroke="#000000" d="M489,-88.4006C489,-73.0587 489,-51.322 489,-36.072"/>
<text text-anchor="middle" x="501.25" y="-58.2" font-family="Times,serif" font-size="14.00" fill="#000000">4.35</text>
</g>
<!-- 24 -->
<g id="node9" class="node">
<title>24</title>
<ellipse fill="none" stroke="#0000ff" cx="908" cy="-195.6" rx="27" ry="18"/>
<text text-anchor="middle" x="908" y="-191.4" font-family="Times,serif" font-size="14.00" fill="#000000">24</text>
</g>
<!-- 10 -->
<g id="node10" class="node">
<title>10</title>
<ellipse fill="none" stroke="#ff0000" cx="908" cy="-106.8" rx="27" ry="18"/>
<text text-anchor="middle" x="908" y="-102.6" font-family="Times,serif" font-size="14.00" fill="#000000">10</text>
</g>
<!-- 24&#45;&#45;10 -->
<g id="edge7" class="edge">
<title>24&#45;&#45;10</title>
<path fill="none" stroke="#000000" d="M908,-177.2006C908,-161.8587 908,-140.122 908,-124.872"/>
<text text-anchor="middle" x="923.75" y="-147" font-family="Times,serif" font-size="14.00" fill="#000000">14.04</text>
</g>
<!-- 11 -->
<g id="node11" class="node">
<title>11</title>
<ellipse fill="none" stroke="#0000ff" cx="844" cy="-284.4" rx="27" ry="18"/>
<text text-anchor="middle" x="844" y="-280.2" font-family="Times,serif" font-size="14.00" fill="#000000">11</text>
</g>
<!-- 11&#45;&#45;24 -->
<g id="edge10" class="edge">
<title>11&#45;&#45;24</title>
<path fill="none" stroke="#000000" d="M855.7386,-268.1127C867.2141,-252.1905 884.5951,-228.0743 896.1191,-212.0848"/>
<text text-anchor="middle" x="896.75" y="-235.8" font-family="Times,serif" font-size="14.00" fill="#000000">16.37</text>
</g>
<!-- 18 -->
<g id="node12" class="node">
<title>18</title>
<ellipse fill="none" stroke="#ff0000" cx="597" cy="-195.6" rx="27" ry="18"/>
<text text-anchor="middle" x="597" y="-191.4" font-family="Times,serif" font-size="14.00" fill="#000000">18</text>
</g>
<!-- 11&#45;&#45;18 -->
<g id="edge8" class="edge">
<title>11&#45;&#45;18</title>
<path fill="none" stroke="#000000" d="M826.1155,-270.7054C807.508,-256.7224 779.3926,-236.4046 767,-231.6 713.0257,-210.6743 693.6953,-229.3844 638,-213.6 631.5678,-211.7771 624.8303,-209.1476 618.7184,-206.4591"/>
<text text-anchor="middle" x="809.75" y="-235.8" font-family="Times,serif" font-size="14.00" fill="#000000">16.27</text>
</g>
<!-- 21 -->
<g id="node15" class="node">
<title>21</title>
<ellipse fill="none" stroke="#0000ff" cx="827" cy="-195.6" rx="27" ry="18"/>
<text text-anchor="middle" x="827" y="-191.4" font-family="Times,serif" font-size="14.00" fill="#000000">21</text>
</g>
<!-- 11&#45;&#45;21 -->
<g id="edge9" class="edge">
<title>11&#45;&#45;21</title>
<path fill="none" stroke="#000000" d="M840.5598,-266.43C837.6104,-251.0236 833.383,-228.942 830.4351,-213.5433"/>
<text text-anchor="middle" x="849.25" y="-235.8" font-family="Times,serif" font-size="14.00" fill="#000000">1.56</text>
</g>
<!-- 7 -->
<g id="node13" class="node">
<title>7</title>
<ellipse fill="none" stroke="#0000ff" cx="597" cy="-106.8" rx="27" ry="18"/>
<text text-anchor="middle" x="597" y="-102.6" font-family="Times,serif" font-size="14.00" fill="#000000">7</text>
</g>
<!-- 18&#45;&#45;7 -->
<g id="edge11" class="edge">
<title>18&#45;&#45;7</title>
<path fill="none" stroke="#000000" d="M597,-177.2006C597,-161.8587 597,-140.122 597,-124.872"/>
<text text-anchor="middle" x="612.75" y="-147" font-family="Times,serif" font-size="14.00" fill="#000000">13.66</text>
</g>
<!-- 0 -->
<g id="node14" class="node">
<title>0</title>
<ellipse fill="none" stroke="#0000ff" cx="597" cy="-18" rx="27" ry="18"/>
<text text-anchor="middle" x="597" y="-13.8" font-family="Times,serif" font-size="14.00" fill="#000000">0</text>
</g>
<!-- 7&#45;&#45;0 -->
<g id="edge12" class="edge">
<title>7&#45;&#45;0</title>
<path fill="none" stroke="#000000" d="M597,-88.4006C597,-73.0587 597,-51.322 597,-36.072"/>
<text text-anchor="middle" x="612.75" y="-58.2" font-family="Times,serif" font-size="14.00" fill="#000000">14.61</text>
</g>
<!-- 15 -->
<g id="node16" class="node">
<title>15</title>
<ellipse fill="none" stroke="#0000ff" cx="300" cy="-373.2" rx="27" ry="18"/>
<text text-anchor="middle" x="300" y="-369" font-family="Times,serif" font-size="14.00" fill="#000000">15</text>
</g>
<!-- 15&#45;&#45;23 -->
<g id="edge13" class="edge">
<title>15&#45;&#45;23</title>
<path fill="none" stroke="#000000" d="M300,-354.8006C300,-339.4587 300,-317.722 300,-302.472"/>
<text text-anchor="middle" x="315.75" y="-324.6" font-family="Times,serif" font-size="14.00" fill="#000000">16.02</text>
</g>
<!-- 17 -->
<g id="node17" class="node">
<title>17</title>
<ellipse fill="none" stroke="#0000ff" cx="27" cy="-195.6" rx="27" ry="18"/>
<text text-anchor="middle" x="27" y="-191.4" font-family="Times,serif" font-size="14.00" fill="#000000">17</text>
</g>
<!-- 19 -->
<g id="node18" class="node">
<title>19</title>
<ellipse fill="none" stroke="#ff0000" cx="99" cy="-195.6" rx="27" ry="18"/>
<text text-anchor="middle" x="99" y="-191.4" font-family="Times,serif" font-size="14.00" fill="#000000">19</text>
</g>
<!-- 2 -->
<g id="node19" class="node">
<title>2</title>
<ellipse fill="none" stroke="#ff0000" cx="99" cy="-284.4" rx="27" ry="18"/>
<text text-anchor="middle" x="99" y="-280.2" font-family="Times,serif" font-size="14.00" fill="#000000">2</text>
</g>
<!-- 2&#45;&#45;16 -->
<g id="edge14" class="edge">
<title>2&#45;&#45;16</title>
<path fill="none" stroke="#000000" d="M117.1195,-270.7173C131.8121,-259.7857 153.1791,-244.2545 172.5,-231.6 185.4851,-223.0952 200.4761,-214.1689 212.2871,-207.3323"/>
<text text-anchor="middle" x="188.75" y="-235.8" font-family="Times,serif" font-size="14.00" fill="#000000">13.65</text>
</g>
<!-- 2&#45;&#45;17 -->
<g id="edge15" class="edge">
<title>2&#45;&#45;17</title>
<path fill="none" stroke="#000000" d="M86.1278,-268.5243C73.1034,-252.4608 53.0748,-227.7589 40.0035,-211.6376"/>
<text text-anchor="middle" x="82.25" y="-235.8" font-family="Times,serif" font-size="14.00" fill="#000000">7.38</text>
</g>
<!-- 2&#45;&#45;19 -->
<g id="edge16" class="edge">
<title>2&#45;&#45;19</title>
<path fill="none" stroke="#000000" d="M99,-266.0006C99,-250.6587 99,-228.922 99,-213.672"/>
<text text-anchor="middle" x="114.75" y="-235.8" font-family="Times,serif" font-size="14.00" fill="#000000">15.56</text>
</g>
<!-- 3 -->
<g id="node20" class="node">
<title>3</title>
<ellipse fill="none" stroke="#0000ff" cx="209" cy="-284.4" rx="27" ry="18"/>
<text text-anchor="middle" x="209" y="-280.2" font-family="Times,serif" font-size="14.00" fill="#000000">3</text>
</g>
<!-- 3&#45;&#45;16 -->
<g id="edge17" class="edge">
<title>3&#45;&#45;16</title>
<path fill="none" stroke="#000000" d="M207.2031,-266.4271C206.7291,-256.0361 207.1041,-242.8361 210.5,-231.6 212.6323,-224.5449 216.5319,-217.5084 220.4928,-211.5525"/>
<text text-anchor="middle" x="223.25" y="-235.8" font-family="Times,serif" font-size="14.00" fill="#000000">5.20</text>
</g>
<!-- 4 -->
<g id="node21" class="node">
<title>4</title>
<ellipse fill="none" stroke="#0000ff" cx="379" cy="-284.4" rx="27" ry="18"/>
<text text-anchor="middle" x="379" y="-280.2" font-family="Times,serif" font-size="14.00" fill="#000000">4</text>
</g>
<!-- 4&#45;&#45;16 -->
<g id="edge18" class="edge">
<title>4&#45;&#45;16</title>
<path fill="none" stroke="#000000" d="M371.5944,-266.9282C365.8812,-255.3906 356.9335,-240.7635 345,-231.6 319.8911,-212.3194 284.1291,-203.1891 259.8191,-198.9858"/>
<text text-anchor="middle" x="373.25" y="-235.8" font-family="Times,serif" font-size="14.00" fill="#000000">6.73</text>
</g>
<!-- 4&#45;&#45;18 -->
<g id="edge19" class="edge">
<title>4&#45;&#45;18</title>
<path fill="none" stroke="#000000" d="M390.7911,-267.7C400.317,-255.5836 414.8466,-239.9169 431.5,-231.6 483.4863,-205.6373 505.5016,-230.8212 561,-213.6 566.0721,-212.0261 571.3055,-209.8003 576.1574,-207.4484"/>
<text text-anchor="middle" x="447.75" y="-235.8" font-family="Times,serif" font-size="14.00" fill="#000000">24.95</text>
</g>
<!-- 6 -->
<g id="node22" class="node">
<title>6</title>
<ellipse fill="none" stroke="#ff0000" cx="497" cy="-284.4" rx="27" ry="18"/>
<text text-anchor="middle" x="497" y="-280.2" font-family="Times,serif" font-size="14.00" fill="#000000">6</text>
</g>
<!-- 6&#45;&#45;14 -->
<g id="edge20" class="edge">
<title>6&#45;&#45;14</title>
<path fill="none" stroke="#000000" d="M485.2538,-267.9847C481.2406,-261.9853 476.909,-255.0397 473.5,-248.4 467.7511,-237.2029 462.6261,-224.0029 458.9383,-213.6022"/>
<text text-anchor="middle" x="489.75" y="-235.8" font-family="Times,serif" font-size="14.00" fill="#000000">11.28</text>
</g>
<!-- 9 -->
<g id="node23" class="node">
<title>9</title>
<ellipse fill="none" stroke="#ff0000" cx="525" cy="-195.6" rx="27" ry="18"/>
<text text-anchor="middle" x="525" y="-191.4" font-family="Times,serif" font-size="14.00" fill="#000000">9</text>
</g>
<!-- 6&#45;&#45;9 -->
<g id="edge21" class="edge">
<title>6&#45;&#45;9</title>
<path fill="none" stroke="#000000" d="M502.6662,-266.43C507.5561,-250.9222 514.5785,-228.6511 519.4378,-213.2402"/>
<text text-anchor="middle" x="526.25" y="-235.8" font-family="Times,serif" font-size="14.00" fill="#000000">2.41</text>
</g>
<!-- 8 -->
<g id="node24" class="node">
<title>8</title>
<ellipse fill="none" stroke="#ff0000" cx="693" cy="-284.4" rx="27" ry="18"/>
<text text-anchor="middle" x="693" y="-280.2" font-family="Times,serif" font-size="14.00" fill="#000000">8</text>
</g>
<!-- 8&#45;&#45;22 -->
<g id="edge23" class="edge">
<title>8&#45;&#45;22</title>
<path fill="none" stroke="#000000" d="M690.2942,-266.0969C689.5172,-255.5959 689.8922,-242.3959 694.5,-231.6 698.2213,-222.8811 705.121,-215.1115 711.855,-209.0421"/>
<text text-anchor="middle" x="706.25" y="-235.8" font-family="Times,serif" font-size="14.00" fill="#000000">5.43</text>
</g>
<!-- 8&#45;&#45;5 -->
<g id="edge22" class="edge">
<title>8&#45;&#45;5</title>
<path fill="none" stroke="#000000" d="M686.5006,-266.665C673.1371,-230.5917 642.9934,-151.3461 633,-142.8 633,-142.8 555.7524,-123.4881 514.4128,-113.1532"/>
<text text-anchor="middle" x="678.25" y="-191.4" font-family="Times,serif" font-size="14.00" fill="#000000">2.51</text>
</g>
<!-- 8&#45;&#45;21 -->
<g id="edge24" class="edge">
<title>8&#45;&#45;21</title>
<path fill="none" stroke="#000000" d="M705.3996,-267.9107C714.631,-256.5262 728.0835,-241.6802 742.5,-231.6 760.9263,-218.7161 784.6888,-209.1037 802.3196,-203.0674"/>
<text text-anchor="middle" x="754.25" y="-235.8" font-family="Times,serif" font-size="14.00" fill="#000000">2.91</text>
</g>
<!-- 20 -->
<g id="node25" class="node">
<title>20</title>
<ellipse fill="none" stroke="#0000ff" cx="947" cy="-284.4" rx="27" ry="18"/>
<text text-anchor="middle" x="947" y="-280.2" font-family="Times,serif" font-size="14.00" fill="#000000">20</text>
</g>
<!-- 20&#45;&#45;24 -->
<g id="edge25" class="edge">
<title>20&#45;&#45;24</title>
<path fill="none" stroke="#000000" d="M939.8698,-266.7126C935.6597,-256.4168 930.1597,-243.2168 925,-231.6 922.2505,-225.4096 919.1148,-218.6831 916.2915,-212.7381"/>
<text text-anchor="middle" x="946.75" y="-235.8" font-family="Times,serif" font-size="14.00" fill="#000000">10.94</text>
</g>
</g>
</svg>
