<svg width="1920px" height="1168px"
 viewBox="0.00 0.00 801.50 488.00" xmlns="http://www.w3.org/2000/svg" xmlns:xlink="http://www.w3.org/1999/xlink">
<g id="graph0" class="graph" transform="scale(1.0 1.0) rotate(0) translate(4 484)">
<title>%0</title>
<polygon fill="#ffffff" stroke="transparent" points="-4,4 -4,-484 797.5,-484 797.5,4 -4,4"/>
<!-- 22 -->
<g id="node1" class="node">
<title>22</title>
<ellipse fill="none" stroke="#ff0000" cx="572" cy="-195.6" rx="27" ry="18"/>
<text text-anchor="middle" x="572" y="-191.4" font-family="Times,serif" font-size="14.00" fill="#000000">22</text>
</g>
<!-- 8 -->
<g id="node2" class="node">
<title>8</title>
<ellipse fill="none" stroke="#000000" cx="584" cy="-106.8" rx="27" ry="18"/>
<text text-anchor="middle" x="584" y="-102.6" font-family="Times,serif" font-size="14.00" fill="#000000">8</text>
</g>
<!-- 22&#45;&#45;8 -->
<g id="edge1" class="edge">
<title>22&#45;&#45;8</title>
<path fill="none" stroke="#000000" d="M574.4284,-177.63C576.5103,-162.2236 579.4943,-140.142 581.5752,-124.7433"/>
<text text-anchor="middle" x="595.75" y="-147" font-family="Times,serif" font-size="14.00" fill="#000000">14.49</text>
</g>
<!-- 7 -->
<g id="node3" class="node">
<title>7</title>
<ellipse fill="none" stroke="#000000" cx="488" cy="-106.8" rx="27" ry="18"/>
<text text-anchor="middle" x="488" y="-102.6" font-family="Times,serif" font-size="14.00" fill="#000000">7</text>
</g>
<!-- 22&#45;&#45;7 -->
<g id="edge2" class="edge">
<title>22&#45;&#45;7</title>
<path fill="none" stroke="#000000" d="M557.3683,-180.1322C541.9507,-163.8336 517.8181,-138.322 502.464,-122.0905"/>
<text text-anchor="middle" x="550.25" y="-147" font-family="Times,serif" font-size="14.00" fill="#000000">8.95</text>
</g>
<!-- 23 -->
<g id="node4" class="node">
<title>23</title>
<ellipse fill="none" stroke="#000000" cx="99" cy="-106.8" rx="27" ry="18"/>
<text text-anchor="middle" x="99" y="-102.6" font-family="Times,serif" font-size="14.00" fill="#000000">23</text>
</g>
<!-- 24 -->
<g id="node5" class="node">
<title>24</title>
<ellipse fill="none" stroke="#000000" cx="762" cy="-284.4" rx="27" ry="18"/>
<text text-anchor="middle" x="762" y="-280.2" font-family="Times,serif" font-size="14.00" fill="#000000">24</text>
</g>
<!-- 6 -->
<g id="node6" class="node">
<title>6</title>
<ellipse fill="none" stroke="#000000" cx="762" cy="-195.6" rx="27" ry="18"/>
<text text-anchor="middle" x="762" y="-191.4" font-family="Times,serif" font-size="14.00" fill="#000000">6</text>
</g>
<!-- 24&#45;&#45;6 -->
<g id="edge3" class="edge">
<title>24&#45;&#45;6</title>
<path fill="none" stroke="#000000" d="M762,-266.0006C762,-250.6587 762,-228.922 762,-213.672"/>
<text text-anchor="middle" x="777.75" y="-235.8" font-family="Times,serif" font-size="14.00" fill="#000000">18.87</text>
</g>
<!-- 10 -->
<g id="node7" class="node">
<title>10</title>
<ellipse fill="none" stroke="#ff0000" cx="762" cy="-373.2" rx="27" ry="18"/>
<text text-anchor="middle" x="762" y="-369" font-family="Times,serif" font-size="14.00" fill="#000000">10</text>
</g>
<!-- 10&#45;&#45;24 -->
<g id="edge4" class="edge">
<title>10&#45;&#45;24</title>
<path fill="none" stroke="#000000" d="M762,-354.8006C762,-339.4587 762,-317.722 762,-302.472"/>
<text text-anchor="middle" x="774.25" y="-324.6" font-family="Times,serif" font-size="14.00" fill="#000000">4.27</text>
</g>
<!-- 3 -->
<g id="node8" class="node">
<title>3</title>
<ellipse fill="none" stroke="#ff0000" cx="682" cy="-284.4" rx="27" ry="18"/>
<text text-anchor="middle" x="682" y="-280.2" font-family="Times,serif" font-size="14.00" fill="#000000">3</text>
</g>
<!-- 10&#45;&#45;3 -->
<g id="edge5" class="edge">
<title>10&#45;&#45;3</title>
<path fill="none" stroke="#000000" d="M746.5285,-358.0391C740.2039,-351.7064 732.8876,-344.2047 726.5,-337.2 715.5143,-325.1531 703.6419,-311.0044 694.9253,-300.3871"/>
<text text-anchor="middle" x="741.75" y="-324.6" font-family="Times,serif" font-size="14.00" fill="#000000">17.24</text>
</g>
<!-- 4 -->
<g id="node9" class="node">
<title>4</title>
<ellipse fill="none" stroke="#000000" cx="663" cy="-195.6" rx="27" ry="18"/>
<text text-anchor="middle" x="663" y="-191.4" font-family="Times,serif" font-size="14.00" fill="#000000">4</text>
</g>
<!-- 3&#45;&#45;4 -->
<g id="edge6" class="edge">
<title>3&#45;&#45;4</title>
<path fill="none" stroke="#000000" d="M678.1551,-266.43C674.8587,-251.0236 670.134,-228.942 666.8392,-213.5433"/>
<text text-anchor="middle" x="689.75" y="-235.8" font-family="Times,serif" font-size="14.00" fill="#000000">10.78</text>
</g>
<!-- 11 -->
<g id="node10" class="node">
<title>11</title>
<ellipse fill="none" stroke="#000000" cx="162" cy="-284.4" rx="27" ry="18"/>
<text text-anchor="middle" x="162" y="-280.2" font-family="Times,serif" font-size="14.00" fill="#000000">11</text>
</g>
<!-- 13 -->
<g id="node11" class="node">
<title>13</title>
<ellipse fill="none" stroke="#ff0000" cx="162" cy="-195.6" rx="27" ry="18"/>
<text text-anchor="middle" x="162" y="-191.4" font-family="Times,serif" font-size="14.00" fill="#000000">13</text>
</g>
<!-- 11&#45;&#45;13 -->
<g id="edge7" class="edge">
<title>11&#45;&#45;13</title>
<path fill="none" stroke="#000000" d="M162,-266.0006C162,-250.6587 162,-228.922 162,-213.672"/>
<text text-anchor="middle" x="177.75" y="-235.8" font-family="Times,serif" font-size="14.00" fill="#000000">15.48</text>
</g>
<!-- 13&#45;&#45;23 -->
<g id="edge9" class="edge">
<title>13&#45;&#45;23</title>
<path fill="none" stroke="#000000" d="M145.9111,-180.6443C139.7461,-174.4639 132.9026,-167.017 127.5,-159.6 119.4043,-148.4858 112.08,-134.7952 106.884,-124.1401"/>
<text text-anchor="middle" x="143.75" y="-147" font-family="Times,serif" font-size="14.00" fill="#000000">16.87</text>
</g>
<!-- 21 -->
<g id="node12" class="node">
<title>21</title>
<ellipse fill="none" stroke="#ff0000" cx="272" cy="-106.8" rx="27" ry="18"/>
<text text-anchor="middle" x="272" y="-102.6" font-family="Times,serif" font-size="14.00" fill="#000000">21</text>
</g>
<!-- 13&#45;&#45;21 -->
<g id="edge8" class="edge">
<title>13&#45;&#45;21</title>
<path fill="none" stroke="#000000" d="M179.6734,-181.3327C200.3221,-164.6636 234.2608,-137.2658 254.7331,-120.7391"/>
<text text-anchor="middle" x="242.75" y="-147" font-family="Times,serif" font-size="14.00" fill="#000000">23.99</text>
</g>
<!-- 2 -->
<g id="node13" class="node">
<title>2</title>
<ellipse fill="none" stroke="#ff0000" cx="171" cy="-106.8" rx="27" ry="18"/>
<text text-anchor="middle" x="171" y="-102.6" font-family="Times,serif" font-size="14.00" fill="#000000">2</text>
</g>
<!-- 13&#45;&#45;2 -->
<g id="edge10" class="edge">
<title>13&#45;&#45;2</title>
<path fill="none" stroke="#000000" d="M161.725,-177.4592C161.7679,-167.2458 162.1524,-154.2758 163.5,-142.8 164.1999,-136.8398 165.397,-130.4029 166.6319,-124.6429"/>
<text text-anchor="middle" x="179.75" y="-147" font-family="Times,serif" font-size="14.00" fill="#000000">10.58</text>
</g>
<!-- 5 -->
<g id="node14" class="node">
<title>5</title>
<ellipse fill="none" stroke="#000000" cx="51" cy="-18" rx="27" ry="18"/>
<text text-anchor="middle" x="51" y="-13.8" font-family="Times,serif" font-size="14.00" fill="#000000">5</text>
</g>
<!-- 2&#45;&#45;5 -->
<g id="edge11" class="edge">
<title>2&#45;&#45;5</title>
<path fill="none" stroke="#000000" d="M152.7746,-93.3132C130.22,-76.6228 92.0305,-48.3625 69.3969,-31.6137"/>
<text text-anchor="middle" x="134.25" y="-58.2" font-family="Times,serif" font-size="14.00" fill="#000000">0.37</text>
</g>
<!-- 12 -->
<g id="node15" class="node">
<title>12</title>
<ellipse fill="none" stroke="#ff0000" cx="591" cy="-284.4" rx="27" ry="18"/>
<text text-anchor="middle" x="591" y="-280.2" font-family="Times,serif" font-size="14.00" fill="#000000">12</text>
</g>
<!-- 12&#45;&#45;22 -->
<g id="edge12" class="edge">
<title>12&#45;&#45;22</title>
<path fill="none" stroke="#000000" d="M580.8988,-267.3837C577.9467,-261.5618 575.0886,-254.8794 573.5,-248.4 570.7485,-237.1777 570.3421,-224.2117 570.639,-213.9369"/>
<text text-anchor="middle" x="589.75" y="-235.8" font-family="Times,serif" font-size="14.00" fill="#000000">22.49</text>
</g>
<!-- 12&#45;&#45;4 -->
<g id="edge13" class="edge">
<title>12&#45;&#45;4</title>
<path fill="none" stroke="#000000" d="M603.8722,-268.5243C616.8966,-252.4608 636.9252,-227.7589 649.9965,-211.6376"/>
<text text-anchor="middle" x="648.75" y="-235.8" font-family="Times,serif" font-size="14.00" fill="#000000">12.54</text>
</g>
<!-- 14 -->
<g id="node16" class="node">
<title>14</title>
<ellipse fill="none" stroke="#ff0000" cx="374" cy="-284.4" rx="27" ry="18"/>
<text text-anchor="middle" x="374" y="-280.2" font-family="Times,serif" font-size="14.00" fill="#000000">14</text>
</g>
<!-- 15 -->
<g id="node17" class="node">
<title>15</title>
<ellipse fill="none" stroke="#ff0000" cx="416" cy="-195.6" rx="27" ry="18"/>
<text text-anchor="middle" x="416" y="-191.4" font-family="Times,serif" font-size="14.00" fill="#000000">15</text>
</g>
<!-- 14&#45;&#45;15 -->
<g id="edge14" class="edge">
<title>14&#45;&#45;15</title>
<path fill="none" stroke="#000000" d="M382.2978,-266.856C389.7088,-251.187 400.5005,-228.3703 407.8623,-212.8054"/>
<text text-anchor="middle" x="411.25" y="-235.8" font-family="Times,serif" font-size="14.00" fill="#000000">6.24</text>
</g>
<!-- 9 -->
<g id="node18" class="node">
<title>9</title>
<ellipse fill="none" stroke="#ff0000" cx="344" cy="-195.6" rx="27" ry="18"/>
<text text-anchor="middle" x="344" y="-191.4" font-family="Times,serif" font-size="14.00" fill="#000000">9</text>
</g>
<!-- 14&#45;&#45;9 -->
<g id="edge15" class="edge">
<title>14&#45;&#45;9</title>
<path fill="none" stroke="#000000" d="M365.3004,-267.0823C362.572,-261.2403 359.7013,-254.6223 357.5,-248.4 353.4607,-236.9827 350.0857,-223.7827 347.7206,-213.437"/>
<text text-anchor="middle" x="370.25" y="-235.8" font-family="Times,serif" font-size="14.00" fill="#000000">5.55</text>
</g>
<!-- 15&#45;&#45;7 -->
<g id="edge16" class="edge">
<title>15&#45;&#45;7</title>
<path fill="none" stroke="#000000" d="M428.8722,-179.7243C441.8966,-163.6608 461.9252,-138.9589 474.9965,-122.8376"/>
<text text-anchor="middle" x="471.25" y="-147" font-family="Times,serif" font-size="14.00" fill="#000000">4.01</text>
</g>
<!-- 15&#45;&#45;21 -->
<g id="edge17" class="edge">
<title>15&#45;&#45;21</title>
<path fill="none" stroke="#000000" d="M395.9774,-183.2527C368.4658,-166.2872 319.2745,-135.9526 291.8525,-119.0424"/>
<text text-anchor="middle" x="369.25" y="-147" font-family="Times,serif" font-size="14.00" fill="#000000">7.78</text>
</g>
<!-- 16 -->
<g id="node19" class="node">
<title>16</title>
<ellipse fill="none" stroke="#ff0000" cx="272" cy="-195.6" rx="27" ry="18"/>
<text text-anchor="middle" x="272" y="-191.4" font-family="Times,serif" font-size="14.00" fill="#000000">16</text>
</g>
<!-- 16&#45;&#45;21 -->
<g id="edge18" class="edge">
<title>16&#45;&#45;21</title>
<path fill="none" stroke="#000000" d="M272,-177.2006C272,-161.8587 272,-140.122 272,-124.872"/>
<text text-anchor="middle" x="284.25" y="-147" font-family="Times,serif" font-size="14.00" fill="#000000">8.13</text>
</g>
<!-- 17 -->
<g id="node20" class="node">
<title>17</title>
<ellipse fill="none" stroke="#000000" cx="488" cy="-195.6" rx="27" ry="18"/>
<text text-anchor="middle" x="488" y="-191.4" font-family="Times,serif" font-size="14.00" fill="#000000">17</text>
</g>
<!-- 17&#45;&#45;7 -->
<g id="edge19" class="edge">
<title>17&#45;&#45;7</title>
<path fill="none" stroke="#000000" d="M488,-177.2006C488,-161.8587 488,-140.122 488,-124.872"/>
<text text-anchor="middle" x="500.25" y="-147" font-family="Times,serif" font-size="14.00" fill="#000000">8.18</text>
</g>
<!-- 18 -->
<g id="node21" class="node">
<title>18</title>
<ellipse fill="none" stroke="#ff0000" cx="27" cy="-106.8" rx="27" ry="18"/>
<text text-anchor="middle" x="27" y="-102.6" font-family="Times,serif" font-size="14.00" fill="#000000">18</text>
</g>
<!-- 18&#45;&#45;5 -->
<g id="edge20" class="edge">
<title>18&#45;&#45;5</title>
<path fill="none" stroke="#000000" d="M31.8568,-88.83C36.0207,-73.4236 41.9887,-51.342 46.1505,-35.9433"/>
<text text-anchor="middle" x="54.25" y="-58.2" font-family="Times,serif" font-size="14.00" fill="#000000">0.20</text>
</g>
<!-- 19 -->
<g id="node22" class="node">
<title>19</title>
<ellipse fill="none" stroke="#ff0000" cx="618" cy="-373.2" rx="27" ry="18"/>
<text text-anchor="middle" x="618" y="-369" font-family="Times,serif" font-size="14.00" fill="#000000">19</text>
</g>
<!-- 19&#45;&#45;3 -->
<g id="edge21" class="edge">
<title>19&#45;&#45;3</title>
<path fill="none" stroke="#000000" d="M623.2721,-355.5201C627.0159,-344.7371 632.756,-331.0314 640.5,-320.4 646.7896,-311.7653 655.5191,-303.7954 663.3498,-297.5612"/>
<text text-anchor="middle" x="655.75" y="-324.6" font-family="Times,serif" font-size="14.00" fill="#000000">17.67</text>
</g>
<!-- 0 -->
<g id="node23" class="node">
<title>0</title>
<ellipse fill="none" stroke="#000000" cx="717" cy="-462" rx="27" ry="18"/>
<text text-anchor="middle" x="717" y="-457.8" font-family="Times,serif" font-size="14.00" fill="#000000">0</text>
</g>
<!-- 0&#45;&#45;10 -->
<g id="edge22" class="edge">
<title>0&#45;&#45;10</title>
<path fill="none" stroke="#000000" d="M725.6765,-444.8785C733.6449,-429.154 745.3901,-405.9768 753.3502,-390.269"/>
<text text-anchor="middle" x="755.25" y="-413.4" font-family="Times,serif" font-size="14.00" fill="#000000">9.83</text>
</g>
<!-- 20 -->
<g id="node24" class="node">
<title>20</title>
<ellipse fill="none" stroke="#000000" cx="690" cy="-373.2" rx="27" ry="18"/>
<text text-anchor="middle" x="690" y="-369" font-family="Times,serif" font-size="14.00" fill="#000000">20</text>
</g>
<!-- 0&#45;&#45;20 -->
<g id="edge23" class="edge">
<title>0&#45;&#45;20</title>
<path fill="none" stroke="#000000" d="M707.4611,-444.8233C704.5465,-438.9907 701.5685,-432.3426 699.5,-426 695.8614,-414.8429 693.5032,-401.8778 692.0464,-391.5873"/>
<text text-anchor="middle" x="714.75" y="-413.4" font-family="Times,serif" font-size="14.00" fill="#000000">14.76</text>
</g>
<!-- 1 -->
<g id="node25" class="node">
<title>1</title>
<ellipse fill="none" stroke="#ff0000" cx="374" cy="-373.2" rx="27" ry="18"/>
<text text-anchor="middle" x="374" y="-369" font-family="Times,serif" font-size="14.00" fill="#000000">1</text>
</g>
<!-- 1&#45;&#45;14 -->
<g id="edge24" class="edge">
<title>1&#45;&#45;14</title>
<path fill="none" stroke="#000000" d="M374,-354.8006C374,-339.4587 374,-317.722 374,-302.472"/>
<text text-anchor="middle" x="389.75" y="-324.6" font-family="Times,serif" font-size="14.00" fill="#000000">21.62</text>
</g>
</g>
</svg>
