<svg width="1920px" height="1092px"
 viewBox="0.00 0.00 857.50 488.00" xmlns="http://www.w3.org/2000/svg" xmlns:xlink="http://www.w3.org/1999/xlink">
<g id="graph0" class="graph" transform="scale(1.0 1.0) rotate(0) translate(4 484)">
<title>%0</title>
<polygon fill="#ffffff" stroke="transparent" points="-4,4 -4,-484 853.5,-484 853.5,4 -4,4"/>
<!-- 22 -->
<g id="node1" class="node">
<title>22</title>
<ellipse fill="none" stroke="#ff0000" cx="118" cy="-462" rx="27" ry="18"/>
<text text-anchor="middle" x="118" y="-457.8" font-family="Times,serif" font-size="14.00" fill="#000000">22</text>
</g>
<!-- 0 -->
<g id="node2" class="node">
<title>0</title>
<ellipse fill="none" stroke="#ff0000" cx="118" cy="-373.2" rx="27" ry="18"/>
<text text-anchor="middle" x="118" y="-369" font-family="Times,serif" font-size="14.00" fill="#000000">0</text>
</g>
<!-- 22&#45;&#45;0 -->
<g id="edge1" class="edge">
<title>22&#45;&#45;0</title>
<path fill="none" stroke="#000000" d="M118,-443.6006C118,-428.2587 118,-406.522 118,-391.272"/>
<text text-anchor="middle" x="133.75" y="-413.4" font-family="Times,serif" font-size="14.00" fill="#000000">10.90</text>
</g>
<!-- 7 -->
<g id="node3" class="node">
<title>7</title>
<ellipse fill="none" stroke="#ff0000" cx="82" cy="-284.4" rx="27" ry="18"/>
<text text-anchor="middle" x="82" y="-280.2" font-family="Times,serif" font-size="14.00" fill="#000000">7</text>
</g>
<!-- 0&#45;&#45;7 -->
<g id="edge2" class="edge">
<title>0&#45;&#45;7</title>
<path fill="none" stroke="#000000" d="M99.9944,-359.3237C93.5654,-353.292 87.0417,-345.665 83.5,-337.2 78.9694,-326.3715 78.5944,-313.1715 79.3521,-302.6786"/>
<text text-anchor="middle" x="99.75" y="-324.6" font-family="Times,serif" font-size="14.00" fill="#000000">16.38</text>
</g>
<!-- 4 -->
<g id="node5" class="node">
<title>4</title>
<ellipse fill="none" stroke="#0000ff" cx="287" cy="-284.4" rx="27" ry="18"/>
<text text-anchor="middle" x="287" y="-280.2" font-family="Times,serif" font-size="14.00" fill="#000000">4</text>
</g>
<!-- 0&#45;&#45;4 -->
<g id="edge3" class="edge">
<title>0&#45;&#45;4</title>
<path fill="none" stroke="#000000" d="M119.1772,-355.1396C120.8827,-343.647 124.9421,-329.3018 134.5,-320.4 152.5655,-303.5747 221.6702,-292.5115 260.3613,-287.4972"/>
<text text-anchor="middle" x="147.25" y="-324.6" font-family="Times,serif" font-size="14.00" fill="#000000">9.67</text>
</g>
<!-- 8 -->
<g id="node4" class="node">
<title>8</title>
<ellipse fill="none" stroke="#ff0000" cx="82" cy="-195.6" rx="27" ry="18"/>
<text text-anchor="middle" x="82" y="-191.4" font-family="Times,serif" font-size="14.00" fill="#000000">8</text>
</g>
<!-- 7&#45;&#45;8 -->
<g id="edge4" class="edge">
<title>7&#45;&#45;8</title>
<path fill="none" stroke="#000000" d="M82,-266.0006C82,-250.6587 82,-228.922 82,-213.672"/>
<text text-anchor="middle" x="97.75" y="-235.8" font-family="Times,serif" font-size="14.00" fill="#000000">19.65</text>
</g>
<!-- 24 -->
<g id="node6" class="node">
<title>24</title>
<ellipse fill="none" stroke="#ff0000" cx="309" cy="-195.6" rx="27" ry="18"/>
<text text-anchor="middle" x="309" y="-191.4" font-family="Times,serif" font-size="14.00" fill="#000000">24</text>
</g>
<!-- 4&#45;&#45;24 -->
<g id="edge5" class="edge">
<title>4&#45;&#45;24</title>
<path fill="none" stroke="#000000" d="M291.452,-266.43C295.2689,-251.0236 300.7396,-228.942 304.5546,-213.5433"/>
<text text-anchor="middle" x="314.75" y="-235.8" font-family="Times,serif" font-size="14.00" fill="#000000">24.43</text>
</g>
<!-- 23 -->
<g id="node7" class="node">
<title>23</title>
<ellipse fill="none" stroke="#ff0000" cx="555" cy="-462" rx="27" ry="18"/>
<text text-anchor="middle" x="555" y="-457.8" font-family="Times,serif" font-size="14.00" fill="#000000">23</text>
</g>
<!-- 21 -->
<g id="node8" class="node">
<title>21</title>
<ellipse fill="none" stroke="#ff0000" cx="560" cy="-284.4" rx="27" ry="18"/>
<text text-anchor="middle" x="560" y="-280.2" font-family="Times,serif" font-size="14.00" fill="#000000">21</text>
</g>
<!-- 23&#45;&#45;21 -->
<g id="edge6" class="edge">
<title>23&#45;&#45;21</title>
<path fill="none" stroke="#000000" d="M537.9396,-448.0482C523.5209,-435.0621 503.9107,-414.2808 495.5,-391.2 490.022,-376.167 489.7226,-370.1205 495.5,-355.2 504.7462,-331.3211 526.2092,-310.5506 541.8446,-297.7899"/>
<text text-anchor="middle" x="510.75" y="-369" font-family="Times,serif" font-size="14.00" fill="#000000">19.54</text>
</g>
<!-- 3 -->
<g id="node13" class="node">
<title>3</title>
<ellipse fill="none" stroke="#ff0000" cx="650" cy="-373.2" rx="27" ry="18"/>
<text text-anchor="middle" x="650" y="-369" font-family="Times,serif" font-size="14.00" fill="#000000">3</text>
</g>
<!-- 23&#45;&#45;3 -->
<g id="edge7" class="edge">
<title>23&#45;&#45;3</title>
<path fill="none" stroke="#000000" d="M570.6873,-447.3365C588.2893,-430.8833 616.6779,-404.3474 634.2894,-387.8853"/>
<text text-anchor="middle" x="626.75" y="-413.4" font-family="Times,serif" font-size="14.00" fill="#000000">11.08</text>
</g>
<!-- 14 -->
<g id="node14" class="node">
<title>14</title>
<ellipse fill="none" stroke="#0000ff" cx="563" cy="-373.2" rx="27" ry="18"/>
<text text-anchor="middle" x="563" y="-369" font-family="Times,serif" font-size="14.00" fill="#000000">14</text>
</g>
<!-- 23&#45;&#45;14 -->
<g id="edge8" class="edge">
<title>23&#45;&#45;14</title>
<path fill="none" stroke="#000000" d="M554.8439,-443.8724C554.924,-433.6631 555.306,-420.6928 556.5,-409.2 557.1169,-403.262 558.1571,-396.8309 559.2266,-391.0695"/>
<text text-anchor="middle" x="568.25" y="-413.4" font-family="Times,serif" font-size="14.00" fill="#000000">0.20</text>
</g>
<!-- 5 -->
<g id="node9" class="node">
<title>5</title>
<ellipse fill="none" stroke="#0000ff" cx="510" cy="-195.6" rx="27" ry="18"/>
<text text-anchor="middle" x="510" y="-191.4" font-family="Times,serif" font-size="14.00" fill="#000000">5</text>
</g>
<!-- 21&#45;&#45;5 -->
<g id="edge9" class="edge">
<title>21&#45;&#45;5</title>
<path fill="none" stroke="#000000" d="M550.3595,-267.2785C541.5056,-251.554 528.4554,-228.3768 519.6109,-212.669"/>
<text text-anchor="middle" x="551.25" y="-235.8" font-family="Times,serif" font-size="14.00" fill="#000000">4.66</text>
</g>
<!-- 19 -->
<g id="node10" class="node">
<title>19</title>
<ellipse fill="none" stroke="#0000ff" cx="690" cy="-106.8" rx="27" ry="18"/>
<text text-anchor="middle" x="690" y="-102.6" font-family="Times,serif" font-size="14.00" fill="#000000">19</text>
</g>
<!-- 5&#45;&#45;19 -->
<g id="edge10" class="edge">
<title>5&#45;&#45;19</title>
<path fill="none" stroke="#000000" d="M531.7122,-184.8886C566.309,-167.8209 633.5656,-134.641 668.2108,-117.5493"/>
<text text-anchor="middle" x="628.25" y="-147" font-family="Times,serif" font-size="14.00" fill="#000000">2.23</text>
</g>
<!-- 1 -->
<g id="node11" class="node">
<title>1</title>
<ellipse fill="none" stroke="#0000ff" cx="696" cy="-18" rx="27" ry="18"/>
<text text-anchor="middle" x="696" y="-13.8" font-family="Times,serif" font-size="14.00" fill="#000000">1</text>
</g>
<!-- 19&#45;&#45;1 -->
<g id="edge11" class="edge">
<title>19&#45;&#45;1</title>
<path fill="none" stroke="#000000" d="M691.2432,-88.4006C692.2798,-73.0587 693.7485,-51.322 694.7789,-36.072"/>
<text text-anchor="middle" x="708.75" y="-58.2" font-family="Times,serif" font-size="14.00" fill="#000000">17.10</text>
</g>
<!-- 17 -->
<g id="node12" class="node">
<title>17</title>
<ellipse fill="none" stroke="#ff0000" cx="615" cy="-18" rx="27" ry="18"/>
<text text-anchor="middle" x="615" y="-13.8" font-family="Times,serif" font-size="14.00" fill="#000000">17</text>
</g>
<!-- 19&#45;&#45;17 -->
<g id="edge12" class="edge">
<title>19&#45;&#45;17</title>
<path fill="none" stroke="#000000" d="M676.5915,-90.9243C662.9401,-74.761 641.9018,-49.8517 628.2924,-33.7382"/>
<text text-anchor="middle" x="671.25" y="-58.2" font-family="Times,serif" font-size="14.00" fill="#000000">8.05</text>
</g>
<!-- 14&#45;&#45;5 -->
<g id="edge14" class="edge">
<title>14&#45;&#45;5</title>
<path fill="none" stroke="#000000" d="M543.5302,-360.4392C526.4427,-347.9637 502.7627,-327.251 492.5,-302.4 480.1645,-272.5299 492.3046,-234.5865 501.5997,-212.9022"/>
<text text-anchor="middle" x="507.75" y="-280.2" font-family="Times,serif" font-size="14.00" fill="#000000">16.35</text>
</g>
<!-- 14&#45;&#45;17 -->
<g id="edge15" class="edge">
<title>14&#45;&#45;17</title>
<path fill="none" stroke="#000000" d="M578.6017,-358.0865C593.9186,-341.5585 615,-313.5207 615,-284.4 615,-284.4 615,-284.4 615,-106.8 615,-82.2875 615,-53.9689 615,-36.0279"/>
<text text-anchor="middle" x="627.25" y="-191.4" font-family="Times,serif" font-size="14.00" fill="#000000">7.07</text>
</g>
<!-- 20 -->
<g id="node15" class="node">
<title>20</title>
<ellipse fill="none" stroke="#0000ff" cx="670" cy="-284.4" rx="27" ry="18"/>
<text text-anchor="middle" x="670" y="-280.2" font-family="Times,serif" font-size="14.00" fill="#000000">20</text>
</g>
<!-- 14&#45;&#45;20 -->
<g id="edge13" class="edge">
<title>14&#45;&#45;20</title>
<path fill="none" stroke="#000000" d="M585.2318,-362.9686C597.8924,-356.5581 613.6424,-347.5581 626,-337.2 638.6198,-326.6221 650.4197,-312.1055 658.6166,-300.9703"/>
<text text-anchor="middle" x="654.25" y="-324.6" font-family="Times,serif" font-size="14.00" fill="#000000">7.50</text>
</g>
<!-- 20&#45;&#45;5 -->
<g id="edge16" class="edge">
<title>20&#45;&#45;5</title>
<path fill="none" stroke="#000000" d="M649.0828,-272.791C618.4189,-255.7725 561.5891,-224.232 530.9223,-207.2119"/>
<text text-anchor="middle" x="616.25" y="-235.8" font-family="Times,serif" font-size="14.00" fill="#000000">1.58</text>
</g>
<!-- 10 -->
<g id="node16" class="node">
<title>10</title>
<ellipse fill="none" stroke="#0000ff" cx="658" cy="-462" rx="27" ry="18"/>
<text text-anchor="middle" x="658" y="-457.8" font-family="Times,serif" font-size="14.00" fill="#000000">10</text>
</g>
<!-- 10&#45;&#45;3 -->
<g id="edge17" class="edge">
<title>10&#45;&#45;3</title>
<path fill="none" stroke="#000000" d="M656.3811,-444.03C655.0022,-428.725 653.0299,-406.8322 651.644,-391.4481"/>
<text text-anchor="middle" x="666.25" y="-413.4" font-family="Times,serif" font-size="14.00" fill="#000000">2.48</text>
</g>
<!-- 11 -->
<g id="node17" class="node">
<title>11</title>
<ellipse fill="none" stroke="#ff0000" cx="818" cy="-462" rx="27" ry="18"/>
<text text-anchor="middle" x="818" y="-457.8" font-family="Times,serif" font-size="14.00" fill="#000000">11</text>
</g>
<!-- 9 -->
<g id="node18" class="node">
<title>9</title>
<ellipse fill="none" stroke="#ff0000" cx="818" cy="-373.2" rx="27" ry="18"/>
<text text-anchor="middle" x="818" y="-369" font-family="Times,serif" font-size="14.00" fill="#000000">9</text>
</g>
<!-- 11&#45;&#45;9 -->
<g id="edge18" class="edge">
<title>11&#45;&#45;9</title>
<path fill="none" stroke="#000000" d="M818,-443.6006C818,-428.2587 818,-406.522 818,-391.272"/>
<text text-anchor="middle" x="833.75" y="-413.4" font-family="Times,serif" font-size="14.00" fill="#000000">22.39</text>
</g>
<!-- 9&#45;&#45;19 -->
<g id="edge20" class="edge">
<title>9&#45;&#45;19</title>
<path fill="none" stroke="#000000" d="M826.7631,-356.1686C831.0001,-345.8675 834.6518,-332.4399 832,-320.4 813.0829,-234.5116 738.8376,-154.0141 705.893,-121.7093"/>
<text text-anchor="middle" x="816.25" y="-235.8" font-family="Times,serif" font-size="14.00" fill="#000000">9.29</text>
</g>
<!-- 18 -->
<g id="node19" class="node">
<title>18</title>
<ellipse fill="none" stroke="#ff0000" cx="771" cy="-284.4" rx="27" ry="18"/>
<text text-anchor="middle" x="771" y="-280.2" font-family="Times,serif" font-size="14.00" fill="#000000">18</text>
</g>
<!-- 9&#45;&#45;18 -->
<g id="edge19" class="edge">
<title>9&#45;&#45;18</title>
<path fill="none" stroke="#000000" d="M808.9379,-356.0785C800.6153,-340.354 788.3481,-317.1768 780.0343,-301.469"/>
<text text-anchor="middle" x="813.75" y="-324.6" font-family="Times,serif" font-size="14.00" fill="#000000">23.94</text>
</g>
<!-- 12 -->
<g id="node20" class="node">
<title>12</title>
<ellipse fill="none" stroke="#ff0000" cx="359" cy="-284.4" rx="27" ry="18"/>
<text text-anchor="middle" x="359" y="-280.2" font-family="Times,serif" font-size="14.00" fill="#000000">12</text>
</g>
<!-- 12&#45;&#45;5 -->
<g id="edge21" class="edge">
<title>12&#45;&#45;5</title>
<path fill="none" stroke="#000000" d="M360.6381,-266.4177C362.6116,-254.9579 366.9539,-240.6201 376.5,-231.6 391.8542,-217.0918 449.196,-205.5168 483.5352,-199.6992"/>
<text text-anchor="middle" x="391.75" y="-235.8" font-family="Times,serif" font-size="14.00" fill="#000000">23.10</text>
</g>
<!-- 13 -->
<g id="node21" class="node">
<title>13</title>
<ellipse fill="none" stroke="#0000ff" cx="389" cy="-373.2" rx="27" ry="18"/>
<text text-anchor="middle" x="389" y="-369" font-family="Times,serif" font-size="14.00" fill="#000000">13</text>
</g>
<!-- 13&#45;&#45;4 -->
<g id="edge22" class="edge">
<title>13&#45;&#45;4</title>
<path fill="none" stroke="#000000" d="M372.1568,-358.5365C353.1446,-341.9848 322.412,-315.2292 303.5298,-298.7907"/>
<text text-anchor="middle" x="359.25" y="-324.6" font-family="Times,serif" font-size="14.00" fill="#000000">5.50</text>
</g>
<!-- 13&#45;&#45;5 -->
<g id="edge23" class="edge">
<title>13&#45;&#45;5</title>
<path fill="none" stroke="#000000" d="M399.569,-356.3731C412.9679,-335.1791 436.9248,-297.7416 458.5,-266.4 471.6002,-247.3698 487.2997,-225.9782 497.8934,-211.7383"/>
<text text-anchor="middle" x="470.25" y="-280.2" font-family="Times,serif" font-size="14.00" fill="#000000">0.70</text>
</g>
<!-- 15 -->
<g id="node22" class="node">
<title>15</title>
<ellipse fill="none" stroke="#0000ff" cx="731" cy="-373.2" rx="27" ry="18"/>
<text text-anchor="middle" x="731" y="-369" font-family="Times,serif" font-size="14.00" fill="#000000">15</text>
</g>
<!-- 15&#45;&#45;21 -->
<g id="edge24" class="edge">
<title>15&#45;&#45;21</title>
<path fill="none" stroke="#000000" d="M716.566,-357.4016C705.1773,-345.7575 688.3633,-330.2872 671,-320.4 643.8885,-304.9619 609.2271,-295.0702 585.9103,-289.6385"/>
<text text-anchor="middle" x="709.75" y="-324.6" font-family="Times,serif" font-size="14.00" fill="#000000">21.61</text>
</g>
<!-- 15&#45;&#45;18 -->
<g id="edge25" class="edge">
<title>15&#45;&#45;18</title>
<path fill="none" stroke="#000000" d="M737.7831,-355.4339C741.8357,-345.1118 747.2107,-331.9118 752.5,-320.4 755.3751,-314.1425 758.76,-307.4002 761.8432,-301.4614"/>
<text text-anchor="middle" x="764.25" y="-324.6" font-family="Times,serif" font-size="14.00" fill="#000000">6.70</text>
</g>
<!-- 16 -->
<g id="node23" class="node">
<title>16</title>
<ellipse fill="none" stroke="#0000ff" cx="690" cy="-195.6" rx="27" ry="18"/>
<text text-anchor="middle" x="690" y="-191.4" font-family="Times,serif" font-size="14.00" fill="#000000">16</text>
</g>
<!-- 16&#45;&#45;19 -->
<g id="edge26" class="edge">
<title>16&#45;&#45;19</title>
<path fill="none" stroke="#000000" d="M690,-177.2006C690,-161.8587 690,-140.122 690,-124.872"/>
<text text-anchor="middle" x="705.75" y="-147" font-family="Times,serif" font-size="14.00" fill="#000000">17.93</text>
</g>
<!-- 2 -->
<g id="node24" class="node">
<title>2</title>
<ellipse fill="none" stroke="#ff0000" cx="232" cy="-373.2" rx="27" ry="18"/>
<text text-anchor="middle" x="232" y="-369" font-family="Times,serif" font-size="14.00" fill="#000000">2</text>
</g>
<!-- 2&#45;&#45;7 -->
<g id="edge29" class="edge">
<title>2&#45;&#45;7</title>
<path fill="none" stroke="#000000" d="M214.4079,-359.3957C195.7974,-344.8476 168.3829,-323.5953 163,-320.4 144.606,-309.4814 122.3067,-299.8064 105.7659,-293.2435"/>
<text text-anchor="middle" x="201.75" y="-324.6" font-family="Times,serif" font-size="14.00" fill="#000000">23.56</text>
</g>
<!-- 2&#45;&#45;17 -->
<g id="edge28" class="edge">
<title>2&#45;&#45;17</title>
<path fill="none" stroke="#000000" d="M232,-355.1721C232,-337.2311 232,-308.9125 232,-284.4 232,-284.4 232,-284.4 232,-106.8 232,-33.6798 500.2628,-20.7525 587.7626,-18.4808"/>
<text text-anchor="middle" x="247.75" y="-191.4" font-family="Times,serif" font-size="14.00" fill="#000000">24.18</text>
</g>
<!-- 2&#45;&#45;12 -->
<g id="edge27" class="edge">
<title>2&#45;&#45;12</title>
<path fill="none" stroke="#000000" d="M247.3849,-358.0648C259.1655,-346.9118 276.1241,-331.7691 292.5,-320.4 300.4264,-314.8971 321.1766,-303.8437 337.4098,-295.4288"/>
<text text-anchor="middle" x="307.75" y="-324.6" font-family="Times,serif" font-size="14.00" fill="#000000">17.69</text>
</g>
<!-- 6 -->
<g id="node25" class="node">
<title>6</title>
<ellipse fill="none" stroke="#0000ff" cx="27" cy="-373.2" rx="27" ry="18"/>
<text text-anchor="middle" x="27" y="-369" font-family="Times,serif" font-size="14.00" fill="#000000">6</text>
</g>
<!-- 6&#45;&#45;7 -->
<g id="edge30" class="edge">
<title>6&#45;&#45;7</title>
<path fill="none" stroke="#000000" d="M30.676,-355.1346C33.3922,-344.4669 37.8003,-331.017 44.5,-320.4 49.7015,-312.1571 57.1884,-304.4619 64.1067,-298.3194"/>
<text text-anchor="middle" x="60.75" y="-324.6" font-family="Times,serif" font-size="14.00" fill="#000000">15.55</text>
</g>
</g>
</svg>
