<svg width="1920px" height="619px"
 viewBox="0.00 0.00 961.00 310.40" xmlns="http://www.w3.org/2000/svg" xmlns:xlink="http://www.w3.org/1999/xlink">
<g id="graph0" class="graph" transform="scale(1.0 1.0) rotate(0) translate(4 306.4)">
<title>%0</title>
<polygon fill="#ffffff" stroke="transparent" points="-4,4 -4,-306.4 957,-306.4 957,4 -4,4"/>
<!-- 22 -->
<g id="node1" class="node">
<title>22</title>
<ellipse fill="none" stroke="#ff0000" cx="130" cy="-18" rx="27" ry="18"/>
<text text-anchor="middle" x="130" y="-13.8" font-family="Times,serif" font-size="14.00" fill="#000000">22</text>
</g>
<!-- 23 -->
<g id="node2" class="node">
<title>23</title>
<ellipse fill="none" stroke="#ff0000" cx="890" cy="-106.8" rx="27" ry="18"/>
<text text-anchor="middle" x="890" y="-102.6" font-family="Times,serif" font-size="14.00" fill="#000000">23</text>
</g>
<!-- 3 -->
<g id="node3" class="node">
<title>3</title>
<ellipse fill="none" stroke="#000000" cx="854" cy="-18" rx="27" ry="18"/>
<text text-anchor="middle" x="854" y="-13.8" font-family="Times,serif" font-size="14.00" fill="#000000">3</text>
</g>
<!-- 23&#45;&#45;3 -->
<g id="edge1" class="edge">
<title>23&#45;&#45;3</title>
<path fill="none" stroke="#000000" d="M882.8876,-89.256C876.5763,-73.6881 867.4045,-51.0644 861.0977,-35.5076"/>
<text text-anchor="middle" x="887.25" y="-58.2" font-family="Times,serif" font-size="14.00" fill="#000000">3.47</text>
</g>
<!-- 8 -->
<g id="node4" class="node">
<title>8</title>
<ellipse fill="none" stroke="#ff0000" cx="926" cy="-18" rx="27" ry="18"/>
<text text-anchor="middle" x="926" y="-13.8" font-family="Times,serif" font-size="14.00" fill="#000000">8</text>
</g>
<!-- 23&#45;&#45;8 -->
<g id="edge2" class="edge">
<title>23&#45;&#45;8</title>
<path fill="none" stroke="#000000" d="M897.1124,-89.256C903.4237,-73.6881 912.5955,-51.0644 918.9023,-35.5076"/>
<text text-anchor="middle" x="926.75" y="-58.2" font-family="Times,serif" font-size="14.00" fill="#000000">13.76</text>
</g>
<!-- 24 -->
<g id="node5" class="node">
<title>24</title>
<ellipse fill="none" stroke="#ff0000" cx="583" cy="-18" rx="27" ry="18"/>
<text text-anchor="middle" x="583" y="-13.8" font-family="Times,serif" font-size="14.00" fill="#000000">24</text>
</g>
<!-- 10 -->
<g id="node6" class="node">
<title>10</title>
<ellipse fill="none" stroke="#000000" cx="367" cy="-106.8" rx="27" ry="18"/>
<text text-anchor="middle" x="367" y="-102.6" font-family="Times,serif" font-size="14.00" fill="#000000">10</text>
</g>
<!-- 7 -->
<g id="node7" class="node">
<title>7</title>
<ellipse fill="none" stroke="#000000" cx="463" cy="-18" rx="27" ry="18"/>
<text text-anchor="middle" x="463" y="-13.8" font-family="Times,serif" font-size="14.00" fill="#000000">7</text>
</g>
<!-- 10&#45;&#45;7 -->
<g id="edge3" class="edge">
<title>10&#45;&#45;7</title>
<path fill="none" stroke="#000000" d="M386.7913,-94.1067C396.3193,-87.615 407.6713,-79.3021 417,-70.8 429.4001,-59.4987 441.7984,-45.0386 450.5935,-34.1092"/>
<text text-anchor="middle" x="445.25" y="-58.2" font-family="Times,serif" font-size="14.00" fill="#000000">4.67</text>
</g>
<!-- 4 -->
<g id="node8" class="node">
<title>4</title>
<ellipse fill="none" stroke="#ff0000" cx="312" cy="-18" rx="27" ry="18"/>
<text text-anchor="middle" x="312" y="-13.8" font-family="Times,serif" font-size="14.00" fill="#000000">4</text>
</g>
<!-- 10&#45;&#45;4 -->
<g id="edge4" class="edge">
<title>10&#45;&#45;4</title>
<path fill="none" stroke="#000000" d="M356.6549,-90.0974C346.884,-74.3218 332.3024,-50.7792 322.4857,-34.9296"/>
<text text-anchor="middle" x="357.25" y="-58.2" font-family="Times,serif" font-size="14.00" fill="#000000">6.13</text>
</g>
<!-- 6 -->
<g id="node9" class="node">
<title>6</title>
<ellipse fill="none" stroke="#000000" cx="391" cy="-18" rx="27" ry="18"/>
<text text-anchor="middle" x="391" y="-13.8" font-family="Times,serif" font-size="14.00" fill="#000000">6</text>
</g>
<!-- 10&#45;&#45;6 -->
<g id="edge5" class="edge">
<title>10&#45;&#45;6</title>
<path fill="none" stroke="#000000" d="M371.8568,-88.83C376.0207,-73.4236 381.9887,-51.342 386.1505,-35.9433"/>
<text text-anchor="middle" x="396.75" y="-58.2" font-family="Times,serif" font-size="14.00" fill="#000000">21.17</text>
</g>
<!-- 11 -->
<g id="node10" class="node">
<title>11</title>
<ellipse fill="none" stroke="#000000" cx="408" cy="-195.6" rx="27" ry="18"/>
<text text-anchor="middle" x="408" y="-191.4" font-family="Times,serif" font-size="14.00" fill="#000000">11</text>
</g>
<!-- 18 -->
<g id="node11" class="node">
<title>18</title>
<ellipse fill="none" stroke="#ff0000" cx="439" cy="-106.8" rx="27" ry="18"/>
<text text-anchor="middle" x="439" y="-102.6" font-family="Times,serif" font-size="14.00" fill="#000000">18</text>
</g>
<!-- 11&#45;&#45;18 -->
<g id="edge6" class="edge">
<title>11&#45;&#45;18</title>
<path fill="none" stroke="#000000" d="M405.6698,-177.4471C405.0181,-166.9962 405.3931,-153.7962 409.5,-142.8 412.4403,-134.9276 417.8602,-127.5101 423.2598,-121.4771"/>
<text text-anchor="middle" x="421.25" y="-147" font-family="Times,serif" font-size="14.00" fill="#000000">6.23</text>
</g>
<!-- 12 -->
<g id="node12" class="node">
<title>12</title>
<ellipse fill="none" stroke="#ff0000" cx="583" cy="-106.8" rx="27" ry="18"/>
<text text-anchor="middle" x="583" y="-102.6" font-family="Times,serif" font-size="14.00" fill="#000000">12</text>
</g>
<!-- 12&#45;&#45;24 -->
<g id="edge7" class="edge">
<title>12&#45;&#45;24</title>
<path fill="none" stroke="#000000" d="M583,-88.4006C583,-73.0587 583,-51.322 583,-36.072"/>
<text text-anchor="middle" x="598.75" y="-58.2" font-family="Times,serif" font-size="14.00" fill="#000000">20.14</text>
</g>
<!-- 12&#45;&#45;7 -->
<g id="edge8" class="edge">
<title>12&#45;&#45;7</title>
<path fill="none" stroke="#000000" d="M564.7746,-93.3132C542.22,-76.6228 504.0305,-48.3625 481.3969,-31.6137"/>
<text text-anchor="middle" x="545.25" y="-58.2" font-family="Times,serif" font-size="14.00" fill="#000000">8.22</text>
</g>
<!-- 13 -->
<g id="node13" class="node">
<title>13</title>
<ellipse fill="none" stroke="#000000" cx="511" cy="-106.8" rx="27" ry="18"/>
<text text-anchor="middle" x="511" y="-102.6" font-family="Times,serif" font-size="14.00" fill="#000000">13</text>
</g>
<!-- 14 -->
<g id="node14" class="node">
<title>14</title>
<ellipse fill="none" stroke="#ff0000" cx="130" cy="-106.8" rx="27" ry="18"/>
<text text-anchor="middle" x="130" y="-102.6" font-family="Times,serif" font-size="14.00" fill="#000000">14</text>
</g>
<!-- 14&#45;&#45;22 -->
<g id="edge9" class="edge">
<title>14&#45;&#45;22</title>
<path fill="none" stroke="#000000" d="M130,-88.4006C130,-73.0587 130,-51.322 130,-36.072"/>
<text text-anchor="middle" x="145.75" y="-58.2" font-family="Times,serif" font-size="14.00" fill="#000000">24.86</text>
</g>
<!-- 15 -->
<g id="node15" class="node">
<title>15</title>
<ellipse fill="none" stroke="#000000" cx="712" cy="-195.6" rx="27" ry="18"/>
<text text-anchor="middle" x="712" y="-191.4" font-family="Times,serif" font-size="14.00" fill="#000000">15</text>
</g>
<!-- 9 -->
<g id="node16" class="node">
<title>9</title>
<ellipse fill="none" stroke="#000000" cx="748" cy="-106.8" rx="27" ry="18"/>
<text text-anchor="middle" x="748" y="-102.6" font-family="Times,serif" font-size="14.00" fill="#000000">9</text>
</g>
<!-- 15&#45;&#45;9 -->
<g id="edge10" class="edge">
<title>15&#45;&#45;9</title>
<path fill="none" stroke="#000000" d="M715.6694,-177.594C718.1009,-167.192 721.7259,-153.992 726.5,-142.8 729.2992,-136.2379 733.1059,-129.4243 736.7387,-123.5133"/>
<text text-anchor="middle" x="741.75" y="-147" font-family="Times,serif" font-size="14.00" fill="#000000">15.70</text>
</g>
<!-- 16 -->
<g id="node17" class="node">
<title>16</title>
<ellipse fill="none" stroke="#000000" cx="875" cy="-284.4" rx="27" ry="18"/>
<text text-anchor="middle" x="875" y="-280.2" font-family="Times,serif" font-size="14.00" fill="#000000">16</text>
</g>
<!-- 2 -->
<g id="node18" class="node">
<title>2</title>
<ellipse fill="none" stroke="#000000" cx="875" cy="-195.6" rx="27" ry="18"/>
<text text-anchor="middle" x="875" y="-191.4" font-family="Times,serif" font-size="14.00" fill="#000000">2</text>
</g>
<!-- 16&#45;&#45;2 -->
<g id="edge11" class="edge">
<title>16&#45;&#45;2</title>
<path fill="none" stroke="#000000" d="M875,-266.0006C875,-250.6587 875,-228.922 875,-213.672"/>
<text text-anchor="middle" x="890.75" y="-235.8" font-family="Times,serif" font-size="14.00" fill="#000000">18.96</text>
</g>
<!-- 2&#45;&#45;23 -->
<g id="edge12" class="edge">
<title>2&#45;&#45;23</title>
<path fill="none" stroke="#000000" d="M878.0355,-177.63C880.6379,-162.2236 884.3679,-140.142 886.969,-124.7433"/>
<text text-anchor="middle" x="895.25" y="-147" font-family="Times,serif" font-size="14.00" fill="#000000">0.16</text>
</g>
<!-- 2&#45;&#45;9 -->
<g id="edge13" class="edge">
<title>2&#45;&#45;9</title>
<path fill="none" stroke="#000000" d="M857.4607,-181.7313C843.4795,-170.8329 823.2825,-155.4364 805,-142.8 792.9647,-134.4815 779.0927,-125.7035 768.0472,-118.8979"/>
<text text-anchor="middle" x="841.75" y="-147" font-family="Times,serif" font-size="14.00" fill="#000000">10.34</text>
</g>
<!-- 17 -->
<g id="node19" class="node">
<title>17</title>
<ellipse fill="none" stroke="#ff0000" cx="784" cy="-195.6" rx="27" ry="18"/>
<text text-anchor="middle" x="784" y="-191.4" font-family="Times,serif" font-size="14.00" fill="#000000">17</text>
</g>
<!-- 17&#45;&#45;9 -->
<g id="edge14" class="edge">
<title>17&#45;&#45;9</title>
<path fill="none" stroke="#000000" d="M776.8876,-178.056C770.5763,-162.4881 761.4045,-139.8644 755.0977,-124.3076"/>
<text text-anchor="middle" x="784.75" y="-147" font-family="Times,serif" font-size="14.00" fill="#000000">18.60</text>
</g>
<!-- 19 -->
<g id="node20" class="node">
<title>19</title>
<ellipse fill="none" stroke="#ff0000" cx="43" cy="-106.8" rx="27" ry="18"/>
<text text-anchor="middle" x="43" y="-102.6" font-family="Times,serif" font-size="14.00" fill="#000000">19</text>
</g>
<!-- 19&#45;&#45;22 -->
<g id="edge16" class="edge">
<title>19&#45;&#45;22</title>
<path fill="none" stroke="#000000" d="M58.1542,-91.3322C74.1225,-75.0336 99.117,-49.522 115.0194,-33.2905"/>
<text text-anchor="middle" x="107.25" y="-58.2" font-family="Times,serif" font-size="14.00" fill="#000000">8.92</text>
</g>
<!-- 21 -->
<g id="node21" class="node">
<title>21</title>
<ellipse fill="none" stroke="#000000" cx="27" cy="-18" rx="27" ry="18"/>
<text text-anchor="middle" x="27" y="-13.8" font-family="Times,serif" font-size="14.00" fill="#000000">21</text>
</g>
<!-- 19&#45;&#45;21 -->
<g id="edge15" class="edge">
<title>19&#45;&#45;21</title>
<path fill="none" stroke="#000000" d="M34.6358,-89.6111C32.1902,-83.7776 29.8209,-77.1321 28.5,-70.8 26.1405,-59.4888 25.7403,-46.5214 25.9422,-36.2681"/>
<text text-anchor="middle" x="44.75" y="-58.2" font-family="Times,serif" font-size="14.00" fill="#000000">14.43</text>
</g>
<!-- 0 -->
<g id="node22" class="node">
<title>0</title>
<ellipse fill="none" stroke="#ff0000" cx="511" cy="-195.6" rx="27" ry="18"/>
<text text-anchor="middle" x="511" y="-191.4" font-family="Times,serif" font-size="14.00" fill="#000000">0</text>
</g>
<!-- 0&#45;&#45;18 -->
<g id="edge19" class="edge">
<title>0&#45;&#45;18</title>
<path fill="none" stroke="#000000" d="M495.1861,-180.7367C488.8092,-174.4496 481.5462,-166.9015 475.5,-159.6 465.9761,-148.0988 456.422,-134.1714 449.4788,-123.5089"/>
<text text-anchor="middle" x="490.75" y="-147" font-family="Times,serif" font-size="14.00" fill="#000000">13.69</text>
</g>
<!-- 0&#45;&#45;12 -->
<g id="edge17" class="edge">
<title>0&#45;&#45;12</title>
<path fill="none" stroke="#000000" d="M523.8722,-179.7243C536.8966,-163.6608 556.9252,-138.9589 569.9965,-122.8376"/>
<text text-anchor="middle" x="565.25" y="-147" font-family="Times,serif" font-size="14.00" fill="#000000">5.31</text>
</g>
<!-- 0&#45;&#45;13 -->
<g id="edge18" class="edge">
<title>0&#45;&#45;13</title>
<path fill="none" stroke="#000000" d="M511,-177.2006C511,-161.8587 511,-140.122 511,-124.872"/>
<text text-anchor="middle" x="523.25" y="-147" font-family="Times,serif" font-size="14.00" fill="#000000">3.90</text>
</g>
<!-- 1 -->
<g id="node23" class="node">
<title>1</title>
<ellipse fill="none" stroke="#000000" cx="621" cy="-195.6" rx="27" ry="18"/>
<text text-anchor="middle" x="621" y="-191.4" font-family="Times,serif" font-size="14.00" fill="#000000">1</text>
</g>
<!-- 1&#45;&#45;12 -->
<g id="edge20" class="edge">
<title>1&#45;&#45;12</title>
<path fill="none" stroke="#000000" d="M613.4924,-178.056C606.8305,-162.4881 597.1492,-139.8644 590.492,-124.3076"/>
<text text-anchor="middle" x="620.75" y="-147" font-family="Times,serif" font-size="14.00" fill="#000000">22.93</text>
</g>
<!-- 1&#45;&#45;9 -->
<g id="edge21" class="edge">
<title>1&#45;&#45;9</title>
<path fill="none" stroke="#000000" d="M637.0749,-180.8641C649.5464,-169.7766 667.5151,-154.5375 684.5,-142.8 697.8446,-133.5781 713.7196,-124.5781 726.2585,-117.8835"/>
<text text-anchor="middle" x="699.75" y="-147" font-family="Times,serif" font-size="14.00" fill="#000000">19.31</text>
</g>
<!-- 5 -->
<g id="node24" class="node">
<title>5</title>
<ellipse fill="none" stroke="#000000" cx="233" cy="-18" rx="27" ry="18"/>
<text text-anchor="middle" x="233" y="-13.8" font-family="Times,serif" font-size="14.00" fill="#000000">5</text>
</g>
<!-- 20 -->
<g id="node25" class="node">
<title>20</title>
<ellipse fill="none" stroke="#ff0000" cx="233" cy="-106.8" rx="27" ry="18"/>
<text text-anchor="middle" x="233" y="-102.6" font-family="Times,serif" font-size="14.00" fill="#000000">20</text>
</g>
<!-- 20&#45;&#45;22 -->
<g id="edge24" class="edge">
<title>20&#45;&#45;22</title>
<path fill="none" stroke="#000000" d="M216.4513,-92.5327C197.3441,-76.0598 166.0836,-49.109 146.8498,-32.5269"/>
<text text-anchor="middle" x="203.25" y="-58.2" font-family="Times,serif" font-size="14.00" fill="#000000">5.18</text>
</g>
<!-- 20&#45;&#45;4 -->
<g id="edge23" class="edge">
<title>20&#45;&#45;4</title>
<path fill="none" stroke="#000000" d="M247.2176,-91.4615C253.0716,-85.1017 259.8983,-77.6276 266,-70.8 277.0177,-58.4715 289.3115,-44.3405 298.4161,-33.8015"/>
<text text-anchor="middle" x="296.75" y="-58.2" font-family="Times,serif" font-size="14.00" fill="#000000">20.88</text>
</g>
<!-- 20&#45;&#45;5 -->
<g id="edge22" class="edge">
<title>20&#45;&#45;5</title>
<path fill="none" stroke="#000000" d="M233,-88.4006C233,-73.0587 233,-51.322 233,-36.072"/>
<text text-anchor="middle" x="248.75" y="-58.2" font-family="Times,serif" font-size="14.00" fill="#000000">18.23</text>
</g>
</g>
</svg>
