<svg width="1920px" height="1145px"
 viewBox="0.00 0.00 669.00 399.20" xmlns="http://www.w3.org/2000/svg" xmlns:xlink="http://www.w3.org/1999/xlink">
<g id="graph0" class="graph" transform="scale(1.0 1.0) rotate(0) translate(4 395.2)">
<title>%0</title>
<polygon fill="#ffffff" stroke="transparent" points="-4,4 -4,-395.2 665,-395.2 665,4 -4,4"/>
<!-- 22 -->
<g id="node1" class="node">
<title>22</title>
<ellipse fill="none" stroke="#ff0000" cx="27" cy="-195.6" rx="27" ry="18"/>
<text text-anchor="middle" x="27" y="-191.4" font-family="Times,serif" font-size="14.00" fill="#000000">22</text>
</g>
<!-- 4 -->
<g id="node2" class="node">
<title>4</title>
<ellipse fill="none" stroke="#000000" cx="88" cy="-106.8" rx="27" ry="18"/>
<text text-anchor="middle" x="88" y="-102.6" font-family="Times,serif" font-size="14.00" fill="#000000">4</text>
</g>
<!-- 22&#45;&#45;4 -->
<g id="edge1" class="edge">
<title>22&#45;&#45;4</title>
<path fill="none" stroke="#000000" d="M38.4736,-178.8974C49.3795,-163.0214 65.689,-139.2789 76.5778,-123.4277"/>
<text text-anchor="middle" x="74.25" y="-147" font-family="Times,serif" font-size="14.00" fill="#000000">3.68</text>
</g>
<!-- 7 -->
<g id="node3" class="node">
<title>7</title>
<ellipse fill="none" stroke="#ff0000" cx="129" cy="-18" rx="27" ry="18"/>
<text text-anchor="middle" x="129" y="-13.8" font-family="Times,serif" font-size="14.00" fill="#000000">7</text>
</g>
<!-- 4&#45;&#45;7 -->
<g id="edge2" class="edge">
<title>4&#45;&#45;7</title>
<path fill="none" stroke="#000000" d="M92.7243,-88.7511C95.7575,-78.3348 100.1325,-65.1348 105.5,-54 108.741,-47.2766 113.0358,-40.3127 117.0665,-34.3221"/>
<text text-anchor="middle" x="120.75" y="-58.2" font-family="Times,serif" font-size="14.00" fill="#000000">18.52</text>
</g>
<!-- 23 -->
<g id="node4" class="node">
<title>23</title>
<ellipse fill="none" stroke="#000000" cx="285" cy="-18" rx="27" ry="18"/>
<text text-anchor="middle" x="285" y="-13.8" font-family="Times,serif" font-size="14.00" fill="#000000">23</text>
</g>
<!-- 24 -->
<g id="node5" class="node">
<title>24</title>
<ellipse fill="none" stroke="#ff0000" cx="448" cy="-106.8" rx="27" ry="18"/>
<text text-anchor="middle" x="448" y="-102.6" font-family="Times,serif" font-size="14.00" fill="#000000">24</text>
</g>
<!-- 10 -->
<g id="node6" class="node">
<title>10</title>
<ellipse fill="none" stroke="#000000" cx="373" cy="-284.4" rx="27" ry="18"/>
<text text-anchor="middle" x="373" y="-280.2" font-family="Times,serif" font-size="14.00" fill="#000000">10</text>
</g>
<!-- 2 -->
<g id="node7" class="node">
<title>2</title>
<ellipse fill="none" stroke="#000000" cx="376" cy="-195.6" rx="27" ry="18"/>
<text text-anchor="middle" x="376" y="-191.4" font-family="Times,serif" font-size="14.00" fill="#000000">2</text>
</g>
<!-- 10&#45;&#45;2 -->
<g id="edge3" class="edge">
<title>10&#45;&#45;2</title>
<path fill="none" stroke="#000000" d="M373.4546,-266.3147C373.7257,-256.1187 374.0954,-243.1476 374.5,-231.6 374.7015,-225.8485 374.9519,-219.5815 375.19,-213.9123"/>
<text text-anchor="middle" x="386.25" y="-235.8" font-family="Times,serif" font-size="14.00" fill="#000000">3.15</text>
</g>
<!-- 2&#45;&#45;4 -->
<g id="edge6" class="edge">
<title>2&#45;&#45;4</title>
<path fill="none" stroke="#000000" d="M349.519,-191.0753C306.9881,-183.6711 225.4025,-168.8653 197.5,-159.6 163.1985,-148.2098 156.4989,-140.6161 124,-124.8 119.3505,-122.5372 114.3809,-120.0786 109.6648,-117.7264"/>
<text text-anchor="middle" x="212.75" y="-147" font-family="Times,serif" font-size="14.00" fill="#000000">23.09</text>
</g>
<!-- 2&#45;&#45;24 -->
<g id="edge4" class="edge">
<title>2&#45;&#45;24</title>
<path fill="none" stroke="#000000" d="M392.0777,-180.786C398.5508,-174.5064 405.9096,-166.9507 412,-159.6 421.4851,-148.1521 430.904,-134.2223 437.7272,-123.5453"/>
<text text-anchor="middle" x="439.75" y="-147" font-family="Times,serif" font-size="14.00" fill="#000000">11.85</text>
</g>
<!-- 5 -->
<g id="node8" class="node">
<title>5</title>
<ellipse fill="none" stroke="#000000" cx="592" cy="-106.8" rx="27" ry="18"/>
<text text-anchor="middle" x="592" y="-102.6" font-family="Times,serif" font-size="14.00" fill="#000000">5</text>
</g>
<!-- 2&#45;&#45;5 -->
<g id="edge5" class="edge">
<title>2&#45;&#45;5</title>
<path fill="none" stroke="#000000" d="M399.8648,-186.9842C434.5987,-174.2714 500.9421,-149.3343 556,-124.8 560.7232,-122.6953 565.7238,-120.3034 570.4469,-117.9661"/>
<text text-anchor="middle" x="524.25" y="-147" font-family="Times,serif" font-size="14.00" fill="#000000">2.43</text>
</g>
<!-- 3 -->
<g id="node9" class="node">
<title>3</title>
<ellipse fill="none" stroke="#000000" cx="376" cy="-106.8" rx="27" ry="18"/>
<text text-anchor="middle" x="376" y="-102.6" font-family="Times,serif" font-size="14.00" fill="#000000">3</text>
</g>
<!-- 2&#45;&#45;3 -->
<g id="edge7" class="edge">
<title>2&#45;&#45;3</title>
<path fill="none" stroke="#000000" d="M376,-177.2006C376,-161.8587 376,-140.122 376,-124.872"/>
<text text-anchor="middle" x="391.75" y="-147" font-family="Times,serif" font-size="14.00" fill="#000000">21.53</text>
</g>
<!-- 9 -->
<g id="node10" class="node">
<title>9</title>
<ellipse fill="none" stroke="#000000" cx="395" cy="-18" rx="27" ry="18"/>
<text text-anchor="middle" x="395" y="-13.8" font-family="Times,serif" font-size="14.00" fill="#000000">9</text>
</g>
<!-- 3&#45;&#45;9 -->
<g id="edge8" class="edge">
<title>3&#45;&#45;9</title>
<path fill="none" stroke="#000000" d="M379.8449,-88.83C383.1413,-73.4236 387.866,-51.342 391.1608,-35.9433"/>
<text text-anchor="middle" x="399.25" y="-58.2" font-family="Times,serif" font-size="14.00" fill="#000000">8.55</text>
</g>
<!-- 11 -->
<g id="node11" class="node">
<title>11</title>
<ellipse fill="none" stroke="#ff0000" cx="304" cy="-106.8" rx="27" ry="18"/>
<text text-anchor="middle" x="304" y="-102.6" font-family="Times,serif" font-size="14.00" fill="#000000">11</text>
</g>
<!-- 11&#45;&#45;23 -->
<g id="edge9" class="edge">
<title>11&#45;&#45;23</title>
<path fill="none" stroke="#000000" d="M293.8988,-89.7837C290.9467,-83.9618 288.0886,-77.2794 286.5,-70.8 283.7485,-59.5777 283.3421,-46.6117 283.639,-36.3369"/>
<text text-anchor="middle" x="301.75" y="-58.2" font-family="Times,serif" font-size="14.00" fill="#000000">15.03</text>
</g>
<!-- 11&#45;&#45;9 -->
<g id="edge10" class="edge">
<title>11&#45;&#45;9</title>
<path fill="none" stroke="#000000" d="M316.0334,-90.2464C324.3003,-79.3899 335.8489,-65.1875 347.5,-54 356.1578,-45.6866 366.7223,-37.5156 375.6879,-31.0649"/>
<text text-anchor="middle" x="362.75" y="-58.2" font-family="Times,serif" font-size="14.00" fill="#000000">11.64</text>
</g>
<!-- 12 -->
<g id="node12" class="node">
<title>12</title>
<ellipse fill="none" stroke="#000000" cx="206" cy="-373.2" rx="27" ry="18"/>
<text text-anchor="middle" x="206" y="-369" font-family="Times,serif" font-size="14.00" fill="#000000">12</text>
</g>
<!-- 19 -->
<g id="node13" class="node">
<title>19</title>
<ellipse fill="none" stroke="#ff0000" cx="278" cy="-284.4" rx="27" ry="18"/>
<text text-anchor="middle" x="278" y="-280.2" font-family="Times,serif" font-size="14.00" fill="#000000">19</text>
</g>
<!-- 12&#45;&#45;19 -->
<g id="edge11" class="edge">
<title>12&#45;&#45;19</title>
<path fill="none" stroke="#000000" d="M218.8722,-357.3243C231.8966,-341.2608 251.9252,-316.5589 264.9965,-300.4376"/>
<text text-anchor="middle" x="260.25" y="-324.6" font-family="Times,serif" font-size="14.00" fill="#000000">3.07</text>
</g>
<!-- 19&#45;&#45;2 -->
<g id="edge13" class="edge">
<title>19&#45;&#45;2</title>
<path fill="none" stroke="#000000" d="M294.1827,-269.7365C312.3405,-253.2833 341.6256,-226.7474 359.7933,-210.2853"/>
<text text-anchor="middle" x="350.75" y="-235.8" font-family="Times,serif" font-size="14.00" fill="#000000">21.33</text>
</g>
<!-- 6 -->
<g id="node14" class="node">
<title>6</title>
<ellipse fill="none" stroke="#ff0000" cx="235" cy="-195.6" rx="27" ry="18"/>
<text text-anchor="middle" x="235" y="-191.4" font-family="Times,serif" font-size="14.00" fill="#000000">6</text>
</g>
<!-- 19&#45;&#45;6 -->
<g id="edge12" class="edge">
<title>19&#45;&#45;6</title>
<path fill="none" stroke="#000000" d="M269.5046,-266.856C261.9171,-251.187 250.8685,-228.3703 243.3315,-212.8054"/>
<text text-anchor="middle" x="272.25" y="-235.8" font-family="Times,serif" font-size="14.00" fill="#000000">8.67</text>
</g>
<!-- 8 -->
<g id="node15" class="node">
<title>8</title>
<ellipse fill="none" stroke="#000000" cx="232" cy="-106.8" rx="27" ry="18"/>
<text text-anchor="middle" x="232" y="-102.6" font-family="Times,serif" font-size="14.00" fill="#000000">8</text>
</g>
<!-- 6&#45;&#45;8 -->
<g id="edge14" class="edge">
<title>6&#45;&#45;8</title>
<path fill="none" stroke="#000000" d="M234.3784,-177.2006C233.8601,-161.8587 233.1257,-140.122 232.6105,-124.872"/>
<text text-anchor="middle" x="248.75" y="-147" font-family="Times,serif" font-size="14.00" fill="#000000">14.42</text>
</g>
<!-- 13 -->
<g id="node16" class="node">
<title>13</title>
<ellipse fill="none" stroke="#ff0000" cx="634" cy="-284.4" rx="27" ry="18"/>
<text text-anchor="middle" x="634" y="-280.2" font-family="Times,serif" font-size="14.00" fill="#000000">13</text>
</g>
<!-- 20 -->
<g id="node17" class="node">
<title>20</title>
<ellipse fill="none" stroke="#ff0000" cx="607" cy="-195.6" rx="27" ry="18"/>
<text text-anchor="middle" x="607" y="-191.4" font-family="Times,serif" font-size="14.00" fill="#000000">20</text>
</g>
<!-- 13&#45;&#45;20 -->
<g id="edge15" class="edge">
<title>13&#45;&#45;20</title>
<path fill="none" stroke="#000000" d="M628.5361,-266.43C623.8518,-251.0236 617.1378,-228.942 612.4557,-213.5433"/>
<text text-anchor="middle" x="637.75" y="-235.8" font-family="Times,serif" font-size="14.00" fill="#000000">15.09</text>
</g>
<!-- 14 -->
<g id="node18" class="node">
<title>14</title>
<ellipse fill="none" stroke="#000000" cx="462" cy="-284.4" rx="27" ry="18"/>
<text text-anchor="middle" x="462" y="-280.2" font-family="Times,serif" font-size="14.00" fill="#000000">14</text>
</g>
<!-- 14&#45;&#45;2 -->
<g id="edge16" class="edge">
<title>14&#45;&#45;2</title>
<path fill="none" stroke="#000000" d="M447.0199,-268.9322C431.2352,-252.6336 406.5281,-227.122 390.8084,-210.8905"/>
<text text-anchor="middle" x="441.75" y="-235.8" font-family="Times,serif" font-size="14.00" fill="#000000">22.95</text>
</g>
<!-- 17 -->
<g id="node19" class="node">
<title>17</title>
<ellipse fill="none" stroke="#000000" cx="500" cy="-195.6" rx="27" ry="18"/>
<text text-anchor="middle" x="500" y="-191.4" font-family="Times,serif" font-size="14.00" fill="#000000">17</text>
</g>
<!-- 14&#45;&#45;17 -->
<g id="edge17" class="edge">
<title>14&#45;&#45;17</title>
<path fill="none" stroke="#000000" d="M469.5076,-266.856C476.1695,-251.2881 485.8508,-228.6644 492.508,-213.1076"/>
<text text-anchor="middle" x="496.25" y="-235.8" font-family="Times,serif" font-size="14.00" fill="#000000">8.91</text>
</g>
<!-- 15 -->
<g id="node20" class="node">
<title>15</title>
<ellipse fill="none" stroke="#000000" cx="278" cy="-373.2" rx="27" ry="18"/>
<text text-anchor="middle" x="278" y="-369" font-family="Times,serif" font-size="14.00" fill="#000000">15</text>
</g>
<!-- 15&#45;&#45;19 -->
<g id="edge18" class="edge">
<title>15&#45;&#45;19</title>
<path fill="none" stroke="#000000" d="M278,-354.8006C278,-339.4587 278,-317.722 278,-302.472"/>
<text text-anchor="middle" x="293.75" y="-324.6" font-family="Times,serif" font-size="14.00" fill="#000000">18.37</text>
</g>
<!-- 16 -->
<g id="node21" class="node">
<title>16</title>
<ellipse fill="none" stroke="#000000" cx="99" cy="-195.6" rx="27" ry="18"/>
<text text-anchor="middle" x="99" y="-191.4" font-family="Times,serif" font-size="14.00" fill="#000000">16</text>
</g>
<!-- 16&#45;&#45;4 -->
<g id="edge19" class="edge">
<title>16&#45;&#45;4</title>
<path fill="none" stroke="#000000" d="M96.774,-177.63C94.8655,-162.2236 92.1302,-140.142 90.2227,-124.7433"/>
<text text-anchor="middle" x="106.25" y="-147" font-family="Times,serif" font-size="14.00" fill="#000000">0.58</text>
</g>
<!-- 18 -->
<g id="node22" class="node">
<title>18</title>
<ellipse fill="none" stroke="#ff0000" cx="160" cy="-106.8" rx="27" ry="18"/>
<text text-anchor="middle" x="160" y="-102.6" font-family="Times,serif" font-size="14.00" fill="#000000">18</text>
</g>
<!-- 18&#45;&#45;7 -->
<g id="edge20" class="edge">
<title>18&#45;&#45;7</title>
<path fill="none" stroke="#000000" d="M153.8754,-89.256C148.476,-73.7892 140.6452,-51.3579 135.218,-35.8115"/>
<text text-anchor="middle" x="162.75" y="-58.2" font-family="Times,serif" font-size="14.00" fill="#000000">17.87</text>
</g>
<!-- 0 -->
<g id="node23" class="node">
<title>0</title>
<ellipse fill="none" stroke="#000000" cx="537" cy="-284.4" rx="27" ry="18"/>
<text text-anchor="middle" x="537" y="-280.2" font-family="Times,serif" font-size="14.00" fill="#000000">0</text>
</g>
<!-- 0&#45;&#45;20 -->
<g id="edge22" class="edge">
<title>0&#45;&#45;20</title>
<path fill="none" stroke="#000000" d="M549.8391,-268.1127C562.4693,-252.0903 581.6403,-227.7706 594.2423,-211.784"/>
<text text-anchor="middle" x="593.75" y="-235.8" font-family="Times,serif" font-size="14.00" fill="#000000">13.47</text>
</g>
<!-- 0&#45;&#45;17 -->
<g id="edge21" class="edge">
<title>0&#45;&#45;17</title>
<path fill="none" stroke="#000000" d="M529.69,-266.856C523.2034,-251.2881 513.7768,-228.6644 507.2948,-213.1076"/>
<text text-anchor="middle" x="536.75" y="-235.8" font-family="Times,serif" font-size="14.00" fill="#000000">15.92</text>
</g>
<!-- 1 -->
<g id="node24" class="node">
<title>1</title>
<ellipse fill="none" stroke="#000000" cx="350" cy="-373.2" rx="27" ry="18"/>
<text text-anchor="middle" x="350" y="-369" font-family="Times,serif" font-size="14.00" fill="#000000">1</text>
</g>
<!-- 1&#45;&#45;19 -->
<g id="edge23" class="edge">
<title>1&#45;&#45;19</title>
<path fill="none" stroke="#000000" d="M339.7272,-356.4547C332.904,-345.7777 323.4851,-331.8479 314,-320.4 307.9096,-313.0493 300.5508,-305.4936 294.0777,-299.214"/>
<text text-anchor="middle" x="338.25" y="-324.6" font-family="Times,serif" font-size="14.00" fill="#000000">7.63</text>
</g>
<!-- 21 -->
<g id="node25" class="node">
<title>21</title>
<ellipse fill="none" stroke="#ff0000" cx="520" cy="-106.8" rx="27" ry="18"/>
<text text-anchor="middle" x="520" y="-102.6" font-family="Times,serif" font-size="14.00" fill="#000000">21</text>
</g>
<!-- 21&#45;&#45;9 -->
<g id="edge24" class="edge">
<title>21&#45;&#45;9</title>
<path fill="none" stroke="#000000" d="M501.2862,-93.5057C477.7212,-76.7651 437.467,-48.1685 413.8417,-31.3851"/>
<text text-anchor="middle" x="480.25" y="-58.2" font-family="Times,serif" font-size="14.00" fill="#000000">9.80</text>
</g>
</g>
</svg>
