<svg width="1920px" height="972px"
 viewBox="0.00 0.00 788.00 399.20" xmlns="http://www.w3.org/2000/svg" xmlns:xlink="http://www.w3.org/1999/xlink">
<g id="graph0" class="graph" transform="scale(1.0 1.0) rotate(0) translate(4 395.2)">
<title>%0</title>
<polygon fill="#ffffff" stroke="transparent" points="-4,4 -4,-395.2 784,-395.2 784,4 -4,4"/>
<!-- 22 -->
<g id="node1" class="node">
<title>22</title>
<ellipse fill="none" stroke="#0000ff" cx="393" cy="-284.4" rx="27" ry="18"/>
<text text-anchor="middle" x="393" y="-280.2" font-family="Times,serif" font-size="14.00" fill="#000000">22</text>
</g>
<!-- 0 -->
<g id="node2" class="node">
<title>0</title>
<ellipse fill="none" stroke="#0000ff" cx="390" cy="-195.6" rx="27" ry="18"/>
<text text-anchor="middle" x="390" y="-191.4" font-family="Times,serif" font-size="14.00" fill="#000000">0</text>
</g>
<!-- 22&#45;&#45;0 -->
<g id="edge1" class="edge">
<title>22&#45;&#45;0</title>
<path fill="none" stroke="#000000" d="M392.3784,-266.0006C391.8601,-250.6587 391.1257,-228.922 390.6105,-213.672"/>
<text text-anchor="middle" x="407.75" y="-235.8" font-family="Times,serif" font-size="14.00" fill="#000000">12.76</text>
</g>
<!-- 23 -->
<g id="node3" class="node">
<title>23</title>
<ellipse fill="none" stroke="#ff0000" cx="609" cy="-284.4" rx="27" ry="18"/>
<text text-anchor="middle" x="609" y="-280.2" font-family="Times,serif" font-size="14.00" fill="#000000">23</text>
</g>
<!-- 2 -->
<g id="node4" class="node">
<title>2</title>
<ellipse fill="none" stroke="#0000ff" cx="609" cy="-195.6" rx="27" ry="18"/>
<text text-anchor="middle" x="609" y="-191.4" font-family="Times,serif" font-size="14.00" fill="#000000">2</text>
</g>
<!-- 23&#45;&#45;2 -->
<g id="edge2" class="edge">
<title>23&#45;&#45;2</title>
<path fill="none" stroke="#000000" d="M609,-266.0006C609,-250.6587 609,-228.922 609,-213.672"/>
<text text-anchor="middle" x="624.75" y="-235.8" font-family="Times,serif" font-size="14.00" fill="#000000">19.39</text>
</g>
<!-- 24 -->
<g id="node5" class="node">
<title>24</title>
<ellipse fill="none" stroke="#ff0000" cx="99" cy="-284.4" rx="27" ry="18"/>
<text text-anchor="middle" x="99" y="-280.2" font-family="Times,serif" font-size="14.00" fill="#000000">24</text>
</g>
<!-- 16 -->
<g id="node6" class="node">
<title>16</title>
<ellipse fill="none" stroke="#ff0000" cx="99" cy="-195.6" rx="27" ry="18"/>
<text text-anchor="middle" x="99" y="-191.4" font-family="Times,serif" font-size="14.00" fill="#000000">16</text>
</g>
<!-- 24&#45;&#45;16 -->
<g id="edge3" class="edge">
<title>24&#45;&#45;16</title>
<path fill="none" stroke="#000000" d="M99,-266.0006C99,-250.6587 99,-228.922 99,-213.672"/>
<text text-anchor="middle" x="114.75" y="-235.8" font-family="Times,serif" font-size="14.00" fill="#000000">21.63</text>
</g>
<!-- 12 -->
<g id="node7" class="node">
<title>12</title>
<ellipse fill="none" stroke="#ff0000" cx="171" cy="-106.8" rx="27" ry="18"/>
<text text-anchor="middle" x="171" y="-102.6" font-family="Times,serif" font-size="14.00" fill="#000000">12</text>
</g>
<!-- 16&#45;&#45;12 -->
<g id="edge4" class="edge">
<title>16&#45;&#45;12</title>
<path fill="none" stroke="#000000" d="M111.8722,-179.7243C124.8966,-163.6608 144.9252,-138.9589 157.9965,-122.8376"/>
<text text-anchor="middle" x="154.25" y="-147" font-family="Times,serif" font-size="14.00" fill="#000000">5.86</text>
</g>
<!-- 18 -->
<g id="node8" class="node">
<title>18</title>
<ellipse fill="none" stroke="#0000ff" cx="135" cy="-18" rx="27" ry="18"/>
<text text-anchor="middle" x="135" y="-13.8" font-family="Times,serif" font-size="14.00" fill="#000000">18</text>
</g>
<!-- 12&#45;&#45;18 -->
<g id="edge5" class="edge">
<title>12&#45;&#45;18</title>
<path fill="none" stroke="#000000" d="M163.8876,-89.256C157.5763,-73.6881 148.4045,-51.0644 142.0977,-35.5076"/>
<text text-anchor="middle" x="169.25" y="-58.2" font-family="Times,serif" font-size="14.00" fill="#000000">9.50</text>
</g>
<!-- 7 -->
<g id="node9" class="node">
<title>7</title>
<ellipse fill="none" stroke="#ff0000" cx="207" cy="-18" rx="27" ry="18"/>
<text text-anchor="middle" x="207" y="-13.8" font-family="Times,serif" font-size="14.00" fill="#000000">7</text>
</g>
<!-- 12&#45;&#45;7 -->
<g id="edge6" class="edge">
<title>12&#45;&#45;7</title>
<path fill="none" stroke="#000000" d="M178.1124,-89.256C184.4237,-73.6881 193.5955,-51.0644 199.9023,-35.5076"/>
<text text-anchor="middle" x="205.25" y="-58.2" font-family="Times,serif" font-size="14.00" fill="#000000">5.64</text>
</g>
<!-- 10 -->
<g id="node10" class="node">
<title>10</title>
<ellipse fill="none" stroke="#ff0000" cx="171" cy="-195.6" rx="27" ry="18"/>
<text text-anchor="middle" x="171" y="-191.4" font-family="Times,serif" font-size="14.00" fill="#000000">10</text>
</g>
<!-- 10&#45;&#45;12 -->
<g id="edge7" class="edge">
<title>10&#45;&#45;12</title>
<path fill="none" stroke="#000000" d="M171,-177.2006C171,-161.8587 171,-140.122 171,-124.872"/>
<text text-anchor="middle" x="186.75" y="-147" font-family="Times,serif" font-size="14.00" fill="#000000">10.99</text>
</g>
<!-- 11 -->
<g id="node11" class="node">
<title>11</title>
<ellipse fill="none" stroke="#0000ff" cx="465" cy="-284.4" rx="27" ry="18"/>
<text text-anchor="middle" x="465" y="-280.2" font-family="Times,serif" font-size="14.00" fill="#000000">11</text>
</g>
<!-- 13 -->
<g id="node12" class="node">
<title>13</title>
<ellipse fill="none" stroke="#ff0000" cx="243" cy="-195.6" rx="27" ry="18"/>
<text text-anchor="middle" x="243" y="-191.4" font-family="Times,serif" font-size="14.00" fill="#000000">13</text>
</g>
<!-- 14 -->
<g id="node13" class="node">
<title>14</title>
<ellipse fill="none" stroke="#0000ff" cx="315" cy="-195.6" rx="27" ry="18"/>
<text text-anchor="middle" x="315" y="-191.4" font-family="Times,serif" font-size="14.00" fill="#000000">14</text>
</g>
<!-- 14&#45;&#45;12 -->
<g id="edge8" class="edge">
<title>14&#45;&#45;12</title>
<path fill="none" stroke="#000000" d="M294.9774,-183.2527C267.4658,-166.2872 218.2745,-135.9526 190.8525,-119.0424"/>
<text text-anchor="middle" x="271.75" y="-147" font-family="Times,serif" font-size="14.00" fill="#000000">18.79</text>
</g>
<!-- 15 -->
<g id="node14" class="node">
<title>15</title>
<ellipse fill="none" stroke="#0000ff" cx="27" cy="-284.4" rx="27" ry="18"/>
<text text-anchor="middle" x="27" y="-280.2" font-family="Times,serif" font-size="14.00" fill="#000000">15</text>
</g>
<!-- 17 -->
<g id="node15" class="node">
<title>17</title>
<ellipse fill="none" stroke="#ff0000" cx="267" cy="-284.4" rx="27" ry="18"/>
<text text-anchor="middle" x="267" y="-280.2" font-family="Times,serif" font-size="14.00" fill="#000000">17</text>
</g>
<!-- 17&#45;&#45;0 -->
<g id="edge9" class="edge">
<title>17&#45;&#45;0</title>
<path fill="none" stroke="#000000" d="M271.6336,-266.4182C275.4577,-254.9587 281.9981,-240.621 292.5,-231.6 313.1352,-213.8746 325.5935,-223.3216 351,-213.6 356.5718,-211.468 362.4698,-208.9107 367.946,-206.4021"/>
<text text-anchor="middle" x="305.25" y="-235.8" font-family="Times,serif" font-size="14.00" fill="#000000">6.25</text>
</g>
<!-- 17&#45;&#45;10 -->
<g id="edge12" class="edge">
<title>17&#45;&#45;10</title>
<path fill="none" stroke="#000000" d="M244.6946,-274.167C232.5165,-267.8714 217.6857,-258.9851 206.5,-248.4 195.5886,-238.0745 186.2515,-223.8183 179.8955,-212.7218"/>
<text text-anchor="middle" x="222.75" y="-235.8" font-family="Times,serif" font-size="14.00" fill="#000000">23.13</text>
</g>
<!-- 17&#45;&#45;13 -->
<g id="edge11" class="edge">
<title>17&#45;&#45;13</title>
<path fill="none" stroke="#000000" d="M254.4928,-268.4475C250.5319,-262.4916 246.6323,-255.4551 244.5,-248.4 241.1041,-237.1639 240.7291,-223.9639 241.2031,-213.5729"/>
<text text-anchor="middle" x="257.25" y="-235.8" font-family="Times,serif" font-size="14.00" fill="#000000">5.59</text>
</g>
<!-- 1 -->
<g id="node16" class="node">
<title>1</title>
<ellipse fill="none" stroke="#ff0000" cx="464" cy="-195.6" rx="27" ry="18"/>
<text text-anchor="middle" x="464" y="-191.4" font-family="Times,serif" font-size="14.00" fill="#000000">1</text>
</g>
<!-- 17&#45;&#45;1 -->
<g id="edge10" class="edge">
<title>17&#45;&#45;1</title>
<path fill="none" stroke="#000000" d="M285.7396,-271.2323C303.3093,-259.4102 330.6711,-242.3141 356.5,-231.6 385.973,-219.3743 396.0035,-224.4782 426,-213.6 431.4901,-211.609 437.2598,-209.1046 442.5982,-206.6021"/>
<text text-anchor="middle" x="372.75" y="-235.8" font-family="Times,serif" font-size="14.00" fill="#000000">10.51</text>
</g>
<!-- 19 -->
<g id="node17" class="node">
<title>19</title>
<ellipse fill="none" stroke="#ff0000" cx="464" cy="-106.8" rx="27" ry="18"/>
<text text-anchor="middle" x="464" y="-102.6" font-family="Times,serif" font-size="14.00" fill="#000000">19</text>
</g>
<!-- 1&#45;&#45;19 -->
<g id="edge13" class="edge">
<title>1&#45;&#45;19</title>
<path fill="none" stroke="#000000" d="M464,-177.2006C464,-161.8587 464,-140.122 464,-124.872"/>
<text text-anchor="middle" x="479.75" y="-147" font-family="Times,serif" font-size="14.00" fill="#000000">19.33</text>
</g>
<!-- 3 -->
<g id="node18" class="node">
<title>3</title>
<ellipse fill="none" stroke="#ff0000" cx="59" cy="-373.2" rx="27" ry="18"/>
<text text-anchor="middle" x="59" y="-369" font-family="Times,serif" font-size="14.00" fill="#000000">3</text>
</g>
<!-- 3&#45;&#45;24 -->
<g id="edge15" class="edge">
<title>3&#45;&#45;24</title>
<path fill="none" stroke="#000000" d="M66.9027,-355.656C73.9153,-340.0881 84.1061,-317.4644 91.1137,-301.9076"/>
<text text-anchor="middle" x="98.75" y="-324.6" font-family="Times,serif" font-size="14.00" fill="#000000">19.14</text>
</g>
<!-- 3&#45;&#45;15 -->
<g id="edge14" class="edge">
<title>3&#45;&#45;15</title>
<path fill="none" stroke="#000000" d="M47.0736,-357.0479C43.1673,-351.0733 39.1536,-344.076 36.5,-337.2 32.2077,-326.0778 29.8327,-312.8778 28.5308,-302.4583"/>
<text text-anchor="middle" x="52.75" y="-324.6" font-family="Times,serif" font-size="14.00" fill="#000000">16.82</text>
</g>
<!-- 4 -->
<g id="node19" class="node">
<title>4</title>
<ellipse fill="none" stroke="#0000ff" cx="753" cy="-284.4" rx="27" ry="18"/>
<text text-anchor="middle" x="753" y="-280.2" font-family="Times,serif" font-size="14.00" fill="#000000">4</text>
</g>
<!-- 5 -->
<g id="node20" class="node">
<title>5</title>
<ellipse fill="none" stroke="#0000ff" cx="537" cy="-195.6" rx="27" ry="18"/>
<text text-anchor="middle" x="537" y="-191.4" font-family="Times,serif" font-size="14.00" fill="#000000">5</text>
</g>
<!-- 21 -->
<g id="node21" class="node">
<title>21</title>
<ellipse fill="none" stroke="#0000ff" cx="537" cy="-106.8" rx="27" ry="18"/>
<text text-anchor="middle" x="537" y="-102.6" font-family="Times,serif" font-size="14.00" fill="#000000">21</text>
</g>
<!-- 5&#45;&#45;21 -->
<g id="edge16" class="edge">
<title>5&#45;&#45;21</title>
<path fill="none" stroke="#000000" d="M537,-177.2006C537,-161.8587 537,-140.122 537,-124.872"/>
<text text-anchor="middle" x="552.75" y="-147" font-family="Times,serif" font-size="14.00" fill="#000000">17.10</text>
</g>
<!-- 6 -->
<g id="node22" class="node">
<title>6</title>
<ellipse fill="none" stroke="#ff0000" cx="681" cy="-373.2" rx="27" ry="18"/>
<text text-anchor="middle" x="681" y="-369" font-family="Times,serif" font-size="14.00" fill="#000000">6</text>
</g>
<!-- 6&#45;&#45;23 -->
<g id="edge18" class="edge">
<title>6&#45;&#45;23</title>
<path fill="none" stroke="#000000" d="M665.1861,-358.3367C658.8092,-352.0496 651.5462,-344.5015 645.5,-337.2 635.9761,-325.6988 626.422,-311.7714 619.4788,-301.1089"/>
<text text-anchor="middle" x="660.75" y="-324.6" font-family="Times,serif" font-size="14.00" fill="#000000">20.02</text>
</g>
<!-- 6&#45;&#45;4 -->
<g id="edge17" class="edge">
<title>6&#45;&#45;4</title>
<path fill="none" stroke="#000000" d="M697.0777,-358.386C703.5508,-352.1064 710.9096,-344.5507 717,-337.2 726.4851,-325.7521 735.904,-311.8223 742.7272,-301.1453"/>
<text text-anchor="middle" x="744.75" y="-324.6" font-family="Times,serif" font-size="14.00" fill="#000000">15.15</text>
</g>
<!-- 8 -->
<g id="node23" class="node">
<title>8</title>
<ellipse fill="none" stroke="#ff0000" cx="681" cy="-284.4" rx="27" ry="18"/>
<text text-anchor="middle" x="681" y="-280.2" font-family="Times,serif" font-size="14.00" fill="#000000">8</text>
</g>
<!-- 6&#45;&#45;8 -->
<g id="edge19" class="edge">
<title>6&#45;&#45;8</title>
<path fill="none" stroke="#000000" d="M681,-354.8006C681,-339.4587 681,-317.722 681,-302.472"/>
<text text-anchor="middle" x="696.75" y="-324.6" font-family="Times,serif" font-size="14.00" fill="#000000">10.34</text>
</g>
<!-- 9 -->
<g id="node24" class="node">
<title>9</title>
<ellipse fill="none" stroke="#ff0000" cx="465" cy="-373.2" rx="27" ry="18"/>
<text text-anchor="middle" x="465" y="-369" font-family="Times,serif" font-size="14.00" fill="#000000">9</text>
</g>
<!-- 9&#45;&#45;22 -->
<g id="edge20" class="edge">
<title>9&#45;&#45;22</title>
<path fill="none" stroke="#000000" d="M452.1278,-357.3243C439.1034,-341.2608 419.0748,-316.5589 406.0035,-300.4376"/>
<text text-anchor="middle" x="448.25" y="-324.6" font-family="Times,serif" font-size="14.00" fill="#000000">9.38</text>
</g>
<!-- 9&#45;&#45;23 -->
<g id="edge22" class="edge">
<title>9&#45;&#45;23</title>
<path fill="none" stroke="#000000" d="M485.0226,-360.8527C512.5342,-343.8872 561.7255,-313.5526 589.1475,-296.6424"/>
<text text-anchor="middle" x="562.25" y="-324.6" font-family="Times,serif" font-size="14.00" fill="#000000">2.63</text>
</g>
<!-- 9&#45;&#45;11 -->
<g id="edge21" class="edge">
<title>9&#45;&#45;11</title>
<path fill="none" stroke="#000000" d="M465,-354.8006C465,-339.4587 465,-317.722 465,-302.472"/>
<text text-anchor="middle" x="480.75" y="-324.6" font-family="Times,serif" font-size="14.00" fill="#000000">15.10</text>
</g>
<!-- 20 -->
<g id="node25" class="node">
<title>20</title>
<ellipse fill="none" stroke="#0000ff" cx="537" cy="-284.4" rx="27" ry="18"/>
<text text-anchor="middle" x="537" y="-280.2" font-family="Times,serif" font-size="14.00" fill="#000000">20</text>
</g>
<!-- 20&#45;&#45;1 -->
<g id="edge24" class="edge">
<title>20&#45;&#45;1</title>
<path fill="none" stroke="#000000" d="M521.2325,-269.498C514.8626,-263.205 507.5925,-255.6629 501.5,-248.4 491.8174,-236.8572 481.9968,-222.9318 474.8355,-212.2806"/>
<text text-anchor="middle" x="517.75" y="-235.8" font-family="Times,serif" font-size="14.00" fill="#000000">20.84</text>
</g>
<!-- 20&#45;&#45;5 -->
<g id="edge23" class="edge">
<title>20&#45;&#45;5</title>
<path fill="none" stroke="#000000" d="M537,-266.0006C537,-250.6587 537,-228.922 537,-213.672"/>
<text text-anchor="middle" x="552.75" y="-235.8" font-family="Times,serif" font-size="14.00" fill="#000000">10.00</text>
</g>
</g>
</svg>
