<svg width="1920px" height="664px"
 viewBox="0.00 0.00 896.00 310.40" xmlns="http://www.w3.org/2000/svg" xmlns:xlink="http://www.w3.org/1999/xlink">
<g id="graph0" class="graph" transform="scale(1.0 1.0) rotate(0) translate(4 306.4)">
<title>%0</title>
<polygon fill="#ffffff" stroke="transparent" points="-4,4 -4,-306.4 892,-306.4 892,4 -4,4"/>
<!-- 22 -->
<g id="node1" class="node">
<title>22</title>
<ellipse fill="none" stroke="#000000" cx="679" cy="-106.8" rx="27" ry="18"/>
<text text-anchor="middle" x="679" y="-102.6" font-family="Times,serif" font-size="14.00" fill="#000000">22</text>
</g>
<!-- 9 -->
<g id="node2" class="node">
<title>9</title>
<ellipse fill="none" stroke="#000000" cx="631" cy="-18" rx="27" ry="18"/>
<text text-anchor="middle" x="631" y="-13.8" font-family="Times,serif" font-size="14.00" fill="#000000">9</text>
</g>
<!-- 22&#45;&#45;9 -->
<g id="edge1" class="edge">
<title>22&#45;&#45;9</title>
<path fill="none" stroke="#000000" d="M668.0845,-90.1766C664.2732,-84.1577 660.061,-77.2529 656.5,-70.8 650.106,-59.2135 643.6302,-45.7788 638.8044,-35.3609"/>
<text text-anchor="middle" x="672.75" y="-58.2" font-family="Times,serif" font-size="14.00" fill="#000000">16.67</text>
</g>
<!-- 23 -->
<g id="node3" class="node">
<title>23</title>
<ellipse fill="none" stroke="#000000" cx="463" cy="-106.8" rx="27" ry="18"/>
<text text-anchor="middle" x="463" y="-102.6" font-family="Times,serif" font-size="14.00" fill="#000000">23</text>
</g>
<!-- 23&#45;&#45;9 -->
<g id="edge2" class="edge">
<title>23&#45;&#45;9</title>
<path fill="none" stroke="#000000" d="M484.2773,-95.5534C516.5046,-78.519 577.3492,-46.3583 609.6308,-29.2952"/>
<text text-anchor="middle" x="578.75" y="-58.2" font-family="Times,serif" font-size="14.00" fill="#000000">20.89</text>
</g>
<!-- 5 -->
<g id="node4" class="node">
<title>5</title>
<ellipse fill="none" stroke="#000000" cx="381" cy="-18" rx="27" ry="18"/>
<text text-anchor="middle" x="381" y="-13.8" font-family="Times,serif" font-size="14.00" fill="#000000">5</text>
</g>
<!-- 23&#45;&#45;5 -->
<g id="edge3" class="edge">
<title>23&#45;&#45;5</title>
<path fill="none" stroke="#000000" d="M448.7167,-91.3322C433.7579,-75.133 410.3951,-49.8328 395.3948,-33.5885"/>
<text text-anchor="middle" x="442.25" y="-58.2" font-family="Times,serif" font-size="14.00" fill="#000000">8.12</text>
</g>
<!-- 24 -->
<g id="node5" class="node">
<title>24</title>
<ellipse fill="none" stroke="#000000" cx="607" cy="-106.8" rx="27" ry="18"/>
<text text-anchor="middle" x="607" y="-102.6" font-family="Times,serif" font-size="14.00" fill="#000000">24</text>
</g>
<!-- 24&#45;&#45;9 -->
<g id="edge4" class="edge">
<title>24&#45;&#45;9</title>
<path fill="none" stroke="#000000" d="M605.2031,-88.8271C604.7291,-78.4361 605.1041,-65.2361 608.5,-54 610.6323,-46.9449 614.5319,-39.9084 618.4928,-33.9525"/>
<text text-anchor="middle" x="621.25" y="-58.2" font-family="Times,serif" font-size="14.00" fill="#000000">1.46</text>
</g>
<!-- 10 -->
<g id="node6" class="node">
<title>10</title>
<ellipse fill="none" stroke="#ff0000" cx="499" cy="-195.6" rx="27" ry="18"/>
<text text-anchor="middle" x="499" y="-191.4" font-family="Times,serif" font-size="14.00" fill="#000000">10</text>
</g>
<!-- 19 -->
<g id="node7" class="node">
<title>19</title>
<ellipse fill="none" stroke="#ff0000" cx="391" cy="-106.8" rx="27" ry="18"/>
<text text-anchor="middle" x="391" y="-102.6" font-family="Times,serif" font-size="14.00" fill="#000000">19</text>
</g>
<!-- 10&#45;&#45;19 -->
<g id="edge5" class="edge">
<title>10&#45;&#45;19</title>
<path fill="none" stroke="#000000" d="M481.6479,-181.3327C461.494,-164.7617 428.4446,-137.5878 408.309,-121.0318"/>
<text text-anchor="middle" x="470.75" y="-147" font-family="Times,serif" font-size="14.00" fill="#000000">23.91</text>
</g>
<!-- 7 -->
<g id="node8" class="node">
<title>7</title>
<ellipse fill="none" stroke="#000000" cx="535" cy="-106.8" rx="27" ry="18"/>
<text text-anchor="middle" x="535" y="-102.6" font-family="Times,serif" font-size="14.00" fill="#000000">7</text>
</g>
<!-- 10&#45;&#45;7 -->
<g id="edge6" class="edge">
<title>10&#45;&#45;7</title>
<path fill="none" stroke="#000000" d="M506.1124,-178.056C512.4237,-162.4881 521.5955,-139.8644 527.9023,-124.3076"/>
<text text-anchor="middle" x="536.75" y="-147" font-family="Times,serif" font-size="14.00" fill="#000000">10.52</text>
</g>
<!-- 11 -->
<g id="node9" class="node">
<title>11</title>
<ellipse fill="none" stroke="#ff0000" cx="123" cy="-195.6" rx="27" ry="18"/>
<text text-anchor="middle" x="123" y="-191.4" font-family="Times,serif" font-size="14.00" fill="#000000">11</text>
</g>
<!-- 16 -->
<g id="node10" class="node">
<title>16</title>
<ellipse fill="none" stroke="#ff0000" cx="319" cy="-106.8" rx="27" ry="18"/>
<text text-anchor="middle" x="319" y="-102.6" font-family="Times,serif" font-size="14.00" fill="#000000">16</text>
</g>
<!-- 11&#45;&#45;16 -->
<g id="edge7" class="edge">
<title>11&#45;&#45;16</title>
<path fill="none" stroke="#000000" d="M138.2801,-180.6152C151.3609,-168.6243 171.2425,-152.2956 191.5,-142.8 224.6953,-127.2398 236.8997,-135.384 272,-124.8 279.8637,-122.4288 288.2893,-119.3721 295.804,-116.453"/>
<text text-anchor="middle" x="207.75" y="-147" font-family="Times,serif" font-size="14.00" fill="#000000">18.88</text>
</g>
<!-- 15 -->
<g id="node11" class="node">
<title>15</title>
<ellipse fill="none" stroke="#000000" cx="39" cy="-106.8" rx="27" ry="18"/>
<text text-anchor="middle" x="39" y="-102.6" font-family="Times,serif" font-size="14.00" fill="#000000">15</text>
</g>
<!-- 11&#45;&#45;15 -->
<g id="edge8" class="edge">
<title>11&#45;&#45;15</title>
<path fill="none" stroke="#000000" d="M108.3683,-180.1322C92.9507,-163.8336 68.8181,-138.322 53.464,-122.0905"/>
<text text-anchor="middle" x="101.25" y="-147" font-family="Times,serif" font-size="14.00" fill="#000000">7.29</text>
</g>
<!-- 4 -->
<g id="node13" class="node">
<title>4</title>
<ellipse fill="none" stroke="#ff0000" cx="123" cy="-106.8" rx="27" ry="18"/>
<text text-anchor="middle" x="123" y="-102.6" font-family="Times,serif" font-size="14.00" fill="#000000">4</text>
</g>
<!-- 11&#45;&#45;4 -->
<g id="edge9" class="edge">
<title>11&#45;&#45;4</title>
<path fill="none" stroke="#000000" d="M123,-177.2006C123,-161.8587 123,-140.122 123,-124.872"/>
<text text-anchor="middle" x="135.25" y="-147" font-family="Times,serif" font-size="14.00" fill="#000000">5.42</text>
</g>
<!-- 16&#45;&#45;5 -->
<g id="edge10" class="edge">
<title>16&#45;&#45;5</title>
<path fill="none" stroke="#000000" d="M330.6617,-90.0974C341.8165,-74.1209 358.5333,-50.1781 369.6,-34.3277"/>
<text text-anchor="middle" x="371.75" y="-58.2" font-family="Times,serif" font-size="14.00" fill="#000000">24.83</text>
</g>
<!-- 2 -->
<g id="node12" class="node">
<title>2</title>
<ellipse fill="none" stroke="#ff0000" cx="39" cy="-18" rx="27" ry="18"/>
<text text-anchor="middle" x="39" y="-13.8" font-family="Times,serif" font-size="14.00" fill="#000000">2</text>
</g>
<!-- 15&#45;&#45;2 -->
<g id="edge11" class="edge">
<title>15&#45;&#45;2</title>
<path fill="none" stroke="#000000" d="M39,-88.4006C39,-73.0587 39,-51.322 39,-36.072"/>
<text text-anchor="middle" x="54.75" y="-58.2" font-family="Times,serif" font-size="14.00" fill="#000000">21.63</text>
</g>
<!-- 12 -->
<g id="node14" class="node">
<title>12</title>
<ellipse fill="none" stroke="#000000" cx="607" cy="-195.6" rx="27" ry="18"/>
<text text-anchor="middle" x="607" y="-191.4" font-family="Times,serif" font-size="14.00" fill="#000000">12</text>
</g>
<!-- 12&#45;&#45;24 -->
<g id="edge12" class="edge">
<title>12&#45;&#45;24</title>
<path fill="none" stroke="#000000" d="M607,-177.2006C607,-161.8587 607,-140.122 607,-124.872"/>
<text text-anchor="middle" x="622.75" y="-147" font-family="Times,serif" font-size="14.00" fill="#000000">18.30</text>
</g>
<!-- 13 -->
<g id="node15" class="node">
<title>13</title>
<ellipse fill="none" stroke="#000000" cx="336" cy="-195.6" rx="27" ry="18"/>
<text text-anchor="middle" x="336" y="-191.4" font-family="Times,serif" font-size="14.00" fill="#000000">13</text>
</g>
<!-- 13&#45;&#45;19 -->
<g id="edge15" class="edge">
<title>13&#45;&#45;19</title>
<path fill="none" stroke="#000000" d="M349.7827,-180.039C354.8832,-173.8976 360.511,-166.6368 365,-159.6 372.1439,-148.4015 378.737,-134.9608 383.4964,-124.4428"/>
<text text-anchor="middle" x="389.75" y="-147" font-family="Times,serif" font-size="14.00" fill="#000000">12.85</text>
</g>
<!-- 13&#45;&#45;16 -->
<g id="edge13" class="edge">
<title>13&#45;&#45;16</title>
<path fill="none" stroke="#000000" d="M332.5598,-177.63C329.6104,-162.2236 325.383,-140.142 322.4351,-124.7433"/>
<text text-anchor="middle" x="345.75" y="-147" font-family="Times,serif" font-size="14.00" fill="#000000">21.74</text>
</g>
<!-- 17 -->
<g id="node16" class="node">
<title>17</title>
<ellipse fill="none" stroke="#000000" cx="236" cy="-106.8" rx="27" ry="18"/>
<text text-anchor="middle" x="236" y="-102.6" font-family="Times,serif" font-size="14.00" fill="#000000">17</text>
</g>
<!-- 13&#45;&#45;17 -->
<g id="edge14" class="edge">
<title>13&#45;&#45;17</title>
<path fill="none" stroke="#000000" d="M317.9455,-181.9845C309.4547,-175.4132 299.2886,-167.2998 290.5,-159.6 276.6274,-147.4461 261.6285,-132.7945 250.8841,-122.012"/>
<text text-anchor="middle" x="306.75" y="-147" font-family="Times,serif" font-size="14.00" fill="#000000">23.71</text>
</g>
<!-- 6 -->
<g id="node17" class="node">
<title>6</title>
<ellipse fill="none" stroke="#000000" cx="236" cy="-18" rx="27" ry="18"/>
<text text-anchor="middle" x="236" y="-13.8" font-family="Times,serif" font-size="14.00" fill="#000000">6</text>
</g>
<!-- 17&#45;&#45;6 -->
<g id="edge16" class="edge">
<title>17&#45;&#45;6</title>
<path fill="none" stroke="#000000" d="M236,-88.4006C236,-73.0587 236,-51.322 236,-36.072"/>
<text text-anchor="middle" x="251.75" y="-58.2" font-family="Times,serif" font-size="14.00" fill="#000000">16.85</text>
</g>
<!-- 14 -->
<g id="node18" class="node">
<title>14</title>
<ellipse fill="none" stroke="#000000" cx="27" cy="-195.6" rx="27" ry="18"/>
<text text-anchor="middle" x="27" y="-191.4" font-family="Times,serif" font-size="14.00" fill="#000000">14</text>
</g>
<!-- 14&#45;&#45;15 -->
<g id="edge17" class="edge">
<title>14&#45;&#45;15</title>
<path fill="none" stroke="#000000" d="M26.3779,-177.4115C26.3122,-167.1832 26.7037,-154.2142 28.5,-142.8 29.4514,-136.7546 31.1198,-130.2951 32.8504,-124.5405"/>
<text text-anchor="middle" x="41.25" y="-147" font-family="Times,serif" font-size="14.00" fill="#000000">2.39</text>
</g>
<!-- 18 -->
<g id="node19" class="node">
<title>18</title>
<ellipse fill="none" stroke="#000000" cx="755" cy="-106.8" rx="27" ry="18"/>
<text text-anchor="middle" x="755" y="-102.6" font-family="Times,serif" font-size="14.00" fill="#000000">18</text>
</g>
<!-- 18&#45;&#45;9 -->
<g id="edge19" class="edge">
<title>18&#45;&#45;9</title>
<path fill="none" stroke="#000000" d="M738.0245,-92.62C724.7008,-81.6889 705.535,-66.3962 688,-54 676.149,-45.6221 662.4054,-36.914 651.3831,-30.1612"/>
<text text-anchor="middle" x="723.25" y="-58.2" font-family="Times,serif" font-size="14.00" fill="#000000">5.83</text>
</g>
<!-- 8 -->
<g id="node20" class="node">
<title>8</title>
<ellipse fill="none" stroke="#000000" cx="773" cy="-18" rx="27" ry="18"/>
<text text-anchor="middle" x="773" y="-13.8" font-family="Times,serif" font-size="14.00" fill="#000000">8</text>
</g>
<!-- 18&#45;&#45;8 -->
<g id="edge18" class="edge">
<title>18&#45;&#45;8</title>
<path fill="none" stroke="#000000" d="M755.3291,-88.5291C755.8189,-78.2751 756.9489,-65.3077 759.5,-54 760.9103,-47.7491 763.1613,-41.1239 765.4241,-35.2841"/>
<text text-anchor="middle" x="772.25" y="-58.2" font-family="Times,serif" font-size="14.00" fill="#000000">8.45</text>
</g>
<!-- 0 -->
<g id="node21" class="node">
<title>0</title>
<ellipse fill="none" stroke="#ff0000" cx="226" cy="-195.6" rx="27" ry="18"/>
<text text-anchor="middle" x="226" y="-191.4" font-family="Times,serif" font-size="14.00" fill="#000000">0</text>
</g>
<!-- 0&#45;&#45;17 -->
<g id="edge20" class="edge">
<title>0&#45;&#45;17</title>
<path fill="none" stroke="#000000" d="M225.6076,-177.4446C225.6138,-167.2267 226.0006,-154.257 227.5,-142.8 228.2833,-136.8145 229.6374,-130.3708 231.0375,-124.6125"/>
<text text-anchor="middle" x="243.75" y="-147" font-family="Times,serif" font-size="14.00" fill="#000000">17.17</text>
</g>
<!-- 1 -->
<g id="node22" class="node">
<title>1</title>
<ellipse fill="none" stroke="#ff0000" cx="123" cy="-284.4" rx="27" ry="18"/>
<text text-anchor="middle" x="123" y="-280.2" font-family="Times,serif" font-size="14.00" fill="#000000">1</text>
</g>
<!-- 1&#45;&#45;11 -->
<g id="edge21" class="edge">
<title>1&#45;&#45;11</title>
<path fill="none" stroke="#000000" d="M123,-266.0006C123,-250.6587 123,-228.922 123,-213.672"/>
<text text-anchor="middle" x="135.25" y="-235.8" font-family="Times,serif" font-size="14.00" fill="#000000">1.79</text>
</g>
<!-- 3 -->
<g id="node23" class="node">
<title>3</title>
<ellipse fill="none" stroke="#000000" cx="861" cy="-18" rx="27" ry="18"/>
<text text-anchor="middle" x="861" y="-13.8" font-family="Times,serif" font-size="14.00" fill="#000000">3</text>
</g>
<!-- 20 -->
<g id="node24" class="node">
<title>20</title>
<ellipse fill="none" stroke="#000000" cx="844" cy="-106.8" rx="27" ry="18"/>
<text text-anchor="middle" x="844" y="-102.6" font-family="Times,serif" font-size="14.00" fill="#000000">20</text>
</g>
<!-- 20&#45;&#45;8 -->
<g id="edge23" class="edge">
<title>20&#45;&#45;8</title>
<path fill="none" stroke="#000000" d="M830.7132,-90.7283C825.6149,-84.5241 819.76,-77.3539 814.5,-70.8 804.721,-58.6155 793.8089,-44.7202 785.6293,-34.2434"/>
<text text-anchor="middle" x="830.75" y="-58.2" font-family="Times,serif" font-size="14.00" fill="#000000">15.33</text>
</g>
<!-- 20&#45;&#45;3 -->
<g id="edge22" class="edge">
<title>20&#45;&#45;3</title>
<path fill="none" stroke="#000000" d="M847.4402,-88.83C850.3896,-73.4236 854.617,-51.342 857.5649,-35.9433"/>
<text text-anchor="middle" x="869.75" y="-58.2" font-family="Times,serif" font-size="14.00" fill="#000000">16.55</text>
</g>
<!-- 21 -->
<g id="node25" class="node">
<title>21</title>
<ellipse fill="none" stroke="#000000" cx="679" cy="-195.6" rx="27" ry="18"/>
<text text-anchor="middle" x="679" y="-191.4" font-family="Times,serif" font-size="14.00" fill="#000000">21</text>
</g>
<!-- 21&#45;&#45;22 -->
<g id="edge24" class="edge">
<title>21&#45;&#45;22</title>
<path fill="none" stroke="#000000" d="M679,-177.2006C679,-161.8587 679,-140.122 679,-124.872"/>
<text text-anchor="middle" x="691.25" y="-147" font-family="Times,serif" font-size="14.00" fill="#000000">9.38</text>
</g>
</g>
</svg>
