<svg width="600px" height="1640px"
 viewBox="0.00 0.00 145.50 399.20" xmlns="http://www.w3.org/2000/svg" xmlns:xlink="http://www.w3.org/1999/xlink">
<g id="graph0" class="graph" transform="scale(1.0 1.0) rotate(0) translate(4 395.2)">
<title>%0</title>
<polygon fill="#ffffff" stroke="transparent" points="-4,4 -4,-395.2 141.5,-395.2 141.5,4 -4,4"/>
<!-- 3 -->
<g id="node1" class="node">
<title>3</title>
<ellipse fill="none" stroke="#ff0000" cx="63" cy="-373.2" rx="27" ry="18"/>
<text text-anchor="middle" x="63" y="-369" font-family="Times,serif" font-size="14.00" fill="#000000">3</text>
</g>
<!-- 4 -->
<g id="node2" class="node">
<title>4</title>
<ellipse fill="none" stroke="#ff0000" cx="63" cy="-284.4" rx="27" ry="18"/>
<text text-anchor="middle" x="63" y="-280.2" font-family="Times,serif" font-size="14.00" fill="#000000">4</text>
</g>
<!-- 3&#45;&gt;4 -->
<g id="edge1" class="edge">
<title>3&#45;&gt;4</title>
<path fill="none" stroke="#000000" d="M63,-354.8006C63,-342.6949 63,-326.6076 63,-312.8674"/>
<polygon fill="#000000" stroke="#000000" points="66.5001,-312.472 63,-302.472 59.5001,-312.4721 66.5001,-312.472"/>
<text text-anchor="middle" x="82.25" y="-324.6" font-family="Times,serif" font-size="14.00" fill="#000000">303.00</text>
</g>
<!-- 1 -->
<g id="node3" class="node">
<title>1</title>
<ellipse fill="none" stroke="#ff0000" cx="27" cy="-195.6" rx="27" ry="18"/>
<text text-anchor="middle" x="27" y="-191.4" font-family="Times,serif" font-size="14.00" fill="#000000">1</text>
</g>
<!-- 4&#45;&gt;1 -->
<g id="edge2" class="edge">
<title>4&#45;&gt;1</title>
<path fill="none" stroke="#000000" d="M48.5575,-268.9923C43.6773,-262.9823 38.6681,-255.7701 35.5,-248.4 32.2367,-240.8083 30.215,-232.1135 28.9661,-224.0002"/>
<polygon fill="#000000" stroke="#000000" points="32.409,-223.3168 27.73,-213.8112 25.4599,-224.16 32.409,-223.3168"/>
<text text-anchor="middle" x="55.25" y="-235.8" font-family="Times,serif" font-size="14.00" fill="#000000">304.00</text>
</g>
<!-- 2 -->
<g id="node6" class="node">
<title>2</title>
<ellipse fill="none" stroke="#ff0000" cx="99" cy="-195.6" rx="27" ry="18"/>
<text text-anchor="middle" x="99" y="-191.4" font-family="Times,serif" font-size="14.00" fill="#000000">2</text>
</g>
<!-- 4&#45;&gt;2 -->
<g id="edge3" class="edge">
<title>4&#45;&gt;2</title>
<path fill="none" stroke="#000000" d="M70.1124,-266.856C75.2404,-254.2071 82.2567,-236.9002 88.0903,-222.5105"/>
<polygon fill="#000000" stroke="#000000" points="91.3888,-223.69 91.9023,-213.1076 84.9016,-221.06 91.3888,-223.69"/>
<text text-anchor="middle" x="104.25" y="-235.8" font-family="Times,serif" font-size="14.00" fill="#000000">294.00</text>
</g>
<!-- 69 -->
<g id="node4" class="node">
<title>69</title>
<ellipse fill="none" stroke="#000000" cx="27" cy="-106.8" rx="27" ry="18"/>
<text text-anchor="middle" x="27" y="-102.6" font-family="Times,serif" font-size="14.00" fill="#000000">69</text>
</g>
<!-- 1&#45;&gt;69 -->
<g id="edge4" class="edge">
<title>1&#45;&gt;69</title>
<path fill="none" stroke="#000000" d="M27,-177.2006C27,-165.0949 27,-149.0076 27,-135.2674"/>
<polygon fill="#000000" stroke="#000000" points="30.5001,-134.872 27,-124.872 23.5001,-134.8721 30.5001,-134.872"/>
<text text-anchor="middle" x="46.25" y="-147" font-family="Times,serif" font-size="14.00" fill="#000000">199.00</text>
</g>
<!-- 6 -->
<g id="node5" class="node">
<title>6</title>
<ellipse fill="none" stroke="#ff0000" cx="27" cy="-18" rx="27" ry="18"/>
<text text-anchor="middle" x="27" y="-13.8" font-family="Times,serif" font-size="14.00" fill="#000000">6</text>
</g>
<!-- 69&#45;&gt;6 -->
<g id="edge5" class="edge">
<title>69&#45;&gt;6</title>
<path fill="none" stroke="#000000" d="M27,-88.4006C27,-76.2949 27,-60.2076 27,-46.4674"/>
<polygon fill="#000000" stroke="#000000" points="30.5001,-46.072 27,-36.072 23.5001,-46.0721 30.5001,-46.072"/>
<text text-anchor="middle" x="46.25" y="-58.2" font-family="Times,serif" font-size="14.00" fill="#000000">192.00</text>
</g>
<!-- 5 -->
<g id="node7" class="node">
<title>5</title>
<ellipse fill="none" stroke="#ff0000" cx="99" cy="-106.8" rx="27" ry="18"/>
<text text-anchor="middle" x="99" y="-102.6" font-family="Times,serif" font-size="14.00" fill="#000000">5</text>
</g>
<!-- 2&#45;&gt;5 -->
<g id="edge6" class="edge">
<title>2&#45;&gt;5</title>
<path fill="none" stroke="#000000" d="M99,-177.2006C99,-165.0949 99,-149.0076 99,-135.2674"/>
<polygon fill="#000000" stroke="#000000" points="102.5001,-134.872 99,-124.872 95.5001,-134.8721 102.5001,-134.872"/>
<text text-anchor="middle" x="118.25" y="-147" font-family="Times,serif" font-size="14.00" fill="#000000">305.00</text>
</g>
</g>
</svg>
