<svg width="1920px" height="1310px"
 viewBox="0.00 0.00 714.50 488.00" xmlns="http://www.w3.org/2000/svg" xmlns:xlink="http://www.w3.org/1999/xlink">
<g id="graph0" class="graph" transform="scale(1.0 1.0) rotate(0) translate(4 484)">
<title>%0</title>
<polygon fill="#ffffff" stroke="transparent" points="-4,4 -4,-484 710.5,-484 710.5,4 -4,4"/>
<!-- 22 -->
<g id="node1" class="node">
<title>22</title>
<ellipse fill="none" stroke="#ff0000" cx="243" cy="-284.4" rx="27" ry="18"/>
<text text-anchor="middle" x="243" y="-280.2" font-family="Times,serif" font-size="14.00" fill="#000000">22</text>
</g>
<!-- 6 -->
<g id="node2" class="node">
<title>6</title>
<ellipse fill="none" stroke="#000000" cx="99" cy="-195.6" rx="27" ry="18"/>
<text text-anchor="middle" x="99" y="-191.4" font-family="Times,serif" font-size="14.00" fill="#000000">6</text>
</g>
<!-- 22&#45;&#45;6 -->
<g id="edge1" class="edge">
<title>22&#45;&#45;6</title>
<path fill="none" stroke="#000000" d="M222.9774,-272.0527C195.4658,-255.0872 146.2745,-224.7526 118.8525,-207.8424"/>
<text text-anchor="middle" x="196.25" y="-235.8" font-family="Times,serif" font-size="14.00" fill="#000000">9.38</text>
</g>
<!-- 23 -->
<g id="node3" class="node">
<title>23</title>
<ellipse fill="none" stroke="#ff0000" cx="99" cy="-284.4" rx="27" ry="18"/>
<text text-anchor="middle" x="99" y="-280.2" font-family="Times,serif" font-size="14.00" fill="#000000">23</text>
</g>
<!-- 23&#45;&#45;6 -->
<g id="edge2" class="edge">
<title>23&#45;&#45;6</title>
<path fill="none" stroke="#000000" d="M99,-266.0006C99,-250.6587 99,-228.922 99,-213.672"/>
<text text-anchor="middle" x="111.25" y="-235.8" font-family="Times,serif" font-size="14.00" fill="#000000">3.52</text>
</g>
<!-- 24 -->
<g id="node4" class="node">
<title>24</title>
<ellipse fill="none" stroke="#ff0000" cx="459" cy="-195.6" rx="27" ry="18"/>
<text text-anchor="middle" x="459" y="-191.4" font-family="Times,serif" font-size="14.00" fill="#000000">24</text>
</g>
<!-- 8 -->
<g id="node5" class="node">
<title>8</title>
<ellipse fill="none" stroke="#000000" cx="387" cy="-106.8" rx="27" ry="18"/>
<text text-anchor="middle" x="387" y="-102.6" font-family="Times,serif" font-size="14.00" fill="#000000">8</text>
</g>
<!-- 24&#45;&#45;8 -->
<g id="edge3" class="edge">
<title>24&#45;&#45;8</title>
<path fill="none" stroke="#000000" d="M446.1278,-179.7243C433.1034,-163.6608 413.0748,-138.9589 400.0035,-122.8376"/>
<text text-anchor="middle" x="442.25" y="-147" font-family="Times,serif" font-size="14.00" fill="#000000">4.17</text>
</g>
<!-- 10 -->
<g id="node6" class="node">
<title>10</title>
<ellipse fill="none" stroke="#ff0000" cx="27" cy="-284.4" rx="27" ry="18"/>
<text text-anchor="middle" x="27" y="-280.2" font-family="Times,serif" font-size="14.00" fill="#000000">10</text>
</g>
<!-- 10&#45;&#45;6 -->
<g id="edge4" class="edge">
<title>10&#45;&#45;6</title>
<path fill="none" stroke="#000000" d="M37.4788,-267.6911C44.422,-257.0286 53.9761,-243.1012 63.5,-231.6 69.5462,-224.2985 76.8092,-216.7504 83.1861,-210.4633"/>
<text text-anchor="middle" x="79.75" y="-235.8" font-family="Times,serif" font-size="14.00" fill="#000000">20.22</text>
</g>
<!-- 11 -->
<g id="node7" class="node">
<title>11</title>
<ellipse fill="none" stroke="#000000" cx="315" cy="-195.6" rx="27" ry="18"/>
<text text-anchor="middle" x="315" y="-191.4" font-family="Times,serif" font-size="14.00" fill="#000000">11</text>
</g>
<!-- 11&#45;&#45;8 -->
<g id="edge6" class="edge">
<title>11&#45;&#45;8</title>
<path fill="none" stroke="#000000" d="M327.8722,-179.7243C340.8966,-163.6608 360.9252,-138.9589 373.9965,-122.8376"/>
<text text-anchor="middle" x="370.25" y="-147" font-family="Times,serif" font-size="14.00" fill="#000000">5.73</text>
</g>
<!-- 18 -->
<g id="node8" class="node">
<title>18</title>
<ellipse fill="none" stroke="#000000" cx="291" cy="-106.8" rx="27" ry="18"/>
<text text-anchor="middle" x="291" y="-102.6" font-family="Times,serif" font-size="14.00" fill="#000000">18</text>
</g>
<!-- 11&#45;&#45;18 -->
<g id="edge5" class="edge">
<title>11&#45;&#45;18</title>
<path fill="none" stroke="#000000" d="M302.4928,-179.6475C298.5319,-173.6916 294.6323,-166.6551 292.5,-159.6 289.1041,-148.3639 288.7291,-135.1639 289.2031,-124.7729"/>
<text text-anchor="middle" x="305.25" y="-147" font-family="Times,serif" font-size="14.00" fill="#000000">0.51</text>
</g>
<!-- 12 -->
<g id="node9" class="node">
<title>12</title>
<ellipse fill="none" stroke="#ff0000" cx="531" cy="-284.4" rx="27" ry="18"/>
<text text-anchor="middle" x="531" y="-280.2" font-family="Times,serif" font-size="14.00" fill="#000000">12</text>
</g>
<!-- 13 -->
<g id="node10" class="node">
<title>13</title>
<ellipse fill="none" stroke="#000000" cx="247" cy="-373.2" rx="27" ry="18"/>
<text text-anchor="middle" x="247" y="-369" font-family="Times,serif" font-size="14.00" fill="#000000">13</text>
</g>
<!-- 13&#45;&#45;22 -->
<g id="edge7" class="edge">
<title>13&#45;&#45;22</title>
<path fill="none" stroke="#000000" d="M246.1712,-354.8006C245.4801,-339.4587 244.501,-317.722 243.8141,-302.472"/>
<text text-anchor="middle" x="261.75" y="-324.6" font-family="Times,serif" font-size="14.00" fill="#000000">20.28</text>
</g>
<!-- 16 -->
<g id="node11" class="node">
<title>16</title>
<ellipse fill="none" stroke="#000000" cx="315" cy="-284.4" rx="27" ry="18"/>
<text text-anchor="middle" x="315" y="-280.2" font-family="Times,serif" font-size="14.00" fill="#000000">16</text>
</g>
<!-- 13&#45;&#45;16 -->
<g id="edge8" class="edge">
<title>13&#45;&#45;16</title>
<path fill="none" stroke="#000000" d="M262.552,-357.9939C268.5858,-351.779 275.3808,-344.3739 281,-337.2 289.8745,-325.8702 298.6367,-312.1864 305.043,-301.5884"/>
<text text-anchor="middle" x="308.75" y="-324.6" font-family="Times,serif" font-size="14.00" fill="#000000">11.31</text>
</g>
<!-- 9 -->
<g id="node13" class="node">
<title>9</title>
<ellipse fill="none" stroke="#000000" cx="171" cy="-284.4" rx="27" ry="18"/>
<text text-anchor="middle" x="171" y="-280.2" font-family="Times,serif" font-size="14.00" fill="#000000">9</text>
</g>
<!-- 13&#45;&#45;9 -->
<g id="edge9" class="edge">
<title>13&#45;&#45;9</title>
<path fill="none" stroke="#000000" d="M233.4127,-357.3243C219.5793,-341.161 198.2605,-316.2517 184.4696,-300.1382"/>
<text text-anchor="middle" x="228.25" y="-324.6" font-family="Times,serif" font-size="14.00" fill="#000000">6.04</text>
</g>
<!-- 16&#45;&#45;24 -->
<g id="edge10" class="edge">
<title>16&#45;&#45;24</title>
<path fill="none" stroke="#000000" d="M330.0304,-268.9005C341.8273,-257.413 359.1129,-242.0077 376.5,-231.6 395.5147,-220.218 402.7334,-222.5653 423,-213.6 427.7289,-211.5081 432.7319,-209.1215 437.4555,-206.7855"/>
<text text-anchor="middle" x="392.75" y="-235.8" font-family="Times,serif" font-size="14.00" fill="#000000">14.13</text>
</g>
<!-- 5 -->
<g id="node12" class="node">
<title>5</title>
<ellipse fill="none" stroke="#000000" cx="243" cy="-195.6" rx="27" ry="18"/>
<text text-anchor="middle" x="243" y="-191.4" font-family="Times,serif" font-size="14.00" fill="#000000">5</text>
</g>
<!-- 16&#45;&#45;5 -->
<g id="edge11" class="edge">
<title>16&#45;&#45;5</title>
<path fill="none" stroke="#000000" d="M297.9847,-270.1899C290.9358,-263.886 282.9241,-256.1495 276.5,-248.4 267.216,-237.2007 258.4726,-223.2591 252.2476,-212.5146"/>
<text text-anchor="middle" x="289.25" y="-235.8" font-family="Times,serif" font-size="14.00" fill="#000000">9.74</text>
</g>
<!-- 14 -->
<g id="node14" class="node">
<title>14</title>
<ellipse fill="none" stroke="#ff0000" cx="387" cy="-284.4" rx="27" ry="18"/>
<text text-anchor="middle" x="387" y="-280.2" font-family="Times,serif" font-size="14.00" fill="#000000">14</text>
</g>
<!-- 14&#45;&#45;24 -->
<g id="edge12" class="edge">
<title>14&#45;&#45;24</title>
<path fill="none" stroke="#000000" d="M397.4788,-267.6911C404.422,-257.0286 413.9761,-243.1012 423.5,-231.6 429.5462,-224.2985 436.8092,-216.7504 443.1861,-210.4633"/>
<text text-anchor="middle" x="439.75" y="-235.8" font-family="Times,serif" font-size="14.00" fill="#000000">18.99</text>
</g>
<!-- 15 -->
<g id="node15" class="node">
<title>15</title>
<ellipse fill="none" stroke="#000000" cx="387" cy="-195.6" rx="27" ry="18"/>
<text text-anchor="middle" x="387" y="-191.4" font-family="Times,serif" font-size="14.00" fill="#000000">15</text>
</g>
<!-- 15&#45;&#45;8 -->
<g id="edge13" class="edge">
<title>15&#45;&#45;8</title>
<path fill="none" stroke="#000000" d="M387,-177.2006C387,-161.8587 387,-140.122 387,-124.872"/>
<text text-anchor="middle" x="399.25" y="-147" font-family="Times,serif" font-size="14.00" fill="#000000">7.06</text>
</g>
<!-- 17 -->
<g id="node16" class="node">
<title>17</title>
<ellipse fill="none" stroke="#ff0000" cx="651" cy="-462" rx="27" ry="18"/>
<text text-anchor="middle" x="651" y="-457.8" font-family="Times,serif" font-size="14.00" fill="#000000">17</text>
</g>
<!-- 2 -->
<g id="node17" class="node">
<title>2</title>
<ellipse fill="none" stroke="#ff0000" cx="651" cy="-373.2" rx="27" ry="18"/>
<text text-anchor="middle" x="651" y="-369" font-family="Times,serif" font-size="14.00" fill="#000000">2</text>
</g>
<!-- 17&#45;&#45;2 -->
<g id="edge14" class="edge">
<title>17&#45;&#45;2</title>
<path fill="none" stroke="#000000" d="M651,-443.6006C651,-428.2587 651,-406.522 651,-391.272"/>
<text text-anchor="middle" x="663.25" y="-413.4" font-family="Times,serif" font-size="14.00" fill="#000000">2.49</text>
</g>
<!-- 2&#45;&#45;22 -->
<g id="edge16" class="edge">
<title>2&#45;&#45;22</title>
<path fill="none" stroke="#000000" d="M641.3216,-356.1388C633.3171,-343.8332 620.7285,-328.0879 605,-320.4 539.8153,-288.5386 349.1273,-321.0106 279,-302.4 273.7319,-301.0019 268.3321,-298.7848 263.3697,-296.3775"/>
<text text-anchor="middle" x="637.25" y="-324.6" font-family="Times,serif" font-size="14.00" fill="#000000">4.47</text>
</g>
<!-- 21 -->
<g id="node18" class="node">
<title>21</title>
<ellipse fill="none" stroke="#ff0000" cx="675" cy="-284.4" rx="27" ry="18"/>
<text text-anchor="middle" x="675" y="-280.2" font-family="Times,serif" font-size="14.00" fill="#000000">21</text>
</g>
<!-- 2&#45;&#45;21 -->
<g id="edge15" class="edge">
<title>2&#45;&#45;21</title>
<path fill="none" stroke="#000000" d="M655.8568,-355.23C660.0207,-339.8236 665.9887,-317.742 670.1505,-302.3433"/>
<text text-anchor="middle" x="677.25" y="-324.6" font-family="Times,serif" font-size="14.00" fill="#000000">6.43</text>
</g>
<!-- 3 -->
<g id="node19" class="node">
<title>3</title>
<ellipse fill="none" stroke="#000000" cx="675" cy="-195.6" rx="27" ry="18"/>
<text text-anchor="middle" x="675" y="-191.4" font-family="Times,serif" font-size="14.00" fill="#000000">3</text>
</g>
<!-- 21&#45;&#45;3 -->
<g id="edge17" class="edge">
<title>21&#45;&#45;3</title>
<path fill="none" stroke="#000000" d="M675,-266.0006C675,-250.6587 675,-228.922 675,-213.672"/>
<text text-anchor="middle" x="690.75" y="-235.8" font-family="Times,serif" font-size="14.00" fill="#000000">14.90</text>
</g>
<!-- 4 -->
<g id="node20" class="node">
<title>4</title>
<ellipse fill="none" stroke="#ff0000" cx="675" cy="-106.8" rx="27" ry="18"/>
<text text-anchor="middle" x="675" y="-102.6" font-family="Times,serif" font-size="14.00" fill="#000000">4</text>
</g>
<!-- 3&#45;&#45;4 -->
<g id="edge18" class="edge">
<title>3&#45;&#45;4</title>
<path fill="none" stroke="#000000" d="M675,-177.2006C675,-161.8587 675,-140.122 675,-124.872"/>
<text text-anchor="middle" x="690.75" y="-147" font-family="Times,serif" font-size="14.00" fill="#000000">18.29</text>
</g>
<!-- 7 -->
<g id="node21" class="node">
<title>7</title>
<ellipse fill="none" stroke="#ff0000" cx="675" cy="-18" rx="27" ry="18"/>
<text text-anchor="middle" x="675" y="-13.8" font-family="Times,serif" font-size="14.00" fill="#000000">7</text>
</g>
<!-- 4&#45;&#45;7 -->
<g id="edge19" class="edge">
<title>4&#45;&#45;7</title>
<path fill="none" stroke="#000000" d="M675,-88.4006C675,-73.0587 675,-51.322 675,-36.072"/>
<text text-anchor="middle" x="690.75" y="-58.2" font-family="Times,serif" font-size="14.00" fill="#000000">24.31</text>
</g>
<!-- 19 -->
<g id="node22" class="node">
<title>19</title>
<ellipse fill="none" stroke="#000000" cx="603" cy="-284.4" rx="27" ry="18"/>
<text text-anchor="middle" x="603" y="-280.2" font-family="Times,serif" font-size="14.00" fill="#000000">19</text>
</g>
<!-- 19&#45;&#45;24 -->
<g id="edge20" class="edge">
<title>19&#45;&#45;24</title>
<path fill="none" stroke="#000000" d="M582.9774,-272.0527C555.4658,-255.0872 506.2745,-224.7526 478.8525,-207.8424"/>
<text text-anchor="middle" x="559.75" y="-235.8" font-family="Times,serif" font-size="14.00" fill="#000000">18.97</text>
</g>
<!-- 0 -->
<g id="node23" class="node">
<title>0</title>
<ellipse fill="none" stroke="#000000" cx="543" cy="-373.2" rx="27" ry="18"/>
<text text-anchor="middle" x="543" y="-369" font-family="Times,serif" font-size="14.00" fill="#000000">0</text>
</g>
<!-- 0&#45;&#45;12 -->
<g id="edge22" class="edge">
<title>0&#45;&#45;12</title>
<path fill="none" stroke="#000000" d="M536.8504,-355.4595C535.1198,-349.7049 533.4514,-343.2454 532.5,-337.2 530.7037,-325.7858 530.3122,-312.8168 530.3779,-302.5885"/>
<text text-anchor="middle" x="545.25" y="-324.6" font-family="Times,serif" font-size="14.00" fill="#000000">9.58</text>
</g>
<!-- 0&#45;&#45;19 -->
<g id="edge21" class="edge">
<title>0&#45;&#45;19</title>
<path fill="none" stroke="#000000" d="M554.2855,-356.4974C565.0126,-340.6214 581.0548,-316.8789 591.7651,-301.0277"/>
<text text-anchor="middle" x="591.25" y="-324.6" font-family="Times,serif" font-size="14.00" fill="#000000">3.02</text>
</g>
<!-- 1 -->
<g id="node24" class="node">
<title>1</title>
<ellipse fill="none" stroke="#ff0000" cx="459" cy="-284.4" rx="27" ry="18"/>
<text text-anchor="middle" x="459" y="-280.2" font-family="Times,serif" font-size="14.00" fill="#000000">1</text>
</g>
<!-- 1&#45;&#45;24 -->
<g id="edge23" class="edge">
<title>1&#45;&#45;24</title>
<path fill="none" stroke="#000000" d="M459,-266.0006C459,-250.6587 459,-228.922 459,-213.672"/>
<text text-anchor="middle" x="474.75" y="-235.8" font-family="Times,serif" font-size="14.00" fill="#000000">16.34</text>
</g>
<!-- 20 -->
<g id="node25" class="node">
<title>20</title>
<ellipse fill="none" stroke="#ff0000" cx="151" cy="-373.2" rx="27" ry="18"/>
<text text-anchor="middle" x="151" y="-369" font-family="Times,serif" font-size="14.00" fill="#000000">20</text>
</g>
<!-- 20&#45;&#45;9 -->
<g id="edge24" class="edge">
<title>20&#45;&#45;9</title>
<path fill="none" stroke="#000000" d="M149.5426,-354.8389C149.2157,-344.5566 149.624,-331.591 152.5,-320.4 154.2141,-313.7303 157.3269,-306.8915 160.5164,-300.9904"/>
<text text-anchor="middle" x="165.25" y="-324.6" font-family="Times,serif" font-size="14.00" fill="#000000">8.60</text>
</g>
</g>
</svg>
