<svg width="1920px" height="2065px"
 viewBox="0.00 0.00 371.00 399.20" xmlns="http://www.w3.org/2000/svg" xmlns:xlink="http://www.w3.org/1999/xlink">
<g id="graph0" class="graph" transform="scale(1.0 1.0) rotate(0) translate(4 395.2)">
<title>%0</title>
<polygon fill="#ffffff" stroke="transparent" points="-4,4 -4,-395.2 367,-395.2 367,4 -4,4"/>
<!-- 22 -->
<g id="node1" class="node">
<title>22</title>
<ellipse fill="none" stroke="#ff0000" cx="171" cy="-106.8" rx="27" ry="18"/>
<text text-anchor="middle" x="171" y="-102.6" font-family="Times,serif" font-size="14.00" fill="#000000">22</text>
</g>
<!-- 4 -->
<g id="node2" class="node">
<title>4</title>
<ellipse fill="none" stroke="#000000" cx="123" cy="-18" rx="27" ry="18"/>
<text text-anchor="middle" x="123" y="-13.8" font-family="Times,serif" font-size="14.00" fill="#000000">4</text>
</g>
<!-- 22&#45;&#45;4 -->
<g id="edge1" class="edge">
<title>22&#45;&#45;4</title>
<path fill="none" stroke="#000000" d="M161.7451,-89.6785C153.2454,-73.954 140.7172,-50.7768 132.2265,-35.069"/>
<text text-anchor="middle" x="164.25" y="-58.2" font-family="Times,serif" font-size="14.00" fill="#000000">3.68</text>
</g>
<!-- 12 -->
<g id="node3" class="node">
<title>12</title>
<ellipse fill="none" stroke="#000000" cx="27" cy="-373.2" rx="27" ry="18"/>
<text text-anchor="middle" x="27" y="-369" font-family="Times,serif" font-size="14.00" fill="#000000">12</text>
</g>
<!-- 19 -->
<g id="node4" class="node">
<title>19</title>
<ellipse fill="none" stroke="#ff0000" cx="99" cy="-284.4" rx="27" ry="18"/>
<text text-anchor="middle" x="99" y="-280.2" font-family="Times,serif" font-size="14.00" fill="#000000">19</text>
</g>
<!-- 12&#45;&#45;19 -->
<g id="edge2" class="edge">
<title>12&#45;&#45;19</title>
<path fill="none" stroke="#000000" d="M39.8722,-357.3243C52.8966,-341.2608 72.9252,-316.5589 85.9965,-300.4376"/>
<text text-anchor="middle" x="82.25" y="-324.6" font-family="Times,serif" font-size="14.00" fill="#000000">3.07</text>
</g>
<!-- 20 -->
<g id="node5" class="node">
<title>20</title>
<ellipse fill="none" stroke="#ff0000" cx="171" cy="-195.6" rx="27" ry="18"/>
<text text-anchor="middle" x="171" y="-191.4" font-family="Times,serif" font-size="14.00" fill="#000000">20</text>
</g>
<!-- 19&#45;&#45;20 -->
<g id="edge3" class="edge">
<title>19&#45;&#45;20</title>
<path fill="none" stroke="#000000" d="M109.4788,-267.6911C116.422,-257.0286 125.9761,-243.1012 135.5,-231.6 141.5462,-224.2985 148.8092,-216.7504 155.1861,-210.4633"/>
<text text-anchor="middle" x="151.75" y="-235.8" font-family="Times,serif" font-size="14.00" fill="#000000">22.95</text>
</g>
<!-- 20&#45;&#45;22 -->
<g id="edge4" class="edge">
<title>20&#45;&#45;22</title>
<path fill="none" stroke="#000000" d="M171,-177.2006C171,-161.8587 171,-140.122 171,-124.872"/>
<text text-anchor="middle" x="186.75" y="-147" font-family="Times,serif" font-size="14.00" fill="#000000">23.09</text>
</g>
<!-- 13 -->
<g id="node6" class="node">
<title>13</title>
<ellipse fill="none" stroke="#ff0000" cx="171" cy="-284.4" rx="27" ry="18"/>
<text text-anchor="middle" x="171" y="-280.2" font-family="Times,serif" font-size="14.00" fill="#000000">13</text>
</g>
<!-- 13&#45;&#45;20 -->
<g id="edge5" class="edge">
<title>13&#45;&#45;20</title>
<path fill="none" stroke="#000000" d="M171,-266.0006C171,-250.6587 171,-228.922 171,-213.672"/>
<text text-anchor="middle" x="186.75" y="-235.8" font-family="Times,serif" font-size="14.00" fill="#000000">15.09</text>
</g>
<!-- 14 -->
<g id="node7" class="node">
<title>14</title>
<ellipse fill="none" stroke="#000000" cx="336" cy="-284.4" rx="27" ry="18"/>
<text text-anchor="middle" x="336" y="-280.2" font-family="Times,serif" font-size="14.00" fill="#000000">14</text>
</g>
<!-- 17 -->
<g id="node8" class="node">
<title>17</title>
<ellipse fill="none" stroke="#000000" cx="308" cy="-195.6" rx="27" ry="18"/>
<text text-anchor="middle" x="308" y="-191.4" font-family="Times,serif" font-size="14.00" fill="#000000">17</text>
</g>
<!-- 14&#45;&#45;17 -->
<g id="edge6" class="edge">
<title>14&#45;&#45;17</title>
<path fill="none" stroke="#000000" d="M330.3338,-266.43C325.4439,-250.9222 318.4215,-228.6511 313.5622,-213.2402"/>
<text text-anchor="middle" x="336.25" y="-235.8" font-family="Times,serif" font-size="14.00" fill="#000000">8.91</text>
</g>
<!-- 15 -->
<g id="node9" class="node">
<title>15</title>
<ellipse fill="none" stroke="#000000" cx="99" cy="-373.2" rx="27" ry="18"/>
<text text-anchor="middle" x="99" y="-369" font-family="Times,serif" font-size="14.00" fill="#000000">15</text>
</g>
<!-- 15&#45;&#45;19 -->
<g id="edge7" class="edge">
<title>15&#45;&#45;19</title>
<path fill="none" stroke="#000000" d="M99,-354.8006C99,-339.4587 99,-317.722 99,-302.472"/>
<text text-anchor="middle" x="114.75" y="-324.6" font-family="Times,serif" font-size="14.00" fill="#000000">18.37</text>
</g>
<!-- 16 -->
<g id="node10" class="node">
<title>16</title>
<ellipse fill="none" stroke="#000000" cx="99" cy="-106.8" rx="27" ry="18"/>
<text text-anchor="middle" x="99" y="-102.6" font-family="Times,serif" font-size="14.00" fill="#000000">16</text>
</g>
<!-- 16&#45;&#45;4 -->
<g id="edge8" class="edge">
<title>16&#45;&#45;4</title>
<path fill="none" stroke="#000000" d="M103.4744,-88.6771C106.0345,-78.4694 109.354,-65.499 112.5,-54 114.115,-48.0971 115.9596,-41.6754 117.6476,-35.9118"/>
<text text-anchor="middle" x="125.25" y="-58.2" font-family="Times,serif" font-size="14.00" fill="#000000">0.58</text>
</g>
<!-- 0 -->
<g id="node11" class="node">
<title>0</title>
<ellipse fill="none" stroke="#000000" cx="254" cy="-284.4" rx="27" ry="18"/>
<text text-anchor="middle" x="254" y="-280.2" font-family="Times,serif" font-size="14.00" fill="#000000">0</text>
</g>
<!-- 0&#45;&#45;20 -->
<g id="edge10" class="edge">
<title>0&#45;&#45;20</title>
<path fill="none" stroke="#000000" d="M239.5425,-268.9322C224.3084,-252.6336 200.4631,-227.122 185.2918,-210.8905"/>
<text text-anchor="middle" x="234.75" y="-235.8" font-family="Times,serif" font-size="14.00" fill="#000000">13.47</text>
</g>
<!-- 0&#45;&#45;17 -->
<g id="edge9" class="edge">
<title>0&#45;&#45;17</title>
<path fill="none" stroke="#000000" d="M263.1892,-267.0577C268.8289,-256.6464 276.324,-243.2121 283.5,-231.6 287.5538,-225.0402 292.2666,-217.9927 296.4698,-211.8875"/>
<text text-anchor="middle" x="298.75" y="-235.8" font-family="Times,serif" font-size="14.00" fill="#000000">15.92</text>
</g>
<!-- 1 -->
<g id="node12" class="node">
<title>1</title>
<ellipse fill="none" stroke="#000000" cx="171" cy="-373.2" rx="27" ry="18"/>
<text text-anchor="middle" x="171" y="-369" font-family="Times,serif" font-size="14.00" fill="#000000">1</text>
</g>
<!-- 1&#45;&#45;19 -->
<g id="edge11" class="edge">
<title>1&#45;&#45;19</title>
<path fill="none" stroke="#000000" d="M160.3149,-356.5283C153.2515,-345.8806 143.5622,-331.9558 134,-320.4 127.9982,-313.1469 120.8312,-305.6064 114.5503,-299.3118"/>
<text text-anchor="middle" x="158.25" y="-324.6" font-family="Times,serif" font-size="14.00" fill="#000000">7.63</text>
</g>
</g>
</svg>
