<svg width="800px" height="262px"
 viewBox="0.00 0.00 1219.00 399.20" xmlns="http://www.w3.org/2000/svg" xmlns:xlink="http://www.w3.org/1999/xlink">
<g id="graph0" class="graph" transform="scale(1.0 1.0) rotate(0) translate(4 395.2)">
<title>%0</title>
<polygon fill="#ffffff" stroke="transparent" points="-4,4 -4,-395.2 1215,-395.2 1215,4 -4,4"/>
<!-- 22 -->
<g id="node1" class="node">
<title>22</title>
<ellipse fill="none" stroke="#0000ff" cx="255" cy="-284.4" rx="27" ry="18"/>
<text text-anchor="middle" x="255" y="-280.2" font-family="Times,serif" font-size="14.00" fill="#000000">22</text>
</g>
<!-- 23 -->
<g id="node2" class="node">
<title>23</title>
<ellipse fill="none" stroke="#ff0000" cx="556" cy="-195.6" rx="27" ry="18"/>
<text text-anchor="middle" x="556" y="-191.4" font-family="Times,serif" font-size="14.00" fill="#000000">23</text>
</g>
<!-- 22&#45;&#45;23 -->
<g id="edge1" class="edge">
<title>22&#45;&#45;23</title>
<path fill="none" stroke="#000000" d="M268.7622,-268.7719C280.4556,-256.5713 298.3532,-240.2803 317.5,-231.6 354.8762,-214.6553 474.8244,-202.5547 528.997,-197.8133"/>
<text text-anchor="middle" x="333.75" y="-235.8" font-family="Times,serif" font-size="14.00" fill="#000000">19.09</text>
</g>
<!-- 23&#45;&#45;23 -->
<g id="edge2" class="edge">
<title>23&#45;&#45;23</title>
<path fill="none" stroke="#000000" d="M580.5325,-203.7211C591.5078,-204.4945 601,-201.7875 601,-195.6 601,-189.4125 591.5078,-186.7055 580.5325,-187.4789"/>
<text text-anchor="middle" x="613.25" y="-191.4" font-family="Times,serif" font-size="14.00" fill="#000000">4.69</text>
</g>
<!-- 14 -->
<g id="node3" class="node">
<title>14</title>
<ellipse fill="none" stroke="#0000ff" cx="895" cy="-106.8" rx="27" ry="18"/>
<text text-anchor="middle" x="895" y="-102.6" font-family="Times,serif" font-size="14.00" fill="#000000">14</text>
</g>
<!-- 23&#45;&#45;14 -->
<g id="edge3" class="edge">
<title>23&#45;&#45;14</title>
<path fill="none" stroke="#000000" d="M581.2031,-188.9981C643.9623,-172.5585 806.696,-129.931 869.6309,-113.4453"/>
<text text-anchor="middle" x="768.25" y="-147" font-family="Times,serif" font-size="14.00" fill="#000000">7.23</text>
</g>
<!-- 2 -->
<g id="node4" class="node">
<title>2</title>
<ellipse fill="none" stroke="#0000ff" cx="895" cy="-18" rx="27" ry="18"/>
<text text-anchor="middle" x="895" y="-13.8" font-family="Times,serif" font-size="14.00" fill="#000000">2</text>
</g>
<!-- 14&#45;&#45;2 -->
<g id="edge4" class="edge">
<title>14&#45;&#45;2</title>
<path fill="none" stroke="#000000" d="M895,-88.4006C895,-73.0587 895,-51.322 895,-36.072"/>
<text text-anchor="middle" x="910.75" y="-58.2" font-family="Times,serif" font-size="14.00" fill="#000000">15.11</text>
</g>
<!-- 24 -->
<g id="node5" class="node">
<title>24</title>
<ellipse fill="none" stroke="#ff0000" cx="327" cy="-284.4" rx="27" ry="18"/>
<text text-anchor="middle" x="327" y="-280.2" font-family="Times,serif" font-size="14.00" fill="#000000">24</text>
</g>
<!-- 24&#45;&#45;23 -->
<g id="edge5" class="edge">
<title>24&#45;&#45;23</title>
<path fill="none" stroke="#000000" d="M336.5731,-267.4439C344.2071,-255.5252 356.0058,-240.223 370.5,-231.6 397.002,-215.8333 484.6206,-203.8089 529.298,-198.5334"/>
<text text-anchor="middle" x="386.75" y="-235.8" font-family="Times,serif" font-size="14.00" fill="#000000">21.18</text>
</g>
<!-- 10 -->
<g id="node6" class="node">
<title>10</title>
<ellipse fill="none" stroke="#ff0000" cx="532" cy="-284.4" rx="27" ry="18"/>
<text text-anchor="middle" x="532" y="-280.2" font-family="Times,serif" font-size="14.00" fill="#000000">10</text>
</g>
<!-- 10&#45;&#45;23 -->
<g id="edge6" class="edge">
<title>10&#45;&#45;23</title>
<path fill="none" stroke="#000000" d="M530.2031,-266.4271C529.7291,-256.0361 530.1041,-242.8361 533.5,-231.6 535.6323,-224.5449 539.5319,-217.5084 543.4928,-211.5525"/>
<text text-anchor="middle" x="546.25" y="-235.8" font-family="Times,serif" font-size="14.00" fill="#000000">9.79</text>
</g>
<!-- 11 -->
<g id="node7" class="node">
<title>11</title>
<ellipse fill="none" stroke="#0000ff" cx="604" cy="-284.4" rx="27" ry="18"/>
<text text-anchor="middle" x="604" y="-280.2" font-family="Times,serif" font-size="14.00" fill="#000000">11</text>
</g>
<!-- 11&#45;&#45;23 -->
<g id="edge7" class="edge">
<title>11&#45;&#45;23</title>
<path fill="none" stroke="#000000" d="M593.0845,-267.7766C589.2732,-261.7577 585.061,-254.8529 581.5,-248.4 575.106,-236.8135 568.6302,-223.3788 563.8044,-212.9609"/>
<text text-anchor="middle" x="597.75" y="-235.8" font-family="Times,serif" font-size="14.00" fill="#000000">17.66</text>
</g>
<!-- 12 -->
<g id="node8" class="node">
<title>12</title>
<ellipse fill="none" stroke="#0000ff" cx="676" cy="-284.4" rx="27" ry="18"/>
<text text-anchor="middle" x="676" y="-280.2" font-family="Times,serif" font-size="14.00" fill="#000000">12</text>
</g>
<!-- 12&#45;&#45;23 -->
<g id="edge8" class="edge">
<title>12&#45;&#45;23</title>
<path fill="none" stroke="#000000" d="M659.9074,-269.8803C647.4584,-258.906 629.5998,-243.714 613,-231.6 601.2765,-223.0445 587.5369,-214.3309 576.4848,-207.6196"/>
<text text-anchor="middle" x="650.75" y="-235.8" font-family="Times,serif" font-size="14.00" fill="#000000">11.85</text>
</g>
<!-- 13 -->
<g id="node9" class="node">
<title>13</title>
<ellipse fill="none" stroke="#ff0000" cx="748" cy="-284.4" rx="27" ry="18"/>
<text text-anchor="middle" x="748" y="-280.2" font-family="Times,serif" font-size="14.00" fill="#000000">13</text>
</g>
<!-- 13&#45;&#45;23 -->
<g id="edge9" class="edge">
<title>13&#45;&#45;23</title>
<path fill="none" stroke="#000000" d="M727.9593,-271.9945C717.0816,-265.1702 703.4522,-256.4717 691.5,-248.4 680.8601,-241.2146 679.4709,-237.3667 668,-231.6 639.898,-217.4724 605.0759,-207.3145 581.7884,-201.4627"/>
<text text-anchor="middle" x="707.75" y="-235.8" font-family="Times,serif" font-size="14.00" fill="#000000">15.72</text>
</g>
<!-- 15 -->
<g id="node10" class="node">
<title>15</title>
<ellipse fill="none" stroke="#ff0000" cx="972" cy="-195.6" rx="27" ry="18"/>
<text text-anchor="middle" x="972" y="-191.4" font-family="Times,serif" font-size="14.00" fill="#000000">15</text>
</g>
<!-- 16 -->
<g id="node11" class="node">
<title>16</title>
<ellipse fill="none" stroke="#ff0000" cx="39" cy="-284.4" rx="27" ry="18"/>
<text text-anchor="middle" x="39" y="-280.2" font-family="Times,serif" font-size="14.00" fill="#000000">16</text>
</g>
<!-- 16&#45;&#45;23 -->
<g id="edge11" class="edge">
<title>16&#45;&#45;23</title>
<path fill="none" stroke="#000000" d="M57.9715,-271.1892C77.0934,-258.6293 107.9287,-240.3902 137.5,-231.6 211.3336,-209.6526 448.2894,-199.4129 528.8752,-196.5036"/>
<text text-anchor="middle" x="150.25" y="-235.8" font-family="Times,serif" font-size="14.00" fill="#000000">3.46</text>
</g>
<!-- 6 -->
<g id="node12" class="node">
<title>6</title>
<ellipse fill="none" stroke="#0000ff" cx="27" cy="-195.6" rx="27" ry="18"/>
<text text-anchor="middle" x="27" y="-191.4" font-family="Times,serif" font-size="14.00" fill="#000000">6</text>
</g>
<!-- 16&#45;&#45;6 -->
<g id="edge10" class="edge">
<title>16&#45;&#45;6</title>
<path fill="none" stroke="#000000" d="M32.8504,-266.6595C31.1198,-260.9049 29.4514,-254.4454 28.5,-248.4 26.7037,-236.9858 26.3122,-224.0168 26.3779,-213.7885"/>
<text text-anchor="middle" x="41.25" y="-235.8" font-family="Times,serif" font-size="14.00" fill="#000000">7.47</text>
</g>
<!-- 17 -->
<g id="node13" class="node">
<title>17</title>
<ellipse fill="none" stroke="#ff0000" cx="111" cy="-284.4" rx="27" ry="18"/>
<text text-anchor="middle" x="111" y="-280.2" font-family="Times,serif" font-size="14.00" fill="#000000">17</text>
</g>
<!-- 17&#45;&#45;23 -->
<g id="edge12" class="edge">
<title>17&#45;&#45;23</title>
<path fill="none" stroke="#000000" d="M129.1748,-270.7893C146.8929,-258.3043 175.0994,-240.4507 202.5,-231.6 263.3305,-211.9511 457.3532,-200.522 529.0427,-196.8816"/>
<text text-anchor="middle" x="215.25" y="-235.8" font-family="Times,serif" font-size="14.00" fill="#000000">0.78</text>
</g>
<!-- 18 -->
<g id="node14" class="node">
<title>18</title>
<ellipse fill="none" stroke="#0000ff" cx="183" cy="-284.4" rx="27" ry="18"/>
<text text-anchor="middle" x="183" y="-280.2" font-family="Times,serif" font-size="14.00" fill="#000000">18</text>
</g>
<!-- 18&#45;&#45;23 -->
<g id="edge13" class="edge">
<title>18&#45;&#45;23</title>
<path fill="none" stroke="#000000" d="M199.646,-270.1536C215.112,-257.7689 239.3345,-240.4618 263.5,-231.6 312.0167,-213.8082 466.0842,-201.6798 528.9227,-197.3547"/>
<text text-anchor="middle" x="276.25" y="-235.8" font-family="Times,serif" font-size="14.00" fill="#000000">6.30</text>
</g>
<!-- 19 -->
<g id="node15" class="node">
<title>19</title>
<ellipse fill="none" stroke="#ff0000" cx="838" cy="-284.4" rx="27" ry="18"/>
<text text-anchor="middle" x="838" y="-280.2" font-family="Times,serif" font-size="14.00" fill="#000000">19</text>
</g>
<!-- 19&#45;&#45;23 -->
<g id="edge14" class="edge">
<title>19&#45;&#45;23</title>
<path fill="none" stroke="#000000" d="M813.5774,-276.6303C794.7152,-270.1978 768.2491,-260.218 746.5,-248.4 735.219,-242.2701 734.7414,-236.794 723,-231.6 676.2116,-210.9025 616.6525,-201.7525 582.7772,-197.9856"/>
<text text-anchor="middle" x="762.75" y="-235.8" font-family="Times,serif" font-size="14.00" fill="#000000">11.46</text>
</g>
<!-- 19&#45;&#45;14 -->
<g id="edge15" class="edge">
<title>19&#45;&#45;14</title>
<path fill="none" stroke="#000000" d="M858.674,-272.194C867.0377,-266.1368 875.905,-258.041 881,-248.4 902.1223,-208.4312 900.2003,-153.2474 897.3867,-125.0255"/>
<text text-anchor="middle" x="914.75" y="-191.4" font-family="Times,serif" font-size="14.00" fill="#000000">14.95</text>
</g>
<!-- 0 -->
<g id="node16" class="node">
<title>0</title>
<ellipse fill="none" stroke="#ff0000" cx="945" cy="-284.4" rx="27" ry="18"/>
<text text-anchor="middle" x="945" y="-280.2" font-family="Times,serif" font-size="14.00" fill="#000000">0</text>
</g>
<!-- 0&#45;&#45;23 -->
<g id="edge17" class="edge">
<title>0&#45;&#45;23</title>
<path fill="none" stroke="#000000" d="M919.7054,-277.9551C906.1539,-274.5103 889.1709,-270.2063 874,-266.4 841.7976,-258.3205 831.6503,-262.3007 801.5,-248.4 789.8406,-243.0245 789.8714,-236.4896 778,-231.6 743.0706,-217.2132 634.1109,-204.0076 582.9898,-198.417"/>
<text text-anchor="middle" x="814.25" y="-235.8" font-family="Times,serif" font-size="14.00" fill="#000000">9.69</text>
</g>
<!-- 0&#45;&#45;15 -->
<g id="edge16" class="edge">
<title>0&#45;&#45;15</title>
<path fill="none" stroke="#000000" d="M953.577,-267.114C956.2321,-261.2741 958.9857,-254.6493 961,-248.4 964.6194,-237.1709 967.3407,-224.2047 969.1712,-213.9316"/>
<text text-anchor="middle" x="981.75" y="-235.8" font-family="Times,serif" font-size="14.00" fill="#000000">10.55</text>
</g>
<!-- 1 -->
<g id="node17" class="node">
<title>1</title>
<ellipse fill="none" stroke="#0000ff" cx="1184" cy="-195.6" rx="27" ry="18"/>
<text text-anchor="middle" x="1184" y="-191.4" font-family="Times,serif" font-size="14.00" fill="#000000">1</text>
</g>
<!-- 3 -->
<g id="node18" class="node">
<title>3</title>
<ellipse fill="none" stroke="#ff0000" cx="399" cy="-284.4" rx="27" ry="18"/>
<text text-anchor="middle" x="399" y="-280.2" font-family="Times,serif" font-size="14.00" fill="#000000">3</text>
</g>
<!-- 3&#45;&#45;23 -->
<g id="edge18" class="edge">
<title>3&#45;&#45;23</title>
<path fill="none" stroke="#000000" d="M400.606,-266.3834C402.5658,-254.9093 406.9051,-240.5682 416.5,-231.6 432.7629,-216.3992 493.8528,-204.9325 529.5697,-199.3561"/>
<text text-anchor="middle" x="432.75" y="-235.8" font-family="Times,serif" font-size="14.00" fill="#000000">10.28</text>
</g>
<!-- 4 -->
<g id="node19" class="node">
<title>4</title>
<ellipse fill="none" stroke="#0000ff" cx="1090" cy="-106.8" rx="27" ry="18"/>
<text text-anchor="middle" x="1090" y="-102.6" font-family="Times,serif" font-size="14.00" fill="#000000">4</text>
</g>
<!-- 5 -->
<g id="node20" class="node">
<title>5</title>
<ellipse fill="none" stroke="#ff0000" cx="431" cy="-373.2" rx="27" ry="18"/>
<text text-anchor="middle" x="431" y="-369" font-family="Times,serif" font-size="14.00" fill="#000000">5</text>
</g>
<!-- 5&#45;&#45;23 -->
<g id="edge19" class="edge">
<title>5&#45;&#45;23</title>
<path fill="none" stroke="#000000" d="M438.4976,-355.6917C440.9506,-349.8369 443.648,-343.2595 446,-337.2 458.1021,-306.0209 452.3527,-293.8222 471.5,-266.4 488.812,-241.6064 516.9422,-220.4482 535.9425,-207.8824"/>
<text text-anchor="middle" x="484.25" y="-280.2" font-family="Times,serif" font-size="14.00" fill="#000000">0.70</text>
</g>
<!-- 5&#45;&#45;3 -->
<g id="edge20" class="edge">
<title>5&#45;&#45;3</title>
<path fill="none" stroke="#000000" d="M424.6778,-355.656C419.0678,-340.0881 410.9151,-317.4644 405.309,-301.9076"/>
<text text-anchor="middle" x="430.25" y="-324.6" font-family="Times,serif" font-size="14.00" fill="#000000">8.66</text>
</g>
<!-- 7 -->
<g id="node21" class="node">
<title>7</title>
<ellipse fill="none" stroke="#ff0000" cx="1035" cy="-284.4" rx="27" ry="18"/>
<text text-anchor="middle" x="1035" y="-280.2" font-family="Times,serif" font-size="14.00" fill="#000000">7</text>
</g>
<!-- 7&#45;&#45;23 -->
<g id="edge21" class="edge">
<title>7&#45;&#45;23</title>
<path fill="none" stroke="#000000" d="M1011.3088,-275.623C1001.9607,-272.3923 991.0674,-268.9127 981,-266.4 934.4242,-254.7752 921.007,-260.2972 874.5,-248.4 852.3996,-242.7464 848.1957,-236.8674 826,-231.6 738.5773,-210.8533 632.1953,-201.0722 583.1528,-197.4077"/>
<text text-anchor="middle" x="890.75" y="-235.8" font-family="Times,serif" font-size="14.00" fill="#000000">21.17</text>
</g>
<!-- 7&#45;&#45;14 -->
<g id="edge23" class="edge">
<title>7&#45;&#45;14</title>
<path fill="none" stroke="#000000" d="M1034.4409,-266.0392C1032.895,-243.2626 1027.3627,-204.1926 1008,-177.6 985.5155,-146.7199 945.0724,-126.2344 919.161,-115.5725"/>
<text text-anchor="middle" x="1041.75" y="-191.4" font-family="Times,serif" font-size="14.00" fill="#000000">20.06</text>
</g>
<!-- 21 -->
<g id="node22" class="node">
<title>21</title>
<ellipse fill="none" stroke="#ff0000" cx="1112" cy="-195.6" rx="27" ry="18"/>
<text text-anchor="middle" x="1112" y="-191.4" font-family="Times,serif" font-size="14.00" fill="#000000">21</text>
</g>
<!-- 7&#45;&#45;21 -->
<g id="edge22" class="edge">
<title>7&#45;&#45;21</title>
<path fill="none" stroke="#000000" d="M1048.7661,-268.5243C1062.7815,-252.361 1084.3808,-227.4517 1098.3531,-211.3382"/>
<text text-anchor="middle" x="1096.75" y="-235.8" font-family="Times,serif" font-size="14.00" fill="#000000">17.93</text>
</g>
<!-- 21&#45;&#45;4 -->
<g id="edge25" class="edge">
<title>21&#45;&#45;4</title>
<path fill="none" stroke="#000000" d="M1105.8657,-177.7707C1104.0025,-172.0115 1102.0423,-165.5715 1100.5,-159.6 1097.5552,-148.198 1094.9655,-135.2291 1093.0948,-124.9979"/>
<text text-anchor="middle" x="1116.75" y="-147" font-family="Times,serif" font-size="14.00" fill="#000000">11.40</text>
</g>
<!-- 20 -->
<g id="node23" class="node">
<title>20</title>
<ellipse fill="none" stroke="#ff0000" cx="1162" cy="-106.8" rx="27" ry="18"/>
<text text-anchor="middle" x="1162" y="-102.6" font-family="Times,serif" font-size="14.00" fill="#000000">20</text>
</g>
<!-- 21&#45;&#45;20 -->
<g id="edge24" class="edge">
<title>21&#45;&#45;20</title>
<path fill="none" stroke="#000000" d="M1121.6405,-178.4785C1130.4944,-162.754 1143.5446,-139.5768 1152.3891,-123.869"/>
<text text-anchor="middle" x="1157.75" y="-147" font-family="Times,serif" font-size="14.00" fill="#000000">15.20</text>
</g>
<!-- 8 -->
<g id="node24" class="node">
<title>8</title>
<ellipse fill="none" stroke="#ff0000" cx="1162" cy="-18" rx="27" ry="18"/>
<text text-anchor="middle" x="1162" y="-13.8" font-family="Times,serif" font-size="14.00" fill="#000000">8</text>
</g>
<!-- 20&#45;&#45;8 -->
<g id="edge26" class="edge">
<title>20&#45;&#45;8</title>
<path fill="none" stroke="#000000" d="M1162,-88.4006C1162,-73.0587 1162,-51.322 1162,-36.072"/>
<text text-anchor="middle" x="1177.75" y="-58.2" font-family="Times,serif" font-size="14.00" fill="#000000">19.82</text>
</g>
<!-- 9 -->
<g id="node25" class="node">
<title>9</title>
<ellipse fill="none" stroke="#ff0000" cx="1146" cy="-284.4" rx="27" ry="18"/>
<text text-anchor="middle" x="1146" y="-280.2" font-family="Times,serif" font-size="14.00" fill="#000000">9</text>
</g>
<!-- 9&#45;&#45;23 -->
<g id="edge27" class="edge">
<title>9&#45;&#45;23</title>
<path fill="none" stroke="#000000" d="M1120.8074,-277.6051C1106.3223,-273.8868 1087.7334,-269.4331 1071,-266.4 1006.8851,-254.7784 985.0728,-274.7981 925.5,-248.4 915.0413,-243.7655 916.5058,-236.1266 906,-231.6 847.9377,-206.5831 654.9347,-198.4856 583.1779,-196.3023"/>
<text text-anchor="middle" x="941.75" y="-235.8" font-family="Times,serif" font-size="14.00" fill="#000000">13.01</text>
</g>
<!-- 9&#45;&#45;1 -->
<g id="edge28" class="edge">
<title>9&#45;&#45;1</title>
<path fill="none" stroke="#000000" d="M1153.5076,-266.856C1160.1695,-251.2881 1169.8508,-228.6644 1176.508,-213.1076"/>
<text text-anchor="middle" x="1184.75" y="-235.8" font-family="Times,serif" font-size="14.00" fill="#000000">15.59</text>
</g>
</g>
</svg>
