<svg width="600px" height="1223px"
 viewBox="0.00 0.00 282.50 576.80" xmlns="http://www.w3.org/2000/svg" xmlns:xlink="http://www.w3.org/1999/xlink">
<g id="graph0" class="graph" transform="scale(1.0 1.0) rotate(0) translate(4 572.8)">
<title>%0</title>
<polygon fill="#ffffff" stroke="transparent" points="-4,4 -4,-572.8 278.5,-572.8 278.5,4 -4,4"/>
<!-- 0 -->
<g id="node1" class="node">
<title>0</title>
<ellipse fill="none" stroke="#ff0000" cx="243" cy="-195.6" rx="27" ry="18"/>
<text text-anchor="middle" x="243" y="-191.4" font-family="Times,serif" font-size="14.00" fill="#000000">0</text>
</g>
<!-- 1 -->
<g id="node2" class="node">
<title>1</title>
<ellipse fill="none" stroke="#ff0000" cx="27" cy="-195.6" rx="27" ry="18"/>
<text text-anchor="middle" x="27" y="-191.4" font-family="Times,serif" font-size="14.00" fill="#000000">1</text>
</g>
<!-- 2 -->
<g id="node3" class="node">
<title>2</title>
<ellipse fill="none" stroke="#ff0000" cx="99" cy="-195.6" rx="27" ry="18"/>
<text text-anchor="middle" x="99" y="-191.4" font-family="Times,serif" font-size="14.00" fill="#000000">2</text>
</g>
<!-- 3 -->
<g id="node4" class="node">
<title>3</title>
<ellipse fill="none" stroke="#ff0000" cx="171" cy="-18" rx="27" ry="18"/>
<text text-anchor="middle" x="171" y="-13.8" font-family="Times,serif" font-size="14.00" fill="#000000">3</text>
</g>
<!-- 4 -->
<g id="node5" class="node">
<title>4</title>
<ellipse fill="none" stroke="#ff0000" cx="45" cy="-373.2" rx="27" ry="18"/>
<text text-anchor="middle" x="45" y="-369" font-family="Times,serif" font-size="14.00" fill="#000000">4</text>
</g>
<!-- 5 -->
<g id="node6" class="node">
<title>5</title>
<ellipse fill="none" stroke="#ff0000" cx="117" cy="-550.8" rx="27" ry="18"/>
<text text-anchor="middle" x="117" y="-546.6" font-family="Times,serif" font-size="14.00" fill="#000000">5</text>
</g>
<!-- 59 -->
<g id="node7" class="node">
<title>59</title>
<ellipse fill="none" stroke="#000000" cx="117" cy="-462" rx="27" ry="18"/>
<text text-anchor="middle" x="117" y="-457.8" font-family="Times,serif" font-size="14.00" fill="#000000">59</text>
</g>
<!-- 5&#45;&gt;59 -->
<g id="edge1" class="edge">
<title>5&#45;&gt;59</title>
<path fill="none" stroke="#000000" d="M117,-532.4006C117,-520.2949 117,-504.2076 117,-490.4674"/>
<polygon fill="#000000" stroke="#000000" points="120.5001,-490.072 117,-480.072 113.5001,-490.0721 120.5001,-490.072"/>
<text text-anchor="middle" x="136.25" y="-502.2" font-family="Times,serif" font-size="14.00" fill="#000000">199.00</text>
</g>
<!-- 59&#45;&gt;4 -->
<g id="edge4" class="edge">
<title>59&#45;&gt;4</title>
<path fill="none" stroke="#000000" d="M98.3202,-448.5792C90.3786,-442.297 81.3834,-434.3612 74.5,-426 68.0306,-418.1416 62.2307,-408.6638 57.521,-399.9199"/>
<polygon fill="#000000" stroke="#000000" points="60.537,-398.1309 52.8582,-390.8311 54.3088,-401.3262 60.537,-398.1309"/>
<text text-anchor="middle" x="94.25" y="-413.4" font-family="Times,serif" font-size="14.00" fill="#000000">189.00</text>
</g>
<!-- 55 -->
<g id="node8" class="node">
<title>55</title>
<ellipse fill="none" stroke="#000000" cx="117" cy="-373.2" rx="27" ry="18"/>
<text text-anchor="middle" x="117" y="-369" font-family="Times,serif" font-size="14.00" fill="#000000">55</text>
</g>
<!-- 59&#45;&gt;55 -->
<g id="edge2" class="edge">
<title>59&#45;&gt;55</title>
<path fill="none" stroke="#000000" d="M117,-443.6006C117,-431.4949 117,-415.4076 117,-401.6674"/>
<polygon fill="#000000" stroke="#000000" points="120.5001,-401.272 117,-391.272 113.5001,-401.2721 120.5001,-401.272"/>
<text text-anchor="middle" x="132.75" y="-413.4" font-family="Times,serif" font-size="14.00" fill="#000000">97.00</text>
</g>
<!-- 26 -->
<g id="node13" class="node">
<title>26</title>
<ellipse fill="none" stroke="#000000" cx="189" cy="-373.2" rx="27" ry="18"/>
<text text-anchor="middle" x="189" y="-369" font-family="Times,serif" font-size="14.00" fill="#000000">26</text>
</g>
<!-- 59&#45;&gt;26 -->
<g id="edge3" class="edge">
<title>59&#45;&gt;26</title>
<path fill="none" stroke="#000000" d="M132.5503,-447.0882C138.8312,-440.7936 145.9982,-433.2531 152,-426 159.1716,-417.3332 166.4148,-407.3337 172.568,-398.3837"/>
<polygon fill="#000000" stroke="#000000" points="175.62,-400.1181 178.3149,-389.8717 169.8185,-396.2012 175.62,-400.1181"/>
<text text-anchor="middle" x="179.75" y="-413.4" font-family="Times,serif" font-size="14.00" fill="#000000">96.00</text>
</g>
<!-- 11 -->
<g id="node9" class="node">
<title>11</title>
<ellipse fill="none" stroke="#000000" cx="45" cy="-284.4" rx="27" ry="18"/>
<text text-anchor="middle" x="45" y="-280.2" font-family="Times,serif" font-size="14.00" fill="#000000">11</text>
</g>
<!-- 55&#45;&gt;11 -->
<g id="edge5" class="edge">
<title>55&#45;&gt;11</title>
<path fill="none" stroke="#000000" d="M101.1861,-358.3367C94.8092,-352.0496 87.5462,-344.5015 81.5,-337.2 74.3571,-328.5741 67.1972,-318.5835 61.1345,-309.629"/>
<polygon fill="#000000" stroke="#000000" points="63.9253,-307.5047 55.4788,-301.1089 58.0933,-311.3761 63.9253,-307.5047"/>
<text text-anchor="middle" x="97.75" y="-324.6" font-family="Times,serif" font-size="14.00" fill="#000000">99.00</text>
</g>
<!-- 16 -->
<g id="node10" class="node">
<title>16</title>
<ellipse fill="none" stroke="#000000" cx="117" cy="-284.4" rx="27" ry="18"/>
<text text-anchor="middle" x="117" y="-280.2" font-family="Times,serif" font-size="14.00" fill="#000000">16</text>
</g>
<!-- 55&#45;&gt;16 -->
<g id="edge6" class="edge">
<title>55&#45;&gt;16</title>
<path fill="none" stroke="#000000" d="M117,-354.8006C117,-342.6949 117,-326.6076 117,-312.8674"/>
<polygon fill="#000000" stroke="#000000" points="120.5001,-312.472 117,-302.472 113.5001,-312.4721 120.5001,-312.472"/>
<text text-anchor="middle" x="132.75" y="-324.6" font-family="Times,serif" font-size="14.00" fill="#000000">99.00</text>
</g>
<!-- 11&#45;&gt;1 -->
<g id="edge7" class="edge">
<title>11&#45;&gt;1</title>
<path fill="none" stroke="#000000" d="M41.3574,-266.43C38.8689,-254.153 35.5211,-237.6372 32.6842,-223.6421"/>
<polygon fill="#000000" stroke="#000000" points="36.0541,-222.6486 30.6372,-213.5433 29.1936,-224.0393 36.0541,-222.6486"/>
<text text-anchor="middle" x="57.25" y="-235.8" font-family="Times,serif" font-size="14.00" fill="#000000">197.00</text>
</g>
<!-- 16&#45;&gt;2 -->
<g id="edge8" class="edge">
<title>16&#45;&gt;2</title>
<path fill="none" stroke="#000000" d="M110.5997,-266.6342C108.7223,-260.8783 106.8209,-254.4244 105.5,-248.4 103.767,-240.4963 102.4589,-231.8184 101.4878,-223.822"/>
<polygon fill="#000000" stroke="#000000" points="104.9612,-223.3866 100.398,-213.8248 98.0024,-224.1453 104.9612,-223.3866"/>
<text text-anchor="middle" x="125.25" y="-235.8" font-family="Times,serif" font-size="14.00" fill="#000000">196.00</text>
</g>
<!-- 72 -->
<g id="node11" class="node">
<title>72</title>
<ellipse fill="none" stroke="#000000" cx="171" cy="-195.6" rx="27" ry="18"/>
<text text-anchor="middle" x="171" y="-191.4" font-family="Times,serif" font-size="14.00" fill="#000000">72</text>
</g>
<!-- 16&#45;&gt;72 -->
<g id="edge9" class="edge">
<title>16&#45;&gt;72</title>
<path fill="none" stroke="#000000" d="M129.9753,-268.3295C134.6364,-262.2477 139.78,-255.1596 144,-248.4 149.1499,-240.151 154.1751,-230.8014 158.4666,-222.2863"/>
<polygon fill="#000000" stroke="#000000" points="161.6969,-223.6486 162.9676,-213.1302 155.4149,-220.5604 161.6969,-223.6486"/>
<text text-anchor="middle" x="168.75" y="-235.8" font-family="Times,serif" font-size="14.00" fill="#000000">98.00</text>
</g>
<!-- 24 -->
<g id="node12" class="node">
<title>24</title>
<ellipse fill="none" stroke="#000000" cx="171" cy="-106.8" rx="27" ry="18"/>
<text text-anchor="middle" x="171" y="-102.6" font-family="Times,serif" font-size="14.00" fill="#000000">24</text>
</g>
<!-- 72&#45;&gt;24 -->
<g id="edge10" class="edge">
<title>72&#45;&gt;24</title>
<path fill="none" stroke="#000000" d="M171,-177.2006C171,-165.0949 171,-149.0076 171,-135.2674"/>
<polygon fill="#000000" stroke="#000000" points="174.5001,-134.872 171,-124.872 167.5001,-134.8721 174.5001,-134.872"/>
<text text-anchor="middle" x="186.75" y="-147" font-family="Times,serif" font-size="14.00" fill="#000000">92.00</text>
</g>
<!-- 24&#45;&gt;3 -->
<g id="edge11" class="edge">
<title>24&#45;&gt;3</title>
<path fill="none" stroke="#000000" d="M171,-88.4006C171,-76.2949 171,-60.2076 171,-46.4674"/>
<polygon fill="#000000" stroke="#000000" points="174.5001,-46.072 171,-36.072 167.5001,-46.0721 174.5001,-46.072"/>
<text text-anchor="middle" x="190.25" y="-58.2" font-family="Times,serif" font-size="14.00" fill="#000000">197.00</text>
</g>
<!-- 13 -->
<g id="node14" class="node">
<title>13</title>
<ellipse fill="none" stroke="#000000" cx="225" cy="-284.4" rx="27" ry="18"/>
<text text-anchor="middle" x="225" y="-280.2" font-family="Times,serif" font-size="14.00" fill="#000000">13</text>
</g>
<!-- 26&#45;&gt;13 -->
<g id="edge12" class="edge">
<title>26&#45;&gt;13</title>
<path fill="none" stroke="#000000" d="M196.1124,-355.656C201.2404,-343.0071 208.2567,-325.7002 214.0903,-311.3105"/>
<polygon fill="#000000" stroke="#000000" points="217.3888,-312.49 217.9023,-301.9076 210.9016,-309.86 217.3888,-312.49"/>
<text text-anchor="middle" x="226.75" y="-324.6" font-family="Times,serif" font-size="14.00" fill="#000000">99.00</text>
</g>
<!-- 13&#45;&gt;0 -->
<g id="edge13" class="edge">
<title>13&#45;&gt;0</title>
<path fill="none" stroke="#000000" d="M228.6426,-266.43C231.1311,-254.153 234.4789,-237.6372 237.3158,-223.6421"/>
<polygon fill="#000000" stroke="#000000" points="240.8064,-224.0393 239.3628,-213.5433 233.9459,-222.6486 240.8064,-224.0393"/>
<text text-anchor="middle" x="255.25" y="-235.8" font-family="Times,serif" font-size="14.00" fill="#000000">190.00</text>
</g>
</g>
</svg>
