<svg width="600px" height="918px"
 viewBox="0.00 0.00 318.50 488.00" xmlns="http://www.w3.org/2000/svg" xmlns:xlink="http://www.w3.org/1999/xlink">
<g id="graph0" class="graph" transform="scale(1.0 1.0) rotate(0) translate(4 484)">
<title>%0</title>
<polygon fill="#ffffff" stroke="transparent" points="-4,4 -4,-484 314.5,-484 314.5,4 -4,4"/>
<!-- 0 -->
<g id="node1" class="node">
<title>0</title>
<ellipse fill="none" stroke="#ff0000" cx="27" cy="-106.8" rx="27" ry="18"/>
<text text-anchor="middle" x="27" y="-102.6" font-family="Times,serif" font-size="14.00" fill="#000000">0</text>
</g>
<!-- 64 -->
<g id="node2" class="node">
<title>64</title>
<ellipse fill="none" stroke="#000000" cx="81" cy="-195.6" rx="27" ry="18"/>
<text text-anchor="middle" x="81" y="-191.4" font-family="Times,serif" font-size="14.00" fill="#000000">64</text>
</g>
<!-- 64&#45;&gt;0 -->
<g id="edge1" class="edge">
<title>64&#45;&gt;0</title>
<path fill="none" stroke="#000000" d="M64.3584,-181.0178C58.1173,-174.8888 51.366,-167.3796 46.5,-159.6 41.6581,-151.859 37.7529,-142.7349 34.7457,-134.2685"/>
<polygon fill="#000000" stroke="#000000" points="38.0675,-133.1657 31.6257,-124.7542 31.416,-135.347 38.0675,-133.1657"/>
<text text-anchor="middle" x="66.25" y="-147" font-family="Times,serif" font-size="14.00" fill="#000000">195.00</text>
</g>
<!-- 2 -->
<g id="node3" class="node">
<title>2</title>
<ellipse fill="none" stroke="#ff0000" cx="99" cy="-106.8" rx="27" ry="18"/>
<text text-anchor="middle" x="99" y="-102.6" font-family="Times,serif" font-size="14.00" fill="#000000">2</text>
</g>
<!-- 64&#45;&gt;2 -->
<g id="edge2" class="edge">
<title>64&#45;&gt;2</title>
<path fill="none" stroke="#000000" d="M84.6426,-177.63C87.1311,-165.353 90.4789,-148.8372 93.3158,-134.8421"/>
<polygon fill="#000000" stroke="#000000" points="96.8064,-135.2393 95.3628,-124.7433 89.9459,-133.8486 96.8064,-135.2393"/>
<text text-anchor="middle" x="111.25" y="-147" font-family="Times,serif" font-size="14.00" fill="#000000">195.00</text>
</g>
<!-- 1 -->
<g id="node4" class="node">
<title>1</title>
<ellipse fill="none" stroke="#ff0000" cx="207" cy="-106.8" rx="27" ry="18"/>
<text text-anchor="middle" x="207" y="-102.6" font-family="Times,serif" font-size="14.00" fill="#000000">1</text>
</g>
<!-- 3 -->
<g id="node5" class="node">
<title>3</title>
<ellipse fill="none" stroke="#ff0000" cx="112" cy="-462" rx="27" ry="18"/>
<text text-anchor="middle" x="112" y="-457.8" font-family="Times,serif" font-size="14.00" fill="#000000">3</text>
</g>
<!-- 15 -->
<g id="node6" class="node">
<title>15</title>
<ellipse fill="none" stroke="#000000" cx="112" cy="-373.2" rx="27" ry="18"/>
<text text-anchor="middle" x="112" y="-369" font-family="Times,serif" font-size="14.00" fill="#000000">15</text>
</g>
<!-- 3&#45;&gt;15 -->
<g id="edge3" class="edge">
<title>3&#45;&gt;15</title>
<path fill="none" stroke="#000000" d="M112,-443.6006C112,-431.4949 112,-415.4076 112,-401.6674"/>
<polygon fill="#000000" stroke="#000000" points="115.5001,-401.272 112,-391.272 108.5001,-401.2721 115.5001,-401.272"/>
<text text-anchor="middle" x="131.25" y="-413.4" font-family="Times,serif" font-size="14.00" fill="#000000">197.00</text>
</g>
<!-- 5 -->
<g id="node7" class="node">
<title>5</title>
<ellipse fill="none" stroke="#ff0000" cx="81" cy="-284.4" rx="27" ry="18"/>
<text text-anchor="middle" x="81" y="-280.2" font-family="Times,serif" font-size="14.00" fill="#000000">5</text>
</g>
<!-- 15&#45;&gt;5 -->
<g id="edge4" class="edge">
<title>15&#45;&gt;5</title>
<path fill="none" stroke="#000000" d="M98.7616,-357.27C94.4844,-351.3163 90.1634,-344.2754 87.5,-337.2 84.6042,-329.5071 82.9362,-320.7815 81.9924,-312.671"/>
<polygon fill="#000000" stroke="#000000" points="85.4624,-312.1689 81.1264,-302.502 78.4876,-312.763 85.4624,-312.1689"/>
<text text-anchor="middle" x="107.25" y="-324.6" font-family="Times,serif" font-size="14.00" fill="#000000">186.00</text>
</g>
<!-- 77 -->
<g id="node8" class="node">
<title>77</title>
<ellipse fill="none" stroke="#000000" cx="153" cy="-284.4" rx="27" ry="18"/>
<text text-anchor="middle" x="153" y="-280.2" font-family="Times,serif" font-size="14.00" fill="#000000">77</text>
</g>
<!-- 15&#45;&gt;77 -->
<g id="edge5" class="edge">
<title>15&#45;&gt;77</title>
<path fill="none" stroke="#000000" d="M120.1003,-355.656C125.9783,-342.925 134.0351,-325.4753 140.7043,-311.0306"/>
<polygon fill="#000000" stroke="#000000" points="144.0418,-312.1516 145.0561,-301.6054 137.6865,-309.2172 144.0418,-312.1516"/>
<text text-anchor="middle" x="152.75" y="-324.6" font-family="Times,serif" font-size="14.00" fill="#000000">89.00</text>
</g>
<!-- 77&#45;&gt;64 -->
<g id="edge8" class="edge">
<title>77&#45;&gt;64</title>
<path fill="none" stroke="#000000" d="M137.1861,-269.5367C130.8092,-263.2496 123.5462,-255.7015 117.5,-248.4 110.3571,-239.7741 103.1972,-229.7835 97.1345,-220.829"/>
<polygon fill="#000000" stroke="#000000" points="99.9253,-218.7047 91.4788,-212.3089 94.0933,-222.5761 99.9253,-218.7047"/>
<text text-anchor="middle" x="133.75" y="-235.8" font-family="Times,serif" font-size="14.00" fill="#000000">99.00</text>
</g>
<!-- 4 -->
<g id="node9" class="node">
<title>4</title>
<ellipse fill="none" stroke="#ff0000" cx="153" cy="-195.6" rx="27" ry="18"/>
<text text-anchor="middle" x="153" y="-191.4" font-family="Times,serif" font-size="14.00" fill="#000000">4</text>
</g>
<!-- 77&#45;&gt;4 -->
<g id="edge6" class="edge">
<title>77&#45;&gt;4</title>
<path fill="none" stroke="#000000" d="M153,-266.0006C153,-253.8949 153,-237.8076 153,-224.0674"/>
<polygon fill="#000000" stroke="#000000" points="156.5001,-223.672 153,-213.672 149.5001,-223.6721 156.5001,-223.672"/>
<text text-anchor="middle" x="172.25" y="-235.8" font-family="Times,serif" font-size="14.00" fill="#000000">197.00</text>
</g>
<!-- 54 -->
<g id="node10" class="node">
<title>54</title>
<ellipse fill="none" stroke="#000000" cx="225" cy="-195.6" rx="27" ry="18"/>
<text text-anchor="middle" x="225" y="-191.4" font-family="Times,serif" font-size="14.00" fill="#000000">54</text>
</g>
<!-- 77&#45;&gt;54 -->
<g id="edge7" class="edge">
<title>77&#45;&gt;54</title>
<path fill="none" stroke="#000000" d="M171.9374,-271.0386C179.9795,-264.7674 189.0756,-256.8238 196,-248.4 202.4377,-240.5683 208.1582,-231.097 212.7815,-222.3508"/>
<polygon fill="#000000" stroke="#000000" points="215.9885,-223.7637 217.3497,-213.2567 209.7333,-220.6216 215.9885,-223.7637"/>
<text text-anchor="middle" x="222.75" y="-235.8" font-family="Times,serif" font-size="14.00" fill="#000000">92.00</text>
</g>
<!-- 54&#45;&gt;1 -->
<g id="edge9" class="edge">
<title>54&#45;&gt;1</title>
<path fill="none" stroke="#000000" d="M218.5997,-177.8342C216.7223,-172.0783 214.8209,-165.6244 213.5,-159.6 211.767,-151.6963 210.4589,-143.0184 209.4878,-135.022"/>
<polygon fill="#000000" stroke="#000000" points="212.9612,-134.5866 208.398,-125.0248 206.0024,-135.3453 212.9612,-134.5866"/>
<text text-anchor="middle" x="232.25" y="-147" font-family="Times,serif" font-size="14.00" fill="#000000">191.00</text>
</g>
<!-- 40 -->
<g id="node11" class="node">
<title>40</title>
<ellipse fill="none" stroke="#000000" cx="279" cy="-106.8" rx="27" ry="18"/>
<text text-anchor="middle" x="279" y="-102.6" font-family="Times,serif" font-size="14.00" fill="#000000">40</text>
</g>
<!-- 54&#45;&gt;40 -->
<g id="edge10" class="edge">
<title>54&#45;&gt;40</title>
<path fill="none" stroke="#000000" d="M237.9753,-179.5295C242.6364,-173.4477 247.78,-166.3596 252,-159.6 257.1499,-151.351 262.1751,-142.0014 266.4666,-133.4863"/>
<polygon fill="#000000" stroke="#000000" points="269.6969,-134.8486 270.9676,-124.3302 263.4149,-131.7604 269.6969,-134.8486"/>
<text text-anchor="middle" x="275.75" y="-147" font-family="Times,serif" font-size="14.00" fill="#000000">92.00</text>
</g>
<!-- 8 -->
<g id="node12" class="node">
<title>8</title>
<ellipse fill="none" stroke="#000000" cx="279" cy="-18" rx="27" ry="18"/>
<text text-anchor="middle" x="279" y="-13.8" font-family="Times,serif" font-size="14.00" fill="#000000">8</text>
</g>
<!-- 40&#45;&gt;8 -->
<g id="edge11" class="edge">
<title>40&#45;&gt;8</title>
<path fill="none" stroke="#000000" d="M279,-88.4006C279,-76.2949 279,-60.2076 279,-46.4674"/>
<polygon fill="#000000" stroke="#000000" points="282.5001,-46.072 279,-36.072 275.5001,-46.0721 282.5001,-46.072"/>
<text text-anchor="middle" x="294.75" y="-58.2" font-family="Times,serif" font-size="14.00" fill="#000000">98.00</text>
</g>
</g>
</svg>
