<svg width="600px" height="684px"
 viewBox="0.00 0.00 350.00 399.20" xmlns="http://www.w3.org/2000/svg" xmlns:xlink="http://www.w3.org/1999/xlink">
<g id="graph0" class="graph" transform="scale(1.0 1.0) rotate(0) translate(4 395.2)">
<title>%0</title>
<polygon fill="#ffffff" stroke="transparent" points="-4,4 -4,-395.2 346,-395.2 346,4 -4,4"/>
<!-- 0 -->
<g id="node1" class="node">
<title>0</title>
<ellipse fill="none" stroke="#ff0000" cx="99" cy="-106.8" rx="27" ry="18"/>
<text text-anchor="middle" x="99" y="-102.6" font-family="Times,serif" font-size="14.00" fill="#000000">0</text>
</g>
<!-- 1 -->
<g id="node2" class="node">
<title>1</title>
<ellipse fill="none" stroke="#ff0000" cx="171" cy="-106.8" rx="27" ry="18"/>
<text text-anchor="middle" x="171" y="-102.6" font-family="Times,serif" font-size="14.00" fill="#000000">1</text>
</g>
<!-- 2 -->
<g id="node3" class="node">
<title>2</title>
<ellipse fill="none" stroke="#ff0000" cx="243" cy="-106.8" rx="27" ry="18"/>
<text text-anchor="middle" x="243" y="-102.6" font-family="Times,serif" font-size="14.00" fill="#000000">2</text>
</g>
<!-- 3 -->
<g id="node4" class="node">
<title>3</title>
<ellipse fill="none" stroke="#ff0000" cx="98" cy="-373.2" rx="27" ry="18"/>
<text text-anchor="middle" x="98" y="-369" font-family="Times,serif" font-size="14.00" fill="#000000">3</text>
</g>
<!-- 69 -->
<g id="node5" class="node">
<title>69</title>
<ellipse fill="none" stroke="#000000" cx="98" cy="-284.4" rx="27" ry="18"/>
<text text-anchor="middle" x="98" y="-280.2" font-family="Times,serif" font-size="14.00" fill="#000000">69</text>
</g>
<!-- 3&#45;&gt;69 -->
<g id="edge1" class="edge">
<title>3&#45;&gt;69</title>
<path fill="none" stroke="#000000" d="M98,-354.8006C98,-342.6949 98,-326.6076 98,-312.8674"/>
<polygon fill="#000000" stroke="#000000" points="101.5001,-312.472 98,-302.472 94.5001,-312.4721 101.5001,-312.472"/>
<text text-anchor="middle" x="108.5" y="-324.6" font-family="Times,serif" font-size="14.00" fill="#000000">198</text>
</g>
<!-- 68 -->
<g id="node6" class="node">
<title>68</title>
<ellipse fill="none" stroke="#000000" cx="63" cy="-195.6" rx="27" ry="18"/>
<text text-anchor="middle" x="63" y="-191.4" font-family="Times,serif" font-size="14.00" fill="#000000">68</text>
</g>
<!-- 69&#45;&gt;68 -->
<g id="edge2" class="edge">
<title>69&#45;&gt;68</title>
<path fill="none" stroke="#000000" d="M91.0851,-266.856C86.0996,-254.2071 79.2782,-236.9002 73.6066,-222.5105"/>
<polygon fill="#000000" stroke="#000000" points="76.8237,-221.1276 69.9005,-213.1076 70.3113,-223.6945 76.8237,-221.1276"/>
<text text-anchor="middle" x="91" y="-235.8" font-family="Times,serif" font-size="14.00" fill="#000000">91</text>
</g>
<!-- 72 -->
<g id="node8" class="node">
<title>72</title>
<ellipse fill="none" stroke="#000000" cx="171" cy="-195.6" rx="27" ry="18"/>
<text text-anchor="middle" x="171" y="-191.4" font-family="Times,serif" font-size="14.00" fill="#000000">72</text>
</g>
<!-- 69&#45;&gt;72 -->
<g id="edge3" class="edge">
<title>69&#45;&gt;72</title>
<path fill="none" stroke="#000000" d="M111.0509,-268.5243C122.193,-254.9707 138.3906,-235.2674 151.141,-219.7573"/>
<polygon fill="#000000" stroke="#000000" points="154.1692,-221.5851 157.8159,-211.6376 148.7618,-217.1398 154.1692,-221.5851"/>
<text text-anchor="middle" x="152.5" y="-235.8" font-family="Times,serif" font-size="14.00" fill="#000000">103</text>
</g>
<!-- 5 -->
<g id="node7" class="node">
<title>5</title>
<ellipse fill="none" stroke="#ff0000" cx="27" cy="-106.8" rx="27" ry="18"/>
<text text-anchor="middle" x="27" y="-102.6" font-family="Times,serif" font-size="14.00" fill="#000000">5</text>
</g>
<!-- 68&#45;&gt;5 -->
<g id="edge4" class="edge">
<title>68&#45;&gt;5</title>
<path fill="none" stroke="#000000" d="M55.8876,-178.056C50.7596,-165.4071 43.7433,-148.1002 37.9097,-133.7105"/>
<polygon fill="#000000" stroke="#000000" points="41.0984,-132.26 34.0977,-124.3076 34.6112,-134.89 41.0984,-132.26"/>
<text text-anchor="middle" x="59.5" y="-147" font-family="Times,serif" font-size="14.00" fill="#000000">192</text>
</g>
<!-- 72&#45;&gt;0 -->
<g id="edge6" class="edge">
<title>72&#45;&gt;0</title>
<path fill="none" stroke="#000000" d="M158.1278,-179.7243C147.1384,-166.1707 131.1627,-146.4674 118.587,-130.9573"/>
<polygon fill="#000000" stroke="#000000" points="121.0202,-128.4009 112.0035,-122.8376 115.5829,-132.8095 121.0202,-128.4009"/>
<text text-anchor="middle" x="152.5" y="-147" font-family="Times,serif" font-size="14.00" fill="#000000">193</text>
</g>
<!-- 72&#45;&gt;1 -->
<g id="edge7" class="edge">
<title>72&#45;&gt;1</title>
<path fill="none" stroke="#000000" d="M171,-177.2006C171,-165.0949 171,-149.0076 171,-135.2674"/>
<polygon fill="#000000" stroke="#000000" points="174.5001,-134.872 171,-124.872 167.5001,-134.8721 174.5001,-134.872"/>
<text text-anchor="middle" x="181.5" y="-147" font-family="Times,serif" font-size="14.00" fill="#000000">197</text>
</g>
<!-- 72&#45;&gt;2 -->
<g id="edge8" class="edge">
<title>72&#45;&gt;2</title>
<path fill="none" stroke="#000000" d="M183.8722,-179.7243C194.8616,-166.1707 210.8373,-146.4674 223.413,-130.9573"/>
<polygon fill="#000000" stroke="#000000" points="226.4171,-132.8095 229.9965,-122.8376 220.9798,-128.4009 226.4171,-132.8095"/>
<text text-anchor="middle" x="224.5" y="-147" font-family="Times,serif" font-size="14.00" fill="#000000">196</text>
</g>
<!-- 24 -->
<g id="node9" class="node">
<title>24</title>
<ellipse fill="none" stroke="#000000" cx="315" cy="-106.8" rx="27" ry="18"/>
<text text-anchor="middle" x="315" y="-102.6" font-family="Times,serif" font-size="14.00" fill="#000000">24</text>
</g>
<!-- 72&#45;&gt;24 -->
<g id="edge5" class="edge">
<title>72&#45;&gt;24</title>
<path fill="none" stroke="#000000" d="M192.8072,-184.8991C206.3322,-178.0564 223.9407,-168.7717 239,-159.6 255.9311,-149.2882 274.1971,-136.6505 288.5776,-126.3245"/>
<polygon fill="#000000" stroke="#000000" points="290.938,-128.9366 296.9828,-120.2354 286.8312,-123.2678 290.938,-128.9366"/>
<text text-anchor="middle" x="275.5" y="-147" font-family="Times,serif" font-size="14.00" fill="#000000">101</text>
</g>
<!-- 4 -->
<g id="node10" class="node">
<title>4</title>
<ellipse fill="none" stroke="#ff0000" cx="315" cy="-18" rx="27" ry="18"/>
<text text-anchor="middle" x="315" y="-13.8" font-family="Times,serif" font-size="14.00" fill="#000000">4</text>
</g>
<!-- 24&#45;&gt;4 -->
<g id="edge9" class="edge">
<title>24&#45;&gt;4</title>
<path fill="none" stroke="#000000" d="M315,-88.4006C315,-76.2949 315,-60.2076 315,-46.4674"/>
<polygon fill="#000000" stroke="#000000" points="318.5001,-46.072 315,-36.072 311.5001,-46.0721 318.5001,-46.072"/>
<text text-anchor="middle" x="325.5" y="-58.2" font-family="Times,serif" font-size="14.00" fill="#000000">192</text>
</g>
</g>
</svg>
