<svg width="600px" height="734px"
 viewBox="0.00 0.00 325.50 399.20" xmlns="http://www.w3.org/2000/svg" xmlns:xlink="http://www.w3.org/1999/xlink">
<g id="graph0" class="graph" transform="scale(1.0 1.0) rotate(0) translate(4 395.2)">
<title>%0</title>
<polygon fill="#ffffff" stroke="transparent" points="-4,4 -4,-395.2 321.5,-395.2 321.5,4 -4,4"/>
<!-- 0 -->
<g id="node1" class="node">
<title>0</title>
<ellipse fill="none" stroke="#ff0000" cx="99" cy="-18" rx="27" ry="18"/>
<text text-anchor="middle" x="99" y="-13.8" font-family="Times,serif" font-size="14.00" fill="#000000">0</text>
</g>
<!-- 1 -->
<g id="node2" class="node">
<title>1</title>
<ellipse fill="none" stroke="#ff0000" cx="99" cy="-284.4" rx="27" ry="18"/>
<text text-anchor="middle" x="99" y="-280.2" font-family="Times,serif" font-size="14.00" fill="#000000">1</text>
</g>
<!-- 18 -->
<g id="node3" class="node">
<title>18</title>
<ellipse fill="none" stroke="#000000" cx="130" cy="-373.2" rx="27" ry="18"/>
<text text-anchor="middle" x="130" y="-369" font-family="Times,serif" font-size="14.00" fill="#000000">18</text>
</g>
<!-- 18&#45;&gt;1 -->
<g id="edge1" class="edge">
<title>18&#45;&gt;1</title>
<path fill="none" stroke="#000000" d="M116.7616,-357.27C112.4844,-351.3163 108.1634,-344.2754 105.5,-337.2 102.6042,-329.5071 100.9362,-320.7815 99.9924,-312.671"/>
<polygon fill="#000000" stroke="#000000" points="103.4624,-312.1689 99.1264,-302.502 96.4876,-312.763 103.4624,-312.1689"/>
<text text-anchor="middle" x="125.25" y="-324.6" font-family="Times,serif" font-size="14.00" fill="#000000">196.00</text>
</g>
<!-- 39 -->
<g id="node4" class="node">
<title>39</title>
<ellipse fill="none" stroke="#000000" cx="171" cy="-284.4" rx="27" ry="18"/>
<text text-anchor="middle" x="171" y="-280.2" font-family="Times,serif" font-size="14.00" fill="#000000">39</text>
</g>
<!-- 18&#45;&gt;39 -->
<g id="edge2" class="edge">
<title>18&#45;&gt;39</title>
<path fill="none" stroke="#000000" d="M138.1003,-355.656C143.9783,-342.925 152.0351,-325.4753 158.7043,-311.0306"/>
<polygon fill="#000000" stroke="#000000" points="162.0418,-312.1516 163.0561,-301.6054 155.6865,-309.2172 162.0418,-312.1516"/>
<text text-anchor="middle" x="170.75" y="-324.6" font-family="Times,serif" font-size="14.00" fill="#000000">93.00</text>
</g>
<!-- 76 -->
<g id="node5" class="node">
<title>76</title>
<ellipse fill="none" stroke="#000000" cx="63" cy="-195.6" rx="27" ry="18"/>
<text text-anchor="middle" x="63" y="-191.4" font-family="Times,serif" font-size="14.00" fill="#000000">76</text>
</g>
<!-- 39&#45;&gt;76 -->
<g id="edge3" class="edge">
<title>39&#45;&gt;76</title>
<path fill="none" stroke="#000000" d="M149.3738,-273.59C128.522,-263.1555 100.0307,-248.8619 99.5,-248.4 90.8367,-240.8599 83.2331,-230.8332 77.24,-221.5442"/>
<polygon fill="#000000" stroke="#000000" points="80.2034,-219.6812 72.0056,-212.9695 74.2287,-223.3285 80.2034,-219.6812"/>
<text text-anchor="middle" x="119.25" y="-235.8" font-family="Times,serif" font-size="14.00" fill="#000000">100.00</text>
</g>
<!-- 2 -->
<g id="node8" class="node">
<title>2</title>
<ellipse fill="none" stroke="#ff0000" cx="135" cy="-195.6" rx="27" ry="18"/>
<text text-anchor="middle" x="135" y="-191.4" font-family="Times,serif" font-size="14.00" fill="#000000">2</text>
</g>
<!-- 39&#45;&gt;2 -->
<g id="edge4" class="edge">
<title>39&#45;&gt;2</title>
<path fill="none" stroke="#000000" d="M158.1208,-268.3253C153.8773,-262.358 149.4858,-255.3455 146.5,-248.4 143.1653,-240.643 140.754,-231.8142 139.0289,-223.6261"/>
<polygon fill="#000000" stroke="#000000" points="142.4578,-222.92 137.193,-213.7259 135.5751,-224.1964 142.4578,-222.92"/>
<text text-anchor="middle" x="166.25" y="-235.8" font-family="Times,serif" font-size="14.00" fill="#000000">188.00</text>
</g>
<!-- 4 -->
<g id="node9" class="node">
<title>4</title>
<ellipse fill="none" stroke="#ff0000" cx="207" cy="-195.6" rx="27" ry="18"/>
<text text-anchor="middle" x="207" y="-191.4" font-family="Times,serif" font-size="14.00" fill="#000000">4</text>
</g>
<!-- 39&#45;&gt;4 -->
<g id="edge5" class="edge">
<title>39&#45;&gt;4</title>
<path fill="none" stroke="#000000" d="M178.1124,-266.856C183.2404,-254.2071 190.2567,-236.9002 196.0903,-222.5105"/>
<polygon fill="#000000" stroke="#000000" points="199.3888,-223.69 199.9023,-213.1076 192.9016,-221.06 199.3888,-223.69"/>
<text text-anchor="middle" x="211.25" y="-235.8" font-family="Times,serif" font-size="14.00" fill="#000000">200.00</text>
</g>
<!-- 8 -->
<g id="node10" class="node">
<title>8</title>
<ellipse fill="none" stroke="#000000" cx="279" cy="-195.6" rx="27" ry="18"/>
<text text-anchor="middle" x="279" y="-191.4" font-family="Times,serif" font-size="14.00" fill="#000000">8</text>
</g>
<!-- 39&#45;&gt;8 -->
<g id="edge6" class="edge">
<title>39&#45;&gt;8</title>
<path fill="none" stroke="#000000" d="M193.5942,-274.23C206.4589,-267.84 222.4589,-258.84 235,-248.4 244.7882,-240.2517 254.063,-229.7197 261.5509,-220.208"/>
<polygon fill="#000000" stroke="#000000" points="264.3747,-222.2769 267.6393,-212.1975 258.8017,-218.0411 264.3747,-222.2769"/>
<text text-anchor="middle" x="270.25" y="-235.8" font-family="Times,serif" font-size="14.00" fill="#000000">105.00</text>
</g>
<!-- 5 -->
<g id="node6" class="node">
<title>5</title>
<ellipse fill="none" stroke="#ff0000" cx="27" cy="-106.8" rx="27" ry="18"/>
<text text-anchor="middle" x="27" y="-102.6" font-family="Times,serif" font-size="14.00" fill="#000000">5</text>
</g>
<!-- 76&#45;&gt;5 -->
<g id="edge7" class="edge">
<title>76&#45;&gt;5</title>
<path fill="none" stroke="#000000" d="M47.6479,-180.7674C42.296,-174.7154 36.8072,-167.3255 33.5,-159.6 30.2651,-152.0434 28.4938,-143.3593 27.5595,-135.2451"/>
<polygon fill="#000000" stroke="#000000" points="31.0311,-134.7451 26.7606,-125.0491 24.0525,-135.2919 31.0311,-134.7451"/>
<text text-anchor="middle" x="53.25" y="-147" font-family="Times,serif" font-size="14.00" fill="#000000">195.00</text>
</g>
<!-- 45 -->
<g id="node7" class="node">
<title>45</title>
<ellipse fill="none" stroke="#000000" cx="99" cy="-106.8" rx="27" ry="18"/>
<text text-anchor="middle" x="99" y="-102.6" font-family="Times,serif" font-size="14.00" fill="#000000">45</text>
</g>
<!-- 76&#45;&gt;45 -->
<g id="edge8" class="edge">
<title>76&#45;&gt;45</title>
<path fill="none" stroke="#000000" d="M70.1124,-178.056C75.2404,-165.4071 82.2567,-148.1002 88.0903,-133.7105"/>
<polygon fill="#000000" stroke="#000000" points="91.3888,-134.89 91.9023,-124.3076 84.9016,-132.26 91.3888,-134.89"/>
<text text-anchor="middle" x="100.75" y="-147" font-family="Times,serif" font-size="14.00" fill="#000000">88.00</text>
</g>
<!-- 45&#45;&gt;0 -->
<g id="edge9" class="edge">
<title>45&#45;&gt;0</title>
<path fill="none" stroke="#000000" d="M99,-88.4006C99,-76.2949 99,-60.2076 99,-46.4674"/>
<polygon fill="#000000" stroke="#000000" points="102.5001,-46.072 99,-36.072 95.5001,-46.0721 102.5001,-46.072"/>
<text text-anchor="middle" x="118.25" y="-58.2" font-family="Times,serif" font-size="14.00" fill="#000000">189.00</text>
</g>
<!-- 3 -->
<g id="node11" class="node">
<title>3</title>
<ellipse fill="none" stroke="#ff0000" cx="279" cy="-106.8" rx="27" ry="18"/>
<text text-anchor="middle" x="279" y="-102.6" font-family="Times,serif" font-size="14.00" fill="#000000">3</text>
</g>
<!-- 8&#45;&gt;3 -->
<g id="edge10" class="edge">
<title>8&#45;&gt;3</title>
<path fill="none" stroke="#000000" d="M279,-177.2006C279,-165.0949 279,-149.0076 279,-135.2674"/>
<polygon fill="#000000" stroke="#000000" points="282.5001,-134.872 279,-124.872 275.5001,-134.8721 282.5001,-134.872"/>
<text text-anchor="middle" x="298.25" y="-147" font-family="Times,serif" font-size="14.00" fill="#000000">192.00</text>
</g>
</g>
</svg>
