<svg width="600px" height="1094px"
 viewBox="0.00 0.00 170.00 310.40" xmlns="http://www.w3.org/2000/svg" xmlns:xlink="http://www.w3.org/1999/xlink">
<g id="graph0" class="graph" transform="scale(1.0 1.0) rotate(0) translate(4 306.4)">
<title>%0</title>
<polygon fill="#ffffff" stroke="transparent" points="-4,4 -4,-306.4 166,-306.4 166,4 -4,4"/>
<!-- 0 -->
<g id="node1" class="node">
<title>0</title>
<ellipse fill="none" stroke="#ff0000" cx="27" cy="-18" rx="27" ry="18"/>
<text text-anchor="middle" x="27" y="-13.8" font-family="Times,serif" font-size="14.00" fill="#000000">0</text>
</g>
<!-- 1 -->
<g id="node2" class="node">
<title>1</title>
<ellipse fill="none" stroke="#ff0000" cx="99" cy="-284.4" rx="27" ry="18"/>
<text text-anchor="middle" x="99" y="-280.2" font-family="Times,serif" font-size="14.00" fill="#000000">1</text>
</g>
<!-- 3 -->
<g id="node3" class="node">
<title>3</title>
<ellipse fill="none" stroke="#ff0000" cx="63" cy="-195.6" rx="27" ry="18"/>
<text text-anchor="middle" x="63" y="-191.4" font-family="Times,serif" font-size="14.00" fill="#000000">3</text>
</g>
<!-- 1&#45;&gt;3 -->
<g id="edge1" class="edge">
<title>1&#45;&gt;3</title>
<path fill="none" stroke="#000000" d="M86.1208,-268.3253C81.8773,-262.358 77.4858,-255.3455 74.5,-248.4 71.1653,-240.643 68.754,-231.8142 67.0289,-223.6261"/>
<polygon fill="#000000" stroke="#000000" points="70.4578,-222.92 65.193,-213.7259 63.5751,-224.1964 70.4578,-222.92"/>
<text text-anchor="middle" x="93.25" y="-235.8" font-family="Times,serif" font-size="14.00" fill="#000000">298.00</text>
</g>
<!-- 5 -->
<g id="node6" class="node">
<title>5</title>
<ellipse fill="none" stroke="#ff0000" cx="135" cy="-195.6" rx="27" ry="18"/>
<text text-anchor="middle" x="135" y="-191.4" font-family="Times,serif" font-size="14.00" fill="#000000">5</text>
</g>
<!-- 1&#45;&gt;5 -->
<g id="edge2" class="edge">
<title>1&#45;&gt;5</title>
<path fill="none" stroke="#000000" d="M106.1124,-266.856C111.2404,-254.2071 118.2567,-236.9002 124.0903,-222.5105"/>
<polygon fill="#000000" stroke="#000000" points="127.3888,-223.69 127.9023,-213.1076 120.9016,-221.06 127.3888,-223.69"/>
<text text-anchor="middle" x="139.25" y="-235.8" font-family="Times,serif" font-size="14.00" fill="#000000">297.00</text>
</g>
<!-- 2 -->
<g id="node4" class="node">
<title>2</title>
<ellipse fill="none" stroke="#ff0000" cx="63" cy="-106.8" rx="27" ry="18"/>
<text text-anchor="middle" x="63" y="-102.6" font-family="Times,serif" font-size="14.00" fill="#000000">2</text>
</g>
<!-- 3&#45;&gt;2 -->
<g id="edge3" class="edge">
<title>3&#45;&gt;2</title>
<path fill="none" stroke="#000000" d="M63,-177.2006C63,-165.0949 63,-149.0076 63,-135.2674"/>
<polygon fill="#000000" stroke="#000000" points="66.5001,-134.872 63,-124.872 59.5001,-134.8721 66.5001,-134.872"/>
<text text-anchor="middle" x="82.25" y="-147" font-family="Times,serif" font-size="14.00" fill="#000000">296.00</text>
</g>
<!-- 2&#45;&gt;0 -->
<g id="edge4" class="edge">
<title>2&#45;&gt;0</title>
<path fill="none" stroke="#000000" d="M50.1208,-90.7253C45.8773,-84.758 41.4858,-77.7455 38.5,-70.8 35.1653,-63.043 32.754,-54.2142 31.0289,-46.0261"/>
<polygon fill="#000000" stroke="#000000" points="34.4578,-45.32 29.193,-36.1259 27.5751,-46.5964 34.4578,-45.32"/>
<text text-anchor="middle" x="58.25" y="-58.2" font-family="Times,serif" font-size="14.00" fill="#000000">285.00</text>
</g>
<!-- 4 -->
<g id="node5" class="node">
<title>4</title>
<ellipse fill="none" stroke="#ff0000" cx="99" cy="-18" rx="27" ry="18"/>
<text text-anchor="middle" x="99" y="-13.8" font-family="Times,serif" font-size="14.00" fill="#000000">4</text>
</g>
<!-- 2&#45;&gt;4 -->
<g id="edge5" class="edge">
<title>2&#45;&gt;4</title>
<path fill="none" stroke="#000000" d="M70.1124,-89.256C75.2404,-76.6071 82.2567,-59.3002 88.0903,-44.9105"/>
<polygon fill="#000000" stroke="#000000" points="91.3888,-46.09 91.9023,-35.5076 84.9016,-43.46 91.3888,-46.09"/>
<text text-anchor="middle" x="103.25" y="-58.2" font-family="Times,serif" font-size="14.00" fill="#000000">297.00</text>
</g>
</g>
</svg>
