<svg width="600px" height="661px"
 viewBox="0.00 0.00 361.50 399.20" xmlns="http://www.w3.org/2000/svg" xmlns:xlink="http://www.w3.org/1999/xlink">
<g id="graph0" class="graph" transform="scale(1.0 1.0) rotate(0) translate(4 395.2)">
<title>%0</title>
<polygon fill="#ffffff" stroke="transparent" points="-4,4 -4,-395.2 357.5,-395.2 357.5,4 -4,4"/>
<!-- 0 -->
<g id="node1" class="node">
<title>0</title>
<ellipse fill="none" stroke="#ff0000" cx="27" cy="-18" rx="27" ry="18"/>
<text text-anchor="middle" x="27" y="-13.8" font-family="Times,serif" font-size="14.00" fill="#000000">0</text>
</g>
<!-- 48 -->
<g id="node2" class="node">
<title>48</title>
<ellipse fill="none" stroke="#000000" cx="171" cy="-195.6" rx="27" ry="18"/>
<text text-anchor="middle" x="171" y="-191.4" font-family="Times,serif" font-size="14.00" fill="#000000">48</text>
</g>
<!-- 34 -->
<g id="node3" class="node">
<title>34</title>
<ellipse fill="none" stroke="#000000" cx="99" cy="-106.8" rx="27" ry="18"/>
<text text-anchor="middle" x="99" y="-102.6" font-family="Times,serif" font-size="14.00" fill="#000000">34</text>
</g>
<!-- 48&#45;&gt;34 -->
<g id="edge1" class="edge">
<title>48&#45;&gt;34</title>
<path fill="none" stroke="#000000" d="M155.1861,-180.7367C148.8092,-174.4496 141.5462,-166.9015 135.5,-159.6 128.3571,-150.9741 121.1972,-140.9835 115.1345,-132.029"/>
<polygon fill="#000000" stroke="#000000" points="117.9253,-129.9047 109.4788,-123.5089 112.0933,-133.7761 117.9253,-129.9047"/>
<text text-anchor="middle" x="151.75" y="-147" font-family="Times,serif" font-size="14.00" fill="#000000">91.00</text>
</g>
<!-- 36 -->
<g id="node5" class="node">
<title>36</title>
<ellipse fill="none" stroke="#000000" cx="171" cy="-106.8" rx="27" ry="18"/>
<text text-anchor="middle" x="171" y="-102.6" font-family="Times,serif" font-size="14.00" fill="#000000">36</text>
</g>
<!-- 48&#45;&gt;36 -->
<g id="edge2" class="edge">
<title>48&#45;&gt;36</title>
<path fill="none" stroke="#000000" d="M171,-177.2006C171,-165.0949 171,-149.0076 171,-135.2674"/>
<polygon fill="#000000" stroke="#000000" points="174.5001,-134.872 171,-124.872 167.5001,-134.8721 174.5001,-134.872"/>
<text text-anchor="middle" x="186.75" y="-147" font-family="Times,serif" font-size="14.00" fill="#000000">90.00</text>
</g>
<!-- 34&#45;&gt;0 -->
<g id="edge3" class="edge">
<title>34&#45;&gt;0</title>
<path fill="none" stroke="#000000" d="M80.3202,-93.3792C72.3786,-87.097 63.3834,-79.1612 56.5,-70.8 50.0306,-62.9416 44.2307,-53.4638 39.521,-44.7199"/>
<polygon fill="#000000" stroke="#000000" points="42.537,-42.9309 34.8582,-35.6311 36.3088,-46.1262 42.537,-42.9309"/>
<text text-anchor="middle" x="76.25" y="-58.2" font-family="Times,serif" font-size="14.00" fill="#000000">201.00</text>
</g>
<!-- 1 -->
<g id="node4" class="node">
<title>1</title>
<ellipse fill="none" stroke="#ff0000" cx="99" cy="-18" rx="27" ry="18"/>
<text text-anchor="middle" x="99" y="-13.8" font-family="Times,serif" font-size="14.00" fill="#000000">1</text>
</g>
<!-- 34&#45;&gt;1 -->
<g id="edge4" class="edge">
<title>34&#45;&gt;1</title>
<path fill="none" stroke="#000000" d="M99,-88.4006C99,-76.2949 99,-60.2076 99,-46.4674"/>
<polygon fill="#000000" stroke="#000000" points="102.5001,-46.072 99,-36.072 95.5001,-46.0721 102.5001,-46.072"/>
<text text-anchor="middle" x="118.25" y="-58.2" font-family="Times,serif" font-size="14.00" fill="#000000">190.00</text>
</g>
<!-- 5 -->
<g id="node6" class="node">
<title>5</title>
<ellipse fill="none" stroke="#ff0000" cx="171" cy="-18" rx="27" ry="18"/>
<text text-anchor="middle" x="171" y="-13.8" font-family="Times,serif" font-size="14.00" fill="#000000">5</text>
</g>
<!-- 36&#45;&gt;5 -->
<g id="edge5" class="edge">
<title>36&#45;&gt;5</title>
<path fill="none" stroke="#000000" d="M171,-88.4006C171,-76.2949 171,-60.2076 171,-46.4674"/>
<polygon fill="#000000" stroke="#000000" points="174.5001,-46.072 171,-36.072 167.5001,-46.0721 174.5001,-46.072"/>
<text text-anchor="middle" x="190.25" y="-58.2" font-family="Times,serif" font-size="14.00" fill="#000000">199.00</text>
</g>
<!-- 2 -->
<g id="node7" class="node">
<title>2</title>
<ellipse fill="none" stroke="#ff0000" cx="243" cy="-106.8" rx="27" ry="18"/>
<text text-anchor="middle" x="243" y="-102.6" font-family="Times,serif" font-size="14.00" fill="#000000">2</text>
</g>
<!-- 18 -->
<g id="node8" class="node">
<title>18</title>
<ellipse fill="none" stroke="#000000" cx="243" cy="-195.6" rx="27" ry="18"/>
<text text-anchor="middle" x="243" y="-191.4" font-family="Times,serif" font-size="14.00" fill="#000000">18</text>
</g>
<!-- 18&#45;&gt;2 -->
<g id="edge6" class="edge">
<title>18&#45;&gt;2</title>
<path fill="none" stroke="#000000" d="M243,-177.2006C243,-165.0949 243,-149.0076 243,-135.2674"/>
<polygon fill="#000000" stroke="#000000" points="246.5001,-134.872 243,-124.872 239.5001,-134.8721 246.5001,-134.872"/>
<text text-anchor="middle" x="262.25" y="-147" font-family="Times,serif" font-size="14.00" fill="#000000">187.00</text>
</g>
<!-- 3 -->
<g id="node9" class="node">
<title>3</title>
<ellipse fill="none" stroke="#ff0000" cx="315" cy="-106.8" rx="27" ry="18"/>
<text text-anchor="middle" x="315" y="-102.6" font-family="Times,serif" font-size="14.00" fill="#000000">3</text>
</g>
<!-- 4 -->
<g id="node10" class="node">
<title>4</title>
<ellipse fill="none" stroke="#ff0000" cx="243" cy="-373.2" rx="27" ry="18"/>
<text text-anchor="middle" x="243" y="-369" font-family="Times,serif" font-size="14.00" fill="#000000">4</text>
</g>
<!-- 15 -->
<g id="node11" class="node">
<title>15</title>
<ellipse fill="none" stroke="#000000" cx="243" cy="-284.4" rx="27" ry="18"/>
<text text-anchor="middle" x="243" y="-280.2" font-family="Times,serif" font-size="14.00" fill="#000000">15</text>
</g>
<!-- 4&#45;&gt;15 -->
<g id="edge7" class="edge">
<title>4&#45;&gt;15</title>
<path fill="none" stroke="#000000" d="M243,-354.8006C243,-342.6949 243,-326.6076 243,-312.8674"/>
<polygon fill="#000000" stroke="#000000" points="246.5001,-312.472 243,-302.472 239.5001,-312.4721 246.5001,-312.472"/>
<text text-anchor="middle" x="262.25" y="-324.6" font-family="Times,serif" font-size="14.00" fill="#000000">201.00</text>
</g>
<!-- 15&#45;&gt;48 -->
<g id="edge10" class="edge">
<title>15&#45;&gt;48</title>
<path fill="none" stroke="#000000" d="M227.1861,-269.5367C220.8092,-263.2496 213.5462,-255.7015 207.5,-248.4 200.3571,-239.7741 193.1972,-229.7835 187.1345,-220.829"/>
<polygon fill="#000000" stroke="#000000" points="189.9253,-218.7047 181.4788,-212.3089 184.0933,-222.5761 189.9253,-218.7047"/>
<text text-anchor="middle" x="223.75" y="-235.8" font-family="Times,serif" font-size="14.00" fill="#000000">93.00</text>
</g>
<!-- 15&#45;&gt;18 -->
<g id="edge8" class="edge">
<title>15&#45;&gt;18</title>
<path fill="none" stroke="#000000" d="M243,-266.0006C243,-253.8949 243,-237.8076 243,-224.0674"/>
<polygon fill="#000000" stroke="#000000" points="246.5001,-223.672 243,-213.672 239.5001,-223.6721 246.5001,-223.672"/>
<text text-anchor="middle" x="262.25" y="-235.8" font-family="Times,serif" font-size="14.00" fill="#000000">101.00</text>
</g>
<!-- 42 -->
<g id="node12" class="node">
<title>42</title>
<ellipse fill="none" stroke="#000000" cx="315" cy="-195.6" rx="27" ry="18"/>
<text text-anchor="middle" x="315" y="-191.4" font-family="Times,serif" font-size="14.00" fill="#000000">42</text>
</g>
<!-- 15&#45;&gt;42 -->
<g id="edge9" class="edge">
<title>15&#45;&gt;42</title>
<path fill="none" stroke="#000000" d="M261.4225,-270.9206C269.2637,-264.6276 278.158,-256.6995 285,-248.4 291.501,-240.5141 297.3802,-231.0296 302.1763,-222.288"/>
<polygon fill="#000000" stroke="#000000" points="305.3945,-223.6871 306.9337,-213.2047 299.1935,-220.4393 305.3945,-223.6871"/>
<text text-anchor="middle" x="316.25" y="-235.8" font-family="Times,serif" font-size="14.00" fill="#000000">100.00</text>
</g>
<!-- 42&#45;&gt;3 -->
<g id="edge11" class="edge">
<title>42&#45;&gt;3</title>
<path fill="none" stroke="#000000" d="M315,-177.2006C315,-165.0949 315,-149.0076 315,-135.2674"/>
<polygon fill="#000000" stroke="#000000" points="318.5001,-134.872 315,-124.872 311.5001,-134.8721 318.5001,-134.872"/>
<text text-anchor="middle" x="334.25" y="-147" font-family="Times,serif" font-size="14.00" fill="#000000">201.00</text>
</g>
</g>
</svg>
