<svg width="600px" height="730px"
 viewBox="0.00 0.00 328.00 399.20" xmlns="http://www.w3.org/2000/svg" xmlns:xlink="http://www.w3.org/1999/xlink">
<g id="graph0" class="graph" transform="scale(1.0 1.0) rotate(0) translate(4 395.2)">
<title>%0</title>
<polygon fill="#ffffff" stroke="transparent" points="-4,4 -4,-395.2 324,-395.2 324,4 -4,4"/>
<!-- 0 -->
<g id="node1" class="node">
<title>0</title>
<ellipse fill="none" stroke="#ff0000" cx="243" cy="-18" rx="27" ry="18"/>
<text text-anchor="middle" x="243" y="-13.8" font-family="Times,serif" font-size="14.00" fill="#000000">0</text>
</g>
<!-- 1 -->
<g id="node2" class="node">
<title>1</title>
<ellipse fill="none" stroke="#ff0000" cx="27" cy="-106.8" rx="27" ry="18"/>
<text text-anchor="middle" x="27" y="-102.6" font-family="Times,serif" font-size="14.00" fill="#000000">1</text>
</g>
<!-- 2 -->
<g id="node3" class="node">
<title>2</title>
<ellipse fill="none" stroke="#ff0000" cx="221" cy="-373.2" rx="27" ry="18"/>
<text text-anchor="middle" x="221" y="-369" font-family="Times,serif" font-size="14.00" fill="#000000">2</text>
</g>
<!-- 6 -->
<g id="node4" class="node">
<title>6</title>
<ellipse fill="none" stroke="#000000" cx="221" cy="-284.4" rx="27" ry="18"/>
<text text-anchor="middle" x="221" y="-280.2" font-family="Times,serif" font-size="14.00" fill="#000000">6</text>
</g>
<!-- 2&#45;&gt;6 -->
<g id="edge1" class="edge">
<title>2&#45;&gt;6</title>
<path fill="none" stroke="#000000" d="M221,-354.8006C221,-342.6949 221,-326.6076 221,-312.8674"/>
<polygon fill="#000000" stroke="#000000" points="224.5001,-312.472 221,-302.472 217.5001,-312.4721 224.5001,-312.472"/>
<text text-anchor="middle" x="240.25" y="-324.6" font-family="Times,serif" font-size="14.00" fill="#000000">205.00</text>
</g>
<!-- 12 -->
<g id="node5" class="node">
<title>12</title>
<ellipse fill="none" stroke="#000000" cx="132" cy="-195.6" rx="27" ry="18"/>
<text text-anchor="middle" x="132" y="-191.4" font-family="Times,serif" font-size="14.00" fill="#000000">12</text>
</g>
<!-- 6&#45;&gt;12 -->
<g id="edge2" class="edge">
<title>6&#45;&gt;12</title>
<path fill="none" stroke="#000000" d="M203.5414,-270.5839C195.6581,-264.1026 186.3695,-256.1194 178.5,-248.4 169.3278,-239.4027 159.8425,-228.885 151.85,-219.6153"/>
<polygon fill="#000000" stroke="#000000" points="154.4001,-217.2113 145.2559,-211.8601 149.0672,-221.7457 154.4001,-217.2113"/>
<text text-anchor="middle" x="198.25" y="-235.8" font-family="Times,serif" font-size="14.00" fill="#000000">106.00</text>
</g>
<!-- 14 -->
<g id="node8" class="node">
<title>14</title>
<ellipse fill="none" stroke="#000000" cx="221" cy="-195.6" rx="27" ry="18"/>
<text text-anchor="middle" x="221" y="-191.4" font-family="Times,serif" font-size="14.00" fill="#000000">14</text>
</g>
<!-- 6&#45;&gt;14 -->
<g id="edge3" class="edge">
<title>6&#45;&gt;14</title>
<path fill="none" stroke="#000000" d="M221,-266.0006C221,-253.8949 221,-237.8076 221,-224.0674"/>
<polygon fill="#000000" stroke="#000000" points="224.5001,-223.672 221,-213.672 217.5001,-223.6721 224.5001,-223.672"/>
<text text-anchor="middle" x="236.75" y="-235.8" font-family="Times,serif" font-size="14.00" fill="#000000">96.00</text>
</g>
<!-- 4 -->
<g id="node10" class="node">
<title>4</title>
<ellipse fill="none" stroke="#ff0000" cx="293" cy="-195.6" rx="27" ry="18"/>
<text text-anchor="middle" x="293" y="-191.4" font-family="Times,serif" font-size="14.00" fill="#000000">4</text>
</g>
<!-- 6&#45;&gt;4 -->
<g id="edge4" class="edge">
<title>6&#45;&gt;4</title>
<path fill="none" stroke="#000000" d="M236.5503,-269.4882C242.8312,-263.1936 249.9982,-255.6531 256,-248.4 263.1716,-239.7332 270.4148,-229.7337 276.568,-220.7837"/>
<polygon fill="#000000" stroke="#000000" points="279.62,-222.5181 282.3149,-212.2717 273.8185,-218.6012 279.62,-222.5181"/>
<text text-anchor="middle" x="287.25" y="-235.8" font-family="Times,serif" font-size="14.00" fill="#000000">193.00</text>
</g>
<!-- 12&#45;&gt;1 -->
<g id="edge6" class="edge">
<title>12&#45;&gt;1</title>
<path fill="none" stroke="#000000" d="M108.3768,-186.5795C94.3026,-180.4229 76.6742,-171.2696 63.5,-159.6 54.9028,-151.9847 47.312,-141.9433 41.3108,-132.6637"/>
<polygon fill="#000000" stroke="#000000" points="44.2737,-130.8 36.063,-124.1041 38.3059,-134.4588 44.2737,-130.8"/>
<text text-anchor="middle" x="83.25" y="-147" font-family="Times,serif" font-size="14.00" fill="#000000">191.00</text>
</g>
<!-- 5 -->
<g id="node6" class="node">
<title>5</title>
<ellipse fill="none" stroke="#ff0000" cx="99" cy="-106.8" rx="27" ry="18"/>
<text text-anchor="middle" x="99" y="-102.6" font-family="Times,serif" font-size="14.00" fill="#000000">5</text>
</g>
<!-- 12&#45;&gt;5 -->
<g id="edge5" class="edge">
<title>12&#45;&gt;5</title>
<path fill="none" stroke="#000000" d="M120.5367,-178.9696C116.8878,-173.0653 113.1224,-166.2347 110.5,-159.6 107.3963,-151.7477 105.0535,-142.8907 103.3203,-134.7059"/>
<polygon fill="#000000" stroke="#000000" points="106.7476,-133.9934 101.4394,-124.8242 99.871,-135.3023 106.7476,-133.9934"/>
<text text-anchor="middle" x="130.25" y="-147" font-family="Times,serif" font-size="14.00" fill="#000000">198.00</text>
</g>
<!-- 3 -->
<g id="node7" class="node">
<title>3</title>
<ellipse fill="none" stroke="#ff0000" cx="171" cy="-106.8" rx="27" ry="18"/>
<text text-anchor="middle" x="171" y="-102.6" font-family="Times,serif" font-size="14.00" fill="#000000">3</text>
</g>
<!-- 12&#45;&gt;3 -->
<g id="edge7" class="edge">
<title>12&#45;&gt;3</title>
<path fill="none" stroke="#000000" d="M140.2915,-178.4619C143.1148,-172.5169 146.2505,-165.7904 149,-159.6 152.7085,-151.2504 156.5929,-142.083 160.0477,-133.7638"/>
<polygon fill="#000000" stroke="#000000" points="163.2963,-135.0667 163.8698,-124.4874 156.8241,-132.4 163.2963,-135.0667"/>
<text text-anchor="middle" x="175.25" y="-147" font-family="Times,serif" font-size="14.00" fill="#000000">189.00</text>
</g>
<!-- 72 -->
<g id="node9" class="node">
<title>72</title>
<ellipse fill="none" stroke="#000000" cx="243" cy="-106.8" rx="27" ry="18"/>
<text text-anchor="middle" x="243" y="-102.6" font-family="Times,serif" font-size="14.00" fill="#000000">72</text>
</g>
<!-- 14&#45;&gt;72 -->
<g id="edge8" class="edge">
<title>14&#45;&gt;72</title>
<path fill="none" stroke="#000000" d="M225.452,-177.63C228.4936,-165.353 232.5854,-148.8372 236.0526,-134.8421"/>
<polygon fill="#000000" stroke="#000000" points="239.547,-135.2915 238.5546,-124.7433 232.7525,-133.6081 239.547,-135.2915"/>
<text text-anchor="middle" x="249.75" y="-147" font-family="Times,serif" font-size="14.00" fill="#000000">93.00</text>
</g>
<!-- 72&#45;&gt;0 -->
<g id="edge9" class="edge">
<title>72&#45;&gt;0</title>
<path fill="none" stroke="#000000" d="M243,-88.4006C243,-76.2949 243,-60.2076 243,-46.4674"/>
<polygon fill="#000000" stroke="#000000" points="246.5001,-46.072 243,-36.072 239.5001,-46.0721 246.5001,-46.072"/>
<text text-anchor="middle" x="262.25" y="-58.2" font-family="Times,serif" font-size="14.00" fill="#000000">200.00</text>
</g>
</g>
</svg>
