<svg width="600px" height="641px"
 viewBox="0.00 0.00 289.50 310.40" xmlns="http://www.w3.org/2000/svg" xmlns:xlink="http://www.w3.org/1999/xlink">
<g id="graph0" class="graph" transform="scale(1.0 1.0) rotate(0) translate(4 306.4)">
<title>%0</title>
<polygon fill="#ffffff" stroke="transparent" points="-4,4 -4,-306.4 285.5,-306.4 285.5,4 -4,4"/>
<!-- 32 -->
<g id="node1" class="node">
<title>32</title>
<ellipse fill="none" stroke="#000000" cx="102" cy="-284.4" rx="27" ry="18"/>
<text text-anchor="middle" x="102" y="-280.2" font-family="Times,serif" font-size="14.00" fill="#000000">32</text>
</g>
<!-- 2 -->
<g id="node2" class="node">
<title>2</title>
<ellipse fill="none" stroke="#ff0000" cx="71" cy="-195.6" rx="27" ry="18"/>
<text text-anchor="middle" x="71" y="-191.4" font-family="Times,serif" font-size="14.00" fill="#000000">2</text>
</g>
<!-- 32&#45;&gt;2 -->
<g id="edge1" class="edge">
<title>32&#45;&gt;2</title>
<path fill="none" stroke="#000000" d="M88.7616,-268.47C84.4844,-262.5163 80.1634,-255.4754 77.5,-248.4 74.6042,-240.7071 72.9362,-231.9815 71.9924,-223.871"/>
<polygon fill="#000000" stroke="#000000" points="75.4624,-223.3689 71.1264,-213.702 68.4876,-223.963 75.4624,-223.3689"/>
<text text-anchor="middle" x="97.25" y="-235.8" font-family="Times,serif" font-size="14.00" fill="#000000">195.00</text>
</g>
<!-- 38 -->
<g id="node3" class="node">
<title>38</title>
<ellipse fill="none" stroke="#000000" cx="143" cy="-195.6" rx="27" ry="18"/>
<text text-anchor="middle" x="143" y="-191.4" font-family="Times,serif" font-size="14.00" fill="#000000">38</text>
</g>
<!-- 32&#45;&gt;38 -->
<g id="edge2" class="edge">
<title>32&#45;&gt;38</title>
<path fill="none" stroke="#000000" d="M110.1003,-266.856C115.9783,-254.125 124.0351,-236.6753 130.7043,-222.2306"/>
<polygon fill="#000000" stroke="#000000" points="134.0418,-223.3516 135.0561,-212.8054 127.6865,-220.4172 134.0418,-223.3516"/>
<text text-anchor="middle" x="142.75" y="-235.8" font-family="Times,serif" font-size="14.00" fill="#000000">92.00</text>
</g>
<!-- 10 -->
<g id="node4" class="node">
<title>10</title>
<ellipse fill="none" stroke="#000000" cx="27" cy="-106.8" rx="27" ry="18"/>
<text text-anchor="middle" x="27" y="-102.6" font-family="Times,serif" font-size="14.00" fill="#000000">10</text>
</g>
<!-- 38&#45;&gt;10 -->
<g id="edge3" class="edge">
<title>38&#45;&gt;10</title>
<path fill="none" stroke="#000000" d="M121.2732,-184.5684C105.2595,-176.2687 85.0115,-165.371 77.5,-159.6 66.4985,-151.1476 55.6794,-140.2797 46.8952,-130.6031"/>
<polygon fill="#000000" stroke="#000000" points="49.278,-128.0138 40.0356,-122.8342 44.0307,-132.647 49.278,-128.0138"/>
<text text-anchor="middle" x="93.75" y="-147" font-family="Times,serif" font-size="14.00" fill="#000000">96.00</text>
</g>
<!-- 63 -->
<g id="node6" class="node">
<title>63</title>
<ellipse fill="none" stroke="#000000" cx="99" cy="-106.8" rx="27" ry="18"/>
<text text-anchor="middle" x="99" y="-102.6" font-family="Times,serif" font-size="14.00" fill="#000000">63</text>
</g>
<!-- 38&#45;&gt;63 -->
<g id="edge4" class="edge">
<title>38&#45;&gt;63</title>
<path fill="none" stroke="#000000" d="M131.2538,-179.1847C127.2406,-173.1853 122.909,-166.2397 119.5,-159.6 115.4129,-151.6396 111.6411,-142.6668 108.4769,-134.4073"/>
<polygon fill="#000000" stroke="#000000" points="111.6796,-132.9757 104.9383,-124.8022 105.1111,-135.3956 111.6796,-132.9757"/>
<text text-anchor="middle" x="135.75" y="-147" font-family="Times,serif" font-size="14.00" fill="#000000">94.00</text>
</g>
<!-- 1 -->
<g id="node9" class="node">
<title>1</title>
<ellipse fill="none" stroke="#ff0000" cx="171" cy="-106.8" rx="27" ry="18"/>
<text text-anchor="middle" x="171" y="-102.6" font-family="Times,serif" font-size="14.00" fill="#000000">1</text>
</g>
<!-- 38&#45;&gt;1 -->
<g id="edge5" class="edge">
<title>38&#45;&gt;1</title>
<path fill="none" stroke="#000000" d="M148.6662,-177.63C152.601,-165.1511 157.9167,-148.2928 162.375,-134.1536"/>
<polygon fill="#000000" stroke="#000000" points="165.7685,-135.0299 165.4378,-124.4402 159.0925,-132.9248 165.7685,-135.0299"/>
<text text-anchor="middle" x="179.25" y="-147" font-family="Times,serif" font-size="14.00" fill="#000000">195.00</text>
</g>
<!-- 9 -->
<g id="node10" class="node">
<title>9</title>
<ellipse fill="none" stroke="#000000" cx="243" cy="-106.8" rx="27" ry="18"/>
<text text-anchor="middle" x="243" y="-102.6" font-family="Times,serif" font-size="14.00" fill="#000000">9</text>
</g>
<!-- 38&#45;&gt;9 -->
<g id="edge6" class="edge">
<title>38&#45;&gt;9</title>
<path fill="none" stroke="#000000" d="M164.7504,-184.8179C176.4862,-178.4108 190.8151,-169.5935 202,-159.6 211.0115,-151.5484 219.4753,-141.3115 226.346,-131.9991"/>
<polygon fill="#000000" stroke="#000000" points="229.2362,-133.9743 232.178,-123.796 223.531,-129.9182 229.2362,-133.9743"/>
<text text-anchor="middle" x="233.75" y="-147" font-family="Times,serif" font-size="14.00" fill="#000000">92.00</text>
</g>
<!-- 3 -->
<g id="node5" class="node">
<title>3</title>
<ellipse fill="none" stroke="#ff0000" cx="27" cy="-18" rx="27" ry="18"/>
<text text-anchor="middle" x="27" y="-13.8" font-family="Times,serif" font-size="14.00" fill="#000000">3</text>
</g>
<!-- 10&#45;&gt;3 -->
<g id="edge7" class="edge">
<title>10&#45;&gt;3</title>
<path fill="none" stroke="#000000" d="M27,-88.4006C27,-76.2949 27,-60.2076 27,-46.4674"/>
<polygon fill="#000000" stroke="#000000" points="30.5001,-46.072 27,-36.072 23.5001,-46.0721 30.5001,-46.072"/>
<text text-anchor="middle" x="46.25" y="-58.2" font-family="Times,serif" font-size="14.00" fill="#000000">195.00</text>
</g>
<!-- 4 -->
<g id="node7" class="node">
<title>4</title>
<ellipse fill="none" stroke="#ff0000" cx="99" cy="-18" rx="27" ry="18"/>
<text text-anchor="middle" x="99" y="-13.8" font-family="Times,serif" font-size="14.00" fill="#000000">4</text>
</g>
<!-- 63&#45;&gt;4 -->
<g id="edge8" class="edge">
<title>63&#45;&gt;4</title>
<path fill="none" stroke="#000000" d="M99,-88.4006C99,-76.2949 99,-60.2076 99,-46.4674"/>
<polygon fill="#000000" stroke="#000000" points="102.5001,-46.072 99,-36.072 95.5001,-46.0721 102.5001,-46.072"/>
<text text-anchor="middle" x="118.25" y="-58.2" font-family="Times,serif" font-size="14.00" fill="#000000">191.00</text>
</g>
<!-- 0 -->
<g id="node8" class="node">
<title>0</title>
<ellipse fill="none" stroke="#ff0000" cx="171" cy="-18" rx="27" ry="18"/>
<text text-anchor="middle" x="171" y="-13.8" font-family="Times,serif" font-size="14.00" fill="#000000">0</text>
</g>
<!-- 63&#45;&gt;0 -->
<g id="edge9" class="edge">
<title>63&#45;&gt;0</title>
<path fill="none" stroke="#000000" d="M117.4225,-93.3206C125.2637,-87.0276 134.158,-79.0995 141,-70.8 147.501,-62.9141 153.3802,-53.4296 158.1763,-44.688"/>
<polygon fill="#000000" stroke="#000000" points="161.3945,-46.0871 162.9337,-35.6047 155.1935,-42.8393 161.3945,-46.0871"/>
<text text-anchor="middle" x="172.25" y="-58.2" font-family="Times,serif" font-size="14.00" fill="#000000">189.00</text>
</g>
<!-- 5 -->
<g id="node11" class="node">
<title>5</title>
<ellipse fill="none" stroke="#ff0000" cx="243" cy="-18" rx="27" ry="18"/>
<text text-anchor="middle" x="243" y="-13.8" font-family="Times,serif" font-size="14.00" fill="#000000">5</text>
</g>
<!-- 9&#45;&gt;5 -->
<g id="edge10" class="edge">
<title>9&#45;&gt;5</title>
<path fill="none" stroke="#000000" d="M243,-88.4006C243,-76.2949 243,-60.2076 243,-46.4674"/>
<polygon fill="#000000" stroke="#000000" points="246.5001,-46.072 243,-36.072 239.5001,-46.0721 246.5001,-46.072"/>
<text text-anchor="middle" x="262.25" y="-58.2" font-family="Times,serif" font-size="14.00" fill="#000000">196.00</text>
</g>
</g>
</svg>
