<svg width="600px" height="1053px"
 viewBox="0.00 0.00 278.00 488.00" xmlns="http://www.w3.org/2000/svg" xmlns:xlink="http://www.w3.org/1999/xlink">
<g id="graph0" class="graph" transform="scale(1.0 1.0) rotate(0) translate(4 484)">
<title>%0</title>
<polygon fill="#ffffff" stroke="transparent" points="-4,4 -4,-484 274,-484 274,4 -4,4"/>
<!-- 0 -->
<g id="node1" class="node">
<title>0</title>
<ellipse fill="none" stroke="#ff0000" cx="99" cy="-106.8" rx="27" ry="18"/>
<text text-anchor="middle" x="99" y="-102.6" font-family="Times,serif" font-size="14.00" fill="#000000">0</text>
</g>
<!-- 3 -->
<g id="node2" class="node">
<title>3</title>
<ellipse fill="none" stroke="#ff0000" cx="99" cy="-18" rx="27" ry="18"/>
<text text-anchor="middle" x="99" y="-13.8" font-family="Times,serif" font-size="14.00" fill="#000000">3</text>
</g>
<!-- 0&#45;&gt;3 -->
<g id="edge1" class="edge">
<title>0&#45;&gt;3</title>
<path fill="none" stroke="#000000" d="M99,-88.4006C99,-76.2949 99,-60.2076 99,-46.4674"/>
<polygon fill="#000000" stroke="#000000" points="102.5001,-46.072 99,-36.072 95.5001,-46.0721 102.5001,-46.072"/>
<text text-anchor="middle" x="118.25" y="-58.2" font-family="Times,serif" font-size="14.00" fill="#000000">294.00</text>
</g>
<!-- 1 -->
<g id="node3" class="node">
<title>1</title>
<ellipse fill="none" stroke="#ff0000" cx="27" cy="-195.6" rx="27" ry="18"/>
<text text-anchor="middle" x="27" y="-191.4" font-family="Times,serif" font-size="14.00" fill="#000000">1</text>
</g>
<!-- 2 -->
<g id="node4" class="node">
<title>2</title>
<ellipse fill="none" stroke="#ff0000" cx="27" cy="-284.4" rx="27" ry="18"/>
<text text-anchor="middle" x="27" y="-280.2" font-family="Times,serif" font-size="14.00" fill="#000000">2</text>
</g>
<!-- 34 -->
<g id="node5" class="node">
<title>34</title>
<ellipse fill="none" stroke="#000000" cx="99" cy="-284.4" rx="27" ry="18"/>
<text text-anchor="middle" x="99" y="-280.2" font-family="Times,serif" font-size="14.00" fill="#000000">34</text>
</g>
<!-- 34&#45;&gt;1 -->
<g id="edge2" class="edge">
<title>34&#45;&gt;1</title>
<path fill="none" stroke="#000000" d="M80.3202,-270.9792C72.3786,-264.697 63.3834,-256.7612 56.5,-248.4 50.0306,-240.5416 44.2307,-231.0638 39.521,-222.3199"/>
<polygon fill="#000000" stroke="#000000" points="42.537,-220.5309 34.8582,-213.2311 36.3088,-223.7262 42.537,-220.5309"/>
<text text-anchor="middle" x="76.25" y="-235.8" font-family="Times,serif" font-size="14.00" fill="#000000">193.00</text>
</g>
<!-- 40 -->
<g id="node6" class="node">
<title>40</title>
<ellipse fill="none" stroke="#000000" cx="99" cy="-195.6" rx="27" ry="18"/>
<text text-anchor="middle" x="99" y="-191.4" font-family="Times,serif" font-size="14.00" fill="#000000">40</text>
</g>
<!-- 34&#45;&gt;40 -->
<g id="edge3" class="edge">
<title>34&#45;&gt;40</title>
<path fill="none" stroke="#000000" d="M99,-266.0006C99,-253.8949 99,-237.8076 99,-224.0674"/>
<polygon fill="#000000" stroke="#000000" points="102.5001,-223.672 99,-213.672 95.5001,-223.6721 102.5001,-223.672"/>
<text text-anchor="middle" x="114.75" y="-235.8" font-family="Times,serif" font-size="14.00" fill="#000000">99.00</text>
</g>
<!-- 40&#45;&gt;0 -->
<g id="edge4" class="edge">
<title>40&#45;&gt;0</title>
<path fill="none" stroke="#000000" d="M99,-177.2006C99,-165.0949 99,-149.0076 99,-135.2674"/>
<polygon fill="#000000" stroke="#000000" points="102.5001,-134.872 99,-124.872 95.5001,-134.8721 102.5001,-134.872"/>
<text text-anchor="middle" x="118.25" y="-147" font-family="Times,serif" font-size="14.00" fill="#000000">194.00</text>
</g>
<!-- 4 -->
<g id="node7" class="node">
<title>4</title>
<ellipse fill="none" stroke="#ff0000" cx="135" cy="-462" rx="27" ry="18"/>
<text text-anchor="middle" x="135" y="-457.8" font-family="Times,serif" font-size="14.00" fill="#000000">4</text>
</g>
<!-- 69 -->
<g id="node8" class="node">
<title>69</title>
<ellipse fill="none" stroke="#000000" cx="135" cy="-373.2" rx="27" ry="18"/>
<text text-anchor="middle" x="135" y="-369" font-family="Times,serif" font-size="14.00" fill="#000000">69</text>
</g>
<!-- 4&#45;&gt;69 -->
<g id="edge5" class="edge">
<title>4&#45;&gt;69</title>
<path fill="none" stroke="#000000" d="M135,-443.6006C135,-431.4949 135,-415.4076 135,-401.6674"/>
<polygon fill="#000000" stroke="#000000" points="138.5001,-401.272 135,-391.272 131.5001,-401.2721 138.5001,-401.272"/>
<text text-anchor="middle" x="154.25" y="-413.4" font-family="Times,serif" font-size="14.00" fill="#000000">210.00</text>
</g>
<!-- 69&#45;&gt;2 -->
<g id="edge7" class="edge">
<title>69&#45;&gt;2</title>
<path fill="none" stroke="#000000" d="M111.5314,-364.0016C97.5136,-357.7801 79.8903,-348.621 66.5,-337.2 57.2973,-329.3508 48.9626,-318.9868 42.3469,-309.5208"/>
<polygon fill="#000000" stroke="#000000" points="45.2414,-307.5528 36.7789,-301.178 39.4189,-311.4386 45.2414,-307.5528"/>
<text text-anchor="middle" x="86.25" y="-324.6" font-family="Times,serif" font-size="14.00" fill="#000000">192.00</text>
</g>
<!-- 69&#45;&gt;34 -->
<g id="edge8" class="edge">
<title>69&#45;&gt;34</title>
<path fill="none" stroke="#000000" d="M124.3609,-356.4016C120.9051,-350.4839 117.2551,-343.6877 114.5,-337.2 111.1391,-329.2859 108.2256,-320.4106 105.8603,-312.228"/>
<polygon fill="#000000" stroke="#000000" points="109.1759,-311.083 103.165,-302.3583 102.4232,-312.9272 109.1759,-311.083"/>
<text text-anchor="middle" x="130.75" y="-324.6" font-family="Times,serif" font-size="14.00" fill="#000000">90.00</text>
</g>
<!-- 61 -->
<g id="node9" class="node">
<title>61</title>
<ellipse fill="none" stroke="#000000" cx="171" cy="-284.4" rx="27" ry="18"/>
<text text-anchor="middle" x="171" y="-280.2" font-family="Times,serif" font-size="14.00" fill="#000000">61</text>
</g>
<!-- 69&#45;&gt;61 -->
<g id="edge6" class="edge">
<title>69&#45;&gt;61</title>
<path fill="none" stroke="#000000" d="M142.1124,-355.656C147.2404,-343.0071 154.2567,-325.7002 160.0903,-311.3105"/>
<polygon fill="#000000" stroke="#000000" points="163.3888,-312.49 163.9023,-301.9076 156.9016,-309.86 163.3888,-312.49"/>
<text text-anchor="middle" x="172.75" y="-324.6" font-family="Times,serif" font-size="14.00" fill="#000000">98.00</text>
</g>
<!-- 37 -->
<g id="node12" class="node">
<title>37</title>
<ellipse fill="none" stroke="#000000" cx="243" cy="-284.4" rx="27" ry="18"/>
<text text-anchor="middle" x="243" y="-280.2" font-family="Times,serif" font-size="14.00" fill="#000000">37</text>
</g>
<!-- 69&#45;&gt;37 -->
<g id="edge9" class="edge">
<title>69&#45;&gt;37</title>
<path fill="none" stroke="#000000" d="M155.8565,-361.6626C167.0174,-355.0925 180.7425,-346.36 192,-337.2 202.9204,-328.3143 213.9127,-317.2655 222.8814,-307.575"/>
<polygon fill="#000000" stroke="#000000" points="225.478,-309.9219 229.6003,-300.1619 220.2913,-305.221 225.478,-309.9219"/>
<text text-anchor="middle" x="229.25" y="-324.6" font-family="Times,serif" font-size="14.00" fill="#000000">103.00</text>
</g>
<!-- 28 -->
<g id="node10" class="node">
<title>28</title>
<ellipse fill="none" stroke="#000000" cx="171" cy="-195.6" rx="27" ry="18"/>
<text text-anchor="middle" x="171" y="-191.4" font-family="Times,serif" font-size="14.00" fill="#000000">28</text>
</g>
<!-- 61&#45;&gt;28 -->
<g id="edge10" class="edge">
<title>61&#45;&gt;28</title>
<path fill="none" stroke="#000000" d="M171,-266.0006C171,-253.8949 171,-237.8076 171,-224.0674"/>
<polygon fill="#000000" stroke="#000000" points="174.5001,-223.672 171,-213.672 167.5001,-223.6721 174.5001,-223.672"/>
<text text-anchor="middle" x="186.75" y="-235.8" font-family="Times,serif" font-size="14.00" fill="#000000">96.00</text>
</g>
<!-- 5 -->
<g id="node11" class="node">
<title>5</title>
<ellipse fill="none" stroke="#ff0000" cx="171" cy="-106.8" rx="27" ry="18"/>
<text text-anchor="middle" x="171" y="-102.6" font-family="Times,serif" font-size="14.00" fill="#000000">5</text>
</g>
<!-- 28&#45;&gt;5 -->
<g id="edge11" class="edge">
<title>28&#45;&gt;5</title>
<path fill="none" stroke="#000000" d="M171,-177.2006C171,-165.0949 171,-149.0076 171,-135.2674"/>
<polygon fill="#000000" stroke="#000000" points="174.5001,-134.872 171,-124.872 167.5001,-134.8721 174.5001,-134.872"/>
<text text-anchor="middle" x="190.25" y="-147" font-family="Times,serif" font-size="14.00" fill="#000000">190.00</text>
</g>
</g>
</svg>
