<svg width="600px" height="787px"
 viewBox="0.00 0.00 440.00 576.80" xmlns="http://www.w3.org/2000/svg" xmlns:xlink="http://www.w3.org/1999/xlink">
<g id="graph0" class="graph" transform="scale(1.0 1.0) rotate(0) translate(4 572.8)">
<title>%0</title>
<polygon fill="#ffffff" stroke="transparent" points="-4,4 -4,-572.8 436,-572.8 436,4 -4,4"/>
<!-- 0 -->
<g id="node1" class="node">
<title>0</title>
<ellipse fill="none" stroke="#ff0000" cx="333" cy="-18" rx="27" ry="18"/>
<text text-anchor="middle" x="333" y="-13.8" font-family="Times,serif" font-size="14.00" fill="#000000">0</text>
</g>
<!-- 1 -->
<g id="node2" class="node">
<title>1</title>
<ellipse fill="none" stroke="#ff0000" cx="225" cy="-106.8" rx="27" ry="18"/>
<text text-anchor="middle" x="225" y="-102.6" font-family="Times,serif" font-size="14.00" fill="#000000">1</text>
</g>
<!-- 2 -->
<g id="node3" class="node">
<title>2</title>
<ellipse fill="none" stroke="#ff0000" cx="153" cy="-284.4" rx="27" ry="18"/>
<text text-anchor="middle" x="153" y="-280.2" font-family="Times,serif" font-size="14.00" fill="#000000">2</text>
</g>
<!-- 3 -->
<g id="node4" class="node">
<title>3</title>
<ellipse fill="none" stroke="#ff0000" cx="297" cy="-106.8" rx="27" ry="18"/>
<text text-anchor="middle" x="297" y="-102.6" font-family="Times,serif" font-size="14.00" fill="#000000">3</text>
</g>
<!-- 4 -->
<g id="node5" class="node">
<title>4</title>
<ellipse fill="none" stroke="#ff0000" cx="99" cy="-550.8" rx="27" ry="18"/>
<text text-anchor="middle" x="99" y="-546.6" font-family="Times,serif" font-size="14.00" fill="#000000">4</text>
</g>
<!-- 36 -->
<g id="node6" class="node">
<title>36</title>
<ellipse fill="none" stroke="#000000" cx="99" cy="-462" rx="27" ry="18"/>
<text text-anchor="middle" x="99" y="-457.8" font-family="Times,serif" font-size="14.00" fill="#000000">36</text>
</g>
<!-- 4&#45;&gt;36 -->
<g id="edge1" class="edge">
<title>4&#45;&gt;36</title>
<path fill="none" stroke="#000000" d="M99,-532.4006C99,-520.2949 99,-504.2076 99,-490.4674"/>
<polygon fill="#000000" stroke="#000000" points="102.5001,-490.072 99,-480.072 95.5001,-490.0721 102.5001,-490.072"/>
<text text-anchor="middle" x="109.5" y="-502.2" font-family="Times,serif" font-size="14.00" fill="#000000">196</text>
</g>
<!-- 7 -->
<g id="node7" class="node">
<title>7</title>
<ellipse fill="none" stroke="#ff0000" cx="27" cy="-373.2" rx="27" ry="18"/>
<text text-anchor="middle" x="27" y="-369" font-family="Times,serif" font-size="14.00" fill="#000000">7</text>
</g>
<!-- 36&#45;&gt;7 -->
<g id="edge2" class="edge">
<title>36&#45;&gt;7</title>
<path fill="none" stroke="#000000" d="M86.1278,-446.1243C75.1384,-432.5707 59.1627,-412.8674 46.587,-397.3573"/>
<polygon fill="#000000" stroke="#000000" points="49.0202,-394.8009 40.0035,-389.2376 43.5829,-399.2095 49.0202,-394.8009"/>
<text text-anchor="middle" x="80.5" y="-413.4" font-family="Times,serif" font-size="14.00" fill="#000000">192</text>
</g>
<!-- 19 -->
<g id="node8" class="node">
<title>19</title>
<ellipse fill="none" stroke="#000000" cx="99" cy="-373.2" rx="27" ry="18"/>
<text text-anchor="middle" x="99" y="-369" font-family="Times,serif" font-size="14.00" fill="#000000">19</text>
</g>
<!-- 36&#45;&gt;19 -->
<g id="edge3" class="edge">
<title>36&#45;&gt;19</title>
<path fill="none" stroke="#000000" d="M99,-443.6006C99,-431.4949 99,-415.4076 99,-401.6674"/>
<polygon fill="#000000" stroke="#000000" points="102.5001,-401.272 99,-391.272 95.5001,-401.2721 102.5001,-401.272"/>
<text text-anchor="middle" x="106" y="-413.4" font-family="Times,serif" font-size="14.00" fill="#000000">88</text>
</g>
<!-- 59 -->
<g id="node10" class="node">
<title>59</title>
<ellipse fill="none" stroke="#000000" cx="207" cy="-373.2" rx="27" ry="18"/>
<text text-anchor="middle" x="207" y="-369" font-family="Times,serif" font-size="14.00" fill="#000000">59</text>
</g>
<!-- 36&#45;&gt;59 -->
<g id="edge4" class="edge">
<title>36&#45;&gt;59</title>
<path fill="none" stroke="#000000" d="M116.3521,-447.7327C134.0655,-433.1683 161.7404,-410.4135 181.8539,-393.8757"/>
<polygon fill="#000000" stroke="#000000" points="184.1896,-396.4864 189.691,-387.4318 179.7438,-391.0794 184.1896,-396.4864"/>
<text text-anchor="middle" x="172.5" y="-413.4" font-family="Times,serif" font-size="14.00" fill="#000000">104</text>
</g>
<!-- 43 -->
<g id="node9" class="node">
<title>43</title>
<ellipse fill="none" stroke="#000000" cx="81" cy="-284.4" rx="27" ry="18"/>
<text text-anchor="middle" x="81" y="-280.2" font-family="Times,serif" font-size="14.00" fill="#000000">43</text>
</g>
<!-- 19&#45;&gt;43 -->
<g id="edge5" class="edge">
<title>19&#45;&gt;43</title>
<path fill="none" stroke="#000000" d="M95.3574,-355.23C92.8689,-342.953 89.5211,-326.4372 86.6842,-312.4421"/>
<polygon fill="#000000" stroke="#000000" points="90.0541,-311.4486 84.6372,-302.3433 83.1936,-312.8393 90.0541,-311.4486"/>
<text text-anchor="middle" x="99" y="-324.6" font-family="Times,serif" font-size="14.00" fill="#000000">98</text>
</g>
<!-- 59&#45;&gt;2 -->
<g id="edge8" class="edge">
<title>59&#45;&gt;2</title>
<path fill="none" stroke="#000000" d="M196.843,-356.4974C188.8986,-343.4333 177.715,-325.0425 168.6316,-310.1053"/>
<polygon fill="#000000" stroke="#000000" points="171.4814,-308.0553 163.295,-301.3296 165.5004,-311.6924 171.4814,-308.0553"/>
<text text-anchor="middle" x="194.5" y="-324.6" font-family="Times,serif" font-size="14.00" fill="#000000">193</text>
</g>
<!-- 6 -->
<g id="node11" class="node">
<title>6</title>
<ellipse fill="none" stroke="#ff0000" cx="225" cy="-284.4" rx="27" ry="18"/>
<text text-anchor="middle" x="225" y="-280.2" font-family="Times,serif" font-size="14.00" fill="#000000">6</text>
</g>
<!-- 59&#45;&gt;6 -->
<g id="edge6" class="edge">
<title>59&#45;&gt;6</title>
<path fill="none" stroke="#000000" d="M210.6426,-355.23C213.1311,-342.953 216.4789,-326.4372 219.3158,-312.4421"/>
<polygon fill="#000000" stroke="#000000" points="222.8064,-312.8393 221.3628,-302.3433 215.9459,-311.4486 222.8064,-312.8393"/>
<text text-anchor="middle" x="227.5" y="-324.6" font-family="Times,serif" font-size="14.00" fill="#000000">195</text>
</g>
<!-- 13 -->
<g id="node12" class="node">
<title>13</title>
<ellipse fill="none" stroke="#000000" cx="297" cy="-284.4" rx="27" ry="18"/>
<text text-anchor="middle" x="297" y="-280.2" font-family="Times,serif" font-size="14.00" fill="#000000">13</text>
</g>
<!-- 59&#45;&gt;13 -->
<g id="edge7" class="edge">
<title>59&#45;&gt;13</title>
<path fill="none" stroke="#000000" d="M222.2673,-358.1363C236.4898,-344.1034 257.8847,-322.9938 274.143,-306.9522"/>
<polygon fill="#000000" stroke="#000000" points="276.9977,-309.0525 281.6578,-299.5376 272.0812,-304.0696 276.9977,-309.0525"/>
<text text-anchor="middle" x="267" y="-324.6" font-family="Times,serif" font-size="14.00" fill="#000000">85</text>
</g>
<!-- 71 -->
<g id="node13" class="node">
<title>71</title>
<ellipse fill="none" stroke="#000000" cx="297" cy="-195.6" rx="27" ry="18"/>
<text text-anchor="middle" x="297" y="-191.4" font-family="Times,serif" font-size="14.00" fill="#000000">71</text>
</g>
<!-- 13&#45;&gt;71 -->
<g id="edge9" class="edge">
<title>13&#45;&gt;71</title>
<path fill="none" stroke="#000000" d="M297,-266.0006C297,-253.8949 297,-237.8076 297,-224.0674"/>
<polygon fill="#000000" stroke="#000000" points="300.5001,-223.672 297,-213.672 293.5001,-223.6721 300.5001,-223.672"/>
<text text-anchor="middle" x="304" y="-235.8" font-family="Times,serif" font-size="14.00" fill="#000000">96</text>
</g>
<!-- 71&#45;&gt;1 -->
<g id="edge10" class="edge">
<title>71&#45;&gt;1</title>
<path fill="none" stroke="#000000" d="M284.1278,-179.7243C273.1384,-166.1707 257.1627,-146.4674 244.587,-130.9573"/>
<polygon fill="#000000" stroke="#000000" points="247.0202,-128.4009 238.0035,-122.8376 241.5829,-132.8095 247.0202,-128.4009"/>
<text text-anchor="middle" x="277.5" y="-147" font-family="Times,serif" font-size="14.00" fill="#000000">190</text>
</g>
<!-- 71&#45;&gt;3 -->
<g id="edge11" class="edge">
<title>71&#45;&gt;3</title>
<path fill="none" stroke="#000000" d="M297,-177.2006C297,-165.0949 297,-149.0076 297,-135.2674"/>
<polygon fill="#000000" stroke="#000000" points="300.5001,-134.872 297,-124.872 293.5001,-134.8721 300.5001,-134.872"/>
<text text-anchor="middle" x="307.5" y="-147" font-family="Times,serif" font-size="14.00" fill="#000000">196</text>
</g>
<!-- 73 -->
<g id="node14" class="node">
<title>73</title>
<ellipse fill="none" stroke="#000000" cx="369" cy="-106.8" rx="27" ry="18"/>
<text text-anchor="middle" x="369" y="-102.6" font-family="Times,serif" font-size="14.00" fill="#000000">73</text>
</g>
<!-- 71&#45;&gt;73 -->
<g id="edge12" class="edge">
<title>71&#45;&gt;73</title>
<path fill="none" stroke="#000000" d="M309.8722,-179.7243C320.8616,-166.1707 336.8373,-146.4674 349.413,-130.9573"/>
<polygon fill="#000000" stroke="#000000" points="352.4171,-132.8095 355.9965,-122.8376 346.9798,-128.4009 352.4171,-132.8095"/>
<text text-anchor="middle" x="346" y="-147" font-family="Times,serif" font-size="14.00" fill="#000000">86</text>
</g>
<!-- 73&#45;&gt;0 -->
<g id="edge13" class="edge">
<title>73&#45;&gt;0</title>
<path fill="none" stroke="#000000" d="M361.8876,-89.256C356.7596,-76.6071 349.7433,-59.3002 343.9097,-44.9105"/>
<polygon fill="#000000" stroke="#000000" points="347.0984,-43.46 340.0977,-35.5076 340.6112,-46.09 347.0984,-43.46"/>
<text text-anchor="middle" x="364.5" y="-58.2" font-family="Times,serif" font-size="14.00" fill="#000000">195</text>
</g>
<!-- 5 -->
<g id="node15" class="node">
<title>5</title>
<ellipse fill="none" stroke="#ff0000" cx="405" cy="-18" rx="27" ry="18"/>
<text text-anchor="middle" x="405" y="-13.8" font-family="Times,serif" font-size="14.00" fill="#000000">5</text>
</g>
<!-- 73&#45;&gt;5 -->
<g id="edge14" class="edge">
<title>73&#45;&gt;5</title>
<path fill="none" stroke="#000000" d="M376.1124,-89.256C381.2404,-76.6071 388.2567,-59.3002 394.0903,-44.9105"/>
<polygon fill="#000000" stroke="#000000" points="397.3888,-46.09 397.9023,-35.5076 390.9016,-43.46 397.3888,-46.09"/>
<text text-anchor="middle" x="400.5" y="-58.2" font-family="Times,serif" font-size="14.00" fill="#000000">192</text>
</g>
</g>
</svg>
