<svg width="1920px" height="1633px"
 viewBox="0.00 0.00 990.50 843.20" xmlns="http://www.w3.org/2000/svg" xmlns:xlink="http://www.w3.org/1999/xlink">
<g id="graph0" class="graph" transform="scale(1.0 1.0) rotate(0) translate(4 839.2)">
<title>%0</title>
<polygon fill="#ffffff" stroke="transparent" points="-4,4 -4,-839.2 986.5,-839.2 986.5,4 -4,4"/>
<!-- 0 -->
<g id="node1" class="node">
<title>0</title>
<ellipse fill="none" stroke="#ff0000" cx="468" cy="-817.2" rx="27" ry="18"/>
<text text-anchor="middle" x="468" y="-813" font-family="Times,serif" font-size="14.00" fill="#000000">0</text>
</g>
<!-- 6 -->
<g id="node2" class="node">
<title>6</title>
<ellipse fill="none" stroke="#0000ff" cx="360" cy="-284.4" rx="27" ry="18"/>
<text text-anchor="middle" x="360" y="-280.2" font-family="Times,serif" font-size="14.00" fill="#000000">6</text>
</g>
<!-- 0&#45;&#45;6 -->
<g id="edge1" class="edge">
<title>0&#45;&#45;6</title>
<path fill="none" stroke="#000000" d="M442.2155,-811.378C371.1305,-794.7539 175.2191,-744.8764 139,-692.4 88.2071,-618.8082 291.7033,-366.0304 346.6529,-300.1844"/>
<text text-anchor="middle" x="194.75" y="-546.6" font-family="Times,serif" font-size="14.00" fill="#000000">13.26</text>
</g>
<!-- 7 -->
<g id="node3" class="node">
<title>7</title>
<ellipse fill="none" stroke="#0000ff" cx="620" cy="-195.6" rx="27" ry="18"/>
<text text-anchor="middle" x="620" y="-191.4" font-family="Times,serif" font-size="14.00" fill="#000000">7</text>
</g>
<!-- 0&#45;&#45;7 -->
<g id="edge2" class="edge">
<title>0&#45;&#45;7</title>
<path fill="none" stroke="#000000" d="M494.7044,-814.234C585.251,-803.8223 875,-767.4539 875,-728.4 875,-728.4 875,-728.4 875,-550.8 875,-491.5983 876,-476.8017 876,-417.6 876,-417.6 876,-417.6 876,-284.4 876,-236.2992 712.6396,-208.3813 646.9126,-199.0954"/>
<text text-anchor="middle" x="891.75" y="-502.2" font-family="Times,serif" font-size="14.00" fill="#000000">17.28</text>
</g>
<!-- 8 -->
<g id="node4" class="node">
<title>8</title>
<ellipse fill="none" stroke="#0000ff" cx="422" cy="-106.8" rx="27" ry="18"/>
<text text-anchor="middle" x="422" y="-102.6" font-family="Times,serif" font-size="14.00" fill="#000000">8</text>
</g>
<!-- 0&#45;&#45;8 -->
<g id="edge8" class="edge">
<title>0&#45;&#45;8</title>
<path fill="none" stroke="#000000" d="M494.9482,-816.0174C549.2822,-813.2101 675.612,-804.5387 779,-781.2 845.0866,-766.2817 922,-796.1495 922,-728.4 922,-728.4 922,-728.4 922,-506.4 922,-398.7894 946.868,-357.7569 890,-266.4 849.4615,-201.276 749.2959,-183.9097 606,-142.8 550.9331,-127.002 484.6144,-115.9106 448.5429,-110.5213"/>
<text text-anchor="middle" x="940.75" y="-457.8" font-family="Times,serif" font-size="14.00" fill="#000000">10.30</text>
</g>
<!-- 9 -->
<g id="node5" class="node">
<title>9</title>
<ellipse fill="none" stroke="#ff0000" cx="270" cy="-18" rx="27" ry="18"/>
<text text-anchor="middle" x="270" y="-13.8" font-family="Times,serif" font-size="14.00" fill="#000000">9</text>
</g>
<!-- 0&#45;&#45;9 -->
<g id="edge9" class="edge">
<title>0&#45;&#45;9</title>
<path fill="none" stroke="#000000" d="M440.9701,-815.8495C355.0827,-811.4179 91.9918,-796.7118 57,-781.2 25.4308,-767.2054 0,-762.932 0,-728.4 0,-728.4 0,-728.4 0,-106.8 0,-68.8869 32.4047,-69.5102 67,-54 98.1093,-40.0527 195.3295,-26.9281 243.0424,-21.125"/>
<text text-anchor="middle" x="12.25" y="-413.4" font-family="Times,serif" font-size="14.00" fill="#000000">3.72</text>
</g>
<!-- 4 -->
<g id="node6" class="node">
<title>4</title>
<ellipse fill="none" stroke="#0000ff" cx="625" cy="-462" rx="27" ry="18"/>
<text text-anchor="middle" x="625" y="-457.8" font-family="Times,serif" font-size="14.00" fill="#000000">4</text>
</g>
<!-- 0&#45;&#45;4 -->
<g id="edge3" class="edge">
<title>0&#45;&#45;4</title>
<path fill="none" stroke="#000000" d="M488.8243,-805.4766C499.5456,-798.9809 512.5276,-790.3748 523,-781.2 597.3747,-716.0406 628.0523,-698.1482 657,-603.6 663.8607,-581.192 683.6309,-581.1311 653,-498 650.2077,-490.4218 645.1955,-483.1674 640.1756,-477.1818"/>
<text text-anchor="middle" x="663.25" y="-635.4" font-family="Times,serif" font-size="14.00" fill="#000000">5.48</text>
</g>
<!-- 5 -->
<g id="node7" class="node">
<title>5</title>
<ellipse fill="none" stroke="#0000ff" cx="229" cy="-373.2" rx="27" ry="18"/>
<text text-anchor="middle" x="229" y="-369" font-family="Times,serif" font-size="14.00" fill="#000000">5</text>
</g>
<!-- 0&#45;&#45;5 -->
<g id="edge4" class="edge">
<title>0&#45;&#45;5</title>
<path fill="none" stroke="#000000" d="M440.8624,-816.6295C366.7495,-814.7436 162.358,-807.2579 101,-781.2 67.6859,-767.052 39,-764.5938 39,-728.4 39,-728.4 39,-728.4 39,-595.2 39,-492.2179 158.4719,-412.9655 207.9407,-384.5641"/>
<text text-anchor="middle" x="51.25" y="-591" font-family="Times,serif" font-size="14.00" fill="#000000">5.24</text>
</g>
<!-- 2 -->
<g id="node8" class="node">
<title>2</title>
<ellipse fill="none" stroke="#0000ff" cx="388" cy="-639.6" rx="27" ry="18"/>
<text text-anchor="middle" x="388" y="-635.4" font-family="Times,serif" font-size="14.00" fill="#000000">2</text>
</g>
<!-- 0&#45;&#45;2 -->
<g id="edge5" class="edge">
<title>0&#45;&#45;2</title>
<path fill="none" stroke="#000000" d="M452.0112,-802.3071C438.4336,-788.8655 419.3216,-767.9455 407.5,-746.4 391.9962,-718.1435 388.504,-679.9836 387.8941,-657.7582"/>
<text text-anchor="middle" x="420.25" y="-724.2" font-family="Times,serif" font-size="14.00" fill="#000000">7.55</text>
</g>
<!-- 3 -->
<g id="node9" class="node">
<title>3</title>
<ellipse fill="none" stroke="#ff0000" cx="549" cy="-550.8" rx="27" ry="18"/>
<text text-anchor="middle" x="549" y="-546.6" font-family="Times,serif" font-size="14.00" fill="#000000">3</text>
</g>
<!-- 0&#45;&#45;3 -->
<g id="edge6" class="edge">
<title>0&#45;&#45;3</title>
<path fill="none" stroke="#000000" d="M484.0486,-802.6732C490.4058,-796.4376 497.4952,-788.8371 503,-781.2 539.172,-731.0169 552.3621,-717.704 567,-657.6 574.5639,-626.5424 564.1444,-589.6366 556.2901,-568.3455"/>
<text text-anchor="middle" x="577.75" y="-679.8" font-family="Times,serif" font-size="14.00" fill="#000000">20.00</text>
</g>
<!-- 1 -->
<g id="node10" class="node">
<title>1</title>
<ellipse fill="none" stroke="#ff0000" cx="468" cy="-728.4" rx="27" ry="18"/>
<text text-anchor="middle" x="468" y="-724.2" font-family="Times,serif" font-size="14.00" fill="#000000">1</text>
</g>
<!-- 0&#45;&#45;1 -->
<g id="edge7" class="edge">
<title>0&#45;&#45;1</title>
<path fill="none" stroke="#000000" d="M468,-798.8006C468,-783.4587 468,-761.722 468,-746.472"/>
<text text-anchor="middle" x="483.75" y="-768.6" font-family="Times,serif" font-size="14.00" fill="#000000">22.32</text>
</g>
<!-- 6&#45;&#45;7 -->
<g id="edge10" class="edge">
<title>6&#45;&#45;7</title>
<path fill="none" stroke="#000000" d="M384.4602,-276.0459C434.1404,-259.0782 546.3282,-220.7618 595.7942,-203.8672"/>
<text text-anchor="middle" x="529.75" y="-235.8" font-family="Times,serif" font-size="14.00" fill="#000000">23.73</text>
</g>
<!-- 6&#45;&#45;8 -->
<g id="edge12" class="edge">
<title>6&#45;&#45;8</title>
<path fill="none" stroke="#000000" d="M360.5286,-266.0526C361.6722,-244.2966 365.264,-207.2496 376.5,-177.6 384.2666,-157.1056 398.5529,-136.3208 409.0522,-122.6222"/>
<text text-anchor="middle" x="392.75" y="-191.4" font-family="Times,serif" font-size="14.00" fill="#000000">22.08</text>
</g>
<!-- 6&#45;&#45;9 -->
<g id="edge11" class="edge">
<title>6&#45;&#45;9</title>
<path fill="none" stroke="#000000" d="M353.9551,-266.5071C337.5596,-217.9763 292.3833,-84.2545 276.0186,-35.815"/>
<text text-anchor="middle" x="330.25" y="-147" font-family="Times,serif" font-size="14.00" fill="#000000">6.96</text>
</g>
<!-- 7&#45;&#45;8 -->
<g id="edge13" class="edge">
<title>7&#45;&#45;8</title>
<path fill="none" stroke="#000000" d="M602.489,-181.6468C583.9513,-166.9654 556.6018,-145.594 551,-142.8 517.5005,-126.0917 475.1146,-116.1605 448.2696,-111.0906"/>
<text text-anchor="middle" x="589.75" y="-147" font-family="Times,serif" font-size="14.00" fill="#000000">18.19</text>
</g>
<!-- 7&#45;&#45;9 -->
<g id="edge14" class="edge">
<title>7&#45;&#45;9</title>
<path fill="none" stroke="#000000" d="M620.3588,-177.3589C619.6515,-166.2268 616.9947,-152.3484 609,-142.8 527.2692,-45.1853 361.9953,-23.9072 297.0648,-19.2808"/>
<text text-anchor="middle" x="603.25" y="-102.6" font-family="Times,serif" font-size="14.00" fill="#000000">7.64</text>
</g>
<!-- 8&#45;&#45;9 -->
<g id="edge15" class="edge">
<title>8&#45;&#45;9</title>
<path fill="none" stroke="#000000" d="M401.5006,-94.824C372.4904,-77.876 319.7576,-47.0689 290.6601,-30.0698"/>
<text text-anchor="middle" x="372.25" y="-58.2" font-family="Times,serif" font-size="14.00" fill="#000000">0.07</text>
</g>
<!-- 4&#45;&#45;6 -->
<g id="edge17" class="edge">
<title>4&#45;&#45;6</title>
<path fill="none" stroke="#000000" d="M607.1297,-448.4835C572.5318,-422.5253 493.6655,-364.374 424,-320.4 410.0934,-311.6219 393.9511,-302.5493 381.3574,-295.708"/>
<text text-anchor="middle" x="542.75" y="-369" font-family="Times,serif" font-size="14.00" fill="#000000">18.49</text>
</g>
<!-- 4&#45;&#45;7 -->
<g id="edge18" class="edge">
<title>4&#45;&#45;7</title>
<path fill="none" stroke="#000000" d="M623.9476,-443.8203C622.599,-419.5307 620.3357,-375.1443 619.5,-337.2 618.5256,-292.9605 619.1687,-240.9279 619.6363,-213.9326"/>
<text text-anchor="middle" x="632.25" y="-324.6" font-family="Times,serif" font-size="14.00" fill="#000000">1.19</text>
</g>
<!-- 4&#45;&#45;8 -->
<g id="edge19" class="edge">
<title>4&#45;&#45;8</title>
<path fill="none" stroke="#000000" d="M620.6031,-443.9306C607.0617,-391.5245 561.5183,-237.2162 474,-142.8 465.0427,-133.1368 453.0571,-124.6226 442.8504,-118.3036"/>
<text text-anchor="middle" x="584.25" y="-280.2" font-family="Times,serif" font-size="14.00" fill="#000000">1.22</text>
</g>
<!-- 4&#45;&#45;9 -->
<g id="edge20" class="edge">
<title>4&#45;&#45;9</title>
<path fill="none" stroke="#000000" d="M632.1862,-444.4154C655.6125,-383.9355 722.4911,-183.0372 619,-88.8 571.4019,-45.458 370.295,-25.7799 296.9287,-19.947"/>
<text text-anchor="middle" x="691.75" y="-235.8" font-family="Times,serif" font-size="14.00" fill="#000000">14.56</text>
</g>
<!-- 4&#45;&#45;5 -->
<g id="edge16" class="edge">
<title>4&#45;&#45;5</title>
<path fill="none" stroke="#000000" d="M598.0886,-459.9778C562.7165,-456.549 499.2445,-447.7085 449.5,-426 437.7328,-420.8648 437.8219,-414.208 426,-409.2 368.6954,-384.9247 295.213,-376.9963 256.1931,-374.423"/>
<text text-anchor="middle" x="465.75" y="-413.4" font-family="Times,serif" font-size="14.00" fill="#000000">11.82</text>
</g>
<!-- 5&#45;&#45;6 -->
<g id="edge21" class="edge">
<title>5&#45;&#45;6</title>
<path fill="none" stroke="#000000" d="M232.6252,-355.3225C235.8038,-343.907 241.5309,-329.5792 251.5,-320.4 274.1303,-299.5629 309.132,-290.7609 333.228,-287.059"/>
<text text-anchor="middle" x="267.75" y="-324.6" font-family="Times,serif" font-size="14.00" fill="#000000">24.21</text>
</g>
<!-- 5&#45;&#45;7 -->
<g id="edge22" class="edge">
<title>5&#45;&#45;7</title>
<path fill="none" stroke="#000000" d="M254.0879,-365.9426C309.405,-349.4079 445.1837,-305.8783 549,-248.4 568.8897,-237.388 589.5121,-221.4614 603.3724,-209.9832"/>
<text text-anchor="middle" x="525.25" y="-280.2" font-family="Times,serif" font-size="14.00" fill="#000000">2.97</text>
</g>
<!-- 5&#45;&#45;8 -->
<g id="edge23" class="edge">
<title>5&#45;&#45;8</title>
<path fill="none" stroke="#000000" d="M228.9621,-354.9415C229.5328,-344.4554 231.2828,-331.2554 236,-320.4 274.999,-230.6542 365.7597,-151.3644 404.2432,-120.5049"/>
<text text-anchor="middle" x="303.25" y="-235.8" font-family="Times,serif" font-size="14.00" fill="#000000">0.30</text>
</g>
<!-- 5&#45;&#45;9 -->
<g id="edge24" class="edge">
<title>5&#45;&#45;9</title>
<path fill="none" stroke="#000000" d="M225.225,-355.348C217.6105,-316.3387 202.4106,-220.7468 218,-142.8 226.1018,-102.2911 247.6417,-58.4945 260.313,-35.0775"/>
<text text-anchor="middle" x="228.75" y="-191.4" font-family="Times,serif" font-size="14.00" fill="#000000">17.00</text>
</g>
<!-- 2&#45;&#45;6 -->
<g id="edge28" class="edge">
<title>2&#45;&#45;6</title>
<path fill="none" stroke="#000000" d="M389.6444,-621.5969C392.1401,-585.8772 393.9742,-504.2918 366,-444 361.3686,-434.0182 353.5012,-436.0412 349,-426 342.6499,-411.8341 346.6673,-406.7097 346,-391.2 344.6474,-359.7624 340.198,-351.3271 346,-320.4 347.187,-314.0726 349.4525,-307.4283 351.8207,-301.5945"/>
<text text-anchor="middle" x="394.75" y="-457.8" font-family="Times,serif" font-size="14.00" fill="#000000">19.92</text>
</g>
<!-- 2&#45;&#45;7 -->
<g id="edge27" class="edge">
<title>2&#45;&#45;7</title>
<path fill="none" stroke="#000000" d="M414.4624,-635.7785C440.3367,-632.0656 480.8582,-626.3138 516,-621.6 578.6145,-613.2011 601.406,-633.607 657,-603.6 702.7137,-578.9259 706.6179,-559.5498 733,-514.8 797.1516,-405.9847 791.2732,-327.4505 709,-231.6 693.1504,-213.1348 666.4314,-204.0222 646.3962,-199.6004"/>
<text text-anchor="middle" x="787.25" y="-413.4" font-family="Times,serif" font-size="14.00" fill="#000000">6.09</text>
</g>
<!-- 2&#45;&#45;8 -->
<g id="edge26" class="edge">
<title>2&#45;&#45;8</title>
<path fill="none" stroke="#000000" d="M372.9172,-624.2745C366.7079,-617.9167 359.468,-610.4406 353,-603.6 338.5641,-588.3326 335.1311,-584.35 321,-568.8 241.3176,-481.1171 126.0914,-468.2655 161.5,-355.2 195.8475,-245.5226 216.5491,-211.0768 309,-142.8 334.6718,-123.8408 370.6816,-114.6427 395.0997,-110.3359"/>
<text text-anchor="middle" x="177.75" y="-369" font-family="Times,serif" font-size="14.00" fill="#000000">15.02</text>
</g>
<!-- 2&#45;&#45;9 -->
<g id="edge25" class="edge">
<title>2&#45;&#45;9</title>
<path fill="none" stroke="#000000" d="M367.9153,-627.3843C345.7409,-613.7078 309.1856,-590.5967 279,-568.8 266.195,-559.5537 177.7098,-492.4572 168,-480 122.5893,-421.7406 99,-402.6667 99,-328.8 99,-328.8 99,-328.8 99,-106.8 99,-42.7399 194.6872,-24.8295 242.9045,-19.8709"/>
<text text-anchor="middle" x="112.25" y="-324.6" font-family="Times,serif" font-size="14.00" fill="#000000">5.99</text>
</g>
<!-- 2&#45;&#45;4 -->
<g id="edge30" class="edge">
<title>2&#45;&#45;4</title>
<path fill="none" stroke="#000000" d="M414.7283,-636.738C456.1857,-630.97 536.2786,-614.3382 585,-568.8 610.3136,-545.1403 619.7108,-503.9202 623.1232,-480.2042"/>
<text text-anchor="middle" x="621.25" y="-546.6" font-family="Times,serif" font-size="14.00" fill="#000000">7.33</text>
</g>
<!-- 2&#45;&#45;5 -->
<g id="edge29" class="edge">
<title>2&#45;&#45;5</title>
<path fill="none" stroke="#000000" d="M377.812,-622.5302C349.0933,-574.4129 267.7178,-438.0707 239.1032,-390.1276"/>
<text text-anchor="middle" x="325.25" y="-502.2" font-family="Times,serif" font-size="14.00" fill="#000000">3.33</text>
</g>
<!-- 2&#45;&#45;3 -->
<g id="edge31" class="edge">
<title>2&#45;&#45;3</title>
<path fill="none" stroke="#000000" d="M409.0479,-627.991C439.9035,-610.9725 497.0884,-579.432 527.9469,-562.4119"/>
<text text-anchor="middle" x="495.25" y="-591" font-family="Times,serif" font-size="14.00" fill="#000000">7.82</text>
</g>
<!-- 3&#45;&#45;6 -->
<g id="edge35" class="edge">
<title>3&#45;&#45;6</title>
<path fill="none" stroke="#000000" d="M539.6928,-533.4645C525.9432,-509.5643 497.9093,-466.8609 462,-444 434.3571,-426.4018 412.5859,-450.2083 390.5,-426 358.484,-390.9074 386.3471,-366.2701 374,-320.4 372.3267,-314.1835 369.9396,-307.5669 367.6094,-301.7245"/>
<text text-anchor="middle" x="406.75" y="-413.4" font-family="Times,serif" font-size="14.00" fill="#000000">17.32</text>
</g>
<!-- 3&#45;&#45;7 -->
<g id="edge34" class="edge">
<title>3&#45;&#45;7</title>
<path fill="none" stroke="#000000" d="M569.541,-538.9665C573.3265,-536.8656 577.2634,-534.7329 581,-532.8 618.8386,-513.2265 639.7579,-516.9277 661,-480 688.7241,-431.804 720.0983,-278.9791 691,-231.6 681.1635,-215.5837 661.7402,-206.4246 645.6922,-201.3571"/>
<text text-anchor="middle" x="713.75" y="-369" font-family="Times,serif" font-size="14.00" fill="#000000">20.08</text>
</g>
<!-- 3&#45;&#45;8 -->
<g id="edge33" class="edge">
<title>3&#45;&#45;8</title>
<path fill="none" stroke="#000000" d="M547.6416,-532.4358C545.5675,-505.4012 541.2893,-453.3202 536,-409.2 533.1121,-385.1105 539.028,-376.8107 528,-355.2 512.7428,-325.3018 490.538,-331.6092 474,-302.4 438.0743,-238.9483 457.7096,-212.4094 436,-142.8 434.0833,-136.6542 431.6353,-130.0553 429.3241,-124.2073"/>
<text text-anchor="middle" x="529.75" y="-324.6" font-family="Times,serif" font-size="14.00" fill="#000000">17.74</text>
</g>
<!-- 3&#45;&#45;9 -->
<g id="edge32" class="edge">
<title>3&#45;&#45;9</title>
<path fill="none" stroke="#000000" d="M568.9234,-538.5612C572.8391,-536.4537 576.9809,-534.423 581,-532.8 610.3874,-520.9331 622.075,-529.7879 650,-514.8 712.0114,-481.5172 715.3767,-455.9327 768,-409.2 853.0455,-333.6746 960,-353.7401 960,-240 960,-240 960,-240 960,-106.8 960,-38.7105 424.6199,-21.6745 297.0488,-18.5816"/>
<text text-anchor="middle" x="970.25" y="-280.2" font-family="Times,serif" font-size="14.00" fill="#000000">2.92</text>
</g>
<!-- 3&#45;&#45;4 -->
<g id="edge37" class="edge">
<title>3&#45;&#45;4</title>
<path fill="none" stroke="#000000" d="M558.4647,-533.7873C564.852,-523.0036 573.8524,-509.0553 583.5,-498 590.5238,-489.9513 599.3452,-482.0546 607.0468,-475.7174"/>
<text text-anchor="middle" x="599.75" y="-502.2" font-family="Times,serif" font-size="14.00" fill="#000000">11.84</text>
</g>
<!-- 3&#45;&#45;5 -->
<g id="edge36" class="edge">
<title>3&#45;&#45;5</title>
<path fill="none" stroke="#000000" d="M522.0623,-548.0117C478.3665,-542.2602 391.222,-525.5463 334.5,-480 305.1456,-456.4292 315.0592,-435.3737 288,-409.2 277.2191,-398.7719 262.8997,-389.9444 251.0678,-383.6407"/>
<text text-anchor="middle" x="350.75" y="-457.8" font-family="Times,serif" font-size="14.00" fill="#000000">14.66</text>
</g>
<!-- 1&#45;&#45;6 -->
<g id="edge41" class="edge">
<title>1&#45;&#45;6</title>
<path fill="none" stroke="#000000" d="M461.5618,-710.6366C455.7151,-692.8965 448,-664.7265 448,-639.6 448,-639.6 448,-639.6 448,-506.4 448,-474.817 436.9547,-465.6925 414,-444 400.4176,-431.1644 386.8654,-441.2045 376,-426 349.3894,-388.7624 352.8837,-331.3967 356.8688,-302.441"/>
<text text-anchor="middle" x="460.25" y="-502.2" font-family="Times,serif" font-size="14.00" fill="#000000">3.59</text>
</g>
<!-- 1&#45;&#45;7 -->
<g id="edge38" class="edge">
<title>1&#45;&#45;7</title>
<path fill="none" stroke="#000000" d="M492.1757,-720.1331C510.2284,-713.5762 535.2558,-703.6632 556,-692.4 697.8949,-615.3574 763.6145,-582.5838 803,-426 825.5127,-336.497 807.2138,-282.1533 730,-231.6 704.1106,-214.6497 669.5629,-205.0652 646.1427,-200.1184"/>
<text text-anchor="middle" x="814.75" y="-457.8" font-family="Times,serif" font-size="14.00" fill="#000000">14.92</text>
</g>
<!-- 1&#45;&#45;8 -->
<g id="edge39" class="edge">
<title>1&#45;&#45;8</title>
<path fill="none" stroke="#000000" d="M471.5079,-710.55C480.4995,-661.7687 502.2199,-522.3117 481,-409.2 479.4173,-400.7635 476.5055,-399.4098 474,-391.2 462.1912,-352.5066 461.7137,-342.1131 454,-302.4 441.3702,-237.3764 429.6406,-159.5434 424.5986,-124.9317"/>
<text text-anchor="middle" x="499.75" y="-413.4" font-family="Times,serif" font-size="14.00" fill="#000000">16.07</text>
</g>
<!-- 1&#45;&#45;9 -->
<g id="edge45" class="edge">
<title>1&#45;&#45;9</title>
<path fill="none" stroke="#000000" d="M448.0856,-716.1387C444.1691,-714.0334 440.0247,-712.0091 436,-710.4 405.7725,-698.3148 395.0817,-704.8437 365,-692.4 192.0811,-620.87 46,-604.7296 46,-417.6 46,-417.6 46,-417.6 46,-106.8 46,-69.9249 76.8856,-70.2237 110,-54 153.5943,-32.6419 210.0919,-23.7647 242.9678,-20.2174"/>
<text text-anchor="middle" x="58.25" y="-369" font-family="Times,serif" font-size="14.00" fill="#000000">3.91</text>
</g>
<!-- 1&#45;&#45;4 -->
<g id="edge43" class="edge">
<title>1&#45;&#45;4</title>
<path fill="none" stroke="#000000" d="M489.3381,-717.3602C528.8157,-695.4554 611.5491,-642.1978 637,-568.8 647.4528,-538.6551 638.5872,-501.1296 631.5474,-479.5337"/>
<text text-anchor="middle" x="641.25" y="-591" font-family="Times,serif" font-size="14.00" fill="#000000">1.53</text>
</g>
<!-- 1&#45;&#45;5 -->
<g id="edge40" class="edge">
<title>1&#45;&#45;5</title>
<path fill="none" stroke="#000000" d="M447.5548,-716.374C443.7596,-714.2926 439.7946,-712.2164 436,-710.4 416.5706,-701.0995 409.3128,-703.7421 391,-692.4 371.2505,-680.1681 366.9731,-675.3614 352,-657.6 280.2268,-572.461 244.104,-439.0602 232.9052,-391.1119"/>
<text text-anchor="middle" x="307.25" y="-546.6" font-family="Times,serif" font-size="14.00" fill="#000000">2.37</text>
</g>
<!-- 1&#45;&#45;2 -->
<g id="edge44" class="edge">
<title>1&#45;&#45;2</title>
<path fill="none" stroke="#000000" d="M443.6123,-720.4451C429.6779,-714.7181 412.9505,-705.6416 402.5,-692.4 394.7263,-682.5501 391.1141,-668.82 389.4387,-657.83"/>
<text text-anchor="middle" x="418.75" y="-679.8" font-family="Times,serif" font-size="14.00" fill="#000000">15.94</text>
</g>
<!-- 1&#45;&#45;3 -->
<g id="edge42" class="edge">
<title>1&#45;&#45;3</title>
<path fill="none" stroke="#000000" d="M484.5249,-713.8618C490.6927,-707.7388 497.3254,-700.2223 502,-692.4 526.3159,-651.7111 539.8847,-596.8368 545.646,-568.8499"/>
<text text-anchor="middle" x="547.75" y="-635.4" font-family="Times,serif" font-size="14.00" fill="#000000">11.20</text>
</g>
</g>
</svg>
