<svg width="1920px" height="1633px"
 viewBox="0.00 0.00 990.50 843.20" xmlns="http://www.w3.org/2000/svg" xmlns:xlink="http://www.w3.org/1999/xlink">
<g id="graph0" class="graph" transform="scale(1.0 1.0) rotate(0) translate(4 839.2)">
<title>%0</title>
<polygon fill="#ffffff" stroke="transparent" points="-4,4 -4,-839.2 986.5,-839.2 986.5,4 -4,4"/>
<!-- 0 -->
<g id="node1" class="node">
<title>0</title>
<ellipse fill="none" stroke="#ff0000" cx="464" cy="-817.2" rx="27" ry="18"/>
<text text-anchor="middle" x="464" y="-813" font-family="Times,serif" font-size="14.00" fill="#000000">0</text>
</g>
<!-- 6 -->
<g id="node2" class="node">
<title>6</title>
<ellipse fill="none" stroke="#0000ff" cx="352" cy="-284.4" rx="27" ry="18"/>
<text text-anchor="middle" x="352" y="-280.2" font-family="Times,serif" font-size="14.00" fill="#000000">6</text>
</g>
<!-- 0&#45;&#45;6 -->
<g id="edge1" class="edge">
<title>0&#45;&#45;6</title>
<path fill="none" stroke="#000000" d="M438.2155,-811.378C367.1305,-794.7539 171.2191,-744.8764 135,-692.4 109.5932,-655.589 293.1103,-373.3175 340.8455,-301.1561"/>
<text text-anchor="middle" x="210.25" y="-546.6" font-family="Times,serif" font-size="14.00" fill="#000000">6.76</text>
</g>
<!-- 7 -->
<g id="node3" class="node">
<title>7</title>
<ellipse fill="none" stroke="#ff0000" cx="624" cy="-195.6" rx="27" ry="18"/>
<text text-anchor="middle" x="624" y="-191.4" font-family="Times,serif" font-size="14.00" fill="#000000">7</text>
</g>
<!-- 0&#45;&#45;7 -->
<g id="edge2" class="edge">
<title>0&#45;&#45;7</title>
<path fill="none" stroke="#000000" d="M490.6502,-814.2966C581.7256,-804.0204 875,-767.866 875,-728.4 875,-728.4 875,-728.4 875,-550.8 875,-491.5983 876,-476.8017 876,-417.6 876,-417.6 876,-417.6 876,-284.4 876,-236.9695 715.1922,-208.651 650.4921,-199.1768"/>
<text text-anchor="middle" x="891.75" y="-502.2" font-family="Times,serif" font-size="14.00" fill="#000000">20.28</text>
</g>
<!-- 8 -->
<g id="node4" class="node">
<title>8</title>
<ellipse fill="none" stroke="#ff0000" cx="412" cy="-106.8" rx="27" ry="18"/>
<text text-anchor="middle" x="412" y="-102.6" font-family="Times,serif" font-size="14.00" fill="#000000">8</text>
</g>
<!-- 0&#45;&#45;8 -->
<g id="edge8" class="edge">
<title>0&#45;&#45;8</title>
<path fill="none" stroke="#000000" d="M491.2023,-816.0192C546.0498,-813.215 673.5802,-804.5489 778,-781.2 844.5238,-766.3249 922,-796.5666 922,-728.4 922,-728.4 922,-728.4 922,-506.4 922,-398.7894 948.0344,-357.0204 890,-266.4 838.8062,-186.4612 530.9488,-127.3677 438.3366,-111.2179"/>
<text text-anchor="middle" x="940.75" y="-457.8" font-family="Times,serif" font-size="14.00" fill="#000000">17.65</text>
</g>
<!-- 9 -->
<g id="node5" class="node">
<title>9</title>
<ellipse fill="none" stroke="#0000ff" cx="268" cy="-18" rx="27" ry="18"/>
<text text-anchor="middle" x="268" y="-13.8" font-family="Times,serif" font-size="14.00" fill="#000000">9</text>
</g>
<!-- 0&#45;&#45;9 -->
<g id="edge9" class="edge">
<title>0&#45;&#45;9</title>
<path fill="none" stroke="#000000" d="M437.0056,-815.8076C351.8691,-811.2778 92.5868,-796.3754 58,-781.2 26.0781,-767.1939 0,-763.2594 0,-728.4 0,-728.4 0,-728.4 0,-106.8 0,-68.8869 32.418,-69.5398 67,-54 97.8004,-40.1595 194.0639,-26.9827 241.3075,-21.146"/>
<text text-anchor="middle" x="15.75" y="-413.4" font-family="Times,serif" font-size="14.00" fill="#000000">14.83</text>
</g>
<!-- 4 -->
<g id="node6" class="node">
<title>4</title>
<ellipse fill="none" stroke="#0000ff" cx="625" cy="-462" rx="27" ry="18"/>
<text text-anchor="middle" x="625" y="-457.8" font-family="Times,serif" font-size="14.00" fill="#000000">4</text>
</g>
<!-- 0&#45;&#45;4 -->
<g id="edge3" class="edge">
<title>0&#45;&#45;4</title>
<path fill="none" stroke="#000000" d="M484.1394,-804.9746C494.1648,-798.4715 506.2029,-790.0107 516,-781.2 562.6865,-739.2137 640.4542,-659.4124 660,-603.6 675.5237,-559.2727 673.6023,-541.5438 656,-498 652.7852,-490.0474 647.0662,-482.6149 641.4083,-476.5924"/>
<text text-anchor="middle" x="667.75" y="-635.4" font-family="Times,serif" font-size="14.00" fill="#000000">12.10</text>
</g>
<!-- 5 -->
<g id="node7" class="node">
<title>5</title>
<ellipse fill="none" stroke="#0000ff" cx="233" cy="-373.2" rx="27" ry="18"/>
<text text-anchor="middle" x="233" y="-369" font-family="Times,serif" font-size="14.00" fill="#000000">5</text>
</g>
<!-- 0&#45;&#45;5 -->
<g id="edge4" class="edge">
<title>0&#45;&#45;5</title>
<path fill="none" stroke="#000000" d="M436.7786,-816.819C362.4499,-815.4209 157.5548,-809.0734 97,-781.2 66.219,-767.0315 42,-762.2853 42,-728.4 42,-728.4 42,-728.4 42,-595.2 42,-491.9884 162.1007,-412.8705 211.8299,-384.5346"/>
<text text-anchor="middle" x="57.75" y="-591" font-family="Times,serif" font-size="14.00" fill="#000000">21.33</text>
</g>
<!-- 2 -->
<g id="node8" class="node">
<title>2</title>
<ellipse fill="none" stroke="#ff0000" cx="384" cy="-639.6" rx="27" ry="18"/>
<text text-anchor="middle" x="384" y="-635.4" font-family="Times,serif" font-size="14.00" fill="#000000">2</text>
</g>
<!-- 0&#45;&#45;2 -->
<g id="edge5" class="edge">
<title>0&#45;&#45;2</title>
<path fill="none" stroke="#000000" d="M448.0112,-802.3071C434.4336,-788.8655 415.3216,-767.9455 403.5,-746.4 387.9962,-718.1435 384.504,-679.9836 383.8941,-657.7582"/>
<text text-anchor="middle" x="416.25" y="-724.2" font-family="Times,serif" font-size="14.00" fill="#000000">5.58</text>
</g>
<!-- 3 -->
<g id="node9" class="node">
<title>3</title>
<ellipse fill="none" stroke="#0000ff" cx="545" cy="-550.8" rx="27" ry="18"/>
<text text-anchor="middle" x="545" y="-546.6" font-family="Times,serif" font-size="14.00" fill="#000000">3</text>
</g>
<!-- 0&#45;&#45;3 -->
<g id="edge6" class="edge">
<title>0&#45;&#45;3</title>
<path fill="none" stroke="#000000" d="M478.2739,-801.5063C501.7029,-774.518 547.2834,-716.5131 563,-657.6 571.2394,-626.7148 560.5982,-589.7524 552.5188,-568.4039"/>
<text text-anchor="middle" x="570.25" y="-679.8" font-family="Times,serif" font-size="14.00" fill="#000000">8.01</text>
</g>
<!-- 1 -->
<g id="node10" class="node">
<title>1</title>
<ellipse fill="none" stroke="#ff0000" cx="464" cy="-728.4" rx="27" ry="18"/>
<text text-anchor="middle" x="464" y="-724.2" font-family="Times,serif" font-size="14.00" fill="#000000">1</text>
</g>
<!-- 0&#45;&#45;1 -->
<g id="edge7" class="edge">
<title>0&#45;&#45;1</title>
<path fill="none" stroke="#000000" d="M464,-798.8006C464,-783.4587 464,-761.722 464,-746.472"/>
<text text-anchor="middle" x="476.25" y="-768.6" font-family="Times,serif" font-size="14.00" fill="#000000">3.90</text>
</g>
<!-- 6&#45;&#45;7 -->
<g id="edge10" class="edge">
<title>6&#45;&#45;7</title>
<path fill="none" stroke="#000000" d="M376.2364,-276.1173C407.1225,-265.5984 462.1852,-246.9675 509.5,-231.6 540.4172,-221.5583 576.1723,-210.3868 599.3883,-203.1912"/>
<text text-anchor="middle" x="522.25" y="-235.8" font-family="Times,serif" font-size="14.00" fill="#000000">4.93</text>
</g>
<!-- 6&#45;&#45;8 -->
<g id="edge12" class="edge">
<title>6&#45;&#45;8</title>
<path fill="none" stroke="#000000" d="M352.0971,-266.0604C352.7487,-244.312 355.5655,-207.2723 366.5,-177.6 374.0783,-157.0353 388.397,-136.2626 398.9553,-122.586"/>
<text text-anchor="middle" x="382.75" y="-191.4" font-family="Times,serif" font-size="14.00" fill="#000000">14.59</text>
</g>
<!-- 6&#45;&#45;9 -->
<g id="edge11" class="edge">
<title>6&#45;&#45;9</title>
<path fill="none" stroke="#000000" d="M346.3581,-266.5071C331.0556,-217.9763 288.8911,-84.2545 273.6174,-35.815"/>
<text text-anchor="middle" x="324.25" y="-147" font-family="Times,serif" font-size="14.00" fill="#000000">7.87</text>
</g>
<!-- 7&#45;&#45;8 -->
<g id="edge13" class="edge">
<title>7&#45;&#45;8</title>
<path fill="none" stroke="#000000" d="M602.3512,-184.7503C589.1572,-177.9256 572.0856,-168.7123 557.5,-159.6 546.6114,-152.7974 545.5395,-148.4283 534,-142.8 502.6396,-127.5041 463.5174,-117.376 438.1602,-111.8631"/>
<text text-anchor="middle" x="573.75" y="-147" font-family="Times,serif" font-size="14.00" fill="#000000">17.64</text>
</g>
<!-- 7&#45;&#45;9 -->
<g id="edge14" class="edge">
<title>7&#45;&#45;9</title>
<path fill="none" stroke="#000000" d="M617.0882,-177.9864C611.8994,-166.6823 603.8271,-152.3795 593,-142.8 502.4672,-62.6995 355.0277,-31.5842 294.855,-21.8041"/>
<text text-anchor="middle" x="581.25" y="-102.6" font-family="Times,serif" font-size="14.00" fill="#000000">4.87</text>
</g>
<!-- 8&#45;&#45;9 -->
<g id="edge15" class="edge">
<title>8&#45;&#45;9</title>
<path fill="none" stroke="#000000" d="M391.9774,-94.4527C364.4658,-77.4872 315.2745,-47.1526 287.8525,-30.2424"/>
<text text-anchor="middle" x="368.75" y="-58.2" font-family="Times,serif" font-size="14.00" fill="#000000">24.48</text>
</g>
<!-- 4&#45;&#45;6 -->
<g id="edge17" class="edge">
<title>4&#45;&#45;6</title>
<path fill="none" stroke="#000000" d="M607.8022,-447.9961C574.4344,-421.205 498.0234,-361.6914 428,-320.4 410.8964,-310.3143 390.5162,-300.7845 375.1678,-294.0664"/>
<text text-anchor="middle" x="544.25" y="-369" font-family="Times,serif" font-size="14.00" fill="#000000">5.72</text>
</g>
<!-- 4&#45;&#45;7 -->
<g id="edge18" class="edge">
<title>4&#45;&#45;7</title>
<path fill="none" stroke="#000000" d="M624.5216,-443.8137C623.9086,-419.5168 622.8798,-375.1224 622.5,-337.2 622.0568,-292.9497 622.9784,-240.9215 623.5647,-213.9298"/>
<text text-anchor="middle" x="635.25" y="-324.6" font-family="Times,serif" font-size="14.00" fill="#000000">1.06</text>
</g>
<!-- 4&#45;&#45;8 -->
<g id="edge19" class="edge">
<title>4&#45;&#45;8</title>
<path fill="none" stroke="#000000" d="M619.6724,-444.2111C603.5009,-392.5653 550.7116,-240.1123 464,-142.8 455.2343,-132.9627 443.2607,-124.4377 433.0126,-118.1562"/>
<text text-anchor="middle" x="580.75" y="-280.2" font-family="Times,serif" font-size="14.00" fill="#000000">15.01</text>
</g>
<!-- 4&#45;&#45;9 -->
<g id="edge20" class="edge">
<title>4&#45;&#45;9</title>
<path fill="none" stroke="#000000" d="M632.1726,-444.5362C649.6939,-399.2913 691.0427,-275.0041 660,-177.6 645.3062,-131.4946 636.7802,-116.3528 597,-88.8 547.4691,-54.4936 364.1966,-29.5102 294.8344,-21.0954"/>
<text text-anchor="middle" x="684.25" y="-235.8" font-family="Times,serif" font-size="14.00" fill="#000000">5.03</text>
</g>
<!-- 4&#45;&#45;5 -->
<g id="edge16" class="edge">
<title>4&#45;&#45;5</title>
<path fill="none" stroke="#000000" d="M598.0936,-459.8924C563.066,-456.3823 500.5354,-447.4653 451.5,-426 439.7386,-420.8515 439.8174,-414.2187 428,-409.2 371.4385,-385.179 298.9488,-377.1536 260.2423,-374.4959"/>
<text text-anchor="middle" x="467.75" y="-413.4" font-family="Times,serif" font-size="14.00" fill="#000000">23.15</text>
</g>
<!-- 5&#45;&#45;6 -->
<g id="edge21" class="edge">
<title>5&#45;&#45;6</title>
<path fill="none" stroke="#000000" d="M239.3035,-355.492C244.1256,-344.1481 251.7814,-329.8363 262.5,-320.4 280.6019,-304.4638 306.6575,-295.0652 325.9913,-289.8917"/>
<text text-anchor="middle" x="275.25" y="-324.6" font-family="Times,serif" font-size="14.00" fill="#000000">9.81</text>
</g>
<!-- 5&#45;&#45;7 -->
<g id="edge22" class="edge">
<title>5&#45;&#45;7</title>
<path fill="none" stroke="#000000" d="M256.9087,-364.5699C308.5021,-345.6703 433.7231,-298.3072 534,-248.4 558.9755,-235.9698 586.4713,-219.3876 604.4171,-208.1469"/>
<text text-anchor="middle" x="510.75" y="-280.2" font-family="Times,serif" font-size="14.00" fill="#000000">20.27</text>
</g>
<!-- 5&#45;&#45;8 -->
<g id="edge23" class="edge">
<title>5&#45;&#45;8</title>
<path fill="none" stroke="#000000" d="M235.318,-355.0391C237.0907,-344.5855 240.0907,-331.3855 245,-320.4 284.4864,-232.0411 306.1976,-214.6827 371,-142.8 378.1038,-134.9201 386.8394,-127.0445 394.4193,-120.6777"/>
<text text-anchor="middle" x="309.75" y="-235.8" font-family="Times,serif" font-size="14.00" fill="#000000">22.77</text>
</g>
<!-- 5&#45;&#45;9 -->
<g id="edge24" class="edge">
<title>5&#45;&#45;9</title>
<path fill="none" stroke="#000000" d="M228.4492,-355.3666C219.2068,-316.3939 200.386,-220.8698 216,-142.8 224.1018,-102.2911 245.6417,-58.4945 258.313,-35.0775"/>
<text text-anchor="middle" x="227.75" y="-191.4" font-family="Times,serif" font-size="14.00" fill="#000000">11.04</text>
</g>
<!-- 2&#45;&#45;6 -->
<g id="edge28" class="edge">
<title>2&#45;&#45;6</title>
<path fill="none" stroke="#000000" d="M384.5409,-621.5015C385.0399,-586.2928 383.4442,-506.5499 362,-444 358.9595,-435.1312 353.6687,-434.9877 351,-426 346.5956,-411.167 350.2222,-406.6715 350,-391.2 349.548,-359.7366 349.1269,-351.8546 350,-320.4 350.1598,-314.6434 350.463,-308.3749 350.786,-302.7059"/>
<text text-anchor="middle" x="387.75" y="-457.8" font-family="Times,serif" font-size="14.00" fill="#000000">11.94</text>
</g>
<!-- 2&#45;&#45;7 -->
<g id="edge27" class="edge">
<title>2&#45;&#45;7</title>
<path fill="none" stroke="#000000" d="M410.4563,-635.7326C436.3261,-631.9856 476.8443,-626.2093 512,-621.6 577.7002,-612.9859 601.9092,-635.4774 660,-603.6 704.7901,-579.0214 707.4908,-559.0667 733,-514.8 796.1293,-405.2505 787.7074,-328.09 706,-231.6 691.8333,-214.8702 668.3966,-205.6484 650.199,-200.7392"/>
<text text-anchor="middle" x="788.75" y="-413.4" font-family="Times,serif" font-size="14.00" fill="#000000">13.30</text>
</g>
<!-- 2&#45;&#45;8 -->
<g id="edge26" class="edge">
<title>2&#45;&#45;8</title>
<path fill="none" stroke="#000000" d="M369.7866,-624.2578C363.9332,-617.8974 357.1059,-610.4239 351,-603.6 259.1221,-500.9175 126.0252,-487.2113 165.5,-355.2 197.8563,-246.9945 215.5789,-211.7871 305,-142.8 328.7428,-124.4827 362.3252,-115.2014 385.505,-110.698"/>
<text text-anchor="middle" x="181.75" y="-369" font-family="Times,serif" font-size="14.00" fill="#000000">12.75</text>
</g>
<!-- 2&#45;&#45;9 -->
<g id="edge25" class="edge">
<title>2&#45;&#45;9</title>
<path fill="none" stroke="#000000" d="M363.1484,-628.049C333.6499,-611.5809 281.3873,-581.9005 264,-568.8 245.4193,-554.8003 243.1798,-548.4872 226,-532.8 199.7687,-508.8477 186.4497,-509.0449 166,-480 124.3786,-420.8848 106,-401.0977 106,-328.8 106,-328.8 106,-328.8 106,-106.8 106,-45.8609 195.2365,-26.4635 241.249,-20.5122"/>
<text text-anchor="middle" x="119.25" y="-324.6" font-family="Times,serif" font-size="14.00" fill="#000000">2.39</text>
</g>
<!-- 2&#45;&#45;4 -->
<g id="edge30" class="edge">
<title>2&#45;&#45;4</title>
<path fill="none" stroke="#000000" d="M410.9468,-636.9672C452.7001,-631.5095 533.1867,-615.2907 581,-568.8 606.1606,-544.3354 617.4832,-503.4108 622.1293,-479.9624"/>
<text text-anchor="middle" x="621.75" y="-546.6" font-family="Times,serif" font-size="14.00" fill="#000000">16.74</text>
</g>
<!-- 2&#45;&#45;5 -->
<g id="edge29" class="edge">
<title>2&#45;&#45;5</title>
<path fill="none" stroke="#000000" d="M374.3246,-622.5302C347.0509,-574.4129 269.7698,-438.0707 242.5949,-390.1276"/>
<text text-anchor="middle" x="324.25" y="-502.2" font-family="Times,serif" font-size="14.00" fill="#000000">9.61</text>
</g>
<!-- 2&#45;&#45;3 -->
<g id="edge31" class="edge">
<title>2&#45;&#45;3</title>
<path fill="none" stroke="#000000" d="M405.0479,-627.991C435.9035,-610.9725 493.0884,-579.432 523.9469,-562.4119"/>
<text text-anchor="middle" x="494.75" y="-591" font-family="Times,serif" font-size="14.00" fill="#000000">13.95</text>
</g>
<!-- 3&#45;&#45;6 -->
<g id="edge35" class="edge">
<title>3&#45;&#45;6</title>
<path fill="none" stroke="#000000" d="M535.6235,-533.5719C521.7917,-509.7995 493.6607,-467.2468 458,-444 432.7089,-427.5131 412.3964,-448.7066 392.5,-426 361.2792,-390.3696 395.6146,-364.3772 378,-320.4 375.1334,-313.2432 370.5391,-306.1844 366.0042,-300.2392"/>
<text text-anchor="middle" x="408.75" y="-413.4" font-family="Times,serif" font-size="14.00" fill="#000000">24.90</text>
</g>
<!-- 3&#45;&#45;7 -->
<g id="edge34" class="edge">
<title>3&#45;&#45;7</title>
<path fill="none" stroke="#000000" d="M565.541,-538.9665C569.3265,-536.8656 573.2634,-534.7329 577,-532.8 616.1662,-512.5398 638.1722,-517.7274 661,-480 689.7445,-432.4943 716.0316,-279.5298 688,-231.6 679.5689,-217.1842 663.0077,-208.0952 648.8448,-202.6563"/>
<text text-anchor="middle" x="711.75" y="-369" font-family="Times,serif" font-size="14.00" fill="#000000">16.33</text>
</g>
<!-- 3&#45;&#45;8 -->
<g id="edge33" class="edge">
<title>3&#45;&#45;8</title>
<path fill="none" stroke="#000000" d="M544.8742,-532.4054C544.5119,-505.3328 543.1389,-453.205 538,-409.2 535.1689,-384.9567 540.3823,-376.2341 528,-355.2 509.2931,-323.4223 483.5053,-333.694 464,-302.4 425.4305,-240.5197 447.7096,-212.4094 426,-142.8 424.0833,-136.6542 421.6353,-130.0553 419.3241,-124.2073"/>
<text text-anchor="middle" x="524.25" y="-324.6" font-family="Times,serif" font-size="14.00" fill="#000000">1.39</text>
</g>
<!-- 3&#45;&#45;9 -->
<g id="edge32" class="edge">
<title>3&#45;&#45;9</title>
<path fill="none" stroke="#000000" d="M564.9101,-538.528C568.827,-536.4236 572.9727,-534.4024 577,-532.8 607.6479,-520.6056 619.8575,-530.2504 649,-514.8 711.1804,-481.834 714.3165,-455.8648 767,-409.2 852.3925,-333.5628 960,-354.074 960,-240 960,-240 960,-240 960,-106.8 960,-38.5163 423.068,-21.6282 295.1272,-18.5733"/>
<text text-anchor="middle" x="970.25" y="-280.2" font-family="Times,serif" font-size="14.00" fill="#000000">0.26</text>
</g>
<!-- 3&#45;&#45;4 -->
<g id="edge37" class="edge">
<title>3&#45;&#45;4</title>
<path fill="none" stroke="#000000" d="M554.2962,-533.6368C560.6163,-522.7932 569.605,-508.8345 579.5,-498 587.2437,-489.521 597.1135,-481.4547 605.6802,-475.1149"/>
<text text-anchor="middle" x="595.75" y="-502.2" font-family="Times,serif" font-size="14.00" fill="#000000">15.01</text>
</g>
<!-- 3&#45;&#45;5 -->
<g id="edge36" class="edge">
<title>3&#45;&#45;5</title>
<path fill="none" stroke="#000000" d="M518.1558,-547.7798C475.5288,-541.7499 391.655,-524.7114 337.5,-480 308.4693,-456.0317 317.9591,-435.4768 291,-409.2 280.4762,-398.9426 266.5394,-390.1757 254.9651,-383.8621"/>
<text text-anchor="middle" x="350.25" y="-457.8" font-family="Times,serif" font-size="14.00" fill="#000000">6.41</text>
</g>
<!-- 1&#45;&#45;6 -->
<g id="edge41" class="edge">
<title>1&#45;&#45;6</title>
<path fill="none" stroke="#000000" d="M457.5618,-710.6366C451.7151,-692.8965 444,-664.7265 444,-639.6 444,-639.6 444,-639.6 444,-506.4 444,-474.1578 429.3832,-467.2066 407,-444 396.7296,-433.3518 387.2792,-438.2605 379,-426 353.2301,-387.8378 350.5562,-331.383 351.0905,-302.6458"/>
<text text-anchor="middle" x="456.25" y="-502.2" font-family="Times,serif" font-size="14.00" fill="#000000">7.24</text>
</g>
<!-- 1&#45;&#45;7 -->
<g id="edge38" class="edge">
<title>1&#45;&#45;7</title>
<path fill="none" stroke="#000000" d="M488.5812,-720.3001C507.263,-713.7605 533.3497,-703.7941 555,-692.4 699.4969,-616.3543 766.3402,-583.8821 808,-426 831.8806,-335.4976 804.7936,-283.6492 727,-231.6 703.3843,-215.7995 672.081,-206.1556 650.2068,-200.8782"/>
<text text-anchor="middle" x="818.75" y="-457.8" font-family="Times,serif" font-size="14.00" fill="#000000">10.58</text>
</g>
<!-- 1&#45;&#45;8 -->
<g id="edge39" class="edge">
<title>1&#45;&#45;8</title>
<path fill="none" stroke="#000000" d="M467.9981,-710.5756C478.2962,-661.8586 503.53,-522.5489 483,-409.2 473.9665,-359.3249 455.9213,-351.412 443,-302.4 426.0838,-238.2348 417.0545,-159.6446 413.6348,-124.8495"/>
<text text-anchor="middle" x="501.75" y="-413.4" font-family="Times,serif" font-size="14.00" fill="#000000">19.32</text>
</g>
<!-- 1&#45;&#45;9 -->
<g id="edge45" class="edge">
<title>1&#45;&#45;9</title>
<path fill="none" stroke="#000000" d="M444.0856,-716.1387C440.1691,-714.0334 436.0247,-712.0091 432,-710.4 401.7725,-698.3148 390.7752,-705.5601 361,-692.4 165.44,-605.9659 46,-542.6096 46,-328.8 46,-328.8 46,-328.8 46,-106.8 46,-67.831 80.7327,-70.5772 116,-54 157.232,-34.6191 209.8079,-25.1717 241.0817,-20.9668"/>
<text text-anchor="middle" x="65.75" y="-369" font-family="Times,serif" font-size="14.00" fill="#000000">16.50</text>
</g>
<!-- 1&#45;&#45;4 -->
<g id="edge43" class="edge">
<title>1&#45;&#45;4</title>
<path fill="none" stroke="#000000" d="M485.7663,-717.7372C526.5381,-696.2926 612.8407,-643.5276 641,-568.8 652.305,-538.7993 641.3683,-501.2254 632.8594,-479.5814"/>
<text text-anchor="middle" x="644.25" y="-591" font-family="Times,serif" font-size="14.00" fill="#000000">9.62</text>
</g>
<!-- 1&#45;&#45;5 -->
<g id="edge40" class="edge">
<title>1&#45;&#45;5</title>
<path fill="none" stroke="#000000" d="M443.5548,-716.374C439.7596,-714.2926 435.7946,-712.2164 432,-710.4 412.5706,-701.0995 405.3128,-703.7421 387,-692.4 367.2505,-680.1681 362.6776,-675.6064 348,-657.6 278.3445,-572.1468 246.1453,-438.9399 236.3709,-391.0774"/>
<text text-anchor="middle" x="306.25" y="-546.6" font-family="Times,serif" font-size="14.00" fill="#000000">6.75</text>
</g>
<!-- 1&#45;&#45;2 -->
<g id="edge44" class="edge">
<title>1&#45;&#45;2</title>
<path fill="none" stroke="#000000" d="M439.6123,-720.4451C425.6779,-714.7181 408.9505,-705.6416 398.5,-692.4 390.7263,-682.5501 387.1141,-668.82 385.4387,-657.83"/>
<text text-anchor="middle" x="414.75" y="-679.8" font-family="Times,serif" font-size="14.00" fill="#000000">20.39</text>
</g>
<!-- 1&#45;&#45;3 -->
<g id="edge42" class="edge">
<title>1&#45;&#45;3</title>
<path fill="none" stroke="#000000" d="M480.5249,-713.8618C486.6927,-707.7388 493.3254,-700.2223 498,-692.4 522.3159,-651.7111 535.8847,-596.8368 541.646,-568.8499"/>
<text text-anchor="middle" x="543.75" y="-635.4" font-family="Times,serif" font-size="14.00" fill="#000000">14.91</text>
</g>
</g>
</svg>
