<svg width="600px" height="2185px"
 viewBox="0.00 0.00 134.00 488.00" xmlns="http://www.w3.org/2000/svg" xmlns:xlink="http://www.w3.org/1999/xlink">
<g id="graph0" class="graph" transform="scale(1.0 1.0) rotate(0) translate(4 484)">
<title>%0</title>
<polygon fill="#ffffff" stroke="transparent" points="-4,4 -4,-484 130,-484 130,4 -4,4"/>
<!-- 3 -->
<g id="node1" class="node">
<title>3</title>
<ellipse fill="none" stroke="#ff0000" cx="63" cy="-462" rx="27" ry="18"/>
<text text-anchor="middle" x="63" y="-457.8" font-family="Times,serif" font-size="14.00" fill="#000000">3</text>
</g>
<!-- 4 -->
<g id="node2" class="node">
<title>4</title>
<ellipse fill="none" stroke="#ff0000" cx="63" cy="-373.2" rx="27" ry="18"/>
<text text-anchor="middle" x="63" y="-369" font-family="Times,serif" font-size="14.00" fill="#000000">4</text>
</g>
<!-- 3&#45;&gt;4 -->
<g id="edge1" class="edge">
<title>3&#45;&gt;4</title>
<path fill="none" stroke="#000000" d="M63,-443.6006C63,-431.4949 63,-415.4076 63,-401.6674"/>
<polygon fill="#000000" stroke="#000000" points="66.5001,-401.272 63,-391.272 59.5001,-401.2721 66.5001,-401.272"/>
<text text-anchor="middle" x="82.25" y="-413.4" font-family="Times,serif" font-size="14.00" fill="#000000">304.00</text>
</g>
<!-- 2 -->
<g id="node3" class="node">
<title>2</title>
<ellipse fill="none" stroke="#ff0000" cx="63" cy="-284.4" rx="27" ry="18"/>
<text text-anchor="middle" x="63" y="-280.2" font-family="Times,serif" font-size="14.00" fill="#000000">2</text>
</g>
<!-- 4&#45;&gt;2 -->
<g id="edge2" class="edge">
<title>4&#45;&gt;2</title>
<path fill="none" stroke="#000000" d="M63,-354.8006C63,-342.6949 63,-326.6076 63,-312.8674"/>
<polygon fill="#000000" stroke="#000000" points="66.5001,-312.472 63,-302.472 59.5001,-312.4721 66.5001,-312.472"/>
<text text-anchor="middle" x="82.25" y="-324.6" font-family="Times,serif" font-size="14.00" fill="#000000">295.00</text>
</g>
<!-- 1 -->
<g id="node4" class="node">
<title>1</title>
<ellipse fill="none" stroke="#ff0000" cx="27" cy="-195.6" rx="27" ry="18"/>
<text text-anchor="middle" x="27" y="-191.4" font-family="Times,serif" font-size="14.00" fill="#000000">1</text>
</g>
<!-- 2&#45;&gt;1 -->
<g id="edge3" class="edge">
<title>2&#45;&gt;1</title>
<path fill="none" stroke="#000000" d="M50.1208,-268.3253C45.8773,-262.358 41.4858,-255.3455 38.5,-248.4 35.1653,-240.643 32.754,-231.8142 31.0289,-223.6261"/>
<polygon fill="#000000" stroke="#000000" points="34.4578,-222.92 29.193,-213.7259 27.5751,-224.1964 34.4578,-222.92"/>
<text text-anchor="middle" x="57.25" y="-235.8" font-family="Times,serif" font-size="14.00" fill="#000000">282.00</text>
</g>
<!-- 5 -->
<g id="node7" class="node">
<title>5</title>
<ellipse fill="none" stroke="#ff0000" cx="99" cy="-195.6" rx="27" ry="18"/>
<text text-anchor="middle" x="99" y="-191.4" font-family="Times,serif" font-size="14.00" fill="#000000">5</text>
</g>
<!-- 2&#45;&gt;5 -->
<g id="edge4" class="edge">
<title>2&#45;&gt;5</title>
<path fill="none" stroke="#000000" d="M70.1124,-266.856C75.2404,-254.2071 82.2567,-236.9002 88.0903,-222.5105"/>
<polygon fill="#000000" stroke="#000000" points="91.3888,-223.69 91.9023,-213.1076 84.9016,-221.06 91.3888,-223.69"/>
<text text-anchor="middle" x="103.25" y="-235.8" font-family="Times,serif" font-size="14.00" fill="#000000">306.00</text>
</g>
<!-- 69 -->
<g id="node5" class="node">
<title>69</title>
<ellipse fill="none" stroke="#000000" cx="27" cy="-106.8" rx="27" ry="18"/>
<text text-anchor="middle" x="27" y="-102.6" font-family="Times,serif" font-size="14.00" fill="#000000">69</text>
</g>
<!-- 1&#45;&gt;69 -->
<g id="edge5" class="edge">
<title>1&#45;&gt;69</title>
<path fill="none" stroke="#000000" d="M27,-177.2006C27,-165.0949 27,-149.0076 27,-135.2674"/>
<polygon fill="#000000" stroke="#000000" points="30.5001,-134.872 27,-124.872 23.5001,-134.8721 30.5001,-134.872"/>
<text text-anchor="middle" x="46.25" y="-147" font-family="Times,serif" font-size="14.00" fill="#000000">199.00</text>
</g>
<!-- 6 -->
<g id="node6" class="node">
<title>6</title>
<ellipse fill="none" stroke="#ff0000" cx="27" cy="-18" rx="27" ry="18"/>
<text text-anchor="middle" x="27" y="-13.8" font-family="Times,serif" font-size="14.00" fill="#000000">6</text>
</g>
<!-- 69&#45;&gt;6 -->
<g id="edge6" class="edge">
<title>69&#45;&gt;6</title>
<path fill="none" stroke="#000000" d="M27,-88.4006C27,-76.2949 27,-60.2076 27,-46.4674"/>
<polygon fill="#000000" stroke="#000000" points="30.5001,-46.072 27,-36.072 23.5001,-46.0721 30.5001,-46.072"/>
<text text-anchor="middle" x="46.25" y="-58.2" font-family="Times,serif" font-size="14.00" fill="#000000">192.00</text>
</g>
</g>
</svg>
