<svg width="1920px" height="4442px"
 viewBox="0.00 0.00 134.00 310.40" xmlns="http://www.w3.org/2000/svg" xmlns:xlink="http://www.w3.org/1999/xlink">
<g id="graph0" class="graph" transform="scale(1.0 1.0) rotate(0) translate(4 306.4)">
<title>%0</title>
<polygon fill="#ffffff" stroke="transparent" points="-4,4 -4,-306.4 130,-306.4 130,4 -4,4"/>
<!-- 2 -->
<g id="node1" class="node">
<title>2</title>
<ellipse fill="none" stroke="#ff0000" cx="63" cy="-284.4" rx="27" ry="18"/>
<text text-anchor="middle" x="63" y="-280.2" font-family="Times,serif" font-size="14.00" fill="#000000">2</text>
</g>
<!-- 35 -->
<g id="node2" class="node">
<title>35</title>
<ellipse fill="none" stroke="#000000" cx="63" cy="-195.6" rx="27" ry="18"/>
<text text-anchor="middle" x="63" y="-191.4" font-family="Times,serif" font-size="14.00" fill="#000000">35</text>
</g>
<!-- 2&#45;&gt;35 -->
<g id="edge1" class="edge">
<title>2&#45;&gt;35</title>
<path fill="none" stroke="#000000" d="M63,-266.0006C63,-253.8949 63,-237.8076 63,-224.0674"/>
<polygon fill="#000000" stroke="#000000" points="66.5001,-223.672 63,-213.672 59.5001,-223.6721 66.5001,-223.672"/>
<text text-anchor="middle" x="82.25" y="-235.8" font-family="Times,serif" font-size="14.00" fill="#000000">190.00</text>
</g>
<!-- 62 -->
<g id="node3" class="node">
<title>62</title>
<ellipse fill="none" stroke="#000000" cx="27" cy="-106.8" rx="27" ry="18"/>
<text text-anchor="middle" x="27" y="-102.6" font-family="Times,serif" font-size="14.00" fill="#000000">62</text>
</g>
<!-- 35&#45;&gt;62 -->
<g id="edge2" class="edge">
<title>35&#45;&gt;62</title>
<path fill="none" stroke="#000000" d="M54.2231,-178.5718C51.2974,-172.6356 48.1191,-165.8866 45.5,-159.6 42.1008,-151.4409 38.7806,-142.4107 35.9128,-134.1596"/>
<polygon fill="#000000" stroke="#000000" points="39.1937,-132.9361 32.664,-124.5926 32.5654,-135.1869 39.1937,-132.9361"/>
<text text-anchor="middle" x="60.75" y="-147" font-family="Times,serif" font-size="14.00" fill="#000000">92.00</text>
</g>
<!-- 7 -->
<g id="node5" class="node">
<title>7</title>
<ellipse fill="none" stroke="#000000" cx="99" cy="-106.8" rx="27" ry="18"/>
<text text-anchor="middle" x="99" y="-102.6" font-family="Times,serif" font-size="14.00" fill="#000000">7</text>
</g>
<!-- 35&#45;&gt;7 -->
<g id="edge3" class="edge">
<title>35&#45;&gt;7</title>
<path fill="none" stroke="#000000" d="M70.1124,-178.056C75.2404,-165.4071 82.2567,-148.1002 88.0903,-133.7105"/>
<polygon fill="#000000" stroke="#000000" points="91.3888,-134.89 91.9023,-124.3076 84.9016,-132.26 91.3888,-134.89"/>
<text text-anchor="middle" x="99.75" y="-147" font-family="Times,serif" font-size="14.00" fill="#000000">93.00</text>
</g>
<!-- 5 -->
<g id="node4" class="node">
<title>5</title>
<ellipse fill="none" stroke="#ff0000" cx="27" cy="-18" rx="27" ry="18"/>
<text text-anchor="middle" x="27" y="-13.8" font-family="Times,serif" font-size="14.00" fill="#000000">5</text>
</g>
<!-- 62&#45;&gt;5 -->
<g id="edge4" class="edge">
<title>62&#45;&gt;5</title>
<path fill="none" stroke="#000000" d="M27,-88.4006C27,-76.2949 27,-60.2076 27,-46.4674"/>
<polygon fill="#000000" stroke="#000000" points="30.5001,-46.072 27,-36.072 23.5001,-46.0721 30.5001,-46.072"/>
<text text-anchor="middle" x="46.25" y="-58.2" font-family="Times,serif" font-size="14.00" fill="#000000">195.00</text>
</g>
</g>
</svg>
