<svg width="1920px" height="2507px"
 viewBox="0.00 0.00 170.00 221.60" xmlns="http://www.w3.org/2000/svg" xmlns:xlink="http://www.w3.org/1999/xlink">
<g id="graph0" class="graph" transform="scale(1.0 1.0) rotate(0) translate(4 217.6)">
<title>%0</title>
<polygon fill="#ffffff" stroke="transparent" points="-4,4 -4,-217.6 166,-217.6 166,4 -4,4"/>
<!-- 62 -->
<g id="node1" class="node">
<title>62</title>
<ellipse fill="none" stroke="#000000" cx="99" cy="-195.6" rx="27" ry="18"/>
<text text-anchor="middle" x="99" y="-191.4" font-family="Times,serif" font-size="14.00" fill="#000000">62</text>
</g>
<!-- 35 -->
<g id="node2" class="node">
<title>35</title>
<ellipse fill="none" stroke="#000000" cx="63" cy="-106.8" rx="27" ry="18"/>
<text text-anchor="middle" x="63" y="-102.6" font-family="Times,serif" font-size="14.00" fill="#000000">35</text>
</g>
<!-- 62&#45;&gt;35 -->
<g id="edge1" class="edge">
<title>62&#45;&gt;35</title>
<path fill="none" stroke="#000000" d="M90.2231,-178.5718C87.2974,-172.6356 84.1191,-165.8866 81.5,-159.6 78.1008,-151.4409 74.7806,-142.4107 71.9128,-134.1596"/>
<polygon fill="#000000" stroke="#000000" points="75.1937,-132.9361 68.664,-124.5926 68.5654,-135.1869 75.1937,-132.9361"/>
<text text-anchor="middle" x="97.75" y="-147" font-family="Times,serif" font-size="14.00" fill="#000000">92.00</text>
</g>
<!-- 5 -->
<g id="node5" class="node">
<title>5</title>
<ellipse fill="none" stroke="#ff0000" cx="135" cy="-106.8" rx="27" ry="18"/>
<text text-anchor="middle" x="135" y="-102.6" font-family="Times,serif" font-size="14.00" fill="#000000">5</text>
</g>
<!-- 62&#45;&gt;5 -->
<g id="edge2" class="edge">
<title>62&#45;&gt;5</title>
<path fill="none" stroke="#000000" d="M106.1124,-178.056C111.2404,-165.4071 118.2567,-148.1002 124.0903,-133.7105"/>
<polygon fill="#000000" stroke="#000000" points="127.3888,-134.89 127.9023,-124.3076 120.9016,-132.26 127.3888,-134.89"/>
<text text-anchor="middle" x="140.25" y="-147" font-family="Times,serif" font-size="14.00" fill="#000000">195.00</text>
</g>
<!-- 2 -->
<g id="node3" class="node">
<title>2</title>
<ellipse fill="none" stroke="#ff0000" cx="27" cy="-18" rx="27" ry="18"/>
<text text-anchor="middle" x="27" y="-13.8" font-family="Times,serif" font-size="14.00" fill="#000000">2</text>
</g>
<!-- 35&#45;&gt;2 -->
<g id="edge3" class="edge">
<title>35&#45;&gt;2</title>
<path fill="none" stroke="#000000" d="M50.1208,-90.7253C45.8773,-84.758 41.4858,-77.7455 38.5,-70.8 35.1653,-63.043 32.754,-54.2142 31.0289,-46.0261"/>
<polygon fill="#000000" stroke="#000000" points="34.4578,-45.32 29.193,-36.1259 27.5751,-46.5964 34.4578,-45.32"/>
<text text-anchor="middle" x="58.25" y="-58.2" font-family="Times,serif" font-size="14.00" fill="#000000">190.00</text>
</g>
<!-- 7 -->
<g id="node4" class="node">
<title>7</title>
<ellipse fill="none" stroke="#000000" cx="99" cy="-18" rx="27" ry="18"/>
<text text-anchor="middle" x="99" y="-13.8" font-family="Times,serif" font-size="14.00" fill="#000000">7</text>
</g>
<!-- 35&#45;&gt;7 -->
<g id="edge4" class="edge">
<title>35&#45;&gt;7</title>
<path fill="none" stroke="#000000" d="M70.1124,-89.256C75.2404,-76.6071 82.2567,-59.3002 88.0903,-44.9105"/>
<polygon fill="#000000" stroke="#000000" points="91.3888,-46.09 91.9023,-35.5076 84.9016,-43.46 91.3888,-46.09"/>
<text text-anchor="middle" x="100.75" y="-58.2" font-family="Times,serif" font-size="14.00" fill="#000000">93.00</text>
</g>
</g>
</svg>
