<svg width="1920px" height="3744px"
 viewBox="0.00 0.00 478.00 932.00" xmlns="http://www.w3.org/2000/svg" xmlns:xlink="http://www.w3.org/1999/xlink">
<g id="graph0" class="graph" transform="scale(1.0 1.0) rotate(0) translate(4 928)">
<title>%0</title>
<polygon fill="#ffffff" stroke="transparent" points="-4,4 -4,-928 474,-928 474,4 -4,4"/>
<!-- 8 -->
<g id="node1" class="node">
<title>8</title>
<ellipse fill="none" stroke="#ff0000" cx="335" cy="-906" rx="27" ry="18"/>
<text text-anchor="middle" x="335" y="-901.8" font-family="Times,serif" font-size="14.00" fill="#000000">8</text>
</g>
<!-- 1 -->
<g id="node2" class="node">
<title>1</title>
<ellipse fill="none" stroke="#ff0000" cx="227" cy="-817.2" rx="27" ry="18"/>
<text text-anchor="middle" x="227" y="-813" font-family="Times,serif" font-size="14.00" fill="#000000">1</text>
</g>
<!-- 8&#45;&gt;1 -->
<g id="edge1" class="edge">
<title>8&#45;&gt;1</title>
<path fill="none" stroke="#000000" d="M315.8447,-892.7811C306.5156,-886.1649 295.2379,-877.8991 285.5,-870 273.477,-860.2473 260.653,-848.8003 250.0853,-839.0623"/>
<polygon fill="#000000" stroke="#000000" points="252.2014,-836.2508 242.4945,-832.0051 247.4351,-841.3775 252.2014,-836.2508"/>
<text text-anchor="middle" x="298.25" y="-857.4" font-family="Times,serif" font-size="14.00" fill="#000000">8.61</text>
</g>
<!-- 14 -->
<g id="node22" class="node">
<title>14</title>
<ellipse fill="none" stroke="#ff0000" cx="299" cy="-817.2" rx="27" ry="18"/>
<text text-anchor="middle" x="299" y="-813" font-family="Times,serif" font-size="14.00" fill="#000000">14</text>
</g>
<!-- 8&#45;&gt;14 -->
<g id="edge2" class="edge">
<title>8&#45;&gt;14</title>
<path fill="none" stroke="#000000" d="M327.8876,-888.456C322.7596,-875.8071 315.7433,-858.5002 309.9097,-844.1105"/>
<polygon fill="#000000" stroke="#000000" points="313.0984,-842.66 306.0977,-834.7076 306.6112,-845.29 313.0984,-842.66"/>
<text text-anchor="middle" x="333.25" y="-857.4" font-family="Times,serif" font-size="14.00" fill="#000000">1.12</text>
</g>
<!-- 11 -->
<g id="node23" class="node">
<title>11</title>
<ellipse fill="none" stroke="#000000" cx="371" cy="-817.2" rx="27" ry="18"/>
<text text-anchor="middle" x="371" y="-813" font-family="Times,serif" font-size="14.00" fill="#000000">11</text>
</g>
<!-- 8&#45;&gt;11 -->
<g id="edge3" class="edge">
<title>8&#45;&gt;11</title>
<path fill="none" stroke="#000000" d="M342.1124,-888.456C347.2404,-875.8071 354.2567,-858.5002 360.0903,-844.1105"/>
<polygon fill="#000000" stroke="#000000" points="363.3888,-845.29 363.9023,-834.7076 356.9016,-842.66 363.3888,-845.29"/>
<text text-anchor="middle" x="372.75" y="-857.4" font-family="Times,serif" font-size="14.00" fill="#000000">15.89</text>
</g>
<!-- 4 -->
<g id="node24" class="node">
<title>4</title>
<ellipse fill="none" stroke="#000000" cx="443" cy="-817.2" rx="27" ry="18"/>
<text text-anchor="middle" x="443" y="-813" font-family="Times,serif" font-size="14.00" fill="#000000">4</text>
</g>
<!-- 8&#45;&gt;4 -->
<g id="edge4" class="edge">
<title>8&#45;&gt;4</title>
<path fill="none" stroke="#000000" d="M355.8565,-894.4626C367.0174,-887.8925 380.7425,-879.16 392,-870 402.9204,-861.1143 413.9127,-850.0655 422.8814,-840.375"/>
<polygon fill="#000000" stroke="#000000" points="425.478,-842.7219 429.6003,-832.9619 420.2913,-838.021 425.478,-842.7219"/>
<text text-anchor="middle" x="422.25" y="-857.4" font-family="Times,serif" font-size="14.00" fill="#000000">4.29</text>
</g>
<!-- 2 -->
<g id="node3" class="node">
<title>2</title>
<ellipse fill="none" stroke="#000000" cx="227" cy="-728.4" rx="27" ry="18"/>
<text text-anchor="middle" x="227" y="-724.2" font-family="Times,serif" font-size="14.00" fill="#000000">2</text>
</g>
<!-- 1&#45;&gt;2 -->
<g id="edge5" class="edge">
<title>1&#45;&gt;2</title>
<path fill="none" stroke="#000000" d="M227,-798.8006C227,-786.6949 227,-770.6076 227,-756.8674"/>
<polygon fill="#000000" stroke="#000000" points="230.5001,-756.472 227,-746.472 223.5001,-756.4721 230.5001,-756.472"/>
<text text-anchor="middle" x="239.25" y="-768.6" font-family="Times,serif" font-size="14.00" fill="#000000">7.46</text>
</g>
<!-- 3 -->
<g id="node4" class="node">
<title>3</title>
<ellipse fill="none" stroke="#ff0000" cx="227" cy="-639.6" rx="27" ry="18"/>
<text text-anchor="middle" x="227" y="-635.4" font-family="Times,serif" font-size="14.00" fill="#000000">3</text>
</g>
<!-- 2&#45;&gt;3 -->
<g id="edge6" class="edge">
<title>2&#45;&gt;3</title>
<path fill="none" stroke="#000000" d="M227,-710.0006C227,-697.8949 227,-681.8076 227,-668.0674"/>
<polygon fill="#000000" stroke="#000000" points="230.5001,-667.672 227,-657.672 223.5001,-667.6721 230.5001,-667.672"/>
<text text-anchor="middle" x="242.75" y="-679.8" font-family="Times,serif" font-size="14.00" fill="#000000">19.36</text>
</g>
<!-- 9 -->
<g id="node5" class="node">
<title>9</title>
<ellipse fill="none" stroke="#ff0000" cx="192" cy="-550.8" rx="27" ry="18"/>
<text text-anchor="middle" x="192" y="-546.6" font-family="Times,serif" font-size="14.00" fill="#000000">9</text>
</g>
<!-- 3&#45;&gt;9 -->
<g id="edge7" class="edge">
<title>3&#45;&gt;9</title>
<path fill="none" stroke="#000000" d="M215.6722,-622.9147C212.0341,-617.006 208.241,-610.1866 205.5,-603.6 202.2283,-595.7382 199.5885,-586.8783 197.5406,-578.6939"/>
<polygon fill="#000000" stroke="#000000" points="200.9197,-577.7707 195.2602,-568.8141 194.099,-579.3451 200.9197,-577.7707"/>
<text text-anchor="middle" x="221.75" y="-591" font-family="Times,serif" font-size="14.00" fill="#000000">11.38</text>
</g>
<!-- 23 -->
<g id="node18" class="node">
<title>23</title>
<ellipse fill="none" stroke="#ff0000" cx="272" cy="-550.8" rx="27" ry="18"/>
<text text-anchor="middle" x="272" y="-546.6" font-family="Times,serif" font-size="14.00" fill="#000000">23</text>
</g>
<!-- 3&#45;&gt;23 -->
<g id="edge8" class="edge">
<title>3&#45;&gt;23</title>
<path fill="none" stroke="#000000" d="M235.6765,-622.4785C242.2131,-609.5795 251.2911,-591.6655 258.7365,-576.9734"/>
<polygon fill="#000000" stroke="#000000" points="261.9519,-578.3711 263.3502,-567.869 255.7078,-575.2069 261.9519,-578.3711"/>
<text text-anchor="middle" x="269.75" y="-591" font-family="Times,serif" font-size="14.00" fill="#000000">17.44</text>
</g>
<!-- 0 -->
<g id="node6" class="node">
<title>0</title>
<ellipse fill="none" stroke="#ff0000" cx="99" cy="-462" rx="27" ry="18"/>
<text text-anchor="middle" x="99" y="-457.8" font-family="Times,serif" font-size="14.00" fill="#000000">0</text>
</g>
<!-- 9&#45;&gt;0 -->
<g id="edge9" class="edge">
<title>9&#45;&gt;0</title>
<path fill="none" stroke="#000000" d="M172.77,-537.6486C163.8224,-531.1789 153.2494,-523.017 144.5,-514.8 135.0854,-505.9582 125.6119,-495.311 117.7652,-485.9007"/>
<polygon fill="#000000" stroke="#000000" points="120.3685,-483.5551 111.3308,-478.026 114.9479,-487.9843 120.3685,-483.5551"/>
<text text-anchor="middle" x="160.75" y="-502.2" font-family="Times,serif" font-size="14.00" fill="#000000">20.51</text>
</g>
<!-- 13 -->
<g id="node14" class="node">
<title>13</title>
<ellipse fill="none" stroke="#000000" cx="171" cy="-462" rx="27" ry="18"/>
<text text-anchor="middle" x="171" y="-457.8" font-family="Times,serif" font-size="14.00" fill="#000000">13</text>
</g>
<!-- 9&#45;&gt;13 -->
<g id="edge10" class="edge">
<title>9&#45;&gt;13</title>
<path fill="none" stroke="#000000" d="M187.7503,-532.83C184.847,-520.553 180.9412,-504.0372 177.6316,-490.0421"/>
<polygon fill="#000000" stroke="#000000" points="180.9509,-488.8693 175.2433,-479.9433 174.1388,-490.4804 180.9509,-488.8693"/>
<text text-anchor="middle" x="196.25" y="-502.2" font-family="Times,serif" font-size="14.00" fill="#000000">7.63</text>
</g>
<!-- 18 -->
<g id="node16" class="node">
<title>18</title>
<ellipse fill="none" stroke="#ff0000" cx="243" cy="-462" rx="27" ry="18"/>
<text text-anchor="middle" x="243" y="-457.8" font-family="Times,serif" font-size="14.00" fill="#000000">18</text>
</g>
<!-- 9&#45;&gt;18 -->
<g id="edge11" class="edge">
<title>9&#45;&gt;18</title>
<path fill="none" stroke="#000000" d="M201.8333,-533.6785C209.3121,-520.6566 219.7262,-502.5238 228.2086,-487.7545"/>
<polygon fill="#000000" stroke="#000000" points="231.2516,-489.4837 233.1969,-479.069 225.1815,-485.9975 231.2516,-489.4837"/>
<text text-anchor="middle" x="238.75" y="-502.2" font-family="Times,serif" font-size="14.00" fill="#000000">24.22</text>
</g>
<!-- 21 -->
<g id="node7" class="node">
<title>21</title>
<ellipse fill="none" stroke="#000000" cx="27" cy="-373.2" rx="27" ry="18"/>
<text text-anchor="middle" x="27" y="-369" font-family="Times,serif" font-size="14.00" fill="#000000">21</text>
</g>
<!-- 0&#45;&gt;21 -->
<g id="edge12" class="edge">
<title>0&#45;&gt;21</title>
<path fill="none" stroke="#000000" d="M86.1278,-446.1243C75.1384,-432.5707 59.1627,-412.8674 46.587,-397.3573"/>
<polygon fill="#000000" stroke="#000000" points="49.0202,-394.8009 40.0035,-389.2376 43.5829,-399.2095 49.0202,-394.8009"/>
<text text-anchor="middle" x="82.25" y="-413.4" font-family="Times,serif" font-size="14.00" fill="#000000">1.54</text>
</g>
<!-- 20 -->
<g id="node8" class="node">
<title>20</title>
<ellipse fill="none" stroke="#ff0000" cx="99" cy="-373.2" rx="27" ry="18"/>
<text text-anchor="middle" x="99" y="-369" font-family="Times,serif" font-size="14.00" fill="#000000">20</text>
</g>
<!-- 0&#45;&gt;20 -->
<g id="edge13" class="edge">
<title>0&#45;&gt;20</title>
<path fill="none" stroke="#000000" d="M99,-443.6006C99,-431.4949 99,-415.4076 99,-401.6674"/>
<polygon fill="#000000" stroke="#000000" points="102.5001,-401.272 99,-391.272 95.5001,-401.2721 102.5001,-401.272"/>
<text text-anchor="middle" x="114.75" y="-413.4" font-family="Times,serif" font-size="14.00" fill="#000000">24.44</text>
</g>
<!-- 7 -->
<g id="node9" class="node">
<title>7</title>
<ellipse fill="none" stroke="#ff0000" cx="57" cy="-284.4" rx="27" ry="18"/>
<text text-anchor="middle" x="57" y="-280.2" font-family="Times,serif" font-size="14.00" fill="#000000">7</text>
</g>
<!-- 20&#45;&gt;7 -->
<g id="edge14" class="edge">
<title>20&#45;&gt;7</title>
<path fill="none" stroke="#000000" d="M90.7022,-355.656C84.6807,-342.925 76.4275,-325.4753 69.5955,-311.0306"/>
<polygon fill="#000000" stroke="#000000" points="72.5773,-309.1488 65.1377,-301.6054 66.2494,-312.1418 72.5773,-309.1488"/>
<text text-anchor="middle" x="94.25" y="-324.6" font-family="Times,serif" font-size="14.00" fill="#000000">9.22</text>
</g>
<!-- 5 -->
<g id="node13" class="node">
<title>5</title>
<ellipse fill="none" stroke="#ff0000" cx="129" cy="-284.4" rx="27" ry="18"/>
<text text-anchor="middle" x="129" y="-280.2" font-family="Times,serif" font-size="14.00" fill="#000000">5</text>
</g>
<!-- 20&#45;&gt;5 -->
<g id="edge15" class="edge">
<title>20&#45;&gt;5</title>
<path fill="none" stroke="#000000" d="M105.0709,-355.23C109.2868,-342.7511 114.9822,-325.8928 119.7589,-311.7536"/>
<polygon fill="#000000" stroke="#000000" points="123.1556,-312.6344 123.0405,-302.0402 116.5239,-310.3939 123.1556,-312.6344"/>
<text text-anchor="middle" x="129.25" y="-324.6" font-family="Times,serif" font-size="14.00" fill="#000000">5.88</text>
</g>
<!-- 24 -->
<g id="node10" class="node">
<title>24</title>
<ellipse fill="none" stroke="#000000" cx="57" cy="-195.6" rx="27" ry="18"/>
<text text-anchor="middle" x="57" y="-191.4" font-family="Times,serif" font-size="14.00" fill="#000000">24</text>
</g>
<!-- 7&#45;&gt;24 -->
<g id="edge16" class="edge">
<title>7&#45;&gt;24</title>
<path fill="none" stroke="#000000" d="M57,-266.0006C57,-253.8949 57,-237.8076 57,-224.0674"/>
<polygon fill="#000000" stroke="#000000" points="60.5001,-223.672 57,-213.672 53.5001,-223.6721 60.5001,-223.672"/>
<text text-anchor="middle" x="69.25" y="-235.8" font-family="Times,serif" font-size="14.00" fill="#000000">3.26</text>
</g>
<!-- 17 -->
<g id="node11" class="node">
<title>17</title>
<ellipse fill="none" stroke="#ff0000" cx="57" cy="-106.8" rx="27" ry="18"/>
<text text-anchor="middle" x="57" y="-102.6" font-family="Times,serif" font-size="14.00" fill="#000000">17</text>
</g>
<!-- 24&#45;&gt;17 -->
<g id="edge17" class="edge">
<title>24&#45;&gt;17</title>
<path fill="none" stroke="#000000" d="M57,-177.2006C57,-165.0949 57,-149.0076 57,-135.2674"/>
<polygon fill="#000000" stroke="#000000" points="60.5001,-134.872 57,-124.872 53.5001,-134.8721 60.5001,-134.872"/>
<text text-anchor="middle" x="69.25" y="-147" font-family="Times,serif" font-size="14.00" fill="#000000">4.31</text>
</g>
<!-- 22 -->
<g id="node12" class="node">
<title>22</title>
<ellipse fill="none" stroke="#ff0000" cx="57" cy="-18" rx="27" ry="18"/>
<text text-anchor="middle" x="57" y="-13.8" font-family="Times,serif" font-size="14.00" fill="#000000">22</text>
</g>
<!-- 17&#45;&gt;22 -->
<g id="edge18" class="edge">
<title>17&#45;&gt;22</title>
<path fill="none" stroke="#000000" d="M57,-88.4006C57,-76.2949 57,-60.2076 57,-46.4674"/>
<polygon fill="#000000" stroke="#000000" points="60.5001,-46.072 57,-36.072 53.5001,-46.0721 60.5001,-46.072"/>
<text text-anchor="middle" x="69.25" y="-58.2" font-family="Times,serif" font-size="14.00" fill="#000000">0.25</text>
</g>
<!-- 10 -->
<g id="node15" class="node">
<title>10</title>
<ellipse fill="none" stroke="#ff0000" cx="171" cy="-373.2" rx="27" ry="18"/>
<text text-anchor="middle" x="171" y="-369" font-family="Times,serif" font-size="14.00" fill="#000000">10</text>
</g>
<!-- 13&#45;&gt;10 -->
<g id="edge19" class="edge">
<title>13&#45;&gt;10</title>
<path fill="none" stroke="#000000" d="M171,-443.6006C171,-431.4949 171,-415.4076 171,-401.6674"/>
<polygon fill="#000000" stroke="#000000" points="174.5001,-401.272 171,-391.272 167.5001,-401.2721 174.5001,-401.272"/>
<text text-anchor="middle" x="186.75" y="-413.4" font-family="Times,serif" font-size="14.00" fill="#000000">11.59</text>
</g>
<!-- 12 -->
<g id="node17" class="node">
<title>12</title>
<ellipse fill="none" stroke="#ff0000" cx="243" cy="-373.2" rx="27" ry="18"/>
<text text-anchor="middle" x="243" y="-369" font-family="Times,serif" font-size="14.00" fill="#000000">12</text>
</g>
<!-- 18&#45;&gt;12 -->
<g id="edge20" class="edge">
<title>18&#45;&gt;12</title>
<path fill="none" stroke="#000000" d="M243,-443.6006C243,-431.4949 243,-415.4076 243,-401.6674"/>
<polygon fill="#000000" stroke="#000000" points="246.5001,-401.272 243,-391.272 239.5001,-401.2721 246.5001,-401.272"/>
<text text-anchor="middle" x="255.25" y="-413.4" font-family="Times,serif" font-size="14.00" fill="#000000">4.34</text>
</g>
<!-- 16 -->
<g id="node19" class="node">
<title>16</title>
<ellipse fill="none" stroke="#ff0000" cx="315" cy="-462" rx="27" ry="18"/>
<text text-anchor="middle" x="315" y="-457.8" font-family="Times,serif" font-size="14.00" fill="#000000">16</text>
</g>
<!-- 23&#45;&gt;16 -->
<g id="edge21" class="edge">
<title>23&#45;&gt;16</title>
<path fill="none" stroke="#000000" d="M280.4954,-533.256C286.7195,-520.4025 295.2726,-502.7393 302.3059,-488.2148"/>
<polygon fill="#000000" stroke="#000000" points="305.4603,-489.7311 306.6685,-479.2054 299.1601,-486.6803 305.4603,-489.7311"/>
<text text-anchor="middle" x="313.75" y="-502.2" font-family="Times,serif" font-size="14.00" fill="#000000">22.61</text>
</g>
<!-- 6 -->
<g id="node20" class="node">
<title>6</title>
<ellipse fill="none" stroke="#ff0000" cx="315" cy="-373.2" rx="27" ry="18"/>
<text text-anchor="middle" x="315" y="-369" font-family="Times,serif" font-size="14.00" fill="#000000">6</text>
</g>
<!-- 16&#45;&gt;6 -->
<g id="edge22" class="edge">
<title>16&#45;&gt;6</title>
<path fill="none" stroke="#000000" d="M315,-443.6006C315,-431.4949 315,-415.4076 315,-401.6674"/>
<polygon fill="#000000" stroke="#000000" points="318.5001,-401.272 315,-391.272 311.5001,-401.2721 318.5001,-401.272"/>
<text text-anchor="middle" x="327.25" y="-413.4" font-family="Times,serif" font-size="14.00" fill="#000000">9.32</text>
</g>
<!-- 19 -->
<g id="node21" class="node">
<title>19</title>
<ellipse fill="none" stroke="#000000" cx="315" cy="-284.4" rx="27" ry="18"/>
<text text-anchor="middle" x="315" y="-280.2" font-family="Times,serif" font-size="14.00" fill="#000000">19</text>
</g>
<!-- 6&#45;&gt;19 -->
<g id="edge23" class="edge">
<title>6&#45;&gt;19</title>
<path fill="none" stroke="#000000" d="M315,-354.8006C315,-342.6949 315,-326.6076 315,-312.8674"/>
<polygon fill="#000000" stroke="#000000" points="318.5001,-312.472 315,-302.472 311.5001,-312.4721 318.5001,-312.472"/>
<text text-anchor="middle" x="330.75" y="-324.6" font-family="Times,serif" font-size="14.00" fill="#000000">16.28</text>
</g>
<!-- 15 -->
<g id="node25" class="node">
<title>15</title>
<ellipse fill="none" stroke="#000000" cx="443" cy="-728.4" rx="27" ry="18"/>
<text text-anchor="middle" x="443" y="-724.2" font-family="Times,serif" font-size="14.00" fill="#000000">15</text>
</g>
<!-- 4&#45;&gt;15 -->
<g id="edge24" class="edge">
<title>4&#45;&gt;15</title>
<path fill="none" stroke="#000000" d="M443,-798.8006C443,-786.6949 443,-770.6076 443,-756.8674"/>
<polygon fill="#000000" stroke="#000000" points="446.5001,-756.472 443,-746.472 439.5001,-756.4721 446.5001,-756.472"/>
<text text-anchor="middle" x="455.25" y="-768.6" font-family="Times,serif" font-size="14.00" fill="#000000">6.62</text>
</g>
</g>
</svg>
