<svg width="1920px" height="2386px"
 viewBox="0.00 0.00 535.50 665.60" xmlns="http://www.w3.org/2000/svg" xmlns:xlink="http://www.w3.org/1999/xlink">
<g id="graph0" class="graph" transform="scale(1.0 1.0) rotate(0) translate(4 661.6)">
<title>%0</title>
<polygon fill="#ffffff" stroke="transparent" points="-4,4 -4,-661.6 531.5,-661.6 531.5,4 -4,4"/>
<!-- 12 -->
<g id="node1" class="node">
<title>12</title>
<ellipse fill="none" stroke="#ff0000" cx="394" cy="-639.6" rx="27" ry="18"/>
<text text-anchor="middle" x="394" y="-635.4" font-family="Times,serif" font-size="14.00" fill="#000000">12</text>
</g>
<!-- 1 -->
<g id="node2" class="node">
<title>1</title>
<ellipse fill="none" stroke="#000000" cx="272" cy="-550.8" rx="27" ry="18"/>
<text text-anchor="middle" x="272" y="-546.6" font-family="Times,serif" font-size="14.00" fill="#000000">1</text>
</g>
<!-- 12&#45;&gt;1 -->
<g id="edge1" class="edge">
<title>12&#45;&gt;1</title>
<path fill="none" stroke="#000000" d="M373.112,-628.0429C361.4633,-621.3332 346.8564,-612.4736 334.5,-603.6 321.1308,-593.9992 307.0594,-582.272 295.6606,-572.3105"/>
<polygon fill="#000000" stroke="#000000" points="297.6889,-569.4317 287.881,-565.4247 293.0494,-574.6734 297.6889,-569.4317"/>
<text text-anchor="middle" x="350.75" y="-591" font-family="Times,serif" font-size="14.00" fill="#000000">22.93</text>
</g>
<!-- 0 -->
<g id="node11" class="node">
<title>0</title>
<ellipse fill="none" stroke="#ff0000" cx="352" cy="-550.8" rx="27" ry="18"/>
<text text-anchor="middle" x="352" y="-546.6" font-family="Times,serif" font-size="14.00" fill="#000000">0</text>
</g>
<!-- 12&#45;&gt;0 -->
<g id="edge2" class="edge">
<title>12&#45;&gt;0</title>
<path fill="none" stroke="#000000" d="M385.7022,-622.056C379.6807,-609.325 371.4275,-591.8753 364.5955,-577.4306"/>
<polygon fill="#000000" stroke="#000000" points="367.5773,-575.5488 360.1377,-568.0054 361.2494,-578.5418 367.5773,-575.5488"/>
<text text-anchor="middle" x="389.25" y="-591" font-family="Times,serif" font-size="14.00" fill="#000000">5.31</text>
</g>
<!-- 7 -->
<g id="node15" class="node">
<title>7</title>
<ellipse fill="none" stroke="#000000" cx="424" cy="-550.8" rx="27" ry="18"/>
<text text-anchor="middle" x="424" y="-546.6" font-family="Times,serif" font-size="14.00" fill="#000000">7</text>
</g>
<!-- 12&#45;&gt;7 -->
<g id="edge3" class="edge">
<title>12&#45;&gt;7</title>
<path fill="none" stroke="#000000" d="M400.0709,-621.63C404.2868,-609.1511 409.9822,-592.2928 414.7589,-578.1536"/>
<polygon fill="#000000" stroke="#000000" points="418.1556,-579.0344 418.0405,-568.4402 411.5239,-576.7939 418.1556,-579.0344"/>
<text text-anchor="middle" x="424.25" y="-591" font-family="Times,serif" font-size="14.00" fill="#000000">8.22</text>
</g>
<!-- 24 -->
<g id="node25" class="node">
<title>24</title>
<ellipse fill="none" stroke="#ff0000" cx="496" cy="-550.8" rx="27" ry="18"/>
<text text-anchor="middle" x="496" y="-546.6" font-family="Times,serif" font-size="14.00" fill="#000000">24</text>
</g>
<!-- 12&#45;&gt;24 -->
<g id="edge4" class="edge">
<title>12&#45;&gt;24</title>
<path fill="none" stroke="#000000" d="M412.2209,-625.9561C420.7979,-619.3786 431.0791,-611.2681 440,-603.6 451.3049,-593.8827 463.3918,-582.6074 473.4322,-572.9774"/>
<polygon fill="#000000" stroke="#000000" points="475.9065,-575.4536 480.6644,-565.9871 471.0416,-570.4204 475.9065,-575.4536"/>
<text text-anchor="middle" x="473.75" y="-591" font-family="Times,serif" font-size="14.00" fill="#000000">20.14</text>
</g>
<!-- 9 -->
<g id="node3" class="node">
<title>9</title>
<ellipse fill="none" stroke="#000000" cx="240" cy="-462" rx="27" ry="18"/>
<text text-anchor="middle" x="240" y="-457.8" font-family="Times,serif" font-size="14.00" fill="#000000">9</text>
</g>
<!-- 1&#45;&gt;9 -->
<g id="edge5" class="edge">
<title>1&#45;&gt;9</title>
<path fill="none" stroke="#000000" d="M265.6778,-533.256C261.1635,-520.7287 255.0028,-503.6326 249.8474,-489.3264"/>
<polygon fill="#000000" stroke="#000000" points="252.992,-487.7288 246.309,-479.5076 246.4066,-490.102 252.992,-487.7288"/>
<text text-anchor="middle" x="274.75" y="-502.2" font-family="Times,serif" font-size="14.00" fill="#000000">19.31</text>
</g>
<!-- 2 -->
<g id="node4" class="node">
<title>2</title>
<ellipse fill="none" stroke="#000000" cx="105" cy="-373.2" rx="27" ry="18"/>
<text text-anchor="middle" x="105" y="-369" font-family="Times,serif" font-size="14.00" fill="#000000">2</text>
</g>
<!-- 9&#45;&gt;2 -->
<g id="edge6" class="edge">
<title>9&#45;&gt;2</title>
<path fill="none" stroke="#000000" d="M216.2872,-452.974C200.6721,-446.5263 180.1205,-437.0572 163.5,-426 150.6106,-417.425 137.6862,-406.1146 127.276,-396.1624"/>
<polygon fill="#000000" stroke="#000000" points="129.4401,-393.3827 119.8477,-388.8843 124.5412,-398.3828 129.4401,-393.3827"/>
<text text-anchor="middle" x="179.75" y="-413.4" font-family="Times,serif" font-size="14.00" fill="#000000">10.34</text>
</g>
<!-- 15 -->
<g id="node9" class="node">
<title>15</title>
<ellipse fill="none" stroke="#000000" cx="177" cy="-373.2" rx="27" ry="18"/>
<text text-anchor="middle" x="177" y="-369" font-family="Times,serif" font-size="14.00" fill="#000000">15</text>
</g>
<!-- 9&#45;&gt;15 -->
<g id="edge7" class="edge">
<title>9&#45;&gt;15</title>
<path fill="none" stroke="#000000" d="M225.5592,-446.7401C219.9647,-440.5177 213.6747,-433.1216 208.5,-426 202.353,-417.5402 196.2975,-407.8228 191.1638,-399.0491"/>
<polygon fill="#000000" stroke="#000000" points="194.1856,-397.2827 186.1824,-390.3401 188.1093,-400.7582 194.1856,-397.2827"/>
<text text-anchor="middle" x="224.75" y="-413.4" font-family="Times,serif" font-size="14.00" fill="#000000">15.70</text>
</g>
<!-- 17 -->
<g id="node10" class="node">
<title>17</title>
<ellipse fill="none" stroke="#ff0000" cx="249" cy="-373.2" rx="27" ry="18"/>
<text text-anchor="middle" x="249" y="-369" font-family="Times,serif" font-size="14.00" fill="#000000">17</text>
</g>
<!-- 9&#45;&gt;17 -->
<g id="edge8" class="edge">
<title>9&#45;&gt;17</title>
<path fill="none" stroke="#000000" d="M241.8213,-444.03C243.0574,-431.8338 244.7175,-415.4543 246.1299,-401.5187"/>
<polygon fill="#000000" stroke="#000000" points="249.6243,-401.7501 247.1505,-391.4481 242.6599,-401.0441 249.6243,-401.7501"/>
<text text-anchor="middle" x="261.75" y="-413.4" font-family="Times,serif" font-size="14.00" fill="#000000">18.60</text>
</g>
<!-- 23 -->
<g id="node5" class="node">
<title>23</title>
<ellipse fill="none" stroke="#ff0000" cx="63" cy="-284.4" rx="27" ry="18"/>
<text text-anchor="middle" x="63" y="-280.2" font-family="Times,serif" font-size="14.00" fill="#000000">23</text>
</g>
<!-- 2&#45;&gt;23 -->
<g id="edge9" class="edge">
<title>2&#45;&gt;23</title>
<path fill="none" stroke="#000000" d="M96.7022,-355.656C90.6807,-342.925 82.4275,-325.4753 75.5955,-311.0306"/>
<polygon fill="#000000" stroke="#000000" points="78.5773,-309.1488 71.1377,-301.6054 72.2494,-312.1418 78.5773,-309.1488"/>
<text text-anchor="middle" x="100.25" y="-324.6" font-family="Times,serif" font-size="14.00" fill="#000000">0.16</text>
</g>
<!-- 16 -->
<g id="node8" class="node">
<title>16</title>
<ellipse fill="none" stroke="#000000" cx="135" cy="-284.4" rx="27" ry="18"/>
<text text-anchor="middle" x="135" y="-280.2" font-family="Times,serif" font-size="14.00" fill="#000000">16</text>
</g>
<!-- 2&#45;&gt;16 -->
<g id="edge10" class="edge">
<title>2&#45;&gt;16</title>
<path fill="none" stroke="#000000" d="M111.0709,-355.23C115.2868,-342.7511 120.9822,-325.8928 125.7589,-311.7536"/>
<polygon fill="#000000" stroke="#000000" points="129.1556,-312.6344 129.0405,-302.0402 122.5239,-310.3939 129.1556,-312.6344"/>
<text text-anchor="middle" x="138.75" y="-324.6" font-family="Times,serif" font-size="14.00" fill="#000000">18.96</text>
</g>
<!-- 8 -->
<g id="node6" class="node">
<title>8</title>
<ellipse fill="none" stroke="#ff0000" cx="27" cy="-195.6" rx="27" ry="18"/>
<text text-anchor="middle" x="27" y="-191.4" font-family="Times,serif" font-size="14.00" fill="#000000">8</text>
</g>
<!-- 23&#45;&gt;8 -->
<g id="edge11" class="edge">
<title>23&#45;&gt;8</title>
<path fill="none" stroke="#000000" d="M54.2231,-267.3718C51.2974,-261.4356 48.1191,-254.6866 45.5,-248.4 42.1008,-240.2409 38.7806,-231.2107 35.9128,-222.9596"/>
<polygon fill="#000000" stroke="#000000" points="39.1937,-221.7361 32.664,-213.3926 32.5654,-223.9869 39.1937,-221.7361"/>
<text text-anchor="middle" x="61.75" y="-235.8" font-family="Times,serif" font-size="14.00" fill="#000000">13.76</text>
</g>
<!-- 3 -->
<g id="node7" class="node">
<title>3</title>
<ellipse fill="none" stroke="#000000" cx="99" cy="-195.6" rx="27" ry="18"/>
<text text-anchor="middle" x="99" y="-191.4" font-family="Times,serif" font-size="14.00" fill="#000000">3</text>
</g>
<!-- 23&#45;&gt;3 -->
<g id="edge12" class="edge">
<title>23&#45;&gt;3</title>
<path fill="none" stroke="#000000" d="M70.1124,-266.856C75.2404,-254.2071 82.2567,-236.9002 88.0903,-222.5105"/>
<polygon fill="#000000" stroke="#000000" points="91.3888,-223.69 91.9023,-213.1076 84.9016,-221.06 91.3888,-223.69"/>
<text text-anchor="middle" x="97.25" y="-235.8" font-family="Times,serif" font-size="14.00" fill="#000000">3.47</text>
</g>
<!-- 18 -->
<g id="node12" class="node">
<title>18</title>
<ellipse fill="none" stroke="#ff0000" cx="312" cy="-462" rx="27" ry="18"/>
<text text-anchor="middle" x="312" y="-457.8" font-family="Times,serif" font-size="14.00" fill="#000000">18</text>
</g>
<!-- 0&#45;&gt;18 -->
<g id="edge13" class="edge">
<title>0&#45;&gt;18</title>
<path fill="none" stroke="#000000" d="M340.9954,-533.9719C337.3833,-528.0517 333.5238,-521.2617 330.5,-514.8 326.7536,-506.7943 323.3331,-497.8085 320.4801,-489.5509"/>
<polygon fill="#000000" stroke="#000000" points="323.7675,-488.3445 317.2978,-479.9545 317.1233,-490.5479 323.7675,-488.3445"/>
<text text-anchor="middle" x="346.75" y="-502.2" font-family="Times,serif" font-size="14.00" fill="#000000">13.69</text>
</g>
<!-- 13 -->
<g id="node14" class="node">
<title>13</title>
<ellipse fill="none" stroke="#000000" cx="384" cy="-462" rx="27" ry="18"/>
<text text-anchor="middle" x="384" y="-457.8" font-family="Times,serif" font-size="14.00" fill="#000000">13</text>
</g>
<!-- 0&#45;&gt;13 -->
<g id="edge14" class="edge">
<title>0&#45;&gt;13</title>
<path fill="none" stroke="#000000" d="M358.3222,-533.256C362.8365,-520.7287 368.9972,-503.6326 374.1526,-489.3264"/>
<polygon fill="#000000" stroke="#000000" points="377.5934,-490.102 377.691,-479.5076 371.008,-487.7288 377.5934,-490.102"/>
<text text-anchor="middle" x="383.25" y="-502.2" font-family="Times,serif" font-size="14.00" fill="#000000">3.90</text>
</g>
<!-- 11 -->
<g id="node13" class="node">
<title>11</title>
<ellipse fill="none" stroke="#000000" cx="321" cy="-373.2" rx="27" ry="18"/>
<text text-anchor="middle" x="321" y="-369" font-family="Times,serif" font-size="14.00" fill="#000000">11</text>
</g>
<!-- 18&#45;&gt;11 -->
<g id="edge15" class="edge">
<title>18&#45;&gt;11</title>
<path fill="none" stroke="#000000" d="M313.8213,-444.03C315.0574,-431.8338 316.7175,-415.4543 318.1299,-401.5187"/>
<polygon fill="#000000" stroke="#000000" points="321.6243,-401.7501 319.1505,-391.4481 314.6599,-401.0441 321.6243,-401.7501"/>
<text text-anchor="middle" x="330.25" y="-413.4" font-family="Times,serif" font-size="14.00" fill="#000000">6.23</text>
</g>
<!-- 10 -->
<g id="node16" class="node">
<title>10</title>
<ellipse fill="none" stroke="#000000" cx="456" cy="-462" rx="27" ry="18"/>
<text text-anchor="middle" x="456" y="-457.8" font-family="Times,serif" font-size="14.00" fill="#000000">10</text>
</g>
<!-- 7&#45;&gt;10 -->
<g id="edge16" class="edge">
<title>7&#45;&gt;10</title>
<path fill="none" stroke="#000000" d="M430.3222,-533.256C434.8365,-520.7287 440.9972,-503.6326 446.1526,-489.3264"/>
<polygon fill="#000000" stroke="#000000" points="449.5934,-490.102 449.691,-479.5076 443.008,-487.7288 449.5934,-490.102"/>
<text text-anchor="middle" x="455.25" y="-502.2" font-family="Times,serif" font-size="14.00" fill="#000000">4.67</text>
</g>
<!-- 4 -->
<g id="node17" class="node">
<title>4</title>
<ellipse fill="none" stroke="#ff0000" cx="411" cy="-373.2" rx="27" ry="18"/>
<text text-anchor="middle" x="411" y="-369" font-family="Times,serif" font-size="14.00" fill="#000000">4</text>
</g>
<!-- 10&#45;&gt;4 -->
<g id="edge17" class="edge">
<title>10&#45;&gt;4</title>
<path fill="none" stroke="#000000" d="M447.3235,-444.8785C440.7869,-431.9795 431.7089,-414.0655 424.2635,-399.3734"/>
<polygon fill="#000000" stroke="#000000" points="427.2922,-397.6069 419.6498,-390.269 421.0481,-400.7711 427.2922,-397.6069"/>
<text text-anchor="middle" x="450.25" y="-413.4" font-family="Times,serif" font-size="14.00" fill="#000000">6.13</text>
</g>
<!-- 6 -->
<g id="node24" class="node">
<title>6</title>
<ellipse fill="none" stroke="#000000" cx="483" cy="-373.2" rx="27" ry="18"/>
<text text-anchor="middle" x="483" y="-369" font-family="Times,serif" font-size="14.00" fill="#000000">6</text>
</g>
<!-- 10&#45;&gt;6 -->
<g id="edge18" class="edge">
<title>10&#45;&gt;6</title>
<path fill="none" stroke="#000000" d="M461.4639,-444.03C465.2333,-431.6327 470.317,-414.913 474.5986,-400.8312"/>
<polygon fill="#000000" stroke="#000000" points="477.9838,-401.729 477.5443,-391.1433 471.2865,-399.6926 477.9838,-401.729"/>
<text text-anchor="middle" x="487.75" y="-413.4" font-family="Times,serif" font-size="14.00" fill="#000000">21.17</text>
</g>
<!-- 20 -->
<g id="node18" class="node">
<title>20</title>
<ellipse fill="none" stroke="#ff0000" cx="411" cy="-284.4" rx="27" ry="18"/>
<text text-anchor="middle" x="411" y="-280.2" font-family="Times,serif" font-size="14.00" fill="#000000">20</text>
</g>
<!-- 4&#45;&gt;20 -->
<g id="edge19" class="edge">
<title>4&#45;&gt;20</title>
<path fill="none" stroke="#000000" d="M411,-354.8006C411,-342.6949 411,-326.6076 411,-312.8674"/>
<polygon fill="#000000" stroke="#000000" points="414.5001,-312.472 411,-302.472 407.5001,-312.4721 414.5001,-312.472"/>
<text text-anchor="middle" x="426.75" y="-324.6" font-family="Times,serif" font-size="14.00" fill="#000000">20.88</text>
</g>
<!-- 5 -->
<g id="node19" class="node">
<title>5</title>
<ellipse fill="none" stroke="#000000" cx="383" cy="-195.6" rx="27" ry="18"/>
<text text-anchor="middle" x="383" y="-191.4" font-family="Times,serif" font-size="14.00" fill="#000000">5</text>
</g>
<!-- 20&#45;&gt;5 -->
<g id="edge20" class="edge">
<title>20&#45;&gt;5</title>
<path fill="none" stroke="#000000" d="M401.5289,-267.2009C398.6189,-261.3668 395.6264,-254.7234 393.5,-248.4 390.8902,-240.6389 388.8369,-232.0061 387.265,-224.0072"/>
<polygon fill="#000000" stroke="#000000" points="390.6779,-223.2097 385.4693,-213.9836 383.7876,-224.4441 390.6779,-223.2097"/>
<text text-anchor="middle" x="409.75" y="-235.8" font-family="Times,serif" font-size="14.00" fill="#000000">18.23</text>
</g>
<!-- 22 -->
<g id="node20" class="node">
<title>22</title>
<ellipse fill="none" stroke="#ff0000" cx="455" cy="-195.6" rx="27" ry="18"/>
<text text-anchor="middle" x="455" y="-191.4" font-family="Times,serif" font-size="14.00" fill="#000000">22</text>
</g>
<!-- 20&#45;&gt;22 -->
<g id="edge21" class="edge">
<title>20&#45;&gt;22</title>
<path fill="none" stroke="#000000" d="M419.4836,-267.2785C425.8341,-254.4622 434.6376,-236.6949 441.891,-222.0563"/>
<polygon fill="#000000" stroke="#000000" points="445.0885,-223.4863 446.3923,-212.972 438.8163,-220.3784 445.0885,-223.4863"/>
<text text-anchor="middle" x="449.25" y="-235.8" font-family="Times,serif" font-size="14.00" fill="#000000">5.18</text>
</g>
<!-- 14 -->
<g id="node21" class="node">
<title>14</title>
<ellipse fill="none" stroke="#ff0000" cx="424" cy="-106.8" rx="27" ry="18"/>
<text text-anchor="middle" x="424" y="-102.6" font-family="Times,serif" font-size="14.00" fill="#000000">14</text>
</g>
<!-- 22&#45;&gt;14 -->
<g id="edge22" class="edge">
<title>22&#45;&gt;14</title>
<path fill="none" stroke="#000000" d="M443.3981,-179.023C439.7381,-173.123 436.0011,-166.2814 433.5,-159.6 430.5939,-151.8368 428.5602,-143.0898 427.1436,-134.9813"/>
<polygon fill="#000000" stroke="#000000" points="430.5646,-134.1939 425.6153,-124.8262 423.6425,-135.2357 430.5646,-134.1939"/>
<text text-anchor="middle" x="449.75" y="-147" font-family="Times,serif" font-size="14.00" fill="#000000">24.86</text>
</g>
<!-- 19 -->
<g id="node22" class="node">
<title>19</title>
<ellipse fill="none" stroke="#ff0000" cx="496" cy="-106.8" rx="27" ry="18"/>
<text text-anchor="middle" x="496" y="-102.6" font-family="Times,serif" font-size="14.00" fill="#000000">19</text>
</g>
<!-- 22&#45;&gt;19 -->
<g id="edge23" class="edge">
<title>22&#45;&gt;19</title>
<path fill="none" stroke="#000000" d="M463.1003,-178.056C468.9783,-165.325 477.0351,-147.8753 483.7043,-133.4306"/>
<polygon fill="#000000" stroke="#000000" points="487.0418,-134.5516 488.0561,-124.0054 480.6865,-131.6172 487.0418,-134.5516"/>
<text text-anchor="middle" x="492.25" y="-147" font-family="Times,serif" font-size="14.00" fill="#000000">8.92</text>
</g>
<!-- 21 -->
<g id="node23" class="node">
<title>21</title>
<ellipse fill="none" stroke="#000000" cx="496" cy="-18" rx="27" ry="18"/>
<text text-anchor="middle" x="496" y="-13.8" font-family="Times,serif" font-size="14.00" fill="#000000">21</text>
</g>
<!-- 19&#45;&gt;21 -->
<g id="edge24" class="edge">
<title>19&#45;&gt;21</title>
<path fill="none" stroke="#000000" d="M496,-88.4006C496,-76.2949 496,-60.2076 496,-46.4674"/>
<polygon fill="#000000" stroke="#000000" points="499.5001,-46.072 496,-36.072 492.5001,-46.0721 499.5001,-46.072"/>
<text text-anchor="middle" x="511.75" y="-58.2" font-family="Times,serif" font-size="14.00" fill="#000000">14.43</text>
</g>
</g>
</svg>
