<svg width="1920px" height="1353px"
 viewBox="0.00 0.00 566.00 399.20" xmlns="http://www.w3.org/2000/svg" xmlns:xlink="http://www.w3.org/1999/xlink">
<g id="graph0" class="graph" transform="scale(1.0 1.0) rotate(0) translate(4 395.2)">
<title>%0</title>
<polygon fill="#ffffff" stroke="transparent" points="-4,4 -4,-395.2 562,-395.2 562,4 -4,4"/>
<!-- 19 -->
<g id="node1" class="node">
<title>19</title>
<ellipse fill="none" stroke="#ff0000" cx="315" cy="-373.2" rx="27" ry="18"/>
<text text-anchor="middle" x="315" y="-369" font-family="Times,serif" font-size="14.00" fill="#000000">19</text>
</g>
<!-- 6 -->
<g id="node2" class="node">
<title>6</title>
<ellipse fill="none" stroke="#ff0000" cx="63" cy="-284.4" rx="27" ry="18"/>
<text text-anchor="middle" x="63" y="-280.2" font-family="Times,serif" font-size="14.00" fill="#000000">6</text>
</g>
<!-- 19&#45;&gt;6 -->
<g id="edge2" class="edge">
<title>19&#45;&gt;6</title>
<path fill="none" stroke="#000000" d="M289.2477,-367.422C262.2891,-361.0916 218.8973,-350.1026 182.5,-337.2 151.8736,-326.3432 118.1014,-311.1023 94.2956,-299.7841"/>
<polygon fill="#000000" stroke="#000000" points="95.5876,-296.5221 85.0577,-295.3511 92.5591,-302.833 95.5876,-296.5221"/>
<text text-anchor="middle" x="195.25" y="-324.6" font-family="Times,serif" font-size="14.00" fill="#000000">8.67</text>
</g>
<!-- 11 -->
<g id="node3" class="node">
<title>11</title>
<ellipse fill="none" stroke="#ff0000" cx="171" cy="-284.4" rx="27" ry="18"/>
<text text-anchor="middle" x="171" y="-280.2" font-family="Times,serif" font-size="14.00" fill="#000000">11</text>
</g>
<!-- 19&#45;&gt;11 -->
<g id="edge4" class="edge">
<title>19&#45;&gt;11</title>
<path fill="none" stroke="#000000" d="M290.9483,-364.8872C273.9673,-358.5059 251.0311,-348.8295 232.5,-337.2 218.6883,-328.5323 204.7799,-316.8935 193.692,-306.7492"/>
<polygon fill="#000000" stroke="#000000" points="195.8489,-303.9739 186.1585,-299.6905 191.0627,-309.082 195.8489,-303.9739"/>
<text text-anchor="middle" x="248.75" y="-324.6" font-family="Times,serif" font-size="14.00" fill="#000000">21.53</text>
</g>
<!-- 24 -->
<g id="node6" class="node">
<title>24</title>
<ellipse fill="none" stroke="#ff0000" cx="243" cy="-284.4" rx="27" ry="18"/>
<text text-anchor="middle" x="243" y="-280.2" font-family="Times,serif" font-size="14.00" fill="#000000">24</text>
</g>
<!-- 19&#45;&gt;24 -->
<g id="edge5" class="edge">
<title>19&#45;&gt;24</title>
<path fill="none" stroke="#000000" d="M299.1861,-358.3367C292.8092,-352.0496 285.5462,-344.5015 279.5,-337.2 272.3571,-328.5741 265.1972,-318.5835 259.1345,-309.629"/>
<polygon fill="#000000" stroke="#000000" points="261.9253,-307.5047 253.4788,-301.1089 256.0933,-311.3761 261.9253,-307.5047"/>
<text text-anchor="middle" x="295.75" y="-324.6" font-family="Times,serif" font-size="14.00" fill="#000000">21.33</text>
</g>
<!-- 20 -->
<g id="node8" class="node">
<title>20</title>
<ellipse fill="none" stroke="#ff0000" cx="315" cy="-284.4" rx="27" ry="18"/>
<text text-anchor="middle" x="315" y="-280.2" font-family="Times,serif" font-size="14.00" fill="#000000">20</text>
</g>
<!-- 19&#45;&gt;20 -->
<g id="edge7" class="edge">
<title>19&#45;&gt;20</title>
<path fill="none" stroke="#000000" d="M315,-354.8006C315,-342.6949 315,-326.6076 315,-312.8674"/>
<polygon fill="#000000" stroke="#000000" points="318.5001,-312.472 315,-302.472 311.5001,-312.4721 318.5001,-312.472"/>
<text text-anchor="middle" x="330.75" y="-324.6" font-family="Times,serif" font-size="14.00" fill="#000000">22.95</text>
</g>
<!-- 15 -->
<g id="node14" class="node">
<title>15</title>
<ellipse fill="none" stroke="#000000" cx="387" cy="-284.4" rx="27" ry="18"/>
<text text-anchor="middle" x="387" y="-280.2" font-family="Times,serif" font-size="14.00" fill="#000000">15</text>
</g>
<!-- 19&#45;&gt;15 -->
<g id="edge1" class="edge">
<title>19&#45;&gt;15</title>
<path fill="none" stroke="#000000" d="M330.5503,-358.2882C336.8312,-351.9936 343.9982,-344.4531 350,-337.2 357.1716,-328.5332 364.4148,-318.5337 370.568,-309.5837"/>
<polygon fill="#000000" stroke="#000000" points="373.62,-311.3181 376.3149,-301.0717 367.8185,-307.4012 373.62,-311.3181"/>
<text text-anchor="middle" x="377.75" y="-324.6" font-family="Times,serif" font-size="14.00" fill="#000000">18.37</text>
</g>
<!-- 12 -->
<g id="node15" class="node">
<title>12</title>
<ellipse fill="none" stroke="#000000" cx="459" cy="-284.4" rx="27" ry="18"/>
<text text-anchor="middle" x="459" y="-280.2" font-family="Times,serif" font-size="14.00" fill="#000000">12</text>
</g>
<!-- 19&#45;&gt;12 -->
<g id="edge3" class="edge">
<title>19&#45;&gt;12</title>
<path fill="none" stroke="#000000" d="M339.2509,-364.703C356.0839,-358.299 378.6847,-348.6715 397,-337.2 410.8841,-328.5039 424.9019,-316.8625 436.0877,-306.7237"/>
<polygon fill="#000000" stroke="#000000" points="438.7397,-309.0376 443.6898,-299.6703 433.9786,-303.9061 438.7397,-309.0376"/>
<text text-anchor="middle" x="431.25" y="-324.6" font-family="Times,serif" font-size="14.00" fill="#000000">3.07</text>
</g>
<!-- 1 -->
<g id="node16" class="node">
<title>1</title>
<ellipse fill="none" stroke="#000000" cx="531" cy="-284.4" rx="27" ry="18"/>
<text text-anchor="middle" x="531" y="-280.2" font-family="Times,serif" font-size="14.00" fill="#000000">1</text>
</g>
<!-- 19&#45;&gt;1 -->
<g id="edge6" class="edge">
<title>19&#45;&gt;1</title>
<path fill="none" stroke="#000000" d="M341.0699,-368.4603C368.265,-362.9767 411.7655,-352.6696 447,-337.2 467.3605,-328.2608 488.5469,-314.9106 504.5488,-303.8713"/>
<polygon fill="#000000" stroke="#000000" points="506.7026,-306.6355 512.8672,-298.0188 502.6746,-300.9105 506.7026,-306.6355"/>
<text text-anchor="middle" x="491.25" y="-324.6" font-family="Times,serif" font-size="14.00" fill="#000000">7.63</text>
</g>
<!-- 8 -->
<g id="node17" class="node">
<title>8</title>
<ellipse fill="none" stroke="#000000" cx="27" cy="-195.6" rx="27" ry="18"/>
<text text-anchor="middle" x="27" y="-191.4" font-family="Times,serif" font-size="14.00" fill="#000000">8</text>
</g>
<!-- 6&#45;&gt;8 -->
<g id="edge8" class="edge">
<title>6&#45;&gt;8</title>
<path fill="none" stroke="#000000" d="M55.8876,-266.856C50.7596,-254.2071 43.7433,-236.9002 37.9097,-222.5105"/>
<polygon fill="#000000" stroke="#000000" points="41.0984,-221.06 34.0977,-213.1076 34.6112,-223.69 41.0984,-221.06"/>
<text text-anchor="middle" x="64.75" y="-235.8" font-family="Times,serif" font-size="14.00" fill="#000000">14.42</text>
</g>
<!-- 21 -->
<g id="node4" class="node">
<title>21</title>
<ellipse fill="none" stroke="#ff0000" cx="99" cy="-195.6" rx="27" ry="18"/>
<text text-anchor="middle" x="99" y="-191.4" font-family="Times,serif" font-size="14.00" fill="#000000">21</text>
</g>
<!-- 11&#45;&gt;21 -->
<g id="edge10" class="edge">
<title>11&#45;&gt;21</title>
<path fill="none" stroke="#000000" d="M155.1861,-269.5367C148.8092,-263.2496 141.5462,-255.7015 135.5,-248.4 128.3571,-239.7741 121.1972,-229.7835 115.1345,-220.829"/>
<polygon fill="#000000" stroke="#000000" points="117.9253,-218.7047 109.4788,-212.3089 112.0933,-222.5761 117.9253,-218.7047"/>
<text text-anchor="middle" x="151.75" y="-235.8" font-family="Times,serif" font-size="14.00" fill="#000000">11.64</text>
</g>
<!-- 23 -->
<g id="node18" class="node">
<title>23</title>
<ellipse fill="none" stroke="#000000" cx="171" cy="-195.6" rx="27" ry="18"/>
<text text-anchor="middle" x="171" y="-191.4" font-family="Times,serif" font-size="14.00" fill="#000000">23</text>
</g>
<!-- 11&#45;&gt;23 -->
<g id="edge9" class="edge">
<title>11&#45;&gt;23</title>
<path fill="none" stroke="#000000" d="M171,-266.0006C171,-253.8949 171,-237.8076 171,-224.0674"/>
<polygon fill="#000000" stroke="#000000" points="174.5001,-223.672 171,-213.672 167.5001,-223.6721 174.5001,-223.672"/>
<text text-anchor="middle" x="186.75" y="-235.8" font-family="Times,serif" font-size="14.00" fill="#000000">15.03</text>
</g>
<!-- 9 -->
<g id="node5" class="node">
<title>9</title>
<ellipse fill="none" stroke="#0000ff" cx="99" cy="-106.8" rx="27" ry="18"/>
<text text-anchor="middle" x="99" y="-102.6" font-family="Times,serif" font-size="14.00" fill="#000000">9</text>
</g>
<!-- 21&#45;&gt;9 -->
<g id="edge11" class="edge">
<title>21&#45;&gt;9</title>
<path fill="none" stroke="#000000" d="M99,-177.2006C99,-165.0949 99,-149.0076 99,-135.2674"/>
<polygon fill="#000000" stroke="#000000" points="102.5001,-134.872 99,-124.872 95.5001,-134.8721 102.5001,-134.872"/>
<text text-anchor="middle" x="111.25" y="-147" font-family="Times,serif" font-size="14.00" fill="#000000">9.80</text>
</g>
<!-- 3 -->
<g id="node19" class="node">
<title>3</title>
<ellipse fill="none" stroke="#000000" cx="99" cy="-18" rx="27" ry="18"/>
<text text-anchor="middle" x="99" y="-13.8" font-family="Times,serif" font-size="14.00" fill="#000000">3</text>
</g>
<!-- 9&#45;&gt;3 -->
<g id="edge12" class="edge">
<title>9&#45;&gt;3</title>
<path fill="none" stroke="#000000" d="M99,-88.4006C99,-76.2949 99,-60.2076 99,-46.4674"/>
<polygon fill="#000000" stroke="#000000" points="102.5001,-46.072 99,-36.072 95.5001,-46.0721 102.5001,-46.072"/>
<text text-anchor="middle" x="111.25" y="-58.2" font-family="Times,serif" font-size="14.00" fill="#000000">8.55</text>
</g>
<!-- 2 -->
<g id="node7" class="node">
<title>2</title>
<ellipse fill="none" stroke="#0000ff" cx="243" cy="-195.6" rx="27" ry="18"/>
<text text-anchor="middle" x="243" y="-191.4" font-family="Times,serif" font-size="14.00" fill="#000000">2</text>
</g>
<!-- 24&#45;&gt;2 -->
<g id="edge13" class="edge">
<title>24&#45;&gt;2</title>
<path fill="none" stroke="#000000" d="M243,-266.0006C243,-253.8949 243,-237.8076 243,-224.0674"/>
<polygon fill="#000000" stroke="#000000" points="246.5001,-223.672 243,-213.672 239.5001,-223.6721 246.5001,-223.672"/>
<text text-anchor="middle" x="258.75" y="-235.8" font-family="Times,serif" font-size="14.00" fill="#000000">11.85</text>
</g>
<!-- 10 -->
<g id="node20" class="node">
<title>10</title>
<ellipse fill="none" stroke="#000000" cx="171" cy="-106.8" rx="27" ry="18"/>
<text text-anchor="middle" x="171" y="-102.6" font-family="Times,serif" font-size="14.00" fill="#000000">10</text>
</g>
<!-- 2&#45;&gt;10 -->
<g id="edge14" class="edge">
<title>2&#45;&gt;10</title>
<path fill="none" stroke="#000000" d="M230.1278,-179.7243C219.1384,-166.1707 203.1627,-146.4674 190.587,-130.9573"/>
<polygon fill="#000000" stroke="#000000" points="193.0202,-128.4009 184.0035,-122.8376 187.5829,-132.8095 193.0202,-128.4009"/>
<text text-anchor="middle" x="226.25" y="-147" font-family="Times,serif" font-size="14.00" fill="#000000">3.15</text>
</g>
<!-- 5 -->
<g id="node21" class="node">
<title>5</title>
<ellipse fill="none" stroke="#000000" cx="243" cy="-106.8" rx="27" ry="18"/>
<text text-anchor="middle" x="243" y="-102.6" font-family="Times,serif" font-size="14.00" fill="#000000">5</text>
</g>
<!-- 2&#45;&gt;5 -->
<g id="edge15" class="edge">
<title>2&#45;&gt;5</title>
<path fill="none" stroke="#000000" d="M243,-177.2006C243,-165.0949 243,-149.0076 243,-135.2674"/>
<polygon fill="#000000" stroke="#000000" points="246.5001,-134.872 243,-124.872 239.5001,-134.8721 246.5001,-134.872"/>
<text text-anchor="middle" x="255.25" y="-147" font-family="Times,serif" font-size="14.00" fill="#000000">2.43</text>
</g>
<!-- 22 -->
<g id="node9" class="node">
<title>22</title>
<ellipse fill="none" stroke="#ff0000" cx="315" cy="-195.6" rx="27" ry="18"/>
<text text-anchor="middle" x="315" y="-191.4" font-family="Times,serif" font-size="14.00" fill="#000000">22</text>
</g>
<!-- 20&#45;&gt;22 -->
<g id="edge16" class="edge">
<title>20&#45;&gt;22</title>
<path fill="none" stroke="#000000" d="M315,-266.0006C315,-253.8949 315,-237.8076 315,-224.0674"/>
<polygon fill="#000000" stroke="#000000" points="318.5001,-223.672 315,-213.672 311.5001,-223.6721 318.5001,-223.672"/>
<text text-anchor="middle" x="330.75" y="-235.8" font-family="Times,serif" font-size="14.00" fill="#000000">23.09</text>
</g>
<!-- 0 -->
<g id="node12" class="node">
<title>0</title>
<ellipse fill="none" stroke="#0000ff" cx="387" cy="-195.6" rx="27" ry="18"/>
<text text-anchor="middle" x="387" y="-191.4" font-family="Times,serif" font-size="14.00" fill="#000000">0</text>
</g>
<!-- 20&#45;&gt;0 -->
<g id="edge17" class="edge">
<title>20&#45;&gt;0</title>
<path fill="none" stroke="#000000" d="M330.5503,-269.4882C336.8312,-263.1936 343.9982,-255.6531 350,-248.4 357.1716,-239.7332 364.4148,-229.7337 370.568,-220.7837"/>
<polygon fill="#000000" stroke="#000000" points="373.62,-222.5181 376.3149,-212.2717 367.8185,-218.6012 373.62,-222.5181"/>
<text text-anchor="middle" x="377.75" y="-235.8" font-family="Times,serif" font-size="14.00" fill="#000000">13.47</text>
</g>
<!-- 13 -->
<g id="node22" class="node">
<title>13</title>
<ellipse fill="none" stroke="#000000" cx="459" cy="-195.6" rx="27" ry="18"/>
<text text-anchor="middle" x="459" y="-191.4" font-family="Times,serif" font-size="14.00" fill="#000000">13</text>
</g>
<!-- 20&#45;&gt;13 -->
<g id="edge18" class="edge">
<title>20&#45;&gt;13</title>
<path fill="none" stroke="#000000" d="M336.5503,-273.2276C341.2735,-270.8907 346.275,-268.5005 351,-266.4 371.0609,-257.4818 378.161,-259.6724 397,-248.4 411.0582,-239.9882 425.0925,-228.3737 436.2442,-218.1793"/>
<polygon fill="#000000" stroke="#000000" points="438.9186,-220.4692 443.8141,-211.0732 434.1277,-215.3656 438.9186,-220.4692"/>
<text text-anchor="middle" x="436.75" y="-235.8" font-family="Times,serif" font-size="14.00" fill="#000000">15.09</text>
</g>
<!-- 4 -->
<g id="node10" class="node">
<title>4</title>
<ellipse fill="none" stroke="#0000ff" cx="315" cy="-106.8" rx="27" ry="18"/>
<text text-anchor="middle" x="315" y="-102.6" font-family="Times,serif" font-size="14.00" fill="#000000">4</text>
</g>
<!-- 22&#45;&gt;4 -->
<g id="edge19" class="edge">
<title>22&#45;&gt;4</title>
<path fill="none" stroke="#000000" d="M315,-177.2006C315,-165.0949 315,-149.0076 315,-135.2674"/>
<polygon fill="#000000" stroke="#000000" points="318.5001,-134.872 315,-124.872 311.5001,-134.8721 318.5001,-134.872"/>
<text text-anchor="middle" x="327.25" y="-147" font-family="Times,serif" font-size="14.00" fill="#000000">3.68</text>
</g>
<!-- 18 -->
<g id="node11" class="node">
<title>18</title>
<ellipse fill="none" stroke="#ff0000" cx="387" cy="-106.8" rx="27" ry="18"/>
<text text-anchor="middle" x="387" y="-102.6" font-family="Times,serif" font-size="14.00" fill="#000000">18</text>
</g>
<!-- 22&#45;&gt;18 -->
<g id="edge20" class="edge">
<title>22&#45;&gt;18</title>
<path fill="none" stroke="#000000" d="M327.8722,-179.7243C338.8616,-166.1707 354.8373,-146.4674 367.413,-130.9573"/>
<polygon fill="#000000" stroke="#000000" points="370.4171,-132.8095 373.9965,-122.8376 364.9798,-128.4009 370.4171,-132.8095"/>
<text text-anchor="middle" x="373.75" y="-147" font-family="Times,serif" font-size="14.00" fill="#000000">18.52</text>
</g>
<!-- 16 -->
<g id="node23" class="node">
<title>16</title>
<ellipse fill="none" stroke="#000000" cx="315" cy="-18" rx="27" ry="18"/>
<text text-anchor="middle" x="315" y="-13.8" font-family="Times,serif" font-size="14.00" fill="#000000">16</text>
</g>
<!-- 4&#45;&gt;16 -->
<g id="edge21" class="edge">
<title>4&#45;&gt;16</title>
<path fill="none" stroke="#000000" d="M315,-88.4006C315,-76.2949 315,-60.2076 315,-46.4674"/>
<polygon fill="#000000" stroke="#000000" points="318.5001,-46.072 315,-36.072 311.5001,-46.0721 318.5001,-46.072"/>
<text text-anchor="middle" x="327.25" y="-58.2" font-family="Times,serif" font-size="14.00" fill="#000000">0.58</text>
</g>
<!-- 7 -->
<g id="node24" class="node">
<title>7</title>
<ellipse fill="none" stroke="#000000" cx="387" cy="-18" rx="27" ry="18"/>
<text text-anchor="middle" x="387" y="-13.8" font-family="Times,serif" font-size="14.00" fill="#000000">7</text>
</g>
<!-- 18&#45;&gt;7 -->
<g id="edge22" class="edge">
<title>18&#45;&gt;7</title>
<path fill="none" stroke="#000000" d="M387,-88.4006C387,-76.2949 387,-60.2076 387,-46.4674"/>
<polygon fill="#000000" stroke="#000000" points="390.5001,-46.072 387,-36.072 383.5001,-46.0721 390.5001,-46.072"/>
<text text-anchor="middle" x="402.75" y="-58.2" font-family="Times,serif" font-size="14.00" fill="#000000">17.87</text>
</g>
<!-- 17 -->
<g id="node13" class="node">
<title>17</title>
<ellipse fill="none" stroke="#0000ff" cx="459" cy="-106.8" rx="27" ry="18"/>
<text text-anchor="middle" x="459" y="-102.6" font-family="Times,serif" font-size="14.00" fill="#000000">17</text>
</g>
<!-- 0&#45;&gt;17 -->
<g id="edge23" class="edge">
<title>0&#45;&gt;17</title>
<path fill="none" stroke="#000000" d="M399.8722,-179.7243C410.8616,-166.1707 426.8373,-146.4674 439.413,-130.9573"/>
<polygon fill="#000000" stroke="#000000" points="442.4171,-132.8095 445.9965,-122.8376 436.9798,-128.4009 442.4171,-132.8095"/>
<text text-anchor="middle" x="445.75" y="-147" font-family="Times,serif" font-size="14.00" fill="#000000">15.92</text>
</g>
<!-- 14 -->
<g id="node25" class="node">
<title>14</title>
<ellipse fill="none" stroke="#000000" cx="459" cy="-18" rx="27" ry="18"/>
<text text-anchor="middle" x="459" y="-13.8" font-family="Times,serif" font-size="14.00" fill="#000000">14</text>
</g>
<!-- 17&#45;&gt;14 -->
<g id="edge24" class="edge">
<title>17&#45;&gt;14</title>
<path fill="none" stroke="#000000" d="M459,-88.4006C459,-76.2949 459,-60.2076 459,-46.4674"/>
<polygon fill="#000000" stroke="#000000" points="462.5001,-46.072 459,-36.072 455.5001,-46.0721 462.5001,-46.072"/>
<text text-anchor="middle" x="471.25" y="-58.2" font-family="Times,serif" font-size="14.00" fill="#000000">8.91</text>
</g>
</g>
</svg>
