<svg width="1920px" height="634px"
 viewBox="0.00 0.00 939.00 310.40" xmlns="http://www.w3.org/2000/svg" xmlns:xlink="http://www.w3.org/1999/xlink">
<g id="graph0" class="graph" transform="scale(1.0 1.0) rotate(0) translate(4 306.4)">
<title>%0</title>
<polygon fill="#ffffff" stroke="transparent" points="-4,4 -4,-306.4 935,-306.4 935,4 -4,4"/>
<!-- 22 -->
<g id="node1" class="node">
<title>22</title>
<ellipse fill="none" stroke="#ff0000" cx="99" cy="-195.6" rx="27" ry="18"/>
<text text-anchor="middle" x="99" y="-191.4" font-family="Times,serif" font-size="14.00" fill="#000000">22</text>
</g>
<!-- 8 -->
<g id="node2" class="node">
<title>8</title>
<ellipse fill="none" stroke="#ff0000" cx="99" cy="-106.8" rx="27" ry="18"/>
<text text-anchor="middle" x="99" y="-102.6" font-family="Times,serif" font-size="14.00" fill="#000000">8</text>
</g>
<!-- 22&#45;&#45;8 -->
<g id="edge1" class="edge">
<title>22&#45;&#45;8</title>
<path fill="none" stroke="#000000" d="M99,-177.2006C99,-161.8587 99,-140.122 99,-124.872"/>
<text text-anchor="middle" x="111.25" y="-147" font-family="Times,serif" font-size="14.00" fill="#000000">0.33</text>
</g>
<!-- 23 -->
<g id="node3" class="node">
<title>23</title>
<ellipse fill="none" stroke="#ff0000" cx="393" cy="-106.8" rx="27" ry="18"/>
<text text-anchor="middle" x="393" y="-102.6" font-family="Times,serif" font-size="14.00" fill="#000000">23</text>
</g>
<!-- 4 -->
<g id="node4" class="node">
<title>4</title>
<ellipse fill="none" stroke="#0000ff" cx="379" cy="-18" rx="27" ry="18"/>
<text text-anchor="middle" x="379" y="-13.8" font-family="Times,serif" font-size="14.00" fill="#000000">4</text>
</g>
<!-- 23&#45;&#45;4 -->
<g id="edge2" class="edge">
<title>23&#45;&#45;4</title>
<path fill="none" stroke="#000000" d="M385.6655,-89.1457C383.6045,-83.3958 381.6214,-76.9171 380.5,-70.8 378.4166,-59.4347 378.0207,-46.4664 378.1558,-36.2263"/>
<text text-anchor="middle" x="395.75" y="-58.2" font-family="Times,serif" font-size="14.00" fill="#000000">19.15</text>
</g>
<!-- 24 -->
<g id="node5" class="node">
<title>24</title>
<ellipse fill="none" stroke="#ff0000" cx="321" cy="-195.6" rx="27" ry="18"/>
<text text-anchor="middle" x="321" y="-191.4" font-family="Times,serif" font-size="14.00" fill="#000000">24</text>
</g>
<!-- 6 -->
<g id="node6" class="node">
<title>6</title>
<ellipse fill="none" stroke="#0000ff" cx="321" cy="-106.8" rx="27" ry="18"/>
<text text-anchor="middle" x="321" y="-102.6" font-family="Times,serif" font-size="14.00" fill="#000000">6</text>
</g>
<!-- 24&#45;&#45;6 -->
<g id="edge3" class="edge">
<title>24&#45;&#45;6</title>
<path fill="none" stroke="#000000" d="M321,-177.2006C321,-161.8587 321,-140.122 321,-124.872"/>
<text text-anchor="middle" x="336.75" y="-147" font-family="Times,serif" font-size="14.00" fill="#000000">18.17</text>
</g>
<!-- 10 -->
<g id="node7" class="node">
<title>10</title>
<ellipse fill="none" stroke="#ff0000" cx="171" cy="-284.4" rx="27" ry="18"/>
<text text-anchor="middle" x="171" y="-280.2" font-family="Times,serif" font-size="14.00" fill="#000000">10</text>
</g>
<!-- 2 -->
<g id="node8" class="node">
<title>2</title>
<ellipse fill="none" stroke="#0000ff" cx="171" cy="-195.6" rx="27" ry="18"/>
<text text-anchor="middle" x="171" y="-191.4" font-family="Times,serif" font-size="14.00" fill="#000000">2</text>
</g>
<!-- 10&#45;&#45;2 -->
<g id="edge4" class="edge">
<title>10&#45;&#45;2</title>
<path fill="none" stroke="#000000" d="M171,-266.0006C171,-250.6587 171,-228.922 171,-213.672"/>
<text text-anchor="middle" x="186.75" y="-235.8" font-family="Times,serif" font-size="14.00" fill="#000000">21.68</text>
</g>
<!-- 2&#45;&#45;8 -->
<g id="edge5" class="edge">
<title>2&#45;&#45;8</title>
<path fill="none" stroke="#000000" d="M158.1278,-179.7243C145.1034,-163.6608 125.0748,-138.9589 112.0035,-122.8376"/>
<text text-anchor="middle" x="156.75" y="-147" font-family="Times,serif" font-size="14.00" fill="#000000">23.24</text>
</g>
<!-- 11 -->
<g id="node9" class="node">
<title>11</title>
<ellipse fill="none" stroke="#ff0000" cx="815" cy="-106.8" rx="27" ry="18"/>
<text text-anchor="middle" x="815" y="-102.6" font-family="Times,serif" font-size="14.00" fill="#000000">11</text>
</g>
<!-- 21 -->
<g id="node10" class="node">
<title>21</title>
<ellipse fill="none" stroke="#0000ff" cx="694" cy="-18" rx="27" ry="18"/>
<text text-anchor="middle" x="694" y="-13.8" font-family="Times,serif" font-size="14.00" fill="#000000">21</text>
</g>
<!-- 11&#45;&#45;21 -->
<g id="edge6" class="edge">
<title>11&#45;&#45;21</title>
<path fill="none" stroke="#000000" d="M800.3663,-91.4253C789.3244,-80.2928 773.4799,-65.2813 758,-54 744.7096,-44.3143 728.5624,-35.2488 715.8123,-28.6378"/>
<text text-anchor="middle" x="792.75" y="-58.2" font-family="Times,serif" font-size="14.00" fill="#000000">22.61</text>
</g>
<!-- 12 -->
<g id="node11" class="node">
<title>12</title>
<ellipse fill="none" stroke="#0000ff" cx="688" cy="-284.4" rx="27" ry="18"/>
<text text-anchor="middle" x="688" y="-280.2" font-family="Times,serif" font-size="14.00" fill="#000000">12</text>
</g>
<!-- 12&#45;&#45;21 -->
<g id="edge9" class="edge">
<title>12&#45;&#45;21</title>
<path fill="none" stroke="#000000" d="M688.4124,-266.0892C689.5112,-217.3046 692.4997,-84.6132 693.5926,-36.0866"/>
<text text-anchor="middle" x="703.25" y="-147" font-family="Times,serif" font-size="14.00" fill="#000000">0.07</text>
</g>
<!-- 15 -->
<g id="node12" class="node">
<title>15</title>
<ellipse fill="none" stroke="#ff0000" cx="815" cy="-195.6" rx="27" ry="18"/>
<text text-anchor="middle" x="815" y="-191.4" font-family="Times,serif" font-size="14.00" fill="#000000">15</text>
</g>
<!-- 12&#45;&#45;15 -->
<g id="edge7" class="edge">
<title>12&#45;&#45;15</title>
<path fill="none" stroke="#000000" d="M706.7393,-271.2973C730.7507,-254.5082 772.1354,-225.5715 796.1838,-208.7565"/>
<text text-anchor="middle" x="777.75" y="-235.8" font-family="Times,serif" font-size="14.00" fill="#000000">21.91</text>
</g>
<!-- 19 -->
<g id="node13" class="node">
<title>19</title>
<ellipse fill="none" stroke="#ff0000" cx="504" cy="-195.6" rx="27" ry="18"/>
<text text-anchor="middle" x="504" y="-191.4" font-family="Times,serif" font-size="14.00" fill="#000000">19</text>
</g>
<!-- 12&#45;&#45;19 -->
<g id="edge8" class="edge">
<title>12&#45;&#45;19</title>
<path fill="none" stroke="#000000" d="M665.8053,-273.6886C630.3441,-256.5748 561.3166,-223.2615 525.987,-206.2111"/>
<text text-anchor="middle" x="624.25" y="-235.8" font-family="Times,serif" font-size="14.00" fill="#000000">8.20</text>
</g>
<!-- 19&#45;&#45;23 -->
<g id="edge11" class="edge">
<title>19&#45;&#45;23</title>
<path fill="none" stroke="#000000" d="M486.6563,-181.725C465.925,-165.14 431.427,-137.5416 410.5883,-120.8706"/>
<text text-anchor="middle" x="470.25" y="-147" font-family="Times,serif" font-size="14.00" fill="#000000">5.21</text>
</g>
<!-- 19&#45;&#45;6 -->
<g id="edge12" class="edge">
<title>19&#45;&#45;6</title>
<path fill="none" stroke="#000000" d="M478.724,-188.4437C457.7737,-182.0892 427.4893,-171.9141 402.5,-159.6 379.5135,-148.2728 355.0915,-131.7826 339.0423,-120.2537"/>
<text text-anchor="middle" x="417.75" y="-147" font-family="Times,serif" font-size="14.00" fill="#000000">19.51</text>
</g>
<!-- 20 -->
<g id="node14" class="node">
<title>20</title>
<ellipse fill="none" stroke="#ff0000" cx="609" cy="-106.8" rx="27" ry="18"/>
<text text-anchor="middle" x="609" y="-102.6" font-family="Times,serif" font-size="14.00" fill="#000000">20</text>
</g>
<!-- 19&#45;&#45;20 -->
<g id="edge10" class="edge">
<title>19&#45;&#45;20</title>
<path fill="none" stroke="#000000" d="M520.8701,-181.3327C540.4642,-164.7617 572.5955,-137.5878 592.1718,-121.0318"/>
<text text-anchor="middle" x="580.75" y="-147" font-family="Times,serif" font-size="14.00" fill="#000000">14.00</text>
</g>
<!-- 20&#45;&#45;21 -->
<g id="edge13" class="edge">
<title>20&#45;&#45;21</title>
<path fill="none" stroke="#000000" d="M597.3189,-90.3587C591.0076,-79.2811 585.9106,-64.7802 593.5,-54 602.302,-41.4974 641.5074,-30.1563 668.2678,-23.6733"/>
<text text-anchor="middle" x="608.75" y="-58.2" font-family="Times,serif" font-size="14.00" fill="#000000">13.29</text>
</g>
<!-- 13 -->
<g id="node15" class="node">
<title>13</title>
<ellipse fill="none" stroke="#ff0000" cx="465" cy="-106.8" rx="27" ry="18"/>
<text text-anchor="middle" x="465" y="-102.6" font-family="Times,serif" font-size="14.00" fill="#000000">13</text>
</g>
<!-- 13&#45;&#45;4 -->
<g id="edge14" class="edge">
<title>13&#45;&#45;4</title>
<path fill="none" stroke="#000000" d="M450.0199,-91.3322C434.2352,-75.0336 409.5281,-49.522 393.8084,-33.2905"/>
<text text-anchor="middle" x="441.25" y="-58.2" font-family="Times,serif" font-size="14.00" fill="#000000">8.22</text>
</g>
<!-- 7 -->
<g id="node16" class="node">
<title>7</title>
<ellipse fill="none" stroke="#ff0000" cx="552" cy="-18" rx="27" ry="18"/>
<text text-anchor="middle" x="552" y="-13.8" font-family="Times,serif" font-size="14.00" fill="#000000">7</text>
</g>
<!-- 13&#45;&#45;7 -->
<g id="edge15" class="edge">
<title>13&#45;&#45;7</title>
<path fill="none" stroke="#000000" d="M467.9207,-88.4692C470.4668,-77.4412 475.1236,-63.7067 483.5,-54 495.0859,-40.5741 512.9359,-31.4224 527.5098,-25.7066"/>
<text text-anchor="middle" x="498.75" y="-58.2" font-family="Times,serif" font-size="14.00" fill="#000000">21.40</text>
</g>
<!-- 14 -->
<g id="node17" class="node">
<title>14</title>
<ellipse fill="none" stroke="#ff0000" cx="266" cy="-284.4" rx="27" ry="18"/>
<text text-anchor="middle" x="266" y="-280.2" font-family="Times,serif" font-size="14.00" fill="#000000">14</text>
</g>
<!-- 14&#45;&#45;4 -->
<g id="edge18" class="edge">
<title>14&#45;&#45;4</title>
<path fill="none" stroke="#000000" d="M263.1797,-266.2598C258.4689,-229.9451 252.4607,-146.8301 285,-88.8 301.0877,-60.1094 334.1193,-39.5031 356.4194,-28.1605"/>
<text text-anchor="middle" x="277.25" y="-147" font-family="Times,serif" font-size="14.00" fill="#000000">3.16</text>
</g>
<!-- 14&#45;&#45;24 -->
<g id="edge17" class="edge">
<title>14&#45;&#45;24</title>
<path fill="none" stroke="#000000" d="M276.3451,-267.6974C286.116,-251.9218 300.6976,-228.3792 310.5143,-212.5296"/>
<text text-anchor="middle" x="313.75" y="-235.8" font-family="Times,serif" font-size="14.00" fill="#000000">14.25</text>
</g>
<!-- 14&#45;&#45;2 -->
<g id="edge16" class="edge">
<title>14&#45;&#45;2</title>
<path fill="none" stroke="#000000" d="M250.3127,-269.7365C232.7107,-253.2833 204.3221,-226.7474 186.7106,-210.2853"/>
<text text-anchor="middle" x="239.25" y="-235.8" font-family="Times,serif" font-size="14.00" fill="#000000">2.65</text>
</g>
<!-- 16 -->
<g id="node18" class="node">
<title>16</title>
<ellipse fill="none" stroke="#0000ff" cx="504" cy="-284.4" rx="27" ry="18"/>
<text text-anchor="middle" x="504" y="-280.2" font-family="Times,serif" font-size="14.00" fill="#000000">16</text>
</g>
<!-- 16&#45;&#45;19 -->
<g id="edge19" class="edge">
<title>16&#45;&#45;19</title>
<path fill="none" stroke="#000000" d="M504,-266.0006C504,-250.6587 504,-228.922 504,-213.672"/>
<text text-anchor="middle" x="519.75" y="-235.8" font-family="Times,serif" font-size="14.00" fill="#000000">18.63</text>
</g>
<!-- 17 -->
<g id="node19" class="node">
<title>17</title>
<ellipse fill="none" stroke="#0000ff" cx="743" cy="-106.8" rx="27" ry="18"/>
<text text-anchor="middle" x="743" y="-102.6" font-family="Times,serif" font-size="14.00" fill="#000000">17</text>
</g>
<!-- 17&#45;&#45;21 -->
<g id="edge20" class="edge">
<title>17&#45;&#45;21</title>
<path fill="none" stroke="#000000" d="M733.5523,-89.6785C724.8755,-73.954 712.0863,-50.7768 703.4187,-35.069"/>
<text text-anchor="middle" x="737.75" y="-58.2" font-family="Times,serif" font-size="14.00" fill="#000000">17.99</text>
</g>
<!-- 17&#45;&#45;7 -->
<g id="edge21" class="edge">
<title>17&#45;&#45;7</title>
<path fill="none" stroke="#000000" d="M720.7161,-96.4397C684.0108,-79.3746 611.2427,-45.5432 574.4372,-28.4316"/>
<text text-anchor="middle" x="679.75" y="-58.2" font-family="Times,serif" font-size="14.00" fill="#000000">12.65</text>
</g>
<!-- 9 -->
<g id="node20" class="node">
<title>9</title>
<ellipse fill="none" stroke="#ff0000" cx="880" cy="-18" rx="27" ry="18"/>
<text text-anchor="middle" x="880" y="-13.8" font-family="Times,serif" font-size="14.00" fill="#000000">9</text>
</g>
<!-- 17&#45;&#45;9 -->
<g id="edge22" class="edge">
<title>17&#45;&#45;9</title>
<path fill="none" stroke="#000000" d="M764.6464,-95.9311C783.5036,-86.4193 808.5165,-73.6815 813,-70.8 831.1896,-59.1098 850.4239,-43.5802 863.595,-32.3928"/>
<text text-anchor="middle" x="847.25" y="-58.2" font-family="Times,serif" font-size="14.00" fill="#000000">7.84</text>
</g>
<!-- 18 -->
<g id="node21" class="node">
<title>18</title>
<ellipse fill="none" stroke="#0000ff" cx="537" cy="-106.8" rx="27" ry="18"/>
<text text-anchor="middle" x="537" y="-102.6" font-family="Times,serif" font-size="14.00" fill="#000000">18</text>
</g>
<!-- 18&#45;&#45;21 -->
<g id="edge23" class="edge">
<title>18&#45;&#45;21</title>
<path fill="none" stroke="#000000" d="M538.2332,-88.7993C539.9624,-77.3317 544.0271,-62.9922 553.5,-54 569.7536,-38.5711 631.3306,-27.1935 667.3452,-21.6926"/>
<text text-anchor="middle" x="568.75" y="-58.2" font-family="Times,serif" font-size="14.00" fill="#000000">23.94</text>
</g>
<!-- 0 -->
<g id="node22" class="node">
<title>0</title>
<ellipse fill="none" stroke="#ff0000" cx="743" cy="-195.6" rx="27" ry="18"/>
<text text-anchor="middle" x="743" y="-191.4" font-family="Times,serif" font-size="14.00" fill="#000000">0</text>
</g>
<!-- 0&#45;&#45;17 -->
<g id="edge24" class="edge">
<title>0&#45;&#45;17</title>
<path fill="none" stroke="#000000" d="M743,-177.2006C743,-161.8587 743,-140.122 743,-124.872"/>
<text text-anchor="middle" x="758.75" y="-147" font-family="Times,serif" font-size="14.00" fill="#000000">20.42</text>
</g>
<!-- 1 -->
<g id="node23" class="node">
<title>1</title>
<ellipse fill="none" stroke="#0000ff" cx="99" cy="-284.4" rx="27" ry="18"/>
<text text-anchor="middle" x="99" y="-280.2" font-family="Times,serif" font-size="14.00" fill="#000000">1</text>
</g>
<!-- 1&#45;&#45;2 -->
<g id="edge25" class="edge">
<title>1&#45;&#45;2</title>
<path fill="none" stroke="#000000" d="M109.4788,-267.6911C116.422,-257.0286 125.9761,-243.1012 135.5,-231.6 141.5462,-224.2985 148.8092,-216.7504 155.1861,-210.4633"/>
<text text-anchor="middle" x="150.75" y="-235.8" font-family="Times,serif" font-size="14.00" fill="#000000">20.67</text>
</g>
<!-- 3 -->
<g id="node24" class="node">
<title>3</title>
<ellipse fill="none" stroke="#ff0000" cx="904" cy="-106.8" rx="27" ry="18"/>
<text text-anchor="middle" x="904" y="-102.6" font-family="Times,serif" font-size="14.00" fill="#000000">3</text>
</g>
<!-- 3&#45;&#45;9 -->
<g id="edge26" class="edge">
<title>3&#45;&#45;9</title>
<path fill="none" stroke="#000000" d="M899.1432,-88.83C894.9793,-73.4236 889.0113,-51.342 884.8495,-35.9433"/>
<text text-anchor="middle" x="909.75" y="-58.2" font-family="Times,serif" font-size="14.00" fill="#000000">18.78</text>
</g>
<!-- 5 -->
<g id="node25" class="node">
<title>5</title>
<ellipse fill="none" stroke="#ff0000" cx="27" cy="-195.6" rx="27" ry="18"/>
<text text-anchor="middle" x="27" y="-191.4" font-family="Times,serif" font-size="14.00" fill="#000000">5</text>
</g>
<!-- 5&#45;&#45;8 -->
<g id="edge27" class="edge">
<title>5&#45;&#45;8</title>
<path fill="none" stroke="#000000" d="M37.4788,-178.8911C44.422,-168.2286 53.9761,-154.3012 63.5,-142.8 69.5462,-135.4985 76.8092,-127.9504 83.1861,-121.6633"/>
<text text-anchor="middle" x="78.75" y="-147" font-family="Times,serif" font-size="14.00" fill="#000000">15.44</text>
</g>
</g>
</svg>
