<svg width="1920px" height="964px"
 viewBox="0.00 0.00 794.50 399.20" xmlns="http://www.w3.org/2000/svg" xmlns:xlink="http://www.w3.org/1999/xlink">
<g id="graph0" class="graph" transform="scale(1.0 1.0) rotate(0) translate(4 395.2)">
<title>%0</title>
<polygon fill="#ffffff" stroke="transparent" points="-4,4 -4,-395.2 790.5,-395.2 790.5,4 -4,4"/>
<!-- 22 -->
<g id="node1" class="node">
<title>22</title>
<ellipse fill="none" stroke="#ff0000" cx="467" cy="-195.6" rx="27" ry="18"/>
<text text-anchor="middle" x="467" y="-191.4" font-family="Times,serif" font-size="14.00" fill="#000000">22</text>
</g>
<!-- 5 -->
<g id="node2" class="node">
<title>5</title>
<ellipse fill="none" stroke="#ff0000" cx="491" cy="-106.8" rx="27" ry="18"/>
<text text-anchor="middle" x="491" y="-102.6" font-family="Times,serif" font-size="14.00" fill="#000000">5</text>
</g>
<!-- 22&#45;&#45;5 -->
<g id="edge1" class="edge">
<title>22&#45;&#45;5</title>
<path fill="none" stroke="#000000" d="M471.8568,-177.63C476.0207,-162.2236 481.9887,-140.142 486.1505,-124.7433"/>
<text text-anchor="middle" x="497.75" y="-147" font-family="Times,serif" font-size="14.00" fill="#000000">20.92</text>
</g>
<!-- 23 -->
<g id="node3" class="node">
<title>23</title>
<ellipse fill="none" stroke="#ff0000" cx="27" cy="-106.8" rx="27" ry="18"/>
<text text-anchor="middle" x="27" y="-102.6" font-family="Times,serif" font-size="14.00" fill="#000000">23</text>
</g>
<!-- 24 -->
<g id="node4" class="node">
<title>24</title>
<ellipse fill="none" stroke="#0000ff" cx="354" cy="-106.8" rx="27" ry="18"/>
<text text-anchor="middle" x="354" y="-102.6" font-family="Times,serif" font-size="14.00" fill="#000000">24</text>
</g>
<!-- 8 -->
<g id="node5" class="node">
<title>8</title>
<ellipse fill="none" stroke="#ff0000" cx="354" cy="-18" rx="27" ry="18"/>
<text text-anchor="middle" x="354" y="-13.8" font-family="Times,serif" font-size="14.00" fill="#000000">8</text>
</g>
<!-- 24&#45;&#45;8 -->
<g id="edge2" class="edge">
<title>24&#45;&#45;8</title>
<path fill="none" stroke="#000000" d="M354,-88.4006C354,-73.0587 354,-51.322 354,-36.072"/>
<text text-anchor="middle" x="366.25" y="-58.2" font-family="Times,serif" font-size="14.00" fill="#000000">5.63</text>
</g>
<!-- 10 -->
<g id="node6" class="node">
<title>10</title>
<ellipse fill="none" stroke="#ff0000" cx="205" cy="-373.2" rx="27" ry="18"/>
<text text-anchor="middle" x="205" y="-369" font-family="Times,serif" font-size="14.00" fill="#000000">10</text>
</g>
<!-- 18 -->
<g id="node7" class="node">
<title>18</title>
<ellipse fill="none" stroke="#0000ff" cx="205" cy="-284.4" rx="27" ry="18"/>
<text text-anchor="middle" x="205" y="-280.2" font-family="Times,serif" font-size="14.00" fill="#000000">18</text>
</g>
<!-- 10&#45;&#45;18 -->
<g id="edge3" class="edge">
<title>10&#45;&#45;18</title>
<path fill="none" stroke="#000000" d="M205,-354.8006C205,-339.4587 205,-317.722 205,-302.472"/>
<text text-anchor="middle" x="220.75" y="-324.6" font-family="Times,serif" font-size="14.00" fill="#000000">16.11</text>
</g>
<!-- 4 -->
<g id="node8" class="node">
<title>4</title>
<ellipse fill="none" stroke="#ff0000" cx="165" cy="-195.6" rx="27" ry="18"/>
<text text-anchor="middle" x="165" y="-191.4" font-family="Times,serif" font-size="14.00" fill="#000000">4</text>
</g>
<!-- 18&#45;&#45;4 -->
<g id="edge4" class="edge">
<title>18&#45;&#45;4</title>
<path fill="none" stroke="#000000" d="M197.0973,-266.856C190.0847,-251.2881 179.8939,-228.6644 172.8863,-213.1076"/>
<text text-anchor="middle" x="201.25" y="-235.8" font-family="Times,serif" font-size="14.00" fill="#000000">7.14</text>
</g>
<!-- 7 -->
<g id="node9" class="node">
<title>7</title>
<ellipse fill="none" stroke="#0000ff" cx="247" cy="-106.8" rx="27" ry="18"/>
<text text-anchor="middle" x="247" y="-102.6" font-family="Times,serif" font-size="14.00" fill="#000000">7</text>
</g>
<!-- 4&#45;&#45;7 -->
<g id="edge5" class="edge">
<title>4&#45;&#45;7</title>
<path fill="none" stroke="#000000" d="M178.6072,-179.6823C187.7582,-169.0944 200.1739,-154.9523 211.5,-142.8 217.9634,-135.8651 225.2915,-128.3743 231.6045,-122.0309"/>
<text text-anchor="middle" x="227.75" y="-147" font-family="Times,serif" font-size="14.00" fill="#000000">14.04</text>
</g>
<!-- 9 -->
<g id="node10" class="node">
<title>9</title>
<ellipse fill="none" stroke="#0000ff" cx="118" cy="-106.8" rx="27" ry="18"/>
<text text-anchor="middle" x="118" y="-102.6" font-family="Times,serif" font-size="14.00" fill="#000000">9</text>
</g>
<!-- 4&#45;&#45;9 -->
<g id="edge6" class="edge">
<title>4&#45;&#45;9</title>
<path fill="none" stroke="#000000" d="M151.907,-179.7227C147.2934,-173.6619 142.3121,-166.5376 138.5,-159.6 132.3439,-148.3966 127.1537,-134.9559 123.5359,-124.4393"/>
<text text-anchor="middle" x="154.75" y="-147" font-family="Times,serif" font-size="14.00" fill="#000000">13.37</text>
</g>
<!-- 7&#45;&#45;8 -->
<g id="edge7" class="edge">
<title>7&#45;&#45;8</title>
<path fill="none" stroke="#000000" d="M264.1914,-92.5327C284.1588,-75.9617 316.9021,-48.7878 336.8513,-32.2318"/>
<text text-anchor="middle" x="323.25" y="-58.2" font-family="Times,serif" font-size="14.00" fill="#000000">3.55</text>
</g>
<!-- 11 -->
<g id="node11" class="node">
<title>11</title>
<ellipse fill="none" stroke="#ff0000" cx="755" cy="-195.6" rx="27" ry="18"/>
<text text-anchor="middle" x="755" y="-191.4" font-family="Times,serif" font-size="14.00" fill="#000000">11</text>
</g>
<!-- 13 -->
<g id="node12" class="node">
<title>13</title>
<ellipse fill="none" stroke="#0000ff" cx="755" cy="-106.8" rx="27" ry="18"/>
<text text-anchor="middle" x="755" y="-102.6" font-family="Times,serif" font-size="14.00" fill="#000000">13</text>
</g>
<!-- 11&#45;&#45;13 -->
<g id="edge8" class="edge">
<title>11&#45;&#45;13</title>
<path fill="none" stroke="#000000" d="M755,-177.2006C755,-161.8587 755,-140.122 755,-124.872"/>
<text text-anchor="middle" x="770.75" y="-147" font-family="Times,serif" font-size="14.00" fill="#000000">23.78</text>
</g>
<!-- 12 -->
<g id="node13" class="node">
<title>12</title>
<ellipse fill="none" stroke="#0000ff" cx="247" cy="-195.6" rx="27" ry="18"/>
<text text-anchor="middle" x="247" y="-191.4" font-family="Times,serif" font-size="14.00" fill="#000000">12</text>
</g>
<!-- 12&#45;&#45;7 -->
<g id="edge9" class="edge">
<title>12&#45;&#45;7</title>
<path fill="none" stroke="#000000" d="M247,-177.2006C247,-161.8587 247,-140.122 247,-124.872"/>
<text text-anchor="middle" x="262.75" y="-147" font-family="Times,serif" font-size="14.00" fill="#000000">13.84</text>
</g>
<!-- 14 -->
<g id="node14" class="node">
<title>14</title>
<ellipse fill="none" stroke="#ff0000" cx="683" cy="-195.6" rx="27" ry="18"/>
<text text-anchor="middle" x="683" y="-191.4" font-family="Times,serif" font-size="14.00" fill="#000000">14</text>
</g>
<!-- 3 -->
<g id="node15" class="node">
<title>3</title>
<ellipse fill="none" stroke="#ff0000" cx="669" cy="-106.8" rx="27" ry="18"/>
<text text-anchor="middle" x="669" y="-102.6" font-family="Times,serif" font-size="14.00" fill="#000000">3</text>
</g>
<!-- 14&#45;&#45;3 -->
<g id="edge10" class="edge">
<title>14&#45;&#45;3</title>
<path fill="none" stroke="#000000" d="M680.1669,-177.63C677.738,-162.2236 674.2566,-140.142 671.8289,-124.7433"/>
<text text-anchor="middle" x="693.75" y="-147" font-family="Times,serif" font-size="14.00" fill="#000000">19.92</text>
</g>
<!-- 6 -->
<g id="node16" class="node">
<title>6</title>
<ellipse fill="none" stroke="#ff0000" cx="619" cy="-18" rx="27" ry="18"/>
<text text-anchor="middle" x="619" y="-13.8" font-family="Times,serif" font-size="14.00" fill="#000000">6</text>
</g>
<!-- 3&#45;&#45;6 -->
<g id="edge11" class="edge">
<title>3&#45;&#45;6</title>
<path fill="none" stroke="#000000" d="M659.3595,-89.6785C650.5056,-73.954 637.4554,-50.7768 628.6109,-35.069"/>
<text text-anchor="middle" x="661.25" y="-58.2" font-family="Times,serif" font-size="14.00" fill="#000000">2.48</text>
</g>
<!-- 15 -->
<g id="node17" class="node">
<title>15</title>
<ellipse fill="none" stroke="#ff0000" cx="55" cy="-195.6" rx="27" ry="18"/>
<text text-anchor="middle" x="55" y="-191.4" font-family="Times,serif" font-size="14.00" fill="#000000">15</text>
</g>
<!-- 15&#45;&#45;23 -->
<g id="edge12" class="edge">
<title>15&#45;&#45;23</title>
<path fill="none" stroke="#000000" d="M40.5652,-180.317C35.8064,-174.3205 31.0762,-167.085 28.5,-159.6 24.68,-148.5009 24.305,-135.3009 24.885,-124.8757"/>
<text text-anchor="middle" x="44.75" y="-147" font-family="Times,serif" font-size="14.00" fill="#000000">19.71</text>
</g>
<!-- 15&#45;&#45;9 -->
<g id="edge13" class="edge">
<title>15&#45;&#45;9</title>
<path fill="none" stroke="#000000" d="M66.5552,-179.3127C77.8514,-163.3905 94.9608,-139.2743 106.3047,-123.2848"/>
<text text-anchor="middle" x="108.75" y="-147" font-family="Times,serif" font-size="14.00" fill="#000000">18.31</text>
</g>
<!-- 16 -->
<g id="node18" class="node">
<title>16</title>
<ellipse fill="none" stroke="#ff0000" cx="133" cy="-284.4" rx="27" ry="18"/>
<text text-anchor="middle" x="133" y="-280.2" font-family="Times,serif" font-size="14.00" fill="#000000">16</text>
</g>
<!-- 16&#45;&#45;4 -->
<g id="edge14" class="edge">
<title>16&#45;&#45;4</title>
<path fill="none" stroke="#000000" d="M135.0277,-266.3737C136.5787,-255.965 139.2037,-242.765 143.5,-231.6 146.0621,-224.9418 149.8133,-218.1056 153.4678,-212.2035"/>
<text text-anchor="middle" x="159.75" y="-235.8" font-family="Times,serif" font-size="14.00" fill="#000000">16.93</text>
</g>
<!-- 17 -->
<g id="node19" class="node">
<title>17</title>
<ellipse fill="none" stroke="#ff0000" cx="393" cy="-195.6" rx="27" ry="18"/>
<text text-anchor="middle" x="393" y="-191.4" font-family="Times,serif" font-size="14.00" fill="#000000">17</text>
</g>
<!-- 17&#45;&#45;5 -->
<g id="edge15" class="edge">
<title>17&#45;&#45;5</title>
<path fill="none" stroke="#000000" d="M406.2432,-179.5747C415.5889,-168.6829 428.6809,-154.233 441.5,-142.8 450.8578,-134.454 462.1058,-126.1533 471.5133,-119.6294"/>
<text text-anchor="middle" x="457.75" y="-147" font-family="Times,serif" font-size="14.00" fill="#000000">17.96</text>
</g>
<!-- 17&#45;&#45;24 -->
<g id="edge16" class="edge">
<title>17&#45;&#45;24</title>
<path fill="none" stroke="#000000" d="M384.4006,-178.4953C381.4892,-172.5529 378.2744,-165.8196 375.5,-159.6 370.339,-148.0301 364.964,-134.8301 360.8792,-124.5226"/>
<text text-anchor="middle" x="391.75" y="-147" font-family="Times,serif" font-size="14.00" fill="#000000">16.67</text>
</g>
<!-- 19 -->
<g id="node20" class="node">
<title>19</title>
<ellipse fill="none" stroke="#0000ff" cx="539" cy="-195.6" rx="27" ry="18"/>
<text text-anchor="middle" x="539" y="-191.4" font-family="Times,serif" font-size="14.00" fill="#000000">19</text>
</g>
<!-- 19&#45;&#45;5 -->
<g id="edge17" class="edge">
<title>19&#45;&#45;5</title>
<path fill="none" stroke="#000000" d="M532.839,-178.0062C528.8785,-167.5057 523.3038,-154.066 517,-142.8 513.1601,-135.9375 508.2526,-128.8284 503.7378,-122.7588"/>
<text text-anchor="middle" x="537.25" y="-147" font-family="Times,serif" font-size="14.00" fill="#000000">5.46</text>
</g>
<!-- 0 -->
<g id="node21" class="node">
<title>0</title>
<ellipse fill="none" stroke="#0000ff" cx="755" cy="-284.4" rx="27" ry="18"/>
<text text-anchor="middle" x="755" y="-280.2" font-family="Times,serif" font-size="14.00" fill="#000000">0</text>
</g>
<!-- 0&#45;&#45;11 -->
<g id="edge18" class="edge">
<title>0&#45;&#45;11</title>
<path fill="none" stroke="#000000" d="M755,-266.0006C755,-250.6587 755,-228.922 755,-213.672"/>
<text text-anchor="middle" x="770.75" y="-235.8" font-family="Times,serif" font-size="14.00" fill="#000000">22.95</text>
</g>
<!-- 1 -->
<g id="node22" class="node">
<title>1</title>
<ellipse fill="none" stroke="#ff0000" cx="647" cy="-284.4" rx="27" ry="18"/>
<text text-anchor="middle" x="647" y="-280.2" font-family="Times,serif" font-size="14.00" fill="#000000">1</text>
</g>
<!-- 1&#45;&#45;11 -->
<g id="edge19" class="edge">
<title>1&#45;&#45;11</title>
<path fill="none" stroke="#000000" d="M664.3521,-270.1327C684.506,-253.5617 717.5554,-226.3878 737.691,-209.8318"/>
<text text-anchor="middle" x="726.75" y="-235.8" font-family="Times,serif" font-size="14.00" fill="#000000">13.87</text>
</g>
<!-- 2 -->
<g id="node23" class="node">
<title>2</title>
<ellipse fill="none" stroke="#0000ff" cx="611" cy="-195.6" rx="27" ry="18"/>
<text text-anchor="middle" x="611" y="-191.4" font-family="Times,serif" font-size="14.00" fill="#000000">2</text>
</g>
<!-- 1&#45;&#45;2 -->
<g id="edge20" class="edge">
<title>1&#45;&#45;2</title>
<path fill="none" stroke="#000000" d="M638.2231,-267.3718C635.2974,-261.4356 632.1191,-254.6866 629.5,-248.4 624.7187,-236.9234 620.0937,-223.7234 616.664,-213.3926"/>
<text text-anchor="middle" x="645.75" y="-235.8" font-family="Times,serif" font-size="14.00" fill="#000000">18.02</text>
</g>
<!-- 2&#45;&#45;5 -->
<g id="edge21" class="edge">
<title>2&#45;&#45;5</title>
<path fill="none" stroke="#000000" d="M596.0183,-180.3122C584.7373,-169.2229 568.598,-154.2274 553,-142.8 540.2484,-133.458 524.89,-124.525 512.6496,-117.8945"/>
<text text-anchor="middle" x="589.75" y="-147" font-family="Times,serif" font-size="14.00" fill="#000000">16.66</text>
</g>
<!-- 20 -->
<g id="node24" class="node">
<title>20</title>
<ellipse fill="none" stroke="#ff0000" cx="319" cy="-195.6" rx="27" ry="18"/>
<text text-anchor="middle" x="319" y="-191.4" font-family="Times,serif" font-size="14.00" fill="#000000">20</text>
</g>
<!-- 20&#45;&#45;24 -->
<g id="edge22" class="edge">
<title>20&#45;&#45;24</title>
<path fill="none" stroke="#000000" d="M316.4118,-177.3461C315.674,-166.8614 316.049,-153.6614 320.5,-142.8 323.9316,-134.4262 330.2649,-126.8148 336.5086,-120.7701"/>
<text text-anchor="middle" x="336.75" y="-147" font-family="Times,serif" font-size="14.00" fill="#000000">11.63</text>
</g>
<!-- 21 -->
<g id="node25" class="node">
<title>21</title>
<ellipse fill="none" stroke="#ff0000" cx="570" cy="-106.8" rx="27" ry="18"/>
<text text-anchor="middle" x="570" y="-102.6" font-family="Times,serif" font-size="14.00" fill="#000000">21</text>
</g>
<!-- 21&#45;&#45;8 -->
<g id="edge24" class="edge">
<title>21&#45;&#45;8</title>
<path fill="none" stroke="#000000" d="M546.8053,-97.0507C540.3937,-94.3666 533.4308,-91.4618 527,-88.8 473.4761,-66.6454 410.4839,-40.9646 377.2495,-27.4461"/>
<text text-anchor="middle" x="495.75" y="-58.2" font-family="Times,serif" font-size="14.00" fill="#000000">15.78</text>
</g>
<!-- 21&#45;&#45;6 -->
<g id="edge23" class="edge">
<title>21&#45;&#45;6</title>
<path fill="none" stroke="#000000" d="M578.6671,-89.5442C583.9601,-79.1635 590.9493,-65.731 597.5,-54 601.0492,-47.644 605.1062,-40.7605 608.7328,-34.7314"/>
<text text-anchor="middle" x="613.75" y="-58.2" font-family="Times,serif" font-size="14.00" fill="#000000">24.93</text>
</g>
</g>
</svg>
