<svg width="1920px" height="883px"
 viewBox="0.00 0.00 1060.69 488.00" xmlns="http://www.w3.org/2000/svg" xmlns:xlink="http://www.w3.org/1999/xlink">
<g id="graph0" class="graph" transform="scale(1.0 1.0) rotate(0) translate(4 484)">
<title>%0</title>
<polygon fill="#ffffff" stroke="transparent" points="-4,4 -4,-484 1056.6908,-484 1056.6908,4 -4,4"/>
<!-- 22 -->
<g id="node1" class="node">
<title>22</title>
<ellipse fill="none" stroke="#ff0000" cx="397.1908" cy="-106.8" rx="27" ry="18"/>
<text text-anchor="middle" x="397.1908" y="-102.6" font-family="Times,serif" font-size="14.00" fill="#000000">22</text>
</g>
<!-- 4 -->
<g id="node2" class="node">
<title>4</title>
<ellipse fill="none" stroke="#ff0000" cx="570.1908" cy="-18" rx="27" ry="18"/>
<text text-anchor="middle" x="570.1908" y="-13.8" font-family="Times,serif" font-size="14.00" fill="#000000">4</text>
</g>
<!-- 22&#45;&#45;4 -->
<g id="edge1" class="edge">
<title>22&#45;&#45;4</title>
<path fill="none" stroke="#000000" d="M418.7516,-95.733C451.9935,-78.67 515.3891,-46.1294 548.6307,-29.0667"/>
<text text-anchor="middle" x="514.9408" y="-58.2" font-family="Times,serif" font-size="14.00" fill="#000000">19.69</text>
</g>
<!-- 6 -->
<g id="node3" class="node">
<title>6</title>
<ellipse fill="none" stroke="#ff0000" cx="398.1908" cy="-18" rx="27" ry="18"/>
<text text-anchor="middle" x="398.1908" y="-13.8" font-family="Times,serif" font-size="14.00" fill="#000000">6</text>
</g>
<!-- 22&#45;&#45;6 -->
<g id="edge2" class="edge">
<title>22&#45;&#45;6</title>
<path fill="none" stroke="#000000" d="M397.398,-88.4006C397.5707,-73.0587 397.8155,-51.322 397.9873,-36.072"/>
<text text-anchor="middle" x="410.4408" y="-58.2" font-family="Times,serif" font-size="14.00" fill="#000000">6.12</text>
</g>
<!-- 7 -->
<g id="node4" class="node">
<title>7</title>
<ellipse fill="none" stroke="#ff0000" cx="729.1908" cy="-18" rx="27" ry="18"/>
<text text-anchor="middle" x="729.1908" y="-13.8" font-family="Times,serif" font-size="14.00" fill="#000000">7</text>
</g>
<!-- 22&#45;&#45;7 -->
<g id="edge3" class="edge">
<title>22&#45;&#45;7</title>
<path fill="none" stroke="#000000" d="M419.6312,-96.3746C426.1602,-93.6251 433.3721,-90.8557 440.1908,-88.8 480.917,-76.5216 492.7434,-80.3654 534.1908,-70.8 595.8765,-56.5638 667.5171,-36.1542 704.4085,-25.3539"/>
<text text-anchor="middle" x="614.9408" y="-58.2" font-family="Times,serif" font-size="14.00" fill="#000000">20.34</text>
</g>
<!-- 23 -->
<g id="node5" class="node">
<title>23</title>
<ellipse fill="none" stroke="#ff0000" cx="819.1908" cy="-284.4" rx="27" ry="18"/>
<text text-anchor="middle" x="819.1908" y="-280.2" font-family="Times,serif" font-size="14.00" fill="#000000">23</text>
</g>
<!-- 24 -->
<g id="node6" class="node">
<title>24</title>
<ellipse fill="none" stroke="#ff0000" cx="819.1908" cy="-195.6" rx="27" ry="18"/>
<text text-anchor="middle" x="819.1908" y="-191.4" font-family="Times,serif" font-size="14.00" fill="#000000">24</text>
</g>
<!-- 23&#45;&#45;24 -->
<g id="edge4" class="edge">
<title>23&#45;&#45;24</title>
<path fill="none" stroke="#000000" d="M819.1908,-266.0006C819.1908,-250.6587 819.1908,-228.922 819.1908,-213.672"/>
<text text-anchor="middle" x="834.9408" y="-235.8" font-family="Times,serif" font-size="14.00" fill="#000000">16.96</text>
</g>
<!-- 3 -->
<g id="node7" class="node">
<title>3</title>
<ellipse fill="none" stroke="#0000ff" cx="747.1908" cy="-106.8" rx="27" ry="18"/>
<text text-anchor="middle" x="747.1908" y="-102.6" font-family="Times,serif" font-size="14.00" fill="#000000">3</text>
</g>
<!-- 24&#45;&#45;3 -->
<g id="edge5" class="edge">
<title>24&#45;&#45;3</title>
<path fill="none" stroke="#000000" d="M806.3186,-179.7243C793.2941,-163.6608 773.2656,-138.9589 760.1942,-122.8376"/>
<text text-anchor="middle" x="805.9408" y="-147" font-family="Times,serif" font-size="14.00" fill="#000000">22.62</text>
</g>
<!-- 3&#45;&#45;4 -->
<g id="edge6" class="edge">
<title>3&#45;&#45;4</title>
<path fill="none" stroke="#000000" d="M738.5641,-89.6092C731.8295,-77.8941 721.4045,-62.9413 708.1908,-54 674.355,-31.1044 626.8076,-22.7675 597.2798,-19.7336"/>
<text text-anchor="middle" x="740.9408" y="-58.2" font-family="Times,serif" font-size="14.00" fill="#000000">11.16</text>
</g>
<!-- 3&#45;&#45;3 -->
<g id="edge7" class="edge">
<title>3&#45;&#45;3</title>
<path fill="none" stroke="#000000" d="M771.7232,-114.9211C782.6986,-115.6945 792.1908,-112.9875 792.1908,-106.8 792.1908,-100.6125 782.6986,-97.9055 771.7232,-98.6789"/>
<text text-anchor="middle" x="807.9408" y="-102.6" font-family="Times,serif" font-size="14.00" fill="#000000">10.46</text>
</g>
<!-- 10 -->
<g id="node8" class="node">
<title>10</title>
<ellipse fill="none" stroke="#0000ff" cx="60.1908" cy="-195.6" rx="27" ry="18"/>
<text text-anchor="middle" x="60.1908" y="-191.4" font-family="Times,serif" font-size="14.00" fill="#000000">10</text>
</g>
<!-- 9 -->
<g id="node9" class="node">
<title>9</title>
<ellipse fill="none" stroke="#ff0000" cx="60.1908" cy="-106.8" rx="27" ry="18"/>
<text text-anchor="middle" x="60.1908" y="-102.6" font-family="Times,serif" font-size="14.00" fill="#000000">9</text>
</g>
<!-- 10&#45;&#45;9 -->
<g id="edge8" class="edge">
<title>10&#45;&#45;9</title>
<path fill="none" stroke="#000000" d="M60.1908,-177.2006C60.1908,-161.8587 60.1908,-140.122 60.1908,-124.872"/>
<text text-anchor="middle" x="72.4408" y="-147" font-family="Times,serif" font-size="14.00" fill="#000000">3.16</text>
</g>
<!-- 9&#45;&#45;9 -->
<g id="edge9" class="edge">
<title>9&#45;&#45;9</title>
<path fill="none" stroke="#000000" d="M84.7232,-114.9211C95.6986,-115.6945 105.1908,-112.9875 105.1908,-106.8 105.1908,-100.6125 95.6986,-97.9055 84.7232,-98.6789"/>
<text text-anchor="middle" x="120.9408" y="-102.6" font-family="Times,serif" font-size="14.00" fill="#000000">20.46</text>
</g>
<!-- 11 -->
<g id="node10" class="node">
<title>11</title>
<ellipse fill="none" stroke="#ff0000" cx="287.1908" cy="-373.2" rx="27" ry="18"/>
<text text-anchor="middle" x="287.1908" y="-369" font-family="Times,serif" font-size="14.00" fill="#000000">11</text>
</g>
<!-- 15 -->
<g id="node11" class="node">
<title>15</title>
<ellipse fill="none" stroke="#0000ff" cx="436.1908" cy="-284.4" rx="27" ry="18"/>
<text text-anchor="middle" x="436.1908" y="-280.2" font-family="Times,serif" font-size="14.00" fill="#000000">15</text>
</g>
<!-- 11&#45;&#45;15 -->
<g id="edge10" class="edge">
<title>11&#45;&#45;15</title>
<path fill="none" stroke="#000000" d="M311.4859,-365.2532C329.2471,-358.9233 353.5603,-349.1544 373.1908,-337.2 390.7424,-326.5115 408.482,-311.1413 420.6447,-299.7383"/>
<text text-anchor="middle" x="408.4408" y="-324.6" font-family="Times,serif" font-size="14.00" fill="#000000">6.26</text>
</g>
<!-- 18 -->
<g id="node15" class="node">
<title>18</title>
<ellipse fill="none" stroke="#ff0000" cx="152.1908" cy="-284.4" rx="27" ry="18"/>
<text text-anchor="middle" x="152.1908" y="-280.2" font-family="Times,serif" font-size="14.00" fill="#000000">18</text>
</g>
<!-- 11&#45;&#45;18 -->
<g id="edge11" class="edge">
<title>11&#45;&#45;18</title>
<path fill="none" stroke="#000000" d="M260.0875,-370.5021C235.6592,-366.7733 200.0855,-357.9537 176.6908,-337.2 166.4098,-328.0796 160.1378,-313.7481 156.5168,-302.3162"/>
<text text-anchor="middle" x="189.4408" y="-324.6" font-family="Times,serif" font-size="14.00" fill="#000000">1.77</text>
</g>
<!-- 2 -->
<g id="node16" class="node">
<title>2</title>
<ellipse fill="none" stroke="#ff0000" cx="177.1908" cy="-195.6" rx="27" ry="18"/>
<text text-anchor="middle" x="177.1908" y="-191.4" font-family="Times,serif" font-size="14.00" fill="#000000">2</text>
</g>
<!-- 11&#45;&#45;2 -->
<g id="edge13" class="edge">
<title>11&#45;&#45;2</title>
<path fill="none" stroke="#000000" d="M274.5083,-357.0217C263.6888,-342.9337 247.9792,-321.7844 235.6908,-302.4 216.3349,-271.8671 196.7356,-234.472 185.8543,-213.0054"/>
<text text-anchor="middle" x="248.4408" y="-280.2" font-family="Times,serif" font-size="14.00" fill="#000000">0.48</text>
</g>
<!-- 21 -->
<g id="node17" class="node">
<title>21</title>
<ellipse fill="none" stroke="#ff0000" cx="348.1908" cy="-195.6" rx="27" ry="18"/>
<text text-anchor="middle" x="348.1908" y="-191.4" font-family="Times,serif" font-size="14.00" fill="#000000">21</text>
</g>
<!-- 11&#45;&#45;21 -->
<g id="edge12" class="edge">
<title>11&#45;&#45;21</title>
<path fill="none" stroke="#000000" d="M298.0814,-356.2957C315.7743,-329.3241 350.6003,-278.3682 368.6908,-266.4 395.6612,-248.557 419.3531,-273.939 439.1908,-248.4 443.7711,-242.5033 443.4842,-237.7088 439.1908,-231.6 425.6099,-212.2768 411.1276,-222.3523 389.1908,-213.6 383.1257,-211.1802 376.6265,-208.4104 370.6311,-205.7808"/>
<text text-anchor="middle" x="384.9408" y="-280.2" font-family="Times,serif" font-size="14.00" fill="#000000">19.26</text>
</g>
<!-- 15&#45;&#45;15 -->
<g id="edge15" class="edge">
<title>15&#45;&#45;15</title>
<path fill="none" stroke="#000000" d="M460.7232,-292.5211C471.6986,-293.2945 481.1908,-290.5875 481.1908,-284.4 481.1908,-278.2125 471.6986,-275.5055 460.7232,-276.2789"/>
<text text-anchor="middle" x="496.9408" y="-280.2" font-family="Times,serif" font-size="14.00" fill="#000000">19.74</text>
</g>
<!-- 16 -->
<g id="node12" class="node">
<title>16</title>
<ellipse fill="none" stroke="#ff0000" cx="481.1908" cy="-195.6" rx="27" ry="18"/>
<text text-anchor="middle" x="481.1908" y="-191.4" font-family="Times,serif" font-size="14.00" fill="#000000">16</text>
</g>
<!-- 15&#45;&#45;16 -->
<g id="edge14" class="edge">
<title>15&#45;&#45;16</title>
<path fill="none" stroke="#000000" d="M450.3003,-268.7426C455.2048,-262.7055 460.4165,-255.5401 464.1908,-248.4 469.9513,-237.5023 474.2013,-224.3023 477.0112,-213.8268"/>
<text text-anchor="middle" x="487.9408" y="-235.8" font-family="Times,serif" font-size="14.00" fill="#000000">21.64</text>
</g>
<!-- 16&#45;&#45;22 -->
<g id="edge17" class="edge">
<title>16&#45;&#45;22</title>
<path fill="none" stroke="#000000" d="M465.2127,-180.8233C458.4475,-174.4237 450.5581,-166.7688 443.6908,-159.6 432.1993,-147.604 419.7939,-133.4522 410.6889,-122.8207"/>
<text text-anchor="middle" x="459.9408" y="-147" font-family="Times,serif" font-size="14.00" fill="#000000">11.11</text>
</g>
<!-- 20 -->
<g id="node13" class="node">
<title>20</title>
<ellipse fill="none" stroke="#ff0000" cx="476.1908" cy="-106.8" rx="27" ry="18"/>
<text text-anchor="middle" x="476.1908" y="-102.6" font-family="Times,serif" font-size="14.00" fill="#000000">20</text>
</g>
<!-- 16&#45;&#45;20 -->
<g id="edge16" class="edge">
<title>16&#45;&#45;20</title>
<path fill="none" stroke="#000000" d="M480.1548,-177.2006C479.2909,-161.8587 478.067,-140.122 477.2083,-124.872"/>
<text text-anchor="middle" x="494.9408" y="-147" font-family="Times,serif" font-size="14.00" fill="#000000">23.94</text>
</g>
<!-- 20&#45;&#45;7 -->
<g id="edge19" class="edge">
<title>20&#45;&#45;7</title>
<path fill="none" stroke="#000000" d="M502.7669,-103.3107C546.7961,-97.2473 632.742,-84.1332 660.1908,-70.8 670.4806,-65.8017 670.7241,-61.1036 679.6908,-54 689.5192,-46.2138 700.804,-37.9568 710.1144,-31.3173"/>
<text text-anchor="middle" x="692.4408" y="-58.2" font-family="Times,serif" font-size="14.00" fill="#000000">4.80</text>
</g>
<!-- 8 -->
<g id="node14" class="node">
<title>8</title>
<ellipse fill="none" stroke="#0000ff" cx="292.1908" cy="-18" rx="27" ry="18"/>
<text text-anchor="middle" x="292.1908" y="-13.8" font-family="Times,serif" font-size="14.00" fill="#000000">8</text>
</g>
<!-- 20&#45;&#45;8 -->
<g id="edge18" class="edge">
<title>20&#45;&#45;8</title>
<path fill="none" stroke="#000000" d="M453.6265,-96.7552C447.0955,-94.0118 439.9136,-91.1504 433.1908,-88.8 405.5001,-79.119 396.2666,-83.2186 369.6908,-70.8 347.4186,-60.3925 324.4572,-43.8926 309.3684,-32.1084"/>
<text text-anchor="middle" x="382.4408" y="-58.2" font-family="Times,serif" font-size="14.00" fill="#000000">8.73</text>
</g>
<!-- 18&#45;&#45;6 -->
<g id="edge21" class="edge">
<title>18&#45;&#45;6</title>
<path fill="none" stroke="#000000" d="M126.5226,-278.539C95.9494,-270.0302 46.2479,-251.0068 24.1908,-213.6 -3.9823,-165.8211 -11.517,-131.2442 24.1908,-88.8 68.3321,-36.3312 261.1565,-50.4161 328.1908,-36 343.1573,-32.7814 359.7567,-28.5425 373.0335,-24.9868"/>
<text text-anchor="middle" x="17.9408" y="-147" font-family="Times,serif" font-size="14.00" fill="#000000">10.45</text>
</g>
<!-- 18&#45;&#45;3 -->
<g id="edge20" class="edge">
<title>18&#45;&#45;3</title>
<path fill="none" stroke="#000000" d="M169.0341,-270.2215C202.2275,-242.4151 274.0648,-182.9524 287.6908,-177.6 379.6216,-141.4887 411.5264,-174.3305 509.1908,-159.6 587.6608,-147.7645 678.8577,-124.942 722.0439,-113.5759"/>
<text text-anchor="middle" x="300.4408" y="-191.4" font-family="Times,serif" font-size="14.00" fill="#000000">7.56</text>
</g>
<!-- 18&#45;&#45;2 -->
<g id="edge22" class="edge">
<title>18&#45;&#45;2</title>
<path fill="none" stroke="#000000" d="M157.2499,-266.43C161.5873,-251.0236 167.804,-228.942 172.1392,-213.5433"/>
<text text-anchor="middle" x="179.4408" y="-235.8" font-family="Times,serif" font-size="14.00" fill="#000000">2.52</text>
</g>
<!-- 2&#45;&#45;22 -->
<g id="edge23" class="edge">
<title>2&#45;&#45;22</title>
<path fill="none" stroke="#000000" d="M192.9587,-180.7758C207.9246,-166.9908 229.5876,-147.8445 239.6908,-142.8 282.3518,-121.4992 337.8079,-112.6133 370.2529,-109.0469"/>
<text text-anchor="middle" x="255.9408" y="-147" font-family="Times,serif" font-size="14.00" fill="#000000">21.89</text>
</g>
<!-- 2&#45;&#45;4 -->
<g id="edge26" class="edge">
<title>2&#45;&#45;4</title>
<path fill="none" stroke="#000000" d="M187.751,-178.7994C195.4388,-167.5615 206.6649,-153.0166 219.1908,-142.8 252.9844,-115.2367 353.0155,-68.3648 394.1908,-54 445.4296,-36.1243 508.3233,-25.9173 543.3574,-21.2125"/>
<text text-anchor="middle" x="328.9408" y="-102.6" font-family="Times,serif" font-size="14.00" fill="#000000">13.44</text>
</g>
<!-- 2&#45;&#45;9 -->
<g id="edge24" class="edge">
<title>2&#45;&#45;9</title>
<path fill="none" stroke="#000000" d="M159.1659,-181.9196C137.1154,-165.1838 100.0163,-137.0265 78.0441,-120.3502"/>
<text text-anchor="middle" x="141.4408" y="-147" font-family="Times,serif" font-size="14.00" fill="#000000">6.15</text>
</g>
<!-- 2&#45;&#45;8 -->
<g id="edge25" class="edge">
<title>2&#45;&#45;8</title>
<path fill="none" stroke="#000000" d="M174.3223,-177.5505C171.7037,-155.0951 170.3882,-116.3563 186.6908,-88.8 205.1104,-57.6653 243.2271,-37.3656 268.2446,-26.7962"/>
<text text-anchor="middle" x="199.4408" y="-102.6" font-family="Times,serif" font-size="14.00" fill="#000000">1.28</text>
</g>
<!-- 21&#45;&#45;22 -->
<g id="edge27" class="edge">
<title>21&#45;&#45;22</title>
<path fill="none" stroke="#000000" d="M341.5132,-177.9781C338.57,-167.2169 336.9276,-153.5138 342.6908,-142.8 349.2982,-130.5166 362.1377,-121.7261 373.6952,-115.9078"/>
<text text-anchor="middle" x="358.9408" y="-147" font-family="Times,serif" font-size="14.00" fill="#000000">15.40</text>
</g>
<!-- 12 -->
<g id="node18" class="node">
<title>12</title>
<ellipse fill="none" stroke="#ff0000" cx="952.1908" cy="-284.4" rx="27" ry="18"/>
<text text-anchor="middle" x="952.1908" y="-280.2" font-family="Times,serif" font-size="14.00" fill="#000000">12</text>
</g>
<!-- 12&#45;&#45;7 -->
<g id="edge30" class="edge">
<title>12&#45;&#45;7</title>
<path fill="none" stroke="#000000" d="M973.3477,-272.5413C982.3366,-266.4551 992.1223,-258.2399 998.1908,-248.4 1014.7889,-221.4866 1020.9915,-204.9892 1005.1908,-177.6 949.8723,-81.71 812.5319,-38.236 755.0926,-23.8046"/>
<text text-anchor="middle" x="1004.4408" y="-147" font-family="Times,serif" font-size="14.00" fill="#000000">5.03</text>
</g>
<!-- 12&#45;&#45;12 -->
<g id="edge28" class="edge">
<title>12&#45;&#45;12</title>
<path fill="none" stroke="#000000" d="M976.7232,-292.5211C987.6986,-293.2945 997.1908,-290.5875 997.1908,-284.4 997.1908,-278.2125 987.6986,-275.5055 976.7232,-276.2789"/>
<text text-anchor="middle" x="1009.4408" y="-280.2" font-family="Times,serif" font-size="14.00" fill="#000000">4.31</text>
</g>
<!-- 5 -->
<g id="node19" class="node">
<title>5</title>
<ellipse fill="none" stroke="#ff0000" cx="969.1908" cy="-195.6" rx="27" ry="18"/>
<text text-anchor="middle" x="969.1908" y="-191.4" font-family="Times,serif" font-size="14.00" fill="#000000">5</text>
</g>
<!-- 12&#45;&#45;5 -->
<g id="edge29" class="edge">
<title>12&#45;&#45;5</title>
<path fill="none" stroke="#000000" d="M955.631,-266.43C958.5804,-251.0236 962.8077,-228.942 965.7557,-213.5433"/>
<text text-anchor="middle" x="977.9408" y="-235.8" font-family="Times,serif" font-size="14.00" fill="#000000">14.01</text>
</g>
<!-- 13 -->
<g id="node20" class="node">
<title>13</title>
<ellipse fill="none" stroke="#ff0000" cx="296.1908" cy="-284.4" rx="27" ry="18"/>
<text text-anchor="middle" x="296.1908" y="-280.2" font-family="Times,serif" font-size="14.00" fill="#000000">13</text>
</g>
<!-- 13&#45;&#45;20 -->
<g id="edge32" class="edge">
<title>13&#45;&#45;20</title>
<path fill="none" stroke="#000000" d="M318.4389,-274.1879C331.1049,-267.7839 346.8549,-258.7839 359.1908,-248.4 371.3586,-238.1575 435.6163,-157.8847 463.3873,-122.9507"/>
<text text-anchor="middle" x="430.4408" y="-191.4" font-family="Times,serif" font-size="14.00" fill="#000000">9.79</text>
</g>
<!-- 13&#45;&#45;8 -->
<g id="edge33" class="edge">
<title>13&#45;&#45;8</title>
<path fill="none" stroke="#000000" d="M295.9158,-266.0892C295.1833,-217.3046 293.191,-84.6132 292.4623,-36.0866"/>
<text text-anchor="middle" x="307.4408" y="-147" font-family="Times,serif" font-size="14.00" fill="#000000">5.17</text>
</g>
<!-- 13&#45;&#45;21 -->
<g id="edge31" class="edge">
<title>13&#45;&#45;21</title>
<path fill="none" stroke="#000000" d="M306.2169,-267.2785C315.4839,-251.4532 329.1713,-228.0793 338.3718,-212.3678"/>
<text text-anchor="middle" x="342.9408" y="-235.8" font-family="Times,serif" font-size="14.00" fill="#000000">16.66</text>
</g>
<!-- 14 -->
<g id="node21" class="node">
<title>14</title>
<ellipse fill="none" stroke="#0000ff" cx="626.1908" cy="-373.2" rx="27" ry="18"/>
<text text-anchor="middle" x="626.1908" y="-369" font-family="Times,serif" font-size="14.00" fill="#000000">14</text>
</g>
<!-- 14&#45;&#45;4 -->
<g id="edge34" class="edge">
<title>14&#45;&#45;4</title>
<path fill="none" stroke="#000000" d="M623.3367,-355.0972C613.7304,-294.1656 582.6368,-96.9436 573.0391,-36.0663"/>
<text text-anchor="middle" x="616.9408" y="-191.4" font-family="Times,serif" font-size="14.00" fill="#000000">10.40</text>
</g>
<!-- 17 -->
<g id="node22" class="node">
<title>17</title>
<ellipse fill="none" stroke="#ff0000" cx="689.1908" cy="-284.4" rx="27" ry="18"/>
<text text-anchor="middle" x="689.1908" y="-280.2" font-family="Times,serif" font-size="14.00" fill="#000000">17</text>
</g>
<!-- 14&#45;&#45;17 -->
<g id="edge35" class="edge">
<title>14&#45;&#45;17</title>
<path fill="none" stroke="#000000" d="M629.5035,-354.893C632.091,-344.1397 636.4913,-330.6846 643.6908,-320.4 650.276,-310.9929 660.0191,-302.825 668.8016,-296.6582"/>
<text text-anchor="middle" x="659.9408" y="-324.6" font-family="Times,serif" font-size="14.00" fill="#000000">11.32</text>
</g>
<!-- 17&#45;&#45;6 -->
<g id="edge39" class="edge">
<title>17&#45;&#45;6</title>
<path fill="none" stroke="#000000" d="M681.9812,-266.748C672.264,-244.3613 653.3602,-205.3403 629.1908,-177.6 566.5891,-105.7493 464.8837,-50.5614 420.3084,-28.4895"/>
<text text-anchor="middle" x="627.9408" y="-147" font-family="Times,serif" font-size="14.00" fill="#000000">14.27</text>
</g>
<!-- 17&#45;&#45;7 -->
<g id="edge40" class="edge">
<title>17&#45;&#45;7</title>
<path fill="none" stroke="#000000" d="M685.5353,-266.4595C679.0062,-229.041 669.6305,-141.7593 711.1908,-88.8 725.5139,-70.5484 746.9117,-89.8247 760.1908,-70.8 768.9518,-58.2482 758.0481,-43.1109 746.8304,-32.2683"/>
<text text-anchor="middle" x="701.9408" y="-147" font-family="Times,serif" font-size="14.00" fill="#000000">17.71</text>
</g>
<!-- 17&#45;&#45;2 -->
<g id="edge37" class="edge">
<title>17&#45;&#45;2</title>
<path fill="none" stroke="#000000" d="M662.7468,-279.9077C639.8722,-276.0888 605.8953,-270.5769 576.1908,-266.4 510.7923,-257.204 493.6125,-260.5121 428.6908,-248.4 398.7237,-242.8092 392.1496,-237.2345 362.1908,-231.6 298.804,-219.6785 280.3689,-230.7429 218.1908,-213.6 211.7458,-211.8231 205.004,-209.2086 198.8922,-206.5199"/>
<text text-anchor="middle" x="444.9408" y="-235.8" font-family="Times,serif" font-size="14.00" fill="#000000">23.80</text>
</g>
<!-- 17&#45;&#45;5 -->
<g id="edge38" class="edge">
<title>17&#45;&#45;5</title>
<path fill="none" stroke="#000000" d="M715.0785,-279.1789C733.9326,-275.4408 760.1037,-270.385 783.1908,-266.4 835.0359,-257.4511 851.7919,-269.0289 900.1908,-248.4 901.6651,-247.7716 931.6089,-224.6941 951.561,-209.2598"/>
<text text-anchor="middle" x="936.9408" y="-235.8" font-family="Times,serif" font-size="14.00" fill="#000000">20.53</text>
</g>
<!-- 19 -->
<g id="node23" class="node">
<title>19</title>
<ellipse fill="none" stroke="#0000ff" cx="747.1908" cy="-195.6" rx="27" ry="18"/>
<text text-anchor="middle" x="747.1908" y="-191.4" font-family="Times,serif" font-size="14.00" fill="#000000">19</text>
</g>
<!-- 17&#45;&#45;19 -->
<g id="edge36" class="edge">
<title>17&#45;&#45;19</title>
<path fill="none" stroke="#000000" d="M700.1001,-267.6974C710.4696,-251.8214 725.9771,-228.0789 736.3303,-212.2277"/>
<text text-anchor="middle" x="739.9408" y="-235.8" font-family="Times,serif" font-size="14.00" fill="#000000">22.19</text>
</g>
<!-- 19&#45;&#45;3 -->
<g id="edge41" class="edge">
<title>19&#45;&#45;3</title>
<path fill="none" stroke="#000000" d="M747.1908,-177.2006C747.1908,-161.8587 747.1908,-140.122 747.1908,-124.872"/>
<text text-anchor="middle" x="759.4408" y="-147" font-family="Times,serif" font-size="14.00" fill="#000000">1.83</text>
</g>
<!-- 0 -->
<g id="node24" class="node">
<title>0</title>
<ellipse fill="none" stroke="#0000ff" cx="902.1908" cy="-373.2" rx="27" ry="18"/>
<text text-anchor="middle" x="902.1908" y="-369" font-family="Times,serif" font-size="14.00" fill="#000000">0</text>
</g>
<!-- 0&#45;&#45;3 -->
<g id="edge43" class="edge">
<title>0&#45;&#45;3</title>
<path fill="none" stroke="#000000" d="M897.6847,-355.0268C891.6786,-330.7443 880.7537,-286.3658 871.6908,-248.4 864.1887,-216.9731 869.5883,-206.5248 855.1908,-177.6 846.2193,-159.5763 842.1962,-155.0134 826.1908,-142.8 809.6554,-130.1822 787.9908,-120.7068 771.5318,-114.6525"/>
<text text-anchor="middle" x="883.4408" y="-235.8" font-family="Times,serif" font-size="14.00" fill="#000000">7.97</text>
</g>
<!-- 0&#45;&#45;12 -->
<g id="edge42" class="edge">
<title>0&#45;&#45;12</title>
<path fill="none" stroke="#000000" d="M911.8313,-356.0785C920.6851,-340.354 933.7354,-317.1768 942.5799,-301.469"/>
<text text-anchor="middle" x="946.9408" y="-324.6" font-family="Times,serif" font-size="14.00" fill="#000000">17.19</text>
</g>
<!-- 1 -->
<g id="node25" class="node">
<title>1</title>
<ellipse fill="none" stroke="#ff0000" cx="665.1908" cy="-462" rx="27" ry="18"/>
<text text-anchor="middle" x="665.1908" y="-457.8" font-family="Times,serif" font-size="14.00" fill="#000000">1</text>
</g>
<!-- 1&#45;&#45;20 -->
<g id="edge44" class="edge">
<title>1&#45;&#45;20</title>
<path fill="none" stroke="#000000" d="M640.0913,-455.2126C605.7129,-444.2145 548.1908,-418.9732 548.1908,-373.2 548.1908,-373.2 548.1908,-373.2 548.1908,-195.6 548.1908,-162.2562 517.183,-134.4332 495.8651,-119.2449"/>
<text text-anchor="middle" x="560.4408" y="-280.2" font-family="Times,serif" font-size="14.00" fill="#000000">7.36</text>
</g>
<!-- 1&#45;&#45;5 -->
<g id="edge45" class="edge">
<title>1&#45;&#45;5</title>
<path fill="none" stroke="#000000" d="M692.0711,-459.5969C743.035,-454.0892 855.9634,-437.2729 938.1908,-391.2 987.7677,-363.4215 1007.9796,-354.7085 1030.1908,-302.4 1045.046,-267.4151 1009.7522,-229.4476 986.8659,-209.559"/>
<text text-anchor="middle" x="1036.9408" y="-324.6" font-family="Times,serif" font-size="14.00" fill="#000000">22.54</text>
</g>
<!-- 1&#45;&#45;14 -->
<g id="edge47" class="edge">
<title>1&#45;&#45;14</title>
<path fill="none" stroke="#000000" d="M654.1234,-445.2009C650.5062,-439.2831 646.6597,-432.4871 643.6908,-426 638.5467,-414.7602 634.1717,-401.5602 631.0827,-391.1701"/>
<text text-anchor="middle" x="659.9408" y="-413.4" font-family="Times,serif" font-size="14.00" fill="#000000">21.87</text>
</g>
<!-- 1&#45;&#45;17 -->
<g id="edge46" class="edge">
<title>1&#45;&#45;17</title>
<path fill="none" stroke="#000000" d="M670.7905,-444.1973C672.4249,-438.4395 674.0707,-431.9937 675.1908,-426 683.4045,-382.0481 687.002,-329.4621 688.4049,-302.4223"/>
<text text-anchor="middle" x="700.9408" y="-369" font-family="Times,serif" font-size="14.00" fill="#000000">22.37</text>
</g>
</g>
</svg>
